<svg width="386" height="167" viewBox="0 0 386 167" fill="none" xmlns="http://www.w3.org/2000/svg">
<rect x="1.42676" y="1" width="382.663" height="46.7865" rx="23.3933" fill="#F9F9FA" stroke="#E2E2EA" stroke-width="2"/>
<path d="M24.82 60.1068H360.696C373.616 60.1068 384.09 70.5803 384.09 83.5001C384.09 96.4198 373.616 106.893 360.696 106.893H24.82C11.9003 106.893 1.42676 96.4198 1.42676 83.5001C1.42676 70.5803 11.9003 60.1068 24.82 60.1068Z" fill="#F9F9FA" stroke="#E2E2EA" stroke-width="2"/>
<rect x="1.42676" y="119.214" width="382.663" height="46.7865" rx="23.3933" fill="#F9F9FA" stroke="#E2E2EA" stroke-width="2"/>
<path d="M29 151C33.4183 151 37 147.418 37 143C37 138.582 33.4183 135 29 135C24.5817 135 21 138.582 21 143C21 147.418 24.5817 151 29 151Z" stroke="#3A2F45" stroke-width="2" stroke-linecap="round" stroke-linejoin="round"/>
<path d="M38.9999 153L34.6499 148.65" stroke="#3A2F45" stroke-width="2" stroke-linecap="round" stroke-linejoin="round"/>
<path d="M53.5592 150.642H54.9985L55.5383 147.355H57.3074L57.5413 145.916H55.7722L56.2399 143.085H58.021L58.2549 141.646H56.4738L57.0135 138.36H55.5743L55.0345 141.646H52.1559L52.6957 138.36H51.2564L50.7167 141.646H48.9475L48.7136 143.085H50.4828L50.015 145.916H48.2339L48 147.355H49.7811L49.2414 150.642H50.6807L51.2204 147.355H54.099L53.5592 150.642ZM51.4543 145.916L51.9221 143.085H54.8006L54.3329 145.916H51.4543Z" fill="#4D4754"/>
<path d="M60.8876 150.642L62.0151 147.391H66.8127L67.9341 150.642H69.9012L65.4813 138.36H63.3404L58.9206 150.642H60.8876ZM62.5548 145.832L64.3659 140.591H64.4619L66.273 145.832H62.5548Z" fill="#4D4754"/>
<path d="M73.5279 138.36H71.6748V150.642H73.5279V138.36Z" fill="#4D4754"/>
<path d="M52.2939 89.729C54.4708 89.729 55.8801 88.4216 56.078 86.6285H54.3329C54.105 87.624 53.3314 88.2117 52.3059 88.2117C50.7886 88.2117 49.8111 86.9463 49.8111 84.9373C49.8111 82.9643 50.8066 81.7229 52.3059 81.7229C53.4453 81.7229 54.141 82.4426 54.3329 83.3061H56.078C55.8861 81.4471 54.3688 80.2117 52.2759 80.2117C49.6792 80.2117 48 82.1667 48 84.9793C48 87.7559 49.6192 89.729 52.2939 89.729Z" fill="#4D4754"/>
<path d="M60.6762 89.747C62.1995 89.747 63.057 88.9733 63.3989 88.2837H63.4708V89.5431H65.222V83.4261C65.222 80.7454 63.111 80.2117 61.6477 80.2117C59.9806 80.2117 58.4453 80.8833 57.8456 82.5625L59.5308 82.9463C59.7947 82.2926 60.4663 81.663 61.6717 81.663C62.8292 81.663 63.4229 82.2687 63.4229 83.3121V83.3541C63.4229 84.0078 62.7512 83.9958 61.096 84.1877C59.3509 84.3916 57.5638 84.8474 57.5638 86.9403C57.5638 88.7515 58.9251 89.747 60.6762 89.747ZM61.066 88.3077C60.0525 88.3077 59.3209 87.8519 59.3209 86.9643C59.3209 86.0048 60.1725 85.663 61.21 85.525C61.7917 85.4471 63.171 85.2912 63.4289 85.0333V86.2207C63.4289 87.3122 62.5593 88.3077 61.066 88.3077Z" fill="#4D4754"/>
<path d="M71.9102 80.3316H70.0211V78.1247H68.228V80.3316H66.8787V81.7709H68.228V87.2102C68.222 88.8834 69.4994 89.693 70.9147 89.663C71.4844 89.657 71.8682 89.5491 72.0781 89.4711L71.7542 87.9898C71.6343 88.0138 71.4124 88.0678 71.1246 88.0678C70.5428 88.0678 70.0211 87.8759 70.0211 86.8384V81.7709H71.9102V80.3316Z" fill="#4D4754"/>
<path d="M80.6478 82.5805C80.276 81.1472 79.1546 80.2117 77.1636 80.2117C75.0826 80.2117 73.6073 81.3091 73.6073 82.9403C73.6073 84.2477 74.3989 85.1173 76.1261 85.5011L77.6853 85.8429C78.5729 86.0408 78.9867 86.4366 78.9867 87.0123C78.9867 87.726 78.225 88.2837 77.0496 88.2837C75.9762 88.2837 75.2865 87.8219 75.0706 86.9164L73.3375 87.1802C73.6373 88.8114 74.9926 89.729 77.0616 89.729C79.2865 89.729 80.8278 88.5476 80.8278 86.8804C80.8278 85.579 80.0002 84.7754 78.309 84.3856L76.8457 84.0498C75.8322 83.8099 75.3944 83.4681 75.4004 82.8444C75.3944 82.1367 76.1621 81.633 77.1816 81.633C78.297 81.633 78.8127 82.2507 79.0226 82.8684L80.6478 82.5805Z" fill="#4D4754"/>
<path d="M87.4125 89.5431H89.1636V88.1098H89.3136C89.6374 88.6975 90.2971 89.723 91.9762 89.723C94.2071 89.723 95.8263 87.9359 95.8263 84.9553C95.8263 81.9688 94.1831 80.2117 91.9582 80.2117C90.2491 80.2117 89.6314 81.2552 89.3136 81.8249H89.2056V77.2611H87.4125V89.5431ZM89.1696 84.9373C89.1696 83.0123 90.0092 81.7349 91.5744 81.7349C93.1996 81.7349 94.0152 83.1082 94.0152 84.9373C94.0152 86.7844 93.1756 88.1937 91.5744 88.1937C90.0332 88.1937 89.1696 86.8744 89.1696 84.9373Z" fill="#4D4754"/>
<path d="M101.81 89.729C103.819 89.729 105.24 88.7395 105.648 87.2402L103.951 86.9343C103.627 87.8039 102.847 88.2477 101.828 88.2477C100.293 88.2477 99.2611 87.2522 99.2132 85.4771H105.762V84.8414C105.762 81.513 103.771 80.2117 101.684 80.2117C99.1172 80.2117 97.426 82.1667 97.426 84.9973C97.426 87.8579 99.0932 89.729 101.81 89.729ZM99.2191 84.1337C99.2911 82.8264 100.239 81.6929 101.696 81.6929C103.087 81.6929 103.999 82.7244 104.005 84.1337H99.2191Z" fill="#4D4754"/>
<path d="M112.135 80.3316H110.15V79.504C110.15 78.6884 110.486 78.2447 111.362 78.2447C111.733 78.2447 111.997 78.3286 112.165 78.3826L112.585 76.9313C112.333 76.8354 111.811 76.6854 111.086 76.6854C109.628 76.6854 108.351 77.537 108.351 79.2641V80.3316H106.93V81.7709H108.351V89.5431H110.15V81.7709H112.135V80.3316Z" fill="#4D4754"/>
<path d="M117.503 89.729C120.099 89.729 121.796 87.8279 121.796 84.9793C121.796 82.1127 120.099 80.2117 117.503 80.2117C114.906 80.2117 113.209 82.1127 113.209 84.9793C113.209 87.8279 114.906 89.729 117.503 89.729ZM117.509 88.2237C115.811 88.2237 115.02 86.7424 115.02 84.9733C115.02 83.2102 115.811 81.7109 117.509 81.7109C119.194 81.7109 119.985 83.2102 119.985 84.9733C119.985 86.7424 119.194 88.2237 117.509 88.2237Z" fill="#4D4754"/>
<path d="M123.798 89.5431H125.591V83.9178C125.591 82.7124 126.521 81.8429 127.792 81.8429C128.164 81.8429 128.584 81.9088 128.728 81.9508V80.2357C128.548 80.2117 128.194 80.1937 127.966 80.1937C126.886 80.1937 125.963 80.8054 125.627 81.7949H125.531V80.3316H123.798V89.5431Z" fill="#4D4754"/>
<path d="M133.919 89.729C135.928 89.729 137.35 88.7395 137.758 87.2402L136.06 86.9343C135.737 87.8039 134.957 88.2477 133.937 88.2477C132.402 88.2477 131.371 87.2522 131.323 85.4771H137.872V84.8414C137.872 81.513 135.881 80.2117 133.794 80.2117C131.227 80.2117 129.536 82.1667 129.536 84.9973C129.536 87.8579 131.203 89.729 133.919 89.729ZM131.329 84.1337C131.401 82.8264 132.348 81.6929 133.806 81.6929C135.197 81.6929 136.108 82.7244 136.114 84.1337H131.329Z" fill="#4D4754"/>
<path d="M141.042 82.9523C141.696 82.9523 142.242 82.4186 142.242 81.7529C142.242 81.0992 141.696 80.5595 141.042 80.5595C140.383 80.5595 139.843 81.0992 139.843 81.7529C139.843 82.4186 140.383 82.9523 141.042 82.9523ZM141.042 89.657C141.696 89.657 142.242 89.1233 142.242 88.4576C142.242 87.8039 141.696 87.2642 141.042 87.2642C140.383 87.2642 139.843 87.8039 139.843 88.4576C139.843 89.1233 140.383 89.657 141.042 89.657Z" fill="#4D4754"/>
<path d="M148.759 81.0992H150.294V79.9298C150.294 79.0243 150.69 78.2626 151.176 77.549L150.288 76.9133C149.371 77.6509 148.759 78.9283 148.759 79.9478V81.0992ZM151.818 81.0992H153.353V79.9298C153.353 79.0243 153.749 78.2626 154.234 77.549L153.347 76.9133C152.429 77.6509 151.818 78.9283 151.818 79.9478V81.0992Z" fill="#4D4754"/>
<path d="M160.028 89.711C162.534 89.711 164.375 88.2117 164.369 86.1727C164.375 84.6195 163.434 83.5041 161.803 83.2522V83.1562C163.086 82.8264 163.92 81.8189 163.914 80.4396C163.92 78.6345 162.438 77.0932 160.076 77.0932C157.821 77.0932 156.01 78.4546 155.95 80.4516H157.743C157.785 79.3241 158.846 78.6405 160.052 78.6405C161.305 78.6405 162.127 79.4021 162.121 80.5355C162.127 81.7229 161.173 82.5025 159.812 82.5025H158.774V84.0138H159.812C161.515 84.0138 162.498 84.8774 162.498 86.1128C162.498 87.3062 161.461 88.1158 160.016 88.1158C158.684 88.1158 157.647 87.4321 157.575 86.3406H155.692C155.77 88.3437 157.545 89.711 160.028 89.711Z" fill="#4D4754"/>
<path d="M174.578 89.723C176.257 89.723 176.917 88.6975 177.241 88.1098H177.39V89.5431H179.142V77.2611H177.348V81.8249H177.241C176.917 81.2552 176.305 80.2117 174.59 80.2117C172.365 80.2117 170.728 81.9688 170.728 84.9553C170.728 87.9359 172.341 89.723 174.578 89.723ZM174.974 88.1937C173.372 88.1937 172.539 86.7844 172.539 84.9373C172.539 83.1082 173.354 81.7349 174.974 81.7349C176.539 81.7349 177.378 83.0123 177.378 84.9373C177.378 86.8744 176.521 88.1937 174.974 88.1937Z" fill="#4D4754"/>
<path d="M184.381 89.747C185.905 89.747 186.762 88.9733 187.104 88.2837H187.176V89.5431H188.927V83.4261C188.927 80.7454 186.816 80.2117 185.353 80.2117C183.686 80.2117 182.151 80.8833 181.551 82.5625L183.236 82.9463C183.5 82.2926 184.172 81.663 185.377 81.663C186.534 81.663 187.128 82.2687 187.128 83.3121V83.3541C187.128 84.0078 186.456 83.9958 184.801 84.1877C183.056 84.3916 181.269 84.8474 181.269 86.9403C181.269 88.7515 182.63 89.747 184.381 89.747ZM184.771 88.3077C183.758 88.3077 183.026 87.8519 183.026 86.9643C183.026 86.0048 183.878 85.663 184.915 85.525C185.497 85.4471 186.876 85.2912 187.134 85.0333V86.2207C187.134 87.3122 186.265 88.3077 184.771 88.3077Z" fill="#4D4754"/>
<path d="M192.119 92.9734C193.6 92.9734 194.542 92.1997 195.07 90.7725L198.878 80.3496L196.941 80.3316L194.608 87.4801H194.512L192.179 80.3316H190.26L193.63 89.663L193.409 90.2747C192.953 91.4681 192.311 91.5761 191.328 91.3062L190.896 92.7755C191.112 92.8774 191.579 92.9734 192.119 92.9734Z" fill="#4D4754"/>
<path d="M207.47 82.5805C207.098 81.1472 205.977 80.2117 203.986 80.2117C201.905 80.2117 200.43 81.3091 200.43 82.9403C200.43 84.2477 201.221 85.1173 202.948 85.5011L204.508 85.8429C205.395 86.0408 205.809 86.4366 205.809 87.0123C205.809 87.726 205.047 88.2837 203.872 88.2837C202.798 88.2837 202.109 87.8219 201.893 86.9164L200.16 87.1802C200.46 88.8114 201.815 89.729 203.884 89.729C206.109 89.729 207.65 88.5476 207.65 86.8804C207.65 85.579 206.822 84.7754 205.131 84.3856L203.668 84.0498C202.654 83.8099 202.217 83.4681 202.223 82.8444C202.217 82.1367 202.984 81.633 204.004 81.633C205.119 81.633 205.635 82.2507 205.845 82.8684L207.47 82.5805Z" fill="#4D4754"/>
<path d="M216.771 89.747C218.295 89.747 219.152 88.9733 219.494 88.2837H219.566V89.5431H221.317V83.4261C221.317 80.7454 219.206 80.2117 217.743 80.2117C216.076 80.2117 214.541 80.8833 213.941 82.5625L215.626 82.9463C215.89 82.2926 216.562 81.663 217.767 81.663C218.924 81.663 219.518 82.2687 219.518 83.3121V83.3541C219.518 84.0078 218.846 83.9958 217.191 84.1877C215.446 84.3916 213.659 84.8474 213.659 86.9403C213.659 88.7515 215.02 89.747 216.771 89.747ZM217.161 88.3077C216.148 88.3077 215.416 87.8519 215.416 86.9643C215.416 86.0048 216.268 85.663 217.305 85.525C217.887 85.4471 219.266 85.2912 219.524 85.0333V86.2207C219.524 87.3122 218.655 88.3077 217.161 88.3077Z" fill="#4D4754"/>
<path d="M227.568 93.1713C229.912 93.1713 231.724 92.0978 231.724 89.747V80.3316H229.966V81.8249H229.834C229.517 81.2552 228.881 80.2117 227.166 80.2117C224.941 80.2117 223.304 81.9688 223.304 84.9014C223.304 87.8399 224.977 89.4051 227.154 89.4051C228.845 89.4051 229.499 88.4516 229.822 87.8639H229.936V89.675C229.936 91.0963 228.947 91.726 227.586 91.726C226.092 91.726 225.511 90.9763 225.193 90.4666L223.652 91.1023C224.137 92.2117 225.367 93.1713 227.568 93.1713ZM227.55 87.9179C225.948 87.9179 225.115 86.6885 225.115 84.8774C225.115 83.1082 225.93 81.7349 227.55 81.7349C229.115 81.7349 229.954 83.0123 229.954 84.8774C229.954 86.7784 229.097 87.9179 227.55 87.9179Z" fill="#4D4754"/>
<path d="M238.008 89.729C240.605 89.729 242.302 87.8279 242.302 84.9793C242.302 82.1127 240.605 80.2117 238.008 80.2117C235.412 80.2117 233.715 82.1127 233.715 84.9793C233.715 87.8279 235.412 89.729 238.008 89.729ZM238.014 88.2237C236.317 88.2237 235.526 86.7424 235.526 84.9733C235.526 83.2102 236.317 81.7109 238.014 81.7109C239.7 81.7109 240.491 83.2102 240.491 84.9733C240.491 86.7424 239.7 88.2237 238.014 88.2237Z" fill="#4D4754"/>
<path d="M245.845 77.2611H244.31V78.4306C244.31 79.3601 243.902 80.1217 243.434 80.8114L244.322 81.4471C245.245 80.7034 245.845 79.4321 245.845 78.4126V77.2611ZM248.898 77.2611H247.362V78.4306C247.362 79.3601 246.955 80.1217 246.487 80.8114L247.374 81.4471C248.298 80.7034 248.898 79.4321 248.898 78.4126V77.2611Z" fill="#4D4754"/>
<path d="M134.793 26.3883C134.793 24.9191 135.723 24.0795 137 24.0795C138.235 24.0795 138.973 24.8651 138.973 26.2144V31.8576H140.766V25.9985C140.766 23.7017 139.507 22.5263 137.612 22.5263C136.178 22.5263 135.315 23.1499 134.883 24.1455H134.769V19.5757H133V31.8576H134.793V26.3883Z" fill="#4D4754"/>
<path d="M147.039 32.0435C149.636 32.0435 151.333 30.1425 151.333 27.2939C151.333 24.4273 149.636 22.5263 147.039 22.5263C144.442 22.5263 142.745 24.4273 142.745 27.2939C142.745 30.1425 144.442 32.0435 147.039 32.0435ZM147.045 30.5383C145.348 30.5383 144.556 29.057 144.556 27.2879C144.556 25.5248 145.348 24.0255 147.045 24.0255C148.73 24.0255 149.522 25.5248 149.522 27.2879C149.522 29.057 148.73 30.5383 147.045 30.5383Z" fill="#4D4754"/>
<path d="M159.17 28.0375C159.176 29.6028 158.012 30.3464 157.005 30.3464C155.895 30.3464 155.128 29.5428 155.128 28.2894V22.6462H153.334V28.5053C153.334 30.7902 154.588 31.9776 156.357 31.9776C157.742 31.9776 158.684 31.2459 159.11 30.2624H159.206V31.8576H160.969V22.6462H159.17V28.0375Z" fill="#4D4754"/>
<path d="M170.281 24.8951C169.909 23.4618 168.787 22.5263 166.796 22.5263C164.715 22.5263 163.24 23.6237 163.24 25.2549C163.24 26.5623 164.032 27.4318 165.759 27.8156L167.318 28.1575C168.206 28.3554 168.619 28.7512 168.619 29.3269C168.619 30.0405 167.858 30.5983 166.682 30.5983C165.609 30.5983 164.919 30.1365 164.703 29.2309L162.97 29.4948C163.27 31.126 164.625 32.0435 166.694 32.0435C168.919 32.0435 170.46 30.8621 170.46 29.195C170.46 27.8936 169.633 27.09 167.942 26.7002L166.478 26.3644C165.465 26.1245 165.027 25.7826 165.033 25.159C165.027 24.4513 165.795 23.9476 166.814 23.9476C167.93 23.9476 168.445 24.5652 168.655 25.1829L170.281 24.8951Z" fill="#4D4754"/>
<path d="M176.402 32.0435C178.411 32.0435 179.832 31.054 180.24 29.5548L178.543 29.2489C178.219 30.1185 177.44 30.5623 176.42 30.5623C174.885 30.5623 173.853 29.5668 173.805 27.7916H180.354V27.156C180.354 23.8276 178.363 22.5263 176.276 22.5263C173.709 22.5263 172.018 24.4813 172.018 27.3119C172.018 30.1725 173.685 32.0435 176.402 32.0435ZM173.811 26.4483C173.883 25.141 174.831 24.0075 176.288 24.0075C177.679 24.0075 178.591 25.039 178.597 26.4483H173.811Z" fill="#4D4754"/>
<path d="M189.494 32.0615C191.017 32.0615 191.874 31.2879 192.216 30.5983H192.288V31.8576H194.039V25.7407C194.039 23.06 191.928 22.5263 190.465 22.5263C188.798 22.5263 187.263 23.1979 186.663 24.8771L188.348 25.2609C188.612 24.6072 189.284 23.9775 190.489 23.9775C191.646 23.9775 192.24 24.5832 192.24 25.6267V25.6687C192.24 26.3224 191.569 26.3104 189.913 26.5023C188.168 26.7062 186.381 27.162 186.381 29.2549C186.381 31.066 187.742 32.0615 189.494 32.0615ZM189.883 30.6222C188.87 30.6222 188.138 30.1665 188.138 29.2789C188.138 28.3194 188.99 27.9776 190.027 27.8396C190.609 27.7617 191.988 27.6057 192.246 27.3479V28.5353C192.246 29.6267 191.377 30.6222 189.883 30.6222Z" fill="#4D4754"/>
<path d="M200.811 22.6462H198.826V21.8186C198.826 21.003 199.162 20.5592 200.038 20.5592C200.41 20.5592 200.673 20.6432 200.841 20.6972L201.261 19.2459C201.009 19.1499 200.488 19 199.762 19C198.305 19 197.027 19.8516 197.027 21.5787V22.6462H195.606V24.0855H197.027V31.8576H198.826V24.0855H200.811V22.6462Z" fill="#4D4754"/>
<path d="M206.961 22.6462H205.072V20.4393H203.279V22.6462H201.93V24.0855H203.279V29.5248C203.273 31.198 204.551 32.0076 205.966 31.9776C206.536 31.9716 206.919 31.8636 207.129 31.7857L206.805 30.3044C206.686 30.3284 206.464 30.3824 206.176 30.3824C205.594 30.3824 205.072 30.1905 205.072 29.153V24.0855H206.961V22.6462Z" fill="#4D4754"/>
<path d="M212.816 32.0435C214.825 32.0435 216.246 31.054 216.654 29.5548L214.957 29.2489C214.633 30.1185 213.853 30.5623 212.834 30.5623C211.299 30.5623 210.267 29.5668 210.219 27.7916H216.768V27.156C216.768 23.8276 214.777 22.5263 212.69 22.5263C210.123 22.5263 208.432 24.4813 208.432 27.3119C208.432 30.1725 210.099 32.0435 212.816 32.0435ZM210.225 26.4483C210.297 25.141 211.245 24.0075 212.702 24.0075C214.093 24.0075 215.005 25.039 215.011 26.4483H210.225Z" fill="#4D4754"/>
<path d="M218.758 31.8576H220.551V26.2324C220.551 25.027 221.48 24.1574 222.752 24.1574C223.123 24.1574 223.543 24.2234 223.687 24.2654V22.5502C223.507 22.5263 223.153 22.5083 222.925 22.5083C221.846 22.5083 220.922 23.12 220.587 24.1095H220.491V22.6462H218.758V31.8576Z" fill="#4D4754"/>
<path d="M226.42 25.2669C227.074 25.2669 227.62 24.7332 227.62 24.0675C227.62 23.4138 227.074 22.8741 226.42 22.8741C225.761 22.8741 225.221 23.4138 225.221 24.0675C225.221 24.7332 225.761 25.2669 226.42 25.2669ZM226.42 31.9716C227.074 31.9716 227.62 31.4378 227.62 30.7722C227.62 30.1185 227.074 29.5788 226.42 29.5788C225.761 29.5788 225.221 30.1185 225.221 30.7722C225.221 31.4378 225.761 31.9716 226.42 31.9716Z" fill="#4D4754"/>
<path d="M234.137 23.4138H235.672V22.2444C235.672 21.3388 236.068 20.5772 236.554 19.8636L235.666 19.2279C234.749 19.9655 234.137 21.2429 234.137 22.2624V23.4138ZM237.195 23.4138H238.731V22.2444C238.731 21.3388 239.126 20.5772 239.612 19.8636L238.725 19.2279C237.807 19.9655 237.195 21.2429 237.195 22.2624V23.4138Z" fill="#4D4754"/>
<path d="M245.789 19.5757H243.984L240.92 21.5787V23.3538L243.858 21.4348H243.93V31.8576H245.789V19.5757Z" fill="#4D4754"/>
<path d="M253.387 32.0615C256.224 32.0615 257.885 29.7467 257.885 25.7227C257.885 21.7287 256.2 19.4078 253.387 19.4078C250.569 19.4078 248.89 21.7227 248.884 25.7227C248.884 29.7407 250.545 32.0555 253.387 32.0615ZM253.387 30.4603C251.726 30.4603 250.725 28.7932 250.725 25.7227C250.731 22.6642 251.732 20.979 253.387 20.979C255.037 20.979 256.044 22.6642 256.044 25.7227C256.044 28.7932 255.043 30.4603 253.387 30.4603Z" fill="#4D4754"/>
<path d="M266.299 26.3883C266.299 24.9191 267.229 24.0795 268.506 24.0795C269.741 24.0795 270.479 24.8651 270.479 26.2144V31.8576H272.272V25.9985C272.272 23.7017 271.013 22.5263 269.118 22.5263C267.684 22.5263 266.821 23.1499 266.389 24.1455H266.275V19.5757H264.506V31.8576H266.299V26.3883Z" fill="#4D4754"/>
<path d="M278.545 32.0435C281.142 32.0435 282.839 30.1425 282.839 27.2939C282.839 24.4273 281.142 22.5263 278.545 22.5263C275.948 22.5263 274.251 24.4273 274.251 27.2939C274.251 30.1425 275.948 32.0435 278.545 32.0435ZM278.551 30.5383C276.854 30.5383 276.062 29.057 276.062 27.2879C276.062 25.5248 276.854 24.0255 278.551 24.0255C280.236 24.0255 281.028 25.5248 281.028 27.2879C281.028 29.057 280.236 30.5383 278.551 30.5383Z" fill="#4D4754"/>
<path d="M290.675 28.0375C290.681 29.6028 289.518 30.3464 288.511 30.3464C287.401 30.3464 286.633 29.5428 286.633 28.2894V22.6462H284.84V28.5053C284.84 30.7902 286.094 31.9776 287.863 31.9776C289.248 31.9776 290.19 31.2459 290.615 30.2624H290.711V31.8576H292.475V22.6462H290.675V28.0375Z" fill="#4D4754"/>
<path d="M294.884 31.8576H296.677V26.2324C296.677 25.027 297.606 24.1574 298.878 24.1574C299.25 24.1574 299.669 24.2234 299.813 24.2654V22.5502C299.634 22.5263 299.28 22.5083 299.052 22.5083C297.972 22.5083 297.049 23.12 296.713 24.1095H296.617V22.6462H294.884V31.8576Z" fill="#4D4754"/>
<path d="M308.268 24.8951C307.896 23.4618 306.774 22.5263 304.783 22.5263C302.702 22.5263 301.227 23.6237 301.227 25.2549C301.227 26.5623 302.019 27.4318 303.746 27.8156L305.305 28.1575C306.193 28.3554 306.607 28.7512 306.607 29.3269C306.607 30.0405 305.845 30.5983 304.669 30.5983C303.596 30.5983 302.906 30.1365 302.69 29.2309L300.957 29.4948C301.257 31.126 302.613 32.0435 304.682 32.0435C306.906 32.0435 308.448 30.8621 308.448 29.195C308.448 27.8936 307.62 27.09 305.929 26.7002L304.466 26.3644C303.452 26.1245 303.014 25.7826 303.02 25.159C303.014 24.4513 303.782 23.9476 304.801 23.9476C305.917 23.9476 306.433 24.5652 306.643 25.1829L308.268 24.8951Z" fill="#4D4754"/>
<path d="M317.569 32.0615C319.092 32.0615 319.95 31.2879 320.292 30.5983H320.364V31.8576H322.115V25.7407C322.115 23.06 320.004 22.5263 318.541 22.5263C316.873 22.5263 315.338 23.1979 314.739 24.8771L316.424 25.2609C316.688 24.6072 317.359 23.9775 318.565 23.9775C319.722 23.9775 320.316 24.5832 320.316 25.6267V25.6687C320.316 26.3224 319.644 26.3104 317.989 26.5023C316.244 26.7062 314.457 27.162 314.457 29.2549C314.457 31.066 315.818 32.0615 317.569 32.0615ZM317.959 30.6222C316.945 30.6222 316.214 30.1665 316.214 29.2789C316.214 28.3194 317.065 27.9776 318.103 27.8396C318.685 27.7617 320.064 27.6057 320.322 27.3479V28.5353C320.322 29.6267 319.452 30.6222 317.959 30.6222Z" fill="#4D4754"/>
<path d="M328.365 35.4858C330.71 35.4858 332.521 34.4124 332.521 32.0615V22.6462H330.764V24.1395H330.632C330.314 23.5697 329.679 22.5263 327.963 22.5263C325.739 22.5263 324.101 24.2834 324.101 27.2159C324.101 30.1545 325.775 31.7197 327.951 31.7197C329.643 31.7197 330.296 30.7662 330.62 30.1785H330.734V31.9896C330.734 33.4109 329.745 34.0406 328.383 34.0406C326.89 34.0406 326.308 33.2909 325.99 32.7812L324.449 33.4169C324.935 34.5263 326.164 35.4858 328.365 35.4858ZM328.347 30.2324C326.746 30.2324 325.912 29.003 325.912 27.1919C325.912 25.4228 326.728 24.0495 328.347 24.0495C329.912 24.0495 330.752 25.3269 330.752 27.1919C330.752 29.093 329.895 30.2324 328.347 30.2324Z" fill="#4D4754"/>
<path d="M338.806 32.0435C341.403 32.0435 343.1 30.1425 343.1 27.2939C343.1 24.4273 341.403 22.5263 338.806 22.5263C336.209 22.5263 334.512 24.4273 334.512 27.2939C334.512 30.1425 336.209 32.0435 338.806 32.0435ZM338.812 30.5383C337.115 30.5383 336.323 29.057 336.323 27.2879C336.323 25.5248 337.115 24.0255 338.812 24.0255C340.497 24.0255 341.289 25.5248 341.289 27.2879C341.289 29.057 340.497 30.5383 338.812 30.5383Z" fill="#4D4754"/>
<path d="M346.643 19.5757H345.107V20.7451C345.107 21.6747 344.7 22.4363 344.232 23.126L345.119 23.7616C346.043 23.018 346.643 21.7466 346.643 20.7271V19.5757ZM349.695 19.5757H348.16V20.7451C348.16 21.6747 347.752 22.4363 347.284 23.126L348.172 23.7616C349.096 23.018 349.695 21.7466 349.695 20.7271V19.5757Z" fill="#4D4754"/>
<path d="M28.3201 90.7584C32.4653 90.7584 35.8257 87.3981 35.8257 83.2528C35.8257 79.1076 32.4653 75.7472 28.3201 75.7472C24.1748 75.7472 20.8145 79.1076 20.8145 83.2528C20.8145 87.3981 24.1748 90.7584 28.3201 90.7584Z" stroke="#3A2F45" stroke-width="2" stroke-linecap="round" stroke-linejoin="round"/>
<path d="M37.7023 92.6349L33.6211 88.5537" stroke="#3A2F45" stroke-width="2" stroke-linecap="round" stroke-linejoin="round"/>
<path d="M55.4972 18.6364V31H56.8977V21.6065H57.0185L60.8821 31H62.2344L66.098 21.6065H66.2188V31H67.6193V18.6364H65.8324L61.6307 28.8991H61.4858L57.2841 18.6364H55.4972ZM74.3158 31.1932C76.1993 31.1932 77.5757 30.2514 78.0104 28.8509L76.634 28.4645C76.2718 29.4304 75.4326 29.9134 74.3158 29.9134C72.6436 29.9134 71.4905 28.8327 71.4241 26.8466H78.1553V26.2429C78.1553 22.7898 76.1027 21.6065 74.1709 21.6065C71.6595 21.6065 69.9933 23.5866 69.9933 26.4361C69.9933 29.2855 71.6354 31.1932 74.3158 31.1932ZM71.4241 25.6151C71.5207 24.1722 72.5409 22.8864 74.1709 22.8864C75.7164 22.8864 76.7064 24.0455 76.7064 25.6151H71.4241ZM80.3225 31H81.7472V25.2045C81.7472 23.8462 82.7373 22.8864 83.8481 22.8864C84.9287 22.8864 85.6833 23.5927 85.6833 24.6491V31H87.1322V24.9631C87.1322 23.7678 87.8808 22.8864 89.1847 22.8864C90.199 22.8864 91.0683 23.4237 91.0683 24.794V31H92.493V24.794C92.493 22.6147 91.3218 21.6065 89.6677 21.6065C88.3396 21.6065 87.3676 22.2163 86.8907 23.1761H86.7941C86.3353 22.1861 85.5264 21.6065 84.3069 21.6065C83.0995 21.6065 82.2061 22.1861 81.8197 23.1761H81.699V21.7273H80.3225V31ZM98.9857 31.1932C100.869 31.1932 102.246 30.2514 102.68 28.8509L101.304 28.4645C100.942 29.4304 100.103 29.9134 98.9857 29.9134C97.3135 29.9134 96.1604 28.8327 96.094 26.8466H102.825V26.2429C102.825 22.7898 100.773 21.6065 98.8408 21.6065C96.3295 21.6065 94.6633 23.5866 94.6633 26.4361C94.6633 29.2855 96.3053 31.1932 98.9857 31.1932ZM96.094 25.6151C96.1906 24.1722 97.2108 22.8864 98.8408 22.8864C100.386 22.8864 101.376 24.0455 101.376 25.6151H96.094ZM105.806 21.7273H104.164L107.11 26.3636L104.164 31H105.806L108.028 27.402L110.249 31H111.891L108.897 26.3636L111.891 21.7273H110.249L108.028 25.5185L105.806 21.7273Z" fill="#2D73FC"/>
<line x1="122.5" y1="14" x2="122.5" y2="38" stroke="#CECED9"/>
<path fill-rule="evenodd" clip-rule="evenodd" d="M24.0909 18.0073C23.9795 18.0073 23.8668 17.9805 23.7621 17.925C23.4159 17.7412 23.2834 17.3095 23.4655 16.9606C23.5621 16.7755 25.8591 12.4275 28.8971 12.6236C29.2877 12.6478 29.5839 12.9868 29.5598 13.3804C29.5359 13.774 29.1943 14.072 28.8098 14.0487C27.0411 13.9268 25.2559 16.5932 24.7172 17.6255C24.5909 17.8683 24.3451 18.0073 24.0909 18.0073" fill="#4D4754"/>
<path fill-rule="evenodd" clip-rule="evenodd" d="M19.2309 26.2773C18.928 26.2773 18.6479 26.0792 18.5545 25.7718C18.4403 25.3948 18.6507 24.9965 19.0233 24.8808C19.1941 24.827 22.9886 23.5828 22.0538 19.9102C21.9566 19.528 22.1849 19.1387 22.5631 19.0411C22.9424 18.9421 23.3277 19.173 23.4249 19.5547C24.4437 23.5605 21.2628 25.6828 19.4379 26.2458C19.3691 26.267 19.2997 26.2774 19.2309 26.2774" fill="#4D4754"/>
<path fill-rule="evenodd" clip-rule="evenodd" d="M26.8294 21.323C26.7851 21.323 26.7408 21.3189 26.6959 21.31C26.3116 21.2358 26.0602 20.8621 26.1332 20.4747C27.1148 15.2928 31.3701 15.2405 31.4305 15.2405H31.4309C31.8215 15.2419 32.137 15.5632 32.1351 15.9573C32.1332 16.3504 31.8172 16.6679 31.4286 16.6684C31.2918 16.6698 28.2797 16.7488 27.5237 20.7427C27.4586 21.0849 27.1619 21.3229 26.8294 21.3229" fill="#4D4754"/>
<path fill-rule="evenodd" clip-rule="evenodd" d="M20.4985 30.9623C20.3665 30.9623 20.2334 30.9251 20.1146 30.8475C19.7864 30.6329 19.693 30.1907 19.9052 29.8599C20.3689 29.1388 24.5379 22.8132 28.2706 22.8065H28.2716C28.6621 22.8065 28.9786 23.1255 28.9791 23.5191C28.98 23.9132 28.664 24.2335 28.273 24.2345C25.7524 24.2393 22.2352 28.8575 21.0929 30.6367C20.9575 30.8475 20.7302 30.9623 20.4986 30.9623" fill="#4D4754"/>
<path fill-rule="evenodd" clip-rule="evenodd" d="M24.629 34.3882C24.4926 34.3882 24.3554 34.3487 24.2342 34.2664C23.9102 34.0459 23.8243 33.6024 24.0427 33.2754C24.6219 32.4072 24.9917 31.8642 25.26 31.5314C24.737 28.4262 26.6165 27.3262 27.8018 26.9455C28.1745 26.8246 28.5716 27.0331 28.6904 27.4091C28.8088 27.7846 28.6032 28.1863 28.2311 28.3058C26.8415 28.7522 26.35 29.7532 26.6845 31.4553C26.7269 31.6714 26.7911 31.9969 26.5142 32.2753C26.4873 32.3021 26.459 32.3262 26.4283 32.3487C26.2405 32.5733 25.6732 33.3887 25.2161 34.0731C25.0794 34.2778 24.8558 34.3882 24.6289 34.3882" fill="#4D4754"/>
<path fill-rule="evenodd" clip-rule="evenodd" d="M28.6796 33.7886C28.3862 33.7886 28.1122 33.603 28.0108 33.3079C27.659 32.2803 26.1218 32.4754 26.1058 32.4783C25.719 32.5268 25.3624 32.256 25.3106 31.8652C25.2587 31.4744 25.5303 31.1151 25.918 31.0627C26.9175 30.9271 28.7683 31.1489 29.3485 32.841C29.4758 33.2136 29.2801 33.6201 28.9107 33.7491C28.8343 33.7759 28.756 33.7886 28.6796 33.7886Z" fill="#4D4754"/>
<path fill-rule="evenodd" clip-rule="evenodd" d="M26.444 37.633C25.9162 37.633 25.3629 37.5764 24.8111 37.4602C23.7343 37.2337 21.7665 36.5849 20.6902 34.7877C20.4879 34.4502 20.5949 34.0113 20.9293 33.8071C21.2637 33.6039 21.6981 33.711 21.9005 34.049C22.4844 35.0237 23.6508 35.7577 25.1002 36.0628C26.6029 36.3783 27.8354 36.1322 28.3443 35.7686C28.6622 35.5411 29.1051 35.6173 29.3305 35.939C29.5565 36.2612 29.4805 36.7068 29.1617 36.9343C28.5222 37.3907 27.5373 37.6329 26.444 37.6329" fill="#4D4754"/>
<path fill-rule="evenodd" clip-rule="evenodd" d="M28.5969 9.00012C27.714 9.00012 26.8211 9.25477 26.1467 9.69884C25.7674 9.94825 25.2934 10.1758 24.7916 10.4166C23.5393 11.0177 22.1201 11.6989 21.2998 13.1334C20.757 14.0839 20.7905 14.9435 20.8154 15.5713C20.8228 15.7693 20.8302 15.9469 20.8206 16.1139C20.6985 16.24 20.447 16.4338 20.2867 16.557C19.9966 16.7798 19.6971 17.0102 19.4533 17.29C17.4864 19.5462 17.9925 21.6033 18.2949 22.8322C18.3604 23.0978 18.4222 23.3487 18.4411 23.5285C18.4779 23.8755 18.4401 24.6147 18.4101 25.2087C18.3818 25.7742 18.3545 26.3077 18.3733 26.6966C18.4024 27.2963 18.661 27.9179 18.9959 28.6681C19.0742 28.8427 19.1624 29.0407 19.1935 29.1307C19.4515 29.878 19.6237 31.4224 19.6798 31.9298C20.1557 36.2036 23.1375 37.7376 25.3152 38.858C25.6944 39.0531 26.0524 39.2373 26.3797 39.4245C26.9835 39.7705 27.8994 39.9942 28.7135 39.9942C30.3308 39.9942 31.4751 39.1165 31.6996 37.7043C31.9264 36.2764 31.9496 34.6876 31.9406 33.184V33.1781C31.9071 27.503 31.9296 12.8608 31.9498 12.1564C31.9738 11.3011 31.698 10.5491 31.1509 9.98124C30.5416 9.34853 29.6346 9.00012 28.597 9.00012H28.5969ZM28.6574 32.8171C28.6574 32.8171 28.6422 32.7918 28.6223 32.7585C28.6301 32.7719 28.6385 32.7852 28.6477 32.8008C28.6544 32.812 28.6574 32.8172 28.6574 32.8172V32.8171ZM29.4746 13.512C29.4737 13.512 29.4732 13.5124 29.4728 13.5124H29.4723C29.4733 13.5124 29.4738 13.512 29.4746 13.512L29.4751 13.5115L29.4746 13.512ZM28.5969 10.428C29.6115 10.428 30.5689 10.9126 30.535 12.1149C30.5125 12.9045 30.493 27.6937 30.5254 33.1864V33.1749C30.525 33.0459 30.5239 32.945 30.5235 32.8593V32.8236V32.8593C30.5244 32.9797 30.525 33.1016 30.5254 33.1749V33.1871V33.1923C30.5335 34.5598 30.5162 36.1271 30.3018 37.4779C30.1707 38.3056 29.457 38.566 28.7132 38.566C28.0727 38.566 27.4096 38.3728 27.078 38.1824C24.7971 36.8764 21.5482 35.9263 21.086 31.7701C20.9695 30.724 20.8012 29.4479 20.5295 28.6607C20.3672 28.1904 19.8135 27.1795 19.7866 26.6264C19.7509 25.8919 19.9333 24.1847 19.8479 23.377C19.7121 22.087 18.6334 20.3917 20.5153 18.2327C20.962 17.7205 22.1186 17.1618 22.2105 16.4454C22.3318 15.4982 22.0058 14.7562 22.5256 13.8466C23.4104 12.2983 25.4957 11.8319 26.9196 10.8942C27.3672 10.5996 27.9921 10.4278 28.5968 10.4278" fill="#4D4754"/>
<path fill-rule="evenodd" clip-rule="evenodd" d="M34.354 9.00012C33.3163 9.00012 32.4094 9.34852 31.8004 9.98109C31.2533 10.5489 30.9774 11.3009 31.0014 12.1558C31.0217 12.8612 31.0439 27.5038 31.0106 33.1778V33.1927C31.0014 34.6877 31.025 36.2765 31.2517 37.7044C31.4762 39.1166 32.6204 39.9943 34.2377 39.9943C35.0519 39.9943 35.9678 39.7705 36.5715 39.4245C36.8989 39.2375 37.2568 39.0533 37.6361 38.8581C39.8138 37.7377 42.7956 36.2037 43.2715 31.93C43.3276 31.4226 43.4998 29.8786 43.7578 29.1313C43.7891 29.0408 43.8771 28.8428 43.9554 28.6681C44.2903 27.918 44.5488 27.2964 44.578 26.6962C44.5968 26.3078 44.5695 25.7743 44.5412 25.2088C44.5109 24.6148 44.4732 23.8756 44.5099 23.5286C44.5287 23.3487 44.5905 23.0979 44.6561 22.8323C44.9584 21.6033 45.4645 19.5462 43.4977 17.2901C43.2539 17.0103 42.9544 16.7799 42.6643 16.5571C42.5039 16.4339 42.2525 16.2401 42.1303 16.114C42.1208 15.9469 42.128 15.7694 42.1355 15.5714C42.1605 14.9436 42.194 14.084 41.6511 13.1335C40.8309 11.6989 39.4117 11.0178 38.1595 10.4167C37.6576 10.1759 37.1841 9.94833 36.8049 9.69892C36.1299 9.25485 35.237 9.0002 34.3541 9.0002L34.354 9.00012ZM34.2937 32.8171C34.2937 32.8171 34.2966 32.8119 34.3033 32.8007C34.3129 32.7852 34.3207 32.7718 34.3288 32.7584C34.3089 32.7919 34.2937 32.817 34.2937 32.817V32.8171ZM33.4762 13.5117C33.4772 13.5117 33.4777 13.5122 33.4786 13.5122H33.4781C33.4777 13.5122 33.4771 13.5117 33.4762 13.5117L33.4758 13.5113L33.4762 13.5117ZM34.354 10.428C34.9587 10.428 35.5841 10.6002 36.0312 10.8944C37.4552 11.8321 39.5403 12.2985 40.4252 13.8468C40.9449 14.7564 40.6191 15.4984 40.7403 16.4456C40.8323 17.1619 41.9887 17.7207 42.4354 18.2328C44.3173 20.3919 43.2387 22.0873 43.1029 23.3771C43.0175 24.1848 43.2 25.8921 43.1641 26.6265C43.1373 27.1796 42.5836 28.1906 42.4213 28.6608C42.1496 29.4481 41.9813 30.7241 41.8647 31.7704C41.4025 35.9265 38.1537 36.8765 35.8727 38.1826C35.5412 38.3729 34.878 38.5662 34.2375 38.5662C33.4942 38.5662 32.78 38.3059 32.649 37.4782C32.4343 36.1274 32.4174 34.56 32.4254 33.1925V33.1874V33.1751C32.4254 33.126 32.4258 33.056 32.4263 32.9794C32.4268 32.9218 32.4273 32.8704 32.4273 32.8238C32.4273 32.8762 32.4268 32.929 32.4263 32.9794C32.4263 33.037 32.4258 33.1013 32.4254 33.1751V33.1866C32.4578 27.6939 32.4386 12.9047 32.4158 12.115C32.3819 10.9123 33.3393 10.4282 34.3538 10.4282" fill="#4D4754"/>
<path fill-rule="evenodd" clip-rule="evenodd" d="M38.8594 18.0068C38.6056 18.0068 38.3599 17.8684 38.233 17.626C37.692 16.5937 35.9101 13.9263 34.1399 14.0487C33.7608 14.0725 33.4141 13.774 33.39 13.3804C33.3661 12.9868 33.6622 12.6479 34.0527 12.6236C37.0911 12.4256 39.3881 16.7755 39.4848 16.9606C39.6669 17.3095 39.5343 17.7403 39.1886 17.9245C39.0838 17.9801 38.9706 18.0068 38.8594 18.0068Z" fill="#4D4754"/>
<path fill-rule="evenodd" clip-rule="evenodd" d="M43.7184 26.2772C43.6495 26.2772 43.5802 26.2671 43.5118 26.246C41.6869 25.6829 38.506 23.5605 39.5248 19.5548C39.622 19.1731 40.0064 18.9423 40.3865 19.0412C40.7648 19.1388 40.9931 19.5281 40.896 19.9103C39.9602 23.5872 43.7646 24.83 43.9269 24.8809C44.299 24.998 44.5084 25.3973 44.3938 25.7733C44.2995 26.0799 44.0207 26.2773 43.7184 26.2773" fill="#4D4754"/>
<path fill-rule="evenodd" clip-rule="evenodd" d="M36.121 21.3231C35.7884 21.3231 35.4918 21.0851 35.4267 20.7429C34.6664 16.7257 31.6893 16.6687 31.5279 16.6687C31.5243 16.6681 31.5239 16.6687 31.5224 16.6687C31.1333 16.6687 30.8168 16.3507 30.8149 15.9575C30.8131 15.5634 31.1286 15.2421 31.5191 15.2407H31.5196C31.5795 15.2407 35.8358 15.2926 36.8173 20.4749C36.8904 20.8624 36.639 21.236 36.2546 21.3102C36.2098 21.3188 36.1654 21.3233 36.1211 21.3233" fill="#4D4754"/>
<path fill-rule="evenodd" clip-rule="evenodd" d="M42.4512 30.9623C42.2196 30.9623 41.9923 30.8475 41.8569 30.6367C40.7131 28.8576 37.1941 24.2392 34.6773 24.2345C34.2862 24.2335 33.9702 23.9132 33.9712 23.5191C33.9716 23.1255 34.2881 22.8065 34.6787 22.8065H34.6796C38.4119 22.8132 42.5809 29.1388 43.0445 29.8599C43.2567 30.1907 43.1634 30.6329 42.8356 30.8471C42.7163 30.9251 42.5832 30.9623 42.4512 30.9623Z" fill="#4D4754"/>
<path fill-rule="evenodd" clip-rule="evenodd" d="M36.8297 32.4757C36.9032 32.4877 36.9858 32.4888 37.0759 32.4705C36.9938 32.4873 36.9098 32.488 36.8297 32.4757ZM38.3216 34.3882C38.0947 34.3882 37.8711 34.2778 37.7343 34.073C37.2772 33.3891 36.7103 32.5742 36.5221 32.3487C36.4916 32.3267 36.4627 32.302 36.4358 32.2753C36.1589 31.9969 36.2231 31.6714 36.2655 31.4553C36.5999 29.7532 36.1085 28.7522 34.7189 28.3058C34.3468 28.1863 34.1412 27.7851 34.2595 27.4091C34.3779 27.0331 34.7755 26.8246 35.1486 26.9455C36.3334 27.3262 38.2125 28.4262 37.69 31.531C37.9588 31.8636 38.3281 32.4067 38.9078 33.2754C39.1261 33.6023 39.0403 34.0459 38.7163 34.2664C38.595 34.3486 38.4578 34.3882 38.3215 34.3882" fill="#4D4754"/>
<path fill-rule="evenodd" clip-rule="evenodd" d="M34.2702 33.7886C34.1938 33.7886 34.1154 33.7756 34.0391 33.749C33.6698 33.6201 33.474 33.2136 33.6014 32.8409C34.1815 31.1488 36.03 30.9275 37.0317 31.0627C37.4194 31.1151 37.6911 31.4744 37.6392 31.8652C37.5874 32.2554 37.2317 32.5315 36.8469 32.4783C36.8203 32.4754 35.2847 32.2969 34.939 33.3078C34.8376 33.6029 34.5635 33.7885 34.2702 33.7885" fill="#4D4754"/>
<path fill-rule="evenodd" clip-rule="evenodd" d="M36.5064 37.633C35.413 37.633 34.4282 37.3907 33.7887 36.9343C33.4699 36.7068 33.3939 36.2613 33.6198 35.939C33.8448 35.6173 34.2882 35.5411 34.6061 35.7687C35.115 36.1323 36.3474 36.3784 37.8502 36.0628C39.2996 35.7577 40.466 35.0238 41.0499 34.049C41.2522 33.7111 41.6866 33.6044 42.0211 33.8072C42.3555 34.0114 42.4625 34.4502 42.2601 34.7877C41.1838 36.585 39.216 37.2337 38.1392 37.4603C37.5874 37.5764 37.0342 37.6331 36.5064 37.6331" fill="#4D4754"/>
</svg>
