<svg width="587" height="512" viewBox="0 0 587 512" fill="none" xmlns="http://www.w3.org/2000/svg">
<path d="M293.538 0C131.446 0 0.0760803 106.4 0.0760803 237.714C0.0760803 292.114 22.8882 341.943 60.7172 382.057C43.6368 427.086 8.10043 465.257 7.52726 465.714C-0.0385532 473.714 -2.10196 485.371 2.25412 495.429C6.61019 505.486 16.5833 512 27.5881 512C98.0878 512 153.685 482.629 187.043 459.086C220.173 469.486 255.938 475.429 293.538 475.429C455.63 475.429 587 369.029 587 237.714C587 106.4 455.63 0 293.538 0Z" fill="#3A2F45"/>
<path d="M417.429 205.143H324.857V112.571C324.857 101.212 315.645 92 304.286 92H283.714C272.355 92 263.143 101.212 263.143 112.571V205.143H170.571C159.212 205.143 150 214.355 150 225.714V246.286C150 257.645 159.212 266.857 170.571 266.857H263.143V359.429C263.143 370.788 272.355 380 283.714 380H304.286C315.645 380 324.857 370.788 324.857 359.429V266.857H417.429C428.788 266.857 438 257.645 438 246.286V225.714C438 214.355 428.788 205.143 417.429 205.143Z" fill="white"/>
</svg>
