<?xml version="1.0" encoding="UTF-8"?>
<svg width="38px" height="38px" viewBox="0 0 38 38" version="1.1" xmlns="http://www.w3.org/2000/svg" xmlns:xlink="http://www.w3.org/1999/xlink">
    <!-- Generator: Sketch 51.3 (57544) - http://www.bohemiancoding.com/sketch -->
    <title>Group 17</title>
    <desc>Created with Sketch.</desc>
    <defs></defs>
    <g id="New-Overview" stroke="none" stroke-width="1" fill="none" fill-rule="evenodd">
        <g id="Annotation-search-overview" transform="translate(-1570.000000, -743.000000)" fill="#173766">
            <g id="Group-17" transform="translate(1570.000000, 743.000000)">
                <g id="noun_add-collection_393233" transform="translate(20.000000, 4.000000)" fill-rule="nonzero">
                    <g id="Group">
                        <path d="M9.1875,0.492181099 C8.86704441,0.495445566 8.56121996,0.625333811 8.33816098,0.852908157 C8.115102,1.0804825 7.9933392,1.38683712 8,1.70371956 L8,5.65976352 L4,5.65976352 C3.95836162,5.65761598 3.91663838,5.65761598 3.875,5.65976352 C3.44622777,5.68177614 3.06190918,5.92837555 2.86684266,6.30665133 C2.67177614,6.68492711 2.69560409,7.13739627 2.92934893,7.49358355 C3.16309377,7.84977084 3.57123552,8.05554983 4,8.03338989 L8,8.03338989 L8,11.9894338 C7.99387965,12.4174413 8.22125036,12.8155524 8.59504742,13.0313226 C8.96884448,13.2470928 9.43115552,13.2470928 9.80495258,13.0313226 C10.1787496,12.8155524 10.4061203,12.4174413 10.4,11.9894338 L10.4,8.03338989 L14.4,8.03338989 C14.8327631,8.03944298 15.2352976,7.81457086 15.4534653,7.44488145 C15.6716329,7.07519205 15.6716329,6.61796136 15.4534653,6.24827195 C15.2352976,5.87858255 14.8327631,5.65371043 14.4,5.65976352 L10.4,5.65976352 L10.4,1.70371956 C10.4067517,1.38254906 10.2815869,1.07238738 10.0530929,0.844074585 C9.82459895,0.615761794 9.51229123,0.488797896 9.1875,0.492181099 Z M3.6,16.3410822 C1.8479572,16.3410822 0.4,17.7731305 0.4,19.5059174 L0.4,30.5828404 C0.4,32.3156273 1.8479572,33.7476756 3.6,33.7476756 L14.8,33.7476756 C16.5520428,33.7476756 18,32.3156273 18,30.5828404 L18,19.5059174 C18,17.7731305 16.5520428,16.3410822 14.8,16.3410822 L3.6,16.3410822 Z M11.0375,18.4289943 L7.3625,18.4289943 C7.21026444,18.4289943 7.1,18.7763433 7.1,19.2559174 L7.1,30.8328404 C7.1,31.3124145 7.21026444,31.6597635 7.3625,31.6597635 L11.0375,31.6597635 C11.1897356,31.6597635 11.3,31.3124145 11.3,30.8328404 L11.3,19.2559174 C11.3,18.7763433 11.1897356,18.4289943 11.0375,18.4289943 Z" id="Shape"></path>
                    </g>
                </g>
                <path d="M3.6,20.3410822 C1.8479572,20.3410822 0.4,21.7731305 0.4,23.5059174 L0.4,34.5828404 C0.4,36.3156273 1.8479572,37.7476756 3.6,37.7476756 L14.8,37.7476756 C16.5520428,37.7476756 18,36.3156273 18,34.5828404 L18,23.5059174 C18,21.7731305 16.5520428,20.3410822 14.8,20.3410822 L3.6,20.3410822 Z" id="Path"></path>
                <path d="M3.6,0.341082198 C1.8479572,0.341082198 0.4,1.77313055 0.4,3.50591736 L0.4,14.5828404 C0.4,16.3156273 1.8479572,17.7476756 3.6,17.7476756 L14.8,17.7476756 C16.5520428,17.7476756 18,16.3156273 18,14.5828404 L18,3.50591736 C18,1.77313055 16.5520428,0.341082198 14.8,0.341082198 L3.6,0.341082198 Z" id="Path"></path>
            </g>
        </g>
    </g>
</svg>