<?xml version="1.0" encoding="UTF-8"?>
<svg width="17px" height="17px" viewBox="0 0 17 17" version="1.1" xmlns="http://www.w3.org/2000/svg" xmlns:xlink="http://www.w3.org/1999/xlink">
    <!-- Generator: Sketch 51.3 (57544) - http://www.bohemiancoding.com/sketch -->
    <title>noun_add collection_393233</title>
    <desc>Created with Sketch.</desc>
    <defs></defs>
    <g id="New-Overview" stroke="none" stroke-width="1" fill="none" fill-rule="evenodd">
        <g id="Annotation-search-overview" transform="translate(-1220.000000, -328.000000)" fill="#173766" fill-rule="nonzero">
            <g id="noun_add-collection_393233" transform="translate(1220.000000, 328.000000)">
                <g id="Group">
                    <path d="M1.51111111,0.06766 C0.683757567,0.06766 0,0.743903187 0,1.56216549 L0,6.79293473 C0,7.61119703 0.683757567,8.28744022 1.51111111,8.28744022 L6.8,8.28744022 C7.62735354,8.28744022 8.31111111,7.61119703 8.31111111,6.79293473 L8.31111111,1.56216549 C8.31111111,0.743903187 7.62735354,0.06766 6.8,0.06766 L1.51111111,0.06766 Z M12.8385417,1.1768633 C12.6872154,1.17840485 12.5427983,1.23974097 12.4374649,1.34720663 C12.3321315,1.45467229 12.2746324,1.59933975 12.2777778,1.74897868 L12.2777778,3.61711055 L10.3888889,3.61711055 C10.3692263,3.61609644 10.3495237,3.61609644 10.3298611,3.61711055 C10.1273853,3.6275054 9.94590156,3.74395512 9.85378681,3.92258535 C9.76167207,4.10121558 9.77292415,4.31488157 9.88330366,4.48308112 C9.99368317,4.65128067 10.1864168,4.74845409 10.3888889,4.73798967 L12.2777778,4.73798967 L12.2777778,6.60612154 C12.2748876,6.80823617 12.3822571,6.99623307 12.5587724,7.09812455 C12.7352877,7.20001602 12.9536012,7.20001602 13.1301165,7.09812455 C13.3066318,6.99623307 13.4140013,6.80823617 13.4111111,6.60612154 L13.4111111,4.73798967 L15.3,4.73798967 C15.5043604,4.74084807 15.6944461,4.63465846 15.7974697,4.46008291 C15.9004933,4.28550736 15.9004933,4.06959286 15.7974697,3.89501731 C15.6944461,3.72044176 15.5043604,3.61425215 15.3,3.61711055 L13.4111111,3.61711055 L13.4111111,1.74897868 C13.4142994,1.59731483 13.3551938,1.45084959 13.2472939,1.34303522 C13.1393939,1.23522085 12.9919153,1.17526567 12.8385417,1.1768633 Z M1.51111111,1.18853912 L6.8,1.18853912 C7.01909033,1.18853912 7.17777778,1.34548275 7.17777778,1.56216549 L7.17777778,6.79293473 C7.17777778,7.00961747 7.01909033,7.1665611 6.8,7.1665611 L1.51111111,7.1665611 C1.29202078,7.1665611 1.13333333,7.00961747 1.13333333,6.79293473 L1.13333333,1.56216549 C1.13333333,1.34548275 1.29202078,1.18853912 1.51111111,1.18853912 Z M1.51111111,8.66106659 C0.683757567,8.66106659 0,9.33731165 0,10.1555721 L0,15.3863413 C0,16.2046018 0.683757567,16.8808468 1.51111111,16.8808468 L6.8,16.8808468 C7.62735354,16.8808468 8.31111111,16.2046018 8.31111111,15.3863413 L8.31111111,10.1555721 C8.31111111,9.33731165 7.62735354,8.66106659 6.8,8.66106659 L1.51111111,8.66106659 Z M10.2,8.66106659 C9.37264646,8.66106659 8.68888889,9.33731165 8.68888889,10.1555721 L8.68888889,15.3863413 C8.68888889,16.2046018 9.37264646,16.8808468 10.2,16.8808468 L15.4888889,16.8808468 C16.3162424,16.8808468 17,16.2046018 17,15.3863413 L17,10.1555721 C17,9.33731165 16.3162424,8.66106659 15.4888889,8.66106659 L10.2,8.66106659 Z M1.51111111,9.78194571 L6.8,9.78194571 C7.01909033,9.78194571 7.17777778,9.93888747 7.17777778,10.1555721 L7.17777778,15.3863413 C7.17777778,15.6030259 7.01909033,15.7599677 6.8,15.7599677 L1.51111111,15.7599677 C1.29202078,15.7599677 1.13333333,15.6030259 1.13333333,15.3863413 L1.13333333,10.1555721 C1.13333333,9.93888747 1.29202078,9.78194571 1.51111111,9.78194571 Z M10.2,9.78194571 L15.4888889,9.78194571 C15.7079792,9.78194571 15.8666667,9.93888747 15.8666667,10.1555721 L15.8666667,15.3863413 C15.8666667,15.6030259 15.7079792,15.7599677 15.4888889,15.7599677 L10.2,15.7599677 C9.98090967,15.7599677 9.82222222,15.6030259 9.82222222,15.3863413 L9.82222222,10.1555721 C9.82222222,9.93888747 9.98090967,9.78194571 10.2,9.78194571 Z" id="Shape"></path>
                </g>
            </g>
        </g>
    </g>
</svg>