<svg width="17" height="12" viewBox="0 0 17 12" fill="none" xmlns="http://www.w3.org/2000/svg">
<g opacity="0.2">
<path d="M16.575 4.875H14.875V3.375C14.875 3.16875 14.6838 3 14.45 3H13.6C13.3663 3 13.175 3.16875 13.175 3.375V4.875H11.475C11.2413 4.875 11.05 5.04375 11.05 5.25V6C11.05 6.20625 11.2413 6.375 11.475 6.375H13.175V7.875C13.175 8.08125 13.3663 8.25 13.6 8.25H14.45C14.6838 8.25 14.875 8.08125 14.875 7.875V6.375H16.575C16.8088 6.375 17 6.20625 17 6V5.25C17 5.04375 16.8088 4.875 16.575 4.875ZM5.95 6C7.82797 6 9.35 4.65703 9.35 3C9.35 1.34297 7.82797 0 5.95 0C4.07203 0 2.55 1.34297 2.55 3C2.55 4.65703 4.07203 6 5.95 6ZM8.33 6.75H7.88641C7.29672 6.98906 6.64062 7.125 5.95 7.125C5.25938 7.125 4.60594 6.98906 4.01359 6.75H3.57C1.59906 6.75 0 8.16094 0 9.9V10.875C0 11.4961 0.571094 12 1.275 12H10.625C11.3289 12 11.9 11.4961 11.9 10.875V9.9C11.9 8.16094 10.3009 6.75 8.33 6.75Z" fill="black"/>
</g>
</svg>
