<svg width="19" height="18" viewBox="0 0 19 18" fill="none" xmlns="http://www.w3.org/2000/svg">
<path fill-rule="evenodd" clip-rule="evenodd" d="M9.50007 2.75C8.53357 2.75 7.75007 3.5335 7.75007 4.5C7.75007 5.4665 8.53357 6.25 9.50007 6.25C10.4666 6.25 11.2501 5.4665 11.2501 4.5C11.2501 3.5335 10.4666 2.75 9.50007 2.75ZM6.25007 4.5C6.25007 2.70507 7.70514 1.25 9.50007 1.25C11.295 1.25 12.7501 2.70507 12.7501 4.5C12.7501 6.29493 11.295 7.75 9.50007 7.75C7.70514 7.75 6.25007 6.29493 6.25007 4.5ZM4.81418 10.1397C5.80627 9.43107 7.33181 8.75 9.50011 8.75C11.6684 8.75 13.194 9.43107 14.186 10.1397C14.6784 10.4914 15.0339 10.8458 15.27 11.1182C15.3881 11.2545 15.4768 11.3708 15.5381 11.4566C15.5688 11.4996 15.5928 11.5351 15.6102 11.5617C15.6189 11.575 15.626 11.5862 15.6315 11.595L15.6385 11.6064L15.6412 11.6107L15.6423 11.6125L15.6428 11.6134C15.643 11.6137 15.6432 11.6141 15.0001 12L15.6432 11.6141C15.8563 11.9693 15.7412 12.43 15.386 12.6431C15.0323 12.8553 14.5741 12.742 14.3598 12.3905L14.3544 12.3821C14.3479 12.3722 14.3357 12.3539 14.3175 12.3285C14.2812 12.2777 14.2215 12.1986 14.1365 12.1006C13.9663 11.9042 13.6968 11.6336 13.3142 11.3603C12.5563 10.8189 11.3318 10.25 9.50011 10.25C7.66842 10.25 6.44396 10.8189 5.68604 11.3603C5.3034 11.6336 5.03391 11.9042 4.86376 12.1006C4.77877 12.1986 4.71898 12.2777 4.68268 12.3285C4.66454 12.3539 4.65233 12.3722 4.64581 12.3821L4.64045 12.3905C4.42614 12.742 3.96789 12.8553 3.61424 12.6431C3.25906 12.43 3.14388 11.9693 3.35699 11.6141L4.00011 12C3.35699 11.6141 3.35722 11.6137 3.35746 11.6134L3.35795 11.6125L3.35906 11.6107L3.36171 11.6064L3.36877 11.595C3.37427 11.5862 3.38135 11.575 3.39006 11.5617C3.40747 11.5351 3.43139 11.4996 3.46208 11.4566C3.52343 11.3708 3.61208 11.2545 3.73022 11.1182C3.96632 10.8458 4.32183 10.4914 4.81418 10.1397ZM9.50006 11.25C9.91427 11.25 10.2501 11.5858 10.2501 12V13.25H11.5001C11.9143 13.25 12.2501 13.5858 12.2501 14C12.2501 14.4142 11.9143 14.75 11.5001 14.75H10.2501V16C10.2501 16.4142 9.91427 16.75 9.50006 16.75C9.08584 16.75 8.75006 16.4142 8.75006 16V14.75H7.50006C7.08584 14.75 6.75006 14.4142 6.75006 14C6.75006 13.5858 7.08584 13.25 7.50006 13.25H8.75006V12C8.75006 11.5858 9.08584 11.25 9.50006 11.25Z" fill="#6AE394"/>
</svg>
