<?xml version="1.0" encoding="UTF-8"?>
<svg width="71px" height="57px" viewBox="0 0 71 57" version="1.1" xmlns="http://www.w3.org/2000/svg" xmlns:xlink="http://www.w3.org/1999/xlink">
    <!-- Generator: Sketch 50.2 (55047) - http://www.bohemiancoding.com/sketch -->
    <title>noun_761257</title>
    <desc>Created with Sketch.</desc>
    <defs></defs>
    <g id="Tagging" stroke="none" stroke-width="1" fill="#B9B9B9" fill-rule="evenodd">
        <g id="noun_761257" transform="translate(1.000000, 1.000000)" fill-rule="nonzero">
            <path d="M64,10 L5,10 C2.2,10 0,7.8 0,5 C0,2.2 2.2,0 5,0 L64,0 C66.8,0 69,2.2 69,5 C69,7.8 66.8,10 64,10 Z" id="Shape" stroke="#B9B9B9" stroke-width="2"></path>
            <path d="M37,50 L5,50 C2.2,50 0,47.8 0,45 C0,42.2 2.2,40 5,40 L37,40 C39.8,40 42,42.2 42,45 C42,47.8 39.8,50 37,50 Z" id="Shape" stroke="#B9B9B9" stroke-width="2"></path>
            <path d="M64,30 L5,30 C2.2,30 0,27.8 0,25 C0,22.2 2.2,20 5,20 L64,20 C66.8,20 69,22.2 69,25 C69,27.8 66.8,30 64,30 Z" id="Shape" stroke="#B9B9B9" stroke-width="2"></path>
            <path d="M64,50 L52,50 C49.2,50 47,47.8 47,45 C47,42.2 49.2,40 52,40 L64,40 C66.8,40 69,42.2 69,45 C69,47.8 66.8,50 64,50 Z" id="Shape" fill="#B9B9B9"></path>
            <path d="M58,56 C55.2,56 53,53.8 53,51 L53,39 C53,36.2 55.2,34 58,34 C60.8,34 63,36.2 63,39 L63,51 C63,53.8 60.8,56 58,56 Z" id="Shape" fill="#B9B9B9"></path>
        </g>
    </g>
</svg>