<svg width="24" height="24" viewBox="0 0 24 24" fill="none" xmlns="http://www.w3.org/2000/svg">
<path fill-rule="evenodd" clip-rule="evenodd" d="M1.91406 11.9974C1.91406 6.42852 6.42852 1.91406 11.9974 1.91406C17.5663 1.91406 22.0807 6.42852 22.0807 11.9974C22.0807 17.5663 17.5663 22.0807 11.9974 22.0807C6.42852 22.0807 1.91406 17.5663 1.91406 11.9974ZM11.9974 3.41406C7.25695 3.41406 3.41406 7.25695 3.41406 11.9974C3.41406 16.7378 7.25695 20.5807 11.9974 20.5807C16.7378 20.5807 20.5807 16.7378 20.5807 11.9974C20.5807 7.25695 16.7378 3.41406 11.9974 3.41406ZM12 7.25C12.4142 7.25 12.75 7.58579 12.75 8V12.4987C12.75 12.9129 12.4142 13.2487 12 13.2487C11.5858 13.2487 11.25 12.9129 11.25 12.4987V8C11.25 7.58579 11.5858 7.25 12 7.25ZM12 17C11.4477 17 11 16.5523 11 16C11 15.4477 11.4477 15 12 15C12.5523 15 13 15.4477 13 16C13 16.5523 12.5523 17 12 17Z" fill="#12131B"/>
</svg>
