<svg width="13" height="13" viewBox="0 0 13 13" fill="none" xmlns="http://www.w3.org/2000/svg">
<path d="M7.13839 3.911L6.99839 7.264H5.98339L5.84339 3.911H7.13839ZM6.50839 9.056C6.29839 9.056 6.12573 8.99533 5.99039 8.874C5.85973 8.748 5.79439 8.594 5.79439 8.412C5.79439 8.22533 5.85973 8.069 5.99039 7.943C6.12573 7.817 6.29839 7.754 6.50839 7.754C6.71373 7.754 6.88173 7.817 7.01239 7.943C7.14773 8.069 7.21539 8.22533 7.21539 8.412C7.21539 8.594 7.14773 8.748 7.01239 8.874C6.88173 8.99533 6.71373 9.056 6.50839 9.056Z" fill="#D50808"/>
<g clip-path="url(#clip0)">
<path d="M6.34598 12.3414C9.65661 12.3414 12.3404 9.65758 12.3404 6.34696C12.3404 3.03633 9.65661 0.352539 6.34598 0.352539C3.03536 0.352539 0.351562 3.03633 0.351562 6.34696C0.351562 9.65758 3.03536 12.3414 6.34598 12.3414Z" stroke="#D50808" stroke-width="0.705226"/>
</g>
<defs>
<clipPath id="clip0">
<rect width="12.6941" height="12.6941" fill="white"/>
</clipPath>
</defs>
</svg>
