<svg fill="#3DB995" xmlns="http://www.w3.org/2000/svg" xmlns:xlink="http://www.w3.org/1999/xlink" version="1.1" x="0px" y="0px" viewBox="0 0 100 100" enable-background="new 0 0 100 100" xml:space="preserve"><path fill="#3DB995" d="M84.648,15.947v51.234h-40.51h-3.826l-2.123,3.184l-5.967,8.95l-5.966-8.95l-2.123-3.184h-3.826h-4.766  V15.947H84.648 M91.798,8.798H8.394V74.33h11.915l11.915,17.872L44.138,74.33h47.66V8.798L91.798,8.798z"></path><path fill="#3DB995" d="M45.604,29.63c-2.888,0.544-4.92,2.639-6.093,6.283c-0.586,1.801-0.879,3.579-0.879,5.338  c0,0.209,0.009,0.389,0.03,0.535c0.021,0.145,0.053,0.47,0.095,0.973h6.847v13.697H32.223V43.828c0-6.197,1.236-10.973,3.708-14.323  c2.471-3.351,5.694-5.278,9.674-5.781V29.63z"></path><path fill="#3DB995" d="M66.781,29.63c-2.309,0.377-4.054,1.675-5.25,3.896c-1.191,2.218-1.792,4.775-1.792,7.663  c0,0.254,0.014,0.505,0.032,0.756c0.023,0.249,0.075,0.521,0.158,0.814h6.852v13.697H53.335V43.828  c0-4.982,1.047-9.434,3.137-13.351c2.1-3.915,5.529-6.167,10.31-6.753V29.63z"></path></svg>