<?xml version="1.0" encoding="UTF-8"?>
<svg viewBox="0 0 22 22" version="1.1" xmlns="http://www.w3.org/2000/svg" xmlns:xlink="http://www.w3.org/1999/xlink">
    <!-- Generator: Sketch 51 (57462) - http://www.bohemiancoding.com/sketch -->
    <title>noun_15788_3db995</title>
    <desc>Created with Sketch.</desc>
    <defs></defs>
    <g id="Page-2" stroke="none" stroke-width="1" fill="none" fill-rule="evenodd">
        <g id="Annotations" transform="translate(-3660.000000, -1553.000000)">
            <rect fill="#FFFFFF" x="0" y="0" width="4815" height="6943"></rect>
            <g id="noun_15788_3db995" transform="translate(3671.000000, 1564.000000) rotate(-360.000000) translate(-3671.000000, -1564.000000) translate(3660.000000, 1553.000000)" fill="#3DB995" fill-rule="nonzero">
                <path d="M19.4201489,14.9945704 L9.15621203,14.9945704 L8.18682614,14.9945704 L7.64892592,15.801294 L6.13707919,18.0689374 L4.62548583,15.801294 L4.08758561,14.9945704 L3.11819972,14.9945704 L1.91064793,14.9945704 L1.91064793,2.01351533 L19.4201489,2.01351533 L19.4201489,14.9945704 Z M0.0998269838,2.20218765 L0.0998269838,16.8058981 L3.11870646,16.8058981 L6.13758593,21.3340906 L9.15621203,16.8058981 L21.2317299,16.8058981 L21.2317299,0.202187647 L2.09982698,0.202187647 C0.995257484,0.202187647 0.0998269838,1.09761815 0.0998269838,2.20218765 Z" id="Shape"></path>
                <path d="M7.98387839,7.0722604 C7.83540476,7.52857613 7.76116794,7.9790644 7.76116794,8.42473868 C7.76116794,8.47769258 7.76344825,8.52329882 7.76876898,8.56029054 C7.7740897,8.5970289 7.78219748,8.67937349 7.79283894,8.80681759 L9.52764949,8.80681759 L9.52764949,12.2771988 L6.13733256,12.2771988 L6.13733256,9.07766796 C6.13733256,7.50754659 6.45049538,6.29746112 7.07682103,5.44867839 C7.7028933,4.59964229 8.5194983,4.1114022 9.52790286,3.9839581 L9.52790286,5.48034939 C8.79592276,5.61818157 8.28107903,6.14898749 7.98387839,7.0722604 Z" id="Shape"></path>
                <path d="M14.8932232,5.48034939 C14.3081965,5.57586912 13.8660694,5.90474075 13.5630413,6.46747104 C13.26128,7.02944121 13.1090059,7.67730314 13.1090059,8.40902986 C13.1090059,8.47338533 13.112553,8.53698069 13.1171136,8.60057605 C13.1229411,8.66366468 13.1361162,8.73258077 13.1571458,8.80681759 L14.8932232,8.80681759 L14.8932232,12.2771988 L11.4864373,12.2771988 L11.4864373,9.07766796 C11.4864373,7.81538869 11.7517136,6.68739444 12.2812527,5.69495207 C12.8133254,4.70301643 13.6821242,4.13243174 14.8934766,3.9839581 L14.8934766,5.48034939 L14.8932232,5.48034939 Z" id="Shape"></path>
            </g>
        </g>
    </g>
</svg>