<svg width="20" height="20" viewBox="0 0 20 20" fill="none" xmlns="http://www.w3.org/2000/svg">
<path d="M17.6214 6.818C17.5054 6.908 15.4574 8.062 15.4574 10.628C15.4574 13.596 18.0634 14.646 18.1414 14.672C18.1294 14.736 17.7274 16.11 16.7674 17.51C15.9114 18.742 15.0174 19.972 13.6574 19.972C12.2974 19.972 11.9474 19.182 10.3774 19.182C8.84738 19.182 8.30338 19.998 7.05938 19.998C5.81538 19.998 4.94738 18.858 3.94938 17.458C2.79338 15.814 1.85938 13.26 1.85938 10.836C1.85938 6.948 4.38738 4.886 6.87538 4.886C8.19738 4.886 9.29938 5.754 10.1294 5.754C10.9194 5.754 12.1514 4.834 13.6554 4.834C14.2254 4.834 16.2734 4.886 17.6214 6.818ZM12.9414 3.188C13.5634 2.45 14.0034 1.426 14.0034 0.402C14.0034 0.26 13.9914 0.116 13.9654 0C12.9534 0.038 11.7494 0.674 11.0234 1.516C10.4534 2.164 9.92138 3.188 9.92138 4.226C9.92138 4.382 9.94738 4.538 9.95938 4.588C10.0234 4.6 10.1274 4.614 10.2314 4.614C11.1394 4.614 12.2814 4.006 12.9414 3.188Z" fill="#F4F4F4"/>
</svg>
