<?xml version="1.0" standalone="no"?>
<!DOCTYPE svg PUBLIC "-//W3C//DTD SVG 20010904//EN"
 "http://www.w3.org/TR/2001/REC-SVG-20010904/DTD/svg10.dtd">
<svg version="1.0" xmlns="http://www.w3.org/2000/svg"
 width="221.000000pt" height="361.000000pt" viewBox="0 0 221.000000 361.000000"
 preserveAspectRatio="xMidYMid meet">
<g transform="translate(0.000000,361.000000) scale(0.100000,-0.100000)"
fill="#000000" stroke="none">
<path d="M951 2703 c-518 -493 -940 -902 -939 -908 4 -15 1866 -1789 1881
-1793 10 -2 307 269 315 287 1 4 -351 343 -783 755 -432 412 -785 752 -783
756 2 5 354 343 783 751 429 408 781 748 783 754 3 12 -289 295 -305 295 -6 0
-434 -404 -952 -897z"/>
</g>
</svg>
