<svg width="32" height="32" viewBox="0 0 32 32" fill="none" xmlns="http://www.w3.org/2000/svg">
<path d="M21.3333 10.6669V17.3336C21.3333 18.3944 21.7548 19.4118 22.5049 20.162C23.2551 20.9121 24.2725 21.3336 25.3333 21.3336C26.3942 21.3336 27.4116 20.9121 28.1618 20.162C28.9119 19.4118 29.3333 18.3944 29.3333 17.3336V16.0002C29.3331 12.9909 28.315 10.0702 26.4444 7.71294C24.5738 5.35568 21.9607 3.70053 19.0302 3.01663C16.0996 2.33272 13.0239 2.66029 10.3031 3.94605C7.58235 5.23182 5.37653 7.40017 4.04435 10.0985C2.71216 12.7969 2.33196 15.8665 2.96556 18.8084C3.59916 21.7502 5.2093 24.3912 7.53418 26.3019C9.85905 28.2126 12.7619 29.2807 15.7708 29.3324C18.7796 29.3842 21.7175 28.4166 24.1067 26.5869M21.3333 16.0002C21.3333 18.9457 18.9455 21.3336 16 21.3336C13.0545 21.3336 10.6667 18.9457 10.6667 16.0002C10.6667 13.0547 13.0545 10.6669 16 10.6669C18.9455 10.6669 21.3333 13.0547 21.3333 16.0002Z" stroke="#347AE2" stroke-width="2.66667" stroke-linecap="round" stroke-linejoin="round"/>
</svg>
