<svg width="24" height="24" viewBox="0 0 24 24" fill="none" xmlns="http://www.w3.org/2000/svg">
<path fill-rule="evenodd" clip-rule="evenodd" d="M11.9974 1.91406C6.42852 1.91406 1.91406 6.42852 1.91406 11.9974C1.91406 17.5663 6.42852 22.0807 11.9974 22.0807C13.7164 22.0807 15.3369 21.65 16.7549 20.8899C17.12 20.6942 17.2573 20.2396 17.0616 19.8746C16.8659 19.5095 16.4113 19.3722 16.0462 19.5679C14.8409 20.214 13.4631 20.5807 11.9974 20.5807C7.25695 20.5807 3.41406 16.7378 3.41406 11.9974C3.41406 7.25695 7.25695 3.41406 11.9974 3.41406C16.7378 3.41406 20.5807 7.25695 20.5807 11.9974C20.5807 12.0262 20.5824 12.0547 20.5855 12.0827C20.5711 13.5739 20.1777 14.5273 19.6969 15.097C19.2108 15.6729 18.5897 15.9141 18.0026 15.9141C16.8508 15.9141 15.4193 14.9535 15.4193 12.6641C15.4193 11.8131 15.5757 10.7006 15.741 9.77178C15.8225 9.31358 15.9042 8.91128 15.9653 8.6238C15.9959 8.48019 16.0213 8.36557 16.0389 8.28735L16.0592 8.19832L16.0644 8.17608L16.0656 8.17083L16.0659 8.16971L16.0659 8.16961L16.0659 8.16954C16.161 7.76642 15.9113 7.36254 15.5082 7.26744C15.105 7.17232 14.7011 7.42203 14.606 7.82518L15.3359 7.9974C14.606 7.82518 14.606 7.82524 14.6059 7.82531L14.6059 7.82552L14.6058 7.82611L14.6053 7.82807L14.6037 7.83504L14.5977 7.86083C14.5925 7.88319 14.5851 7.91571 14.5757 7.95747C14.5568 8.04097 14.5301 8.16149 14.4982 8.31156C14.4889 8.35541 14.4791 8.40182 14.4689 8.45059C13.9748 7.79247 13.2889 7.31047 12.4341 7.1289C10.1858 6.65128 8.16021 8.54785 7.65617 10.9206C7.15214 13.2933 8.23183 15.8495 10.4802 16.3272C11.9681 16.6432 13.3584 15.9196 14.2747 14.7063C14.9453 16.4601 16.468 17.4141 18.0026 17.4141C19.0176 17.4141 20.0631 16.9886 20.8432 16.0645C21.6194 15.1449 22.0859 13.7904 22.0859 11.9974C22.0859 11.9662 22.084 11.9354 22.0803 11.9051C22.0308 6.37874 17.5355 1.91406 11.9974 1.91406ZM9.12343 11.2323C9.5264 9.33531 10.9827 8.35404 12.1225 8.59616C13.2622 8.83827 14.1939 10.3268 13.7909 12.2238C13.3879 14.1207 11.9316 15.102 10.7919 14.8599C9.65213 14.6178 8.72047 13.1293 9.12343 11.2323Z" fill="#12131B"/>
</svg>
