<?xml version="1.0" encoding="UTF-8"?>
<svg width="100px" height="100px" viewBox="0 0 100 100" version="1.1" xmlns="http://www.w3.org/2000/svg" xmlns:xlink="http://www.w3.org/1999/xlink">
    <!-- Generator: Sketch 40.3 (33839) - http://www.bohemiancoding.com/sketch -->
    <title>noun_1447616_3EB995</title>
    <desc>Created with Sketch.</desc>
    <defs></defs>
    <g id="Icons" stroke="none" stroke-width="1" fill="none" fill-rule="evenodd">
        <g id="noun_1447616_3EB995" fill="#000000">
            <path d="M85.355,14.645 C65.829,-4.881 34.17,-4.881 14.644,14.645 C-4.882,34.171 -4.882,65.83 14.644,85.356 C34.17,104.882 65.828,104.882 85.355,85.356 C104.881,65.829 104.881,34.171 85.355,14.645 L85.355,14.645 Z M24.786,24.787 C40.966,8.607 61.003,14.548 69.619,20.224 L20.22,69.622 C11.032,55.718 12.662,36.911 24.786,24.787 L24.786,24.787 Z M75.213,75.215 C61.959,88.47 43.085,88.153 30.373,79.772 L79.837,30.467 C88.955,44.36 87.301,63.128 75.213,75.215 L75.213,75.215 Z" id="Shape"></path>
        </g>
    </g>
</svg>