<svg width="24" height="24" viewBox="0 0 24 24" fill="none" xmlns="http://www.w3.org/2000/svg">
<path fill-rule="evenodd" clip-rule="evenodd" d="M11.9915 4C7.57362 4 3.99219 7.58143 3.99219 11.9993C3.99219 16.4173 7.57362 19.9987 11.9915 19.9987C16.4095 19.9987 19.9909 16.4173 19.9909 11.9993C19.9909 7.58143 16.4095 4 11.9915 4ZM5.18217 11.9993C5.18217 8.23864 8.23083 5.18999 11.9915 5.18999C13.659 5.18999 15.1864 5.78932 16.3702 6.78431L6.7765 16.378C5.78151 15.1942 5.18217 13.6668 5.18217 11.9993ZM7.6184 17.219C8.80142 18.2113 10.3267 18.8087 11.9915 18.8087C15.7522 18.8087 18.8009 15.7601 18.8009 11.9993C18.8009 10.3345 18.2034 8.80923 17.2112 7.62621L7.6184 17.219Z" fill="#12131B"/>
</svg>
