<svg width="24" height="24" viewBox="0 0 24 24" fill="none" xmlns="http://www.w3.org/2000/svg">
<path fill-rule="evenodd" clip-rule="evenodd" d="M12 3.25C7.16751 3.25 3.25 7.16751 3.25 12C3.25 16.8325 7.16751 20.75 12 20.75C16.8325 20.75 20.75 16.8325 20.75 12C20.75 7.16751 16.8325 3.25 12 3.25ZM4.75 12C4.75 7.99594 7.99594 4.75 12 4.75C13.7367 4.75 15.3308 5.36065 16.5793 6.37896C16.5406 6.40519 16.5039 6.43543 16.4697 6.46967L6.46967 16.4697C6.43543 16.5039 6.40519 16.5406 6.37896 16.5793C5.36065 15.3308 4.75 13.7367 4.75 12ZM7.42073 17.621C8.66919 18.6393 10.2633 19.25 12 19.25C16.0041 19.25 19.25 16.0041 19.25 12C19.25 10.2633 18.6393 8.66919 17.621 7.42073C17.5948 7.45936 17.5646 7.49609 17.5303 7.53033L7.53033 17.5303C7.49609 17.5646 7.45936 17.5948 7.42073 17.621Z" fill="#12131B"/>
</svg>
