<svg width="18" height="18" viewBox="0 0 18 18" fill="none" xmlns="http://www.w3.org/2000/svg">
<path fill-rule="evenodd" clip-rule="evenodd" d="M4.75 3.5C4.75 3.08579 5.08579 2.75 5.5 2.75H9.25C11.183 2.75 12.75 4.317 12.75 6.25C12.75 7.16549 12.3985 7.99889 11.8231 8.6226C12.966 9.19863 13.75 10.3828 13.75 11.75C13.75 13.683 12.183 15.25 10.25 15.25H5.5C5.08579 15.25 4.75 14.9142 4.75 14.5V9V3.5ZM9.25 8.25C10.3546 8.25 11.25 7.35457 11.25 6.25C11.25 5.14543 10.3546 4.25 9.25 4.25H6.25V8.25H9H9.25ZM6.25 9.75V13.75H10.25C11.3546 13.75 12.25 12.8546 12.25 11.75C12.25 10.6454 11.3546 9.75 10.25 9.75H9.25H9H6.25Z" fill="#12131B"/>
</svg>
