<svg width="24" height="24" viewBox="0 0 24 24" fill="none" xmlns="http://www.w3.org/2000/svg">
<path fill-rule="evenodd" clip-rule="evenodd" d="M7.99014 20.356C6.53775 21.6398 4.25 20.6086 4.25 18.6702V5.49805C4.25 4.25541 5.25736 3.24805 6.5 3.24805H17.5C18.7426 3.24805 19.75 4.25541 19.75 5.49805V18.6702C19.75 20.6086 17.4623 21.6398 16.0099 20.356L12 16.8115L7.99014 20.356ZM5.75 18.6702C5.75 19.3163 6.51258 19.66 6.99671 19.2321L11.5033 15.2486C11.787 14.9979 12.213 14.9979 12.4967 15.2486L17.0033 19.2321C17.4874 19.66 18.25 19.3163 18.25 18.6702V5.49805C18.25 5.08383 17.9142 4.74805 17.5 4.74805H6.5C6.08579 4.74805 5.75 5.08383 5.75 5.49805V18.6702Z" fill="#6AE394"/>
</svg>
