<svg width="20" height="18" viewBox="0 0 20 18" fill="none" xmlns="http://www.w3.org/2000/svg">
<path d="M1.66699 1.5H6.66699C7.55105 1.5 8.39889 1.85119 9.02401 2.47631C9.64914 3.10143 10.0003 3.94928 10.0003 4.83333V16.5C10.0003 15.837 9.73693 15.2011 9.26809 14.7322C8.79925 14.2634 8.16337 14 7.50033 14H1.66699V1.5Z" stroke="#444444" stroke-width="2" stroke-linecap="round" stroke-linejoin="round"/>
<path d="M18.3333 1.5H13.3333C12.4493 1.5 11.6014 1.85119 10.9763 2.47631C10.3512 3.10143 10 3.94928 10 4.83333V16.5C10 15.837 10.2634 15.2011 10.7322 14.7322C11.2011 14.2634 11.837 14 12.5 14H18.3333V1.5Z" stroke="#444444" stroke-width="2" stroke-linecap="round" stroke-linejoin="round"/>
</svg>
