<svg width="18" height="18" viewBox="0 0 18 18" fill="none" xmlns="http://www.w3.org/2000/svg">
<path fill-rule="evenodd" clip-rule="evenodd" d="M3 5C3.55228 5 4 4.55228 4 4C4 3.44772 3.55228 3 3 3C2.44772 3 2 3.44772 2 4C2 4.55228 2.44772 5 3 5ZM7 3.25C6.58579 3.25 6.25 3.58579 6.25 4C6.25 4.41421 6.58579 4.75 7 4.75H16C16.4142 4.75 16.75 4.41421 16.75 4C16.75 3.58579 16.4142 3.25 16 3.25H7ZM7 8.25C6.58579 8.25 6.25 8.58579 6.25 9C6.25 9.41421 6.58579 9.75 7 9.75H16C16.4142 9.75 16.75 9.41421 16.75 9C16.75 8.58579 16.4142 8.25 16 8.25H7ZM6.25 14C6.25 13.5858 6.58579 13.25 7 13.25H16C16.4142 13.25 16.75 13.5858 16.75 14C16.75 14.4142 16.4142 14.75 16 14.75H7C6.58579 14.75 6.25 14.4142 6.25 14ZM4 9C4 9.55228 3.55228 10 3 10C2.44772 10 2 9.55228 2 9C2 8.44772 2.44772 8 3 8C3.55228 8 4 8.44772 4 9ZM3 15C3.55228 15 4 14.5523 4 14C4 13.4477 3.55228 13 3 13C2.44772 13 2 13.4477 2 14C2 14.5523 2.44772 15 3 15Z" fill="#12131B"/>
</svg>
