<svg width="24" height="24" viewBox="0 0 24 24" fill="none" xmlns="http://www.w3.org/2000/svg">
<path fill-rule="evenodd" clip-rule="evenodd" d="M8.75 3.5C8.75 3.08579 8.41421 2.75 8 2.75C7.58579 2.75 7.25 3.08579 7.25 3.5V5.25H5.66667C3.77969 5.25 2.25 6.77969 2.25 8.66667V11V17.3333C2.25 19.2203 3.77969 20.75 5.66667 20.75H18.3333C20.2203 20.75 21.75 19.2203 21.75 17.3333V11V8.66667C21.75 6.77969 20.2203 5.25 18.3333 5.25H16.75V3.5C16.75 3.08579 16.4142 2.75 16 2.75C15.5858 2.75 15.25 3.08579 15.25 3.5V5.25H8.75V3.5ZM16 6.75H8H5.66667C4.60812 6.75 3.75 7.60812 3.75 8.66667V10.25H20.25V8.66667C20.25 7.60812 19.3919 6.75 18.3333 6.75H16ZM20.25 11.75H3.75V17.3333C3.75 18.3919 4.60812 19.25 5.66667 19.25H18.3333C19.3919 19.25 20.25 18.3919 20.25 17.3333V11.75Z" fill="#12131B"/>
</svg>
