<svg width="24" height="24" viewBox="0 0 24 24" fill="none" xmlns="http://www.w3.org/2000/svg">
<path fill-rule="evenodd" clip-rule="evenodd" d="M2.58594 6.0026C2.58594 4.11563 4.11563 2.58594 6.0026 2.58594H18.0026C19.8896 2.58594 21.4193 4.11563 21.4193 6.0026V18.0026C21.4193 19.8896 19.8896 21.4193 18.0026 21.4193H6.0026C4.11563 21.4193 2.58594 19.8896 2.58594 18.0026V6.0026ZM6.0026 4.08594C4.94406 4.08594 4.08594 4.94406 4.08594 6.0026V18.0026C4.08594 18.2592 4.13636 18.504 4.22783 18.7277C4.23822 18.7202 4.24886 18.7129 4.25975 18.7058L15.5931 11.3725C15.8515 11.2053 16.1859 11.213 16.4364 11.3919L19.9193 13.8796V6.0026C19.9193 4.94406 19.0611 4.08594 18.0026 4.08594H6.0026ZM6.0026 19.9193C5.76668 19.9193 5.54071 19.8766 5.33198 19.7987L15.9797 12.909L19.9193 15.723V18.0026C19.9193 19.0611 19.0611 19.9193 18.0026 19.9193H6.0026ZM9.33344 5.91969C7.81465 5.91969 6.58344 7.1509 6.58344 8.66969C6.58344 10.1885 7.81465 11.4197 9.33344 11.4197C10.8522 11.4197 12.0834 10.1885 12.0834 8.66969C12.0834 7.1509 10.8522 5.91969 9.33344 5.91969ZM8.08344 8.66969C8.08344 7.97933 8.64308 7.41969 9.33344 7.41969C10.0238 7.41969 10.5834 7.97933 10.5834 8.66969C10.5834 9.36004 10.0238 9.91969 9.33344 9.91969C8.64308 9.91969 8.08344 9.36004 8.08344 8.66969Z" fill="#FAFAFA"/>
</svg>
