<svg width="24" height="24" viewBox="0 0 24 24" fill="none" xmlns="http://www.w3.org/2000/svg">
<path fill-rule="evenodd" clip-rule="evenodd" d="M6 2.94922C3.92893 2.94922 2.25 4.62815 2.25 6.69922V20.9492C2.25 21.2526 2.43273 21.526 2.71299 21.6421C2.99324 21.7582 3.31583 21.694 3.53033 21.4795L7.06066 17.9492H18C20.0711 17.9492 21.75 16.2703 21.75 14.1992V6.69922C21.75 4.62815 20.0711 2.94922 18 2.94922H6ZM3.75 6.69922C3.75 5.45658 4.75736 4.44922 6 4.44922H18C19.2426 4.44922 20.25 5.45658 20.25 6.69922V14.1992C20.25 15.4419 19.2426 16.4492 18 16.4492H6.75C6.55109 16.4492 6.36032 16.5282 6.21967 16.6689L3.75 19.1386V6.69922ZM10.7518 8.50077C10.7518 8.07203 10.8926 7.77227 11.0844 7.58127C11.2766 7.38981 11.5772 7.25077 12.0018 7.25077C12.4264 7.25077 12.727 7.38981 12.9192 7.58127C13.111 7.77227 13.2518 8.07203 13.2518 8.50077C13.2518 8.92952 13.111 9.22928 12.9192 9.42028C12.727 9.61174 12.4264 9.75077 12.0018 9.75077C11.5772 9.75077 11.2766 9.61174 11.0844 9.42028C10.8926 9.22928 10.7518 8.92952 10.7518 8.50077ZM12.0018 5.75077C11.2353 5.75077 10.5358 6.01055 10.0259 6.51849C9.51542 7.02689 9.25182 7.72713 9.25182 8.50077C9.25182 9.27442 9.51542 9.97466 10.0259 10.4831C10.5358 10.991 11.2353 11.2508 12.0018 11.2508C12.7684 11.2508 13.4678 10.991 13.9778 10.4831C14.4882 9.97466 14.7518 9.27442 14.7518 8.50077C14.7518 7.72713 14.4882 7.02689 13.9778 6.51849C13.4678 6.01055 12.7684 5.75077 12.0018 5.75077ZM12.002 12.1508C10.7099 12.1379 9.72417 12.4433 9.05031 12.7653C8.71464 12.9257 8.45811 13.0893 8.28036 13.2177C8.19145 13.2819 8.12206 13.3375 8.07213 13.3797C8.04716 13.4008 8.02702 13.4186 8.01171 13.4325L7.99236 13.4503L7.98539 13.4569L7.98258 13.4596L7.98134 13.4608L7.98077 13.4613C7.98049 13.4616 7.98022 13.4619 8.50182 14.0008L7.98022 13.4619C7.68258 13.7499 7.67482 14.2247 7.96289 14.5224C8.24934 14.8183 8.72044 14.8277 9.01838 14.5445L9.01838 14.5445L9.05031 12.7653L9.01913 14.5438C9.02196 14.5413 9.02904 14.5349 9.04035 14.5254C9.06301 14.5062 9.10251 14.4742 9.15885 14.4335C9.2716 14.3521 9.45098 14.2363 9.69698 14.1188C10.1864 13.8849 10.947 13.6403 11.987 13.6507C13.0354 13.6612 13.8075 13.9077 14.3065 14.1396C14.557 14.2561 14.7401 14.3696 14.8554 14.4492C14.913 14.489 14.9536 14.5203 14.9769 14.5391C14.9886 14.5485 14.996 14.5547 14.9991 14.5573L15 14.5582C15.3056 14.8334 15.7765 14.8112 16.0548 14.5074C16.3346 14.202 16.3139 13.7276 16.0084 13.4478L15.5018 14.0008C16.0084 13.4478 16.0082 13.4475 16.0079 13.4473L16.0073 13.4467L16.0061 13.4456L16.0033 13.4431L15.9964 13.4369L15.977 13.42C15.9617 13.4068 15.9416 13.3899 15.9166 13.3698C15.8666 13.3297 15.7971 13.2766 15.7081 13.2151C15.5301 13.0922 15.2737 12.9351 14.9388 12.7794C14.2672 12.4672 13.2856 12.1637 12.002 12.1508ZM9.01838 14.5445C9.01801 14.5449 9.01779 14.5451 9.01773 14.5451L9.01807 14.5448L9.01838 14.5445Z" fill="#12131B"/>
</svg>
