<svg width="18" height="18" viewBox="0 0 18 18" fill="none" xmlns="http://www.w3.org/2000/svg">
<path fill-rule="evenodd" clip-rule="evenodd" d="M5.00195 2.75C3.48317 2.75 2.25195 3.98122 2.25195 5.5V15C2.25195 15.3033 2.43468 15.5768 2.71494 15.6929C2.9952 15.809 3.31778 15.7448 3.53228 15.5303L5.81261 13.25H13.002C14.5207 13.25 15.752 12.0188 15.752 10.5V5.5C15.752 3.98122 14.5207 2.75 13.002 2.75H5.00195ZM3.75195 5.5C3.75195 4.80964 4.3116 4.25 5.00195 4.25H13.002C13.6923 4.25 14.252 4.80964 14.252 5.5V10.5C14.252 11.1904 13.6923 11.75 13.002 11.75H5.50195C5.30304 11.75 5.11228 11.829 4.97162 11.9697L3.75195 13.1893V5.5ZM7.41798 7.37596C7.07333 7.1462 6.60768 7.23933 6.37792 7.58397C6.14815 7.92862 6.24128 8.39427 6.58593 8.62404C7.39132 9.16096 8.16428 9.5 9.00195 9.5C9.83963 9.5 10.6126 9.16096 11.418 8.62404C11.7626 8.39427 11.8558 7.92862 11.626 7.58397C11.3962 7.23933 10.9306 7.1462 10.5859 7.37596C9.89132 7.83904 9.41428 8 9.00195 8C8.58963 8 8.11259 7.83904 7.41798 7.37596Z" fill="#74757A"/>
</svg>
