<svg width="88" height="88" viewBox="0 0 88 88" fill="none" xmlns="http://www.w3.org/2000/svg">
<path d="M44.0002 0.200195C19.8002 0.200195 0.200195 19.8002 0.200195 44.0002C0.200195 68.2002 19.8002 87.8002 44.0002 87.8002C68.2002 87.8002 87.8002 68.2002 87.8002 44.0002C87.8002 19.8002 68.2002 0.200195 44.0002 0.200195ZM60.0002 29.9002C64.1002 29.8002 66.2002 34.8002 63.3002 37.7002L42.1002 58.9002C40.8002 60.2002 38.6002 60.2002 37.3002 58.9002L26.6002 48.0002C22.2002 43.7002 28.7002 37.2002 33.0002 41.6002L39.0002 47.6002C39.4002 48.0002 40.2002 48.0002 40.6002 47.6002L57.0002 31.2002C57.7002 30.4002 58.8002 29.9002 60.0002 29.9002Z" fill="#5CD9A6"/>
</svg>
