<svg width="24" height="24" viewBox="0 0 24 24" fill="none" xmlns="http://www.w3.org/2000/svg">
<path fill-rule="evenodd" clip-rule="evenodd" d="M12 2.25C6.61522 2.25 2.25 6.61522 2.25 12C2.25 17.3848 6.61522 21.75 12 21.75C17.3848 21.75 21.75 17.3848 21.75 12C21.75 6.61522 17.3848 2.25 12 2.25ZM3.75 12C3.75 7.44365 7.44365 3.75 12 3.75C16.5563 3.75 20.25 7.44365 20.25 12C20.25 16.5563 16.5563 20.25 12 20.25C7.44365 20.25 3.75 16.5563 3.75 12ZM16.0857 9.96852C16.3444 9.64507 16.292 9.17311 15.9685 8.91435C15.6451 8.65559 15.1731 8.70803 14.9143 9.03148L11.4378 13.3772L9.53033 11.4697C9.23744 11.1768 8.76256 11.1768 8.46967 11.4697C8.17678 11.7626 8.17678 12.2374 8.46967 12.5303L10.9697 15.0303C11.1205 15.1812 11.3285 15.2606 11.5415 15.2489C11.7545 15.2371 11.9524 15.1351 12.0857 14.9685L16.0857 9.96852Z" fill="#12131B"/>
</svg>
