<svg width="18" height="18" viewBox="0 0 18 18" fill="none" xmlns="http://www.w3.org/2000/svg">
<path fill-rule="evenodd" clip-rule="evenodd" d="M9 2.25C5.27208 2.25 2.25 5.27208 2.25 9C2.25 12.7279 5.27208 15.75 9 15.75C12.7279 15.75 15.75 12.7279 15.75 9C15.75 5.27208 12.7279 2.25 9 2.25ZM3.75 9C3.75 6.10051 6.10051 3.75 9 3.75C11.8995 3.75 14.25 6.10051 14.25 9C14.25 11.8995 11.8995 14.25 9 14.25C6.10051 14.25 3.75 11.8995 3.75 9ZM11.5762 7.98014C11.8413 7.66194 11.7983 7.18901 11.4801 6.92384C11.1619 6.65867 10.689 6.70166 10.4238 7.01987L8.4496 9.38895L7.53033 8.46968C7.23744 8.17678 6.76256 8.17678 6.46967 8.46968C6.17678 8.76257 6.17678 9.23744 6.46967 9.53034L7.96967 11.0303C8.11867 11.1793 8.32348 11.2588 8.53399 11.2492C8.74449 11.2397 8.94127 11.142 9.07617 10.9801L11.5762 7.98014Z" fill="#12131B"/>
</svg>
