<svg width="517" height="517" viewBox="0 0 517 517" fill="none" xmlns="http://www.w3.org/2000/svg">
<path d="M506.832 9.95869C493.555 -3.31902 472.026 -3.31936 458.748 9.9588L258.395 210.312L58.0431 9.95869C44.7649 -3.31947 23.237 -3.3197 9.95841 9.9588C-3.3193 23.2365 -3.31964 44.7652 9.95852 58.0433L210.311 258.396L9.95841 458.749C-3.31964 472.026 -3.3193 493.556 9.95841 506.833C23.237 520.112 44.7648 520.112 58.043 506.833L258.396 306.48L458.748 506.833C472.026 520.112 493.555 520.11 506.833 506.833C520.111 493.555 520.111 472.026 506.832 458.749L306.48 258.396L506.833 58.0433C520.111 44.7652 520.111 23.2373 506.832 9.95869Z" fill="#3A2F45"/>
</svg>
