<svg width="24" height="24" viewBox="0 0 24 24" fill="none" xmlns="http://www.w3.org/2000/svg">
<path fill-rule="evenodd" clip-rule="evenodd" d="M12 3.25146C16.8325 3.25146 20.75 7.16897 20.75 12.0015C20.75 16.834 16.8325 20.7515 12 20.7515C7.16751 20.7515 3.25 16.834 3.25 12.0015C3.25 7.16897 7.16751 3.25146 12 3.25146ZM19.25 12.0015C19.25 7.9974 16.0041 4.75146 12 4.75146C7.99594 4.75146 4.75 7.9974 4.75 12.0015C4.75 16.0055 7.99594 19.2515 12 19.2515C16.0041 19.2515 19.25 16.0055 19.25 12.0015ZM11.25 7.50146C11.25 7.08725 11.5858 6.75146 12 6.75146C12.4142 6.75146 12.75 7.08725 12.75 7.50146V11.2515H16.5C16.9142 11.2515 17.25 11.5873 17.25 12.0015C17.25 12.4157 16.9142 12.7515 16.5 12.7515H12C11.5858 12.7515 11.25 12.4157 11.25 12.0015V7.50146Z" fill="#12131B"/>
</svg>
