<svg width="18" height="18" viewBox="0 0 18 18" fill="none" xmlns="http://www.w3.org/2000/svg">
<path fill-rule="evenodd" clip-rule="evenodd" d="M9 1.25C13.2802 1.25 16.75 4.71979 16.75 9C16.75 13.2802 13.2802 16.75 9 16.75C4.71979 16.75 1.25 13.2802 1.25 9C1.25 4.71979 4.71979 1.25 9 1.25ZM15.25 9C15.25 5.54822 12.4518 2.75 9 2.75C5.54822 2.75 2.75 5.54822 2.75 9C2.75 12.4518 5.54822 15.25 9 15.25C12.4518 15.25 15.25 12.4518 15.25 9ZM8.25 5.5C8.25 5.08579 8.58579 4.75 9 4.75C9.41421 4.75 9.75 5.08579 9.75 5.5V8.25H12.5C12.9142 8.25 13.25 8.58579 13.25 9C13.25 9.41421 12.9142 9.75 12.5 9.75H9C8.58579 9.75 8.25 9.41421 8.25 9V5.5Z" fill="#74757A"/>
</svg>
