<svg width="63" height="63" viewBox="0 0 63 63" fill="none" xmlns="http://www.w3.org/2000/svg">
<path d="M61.8854 1.21599C60.2642 -0.405254 58.6355 0.594705 57.0142 2.216L31.5506 27.6796L6.08714 2.21599C4.46585 0.594691 2.83724 -0.405336 1.21589 1.216C-0.405351 2.83724 0.594608 4.46595 2.2159 6.08723L27.6794 31.5508L2.21589 57.0143C0.594607 58.6355 -0.405351 60.2643 1.21589 61.8855C2.83724 63.5069 4.46584 62.5069 6.08713 60.8855L31.5507 35.422L57.0142 60.8855C58.6355 62.5069 60.2642 63.5067 61.8854 61.8855C63.5067 60.2642 62.5067 58.6355 60.8854 57.0143L35.4219 31.5508L60.8854 6.08723C62.5067 4.46595 63.5067 2.83734 61.8854 1.21599Z" fill="#3A2F45"/>
</svg>
