<svg width="591" height="515" viewBox="0 0 591 515" fill="none" xmlns="http://www.w3.org/2000/svg">
<path d="M403.071 278.607H322.393V197.929C322.393 188.029 314.364 180 304.464 180H286.536C276.636 180 268.607 188.029 268.607 197.929V278.607H187.929C178.029 278.607 170 286.636 170 296.536V314.464C170 324.364 178.029 332.393 187.929 332.393H268.607V413.071C268.607 422.971 276.636 431 286.536 431H304.464C314.364 431 322.393 422.971 322.393 413.071V332.393H403.071C412.971 332.393 421 324.364 421 314.464V296.536C421 286.636 412.971 278.607 403.071 278.607Z" fill="#3A2F45"/>
<path d="M535.594 85.8333H327.73C318.993 85.8333 310.691 82.025 304.992 75.4034L250.91 12.5665C243.984 4.51967 234.588 0 224.788 0H55.4062C24.8058 0 0 28.8212 0 64.375V450.625C0 486.179 24.8058 515 55.4062 515H535.594C566.194 515 591 486.179 591 450.625V150.208C591 114.655 566.194 85.8333 535.594 85.8333ZM535.5 431.51C535.5 448.078 522.069 461.51 505.5 461.51H293.703H82.1655C65.4961 461.51 52.0232 447.92 52.1666 431.252L53.6562 258.127L55.1503 84.4862C55.292 68.019 68.6814 54.7443 85.1492 54.7443H201.028C209.834 54.7443 218.195 58.6129 223.895 65.3245L275 125.5C281.926 133.547 296.527 140.02 306.327 140.02H505.5C522.069 140.02 535.5 153.452 535.5 170.02V431.51Z" fill="#3A2F45"/>
</svg>
