<svg width="23" height="22" viewBox="0 0 23 22" fill="none" xmlns="http://www.w3.org/2000/svg">
<path d="M21.955 18.7001C21.955 19.2836 21.7347 19.8432 21.3426 20.2557C20.9505 20.6683 20.4186 20.9001 19.8641 20.9001H3.13681C2.58226 20.9001 2.05043 20.6683 1.65831 20.2557C1.26619 19.8432 1.0459 19.2836 1.0459 18.7001V3.3001C1.0459 2.71662 1.26619 2.15704 1.65831 1.74446C2.05043 1.33188 2.58226 1.1001 3.13681 1.1001H8.36408L10.455 4.4001H19.8641C20.4186 4.4001 20.9505 4.63188 21.3426 5.04446C21.7347 5.45704 21.955 6.01662 21.955 6.6001V18.7001Z" stroke="#444444" stroke-width="2" stroke-linecap="round" stroke-linejoin="round"/>
<path d="M11.5 9.8999V16.4999" stroke="#444444" stroke-width="2" stroke-linecap="round" stroke-linejoin="round"/>
<path d="M8.36328 13.2002H14.636" stroke="#444444" stroke-width="2" stroke-linecap="round" stroke-linejoin="round"/>
</svg>
