<svg width="591" height="515" viewBox="0 0 591 515" fill="none" xmlns="http://www.w3.org/2000/svg">
<path d="M535.594 85.8333H327.73C318.993 85.8333 310.691 82.025 304.992 75.4034L250.91 12.5665C243.984 4.51967 234.588 0 224.788 0H55.4062C24.8058 0 0 28.8212 0 64.375V450.625C0 486.179 24.8058 515 55.4062 515H535.594C566.194 515 591 486.179 591 450.625V150.208C591 114.655 566.194 85.8333 535.594 85.8333ZM542.5 436.51C542.5 453.078 529.069 466.51 512.5 466.51H78.753C62.086 466.51 48.6141 452.924 48.7541 436.258L51.7502 79.4924C51.8885 63.0227 65.2789 49.7443 81.7491 49.7443H201.526C210.043 49.7443 218.16 53.3651 223.85 59.7034L280.206 122.48C287.131 130.527 296.527 135.02 306.327 135.02H512.5C529.069 135.02 542.5 148.452 542.5 165.02V436.51Z" fill="#3A2F45"/>
<path d="M403.071 277.607H322.393V196.929C322.393 187.029 314.364 179 304.464 179H286.536C276.636 179 268.607 187.029 268.607 196.929V277.607H187.929C178.029 277.607 170 285.636 170 295.536V313.464C170 323.364 178.029 331.393 187.929 331.393H268.607V412.071C268.607 421.971 276.636 430 286.536 430H304.464C314.364 430 322.393 421.971 322.393 412.071V331.393H403.071C412.971 331.393 421 323.364 421 313.464V295.536C421 285.636 412.971 277.607 403.071 277.607Z" fill="#3A2F45"/>
</svg>
