<svg width="18" height="18" viewBox="0 0 18 18" fill="none" xmlns="http://www.w3.org/2000/svg">
<path fill-rule="evenodd" clip-rule="evenodd" d="M6 1.25C3.37665 1.25 1.25 3.37665 1.25 6V12C1.25 14.6234 3.37665 16.75 6 16.75H12C14.6234 16.75 16.75 14.6234 16.75 12V6C16.75 3.37665 14.6234 1.25 12 1.25H6ZM2.75 6C2.75 4.20507 4.20507 2.75 6 2.75H12C13.7949 2.75 15.25 4.20507 15.25 6V12C15.25 13.7949 13.7949 15.25 12 15.25H6C4.20507 15.25 2.75 13.7949 2.75 12V6ZM7.5 5.75C6.5335 5.75 5.75 6.5335 5.75 7.5V10.5C5.75 11.4665 6.5335 12.25 7.5 12.25H10.5C11.4665 12.25 12.25 11.4665 12.25 10.5V7.5C12.25 6.5335 11.4665 5.75 10.5 5.75H7.5ZM7.25 7.5C7.25 7.36193 7.36193 7.25 7.5 7.25H10.5C10.6381 7.25 10.75 7.36193 10.75 7.5V10.5C10.75 10.6381 10.6381 10.75 10.5 10.75H7.5C7.36193 10.75 7.25 10.6381 7.25 10.5V7.5Z" fill="#12131B"/>
</svg>
