<svg width="591" height="516" viewBox="0 0 591 516" fill="none" xmlns="http://www.w3.org/2000/svg">
<path d="M84.9178 426.05L94.8461 408.937L81.7765 394.083C47.5598 355.197 27.5767 307.727 27.5767 256.5C27.5767 133.52 143.749 27.5 295.538 27.5C447.328 27.5 563.5 133.52 563.5 256.5C563.5 379.48 447.328 485.5 295.538 485.5C260.813 485.5 227.761 479.621 197.087 469.301L188.13 466.288L179.212 469.417C134.403 485.141 95.7535 485.499 51.1771 485.348C51.071 485.234 50.9115 485.022 50.766 484.662C50.2055 483.275 50.1846 482.446 50.1979 482.179C53.2944 478.732 56.315 474.02 59.8794 468.285C64.6567 460.597 72.32 447.764 84.9178 426.05Z" stroke="#3A2F45" stroke-width="55"/>
<path d="M315.407 166.08L386.917 237.592L231.637 392.878L167.881 399.917C159.346 400.861 152.135 393.644 153.084 385.108L160.178 321.305L315.407 166.08V166.08ZM431.145 155.433L397.569 121.855C387.095 111.382 370.109 111.382 359.636 121.855L328.048 153.444L399.557 224.957L431.145 193.368C441.618 182.888 441.618 165.907 431.145 155.433V155.433Z" fill="#3A2F45"/>
</svg>
