<svg width="24" height="24" viewBox="0 0 24 24" fill="none" xmlns="http://www.w3.org/2000/svg">
<path fill-rule="evenodd" clip-rule="evenodd" d="M6.66667 3.91406C4.77969 3.91406 3.25 5.44375 3.25 7.33073V19.9974C3.25 20.3007 3.43273 20.5742 3.71299 20.6903C3.99324 20.8064 4.31583 20.7422 4.53033 20.5277L7.64399 17.4141H17.3333C19.2203 17.4141 20.75 15.8844 20.75 13.9974V7.33073C20.75 5.44376 19.2203 3.91406 17.3333 3.91406H6.66667ZM4.75 7.33073C4.75 6.27218 5.60812 5.41406 6.66667 5.41406H17.3333C18.3919 5.41406 19.25 6.27218 19.25 7.33073V13.9974C19.25 15.0559 18.3919 15.9141 17.3333 15.9141H7.33333C7.13442 15.9141 6.94366 15.9931 6.803 16.1337L4.75 18.1867V7.33073ZM9.33333 9.91406C8.91912 9.91406 8.58333 10.2498 8.58333 10.6641C8.58333 11.0783 8.91912 11.4141 9.33333 11.4141H14.6667C15.0809 11.4141 15.4167 11.0783 15.4167 10.6641C15.4167 10.2498 15.0809 9.91406 14.6667 9.91406H9.33333Z" fill="#12131B"/>
</svg>
