<svg width="18" height="18" viewBox="0 0 18 18" fill="none" xmlns="http://www.w3.org/2000/svg">
<path fill-rule="evenodd" clip-rule="evenodd" d="M5 2.75C3.48122 2.75 2.25 3.98122 2.25 5.5V15C2.25 15.3033 2.43273 15.5768 2.71299 15.6929C2.99324 15.809 3.31583 15.7448 3.53033 15.5303L5.81066 13.25H13C14.5188 13.25 15.75 12.0188 15.75 10.5V5.5C15.75 3.98122 14.5188 2.75 13 2.75H5ZM3.75 5.5C3.75 4.80964 4.30964 4.25 5 4.25H13C13.6904 4.25 14.25 4.80964 14.25 5.5V10.5C14.25 11.1904 13.6904 11.75 13 11.75H5.5C5.30109 11.75 5.11032 11.829 4.96967 11.9697L3.75 13.1893V5.5ZM7 7.25C6.58579 7.25 6.25 7.58579 6.25 8C6.25 8.41421 6.58579 8.75 7 8.75H11C11.4142 8.75 11.75 8.41421 11.75 8C11.75 7.58579 11.4142 7.25 11 7.25H7Z" fill="#12131B"/>
</svg>
