<?xml version="1.0" encoding="UTF-8"?>
<svg width="18px" height="17px" viewBox="0 0 18 17" version="1.1" xmlns="http://www.w3.org/2000/svg" xmlns:xlink="http://www.w3.org/1999/xlink">
    <!-- Generator: Sketch 51.3 (57544) - http://www.bohemiancoding.com/sketch -->
    <title>Group 9</title>
    <desc>Created with Sketch.</desc>
    <defs></defs>
    <g id="New-Overview" stroke="none" stroke-width="1" fill="none" fill-rule="evenodd">
        <g id="Annotation-search-overview" transform="translate(-1271.000000, -303.000000)">
            <g id="Group" transform="translate(530.000000, 258.000000)">
                <g id="Group-9" transform="translate(742.000000, 45.000000)">
                    <path d="M11.9346033,15.0406816 C12.5468711,15.7383861 13.4472651,16.1750141 14.4512043,16.1750141 C15.1219977,16.1750141 15.7477715,15.976956 16.27,15.6393571 C15.230045,15.0496842 14.4827181,14.0098795 14.2801294,12.7855206 C15.0994879,11.5701644 15.5766967,10.1027343 15.5766967,8.52277117 C15.5766967,4.2960323 12.1506978,0.870528268 7.92334834,0.870528268 C3.69599887,0.870528268 0.27,4.2960323 0.27,8.52277117 C0.27,12.74951 3.69599887,16.1750141 7.92334834,16.1750141 C9.3954924,16.1750141 10.7685931,15.7608927 11.9346033,15.0406816 Z" id="Path" stroke="#173766" fill="#173766"></path>
                    <path d="M3.55555556,6.5 L12.4444444,6.5" id="Line-3" stroke="#FFFFFF" stroke-linecap="square"></path>
                    <path d="M3.55555556,8.5 L12.4444444,8.5" id="Line-3" stroke="#FFFFFF" stroke-linecap="square"></path>
                    <path d="M3.55555556,10.5 L12.4444444,10.5" id="Line-3" stroke="#FFFFFF" stroke-linecap="square"></path>
                </g>
            </g>
        </g>
    </g>
</svg>