<svg width="24" height="24" viewBox="0 0 24 24" fill="none" xmlns="http://www.w3.org/2000/svg">
<path fill-rule="evenodd" clip-rule="evenodd" d="M3.25 6.5C3.25 4.70507 4.70507 3.25 6.5 3.25C8.29493 3.25 9.75 4.70507 9.75 6.5V8.25H14.25V6.5C14.25 4.70507 15.7051 3.25 17.5 3.25C19.2949 3.25 20.75 4.70507 20.75 6.5C20.75 8.29493 19.2949 9.75 17.5 9.75H15.75V14.25H17.5C19.2949 14.25 20.75 15.7051 20.75 17.5C20.75 19.2949 19.2949 20.75 17.5 20.75C15.7051 20.75 14.25 19.2949 14.25 17.5V15.75H9.75V17.5C9.75 19.2949 8.29493 20.75 6.5 20.75C4.70507 20.75 3.25 19.2949 3.25 17.5C3.25 15.7051 4.70507 14.25 6.5 14.25H8.25V9.75H6.5C4.70507 9.75 3.25 8.29493 3.25 6.5ZM6.5 4.75C5.5335 4.75 4.75 5.5335 4.75 6.5C4.75 7.4665 5.5335 8.25 6.5 8.25H8.25V6.5C8.25 5.5335 7.4665 4.75 6.5 4.75ZM6.5 19.25C5.5335 19.25 4.75 18.4665 4.75 17.5C4.75 16.5335 5.5335 15.75 6.5 15.75H8.25V17.5C8.25 18.4665 7.4665 19.25 6.5 19.25ZM19.25 6.5C19.25 5.5335 18.4665 4.75 17.5 4.75C16.5335 4.75 15.75 5.5335 15.75 6.5V8.25H17.5C18.4665 8.25 19.25 7.4665 19.25 6.5ZM17.5 19.25C18.4665 19.25 19.25 18.4665 19.25 17.5C19.25 16.5335 18.4665 15.75 17.5 15.75H15.75V17.5C15.75 18.4665 16.5335 19.25 17.5 19.25ZM14.25 14.25V9.75H9.75V14.25H14.25Z" fill="#12131B"/>
</svg>
