<svg width="14" height="14" viewBox="0 0 14 14" fill="none" xmlns="http://www.w3.org/2000/svg">
<path fill-rule="evenodd" clip-rule="evenodd" d="M3 0.751953C1.48122 0.751953 0.25 1.98317 0.25 3.50195V13.002C0.25 13.3053 0.432732 13.5788 0.712987 13.6949C0.993243 13.8109 1.31583 13.7468 1.53033 13.5323L3.81066 11.252H11C12.5188 11.252 13.75 10.0207 13.75 8.50195V3.50195C13.75 1.98317 12.5188 0.751953 11 0.751953H3ZM1.75 3.50195C1.75 2.8116 2.30964 2.25195 3 2.25195H11C11.6904 2.25195 12.25 2.8116 12.25 3.50195V8.50195C12.25 9.19231 11.6904 9.75195 11 9.75195H3.5C3.30109 9.75195 3.11032 9.83097 2.96967 9.97162L1.75 11.1913V3.50195ZM4.99971 5.25195C4.58549 5.25211 4.24984 5.58803 4.25 6.00225C4.25016 6.41646 4.58608 6.75211 5.00029 6.75195L9.00029 6.75039C9.41451 6.75023 9.75016 6.41431 9.75 6.0001C9.74984 5.58588 9.41392 5.25023 8.99971 5.25039L4.99971 5.25195Z" fill="#84EDA8"/>
<path d="M1 3C1 1.89543 1.89543 1 3 1H11C12.1046 1 13 1.89543 13 3V8C13 9.65685 11.6569 11 10 11H3.1612L1 12.5V11V3Z" fill="#84EDA8"/>
</svg>
