<svg width="18" height="18" viewBox="0 0 18 18" fill="none" xmlns="http://www.w3.org/2000/svg">
<path fill-rule="evenodd" clip-rule="evenodd" d="M2.25 5.5C2.25 3.98122 3.48122 2.75 5 2.75H13C14.5188 2.75 15.75 3.98122 15.75 5.5V10.5C15.75 12.0188 14.5188 13.25 13 13.25H5.81066L3.53033 15.5303C3.31583 15.7448 2.99324 15.809 2.71299 15.6929C2.43273 15.5768 2.25 15.3033 2.25 15V5.5ZM7 7.25C6.58579 7.25 6.25 7.58579 6.25 8C6.25 8.41421 6.58579 8.75 7 8.75H11C11.4142 8.75 11.75 8.41421 11.75 8C11.75 7.58579 11.4142 7.25 11 7.25H7Z" fill="#12131B"/>
</svg>
