<svg width="591" height="513" viewBox="0 0 591 513" fill="none" xmlns="http://www.w3.org/2000/svg">
<path d="M85.4671 424.91L94.1282 408.208L81.6998 394.083C47.4832 355.197 27.5 307.727 27.5 256.5C27.5 133.52 143.672 27.5 295.462 27.5C447.251 27.5 563.423 133.52 563.423 256.5C563.423 379.42 447.359 485 295.5 485C260.52 485 227.441 479.539 197.011 469.301L188.053 466.288L179.136 469.417C135.115 484.864 94.9483 485.149 50.834 485.008C50.7871 484.899 50.7388 484.784 50.6894 484.662C50.4332 484.028 50.189 483.466 50.0026 483.046C49.9871 483.011 49.9716 482.976 49.9562 482.941C55.523 473.167 61.7989 463.301 67.8835 453.804C68.332 453.104 68.7831 452.4 69.2358 451.695C75.2224 442.359 81.4724 432.613 85.4671 424.91Z" fill="#3A2F45" stroke="#3A2F45" stroke-width="55"/>
</svg>
