<svg width="591" height="516" viewBox="0 0 591 516" fill="none" xmlns="http://www.w3.org/2000/svg">
<path d="M84.9173 426.05L94.8456 408.937L81.776 394.083C47.5594 355.197 27.5762 307.727 27.5762 256.5C27.5762 133.52 143.748 27.5 295.538 27.5C447.328 27.5 563.5 133.52 563.5 256.5C563.5 379.48 447.328 485.5 295.538 485.5C260.813 485.5 227.761 479.621 197.087 469.301L188.129 466.288L179.212 469.417C134.402 485.141 95.753 485.499 51.1766 485.348C51.0705 485.234 50.911 485.022 50.7655 484.662C50.205 483.275 50.1841 482.446 50.1974 482.179C53.2939 478.732 56.3145 474.02 59.8789 468.285C64.6562 460.597 72.3195 447.764 84.9173 426.05Z" stroke="#3A2F45" stroke-width="55"/>
<path d="M403.071 230.607H322.393V149.929C322.393 140.029 314.364 132 304.464 132H286.536C276.636 132 268.607 140.029 268.607 149.929V230.607H187.929C178.029 230.607 170 238.636 170 248.536V266.464C170 276.364 178.029 284.393 187.929 284.393H268.607V365.071C268.607 374.971 276.636 383 286.536 383H304.464C314.364 383 322.393 374.971 322.393 365.071V284.393H403.071C412.971 284.393 421 276.364 421 266.464V248.536C421 238.636 412.971 230.607 403.071 230.607Z" fill="#3A2F45"/>
</svg>
