<svg width="65" height="55" viewBox="0 0 65 55" fill="none" xmlns="http://www.w3.org/2000/svg">
<path d="M9.95931 45.6779L11.0238 43.8431L9.62252 42.2507C5.95407 38.0816 3.81162 32.9922 3.81162 27.5C3.81162 14.315 16.2667 2.94834 32.5405 2.94834C48.8142 2.94834 61.2693 14.315 61.2693 27.5C61.2693 40.685 48.8142 52.0517 32.5405 52.0517C28.8175 52.0517 25.2739 51.4214 21.9853 50.3149L21.0249 49.9919L20.0689 50.3273C15.2647 52.0132 11.121 52.0515 6.34189 52.0354C6.3305 52.0232 6.31341 52.0004 6.29781 51.9618C6.23772 51.8131 6.23548 51.7242 6.23691 51.6956C6.56889 51.3261 6.89273 50.8209 7.27488 50.206C7.78706 49.3818 8.60867 48.0059 9.95931 45.6779Z" stroke="#3A2F45" stroke-width="5.89669"/>
<path d="M44.0663 24.7243H35.4165V16.0745C35.4165 15.0131 34.5558 14.1523 33.4944 14.1523H31.5722C30.5108 14.1523 29.65 15.0131 29.65 16.0745V24.7243H21.0003C19.9389 24.7243 19.0781 25.585 19.0781 26.6464V28.5686C19.0781 29.63 19.9389 30.4908 21.0003 30.4908H29.65V39.1405C29.65 40.2019 30.5108 41.0627 31.5722 41.0627H33.4944C34.5558 41.0627 35.4165 40.2019 35.4165 39.1405V30.4908H44.0663C45.1277 30.4908 45.9885 29.63 45.9885 28.5686V26.6464C45.9885 25.585 45.1277 24.7243 44.0663 24.7243Z" fill="#3A2F45"/>
</svg>
