<svg width="591" height="513" viewBox="0 0 591 513" fill="none" xmlns="http://www.w3.org/2000/svg">
<path d="M84.8411 426.05L94.7695 408.937L81.6998 394.083C47.4832 355.197 27.5 307.727 27.5 256.5C27.5 133.52 143.672 27.5 295.462 27.5C447.251 27.5 563.423 133.52 563.423 256.5C563.423 379.48 447.251 485.5 295.462 485.5C260.736 485.5 227.685 479.621 197.011 469.301L188.053 466.288L179.136 469.417C134.326 485.141 95.6768 485.499 51.1005 485.348C50.9943 485.234 50.8348 485.022 50.6894 484.662C50.1289 483.275 50.108 482.446 50.1212 482.179C53.2177 478.732 56.2383 474.02 59.8027 468.285C64.58 460.597 72.2434 447.764 84.8411 426.05Z" stroke="#3A2F45" stroke-width="55"/>
</svg>
