<svg width="110" height="110" viewBox="0 0 110 110" fill="none" xmlns="http://www.w3.org/2000/svg">
<g clip-path="url(#clip0)">
<path d="M5.17183 104.999L5.17079 104.999C5.12878 105.003 5.11225 104.997 5.10427 104.995C5.08971 104.989 5.06701 104.977 5.04371 104.954C5.0204 104.93 5.00807 104.908 5.00273 104.893C4.99978 104.885 4.99388 104.868 4.99858 104.826L4.99861 104.825L7.53332 82.029L62.4627 27.1036L82.8961 47.5369L27.9488 102.484L5.17183 104.999ZM90.5287 6.55897L103.443 19.4732C105.518 21.5481 105.519 24.9135 103.443 26.9922C103.443 26.9925 103.442 26.9928 103.442 26.9931L94.829 35.6061L74.3958 15.1729L83.0097 6.55897C85.0854 4.48327 88.453 4.48327 90.5287 6.55897Z" stroke="#3A2F45" stroke-width="10"/>
</g>
<defs>
<clipPath id="clip0">
<rect width="110" height="110" fill="white"/>
</clipPath>
</defs>
</svg>
