<svg width="24" height="24" viewBox="0 0 24 24" fill="none" xmlns="http://www.w3.org/2000/svg">
<path fill-rule="evenodd" clip-rule="evenodd" d="M3.25 7.33073C3.25 5.44375 4.77969 3.91406 6.66667 3.91406H17.3333C19.2203 3.91406 20.75 5.44376 20.75 7.33073V13.9974C20.75 15.8844 19.2203 17.4141 17.3333 17.4141H7.64399L4.53033 20.5277C4.31583 20.7422 3.99324 20.8064 3.71299 20.6903C3.43273 20.5742 3.25 20.3007 3.25 19.9974V7.33073ZM9.33333 9.91536C8.91912 9.91536 8.58333 10.2512 8.58333 10.6654C8.58333 11.0796 8.91912 11.4154 9.33333 11.4154H14.6667C15.0809 11.4154 15.4167 11.0796 15.4167 10.6654C15.4167 10.2512 15.0809 9.91536 14.6667 9.91536H9.33333Z" fill="#12131B"/>
</svg>
