<svg width="587" height="512" viewBox="0 0 587 512" fill="none" xmlns="http://www.w3.org/2000/svg">
<path d="M293.538 0C131.446 0 0.0760803 106.4 0.0760803 237.714C0.0760803 292.114 22.8882 341.943 60.7172 382.057C43.6368 427.086 8.10043 465.257 7.52726 465.714C-0.0385532 473.714 -2.10196 485.371 2.25412 495.429C6.61019 505.486 16.5833 512 27.5881 512C98.0878 512 153.685 482.629 187.043 459.086C220.173 469.486 255.938 475.429 293.538 475.429C455.63 475.429 587 369.029 587 237.714C587 106.4 455.63 0 293.538 0ZM293.538 420.571C262.931 420.571 232.668 415.886 203.665 406.743L177.644 398.514L155.29 414.286C138.897 425.829 116.429 438.743 89.3756 447.429C97.7439 433.6 105.883 418.057 112.188 401.486L124.339 369.371L100.724 344.457C79.9757 322.4 55.1002 285.943 55.1002 237.714C55.1002 136.914 162.053 54.8571 293.538 54.8571C425.023 54.8571 531.976 136.914 531.976 237.714C531.976 338.514 425.023 420.571 293.538 420.571Z" fill="#3A2F45"/>
</svg>
