<svg fill="#3EB995" xmlns="http://www.w3.org/2000/svg" xmlns:xlink="http://www.w3.org/1999/xlink" version="1.1" x="0px" y="0px" viewBox="0 0 100 100" enable-background="new 0 0 100 100" xml:space="preserve"><path d="M18,28.2c0-2.8,2.3-5,5-5h53.9c2.8,0,5,2.3,5,5v33.1c0,2.8-2.3,5-5,5H47.3c-0.9,0-1.6-0.7-1.6-1.6s0.7-1.6,1.6-1.6h29.6  c1,0,1.8-0.8,1.8-1.8V28.2c0-1-0.8-1.8-1.8-1.8H23.1c-1,0-1.8,0.8-1.8,1.8v33.1c0,1,0.8,1.8,1.8,1.8H27c0.9,0,1.6,0.7,1.6,1.6v8  l9.1-9.1c0.6-0.6,1.6-0.6,2.3,0c0.6,0.6,0.6,1.6,0,2.3L29.6,76.1c-0.5,0.5-1.1,0.7-1.8,0.7c-0.3,0-0.6-0.1-1-0.2  c-0.9-0.4-1.5-1.3-1.5-2.3v-8.1h-2.3c-2.8,0-5-2.3-5-5V28.2z M29.5,38h40.9c0.9,0,1.6-0.7,1.6-1.6c0-0.9-0.7-1.6-1.6-1.6H29.5  c-0.9,0-1.6,0.7-1.6,1.6C27.9,37.3,28.7,38,29.5,38z M29.5,46.6h40.9c0.9,0,1.6-0.7,1.6-1.6s-0.7-1.6-1.6-1.6H29.5  c-0.9,0-1.6,0.7-1.6,1.6S28.7,46.6,29.5,46.6z M29.5,55.2H50c0.9,0,1.6-0.7,1.6-1.6c0-0.9-0.7-1.6-1.6-1.6H29.5  c-0.9,0-1.6,0.7-1.6,1.6C27.9,54.5,28.7,55.2,29.5,55.2z"></path></svg>
