<svg width="18" height="18" viewBox="0 0 18 18" fill="none" xmlns="http://www.w3.org/2000/svg">
<path fill-rule="evenodd" clip-rule="evenodd" d="M2.25 5C2.25 3.48122 3.48122 2.25 5 2.25C6.51878 2.25 7.75 3.48122 7.75 5V6.25H10.25V5C10.25 3.48122 11.4812 2.25 13 2.25C14.5188 2.25 15.75 3.48122 15.75 5C15.75 6.51878 14.5188 7.75 13 7.75H11.75V10.25H13C14.5188 10.25 15.75 11.4812 15.75 13C15.75 14.5188 14.5188 15.75 13 15.75C11.4812 15.75 10.25 14.5188 10.25 13V11.75H7.75V13C7.75 14.5188 6.51878 15.75 5 15.75C3.48122 15.75 2.25 14.5188 2.25 13C2.25 11.4812 3.48122 10.25 5 10.25H6.25V7.75H5C3.48122 7.75 2.25 6.51878 2.25 5ZM5 3.75C4.30964 3.75 3.75 4.30964 3.75 5C3.75 5.69036 4.30964 6.25 5 6.25H6.25V5C6.25 4.30964 5.69036 3.75 5 3.75ZM5 14.25C4.30964 14.25 3.75 13.6904 3.75 13C3.75 12.3096 4.30964 11.75 5 11.75H6.25V13C6.25 13.6904 5.69036 14.25 5 14.25ZM14.25 5C14.25 4.30964 13.6904 3.75 13 3.75C12.3096 3.75 11.75 4.30964 11.75 5V6.25H13C13.6904 6.25 14.25 5.69036 14.25 5ZM13 14.25C13.6904 14.25 14.25 13.6904 14.25 13C14.25 12.3096 13.6904 11.75 13 11.75H11.75V13C11.75 13.6904 12.3096 14.25 13 14.25ZM10.25 10.25V7.75H7.75V10.25H10.25Z" fill="#74757A"/>
</svg>
