<svg width="24" height="24" viewBox="0 0 24 24" fill="none" xmlns="http://www.w3.org/2000/svg">
<path d="M18 3C17.2044 3 16.4413 3.31607 15.8787 3.87868C15.3161 4.44129 15 5.20435 15 6V18C15 18.7956 15.3161 19.5587 15.8787 20.1213C16.4413 20.6839 17.2044 21 18 21C18.7956 21 19.5587 20.6839 20.1213 20.1213C20.6839 19.5587 21 18.7956 21 18C21 17.2044 20.6839 16.4413 20.1213 15.8787C19.5587 15.3161 18.7956 15 18 15H6C5.20435 15 4.44129 15.3161 3.87868 15.8787C3.31607 16.4413 3 17.2044 3 18C3 18.7956 3.31607 19.5587 3.87868 20.1213C4.44129 20.6839 5.20435 21 6 21C6.79565 21 7.55871 20.6839 8.12132 20.1213C8.68393 19.5587 9 18.7956 9 18V6C9 5.20435 8.68393 4.44129 8.12132 3.87868C7.55871 3.31607 6.79565 3 6 3C5.20435 3 4.44129 3.31607 3.87868 3.87868C3.31607 4.44129 3 5.20435 3 6C3 6.79565 3.31607 7.55871 3.87868 8.12132C4.44129 8.68393 5.20435 9 6 9H18C18.7956 9 19.5587 8.68393 20.1213 8.12132C20.6839 7.55871 21 6.79565 21 6C21 5.20435 20.6839 4.44129 20.1213 3.87868C19.5587 3.31607 18.7956 3 18 3Z" stroke="#101828" stroke-width="2" stroke-linecap="round" stroke-linejoin="round"/>
</svg>
