<svg width="592" height="514" viewBox="0 0 592 514" fill="none" xmlns="http://www.w3.org/2000/svg">
<path d="M85.9671 425.41L94.6282 408.708L82.1998 394.583C47.9832 355.697 28 308.227 28 257C28 134.02 144.172 28 295.962 28C447.751 28 563.923 134.02 563.923 257C563.923 379.92 447.859 485.5 296 485.5C261.02 485.5 227.941 480.039 197.511 469.801L188.553 466.788L179.636 469.917C135.615 485.364 95.4483 485.649 51.334 485.508C51.2871 485.399 51.2388 485.284 51.1894 485.162C50.9332 484.528 50.689 483.966 50.5026 483.546C50.4871 483.511 50.4716 483.476 50.4562 483.441C56.023 473.667 62.2989 463.801 68.3835 454.304C68.832 453.604 69.2831 452.9 69.7358 452.195C75.7224 442.859 81.9724 433.113 85.9671 425.41Z" stroke="#3A2F45" stroke-width="55"/>
<path d="M403.071 230.607H322.393V149.929C322.393 140.029 314.364 132 304.464 132H286.536C276.636 132 268.607 140.029 268.607 149.929V230.607H187.929C178.029 230.607 170 238.636 170 248.536V266.464C170 276.364 178.029 284.393 187.929 284.393H268.607V365.071C268.607 374.971 276.636 383 286.536 383H304.464C314.364 383 322.393 374.971 322.393 365.071V284.393H403.071C412.971 284.393 421 276.364 421 266.464V248.536C421 238.636 412.971 230.607 403.071 230.607Z" fill="#3A2F45"/>
</svg>
