<svg width="24" height="24" viewBox="0 0 24 24" fill="none" xmlns="http://www.w3.org/2000/svg">
<path fill-rule="evenodd" clip-rule="evenodd" d="M19.5303 5.53033C19.8232 5.23744 19.8232 4.76256 19.5303 4.46967C19.2374 4.17678 18.7626 4.17678 18.4697 4.46967L16.9278 6.01154L13.75 9.18934L13.75 5.63538C13.75 5.22117 13.4142 4.88538 13 4.88538C12.5858 4.88538 12.25 5.22117 12.25 5.63538L12.25 9.5C12.25 10.7426 13.2574 11.75 14.5 11.75L18.3645 11.75C18.7787 11.75 19.1145 11.4142 19.1145 11C19.1145 10.5858 18.7787 10.25 18.3645 10.25L14.8107 10.25L17.9885 7.0722L19.5303 5.53033ZM4.46967 18.4697C4.17678 18.7626 4.17678 19.2374 4.46967 19.5303C4.76256 19.8232 5.23744 19.8232 5.53033 19.5303L7.0722 17.9885L10.25 14.8107V18.3646C10.25 18.7788 10.5858 19.1146 11 19.1146C11.4142 19.1146 11.75 18.7788 11.75 18.3646V14.5C11.75 13.2574 10.7426 12.25 9.5 12.25H5.63547C5.22126 12.25 4.88547 12.5858 4.88547 13C4.88547 13.4142 5.22126 13.75 5.63547 13.75H9.18934L6.01154 16.9278L4.46967 18.4697Z" fill="black"/>
</svg>
