<svg width="24" height="24" viewBox="0 0 24 24" fill="none" xmlns="http://www.w3.org/2000/svg">
<path fill-rule="evenodd" clip-rule="evenodd" d="M18 15.25C19.2426 15.25 20.25 14.2426 20.25 13V6C20.25 4.75736 19.2426 3.75 18 3.75H11C9.75736 3.75 8.75 4.75736 8.75 6V8.75H6C4.75736 8.75 3.75 9.75736 3.75 11V18C3.75 19.2426 4.75736 20.25 6 20.25H13C14.2426 20.25 15.25 19.2426 15.25 18V15.25H18ZM13.75 15.25V18C13.75 18.4142 13.4142 18.75 13 18.75H6C5.58579 18.75 5.25 18.4142 5.25 18V11C5.25 10.5858 5.58579 10.25 6 10.25H8.75V13C8.75 14.2426 9.75736 15.25 11 15.25H13.75ZM10.25 9.5V13C10.25 13.4142 10.5858 13.75 11 13.75H14.5H18C18.4142 13.75 18.75 13.4142 18.75 13V6C18.75 5.58579 18.4142 5.25 18 5.25H11C10.5858 5.25 10.25 5.58579 10.25 6V9.5Z" fill="#12131B"/>
</svg>
