<svg width="18" height="18" viewBox="0 0 18 18" fill="none" xmlns="http://www.w3.org/2000/svg">
<path fill-rule="evenodd" clip-rule="evenodd" d="M13.5 11.75C14.7426 11.75 15.75 10.7426 15.75 9.5V4.5C15.75 3.25736 14.7426 2.25 13.5 2.25H8.5C7.25736 2.25 6.25 3.25736 6.25 4.5V6.25H4.5C3.25736 6.25 2.25 7.25736 2.25 8.5V13.5C2.25 14.7426 3.25736 15.75 4.5 15.75H9.5C10.7426 15.75 11.75 14.7426 11.75 13.5V11.75H13.5ZM10.25 11.75V13.5C10.25 13.9142 9.91421 14.25 9.5 14.25H4.5C4.08579 14.25 3.75 13.9142 3.75 13.5V8.5C3.75 8.08579 4.08579 7.75 4.5 7.75H6.25V9.5C6.25 10.7426 7.25736 11.75 8.5 11.75H10.25ZM7.75 7V9.5C7.75 9.91421 8.08579 10.25 8.5 10.25H11H13.5C13.9142 10.25 14.25 9.91421 14.25 9.5V4.5C14.25 4.08579 13.9142 3.75 13.5 3.75H8.5C8.08579 3.75 7.75 4.08579 7.75 4.5V7Z" fill="#12131B"/>
</svg>
