<svg width="11" height="13" viewBox="0 0 11 13" fill="none" xmlns="http://www.w3.org/2000/svg">
<path d="M10.6548 1.67428L9.38091 0.356967C9.15989 0.128406 8.86012 1.69019e-06 8.54754 0L4.32143 0C3.67051 0 3.14286 0.545645 3.14286 1.21875V2.4375H1.17857C0.527656 2.4375 0 2.98314 0 3.65625V11.7812C0 12.4544 0.527656 13 1.17857 13H6.67857C7.32949 13 7.85714 12.4544 7.85714 11.7812V10.5625H9.82143C10.4723 10.5625 11 10.0169 11 9.34375V2.53607C11 2.21283 10.8758 1.90284 10.6548 1.67428ZM6.53125 11.7812H1.32589C1.28682 11.7812 1.24935 11.7652 1.22172 11.7366C1.19409 11.7081 1.17857 11.6693 1.17857 11.6289V3.80859C1.17857 3.76819 1.19409 3.72944 1.22172 3.70087C1.24935 3.6723 1.28682 3.65625 1.32589 3.65625H3.14286V9.34375C3.14286 10.0169 3.67051 10.5625 4.32143 10.5625H6.67857V11.6289C6.67857 11.6693 6.66305 11.7081 6.63542 11.7366C6.60779 11.7652 6.57032 11.7812 6.53125 11.7812ZM9.67411 9.34375H4.46875C4.42968 9.34375 4.39221 9.3277 4.36458 9.29913C4.33695 9.27056 4.32143 9.23181 4.32143 9.19141V1.37109C4.32143 1.33069 4.33695 1.29194 4.36458 1.26337C4.39221 1.2348 4.42968 1.21875 4.46875 1.21875H7.07143V3.45312C7.07143 3.78968 7.33526 4.0625 7.66071 4.0625H9.82143V9.19141C9.82143 9.23181 9.80591 9.27056 9.77828 9.29913C9.75065 9.3277 9.71318 9.34375 9.67411 9.34375ZM9.82143 2.84375H8.25V1.21875H8.4865C8.52556 1.21875 8.56303 1.2348 8.59068 1.26336L9.77829 2.49146C9.79197 2.5056 9.80282 2.5224 9.81022 2.54088C9.81762 2.55937 9.82143 2.57918 9.82143 2.59919V2.84375Z" fill="#3A2F45" />
</svg>

