<svg fill="#767676" xmlns:dc="http://purl.org/dc/elements/1.1/" xmlns:cc="http://creativecommons.org/ns#" xmlns:rdf="http://www.w3.org/1999/02/22-rdf-syntax-ns#" xmlns:svg="http://www.w3.org/2000/svg" xmlns="http://www.w3.org/2000/svg" xmlns:sodipodi="http://sodipodi.sourceforge.net/DTD/sodipodi-0.dtd" xmlns:inkscape="http://www.inkscape.org/namespaces/inkscape" viewBox="0 0 16 16" version="1.1" x="0px" y="0px"><g transform="translate(0,-1036.3622)"><g transform="translate(-66.999329,19.499601)"><g transform="translate(67.012722,-18.496791)"><g transform="translate(0.0168932,-1.00281)"><path style="text-indent:0;text-transform:none;direction:ltr;block-progression:tb;baseline-shift:baseline;color:#000000;enable-background:accumulate;" d="m 8,2 c 3.319631,0 6,2.6804 6,6 0,3.3197 -2.680369,6 -6,6 C 4.6803692,14 2,11.3197 2,8 2,4.6804 4.6803692,2 8,2 z M 5.5253906,4.8183594 4.8183594,5.5253906 7.2929688,8 4.8183594,10.476562 5.5253906,11.183594 8,8.7070312 10.476562,11.183594 11.183594,10.476562 8.7070312,8 11.183594,5.5253906 10.476562,4.8183594 8,7.2929688 z" transform="translate(-0.0302862,1036.3622)" fill="#767676" fill-opacity="1" fill-rule="nonzero" stroke="none" visibility="visible" display="inline" overflow="visible"></path></g></g></g></g></svg>