<?xml version="1.0" encoding="UTF-8"?>
<svg width="46px" height="46px" viewBox="0 0 46 46" version="1.1" xmlns="http://www.w3.org/2000/svg" xmlns:xlink="http://www.w3.org/1999/xlink">
    <!-- Generator: Sketch 51.3 (57544) - http://www.bohemiancoding.com/sketch -->
    <title>noun_Cross_1049918</title>
    <desc>Created with Sketch.</desc>
    <defs></defs>
    <g id="Page-1" stroke="none" stroke-width="1" fill="none" fill-rule="evenodd">
        <g id="noun_Cross_1049918" transform="translate(0.000000, -1.000000)" fill="#3EB995" fill-rule="nonzero">
            <g id="Group" transform="translate(0.000000, 0.637820)">
                <path d="M44.920291,1.44186 C43.748761,0.27033 41.849221,0.2703 40.677661,1.44187 L22.999981,19.11958 L5.322321,1.44186 C4.150751,0.27029 2.251281,0.27027 1.079671,1.44187 C-0.091859,2.6134 -0.091889,4.51294 1.079681,5.6845 L18.757351,23.3622 L1.079671,41.0399 C-0.091889,42.2114 -0.091859,44.111 1.079671,45.2825 C2.251281,46.4541 4.150741,46.4541 5.322311,45.2825 L22.999991,27.6048 L40.677661,45.2825 C41.849231,46.4541 43.748761,46.454 44.920301,45.2825 C46.091901,44.1109 46.091861,42.2114 44.920291,41.0399 L27.242621,23.3622 L44.920301,5.6845 C46.091871,4.51294 46.091901,2.61347 44.920291,1.44186 Z" id="Shape"></path>
            </g>
        </g>
    </g>
</svg>