<svg width="884" height="779" viewBox="0 0 884 779" fill="none" xmlns="http://www.w3.org/2000/svg">
<path d="M876.3 707L482.9 25.5C464.8 -5.90005 419.5 -5.90005 401.4 25.5L7.89994 707C-10.2001 738.4 12.3999 777.6 48.6999 777.6H835.7C871.8 777.6 894.5 738.4 876.3 707ZM442 670C422.7 670 407.1 654.3 407.1 634.9C407.1 615.5 422.7 599.8 442 599.8C461.3 599.8 476.9 615.5 476.9 634.9C476.9 654.3 461.2 670 442 670ZM477.6 532.2C477.6 546.8 465.8 558.6 451.2 558.6H432.6C418 558.6 406.2 546.8 406.2 532.2V264.3C406.2 249.7 418 237.9 432.6 237.9H451.2C465.8 237.9 477.6 249.7 477.6 264.3V532.2Z" fill="#F29D9D" stroke="#F29D9D" stroke-width="2"/>
</svg>
