<svg width="18" height="18" viewBox="0 0 18 18" fill="none" xmlns="http://www.w3.org/2000/svg">
<path fill-rule="evenodd" clip-rule="evenodd" d="M6.75 2C6.75 1.58579 6.41421 1.25 6 1.25C5.58579 1.25 5.25 1.58579 5.25 2V3.25H4C2.48122 3.25 1.25 4.48122 1.25 6V13C1.25 14.5188 2.48122 15.75 4 15.75H14C15.5188 15.75 16.75 14.5188 16.75 13V6C16.75 4.48122 15.5188 3.25 14 3.25H12.75V2C12.75 1.58579 12.4142 1.25 12 1.25C11.5858 1.25 11.25 1.58579 11.25 2V3.25H6.75V2ZM12 4.75H6H4C3.30964 4.75 2.75 5.30964 2.75 6V7.29268C2.82819 7.26504 2.91234 7.25 3 7.25H15C15.0877 7.25 15.1718 7.26504 15.25 7.29268V6C15.25 5.30964 14.6904 4.75 14 4.75H12ZM15.25 8.70732C15.1718 8.73496 15.0877 8.75 15 8.75H3C2.91234 8.75 2.82819 8.73496 2.75 8.70732V13C2.75 13.6904 3.30964 14.25 4 14.25H14C14.6904 14.25 15.25 13.6904 15.25 13V8.70732Z" fill="#12131B"/>
</svg>
