<svg fill="#3EB995" xmlns:dc="http://purl.org/dc/elements/1.1/" xmlns:cc="http://creativecommons.org/ns#" xmlns:rdf="http://www.w3.org/1999/02/22-rdf-syntax-ns#" xmlns:svg="http://www.w3.org/2000/svg" xmlns="http://www.w3.org/2000/svg" xmlns:sodipodi="http://sodipodi.sourceforge.net/DTD/sodipodi-0.dtd" xmlns:inkscape="http://www.inkscape.org/namespaces/inkscape" version="1.1" x="0px" y="0px" viewBox="0 0 100 100"><g transform="translate(0,-952.36218)"><path style="text-indent:0;text-transform:none;direction:ltr;block-progression:tb;baseline-shift:baseline;color:#000000;enable-background:accumulate;" d="M 80.78125 6 A 2.0002002 2.0002002 0 0 0 79.59375 6.5625 L 34.59375 51.5625 A 2.0002002 2.0002002 0 0 0 34.03125 52.6875 L 32.03125 65.6875 A 2.0002002 2.0002002 0 0 0 34.3125 67.96875 L 47.3125 65.96875 A 2.0002002 2.0002002 0 0 0 48.40625 65.40625 L 93.40625 20.40625 A 2.0002002 2.0002002 0 0 0 93.40625 17.5625 L 82.40625 6.5625 A 2.0002002 2.0002002 0 0 0 80.78125 6 z M 81 10.8125 L 89.1875 19 L 46.0625 62.09375 L 36.375 63.59375 L 37.875 53.9375 L 81 10.8125 z M 7.8125 14 A 2.0001998 2.0001998 0 0 0 6 16 L 6 92 A 2.0001998 2.0001998 0 0 0 8 94 L 84 94 A 2.0001998 2.0001998 0 0 0 86 92 L 86 38 A 2.0001998 2.0001998 0 1 0 82 38 L 82 90 L 10 90 L 10 18 L 62 18 A 2.0001998 2.0001998 0 1 0 62 14 L 8 14 A 2.0001998 2.0001998 0 0 0 7.8125 14 z " transform="translate(0,952.36218)" fill="#3EB995" fill-opacity="1" stroke="none" marker="none" visibility="visible" display="inline" overflow="visible"></path></g></svg>
