<svg width="24" height="24" viewBox="0 0 24 24" fill="none" xmlns="http://www.w3.org/2000/svg">
<path fill-rule="evenodd" clip-rule="evenodd" d="M7.64001 14.1668L16.2677 5.53914C16.9416 4.86522 18.0342 4.86522 18.7082 5.53914C19.3821 6.21305 19.3821 7.30569 18.7082 7.9796L10.0805 16.6073C9.80488 16.8829 9.4698 17.0917 9.10096 17.2176L5.95586 18.2914L7.0297 15.1463C7.15563 14.7775 7.36441 14.4424 7.64001 14.1668ZM15.207 4.47848L6.57935 13.1062C6.14169 13.5438 5.81015 14.0759 5.61016 14.6617L4.04271 19.2525C3.95028 19.5232 4.01988 19.8229 4.22215 20.0251C4.42441 20.2274 4.72412 20.297 4.99482 20.2046L9.58563 18.6371C10.1714 18.4371 10.7035 18.1056 11.1411 17.6679L19.7688 9.04026C21.0285 7.78056 21.0285 5.73818 19.7688 4.47848C18.5091 3.21877 16.4667 3.21878 15.207 4.47848ZM13.4888 18.7705C13.0746 18.7705 12.7388 19.1063 12.7388 19.5205C12.7388 19.9347 13.0746 20.2705 13.4888 20.2705H19.9429C20.3571 20.2705 20.6929 19.9347 20.6929 19.5205C20.6929 19.1063 20.3571 18.7705 19.9429 18.7705H13.4888Z" fill="#12131B"/>
</svg>
