<svg width="24" height="24" viewBox="0 0 24 24" fill="none" xmlns="http://www.w3.org/2000/svg">
<path fill-rule="evenodd" clip-rule="evenodd" d="M17.1665 5.51753C17.1551 4.98861 17.5747 4.55064 18.1036 4.53929C18.6326 4.52794 19.0705 4.94751 19.0819 5.47643C19.1656 9.28148 19.0927 13.4796 14.1603 14.2209L7.13918 14.2709L9.22022 16.3671C9.59294 16.7425 9.59074 17.349 9.2153 17.7218C8.83986 18.0945 8.23334 18.0923 7.86061 17.7169L5.05386 14.8897C4.18729 14.0168 4.18881 12.6077 5.05727 11.7367L7.8731 8.91264C8.24664 8.53801 8.85316 8.53712 9.2278 8.91067C9.60243 9.28421 9.60332 9.89072 9.22978 10.2654L7.14622 12.355L12.8929 12.305L12.9133 12.3053C17.8498 12.3561 17.2173 7.88309 17.1665 5.51753Z" fill="#12131B"/>
</svg>
