<svg width="456" height="456" viewBox="0 0 456 456" fill="none" xmlns="http://www.w3.org/2000/svg">
<g filter="url(#filter0_d_1689_8)">
<path d="M216.686 283.314L124 376L156.922 407.029C172.042 422.149 161.334 448 139.952 448H27.952C14.697 448 4 437.255 4 424V312C4 290.618 29.803 279.91 44.922 295.029L76 328L168.686 235.314C174.934 229.066 185.065 229.066 191.313 235.314L216.686 260.687C222.935 266.935 222.935 277.065 216.686 283.314V283.314ZM239.314 164.686L332 72L299.078 40.971C283.958 25.851 294.666 0 316.048 0H428.048C441.303 0 452 10.745 452 24V136C452 157.382 426.197 168.09 411.078 152.971L380 120L287.314 212.686C281.066 218.934 270.935 218.934 264.687 212.686L239.314 187.313C233.065 181.065 233.065 170.935 239.314 164.686V164.686Z" fill="black"/>
</g>
<defs>
<filter id="filter0_d_1689_8" x="0" y="0" width="456" height="456" filterUnits="userSpaceOnUse" color-interpolation-filters="sRGB">
<feFlood flood-opacity="0" result="BackgroundImageFix"/>
<feColorMatrix in="SourceAlpha" type="matrix" values="0 0 0 0 0 0 0 0 0 0 0 0 0 0 0 0 0 0 127 0" result="hardAlpha"/>
<feOffset dy="4"/>
<feGaussianBlur stdDeviation="2"/>
<feComposite in2="hardAlpha" operator="out"/>
<feColorMatrix type="matrix" values="0 0 0 0 0 0 0 0 0 0 0 0 0 0 0 0 0 0 0.25 0"/>
<feBlend mode="normal" in2="BackgroundImageFix" result="effect1_dropShadow_1689_8"/>
<feBlend mode="normal" in="SourceGraphic" in2="effect1_dropShadow_1689_8" result="shape"/>
</filter>
</defs>
</svg>
