<svg width="24" height="24" viewBox="0 0 24 24" fill="none" xmlns="http://www.w3.org/2000/svg">
<path fill-rule="evenodd" clip-rule="evenodd" d="M11 19C11 19.4142 10.6642 19.75 10.25 19.75H6.5C5.25736 19.75 4.25 18.7426 4.25 17.5V13.75C4.25 13.3358 4.58579 13 5 13C5.41421 13 5.75 13.3358 5.75 13.75V17.1893L9.71968 13.2197C10.0126 12.9268 10.4874 12.9268 10.7803 13.2197C11.0732 13.5126 11.0732 13.9875 10.7803 14.2804L6.81059 18.25H10.25C10.6642 18.25 11 18.5858 11 19ZM12.5978 11.4022C12.3049 11.1093 12.3049 10.6344 12.5978 10.3415L14.1067 8.83259L17.1893 5.75H13.75C13.3358 5.75 13 5.41421 13 5C13 4.58579 13.3358 4.25 13.75 4.25H17.5C18.7426 4.25 19.75 5.25736 19.75 6.5V10.2501C19.75 10.6643 19.4142 11.0001 19 11.0001C18.5858 11.0001 18.25 10.6643 18.25 10.2501V6.81065L15.1674 9.89325L13.6584 11.4022C13.3655 11.6951 12.8907 11.6951 12.5978 11.4022Z" fill="#12131B"/>
</svg>
