<svg width="576" height="384" viewBox="0 0 576 384" fill="none" xmlns="http://www.w3.org/2000/svg">
<path d="M288 80C277.401 80.1657 266.881 81.8494 256.76 85C261.442 93.2332 263.934 102.529 264 112C264 119.354 262.552 126.636 259.737 133.43C256.923 140.225 252.798 146.398 247.598 151.598C242.398 156.798 236.225 160.923 229.43 163.737C222.636 166.552 215.354 168 208 168C198.529 167.934 189.233 165.442 181 160.76C174.504 183.288 175.261 207.289 183.164 229.362C191.067 251.436 205.714 270.464 225.032 283.75C244.349 297.037 267.358 303.909 290.798 303.392C314.238 302.876 336.921 294.998 355.635 280.873C374.348 266.749 388.144 247.094 395.066 224.694C401.989 202.293 401.689 178.283 394.207 156.063C386.725 133.843 372.442 114.54 353.381 100.889C334.319 87.2371 311.446 79.9292 288 80ZM572.52 177.4C518.29 71.59 410.93 0 288 0C165.07 0 57.68 71.64 3.48 177.41C1.19242 181.935 0.000549316 186.935 0.000549316 192.005C0.000549316 197.075 1.19242 202.075 3.48 206.6C57.71 312.41 165.07 384 288 384C410.93 384 518.32 312.36 572.52 206.59C574.808 202.065 575.999 197.065 575.999 191.995C575.999 186.925 574.808 181.925 572.52 177.4ZM288 351.5C189.35 351.5 82.84 281.005 34 192.005C82.84 103.005 189.34 33 288 33C386.66 33 492.16 102.995 541 191.995C492.17 280.995 386.66 351.5 288 351.5Z" fill="#3A2F45"/>
</svg>
