<svg width="24" height="24" viewBox="0 0 24 24" fill="none" xmlns="http://www.w3.org/2000/svg">
<path fill-rule="evenodd" clip-rule="evenodd" d="M14.8399 2.35122C15.1161 2.51136 15.2606 2.82875 15.2001 3.14218L14.088 8.9022L18.7186 10.6978C19.9506 11.1756 20.2289 12.7943 19.2271 13.6561L10.0297 21.5686C9.78773 21.7767 9.44048 21.8089 9.16434 21.6488C8.8882 21.4887 8.74369 21.1713 8.8042 20.8578L9.91624 15.0978L5.28572 13.3022C4.05364 12.8244 3.77536 11.2058 4.77714 10.3439L13.9745 2.43145C14.2165 2.22327 14.5638 2.19107 14.8399 2.35122ZM13.3186 4.97442L5.75539 11.481C5.61228 11.6042 5.65203 11.8354 5.82804 11.9036L11.0425 13.9257C11.3806 14.0569 11.5765 14.4111 11.5078 14.7672L10.6856 19.0256L18.2489 12.519C18.392 12.3959 18.3522 12.1646 18.1762 12.0964L12.9617 10.0743C12.6236 9.94316 12.4278 9.58891 12.4965 9.23284L13.3186 4.97442Z" fill="#A9A9B1"/>
</svg>
