<svg width="18" height="18" viewBox="0 0 18 18" fill="none" xmlns="http://www.w3.org/2000/svg">
<path fill-rule="evenodd" clip-rule="evenodd" d="M11.3718 0.848019C11.6502 1.00632 11.7974 1.32398 11.7381 1.63876L10.8525 6.34399L14.2653 7.70137C15.4781 8.18374 15.7551 9.77612 14.7764 10.6397L7.49731 17.0624C7.25713 17.2743 6.90888 17.3103 6.63042 17.152C6.35197 16.9937 6.20478 16.6761 6.26403 16.3613L7.14972 11.6561L3.73689 10.2987C2.52408 9.81631 2.24709 8.22392 3.2258 7.36036L10.5049 0.937643C10.7451 0.725723 11.0933 0.689718 11.3718 0.848019ZM9.86014 3.50696L4.21823 8.48511C4.07842 8.60848 4.11799 8.83596 4.29125 8.90487L8.27827 10.4906C8.61175 10.6233 8.80454 10.9736 8.73814 11.3263L8.14204 14.4931L13.7839 9.51493C13.9238 9.39156 13.8842 9.16408 13.7109 9.09517L9.72391 7.50942C9.39043 7.37679 9.19764 7.02648 9.26403 6.67378L9.86014 3.50696Z" fill="#12131B"/>
</svg>
