<svg width="24" height="24" viewBox="0 0 24 24" fill="none" xmlns="http://www.w3.org/2000/svg">
<path fill-rule="evenodd" clip-rule="evenodd" d="M5.75 5.66667C5.75 4.60812 6.60812 3.75 7.66667 3.75H12.8056V6.91667C12.8056 8.06726 13.7383 9 14.8889 9H18.25V18.3333C18.25 19.3919 17.3919 20.25 16.3333 20.25H7.66667C6.60812 20.25 5.75 19.3919 5.75 18.3333V5.66667ZM17.1417 7.5L14.3056 4.76511V6.91667C14.3056 7.23883 14.5667 7.5 14.8889 7.5H17.1417ZM7.66667 2.25C5.77969 2.25 4.25 3.77969 4.25 5.66667V18.3333C4.25 20.2203 5.77969 21.75 7.66667 21.75H16.3333C18.2203 21.75 19.75 20.2203 19.75 18.3333V8.25C19.75 8.04636 19.6672 7.85147 19.5206 7.71012L14.0762 2.46012C13.9364 2.32532 13.7497 2.25 13.5556 2.25H7.66667ZM8.25 12C8.25 11.5858 8.58579 11.25 9 11.25H12C12.4142 11.25 12.75 11.5858 12.75 12C12.75 12.4142 12.4142 12.75 12 12.75H9C8.58579 12.75 8.25 12.4142 8.25 12ZM8.25 16C8.25 15.5858 8.58579 15.25 9 15.25H15C15.4142 15.25 15.75 15.5858 15.75 16C15.75 16.4142 15.4142 16.75 15 16.75H9C8.58579 16.75 8.25 16.4142 8.25 16Z" fill="#12131B"/>
</svg>
