<svg width="50" height="50" viewBox="0 0 50 50" fill="none" xmlns="http://www.w3.org/2000/svg">
<path fill-rule="evenodd" clip-rule="evenodd" d="M8.85938 11.5477C8.85938 7.75701 11.9323 4.68408 15.723 4.68408H34.2875C38.0781 4.68408 41.151 7.75701 41.151 11.5477V38.4455C41.151 42.2362 38.0781 45.3091 34.2875 45.3091H15.723C11.9323 45.3091 8.85938 42.2362 8.85938 38.4455V11.5477ZM15.723 7.80908C13.6582 7.80908 11.9844 9.4829 11.9844 11.5477V38.4455C11.9844 40.5103 13.6582 42.1841 15.723 42.1841H34.2875C36.3522 42.1841 38.026 40.5103 38.026 38.4455V11.5477C38.026 9.4829 36.3522 7.80908 34.2875 7.80908H15.723ZM17.1927 17.7049C17.1927 16.842 17.8923 16.1424 18.7552 16.1424H31.2552C32.1182 16.1424 32.8177 16.842 32.8177 17.7049C32.8177 18.5679 32.1182 19.2674 31.2552 19.2674H18.7552C17.8923 19.2674 17.1927 18.5679 17.1927 17.7049ZM18.7552 25.5174C17.8923 25.5174 17.1927 26.217 17.1927 27.0799C17.1927 27.9429 17.8923 28.6424 18.7552 28.6424H25.0052C25.8682 28.6424 26.5677 27.9429 26.5677 27.0799C26.5677 26.217 25.8682 25.5174 25.0052 25.5174H18.7552Z" fill="#A2A3A7"/>
</svg>
