<svg width="18" height="18" viewBox="0 0 18 18" fill="none" xmlns="http://www.w3.org/2000/svg">
<path fill-rule="evenodd" clip-rule="evenodd" d="M5.25 5C5.25 4.30964 5.80964 3.75 6.5 3.75H9.25V5.5C9.25 6.4665 10.0335 7.25 11 7.25H12.75V13C12.75 13.6904 12.1904 14.25 11.5 14.25H6.5C5.80964 14.25 5.25 13.6904 5.25 13V5ZM11.6893 5.75L10.75 4.81066V5.5C10.75 5.63807 10.8619 5.75 11 5.75H11.6893ZM6.5 2.25C4.98122 2.25 3.75 3.48122 3.75 5V13C3.75 14.5188 4.98122 15.75 6.5 15.75H11.5C13.0188 15.75 14.25 14.5188 14.25 13V6.5C14.25 6.30109 14.171 6.11032 14.0303 5.96967L10.5303 2.46967C10.3897 2.32902 10.1989 2.25 10 2.25H6.5ZM6.75 9C6.75 8.58579 7.08579 8.25 7.5 8.25H9C9.41421 8.25 9.75 8.58579 9.75 9C9.75 9.41421 9.41421 9.75 9 9.75H7.5C7.08579 9.75 6.75 9.41421 6.75 9ZM6.75 12C6.75 11.5858 7.08579 11.25 7.5 11.25H10.5C10.9142 11.25 11.25 11.5858 11.25 12C11.25 12.4142 10.9142 12.75 10.5 12.75H7.5C7.08579 12.75 6.75 12.4142 6.75 12Z" fill="#12131B"/>
</svg>
