<svg width="384" height="512" viewBox="0 0 384 512" fill="none" xmlns="http://www.w3.org/2000/svg">
<g clip-path="url(#clip0_1801_2)">
<path d="M369.9 97.8999L286 13.9999C277 4.9999 264.8 -0.100098 252.1 -0.100098H48C21.5 -9.76548e-05 0 21.4999 0 47.9999V464C0 490.5 21.5 512 48 512H336C362.5 512 384 490.5 384 464V131.9C384 119.2 378.9 106.9 369.9 97.8999ZM332.1 128H256V51.8999L332.1 128ZM48 464V47.9999H208V152C208 165.3 218.7 176 232 176H336V464H48Z" fill="black"/>
</g>
<defs>
<clipPath id="clip0_1801_2">
<rect width="384" height="512" fill="white"/>
</clipPath>
</defs>
</svg>
