<svg width="18" height="18" viewBox="0 0 18 18" fill="none" xmlns="http://www.w3.org/2000/svg">
<path fill-rule="evenodd" clip-rule="evenodd" d="M2.75 4C2.75 2.48122 3.98122 1.25 5.5 1.25H12.5C14.0188 1.25 15.25 2.48122 15.25 4V14C15.25 15.5188 14.0188 16.75 12.5 16.75H5.5C3.98122 16.75 2.75 15.5188 2.75 14V4ZM5.5 2.75C4.80964 2.75 4.25 3.30964 4.25 4V14C4.25 14.6904 4.80964 15.25 5.5 15.25H12.5C13.1904 15.25 13.75 14.6904 13.75 14V4C13.75 3.30964 13.1904 2.75 12.5 2.75H5.5ZM6.25 6C6.25 5.58579 6.58579 5.25 7 5.25H11C11.4142 5.25 11.75 5.58579 11.75 6C11.75 6.41421 11.4142 6.75 11 6.75H7C6.58579 6.75 6.25 6.41421 6.25 6ZM7 8.75C6.58579 8.75 6.25 9.08579 6.25 9.5C6.25 9.91421 6.58579 10.25 7 10.25H9C9.41421 10.25 9.75 9.91421 9.75 9.5C9.75 9.08579 9.41421 8.75 9 8.75H7Z" fill="#74757A"/>
</svg>
