<?xml version="1.0" encoding="UTF-8"?>
<svg width="86px" height="86px" viewBox="0 0 86 86" version="1.1" xmlns="http://www.w3.org/2000/svg" xmlns:xlink="http://www.w3.org/1999/xlink">
    <!-- Generator: Sketch 51 (57462) - http://www.bohemiancoding.com/sketch -->
    <title>filter_filled</title>
    <desc>Created with Sketch.</desc>
    <defs></defs>
    <g id="Page-1" stroke="none" stroke-width="1" fill="none" fill-rule="evenodd">
        <g id="filter_filled" fill="#3DB995" fill-rule="nonzero">
            <g id="noun_filter_1721076_3db995">
                <path d="M79.8556872,6.15160142 C79.8556872,6.26381969 79.8454976,6.38623962 79.8353081,6.49845789 C79.8760664,6.22301305 79.9066351,5.95776987 79.9473934,5.68232503 C79.9066351,5.96797153 79.8353081,6.23321471 79.7334123,6.49845789 C79.8353081,6.25361803 79.9372038,6.00877817 80.0390995,5.76393832 C79.9473934,5.97817319 79.4990521,6.61067616 79.9881517,5.98837485 C80.385545,5.47829181 80.2938389,5.60071174 80.2123223,5.70272835 C80.1919431,5.73333333 80.171564,5.76393832 80.1409953,5.78434164 C80.02891,5.92716489 79.9270142,6.05978648 79.8149289,6.20260973 C79.3767773,6.75349941 78.9488152,7.30438909 78.5106635,7.85527877 C76.9414692,9.85480427 75.3722749,11.8441281 73.8030806,13.8436536 C71.6530806,16.567497 69.5030806,19.3015421 67.3632701,22.0253855 C65.0604265,24.9430605 62.7677725,27.8607355 60.4649289,30.7886121 C58.4473934,33.3594306 56.4196682,35.9302491 54.4021327,38.5010676 C53.0774882,40.17414 51.7630332,41.857414 50.4383886,43.5304864 C50.1734597,43.8671412 49.9085308,44.1935943 49.6537915,44.5302491 C49.6334123,44.5506524 49.6232227,44.5710558 49.6028436,44.5914591 C49.0729858,45.2749703 48.7367299,45.9074733 48.7061611,46.7950178 C48.6959716,46.9888493 48.7061611,47.1826809 48.7061611,47.3765125 C48.7061611,49.947331 48.7061611,52.5283511 48.7061611,55.0991696 C48.7061611,58.7411625 48.7061611,62.3933571 48.7061611,66.0353499 C48.7061611,68.3613286 48.7061611,70.6873072 48.7061611,73.0030842 C48.7061611,73.2581257 48.7061611,73.5029656 48.6654028,73.7580071 C48.7061611,73.4825623 48.7367299,73.2173191 48.7774882,72.9418743 C48.7367299,73.1867141 48.6654028,73.4213523 48.5736967,73.6559905 C48.6755924,73.4111507 48.7774882,73.1663108 48.8793839,72.9214709 C48.8182464,73.0540925 48.7367299,73.1765125 48.6755924,73.309134 C48.4616114,73.7580071 48.899763,73.0030842 48.899763,73.0438909 C48.8895735,73.1459075 48.6450237,73.2785291 48.5940758,73.3601423 C48.8895735,72.9112693 49.1341232,73.0030842 48.8691943,73.1459075 C48.685782,73.2479241 48.5023697,73.3295374 48.3189573,73.431554 C48.1559242,73.5131673 48.0030806,73.6151839 47.8400474,73.7069988 C47.0045024,74.1864769 46.1689573,74.6761566 45.3334123,75.1556346 C43.0815166,76.4614472 40.8296209,77.7570581 38.5879147,79.0628707 C38.0376777,79.3791222 37.5078199,79.7259786 36.9372038,80.0014235 C37.1817536,79.8994069 37.4263033,79.7973903 37.6708531,79.6953737 C37.385545,79.8177936 37.1104265,79.8892052 36.8047393,79.9402135 C37.0798578,79.8994069 37.3447867,79.8688019 37.6199052,79.8279953 C37.3549763,79.8483986 37.100237,79.8483986 36.8251185,79.8177936 C37.100237,79.8586002 37.3651659,79.8892052 37.6402844,79.9300119 C37.3651659,79.8892052 37.1206161,79.8177936 36.8658768,79.7055753 C37.1104265,79.8075919 37.3549763,79.9096085 37.5995261,80.0116251 C37.4364929,79.9402135 37.2938389,79.8483986 37.1308057,79.7565836 C36.6824645,79.5015421 37.7421801,80.3074733 37.2938389,79.8586002 C36.8454976,79.4097272 37.6606635,80.4706999 37.3957346,80.0218268 C37.3040284,79.8688019 37.2123223,79.715777 37.1409953,79.5525504 C37.242891,79.7973903 37.3447867,80.0422301 37.4466825,80.28707 C37.3447867,80.0320285 37.2734597,79.776987 37.2225118,79.5117438 C37.2632701,79.7871886 37.2938389,80.0524318 37.3345972,80.3278766 C37.2734597,79.776987 37.3040284,79.205694 37.3040284,78.6548043 C37.3040284,77.4714116 37.3040284,76.288019 37.3040284,75.1046263 C37.3040284,71.4116251 37.3040284,67.7288256 37.3040284,64.0358244 C37.3040284,60.230605 37.3040284,56.4253855 37.3040284,52.6201661 C37.3040284,50.6818505 37.3753555,48.7231317 37.3040284,46.7848161 C37.2734597,45.8972716 36.9473934,45.2647687 36.407346,44.5710558 C36.3971564,44.5506524 36.3767773,44.5302491 36.3665877,44.5200474 C36.2646919,44.3874259 36.1627962,44.2650059 36.0609005,44.1323843 C35.5921801,43.540688 35.1234597,42.93879 34.6547393,42.3470937 C32.9021327,40.1231317 31.1597156,37.8991696 29.407109,35.6752076 C27.0227488,32.655516 24.6485782,29.6256228 22.264218,26.6059312 C19.7983412,23.4740214 17.3324645,20.3421115 14.8665877,17.2102017 C12.8592417,14.6699881 10.8620853,12.119573 8.85473934,9.57935943 C7.85616114,8.3143535 6.86777251,7.04934757 5.86919431,5.7945433 C5.84881517,5.76393832 5.81824645,5.73333333 5.7978673,5.70272835 C5.7978673,5.69252669 5.78767773,5.69252669 5.78767773,5.68232503 C5.80805687,5.70272835 6.38886256,6.59027284 6.16469194,6.14139976 C6.1035545,6.00877817 6.02203791,5.88635824 5.96090047,5.75373665 C6.06279621,5.99857651 6.16469194,6.24341637 6.26658768,6.48825623 C6.16469194,6.22301305 6.09336493,5.95776987 6.05260664,5.67212337 C6.09336493,5.94756821 6.12393365,6.21281139 6.16469194,6.48825623 C6.1443128,6.23321471 6.1443128,5.97817319 6.17488152,5.72313167 C6.13412322,5.99857651 6.1035545,6.26381969 6.06279621,6.53926453 C6.1035545,6.26381969 6.17488152,6.01897983 6.28696682,5.76393832 C6.18507109,6.00877817 6.08317536,6.25361803 5.98127962,6.49845789 C6.05260664,6.33523132 6.1443128,6.19240807 6.23601896,6.02918149 C6.50094787,5.58030842 5.68578199,6.64128114 6.13412322,6.19240807 C6.58246445,5.74353499 5.52274882,6.55966785 5.97109005,6.29442467 C6.12393365,6.20260973 6.27677725,6.11079478 6.43981043,6.03938316 C6.19526066,6.14139976 5.9507109,6.24341637 5.70616114,6.34543298 C5.96090047,6.24341637 6.21563981,6.17200474 6.48056872,6.12099644 C6.20545024,6.16180308 5.94052133,6.19240807 5.66540284,6.23321471 C6.41943128,6.14139976 7.21421801,6.20260973 7.97843602,6.20260973 C9.7514218,6.20260973 11.5345972,6.20260973 13.3075829,6.20260973 C15.9670616,6.20260973 18.6265403,6.20260973 21.2758294,6.20260973 C24.5161137,6.20260973 27.7462085,6.20260973 30.9864929,6.20260973 C34.5528436,6.20260973 38.1191943,6.20260973 41.685545,6.20260973 C45.2824645,6.20260973 48.8793839,6.20260973 52.4864929,6.20260973 C55.828673,6.20260973 59.1606635,6.20260973 62.5028436,6.20260973 C65.335545,6.20260973 68.1580569,6.20260973 70.9907583,6.20260973 C73.0082938,6.20260973 75.0156398,6.20260973 77.0331754,6.20260973 C77.9706161,6.20260973 78.9080569,6.19240807 79.8454976,6.20260973 C80.0187204,6.20260973 80.1919431,6.21281139 80.3651659,6.23321471 C80.0900474,6.19240807 79.8251185,6.16180308 79.55,6.12099644 C79.8251185,6.16180308 80.0696682,6.23321471 80.3244076,6.34543298 C80.0798578,6.24341637 79.8353081,6.14139976 79.5907583,6.03938316 C79.7537915,6.11079478 79.8964455,6.20260973 80.0594787,6.29442467 C80.5078199,6.55966785 79.4481043,5.74353499 79.8964455,6.19240807 C80.3447867,6.64128114 79.5296209,5.58030842 79.7945498,6.02918149 C79.8862559,6.18220641 79.9677725,6.33523132 80.0492891,6.49845789 C79.9473934,6.25361803 79.8454976,6.00877817 79.7436019,5.76393832 C79.8454976,6.01897983 79.9168246,6.27402135 79.9677725,6.53926453 C79.9270142,6.26381969 79.8964455,5.99857651 79.8556872,5.72313167 C79.8454976,5.87615658 79.8556872,6.01897983 79.8556872,6.15160142 C79.8964455,7.75326216 81.2312796,9.28351127 82.9125592,9.21209964 C84.5327014,9.14068802 86.0101896,7.86548043 85.9694313,6.15160142 C85.8879147,2.8054567 83.2590047,0.163226572 79.9168246,0.102016607 C79.7537915,0.102016607 79.5805687,0.102016607 79.4175355,0.102016607 C78.3781991,0.102016607 77.3388626,0.102016607 76.2893365,0.102016607 C71.9791469,0.102016607 67.6689573,0.102016607 63.3587678,0.102016607 C57.3672986,0.102016607 51.3758294,0.102016607 45.3843602,0.102016607 C39.2094787,0.102016607 33.0244076,0.102016607 26.8495261,0.102016607 C21.97891,0.102016607 17.1184834,0.102016607 12.2478673,0.102016607 C10.1895735,0.102016607 8.13127962,0.0612099644 6.08317536,0.102016607 C2.79194313,0.163226572 0.183412322,2.73404508 0.0305687204,6.01897983 C-0.0407582938,7.63084223 0.631753555,8.98766311 1.59976303,10.2118624 C2.32322275,11.1300119 3.05687204,12.058363 3.78033175,12.9765125 C6.96966825,17.0367734 10.1691943,21.0868327 13.3585308,25.1470937 C17.1592417,29.9724792 20.949763,34.7876631 24.7504739,39.6130486 C27.0838863,42.5715302 29.4172986,45.5402135 31.7405213,48.4986951 C31.8526066,48.6415184 31.9646919,48.7843416 32.0767773,48.9271649 C31.7812796,48.202847 31.4755924,47.4887307 31.1800948,46.7644128 C31.1800948,48.2640569 31.1800948,49.7739027 31.1800948,51.2735469 C31.1800948,54.6911032 31.1800948,58.0984579 31.1800948,61.5160142 C31.1800948,65.1784104 31.1800948,68.8408066 31.1800948,72.5032028 C31.1800948,74.8087782 31.1800948,77.1041518 31.1800948,79.4097272 C31.1800948,81.1848161 31.6386256,82.8578885 32.9123223,84.1739027 C34.4509479,85.7857651 37.0187204,86.4386714 39.1279621,85.6837485 C39.6781991,85.489917 40.1265403,85.2552788 40.6156398,84.9696323 C43.4483412,83.3271649 46.2708531,81.6948992 49.1035545,80.0524318 C49.8779621,79.6035587 50.6421801,79.1240807 51.4267773,78.7058126 C53.6277251,77.5428233 54.8300948,75.4514828 54.8300948,72.9724792 C54.8300948,70.544484 54.8300948,68.1266904 54.8300948,65.6986951 C54.8300948,61.9852906 54.8300948,58.2718861 54.8300948,54.5584816 C54.8300948,52.0794781 54.8300948,49.6004745 54.8300948,47.1214709 C54.8300948,46.999051 54.8300948,46.8664294 54.8300948,46.7440095 C54.5345972,47.4683274 54.22891,48.1824437 53.9334123,48.9067616 C54.993128,47.5499407 56.0630332,46.2033215 57.1227488,44.8465006 C59.6395735,41.6533808 62.1563981,38.4500593 64.6732227,35.2569395 C67.6995261,31.4109134 70.7258294,27.575089 73.7521327,23.7290629 C76.2791469,20.5155397 78.8163507,17.3020166 81.3433649,14.0884935 C82.4132701,12.7316726 83.4933649,11.3748517 84.5530806,10.0078292 C85.449763,8.86524318 85.9388626,7.61043891 85.9796209,6.14139976 C86.0305687,4.53973903 84.542891,3.00948992 82.9227488,3.08090154 C81.22109,3.17271649 79.9066351,4.43772242 79.8556872,6.15160142 Z" id="Shape"></path>
            </g>
            <path d="M81.5568316,4 L8.00019155,4 C6.84608133,3.99999125 5.79428238,4.66200494 5.29513463,5.70259224 C4.79598688,6.74317954 4.93799305,7.97783634 5.66035155,8.87793 L35.0001916,45.42627 L35.0001916,80.20068 C35.0002318,81.3327712 35.6375365,82.3684368 36.6481206,82.8786822 C37.6587047,83.3889275 38.870456,83.286853 39.7814416,82.61474 L53.3380816,72.61474 C54.1047078,72.0493105 54.5570786,71.1532692 54.5568316,70.20068 L54.5568316,45.42627 L83.8966716,8.87793 C84.6190301,7.97783634 84.7610362,6.74317954 84.2618885,5.70259224 C83.7627407,4.66200494 82.7109418,3.99999125 81.5568316,4 Z" id="Shape"></path>
        </g>
    </g>
</svg>