<svg width="24" height="24" viewBox="0 0 24 24" fill="none" xmlns="http://www.w3.org/2000/svg">
<path fill-rule="evenodd" clip-rule="evenodd" d="M7.5 3.25C5.15279 3.25 3.25 5.15279 3.25 7.5C3.25 9.84721 5.15279 11.75 7.5 11.75C9.5913 11.75 11.3298 10.2395 11.684 8.25H20C20.4142 8.25 20.75 7.91421 20.75 7.5C20.75 7.08579 20.4142 6.75 20 6.75H11.684C11.3298 4.76049 9.5913 3.25 7.5 3.25ZM10.25 7.5C10.25 5.98122 9.01878 4.75 7.5 4.75C5.98122 4.75 4.75 5.98122 4.75 7.5C4.75 9.01878 5.98122 10.25 7.5 10.25C9.01878 10.25 10.25 9.01878 10.25 7.5ZM4.25 18C4.25 17.5858 4.58579 17.25 5 17.25L20 17.25C20.4142 17.25 20.75 17.5858 20.75 18C20.75 18.4142 20.4142 18.75 20 18.75L5 18.75C4.58579 18.75 4.25 18.4142 4.25 18Z" fill="#12131B"/>
</svg>
