<svg width="24" height="24" viewBox="0 0 24 24" fill="none" xmlns="http://www.w3.org/2000/svg">
<path fill-rule="evenodd" clip-rule="evenodd" d="M5.71429 5.75C5.18173 5.75 4.75 6.18173 4.75 6.71429V17.2857C4.75 17.8183 5.18173 18.25 5.71429 18.25H18.2857C18.8183 18.25 19.25 17.8183 19.25 17.2857V8.71429C19.25 8.18173 18.8183 7.75 18.2857 7.75H12C11.8011 7.75 11.6103 7.67098 11.4697 7.53033L9.97177 6.03243C9.79093 5.85159 9.54566 5.75 9.28992 5.75H5.71429ZM3.25 6.71429C3.25 5.3533 4.3533 4.25 5.71429 4.25H9.28992C9.94349 4.25 10.5703 4.50963 11.0324 4.97177L12.3107 6.25H18.2857C19.6467 6.25 20.75 7.3533 20.75 8.71429V17.2857C20.75 18.6467 19.6467 19.75 18.2857 19.75H5.71429C4.3533 19.75 3.25 18.6467 3.25 17.2857V6.71429Z" fill="#12131B"/>
</svg>
