<svg width="18" height="18" viewBox="0 0 18 18" fill="none" xmlns="http://www.w3.org/2000/svg">
<path fill-rule="evenodd" clip-rule="evenodd" d="M6.26048 14.75H4.45808C2.81908 14.75 1.79154 12.9794 2.60472 11.5563L3.1683 10.57L3.1683 8.46153V8.46114C3.1693 6.53218 3.88418 5.02773 5.00288 4.01141C5.91614 3.18173 7.06795 2.70454 8.24883 2.56365V2C8.24883 1.58579 8.58461 1.25 8.99883 1.25C9.41304 1.25 9.74883 1.58579 9.74883 2V2.56419C10.9289 2.70586 12.0796 3.1835 12.9917 4.01331C14.1089 5.02977 14.8221 6.53373 14.8221 8.46153V10.5697L15.3861 11.5548C16.2009 12.9778 15.1735 14.75 13.5337 14.75H11.7379C11.6112 16.1512 10.4334 17.2491 8.99918 17.2491C7.56498 17.2491 6.38721 16.1512 6.26048 14.75ZM7.77437 14.75C7.89054 15.3201 8.39476 15.7491 8.99918 15.7491C9.60361 15.7491 10.1078 15.3201 10.224 14.75H7.77437ZM4.45808 13.25L13.5337 13.25C14.0212 13.25 14.3266 12.7231 14.0844 12.3001L13.4213 11.1419C13.3563 11.0284 13.3221 10.9 13.3221 10.7692V8.46153C13.3221 6.92882 12.7674 5.83714 11.9822 5.12283C11.1846 4.39715 10.1027 4.01967 8.99852 4.01923C7.89366 4.01878 6.81046 4.39584 6.01152 5.12166C5.2251 5.8361 4.6691 6.92832 4.6683 8.46192L4.6683 10.7692C4.6683 10.8997 4.63424 11.028 4.56948 11.1413L3.90708 12.3005C3.66533 12.7236 3.97081 13.25 4.45808 13.25ZM11.4787 6.92353C11.1605 6.65836 10.6875 6.70135 10.4224 7.01956L8.64044 9.15787L7.83655 8.35398C7.54366 8.06109 7.06878 8.06109 6.77589 8.35398C6.483 8.64688 6.483 9.12175 6.77589 9.41464L8.16051 10.7993C8.30951 10.9483 8.51432 11.0277 8.72482 11.0182C8.93533 11.0086 9.1321 10.9109 9.267 10.7491L11.5747 7.97984C11.8399 7.66163 11.7969 7.1887 11.4787 6.92353Z" fill="#12131B"/>
</svg>
