<svg width="24" height="24" viewBox="0 0 24 24" fill="none" xmlns="http://www.w3.org/2000/svg">
<path fill-rule="evenodd" clip-rule="evenodd" d="M8.58437 19.4141H5.94411C3.95072 19.4141 2.70102 17.2606 3.69001 15.5299L4.4744 14.1572L4.4744 11.2794V11.279C4.4757 8.77299 5.40239 6.83577 6.83862 5.53098C8.07059 4.41176 9.64378 3.78782 11.2484 3.64056V2.66406C11.2484 2.24985 11.5842 1.91406 11.9984 1.91406C12.4126 1.91406 12.7484 2.24985 12.7484 2.66406V3.64111C14.352 3.78949 15.9237 4.41403 17.154 5.5334C18.5883 6.83832 19.5129 8.77488 19.5129 11.2794V14.1568L20.2979 15.528C21.2888 17.2587 20.0392 19.4141 18.0449 19.4141H15.4157C15.3715 21.2625 13.8592 22.7474 12 22.7474C10.1409 22.7474 8.62861 21.2625 8.58437 19.4141ZM10.0852 19.4141C10.1288 20.4339 10.9694 21.2474 12 21.2474C13.0307 21.2474 13.8713 20.4339 13.9149 19.4141H10.0852ZM5.94411 17.9141L18.0449 17.9141C18.8869 17.9141 19.4145 17.004 18.9961 16.2733L18.112 14.729C18.047 14.6156 18.0129 14.4871 18.0129 14.3564V11.2794C18.0129 9.16998 17.2467 7.64569 16.1446 6.64292C15.0299 5.62877 13.5252 5.10698 11.9981 5.10637C10.4701 5.10575 8.96371 5.62695 7.84725 6.64123C6.74332 7.64414 5.9755 9.16913 5.9744 11.2798L5.9744 14.3564C5.9744 14.4869 5.94033 14.6151 5.87558 14.7285L4.99238 16.2741C4.5748 17.0048 5.10246 17.9141 5.94411 17.9141ZM15.1468 9.42123C14.8286 9.15606 14.3557 9.19905 14.0905 9.51726L11.5394 12.5786L10.274 11.3132C9.98107 11.0203 9.50619 11.0203 9.2133 11.3132C8.92041 11.6061 8.92041 12.081 9.2133 12.3739L11.0595 14.22C11.2085 14.369 11.4133 14.4485 11.6238 14.4389C11.8343 14.4294 12.031 14.3317 12.1659 14.1698L15.2429 10.4775C15.508 10.1593 15.4651 9.6864 15.1468 9.42123Z" fill="#12131B"/>
</svg>
