<svg width="24" height="24" viewBox="0 0 24 24" fill="none" xmlns="http://www.w3.org/2000/svg">
<path fill-rule="evenodd" clip-rule="evenodd" d="M2.25 7.54305C2.25 5.72354 3.72501 4.24854 5.54452 4.24854H18.4555C20.275 4.24854 21.75 5.72354 21.75 7.54305V16.454C21.75 18.2735 20.275 19.7485 18.4555 19.7485H5.54452C3.72501 19.7485 2.25 18.2735 2.25 16.454V7.54305ZM5.54452 5.74854C4.55343 5.74854 3.75 6.55197 3.75 7.54305V16.454C3.75 17.4451 4.55343 18.2485 5.54452 18.2485H18.4555C19.4466 18.2485 20.25 17.4451 20.25 16.454V7.54305C20.25 6.55197 19.4466 5.74854 18.4555 5.74854H5.54452Z" fill="#12131B"/>
<path d="M16 11L16 8.99993C16 8.44766 15.5523 7.99995 15 7.99995H13M8.66667 15.3333L11 13M15.3333 8.66667L13.5069 10.4931L12.6446 11.3553M11 16H8.99998C8.44771 16 8 15.5523 8 15V13" stroke="#12131B" stroke-width="0.999984" stroke-linecap="round" stroke-linejoin="round"/>
</svg>
