<svg width="24" height="24" viewBox="0 0 24 24" fill="none" xmlns="http://www.w3.org/2000/svg">
<path fill-rule="evenodd" clip-rule="evenodd" d="M11.7447 2.25328C6.47793 2.38864 2.25 6.70058 2.25 12C2.25 17.2994 6.47791 21.6113 11.7447 21.7467C11.7808 21.7501 11.8173 21.7509 11.8541 21.749C11.8543 21.749 11.8545 21.749 11.8547 21.7489C11.903 21.7496 11.9515 21.75 12 21.75C17.3848 21.75 21.75 17.3848 21.75 12C21.75 6.61522 17.3848 2.25 12 2.25C11.9515 2.25 11.903 2.25035 11.8547 2.25106C11.8476 2.25068 11.8405 2.25041 11.8334 2.25023C11.8036 2.24949 11.774 2.25053 11.7447 2.25328ZM10.2814 3.92927C6.78772 4.66958 4.11066 7.62097 3.78363 11.25H7.94247C8.07598 8.8447 8.82798 6.75841 9.56942 5.24199C9.81369 4.74241 10.0581 4.30198 10.2814 3.92927ZM3.78363 12.75C4.11066 16.379 6.78772 19.3304 10.2814 20.0707C10.0581 19.698 9.81369 19.2576 9.56942 18.758C8.82798 17.2416 8.07598 15.1553 7.94247 12.75H3.78363ZM13.3108 20.1464C17.0129 19.5554 19.8933 16.5015 20.2192 12.7174C20.1499 12.7386 20.0763 12.75 20 12.75H15.7044C15.6212 15.0289 15.1593 16.6893 14.5451 18.0197C14.1689 18.8347 13.7279 19.5327 13.3108 20.1464ZM20.2192 11.2826C19.8952 7.52122 17.0474 4.48131 13.3774 3.86448C13.7755 4.44081 14.187 5.10901 14.5474 5.90494C15.1603 7.25845 15.6214 8.96354 15.7045 11.25H20C20.0763 11.25 20.1499 11.2614 20.2192 11.2826ZM13.181 6.52364C13.7033 7.67736 14.1218 9.17339 14.2034 11.25L9.44507 11.25C9.57677 9.1383 10.2417 7.28189 10.917 5.90087C11.2423 5.23544 11.5673 4.68603 11.8301 4.27848C12.2991 4.91952 12.773 5.62263 13.181 6.52364ZM10.917 18.0991C10.2417 16.7181 9.57677 14.8617 9.44507 12.75L14.2034 12.75C14.1216 14.8146 13.704 16.263 13.1832 17.391C12.7635 18.3003 12.2872 18.9933 11.8059 19.6839C11.5475 19.2804 11.2324 18.7443 10.917 18.0991Z" fill="#12131B"/>
</svg>
