<svg width="24" height="24" viewBox="0 0 24 24" fill="none" xmlns="http://www.w3.org/2000/svg">
<path fill-rule="evenodd" clip-rule="evenodd" d="M14.6812 4C14.6812 4.41421 15.017 4.75 15.4312 4.75H18.1919L11.4723 11.4697C11.1794 11.7626 11.1794 12.2374 11.4723 12.5303C11.7652 12.8232 12.24 12.8232 12.5329 12.5303L19.2526 5.81066V8.57143C19.2526 8.98564 19.5884 9.32143 20.0026 9.32143C20.4168 9.32143 20.7526 8.98564 20.7526 8.57143V4C20.7526 3.58579 20.4168 3.25 20.0026 3.25H15.4312C15.017 3.25 14.6812 3.58579 14.6812 4ZM6.08594 7.32029C6.08594 6.63714 6.63974 6.08333 7.3229 6.08333H10.7905C11.2047 6.08333 11.5405 5.74755 11.5405 5.33333C11.5405 4.91912 11.2047 4.58333 10.7905 4.58333H7.3229C5.81132 4.58333 4.58594 5.80871 4.58594 7.32029V16.6797C4.58594 18.1913 5.81131 19.4167 7.3229 19.4167H16.6823C18.1939 19.4167 19.4193 18.1913 19.4193 16.6797V13.2121C19.4193 12.7979 19.0835 12.4621 18.6693 12.4621C18.2551 12.4621 17.9193 12.7979 17.9193 13.2121V16.6797C17.9193 17.3629 17.3655 17.9167 16.6823 17.9167H7.3229C6.63974 17.9167 6.08594 17.3629 6.08594 16.6797V7.32029Z" fill="#12131B"/>
</svg>
