<svg fill="#3DB995" xmlns="http://www.w3.org/2000/svg" xmlns:xlink="http://www.w3.org/1999/xlink" version="1.1" x="0px" y="0px" viewBox="0 0 100 100" enable-background="new 0 0 100 100" xml:space="preserve"><path d="M57.2,39v-5.3c0-2.7-2.2-4.9-4.9-4.9H26.1c-2.7,0-4.9,2.2-4.9,4.9v32.4c0,2.7,2.2,4.9,4.9,4.9h26.2c2.7,0,4.9-2.2,4.9-4.9  V61c0-0.9,0.7-1.6,1.6-1.6s1.6,0.7,1.6,1.6v5.3c0,4.5-3.6,8.1-8.1,8.1H26.1c-4.5,0-8.1-3.6-8.1-8.1V33.8c0-4.5,3.6-8.1,8.1-8.1h26.2  c4.5,0,8.1,3.6,8.1,8.1V39c0,0.9-0.7,1.6-1.6,1.6S57.2,39.9,57.2,39z M81.5,48.9l-11-11c-0.6-0.6-1.6-0.6-2.3,0  c-0.6,0.6-0.6,1.6,0,2.3l8.2,8.2h-30c-0.9,0-1.6,0.7-1.6,1.6s0.7,1.6,1.6,1.6h30l-8.2,8.2c-0.6,0.6-0.6,1.6,0,2.3  c0.3,0.3,0.7,0.5,1.1,0.5s0.8-0.2,1.1-0.5l11-11C82.2,50.5,82.2,49.5,81.5,48.9z"></path></svg>