<svg width="18" height="18" viewBox="0 0 18 18" fill="none" xmlns="http://www.w3.org/2000/svg">
<path fill-rule="evenodd" clip-rule="evenodd" d="M1 14C1 14.4142 1.33579 14.75 1.75 14.75C2.16421 14.75 2.5 14.4142 2.5 14L2.5 9.75H7.25V14C7.25 14.4142 7.58579 14.75 8 14.75C8.41421 14.75 8.75 14.4142 8.75 14V9.0006C8.75 9.0004 8.75 9.0002 8.75 9C8.75 8.9998 8.75 8.9996 8.75 8.9994V4C8.75 3.58579 8.41421 3.25 8 3.25C7.58579 3.25 7.25 3.58579 7.25 4V8.25H2.5L2.5 4C2.5 3.58579 2.16421 3.25 1.75 3.25C1.33579 3.25 1 3.58579 1 4L1 9V14ZM15 5.25C15 4.14543 14.1046 3.25 13 3.25H12.375C11.9608 3.25 11.625 3.58579 11.625 4C11.625 4.41421 11.9608 4.75 12.375 4.75H13C13.2761 4.75 13.5 4.97386 13.5 5.25V14C13.5 14.4142 13.8358 14.75 14.25 14.75C14.6642 14.75 15 14.4142 15 14V5.25Z" fill="#12131B"/>
</svg>
