<svg width="18" height="18" viewBox="0 0 18 18" fill="none" xmlns="http://www.w3.org/2000/svg">
<path fill-rule="evenodd" clip-rule="evenodd" d="M0.75 14C0.75 14.4142 1.08579 14.75 1.5 14.75C1.91421 14.75 2.25 14.4142 2.25 14L2.25 9.75H7V14C7 14.4142 7.33579 14.75 7.75 14.75C8.16421 14.75 8.5 14.4142 8.5 14V9.0006L8.5 9V8.9994V4C8.5 3.58579 8.16421 3.25 7.75 3.25C7.33579 3.25 7 3.58579 7 4V8.25H2.25L2.25 4C2.25 3.58579 1.91421 3.25 1.5 3.25C1.08579 3.25 0.75 3.58579 0.75 4L0.75 9V14ZM15.25 4.75C15.5261 4.75 15.75 4.97386 15.75 5.25V7.75C15.75 8.02614 15.5261 8.25 15.25 8.25H12.75C11.6454 8.25 10.75 9.14543 10.75 10.25V12.75C10.75 13.8546 11.6454 14.75 12.75 14.75H16.5C16.9142 14.75 17.25 14.4142 17.25 14C17.25 13.5858 16.9142 13.25 16.5 13.25H12.75C12.4739 13.25 12.25 13.0261 12.25 12.75V10.25C12.25 9.97386 12.4739 9.75 12.75 9.75H15.25C16.3546 9.75 17.25 8.85457 17.25 7.75V5.25C17.25 4.14543 16.3546 3.25 15.25 3.25H11.5C11.0858 3.25 10.75 3.58579 10.75 4C10.75 4.41421 11.0858 4.75 11.5 4.75H15.25Z" fill="#12131B"/>
</svg>
