<?xml version="1.0" encoding="utf-8"?>
<!-- Generator: Adobe Illustrator 19.1.0, SVG Export Plug-In . SVG Version: 6.00 Build 0)  -->
<svg version="1.1" xmlns="http://www.w3.org/2000/svg" xmlns:xlink="http://www.w3.org/1999/xlink" x="0px" y="0px" width="24px"
	 height="24px" viewBox="0 0 24 24" enable-background="new 0 0 24 24" xml:space="preserve">
<g id="Header_x2F_BG" display="none">
	<rect x="-402" y="-270" display="inline" fill="#3EB995" width="520" height="520"/>
</g>
<g id="Bounding_Boxes">
	<g id="ui_x5F_spec_x5F_header_copy_3" display="none">
	</g>
	<path fill="none" d="M0,0h24v24H0V0z"/>
</g>
<g id="Rounded">
	<g id="ui_x5F_spec_x5F_header_copy_5" display="none">
	</g>
	<path d="M4,15h16c0.55,0,1-0.45,1-1v0c0-0.55-0.45-1-1-1H4c-0.55,0-1,0.45-1,1v0C3,14.55,3.45,15,4,15z M4,19h16c0.55,0,1-0.45,1-1
		v0c0-0.55-0.45-1-1-1H4c-0.55,0-1,0.45-1,1v0C3,18.55,3.45,19,4,19z M4,11h16c0.55,0,1-0.45,1-1v0c0-0.55-0.45-1-1-1H4
		c-0.55,0-1,0.45-1,1v0C3,10.55,3.45,11,4,11z M3,6L3,6c0,0.55,0.45,1,1,1h16c0.55,0,1-0.45,1-1v0c0-0.55-0.45-1-1-1H4
		C3.45,5,3,5.45,3,6z"/>
</g>
<g fill="#3EB995" id="Sharp" display="none">
	<g fill="#3EB995" id="ui_x5F_spec_x5F_header_copy_4">
	</g>
	<path fill="#3EB995" display="inline" d="M3,15h18v-2H3V15z M3,19h18v-2H3V19z M3,11h18V9H3V11z M3,5v2h18V5H3z"/>
</g>
<g fill="#3EB995" id="Outline" display="none">
	<g fill="#3EB995" id="ui_x5F_spec_x5F_header">
	</g>
	<path fill="#3EB995" display="inline" d="M3,15h18v-2H3V15z M3,19h18v-2H3V19z M3,11h18V9H3V11z M3,5v2h18V5H3z"/>
</g>
<g fill="#3EB995" id="Duotone" display="none">
	<g fill="#3EB995" id="ui_x5F_spec_x5F_header_copy_2">
	</g>
	<path fill="#3EB995" display="inline" d="M3,15h18v-2H3V15z M3,19h18v-2H3V19z M3,11h18V9H3V11z M3,5v2h18V5H3z"/>
</g>
<g fill="#3EB995" id="Material" display="none">
	<g fill="#3EB995" id="ui_x5F_spec_x5F_header_copy">
	</g>
	<path fill="#3EB995" display="inline" d="M3,15h18v-2H3V15z M3,19h18v-2H3V19z M3,11h18V9H3V11z M3,5v2h18V5H3z"/>
</g>
</svg>
