<svg width="24" height="24" viewBox="0 0 24 24" fill="none" xmlns="http://www.w3.org/2000/svg">
<path fill-rule="evenodd" clip-rule="evenodd" d="M12.0051 4.88617C14.2287 2.7107 17.8811 2.71608 20.0918 4.91783C22.3107 7.12768 22.2973 10.8158 20.0842 13.0199L20.0832 13.0208L12.8885 20.1596L12.5283 20.5259C12.3869 20.6697 12.1934 20.7505 11.9916 20.75C11.7898 20.7495 11.5967 20.6676 11.456 20.523L11.1021 20.1592L11.101 20.1581L3.9183 13.0046C1.70209 10.7974 1.68829 7.11972 3.91065 4.9064C6.12675 2.69931 9.7825 2.70318 12.0051 4.88617ZM11.9958 18.9323L4.97679 11.9418C3.34574 10.3174 3.33897 7.59276 4.96914 5.96922C6.60594 4.33908 9.33687 4.34558 10.9748 5.97684L11.4758 6.47583C11.7685 6.76728 12.2417 6.76728 12.5343 6.47583L13.0277 5.98446C14.664 4.35475 17.3976 4.35158 19.0333 5.98065C20.6598 7.60054 20.6536 10.335 19.0264 11.9563C19.0262 11.9566 19.0259 11.9568 19.0257 11.957L11.9958 18.9323Z" fill="#12131B"/>
</svg>
