<svg width="24" height="24" viewBox="0 0 24 24" fill="none" xmlns="http://www.w3.org/2000/svg">
<path fill-rule="evenodd" clip-rule="evenodd" d="M1.91406 11.9974C1.91406 6.42852 6.42852 1.91406 11.9974 1.91406C17.5663 1.91406 22.0807 6.42852 22.0807 11.9974C22.0807 17.5663 17.5663 22.0807 11.9974 22.0807C6.42852 22.0807 1.91406 17.5663 1.91406 11.9974ZM11.9974 3.41406C7.25695 3.41406 3.41406 7.25695 3.41406 11.9974C3.41406 16.7378 7.25695 20.5807 11.9974 20.5807C16.7378 20.5807 20.5807 16.7378 20.5807 11.9974C20.5807 7.25695 16.7378 3.41406 11.9974 3.41406ZM8.58073 9.9974C8.58073 8.11042 10.1104 6.58073 11.9974 6.58073C13.8844 6.58073 15.4141 8.11042 15.4141 9.9974C15.4141 11.6263 14.2741 12.989 12.7484 13.3313L12.7487 13.4975C12.7493 13.9117 12.4141 14.2481 11.9999 14.2487C11.5857 14.2493 11.2493 13.9141 11.2487 13.4999L11.2474 12.6652C11.2471 12.4661 11.326 12.2751 11.4667 12.1341C11.6073 11.9932 11.7983 11.9141 11.9974 11.9141C13.0559 11.9141 13.9141 11.0559 13.9141 9.9974C13.9141 8.93885 13.0559 8.08073 11.9974 8.08073C10.9389 8.08073 10.0807 8.93885 10.0807 9.9974C10.0807 10.4116 9.74494 10.7474 9.33073 10.7474C8.91652 10.7474 8.58073 10.4116 8.58073 9.9974ZM12 17C11.4477 17 11 16.5523 11 16C11 15.4477 11.4477 15 12 15C12.5523 15 13 15.4477 13 16C13 16.5523 12.5523 17 12 17Z" fill="#12131B"/>
</svg>
