<svg width="22" height="22" viewBox="0 0 22 22" fill="none" xmlns="http://www.w3.org/2000/svg">
<path d="M8.33266 8.25016C8.54818 7.63753 8.97355 7.12093 9.53345 6.79187C10.0934 6.46281 10.7517 6.34252 11.3917 6.45232C12.0318 6.56211 12.6124 6.89489 13.0307 7.39173C13.4489 7.88857 13.6778 8.51739 13.6768 9.16683C13.6768 11.0002 10.9268 11.9168 10.9268 11.9168M11.0002 15.5835H11.0093M20.1668 11.0002C20.1668 16.0628 16.0628 20.1668 11.0002 20.1668C5.93755 20.1668 1.8335 16.0628 1.8335 11.0002C1.8335 5.93755 5.93755 1.8335 11.0002 1.8335C16.0628 1.8335 20.1668 5.93755 20.1668 11.0002Z" stroke="#96A0B5" stroke-width="2" stroke-linecap="round" stroke-linejoin="round"/>
</svg>
