<svg fill="#3EB995" xmlns="http://www.w3.org/2000/svg" xmlns:xlink="http://www.w3.org/1999/xlink" xmlns:sketch="http://www.bohemiancoding.com/sketch/ns" viewBox="0 0 86 86" version="1.1" x="0px" y="0px"><title>Slice 1 Copy 90</title><desc>Created with Sketch.</desc><g stroke="none" stroke-width="1" fill="none" fill-rule="evenodd" sketch:type="MSPage"><g sketch:type="MSLayerGroup" transform="translate(14.000000, 16.000000)" fill="#3EB995"><path d="M28.3,0.6 C13.8,0.6 2,12.4 2,26.9 C2,31 3.8,36.1 3.9,36.3 C4.1,36.7 4.1,37.8 4,38.2 L0.8,48.8 C0.4,50.2 0.6,51.5 1.3,52.6 C2,53.6 3.2,54.1 4.4,54.1 C4.9,54.1 5.3,54 5.8,53.9 L16,50.8 C16.1,50.8 16.3,50.7 16.7,50.7 C17.2,50.7 17.7,50.8 17.8,50.8 C18,50.9 23.7,53.1 28.3,53.1 C42.8,53.1 54.6,41.3 54.6,26.8 C54.5,12.4 42.7,0.6 28.3,0.6 L28.3,0.6 Z M28.3,50.1 C24.2,50.1 19,48 19,48 C18.4,47.8 17.6,47.6 16.8,47.6 C16.2,47.6 15.7,47.7 15.2,47.8 L5,50.9 C4.8,51 4.6,51 4.5,51 C3.8,51 3.4,50.4 3.7,49.6 L6.9,39 C7.2,37.9 7.2,36.2 6.8,35.2 C6.8,35.2 5.1,30.5 5.1,26.8 C5.1,14 15.5,3.5 28.4,3.5 C41.3,3.5 51.7,13.9 51.7,26.8 C51.7,39.7 41.1,50.1 28.3,50.1 L28.3,50.1 Z" sketch:type="MSShapeGroup"></path><path d="M27.1,34.7 C26.7,35.1 26.5,35.6 26.5,36.1 C26.5,36.6 26.7,37.1 27.1,37.5 C27.5,37.9 28,38.1 28.5,38.1 C29,38.1 29.5,37.9 29.9,37.5 C30.3,37.1 30.5,36.6 30.5,36.1 C30.5,35.6 30.3,35.1 29.9,34.7 C29.2,34 27.8,34 27.1,34.7 L27.1,34.7 Z" sketch:type="MSShapeGroup"></path><path d="M28.5,17 C24.9,17 21.9,19.9 21.9,23.6 C21.9,24.7 22.8,25.6 23.9,25.6 C25,25.6 25.9,24.7 25.9,23.6 C25.9,22.2 27,21 28.5,21 C29.9,21 31.1,22.1 31.1,23.6 C31.1,25 30,26.2 28.5,26.2 C27.4,26.2 26.5,27.1 26.5,28.2 L26.5,28.4 L26.5,28.6 L26.5,31 C26.5,32.1 27.4,33 28.5,33 C29.6,33 30.5,32.1 30.5,31 L30.5,30 C33.1,29.2 35.1,26.7 35.1,23.8 C35.1,19.9 32.1,17 28.5,17 L28.5,17 Z" sketch:type="MSShapeGroup"></path></g></g></svg>