<svg width="18" height="18" viewBox="0 0 18 18" fill="none" xmlns="http://www.w3.org/2000/svg">
<path fill-rule="evenodd" clip-rule="evenodd" d="M1.25 9C1.25 4.71979 4.71979 1.25 9 1.25C13.2802 1.25 16.75 4.71979 16.75 9C16.75 13.2802 13.2802 16.75 9 16.75C4.71979 16.75 1.25 13.2802 1.25 9ZM9 2.75C5.54822 2.75 2.75 5.54822 2.75 9C2.75 12.4518 5.54822 15.25 9 15.25C12.4518 15.25 15.25 12.4518 15.25 9C15.25 5.54822 12.4518 2.75 9 2.75ZM6.25 7.5C6.25 5.98122 7.48122 4.75 9 4.75C10.5188 4.75 11.75 5.98122 11.75 7.5C11.75 9.01878 10.5188 10.25 9 10.25C8.58579 10.25 8.25 9.91421 8.25 9.5C8.25 9.08579 8.58579 8.75 9 8.75C9.69036 8.75 10.25 8.19036 10.25 7.5C10.25 6.80964 9.69036 6.25 9 6.25C8.30964 6.25 7.75 6.80964 7.75 7.5C7.75 7.91421 7.41421 8.25 7 8.25C6.58579 8.25 6.25 7.91421 6.25 7.5ZM9 13C8.44772 13 8 12.5523 8 12C8 11.4477 8.44772 11 9 11C9.55228 11 10 11.4477 10 12C10 12.5523 9.55228 13 9 13Z" fill="#12131B"/>
</svg>
