<svg width="591" height="586" viewBox="0 0 591 586" fill="none" xmlns="http://www.w3.org/2000/svg">
<path d="M147.575 301.134C148.452 297.87 150.144 295.104 152.283 293.073L179.104 268.955L335.564 433.787L310.908 464.213C306.914 468.894 301.275 470.256 296.402 468.687C296.401 468.687 296.4 468.687 296.399 468.686L249.97 453.717L234.997 448.889L224.166 460.3L187.044 499.408L116.968 425.582L155.964 384.491L165.827 374.099L161.846 360.336L147.669 311.317C147.669 311.316 147.669 311.316 147.669 311.316C146.714 308.015 146.68 304.462 147.575 301.134ZM556.659 160.979L389.966 366.67L242.822 211.645L439.978 34.2946L440.127 34.1606L440.274 34.0242C453.801 21.4582 473.86 22.0436 486.736 35.6088L555.396 107.943C568.878 122.146 569.636 145.478 556.915 160.668L556.786 160.823L556.659 160.979ZM112.596 545.427L101.416 557.205L44.4507 537.973L74.5148 505.308L112.596 545.427Z" fill="#3A2F45" stroke="#3A2F45" stroke-width="50"/>
</svg>
