<svg width="15" height="20" viewBox="0 0 15 20" fill="none" xmlns="http://www.w3.org/2000/svg">
<g clip-path="url(#clip0)">
<path d="M12.0239 8.46087L3.04942 5.87324L4.59265 0.349679L3.37988 0L1.66454 6.13957C1.63894 6.23211 1.63417 6.32933 1.6506 6.42399L2.63617 12.2773L1.90758 14.8851C1.87419 15.0147 1.88169 15.1518 1.92903 15.2769C1.97636 15.402 2.06114 15.5089 2.17142 15.5824L1.20762 19.0321C1.16197 19.1955 1.18208 19.3706 1.26352 19.5189C1.34497 19.6672 1.48107 19.7766 1.64189 19.8229L1.8036 19.8696L6.52526 19.8553C6.66345 19.8562 6.79811 19.811 6.90852 19.7266C7.01893 19.6422 7.09897 19.5232 7.13632 19.388L7.75017 17.1909C7.88205 17.1872 8.00945 17.1415 8.11442 17.0603C8.21938 16.9791 8.29663 16.8665 8.33527 16.7384L9.06386 14.1306L12.9294 9.67601C12.9923 9.60422 13.0385 9.51896 13.0646 9.42656L14.7799 3.28698L13.5672 2.9373L12.0239 8.46087ZM7.29461 15.7727L3.29246 14.6188L3.84894 12.627L7.85109 13.7809L7.29461 15.7727Z" fill="#444444"/>
</g>
<defs>
<clipPath id="clip0">
<rect width="15" height="20" fill="white"/>
</clipPath>
</defs>
</svg>
