<svg width="24" height="24" viewBox="0 0 24 24" fill="none" xmlns="http://www.w3.org/2000/svg">
<path fill-rule="evenodd" clip-rule="evenodd" d="M6.66667 2.58594C4.77969 2.58594 3.25 4.11563 3.25 6.0026V7.33594C3.25 9.22291 4.77969 10.7526 6.66667 10.7526H17.3333C19.2203 10.7526 20.75 9.22291 20.75 7.33594V6.0026C20.75 4.11563 19.2203 2.58594 17.3333 2.58594H6.66667ZM4.75 6.0026C4.75 4.94406 5.60812 4.08594 6.66667 4.08594H17.3333C18.3919 4.08594 19.25 4.94406 19.25 6.0026V7.33594C19.25 8.39448 18.3919 9.2526 17.3333 9.2526H6.66667C5.60812 9.2526 4.75 8.39448 4.75 7.33594V6.0026ZM6.66667 13.2526C4.77969 13.2526 3.25 14.7823 3.25 16.6693V18.0026C3.25 19.8896 4.7797 21.4193 6.66667 21.4193H12C13.887 21.4193 15.4167 19.8896 15.4167 18.0026V16.6693C15.4167 14.7823 13.887 13.2526 12 13.2526H6.66667ZM4.75 16.6693C4.75 15.6107 5.60812 14.7526 6.66667 14.7526H12C13.0585 14.7526 13.9167 15.6107 13.9167 16.6693V18.0026C13.9167 19.0611 13.0585 19.9193 12 19.9193H6.66667C5.60812 19.9193 4.75 19.0611 4.75 18.0026V16.6693Z" fill="#12131B"/>
</svg>
