<svg width="18" height="18" viewBox="0 0 18 18" fill="none" xmlns="http://www.w3.org/2000/svg">
<path fill-rule="evenodd" clip-rule="evenodd" d="M5 1.75C3.48122 1.75 2.25 2.98122 2.25 4.5V5.5C2.25 7.01878 3.48122 8.25 5 8.25H13C14.5188 8.25 15.75 7.01878 15.75 5.5V4.5C15.75 2.98122 14.5188 1.75 13 1.75H5ZM3.75 4.5C3.75 3.80964 4.30964 3.25 5 3.25H13C13.6904 3.25 14.25 3.80964 14.25 4.5V5.5C14.25 6.19036 13.6904 6.75 13 6.75H5C4.30964 6.75 3.75 6.19036 3.75 5.5V4.5ZM5 9.75C3.48122 9.75 2.25 10.9812 2.25 12.5V13.5C2.25 15.0188 3.48122 16.25 5 16.25H9C10.5188 16.25 11.75 15.0188 11.75 13.5V12.5C11.75 10.9812 10.5188 9.75 9 9.75H5ZM3.75 12.5C3.75 11.8096 4.30964 11.25 5 11.25H9C9.69036 11.25 10.25 11.8096 10.25 12.5V13.5C10.25 14.1904 9.69036 14.75 9 14.75H5C4.30964 14.75 3.75 14.1904 3.75 13.5V12.5Z" fill="#12131B"/>
</svg>
