<svg width="24" height="24" viewBox="0 0 24 24" fill="none" xmlns="http://www.w3.org/2000/svg">
<path fill-rule="evenodd" clip-rule="evenodd" d="M2.25 12C2.25 6.61522 6.61522 2.25 12 2.25C17.3848 2.25 21.75 6.61522 21.75 12C21.75 17.3848 17.3848 21.75 12 21.75C11.5858 21.75 11.25 21.4142 11.25 21C11.25 20.5858 11.5858 20.25 12 20.25C16.5563 20.25 20.25 16.5563 20.25 12C20.25 7.44365 16.5563 3.75 12 3.75C7.44365 3.75 3.75 7.44365 3.75 12C3.75 14.7878 5.13251 17.2536 7.25195 18.7477V16.499C7.25195 16.0848 7.58774 15.749 8.00195 15.749C8.41617 15.749 8.75195 16.0848 8.75195 16.499V19.499C8.75195 20.4655 7.96845 21.249 7.00195 21.249H4.00195C3.58774 21.249 3.25195 20.9132 3.25195 20.499C3.25195 20.0848 3.58774 19.749 4.00195 19.749H6.08196C3.75355 17.9681 2.25 15.16 2.25 12ZM12 6.1875C12.4142 6.1875 12.75 6.52329 12.75 6.9375V11.25H17.0625C17.4767 11.25 17.8125 11.5858 17.8125 12C17.8125 12.4142 17.4767 12.75 17.0625 12.75H12C11.5858 12.75 11.25 12.4142 11.25 12V6.9375C11.25 6.52329 11.5858 6.1875 12 6.1875Z" fill="#12131B"/>
</svg>
