<svg width="17" height="25" viewBox="0 0 17 25" fill="none" xmlns="http://www.w3.org/2000/svg">
<path d="M11.1506 22.7156C10.6509 23.8938 9.9638 25 8.49895 25C6.74596 25 6.00446 23.9078 5.51685 22.7156L5.5 21.5H11.1506V22.1078V22.7156Z" fill="#667BCC"/>
<path d="M5.51658 19.2726H11.1524C11.3216 18.8725 11.4707 18.4644 11.6218 18.0884H5.0874C5.22039 18.4704 5.35539 18.8765 5.51658 19.2726Z" fill="#667BCC"/>
<path d="M12.551 16.6265C14.979 15.1403 17 12.4779 17 9.43736C17 4.77861 13.1938 1 8.49899 1C3.8042 1 0 4.77861 0 9.43736C0 12.3498 1.89001 14.9182 4.15076 16.4345C4.58801 16.7265 4.83584 17.3606 5.08771 18.0868H11.6201C11.8841 17.4306 12.1521 16.8706 12.551 16.6265Z" fill="#667BCC"/>
<path d="M3.43188 18.0884V19.2726H5.51734C5.35615 18.8765 5.22115 18.4704 5.08816 18.0884H3.43188Z" fill="#667BCC"/>
<path d="M13.1398 19.2726V18.0884H11.6226C11.4714 18.4644 11.3223 18.8725 11.1531 19.2726H13.1398Z" fill="#667BCC"/>
<path d="M6.7682 18.6467C7.41903 16.4872 7.62052 14.3146 7.53589 12.075C7.49559 11.0157 7.29007 9.51143 5.89372 9.28431C4.80364 9.10745 3.96543 10.1891 4.6364 11.0417C5.00917 11.5146 5.63984 11.6747 6.23425 11.7659C7.01604 11.887 7.80992 11.9279 8.60179 11.9409C9.35135 11.954 10.113 11.9968 10.8625 11.9838C11.3099 11.9763 11.7552 11.8758 12.0493 11.5388C12.5611 10.9524 12.3778 9.76276 11.6705 9.35505C10.6973 8.79468 9.41381 9.53005 9.13978 10.4348C8.95239 11.0511 9.02291 11.725 9.04306 12.358C9.06523 13.0524 9.09344 13.7449 9.12165 14.4375C9.18209 15.8672 9.2506 17.2989 9.28486 18.7305C9.29292 19.0898 9.8974 19.0898 9.88934 18.7305C9.84702 16.8819 9.74628 15.0332 9.67575 13.1845C9.64553 12.3635 9.47224 11.3806 9.7221 10.5838C9.88128 10.0755 10.3084 9.77393 10.8807 9.76276C11.3965 9.75159 11.6121 10.0085 11.7028 10.4572C11.9325 11.5872 10.7195 11.4141 9.91553 11.3936C8.65821 11.362 7.38276 11.4253 6.14156 11.1851C5.68618 11.0976 4.81372 10.8276 4.99708 10.2338C5.19454 9.59149 6.08313 9.83351 6.42163 10.191C6.79843 10.5894 6.87701 11.1479 6.91126 11.6542C6.95156 12.2351 6.95156 12.8178 6.94149 13.3986C6.92537 14.3444 6.90723 15.2789 6.7279 16.2098C6.5788 16.9768 6.41156 17.7475 6.18589 18.4978C6.08111 18.8441 6.66343 18.993 6.7682 18.6467Z" fill="white"/>
</svg>
