<svg width="18" height="18" viewBox="0 0 18 18" fill="none" xmlns="http://www.w3.org/2000/svg">
<path fill-rule="evenodd" clip-rule="evenodd" d="M1.75 4.5C1.75 2.98122 2.98122 1.75 4.5 1.75H13.5C15.0188 1.75 16.25 2.98122 16.25 4.5V11.4913V11.51V13.5C16.25 15.0188 15.0188 16.25 13.5 16.25H4.5C2.98122 16.25 1.75 15.0188 1.75 13.5V4.5ZM14.75 4.5V10.0426L12.4359 8.3897C12.1854 8.21077 11.851 8.20308 11.5926 8.37032L3.27541 13.752C3.25875 13.6706 3.25 13.5863 3.25 13.5V4.5C3.25 3.80964 3.80964 3.25 4.5 3.25H13.5C14.1904 3.25 14.75 3.80964 14.75 4.5ZM4.5 14.75L4.49423 14.75L11.9792 9.9068L14.75 11.886V13.5C14.75 14.1904 14.1904 14.75 13.5 14.75H4.5ZM7 4.25C5.75736 4.25 4.75 5.25736 4.75 6.5C4.75 7.74264 5.75736 8.75 7 8.75C8.24264 8.75 9.25 7.74264 9.25 6.5C9.25 5.25736 8.24264 4.25 7 4.25ZM6.25 6.5C6.25 6.08579 6.58579 5.75 7 5.75C7.41421 5.75 7.75 6.08579 7.75 6.5C7.75 6.91421 7.41421 7.25 7 7.25C6.58579 7.25 6.25 6.91421 6.25 6.5Z" fill="#12131B"/>
</svg>
