<svg width="24" height="24" viewBox="0 0 24 24" fill="none" xmlns="http://www.w3.org/2000/svg">
<path fill-rule="evenodd" clip-rule="evenodd" d="M9.53055 5.02962C9.82332 4.7366 9.82312 4.26173 9.53011 3.96896C9.23709 3.67619 8.76222 3.67639 8.46945 3.96941L5.46945 6.97193C5.32885 7.11265 5.24992 7.30344 5.25 7.50236C5.25008 7.70127 5.32918 7.892 5.46989 8.03259L8.46989 11.0301C8.76291 11.3228 9.23778 11.3226 9.53055 11.0296C9.82332 10.7366 9.82312 10.2617 9.53011 9.96896L7.81174 8.25204H18C18.4142 8.25204 18.75 7.91625 18.75 7.50204C18.75 7.08783 18.4142 6.75204 18 6.75204H7.80958L9.53055 5.02962ZM15.5302 12.9691C15.2373 12.6762 14.7624 12.6763 14.4696 12.9693C14.1767 13.2622 14.1768 13.7371 14.4698 14.0299L16.1891 15.7486H6C5.58579 15.7486 5.25 16.0844 5.25 16.4986C5.25 16.9129 5.58579 17.2486 6 17.2486H16.1898L14.4696 18.9692C14.1767 19.2622 14.1768 19.737 14.4697 20.0299C14.7627 20.3228 15.2375 20.3227 15.5304 20.0298L18.5306 17.0289C18.6712 16.8882 18.7502 16.6974 18.7502 16.4985C18.7501 16.2996 18.6711 16.1089 18.5304 15.9682L15.5302 12.9691Z" fill="#12131B"/>
</svg>
