<svg width="24" height="24" viewBox="0 0 24 24" fill="none" xmlns="http://www.w3.org/2000/svg">
<path fill-rule="evenodd" clip-rule="evenodd" d="M7.9167 3.33594C7.9167 2.92172 8.25248 2.58594 8.6667 2.58594H15.3334C15.7476 2.58594 16.0834 2.92172 16.0834 3.33594V12.5859H20C20.3034 12.5859 20.5769 12.7687 20.6929 13.0489C20.809 13.3292 20.7449 13.6518 20.5304 13.8663L13.4732 20.9235C12.6596 21.7371 11.3405 21.7371 10.5269 20.9235L3.4697 13.8663C3.2552 13.6518 3.19103 13.3292 3.30712 13.0489C3.42321 12.7687 3.69668 12.5859 4.00003 12.5859H7.9167V3.33594ZM9.4167 4.08594V13.3359C9.4167 13.7502 9.08091 14.0859 8.6667 14.0859H5.81069L11.5876 19.8628C11.8154 20.0906 12.1847 20.0906 12.4125 19.8628L18.1894 14.0859H15.3334C14.9191 14.0859 14.5834 13.7502 14.5834 13.3359V4.08594H9.4167Z" fill="#12131B"/>
</svg>
