<svg fill="#3EB995" xmlns="http://www.w3.org/2000/svg" xmlns:xlink="http://www.w3.org/1999/xlink" version="1.1" x="0px" y="0px" viewBox="0 0 100 100" enable-background="new 0 0 100 100" xml:space="preserve"><path d="M50,95c24.854,0,45-20.147,45-45S74.854,5,50,5S5,25.147,5,50S25.146,95,50,95z M52.5,20.75c4.143,0,7.5,3.358,7.5,7.5  s-3.357,7.5-7.5,7.5s-7.5-3.358-7.5-7.5S48.357,20.75,52.5,20.75z M50,39.25c7.5,0,9.319,4.425,8.479,9.884L55,71.75  c0,0,2.5,0,7.5-2.5c0,0-2.5,10-12.5,10c-7.5,0-9.319-4.425-8.479-9.884L45,46.75c0,0-2.5,0-7.5,2.5C37.5,49.25,40,39.25,50,39.25z"></path></svg>