<svg fill="#3EB995" xmlns="http://www.w3.org/2000/svg" xmlns:xlink="http://www.w3.org/1999/xlink" version="1.1" x="0px" y="0px" viewBox="0 0 100 100" style="enable-background:new 0 0 100 100;" xml:space="preserve"><g><path d="M50,7C26.3,7,7,26.3,7,50c0,23.7,19.3,43,43,43c23.7,0,43-19.3,43-43C93,26.3,73.7,7,50,7z M50,87c-20.4,0-37-16.6-37-37   c0-20.4,16.6-37,37-37c20.4,0,37,16.6,37,37C87,70.4,70.4,87,50,87z"></path><path d="M50,41c-1.7,0-3,1.3-3,3v23c0,1.7,1.3,3,3,3s3-1.3,3-3V44C53,42.3,51.7,41,50,41z"></path><path d="M50,30c-2.2,0-4,1.8-4,4s1.8,4,4,4s4-1.8,4-4S52.2,30,50,30z"></path></g></svg>