<svg width="19" height="18" viewBox="0 0 19 18" fill="none" xmlns="http://www.w3.org/2000/svg">
<path fill-rule="evenodd" clip-rule="evenodd" d="M1.75 8.99902C1.75 4.71882 5.21979 1.24902 9.5 1.24902C13.7802 1.24902 17.25 4.71882 17.25 8.99902C17.25 13.2792 13.7802 16.749 9.5 16.749C5.21979 16.749 1.75 13.2792 1.75 8.99902ZM9.5 2.74902C6.04822 2.74902 3.25 5.54724 3.25 8.99902C3.25 12.4508 6.04822 15.249 9.5 15.249C12.9518 15.249 15.75 12.4508 15.75 8.99902C15.75 5.54724 12.9518 2.74902 9.5 2.74902ZM9.5 8.24902C9.91421 8.24902 10.25 8.58481 10.25 8.99902V11.999C10.25 12.4132 9.91421 12.749 9.5 12.749C9.08579 12.749 8.75 12.4132 8.75 11.999V8.99902C8.75 8.58481 9.08579 8.24902 9.5 8.24902ZM9.5 7.49902C8.94772 7.49902 8.5 7.05131 8.5 6.49902C8.5 5.94674 8.94772 5.49902 9.5 5.49902C10.0523 5.49902 10.5 5.94674 10.5 6.49902C10.5 7.05131 10.0523 7.49902 9.5 7.49902Z" fill="#6AE394"/>
</svg>
