<svg width="24" height="24" viewBox="0 0 24 24" fill="none" xmlns="http://www.w3.org/2000/svg">
<path fill-rule="evenodd" clip-rule="evenodd" d="M1.91406 11.9974C1.91406 6.42852 6.42852 1.91406 11.9974 1.91406C17.5663 1.91406 22.0807 6.42852 22.0807 11.9974C22.0807 17.5663 17.5663 22.0807 11.9974 22.0807C6.42852 22.0807 1.91406 17.5663 1.91406 11.9974ZM11.9974 3.41406C7.25695 3.41406 3.41406 7.25695 3.41406 11.9974C3.41406 16.7378 7.25695 20.5807 11.9974 20.5807C16.7378 20.5807 20.5807 16.7378 20.5807 11.9974C20.5807 7.25695 16.7378 3.41406 11.9974 3.41406ZM12 16.75C11.5858 16.75 11.25 16.4142 11.25 16V11.5013C11.25 11.0871 11.5858 10.7513 12 10.7513C12.4142 10.7513 12.75 11.0871 12.75 11.5013V16C12.75 16.4142 12.4142 16.75 12 16.75ZM12 7C12.5523 7 13 7.44772 13 8C13 8.55228 12.5523 9 12 9C11.4477 9 11 8.55228 11 8C11 7.44772 11.4477 7 12 7Z" fill="#12131B"/>
</svg>
