<svg width="1504" height="1504" viewBox="0 0 1504 1504" fill="none" xmlns="http://www.w3.org/2000/svg">
<path fill-rule="evenodd" clip-rule="evenodd" d="M1504 1488V15.999V-0.000976562H1488H15.999H-0.000976562V15.999V1488V1504H15.999H1488H1504V1488Z" fill="#424242"/>
<path fill-rule="evenodd" clip-rule="evenodd" d="M870.65 1124.16V379.838C870.65 346.112 872.37 318.896 875.774 298.15C878.912 279.018 883.242 265.937 888.732 258.88L888.693 258.849C897.671 247.333 909.398 238.635 923.863 232.792C938.998 226.677 957.296 223.604 978.752 223.604H1020.5H1036.51V207.604V175.997V159.997H1020.5H526.707H510.707V175.997V207.604V223.604H526.707H567.591C580.009 223.604 592.017 225.085 603.605 228.078C615.271 231.091 626.699 235.623 637.888 241.701C645.252 246.012 651.316 250.659 656.065 255.645C660.452 260.251 663.718 265.184 665.862 270.435C668.958 278.437 671.363 291.291 673.049 308.967C674.8 327.307 675.693 350.94 675.693 379.838V1124.16C675.693 1158.05 674.043 1185.4 670.776 1206.15C667.76 1225.3 663.61 1238.38 658.356 1245.31L658.374 1245.32C649.424 1256.88 637.696 1265.59 623.197 1271.43C607.91 1277.6 589.373 1280.68 567.591 1280.68H526.707H510.707V1296.69V1328V1344H526.707H1020.5H1036.51V1328V1296.69V1280.68H1020.5H978.752C966.469 1280.68 954.602 1279.14 943.149 1276.1C931.483 1273 920.126 1268.34 909.083 1262.16L909.071 1262.18C901.515 1257.91 895.278 1253.26 890.371 1248.23C885.899 1243.65 882.599 1238.76 880.48 1233.56C877.385 1225.56 874.98 1212.71 873.293 1195.03C871.543 1176.69 870.65 1153.06 870.65 1124.16V1124.16Z" fill="#FFFFFE"/>
</svg>
