<svg width="24" height="24" viewBox="0 0 24 24" fill="none" xmlns="http://www.w3.org/2000/svg">
<path fill-rule="evenodd" clip-rule="evenodd" d="M9.53055 5.03011C9.82332 4.73709 9.82312 4.26222 9.53011 3.96945C9.23709 3.67668 8.76222 3.67688 8.46945 3.96989L5.46945 6.97242C5.32885 7.11313 5.24992 7.30393 5.25 7.50285C5.25008 7.70176 5.32918 7.89249 5.46989 8.03308L8.46989 11.0306C8.76291 11.3233 9.23778 11.3231 9.53055 11.0301C9.82332 10.7371 9.82312 10.2622 9.53011 9.96945L7.81174 8.25253H18C18.4142 8.25253 18.75 7.91674 18.75 7.50253C18.75 7.08832 18.4142 6.75253 18 6.75253H7.80958L9.53055 5.03011ZM15.5302 12.9696C15.2373 12.6767 14.7624 12.6768 14.4696 12.9698C14.1767 13.2627 14.1768 13.7376 14.4698 14.0304L16.1891 15.7491H6C5.58579 15.7491 5.25 16.0849 5.25 16.4991C5.25 16.9133 5.58579 17.2491 6 17.2491H16.1898L14.4696 18.9697C14.1767 19.2627 14.1768 19.7375 14.4697 20.0304C14.7627 20.3233 15.2375 20.3232 15.5304 20.0303L18.5306 17.0294C18.6712 16.8887 18.7502 16.6979 18.7502 16.499C18.7501 16.3001 18.6711 16.1093 18.5304 15.9687L15.5302 12.9696Z" fill="#12131B"/>
</svg>
