<svg width="18" height="18" viewBox="0 0 18 18" fill="none" xmlns="http://www.w3.org/2000/svg">
<path fill-rule="evenodd" clip-rule="evenodd" d="M9.00007 2.75C8.03357 2.75 7.25007 3.5335 7.25007 4.5C7.25007 5.4665 8.03357 6.25 9.00007 6.25C9.96657 6.25 10.7501 5.4665 10.7501 4.5C10.7501 3.5335 9.96657 2.75 9.00007 2.75ZM5.75007 4.5C5.75007 2.70507 7.20514 1.25 9.00007 1.25C10.795 1.25 12.2501 2.70507 12.2501 4.5C12.2501 6.29493 10.795 7.75 9.00007 7.75C7.20514 7.75 5.75007 6.29493 5.75007 4.5ZM4.31418 10.1397C5.30627 9.43107 6.83181 8.75 9.00011 8.75C11.1684 8.75 12.694 9.43107 13.686 10.1397C14.1784 10.4914 14.5339 10.8458 14.77 11.1182C14.8881 11.2545 14.9768 11.3708 15.0381 11.4566C15.0688 11.4996 15.0928 11.5351 15.1102 11.5617C15.1189 11.575 15.126 11.5862 15.1315 11.595L15.1385 11.6064L15.1412 11.6107L15.1423 11.6125L15.1428 11.6134C15.143 11.6137 15.1432 11.6141 14.5001 12L15.1432 11.6141C15.3563 11.9693 15.2412 12.43 14.886 12.6431C14.5323 12.8553 14.0741 12.742 13.8598 12.3905L13.8544 12.3821C13.8479 12.3722 13.8357 12.3539 13.8175 12.3285C13.7812 12.2777 13.7215 12.1986 13.6365 12.1006C13.4663 11.9042 13.1968 11.6336 12.8142 11.3603C12.0563 10.8189 10.8318 10.25 9.00011 10.25C7.16842 10.25 5.94396 10.8189 5.18604 11.3603C4.8034 11.6336 4.53391 11.9042 4.36376 12.1006C4.27877 12.1986 4.21898 12.2777 4.18268 12.3285C4.16454 12.3539 4.15233 12.3722 4.14581 12.3821L4.14045 12.3905C3.92614 12.742 3.46789 12.8553 3.11424 12.6431C2.75906 12.43 2.64388 11.9693 2.85699 11.6141L3.50011 12C2.85699 11.6141 2.85722 11.6137 2.85746 11.6134L2.85795 11.6125L2.85906 11.6107L2.86171 11.6064L2.86877 11.595C2.87427 11.5862 2.88135 11.575 2.89006 11.5617C2.90747 11.5351 2.93139 11.4996 2.96208 11.4566C3.02343 11.3708 3.11208 11.2545 3.23022 11.1182C3.46632 10.8458 3.82183 10.4914 4.31418 10.1397ZM9.00006 11.25C9.41427 11.25 9.75006 11.5858 9.75006 12V13.25H11.0001C11.4143 13.25 11.7501 13.5858 11.7501 14C11.7501 14.4142 11.4143 14.75 11.0001 14.75H9.75006V16C9.75006 16.4142 9.41427 16.75 9.00006 16.75C8.58584 16.75 8.25006 16.4142 8.25006 16V14.75H7.00006C6.58584 14.75 6.25006 14.4142 6.25006 14C6.25006 13.5858 6.58584 13.25 7.00006 13.25H8.25006V12C8.25006 11.5858 8.58584 11.25 9.00006 11.25Z" fill="#12131B"/>
</svg>
