<svg width="24" height="24" viewBox="0 0 24 24" fill="none" xmlns="http://www.w3.org/2000/svg">
<path fill-rule="evenodd" clip-rule="evenodd" d="M11.9975 3.41406C10.5708 3.41406 9.41421 4.57066 9.41421 5.9974C9.41421 7.42413 10.5708 8.58073 11.9975 8.58073C13.4243 8.58073 14.5809 7.42413 14.5809 5.9974C14.5809 4.57066 13.4243 3.41406 11.9975 3.41406ZM7.91421 5.9974C7.91421 3.74223 9.74238 1.91406 11.9975 1.91406C14.2527 1.91406 16.0809 3.74223 16.0809 5.9974C16.0809 8.25256 14.2527 10.0807 11.9975 10.0807C9.74238 10.0807 7.91421 8.25256 7.91421 5.9974ZM5.89495 13.7204C7.1787 12.8035 9.16258 11.9141 11.9975 11.9141C14.8325 11.9141 16.8164 12.8035 18.1001 13.7204C18.7383 14.1763 19.198 14.6348 19.5018 14.9854C19.6538 15.1607 19.7672 15.3096 19.8448 15.4182C19.8837 15.4726 19.9136 15.517 19.935 15.5497C19.9457 15.5661 19.9543 15.5796 19.9607 15.59L19.9689 15.6032L19.9718 15.608L19.973 15.6099L19.9735 15.6107C19.9738 15.6111 19.974 15.6115 19.3309 15.9974L19.974 15.6115C20.1871 15.9667 20.0719 16.4274 19.7168 16.6405C19.3627 16.853 18.9037 16.7392 18.6898 16.3866L18.6897 16.3865L18.6892 16.3857L18.6792 16.3702C18.6687 16.3541 18.6505 16.3269 18.6242 16.2901C18.5716 16.2165 18.4871 16.1049 18.3683 15.9678C18.1304 15.6933 17.7568 15.3185 17.2283 14.941C16.1787 14.1913 14.4959 13.4141 11.9975 13.4141C9.49918 13.4141 7.81639 14.1913 6.76681 14.941C6.23833 15.3185 5.86468 15.6933 5.62681 15.9678C5.50797 16.1049 5.42345 16.2165 5.37087 16.2901C5.34459 16.3269 5.32636 16.3541 5.31585 16.3702L5.30588 16.3857L5.30535 16.3865L5.30531 16.3866C5.09131 16.7392 4.63241 16.853 4.27834 16.6405C3.92316 16.4274 3.80798 15.9667 4.02109 15.6115L4.66421 15.9974C4.02109 15.6115 4.02132 15.6111 4.02156 15.6107L4.02208 15.6099L4.02325 15.608L4.02617 15.6032L4.03435 15.59C4.04083 15.5796 4.0494 15.5661 4.0601 15.5497C4.0815 15.517 4.11144 15.4726 4.15027 15.4182C4.22789 15.3096 4.34129 15.1607 4.49328 14.9854C4.79708 14.6348 5.25676 14.1763 5.89495 13.7204ZM11.9988 15.2474C12.4131 15.2474 12.7488 15.5832 12.7488 15.9974V17.9141H14.6655C15.0797 17.9141 15.4155 18.2498 15.4155 18.6641C15.4155 19.0783 15.0797 19.4141 14.6655 19.4141H12.7488V21.3307C12.7488 21.7449 12.4131 22.0807 11.9988 22.0807C11.5846 22.0807 11.2488 21.7449 11.2488 21.3307V19.4141H9.33218C8.91797 19.4141 8.58218 19.0783 8.58218 18.6641C8.58218 18.2498 8.91797 17.9141 9.33218 17.9141H11.2488V15.9974C11.2488 15.5832 11.5846 15.2474 11.9988 15.2474Z" fill="#12131B"/>
</svg>
