<svg width="18" height="18" viewBox="0 0 18 18" fill="none" xmlns="http://www.w3.org/2000/svg">
<path fill-rule="evenodd" clip-rule="evenodd" d="M6.25 3.5C6.25 3.08579 6.58579 2.75 7 2.75H10H13C13.4142 2.75 13.75 3.08579 13.75 3.5C13.75 3.91421 13.4142 4.25 13 4.25H10.6259L8.89866 13.75H11C11.4142 13.75 11.75 14.0858 11.75 14.5C11.75 14.9142 11.4142 15.25 11 15.25H8H5C4.58579 15.25 4.25 14.9142 4.25 14.5C4.25 14.0858 4.58579 13.75 5 13.75H7.37407L9.10134 4.25H7C6.58579 4.25 6.25 3.91421 6.25 3.5Z" fill="#12131B"/>
</svg>
