<svg width="24" height="25" viewBox="0 0 24 25" fill="none" xmlns="http://www.w3.org/2000/svg">
<path fill-rule="evenodd" clip-rule="evenodd" d="M16 4C13.2386 4 11 6.23858 11 9C11 11.7614 13.2386 14 16 14C18.7614 14 21 11.7614 21 9C21 6.23858 18.7614 4 16 4ZM12.5789 9C12.5789 7.11061 14.1106 5.57895 16 5.57895C17.8894 5.57895 19.4211 7.11061 19.4211 9C19.4211 10.8894 17.8894 12.4211 16 12.4211C14.1106 12.4211 12.5789 10.8894 12.5789 9Z" fill="#12131B"/>
<path d="M4.78576 20.4665C4.45319 20.1377 4.57626 19.474 5.06064 18.9841L12.077 11.8884C12.5614 11.3985 13.2236 11.268 13.5562 11.5969C13.8888 11.9257 13.7657 12.5894 13.2813 13.0792L6.26497 20.175C5.78059 20.6648 5.11833 20.7954 4.78576 20.4665Z" fill="#12131B"/>
<path d="M7.63594 18.2812C7.26094 17.9063 6.65625 17.9063 6.28125 18.2812C5.90625 18.6562 5.90625 19.2609 6.28125 19.6359L7.04062 20.3953C7.41562 20.7703 8.02031 20.7703 8.39531 20.3953C8.77031 20.0203 8.77031 19.4156 8.39531 19.0406L7.63594 18.2812Z" fill="black"/>
<path d="M9.63594 16.2812C9.26094 15.9063 8.65625 15.9063 8.28125 16.2812C7.90625 16.6562 7.90625 17.2609 8.28125 17.6359L9.04062 18.3953C9.41562 18.7703 10.0203 18.7703 10.3953 18.3953C10.7703 18.0203 10.7703 17.4156 10.3953 17.0406L9.63594 16.2812Z" fill="black"/>
</svg>
