<svg width="24" height="24" viewBox="0 0 24 24" fill="none" xmlns="http://www.w3.org/2000/svg">
<path fill-rule="evenodd" clip-rule="evenodd" d="M13.3519 5.10502C14.473 3.98396 16.2906 3.98397 17.4117 5.10502L18.9112 6.60455C20.0322 7.72561 20.0322 9.54321 18.9112 10.6643L17.4117 12.1638C17.1188 12.4567 16.6439 12.4567 16.351 12.1638C16.0581 11.8709 16.0581 11.396 16.351 11.1031L17.8505 9.60361C18.3858 9.06833 18.3858 8.20049 17.8505 7.66521L16.351 6.16568C15.8157 5.63041 14.9479 5.63041 14.4126 6.16568L10.6638 9.9145C10.1285 10.4498 10.1285 11.3176 10.6638 11.8529L11.7884 12.9775C12.0813 13.2704 12.0813 13.7453 11.7884 14.0382C11.4955 14.3311 11.0207 14.3311 10.7278 14.0382L9.60313 12.9136C8.48207 11.7925 8.48207 9.9749 9.60313 8.85384L13.3519 5.10502ZM12.2278 9.97801C12.5207 9.68512 12.9955 9.68512 13.2884 9.97801L14.4131 11.1027C15.5341 12.2237 15.5341 14.0413 14.4131 15.1624L10.6643 18.9112C9.54321 20.0322 7.72561 20.0322 6.60455 18.9112L5.10502 17.4117C3.98396 16.2906 3.98397 14.473 5.10502 13.3519L6.60455 11.8524C6.89745 11.5595 7.37232 11.5595 7.66521 11.8524C7.95811 12.1453 7.95811 12.6202 7.66521 12.9131L6.16568 14.4126C5.63041 14.9479 5.63041 15.8157 6.16568 16.351L7.66521 17.8505C8.20049 18.3858 9.06833 18.3858 9.60361 17.8505L13.3524 14.1017C13.8877 13.5664 13.8877 12.6986 13.3524 12.1633L12.2278 11.0387C11.9349 10.7458 11.9349 10.2709 12.2278 9.97801Z" fill="#12131B"/>
</svg>
