<svg width="14" height="14" viewBox="0 0 14 14" fill="none" xmlns="http://www.w3.org/2000/svg">
<g clip-path="url(#clip0_5_2540)">
<path d="M5.7579 7.62198C6.02465 7.97896 6.36498 8.27434 6.75581 8.48808C7.14663 8.70182 7.57881 8.82892 8.02302 8.86077C8.46724 8.89261 8.91309 8.82846 9.33036 8.67265C9.74762 8.51684 10.1265 8.27302 10.4414 7.95774L12.3048 6.0924C12.8706 5.50606 13.1836 4.72075 13.1766 3.90561C13.1695 3.09047 12.8428 2.31072 12.267 1.7343C11.6912 1.15789 10.9122 0.830931 10.0979 0.823848C9.28357 0.816765 8.49905 1.13012 7.9133 1.69643L6.84491 2.75967M8.24251 6.37842C7.97575 6.02144 7.63542 5.72606 7.24459 5.51232C6.85377 5.29858 6.42159 5.17148 5.97738 5.13963C5.53317 5.10779 5.08731 5.17194 4.67004 5.32775C4.25278 5.48356 3.87387 5.72738 3.55901 6.04266L1.69556 7.908C1.12982 8.49434 0.816772 9.27965 0.823848 10.0948C0.830924 10.9099 1.15755 11.6897 1.73339 12.2661C2.30922 12.8425 3.08819 13.1695 3.90251 13.1766C4.71683 13.1836 5.50135 12.8703 6.08711 12.304L7.14928 11.2407" stroke="#96A0B5" stroke-width="2" stroke-linecap="round" stroke-linejoin="round"/>
</g>
<defs>
<clipPath id="clip0_5_2540">
<rect width="14" height="14" fill="white"/>
</clipPath>
</defs>
</svg>
