<svg width="16" height="16" viewBox="0 0 16 16" fill="none" xmlns="http://www.w3.org/2000/svg">
<path d="M6.58021 8.71083C6.88507 9.11881 7.27402 9.45639 7.72068 9.70066C8.16734 9.94494 8.66125 10.0902 9.16892 10.1266C9.6766 10.163 10.1862 10.0897 10.663 9.9116C11.1399 9.73353 11.5729 9.45488 11.9328 9.09456L14.0624 6.96275C14.709 6.29264 15.0668 5.39514 15.0587 4.46355C15.0506 3.53196 14.6773 2.64082 14.0192 1.98206C13.3611 1.3233 12.4709 0.949636 11.5402 0.941541C10.6096 0.933445 9.71296 1.29157 9.04352 1.93878L7.82251 3.15391M9.41976 7.28963C9.1149 6.88165 8.72595 6.54407 8.27929 6.2998C7.83263 6.05552 7.33872 5.91026 6.83105 5.87387C6.32337 5.83747 5.81382 5.91079 5.33695 6.08886C4.86007 6.26693 4.42703 6.54557 4.0672 6.9059L1.93753 9.03771C1.29097 9.70782 0.933209 10.6053 0.941296 11.5369C0.949383 12.4685 1.32267 13.3596 1.98077 14.0184C2.63887 14.6772 3.52911 15.0508 4.45976 15.0589C5.39042 15.067 6.28702 14.7089 6.95645 14.0617L8.17036 12.8465" stroke="#96A0B5" stroke-width="1.5" stroke-linecap="round" stroke-linejoin="round"/>
</svg>
