<svg width="10" height="10" viewBox="0 0 10 10" fill="none" xmlns="http://www.w3.org/2000/svg">
<path d="M5.79026 3.47318C6.84946 4.53349 6.83493 6.23343 5.79664 7.27748C5.79469 7.27961 5.79238 7.28192 5.79026 7.28404L4.59892 8.47538C3.54817 9.52613 1.83866 9.52599 0.788064 8.47538C-0.262688 7.4248 -0.262688 5.7151 0.788064 4.66452L1.44589 4.0067C1.62033 3.83225 1.92075 3.94819 1.92976 4.19472C1.94125 4.5089 1.99759 4.82455 2.10155 5.12937C2.13676 5.23259 2.1116 5.34676 2.03448 5.42387L1.80247 5.65588C1.30562 6.15273 1.29004 6.96174 1.782 7.46345C2.27881 7.97011 3.09541 7.97312 3.59604 7.47249L4.78737 6.28133C5.28715 5.78156 5.28506 4.97375 4.78737 4.47607C4.72176 4.41058 4.65567 4.3597 4.60404 4.32416C4.56752 4.29908 4.53737 4.26581 4.51599 4.22701C4.4946 4.18821 4.48258 4.14495 4.48089 4.10067C4.47387 3.91334 4.54024 3.7203 4.68827 3.57227L5.06152 3.199C5.1594 3.10112 5.31294 3.0891 5.42644 3.16831C5.55642 3.25907 5.67816 3.36109 5.79026 3.47318V3.47318ZM8.28878 0.974534C7.23819 -0.0760758 5.52868 -0.0762176 4.47793 0.974534L3.28659 2.16587C3.28446 2.168 3.28216 2.1703 3.28021 2.17243C2.24194 3.21648 2.22738 4.91642 3.28659 5.97673C3.39868 6.08882 3.52042 6.19083 3.65039 6.28158C3.76389 6.36079 3.91745 6.34875 4.01531 6.25089L4.38856 5.87763C4.53659 5.7296 4.60296 5.53655 4.59594 5.34922C4.59425 5.30495 4.58223 5.26169 4.56084 5.22289C4.53946 5.18408 4.50931 5.15082 4.47278 5.12574C4.42116 5.09019 4.35507 5.03931 4.28946 4.97382C3.79177 4.47614 3.78968 3.66834 4.28946 3.16856L5.48079 1.9774C5.98142 1.47677 6.798 1.47979 7.29483 1.98644C7.78679 2.48815 7.77123 3.29716 7.27436 3.79401L7.04235 4.02602C6.96523 4.10314 6.94007 4.21731 6.97528 4.32052C7.07924 4.62534 7.13558 4.94099 7.14707 5.25517C7.15609 5.5017 7.4565 5.61764 7.63094 5.4432L8.28877 4.78537C9.33953 3.73482 9.33953 2.02511 8.28878 0.974534V0.974534Z" fill="#3A2F45"/>
</svg>
