<svg width="20" height="20" viewBox="0 0 20 20" fill="none" xmlns="http://www.w3.org/2000/svg">
<path d="M9.72234 5.0823C9.72234 5.1464 9.65824 5.1464 9.65824 5.1464H9.59413C9.53003 5.1464 9.53003 5.0823 9.46593 5.01819C9.46593 5.01819 9.40183 4.95409 9.40183 4.88999C9.40183 4.82589 9.40183 4.82589 9.46593 4.82589L9.59413 4.88999C9.65824 4.95409 9.72234 5.01819 9.72234 5.0823ZM8.5685 4.44128C8.5685 4.12077 8.4403 3.92846 8.24799 3.92846C8.24799 3.92846 8.24799 3.99256 8.18389 3.99256V4.12077H8.37619C8.37619 4.24897 8.4403 4.31307 8.4403 4.44128H8.5685ZM10.8121 4.12077C10.9403 4.12077 11.0044 4.24897 11.0685 4.44128H11.1967C11.1326 4.37717 11.1326 4.31307 11.1326 4.24897C11.1326 4.18487 11.1326 4.12077 11.0685 4.05666C11.0044 3.99256 10.9403 3.92846 10.8762 3.92846C10.8762 3.92846 10.8121 3.99256 10.748 3.99256C10.748 4.05666 10.8121 4.05666 10.8121 4.12077ZM8.88901 5.1464C8.82491 5.1464 8.82491 5.1464 8.82491 5.0823C8.82491 5.01819 8.82491 4.95409 8.88901 4.88999C9.01721 4.88999 9.08132 4.82589 9.08132 4.82589C9.14542 4.82589 9.14542 4.88999 9.14542 4.88999C9.14542 4.95409 9.08132 5.01819 8.95311 5.1464H8.88901ZM8.18389 5.0823C7.92748 4.95409 7.86338 4.76179 7.86338 4.44128C7.86338 4.24897 7.86338 4.12077 7.99158 3.99256C8.05568 3.86436 8.18389 3.80026 8.31209 3.80026C8.4403 3.80026 8.5044 3.86436 8.6326 3.99256C8.6967 4.18487 8.76081 4.37717 8.76081 4.56948V4.69768H8.82491V4.63358C8.88901 4.63358 8.88901 4.50538 8.88901 4.24897C8.88901 4.05666 8.88901 3.86436 8.76081 3.67205C8.6326 3.47974 8.5044 3.35154 8.24799 3.35154C8.05568 3.35154 7.86338 3.47974 7.79927 3.67205C7.67107 3.92846 7.64543 4.12077 7.64543 4.44128C7.64543 4.69768 7.73517 4.95409 7.99158 5.2105C8.05568 5.1464 8.11979 5.1464 8.18389 5.0823ZM16.1966 14.1207C16.2608 14.1207 16.2608 14.0951 16.2608 14.0374C16.2608 13.8963 16.1966 13.7297 16.0043 13.5438C15.812 13.3515 15.4915 13.2297 15.1069 13.1784C15.0428 13.172 14.9787 13.172 14.9787 13.172C14.9146 13.1592 14.9146 13.1592 14.8505 13.1592C14.7864 13.1528 14.6582 13.1399 14.5941 13.1271C14.7864 12.531 14.8505 12.0053 14.8505 11.5438C14.8505 10.9028 14.7223 10.4541 14.4659 10.0694C14.2095 9.68483 13.9531 9.49252 13.6326 9.42842C13.5685 9.49252 13.5685 9.49252 13.5685 9.55662C13.889 9.68483 14.2095 9.94124 14.4018 10.3258C14.5941 10.7746 14.6582 11.1592 14.6582 11.6079C14.6582 11.9669 14.5941 12.4989 14.3377 13.1784C14.0813 13.281 13.8249 13.5181 13.6326 13.8899C13.6326 13.9476 13.6326 13.9797 13.6967 13.9797C13.6967 13.9797 13.7608 13.922 13.8249 13.813C13.9531 13.704 14.0172 13.5951 14.1454 13.4861C14.3377 13.3771 14.4659 13.3194 14.6582 13.3194C14.9787 13.3194 15.2992 13.3643 15.4915 13.454C15.7479 13.5374 15.8761 13.6271 15.9402 13.7297C16.0043 13.8258 16.0684 13.9156 16.1325 13.9989C16.1325 14.0822 16.1966 14.1207 16.1966 14.1207M10.2993 4.82589C10.2352 4.76179 10.2352 4.63358 10.2352 4.50538C10.2352 4.24897 10.2352 4.12077 10.3634 3.92846C10.4916 3.80026 10.6198 3.73615 10.748 3.73615C10.9403 3.73615 11.0685 3.86436 11.1967 3.99256C11.2608 4.18487 11.3249 4.31307 11.3249 4.50538C11.3249 4.82589 11.1967 5.01819 10.9403 5.0823C10.9403 5.0823 11.0044 5.1464 11.0685 5.1464C11.1967 5.1464 11.2608 5.2105 11.389 5.2746C11.4531 4.88999 11.5172 4.63358 11.5172 4.31307C11.5172 3.92846 11.4531 3.67205 11.3249 3.47974C11.1326 3.28744 10.9403 3.22334 10.6839 3.22334C10.4916 3.22334 10.2993 3.28744 10.1069 3.41564C9.97875 3.60795 9.91464 3.73615 9.91464 3.92846C9.91464 4.24897 9.97875 4.50538 10.1069 4.76179C10.1711 4.76179 10.2352 4.82589 10.2993 4.82589ZM11.0685 5.85152C10.2352 6.42844 9.59413 6.68485 9.08132 6.68485C8.6326 6.68485 8.18389 6.49254 7.79927 6.17203C7.86338 6.30024 7.92748 6.42844 7.99158 6.49254L8.37619 6.87716C8.6326 7.13356 8.95311 7.26177 9.27362 7.26177C9.72234 7.26177 10.2352 7.00536 10.8762 6.55665L11.4531 6.17203C11.5813 6.04383 11.7095 5.91562 11.7095 5.72332C11.7095 5.65922 11.7095 5.59511 11.6454 5.59511C11.5813 5.46691 11.2608 5.2746 10.6198 5.0823C10.0428 4.82589 9.59413 4.69768 9.33772 4.69768C9.14542 4.69768 8.82491 4.82589 8.37619 5.0823C7.99158 5.33871 7.73517 5.59511 7.73517 5.85152C7.73517 5.85152 7.79927 5.91562 7.86338 6.04383C8.24799 6.36434 8.6326 6.55665 9.01721 6.55665C9.53003 6.55665 10.1711 6.30024 11.0044 5.65922V5.78742C11.0685 5.78742 11.0685 5.85152 11.0685 5.85152ZM12.5428 18.8001C12.7992 19.2822 13.248 19.5245 13.7608 19.5245C13.889 19.5245 14.0172 19.5053 14.1454 19.4668C14.2736 19.4412 14.4018 19.3963 14.4659 19.345C14.53 19.3001 14.5941 19.2553 14.6582 19.204C14.7864 19.1591 14.7864 19.1271 14.8505 19.095L15.9402 18.1527C16.1966 17.9482 16.4531 17.7694 16.7736 17.6143C17.03 17.4604 17.2864 17.3578 17.4146 17.3002C17.6069 17.2489 17.7351 17.172 17.8633 17.0694C17.9274 16.9732 17.9915 16.8514 17.9915 16.6976C17.9915 16.5117 17.8633 16.3707 17.7351 16.2681C17.6069 16.1656 17.4787 16.095 17.3505 16.0502C17.2223 16.0053 17.0941 15.9027 16.9018 15.7297C16.7736 15.563 16.6454 15.3322 16.5813 15.0309L16.5172 14.6592C16.4531 14.4861 16.4531 14.3579 16.389 14.2874C16.389 14.2681 16.389 14.2617 16.3249 14.2617C16.2608 14.2617 16.1325 14.3194 16.0684 14.4284C15.9402 14.5374 15.812 14.6592 15.6838 14.7874C15.6197 14.9156 15.4274 15.0309 15.2992 15.1399C15.1069 15.2489 14.9146 15.3066 14.7864 15.3066C14.2736 15.3066 14.0172 15.1656 13.8249 14.8899C13.6967 14.6848 13.6326 14.4476 13.5685 14.1784C13.4403 14.0694 13.3762 14.0117 13.248 14.0117C12.9274 14.0117 12.7992 14.3451 12.7992 15.0181V17.0117C12.7992 17.0694 12.7351 17.1976 12.7351 17.3963C12.671 17.595 12.671 17.8207 12.671 18.0758L12.5428 18.7873V18.7982M3.24803 18.4591C3.84418 18.5463 4.53007 18.7328 5.3057 19.0175C6.08134 19.2995 6.55569 19.4469 6.72877 19.4469C7.17748 19.4469 7.54928 19.2482 7.85697 18.8642C7.92107 18.7399 7.92107 18.5937 7.92107 18.4258C7.92107 17.82 7.55569 17.054 6.82492 16.1245L6.38903 15.5412C6.29929 15.4194 6.19031 15.2335 6.04929 14.9835C5.91467 14.7335 5.79288 14.5412 5.69673 14.4066C5.61339 14.2592 5.47878 14.1117 5.3057 13.9643C5.13904 13.8168 4.94673 13.7207 4.73519 13.6694C4.46597 13.7207 4.28007 13.8104 4.19033 13.9322C4.10058 14.054 4.0493 14.1886 4.03648 14.3297C4.01725 14.4643 3.97879 14.554 3.91469 14.5989C3.85059 14.6374 3.74161 14.6694 3.59418 14.7015C3.56213 14.7015 3.50443 14.7015 3.4211 14.7079H3.24803C2.90829 14.7079 2.67752 14.7463 2.55572 14.8104C2.39547 14.9963 2.31214 15.2079 2.31214 15.4322C2.31214 15.5348 2.33778 15.7079 2.38906 15.9514C2.44034 16.1886 2.46598 16.3809 2.46598 16.5155C2.46598 16.7784 2.38906 17.0412 2.2288 17.304C2.06855 17.5796 1.98521 17.7848 1.98521 17.9309C2.04932 18.1796 2.47239 18.3546 3.24803 18.4572M5.38263 12.6303C5.38263 12.188 5.49801 11.7008 5.73519 11.1239C5.96596 10.547 6.19672 10.1624 6.42108 9.90598C6.40826 9.84188 6.37621 9.84188 6.32493 9.84188L6.26082 9.77778C6.07493 9.97008 5.85057 10.4188 5.58134 11.0598C5.31211 11.6367 5.17109 12.1688 5.17109 12.5598C5.17109 12.8483 5.2416 13.0983 5.36981 13.3162C5.51083 13.5277 5.85057 13.8354 6.38903 14.2265L7.06851 14.6688C7.79286 15.297 8.17748 15.7329 8.17748 15.9893C8.17748 16.1239 8.11338 16.2585 7.92107 16.4059C7.79286 16.5598 7.61979 16.6367 7.47235 16.6367C7.45953 16.6367 7.45312 16.6495 7.45312 16.6816C7.45312 16.688 7.51723 16.8162 7.65184 17.0662C7.92107 17.4316 8.49799 17.6111 9.26721 17.6111C10.6775 17.6111 11.7672 17.0341 12.6005 15.8803C12.6005 15.5598 12.6005 15.3611 12.5364 15.2777V15.0406C12.5364 14.6239 12.6005 14.3098 12.7287 14.1047C12.8569 13.8995 12.9851 13.8034 13.1774 13.8034C13.3056 13.8034 13.4338 13.8483 13.5621 13.9444C13.6262 13.4508 13.6262 13.0213 13.6262 12.6367C13.6262 12.0534 13.6262 11.5726 13.4979 11.1239C13.4338 10.7393 13.3056 10.4188 13.1774 10.1624L12.7928 9.58547C12.6646 9.39316 12.6005 9.20086 12.4723 9.00855C12.4082 8.75214 12.3441 8.55984 12.3441 8.23933C12.1518 7.91881 12.0236 7.5983 11.8313 7.27779C11.7031 6.95728 11.5749 6.63677 11.4467 6.38036L10.8698 6.82908C10.2287 7.27779 9.71593 7.4701 9.26721 7.4701C8.8826 7.4701 8.56209 7.406 8.36978 7.14959L7.98517 6.82908C7.98517 7.02139 7.92107 7.27779 7.79286 7.5342L7.38902 8.30343C7.20954 8.75214 7.11338 9.00855 7.09415 9.20086C7.06851 9.32906 7.04928 9.45727 7.03646 9.45727L6.55569 10.4188C6.03647 11.3803 5.77365 12.2713 5.77365 13.0085C5.77365 13.156 5.78647 13.3098 5.81211 13.4636C5.52365 13.2649 5.38263 12.9893 5.38263 12.6303M9.97234 18.6944C9.13901 18.6944 8.49799 18.8072 8.04927 19.0309V19.0117C7.72876 19.3963 7.36979 19.595 6.86979 19.595C6.55569 19.595 6.06211 19.4732 5.39545 19.2296C4.72237 18.9989 4.12622 18.8219 3.607 18.7053C3.55572 18.6905 3.44033 18.6687 3.25444 18.6392C3.07495 18.6104 2.90828 18.5809 2.76085 18.5514C2.62624 18.5226 2.47239 18.479 2.30573 18.42C2.14547 18.3694 2.01727 18.3034 1.92111 18.2232C1.83265 18.1425 1.78906 18.0514 1.78906 17.9495C1.78906 17.8469 1.81086 17.7373 1.85445 17.6207C1.89547 17.5502 1.94034 17.4796 1.98521 17.4155C2.03009 17.345 2.06855 17.2809 2.09419 17.2168C2.13265 17.1591 2.15829 17.1014 2.18393 17.0373C2.20957 16.9796 2.23521 16.922 2.24803 16.8514C2.26085 16.7873 2.27367 16.7232 2.27367 16.6591C2.27367 16.595 2.24803 16.4027 2.19675 16.063C2.14547 15.7297 2.11983 15.5181 2.11983 15.4284C2.11983 15.1463 2.18393 14.922 2.32496 14.7617C2.46598 14.6015 2.6006 14.5181 2.74162 14.5181H3.47879C3.53649 14.5181 3.62623 14.4861 3.76084 14.4092C3.80571 14.3066 3.84418 14.2233 3.86982 14.1463C3.90187 14.0694 3.91469 14.0117 3.92751 13.9861C3.94033 13.9476 3.95315 13.9092 3.96597 13.8771C3.99161 13.8322 4.02366 13.781 4.06853 13.7297C4.01725 13.6656 3.99161 13.5822 3.99161 13.4797C3.99161 13.4092 3.99161 13.3451 4.00443 13.3066C4.00443 13.0758 4.1134 12.7489 4.34417 12.3194L4.56853 11.9156C4.75443 11.5694 4.89545 11.313 4.99801 11.0566C5.10699 10.8002 5.22237 10.4156 5.35057 9.90278C5.45314 9.45406 5.69673 9.00535 6.08134 8.55663L6.5621 7.97971C6.89543 7.5951 7.11338 7.27459 7.23518 7.01818C7.35697 6.76177 7.42107 6.44126 7.42107 6.18485C7.42107 6.05665 7.38902 5.67204 7.31851 5.03102C7.25441 4.38999 7.22236 3.74897 7.22236 3.17205C7.22236 2.72334 7.26082 2.40283 7.34415 2.08232C7.42748 1.76181 7.57492 1.4413 7.79286 1.18489C7.98517 0.928481 8.24158 0.672073 8.62619 0.543869C9.0108 0.415665 9.45952 0.351562 9.97234 0.351562C10.1646 0.351562 10.3569 0.351562 10.5493 0.415665C10.7416 0.415665 10.998 0.479767 11.3185 0.607971C11.5749 0.736175 11.8313 0.864379 12.0236 1.05669C12.28 1.24899 12.4723 1.5695 12.6646 1.89001C12.7928 2.27463 12.921 2.65924 12.9851 3.17205C13.0492 3.49257 13.0492 3.81308 13.1133 4.26179C13.1133 4.6464 13.1774 4.90281 13.1774 5.09512C13.2415 5.28742 13.2415 5.54383 13.3056 5.86434C13.3697 6.12075 13.4338 6.37716 13.5621 6.56947C13.6903 6.82587 13.8185 7.08228 14.0108 7.33869C14.2031 7.6592 14.4595 7.97971 14.7159 8.36432C15.2928 9.00535 15.7415 9.71047 15.9979 10.4156C16.3184 11.0566 16.5107 11.8899 16.5107 12.781C16.5107 13.2233 16.4466 13.6527 16.3184 14.0694C16.4466 14.0694 16.5107 14.1207 16.5749 14.2104C16.639 14.3002 16.7031 14.4925 16.7672 14.7938L16.8313 15.2681C16.8954 15.4091 16.9595 15.5438 17.1518 15.6591C17.28 15.7745 17.4082 15.8707 17.6005 15.9476C17.7287 16.0117 17.921 16.1014 18.0492 16.2168C18.1774 16.345 18.2415 16.4797 18.2415 16.6207C18.2415 16.8386 18.1774 16.9989 18.0492 17.1143C17.921 17.2425 17.7928 17.3322 17.6005 17.3899C17.4723 17.454 17.2159 17.5822 16.8313 17.763C16.5107 17.9527 16.1902 18.1828 15.8697 18.4553L15.2287 19.0008C14.9723 19.2508 14.7159 19.4303 14.5236 19.5392C14.3313 19.6546 14.0749 19.7123 13.8185 19.7123L13.3697 19.661C12.8569 19.5264 12.5364 19.27 12.3441 18.879C11.3185 18.7546 10.4852 18.6931 9.97234 18.6931" fill="#F4F4F4"/>
</svg>
