<svg fill="#3DB995" xmlns="http://www.w3.org/2000/svg" xmlns:xlink="http://www.w3.org/1999/xlink" viewBox="0 0 26 24" version="1.1" x="0px" y="0px"><title>Edit 847</title><desc>Created with Sketch.</desc><g stroke="none" stroke-width="1" fill="none" fill-rule="evenodd"><g transform="translate(-1.000000, 0.000000)" fill="#3DB995" fill-rule="nonzero"><path d="M26.5096944,23.3292148 L1.47067091,23.3292148 C1.2057625,23.3292148 0.990996125,23.1144484 0.990996125,22.84954 C0.990996125,22.5846316 1.2057625,22.3698652 1.47067091,22.3698652 L26.5096944,22.3698652 C26.7746028,22.3698652 26.9893692,22.5846316 26.9893692,22.84954 C26.9893692,23.1144484 26.7746028,23.3292148 26.5096944,23.3292148 Z M2.76128384,22.9054061 C2.63337056,22.9054061 2.50820744,22.8541768 2.41620581,22.7589774 C2.28592616,22.6241248 2.24617709,22.4257313 2.31441881,22.2510658 L4.62171847,16.3479641 C4.646022,16.2858302 4.68302091,16.2294205 4.73034881,16.1823484 L20.2223093,0.786226937 C20.4098941,0.599729375 20.7131445,0.600368937 20.9000258,0.787697937 L24.4845714,4.38110162 C24.6705573,4.56756719 24.6714847,4.86905878 24.4865861,5.05661162 L9.11831778,20.6471932 C9.0670885,20.699158 9.00466684,20.7387471 8.93581753,20.7629547 L2.92031203,22.8781926 C2.86831528,22.8964842 2.81452775,22.9054061 2.76128384,22.9054061 Z M5.47841763,16.7914714 L3.58869088,21.6262414 L8.51296822,19.8947434 L23.4694837,4.72186256 L20.558977,1.80419275 L5.47841763,16.7914714 Z M8.77672538,20.7901363 C8.65223378,20.7901363 8.52790206,20.7420089 8.43391781,20.64601 L4.72574394,16.8581462 C4.54042959,16.6688345 4.54365941,16.3651364 4.73297103,16.1798221 C4.92225069,15.9944438 5.22594878,15.9977056 5.41129513,16.1870492 L9.11946897,19.974913 C9.30478331,20.1642247 9.3015535,20.4679228 9.11224188,20.6532371 C9.01892916,20.7445992 8.89776331,20.7901363 8.77672538,20.7901363 Z"></path></g></g></svg>