<svg width="24" height="24" viewBox="0 0 24 24" fill="none" xmlns="http://www.w3.org/2000/svg">
<path d="M18.999 11H4.99902C3.89445 11 2.99902 11.8954 2.99902 13V20C2.99902 21.1046 3.89445 22 4.99902 22H18.999C20.1036 22 20.999 21.1046 20.999 20V13C20.999 11.8954 20.1036 11 18.999 11Z" stroke="#96A0B5" stroke-width="2" stroke-linecap="round" stroke-linejoin="round"/>
<path d="M6.99902 11V7C6.99902 5.67392 7.52581 4.40215 8.46349 3.46447C9.40117 2.52678 10.6729 2 11.999 2C13.3251 2 14.5969 2.52678 15.5346 3.46447C16.4722 4.40215 16.999 5.67392 16.999 7V11" stroke="#96A0B5" stroke-width="2" stroke-linecap="round" stroke-linejoin="round"/>
</svg>
