<svg width="24" height="24" viewBox="0 0 24 24" fill="none" xmlns="http://www.w3.org/2000/svg">
<path fill-rule="evenodd" clip-rule="evenodd" d="M12 3.25C9.92893 3.25 8.25 4.92893 8.25 7V9.25H6.71429C5.3533 9.25 4.25 10.3533 4.25 11.7143V18.2857C4.25 19.6467 5.3533 20.75 6.71429 20.75H17.2857C18.6467 20.75 19.75 19.6467 19.75 18.2857V11.7143C19.75 10.3533 18.6467 9.25 17.2857 9.25H15.75V7C15.75 4.92893 14.0711 3.25 12 3.25ZM14.25 9.25V7C14.25 5.75736 13.2426 4.75 12 4.75C10.7574 4.75 9.75 5.75736 9.75 7V9.25H14.25ZM6.71429 10.75C6.18173 10.75 5.75 11.1817 5.75 11.7143V18.2857C5.75 18.8183 6.18173 19.25 6.71429 19.25H17.2857C17.8183 19.25 18.25 18.8183 18.25 18.2857V11.7143C18.25 11.1817 17.8183 10.75 17.2857 10.75H6.71429ZM12 13.25C12.4142 13.25 12.75 13.5858 12.75 14V16C12.75 16.4142 12.4142 16.75 12 16.75C11.5858 16.75 11.25 16.4142 11.25 16V14C11.25 13.5858 11.5858 13.25 12 13.25Z" fill="#12131B"/>
</svg>
