<svg width="102" height="116" viewBox="0 0 102 116" fill="none" xmlns="http://www.w3.org/2000/svg">
<path d="M80.6071 50.75V55.75H85.6071H91.0714C94.3667 55.75 97 58.4057 97 61.625V105.125C97 108.344 94.3667 111 91.0714 111H10.9286C7.63332 111 5 108.344 5 105.125V61.625C5 58.4057 7.63332 55.75 10.9286 55.75H16.3929H21.3929V50.75V34.4375C21.3929 18.2361 34.6588 5 51 5C67.3412 5 80.6071 18.2361 80.6071 34.4375V50.75ZM67.3929 55.75H72.3929V50.75V34.4375C72.3929 22.6584 62.7771 13.125 51 13.125C39.2229 13.125 29.6071 22.6584 29.6071 34.4375V50.75V55.75H34.6071H67.3929Z" fill="#3A2F45" stroke="#3A2F45" stroke-width="10"/>
</svg>
