<svg width="116" height="116" viewBox="0 0 116 116" fill="none" xmlns="http://www.w3.org/2000/svg">
<path d="M87.6071 50.75V55.75H92.6071H98.0714C101.367 55.75 104 58.4057 104 61.625V105.125C104 108.344 101.367 111 98.0714 111H17.9286C14.6333 111 12 108.344 12 105.125V61.625C12 58.4057 14.6333 55.75 17.9286 55.75H23.3929H28.3929V50.75V34.4375C28.3929 18.2361 41.6588 5 58 5C74.3412 5 87.6071 18.2361 87.6071 34.4375V50.75ZM74.3929 55.75H79.3929V50.75V34.4375C79.3929 22.6584 69.7771 13.125 58 13.125C46.2229 13.125 36.6071 22.6584 36.6071 34.4375V50.75V55.75H41.6071H74.3929Z" stroke="#3A2F45" stroke-width="10"/>
<circle cx="58" cy="85" r="12" fill="#3A2F45"/>
</svg>
