<svg width="22" height="22" viewBox="0 0 22 22" fill="none" xmlns="http://www.w3.org/2000/svg">
<path d="M17.999 10H3.99902C2.89445 10 1.99902 10.8954 1.99902 12V19C1.99902 20.1046 2.89445 21 3.99902 21H17.999C19.1036 21 19.999 20.1046 19.999 19V12C19.999 10.8954 19.1036 10 17.999 10Z" stroke="#96A0B5" stroke-width="2" stroke-linecap="round" stroke-linejoin="round"/>
<path d="M5.99902 10V6C5.99902 4.67392 6.52581 3.40215 7.46349 2.46447C8.40117 1.52678 9.6729 1 10.999 1C12.3251 1 13.5969 1.52678 14.5346 2.46447C15.4722 3.40215 15.999 4.67392 15.999 6V10" stroke="#96A0B5" stroke-width="2" stroke-linecap="round" stroke-linejoin="round"/>
</svg>
