<svg width="24" height="24" viewBox="0 0 24 24" fill="none" xmlns="http://www.w3.org/2000/svg">
<path fill-rule="evenodd" clip-rule="evenodd" d="M19 18.013C19 18.5581 18.5581 19 18.013 19L14 19C13.4477 19 13 19.4477 13 20C13 20.5523 13.4477 21 14 21L18.013 21C19.6627 21 21 19.6627 21 18.013L21 5.98696C21 4.33731 19.6627 3 18.013 3H14C13.4477 3 13 3.44772 13 4C13 4.55229 13.4477 5 14 5L18.013 5C18.5581 5 19 5.44188 19 5.98696L19 18.013ZM12.2074 16.2068C11.8171 16.5975 11.1839 16.5978 10.7932 16.2074C10.4025 15.8171 10.4022 15.1839 10.7926 14.7932L12.5887 12.9954H4C3.44772 12.9954 3 12.5477 3 11.9954C3 11.4431 3.44772 10.9954 4 10.9954H12.5842L10.7935 9.20771C10.4026 8.81751 10.4021 8.18435 10.7923 7.79349C11.1825 7.40264 11.8157 7.4021 12.2065 7.79229L15.7078 11.2877C15.8955 11.4751 16.0011 11.7294 16.0013 11.9947C16.0015 12.26 15.8962 12.5145 15.7087 12.7021L12.2074 16.2068Z" fill="#12131B"/>
</svg>
