<svg width="24" height="24" viewBox="0 0 24 24" fill="none" xmlns="http://www.w3.org/2000/svg">
<path fill-rule="evenodd" clip-rule="evenodd" d="M4.75 5.98696C4.75 5.30381 5.30381 4.75 5.98696 4.75H12.6797C13.3629 4.75 13.9167 5.30381 13.9167 5.98696V8C13.9167 8.41421 14.2525 8.75 14.6667 8.75C15.0809 8.75 15.4167 8.41421 15.4167 8V5.98696C15.4167 4.47538 14.1913 3.25 12.6797 3.25H5.98696C4.47538 3.25 3.25 4.47538 3.25 5.98696V18.013C3.25 19.5246 4.47538 20.75 5.98696 20.75H12.6797C14.1913 20.75 15.4167 19.5246 15.4167 18.013V16C15.4167 15.5858 15.0809 15.25 14.6667 15.25C14.2525 15.25 13.9167 15.5858 13.9167 16V18.013C13.9167 18.6962 13.3629 19.25 12.6797 19.25H5.98696C5.30381 19.25 4.75 18.6962 4.75 18.013V5.98696ZM18.5306 8.1366C18.2378 7.84356 17.763 7.84333 17.4699 8.13607C17.1769 8.42882 17.1767 8.90369 17.4694 9.19673L19.5239 11.2533H10C9.58579 11.2533 9.25 11.5891 9.25 12.0033C9.25 12.4175 9.58579 12.7533 10 12.7533H19.5214L17.4699 14.8027C17.1769 15.0955 17.1767 15.5704 17.4694 15.8634C17.7622 16.1564 18.237 16.1567 18.5301 15.8639L21.8634 12.5339C22.0041 12.3933 22.0832 12.2026 22.0833 12.0037C22.0834 11.8048 22.0045 11.614 21.8639 11.4733L18.5306 8.1366Z" fill="#12131B"/>
</svg>
