<svg width="18" height="18" viewBox="0 0 18 18" fill="none" xmlns="http://www.w3.org/2000/svg">
<path fill-rule="evenodd" clip-rule="evenodd" d="M9.37284 4.47566C9.08325 4.77183 9.08859 5.24667 9.38475 5.53626L12.1602 8.25L4 8.25C3.58579 8.25 3.25 8.58579 3.25 9C3.25 9.41421 3.58579 9.75 4 9.75H12.1602L9.38475 12.4637C9.08859 12.7533 9.08325 13.2282 9.37284 13.5243C9.66242 13.8205 10.1373 13.8258 10.4334 13.5363L14.5243 9.53626C14.6687 9.39515 14.75 9.20183 14.75 9C14.75 8.79817 14.6687 8.60485 14.5243 8.46375L10.4334 4.46375C10.1373 4.17416 9.66242 4.1795 9.37284 4.47566Z" fill="#12131B"/>
</svg>
