<svg width="24" height="24" viewBox="0 0 24 24" fill="none" xmlns="http://www.w3.org/2000/svg">
<path fill-rule="evenodd" clip-rule="evenodd" d="M5 4.25C3.48122 4.25 2.25 5.48122 2.25 7V17C2.25 18.5188 3.48122 19.75 5 19.75H19C20.5188 19.75 21.75 18.5188 21.75 17V7C21.75 5.48122 20.5188 4.25 19 4.25H5ZM4.8825 5.75545C4.92118 5.75184 4.96038 5.75 5 5.75H19C19.0404 5.75 19.0804 5.75192 19.1198 5.75567L12.0013 11.6878L4.8825 5.75545ZM3.76924 6.7803C3.7566 6.85162 3.75 6.92504 3.75 7V17C3.75 17.6904 4.30964 18.25 5 18.25H19C19.6904 18.25 20.25 17.6904 20.25 17V7C20.25 6.9257 20.2435 6.85292 20.2311 6.78219L12.4814 13.2402C12.2033 13.472 11.7993 13.472 11.5212 13.2402L3.76924 6.7803Z" fill="#12131B"/>
</svg>
