<svg fill="#3EB995" xmlns="http://www.w3.org/2000/svg" xmlns:xlink="http://www.w3.org/1999/xlink" viewBox="0 0 100 100" version="1.1" x="0px" y="0px"><title>Artboard 1 Copy 21</title><desc>Created with Sketch.</desc><g stroke="none" stroke-width="1" fill="none" fill-rule="evenodd"><g fill="#3EB995"><path d="M11,74 L11,29.462 L45.592,54.297 C46.829,55.185 48.415,55.628 50,55.628 C51.586,55.628 53.172,55.185 54.408,54.297 L89,29.462 L89,74 L11,74 Z M86.964,26 L52.075,51.048 C50.988,51.829 49.011,51.828 47.925,51.048 L13.036,26 L86.964,26 Z M88.996,22 L11.004,22 C8.796,22 7,23.793 7,26.005 L7,73.995 C7,76.2 8.793,78 11.004,78 L88.996,78 C91.204,78 93,76.207 93,73.995 L93,26.005 C93,23.8 91.207,22 88.996,22 L88.996,22 Z"></path></g></g></svg>