<?xml version="1.0" encoding="UTF-8"?>
<svg width="114px" height="114px" viewBox="0 0 114 114" version="1.1" xmlns="http://www.w3.org/2000/svg" xmlns:xlink="http://www.w3.org/1999/xlink">
    <!-- Generator: Sketch 49.1 (51147) - http://www.bohemiancoding.com/sketch -->
    <title>Shape</title>
    <desc>Created with Sketch.</desc>
    <defs></defs>
    <g id="Page-1" stroke="none" stroke-width="1" fill="none" fill-rule="evenodd">
        <g id="noun_714038_3EB995" fill="#3EB995" fill-rule="nonzero">
            <path d="M57,0.75 C25.908,0.75 0.75,25.91 0.75,57 C0.75,88.092 25.91,113.25 57,113.25 C70.893,113.25 83.591,108.217 93.4,99.887 C93.574,99.74 93.746,99.588 93.918,99.438 C94.275,99.028 94.5,98.498 94.5,97.908 C94.5,96.615 93.451,95.563 92.156,95.563 C91.551,95.563 91.004,95.799 90.588,96.176 C90.588,96.175 90.59,96.175 90.59,96.174 C90.582,96.164 90.578,96.151 90.57,96.141 C81.554,103.883 69.832,108.565 57,108.565 L57,108.563 C28.5,108.563 5.437,85.502 5.437,57.001 C5.438,28.5 28.5,5.438 57,5.438 C85.501,5.438 108.564,28.5 108.564,57 C108.564,67.365 102.273,75.75 94.5,75.75 C86.727,75.75 80.438,67.365 80.438,57 L80.438,38.25 C80.438,36.957 79.389,35.906 78.094,35.906 C76.799,35.906 75.75,36.957 75.75,38.25 L75.75,42.929 C71.477,37.24 64.672,33.562 57,33.562 C44.045,33.562 33.562,44.044 33.562,57 C33.562,69.956 44.045,80.438 57,80.438 C66.08,80.438 73.939,75.286 77.833,67.743 C80.945,75.286 87.234,80.438 94.499,80.438 C104.861,80.438 113.249,69.957 113.249,57 C113.25,25.908 88.092,0.75 57,0.75 Z M90.271,96.525 C90.269,96.527 90.267,96.527 90.267,96.529 C90.268,96.527 90.27,96.527 90.271,96.525 Z M90.043,96.909 C90.035,96.924 90.027,96.935 90.02,96.95 C90.027,96.938 90.035,96.924 90.043,96.909 Z M89.891,97.333 C89.885,97.359 89.871,97.387 89.867,97.415 C89.873,97.387 89.885,97.359 89.891,97.333 Z M57,75.75 C46.637,75.75 38.25,67.363 38.25,57 C38.25,46.637 46.637,38.25 57,38.25 C67.363,38.25 75.75,46.637 75.75,57 C75.75,67.363 67.363,75.75 57,75.75 Z" id="Shape"></path>
        </g>
    </g>
</svg>