<svg width="200" height="200" viewBox="0 0 200 200" fill="none" xmlns="http://www.w3.org/2000/svg">
<path d="M200 0H0V200H200V0Z" fill="#3A2F45"/>
<path d="M47.7273 66.8882C47.8942 65.2388 47.2653 63.6087 46.0337 62.4986L33.4885 47.3859V45.1284H72.4413L102.55 111.16L129.02 45.1284H166.154V47.3859L155.428 57.6701C154.503 58.3749 154.044 59.5334 154.236 60.6801V136.243C154.044 137.39 154.503 138.549 155.428 139.253L165.903 149.538V151.795H113.213V149.538L124.065 139.003C125.131 137.937 125.131 137.623 125.131 135.993V74.9148L94.96 151.544H90.8828L55.7562 74.9148V126.273C55.4634 128.432 56.1805 130.606 57.7007 132.167L71.8141 149.287V151.544H31.7949V149.287L45.9083 132.167C47.4174 130.603 48.0928 128.415 47.7273 126.273V66.8882Z" fill="white"/>
</svg>
