<svg width="363" height="416" viewBox="0 0 363 416" fill="none" xmlns="http://www.w3.org/2000/svg">
<g clip-path="url(#clip0)">
<path fill-rule="evenodd" clip-rule="evenodd" d="M82.1143 120.871C80.6137 120.871 79.0942 120.511 77.6824 119.766C73.0151 117.3 71.2284 111.507 73.683 106.825C74.9865 104.341 105.953 45.9939 146.91 48.6254C152.175 48.9496 156.168 53.4987 155.844 58.781C155.521 64.0632 150.916 68.0616 145.733 67.7486C121.888 66.1135 97.8206 101.894 90.559 115.748C88.8552 119.006 85.5419 120.871 82.1146 120.871" fill="#5CD9A6"/>
<path fill-rule="evenodd" clip-rule="evenodd" d="M16.5996 231.85C12.5173 231.85 8.74022 229.192 7.48121 225.066C5.94233 220.008 8.77876 214.662 13.8018 213.11C16.1034 212.388 67.2593 195.692 54.6564 146.408C53.3464 141.279 56.4242 136.055 61.5238 134.745C66.6362 133.417 71.8312 136.515 73.1411 141.637C86.8758 195.392 43.9928 223.872 19.3911 231.428C18.463 231.712 17.5279 231.852 16.5999 231.852" fill="#5CD9A6"/>
<path fill-rule="evenodd" clip-rule="evenodd" d="M119.033 165.368C118.435 165.368 117.838 165.313 117.233 165.193C112.051 164.197 108.662 159.183 109.647 153.984C122.88 84.4467 180.248 83.7441 181.062 83.7441H181.068C186.333 83.7633 190.587 88.0747 190.561 93.3632C190.536 98.639 186.276 102.899 181.036 102.906C179.192 102.925 138.585 103.985 128.392 157.58C127.515 162.172 123.515 165.366 119.032 165.366" fill="#5CD9A6"/>
<path fill-rule="evenodd" clip-rule="evenodd" d="M33.6882 294.72C31.908 294.72 30.1143 294.221 28.5122 293.18C24.0868 290.3 22.8276 284.366 25.6892 279.927C31.9398 270.25 88.1443 185.365 138.467 185.275H138.48C143.745 185.275 148.011 189.555 148.018 194.837C148.031 200.126 143.77 204.424 138.499 204.437C104.518 204.502 57.1013 266.475 41.7006 290.351C39.8757 293.18 36.8108 294.72 33.6886 294.72" fill="#5CD9A6"/>
<path fill-rule="evenodd" clip-rule="evenodd" d="M89.3685 340.695C87.5307 340.695 85.6805 340.165 84.0463 339.06C79.678 336.102 78.5206 330.15 81.4646 325.762C89.2731 314.111 94.2584 306.824 97.8764 302.359C90.8246 260.689 116.164 245.928 132.143 240.819C137.167 239.196 142.521 241.994 144.123 247.04C145.719 252.079 142.947 257.47 137.93 259.073C119.197 265.064 112.571 278.497 117.08 301.337C117.652 304.237 118.517 308.606 114.784 312.342C114.422 312.701 114.04 313.025 113.626 313.326C111.095 316.34 103.446 327.282 97.2846 336.466C95.4409 339.213 92.4267 340.695 89.3681 340.695" fill="#5CD9A6"/>
<path fill-rule="evenodd" clip-rule="evenodd" d="M143.978 332.646C140.023 332.646 136.329 330.155 134.962 326.195C130.218 312.405 109.495 315.023 109.279 315.062C104.065 315.713 99.2578 312.079 98.5583 306.835C97.8586 301.591 101.521 296.769 106.748 296.066C120.222 294.246 145.174 297.223 152.995 319.929C154.712 324.93 152.073 330.385 147.094 332.116C146.064 332.475 145.008 332.646 143.978 332.646Z" fill="#5CD9A6"/>
<path fill-rule="evenodd" clip-rule="evenodd" d="M113.835 384.236C106.72 384.236 99.2616 383.476 91.8219 381.917C77.3051 378.877 50.7766 370.171 36.2661 346.053C33.5384 341.524 34.9814 335.635 39.4898 332.895C43.9982 330.168 49.8545 331.605 52.5824 336.14C60.4545 349.221 76.1795 359.07 95.7197 363.164C115.978 367.399 132.593 364.096 139.454 359.217C143.74 356.164 149.711 357.186 152.75 361.503C155.796 365.827 154.772 371.806 150.474 374.859C141.852 380.984 128.575 384.235 113.835 384.235" fill="#5CD9A6"/>
<path fill-rule="evenodd" clip-rule="evenodd" d="M142.853 0C130.95 0 118.913 3.41725 109.82 9.37638C104.707 12.7233 98.3174 15.7763 91.5517 19.0082C74.6694 27.0752 55.5361 36.2153 44.4783 55.4662C37.1595 68.2214 37.611 79.7566 37.9479 88.1813C38.0472 90.8384 38.1466 93.2208 38.0174 95.4627C36.3708 97.1551 32.9814 99.7549 30.8194 101.409C26.9089 104.398 22.871 107.49 19.5836 111.245C-6.93215 141.521 -0.109294 169.126 3.96667 185.618C4.85057 189.182 5.68332 192.548 5.93807 194.962C6.43464 199.618 5.92535 209.538 5.52094 217.509C5.13858 225.097 4.77062 232.257 5.02437 237.475C5.41666 245.523 8.9031 253.865 13.4178 263.931C14.4736 266.275 15.6624 268.932 16.082 270.139C19.56 280.167 21.8811 300.893 22.6378 307.702C29.0537 365.053 69.2533 385.638 98.6113 400.674C103.723 403.292 108.549 405.764 112.962 408.275C121.102 412.918 133.45 415.92 144.425 415.92C166.229 415.92 181.655 404.142 184.682 385.191C187.74 366.03 188.052 344.709 187.931 324.532V324.453C187.479 248.297 187.782 51.8084 188.055 42.3554C188.378 30.8777 184.66 20.7859 177.284 13.166C169.071 4.67542 156.843 0 142.854 0H142.853ZM143.668 319.608C143.668 319.608 143.464 319.269 143.196 318.822C143.3 319.002 143.414 319.181 143.538 319.39C143.628 319.54 143.668 319.61 143.668 319.61V319.608ZM154.686 60.546C154.674 60.546 154.667 60.5522 154.661 60.5522H154.655C154.668 60.5522 154.675 60.546 154.686 60.546L154.693 60.5398L154.686 60.546ZM142.853 19.1615C156.531 19.1615 169.439 25.6637 168.981 41.7977C168.678 52.394 168.415 250.856 168.852 324.564V324.41C168.846 322.679 168.832 321.325 168.827 320.175V319.696V320.175C168.839 321.79 168.846 323.426 168.852 324.41V324.574V324.644C168.961 342.994 168.728 364.027 165.838 382.154C164.07 393.261 154.449 396.755 144.421 396.755C135.786 396.755 126.846 394.162 122.376 391.607C91.6259 374.081 47.8272 361.332 41.5957 305.559C40.025 291.52 37.7552 274.396 34.0924 263.832C31.905 257.521 24.44 243.955 24.0775 236.533C23.5958 226.677 26.0549 203.767 24.9043 192.928C23.073 175.618 8.53067 152.867 33.9019 123.895C39.9243 117.022 55.5158 109.524 56.7558 99.9111C58.39 87.2006 53.9958 77.243 61.0034 65.0371C72.9323 44.2596 101.044 38.0002 120.24 25.4175C126.275 21.464 134.7 19.158 142.852 19.158" fill="#5CD9A6"/>
<path fill-rule="evenodd" clip-rule="evenodd" d="M220.474 0C206.485 0 194.258 4.67522 186.048 13.164C178.672 20.7838 174.953 30.8756 175.277 42.347C175.55 51.8128 175.849 248.308 175.401 324.449V324.649C175.277 344.711 175.595 366.031 178.651 385.193C181.677 404.144 197.103 415.922 218.907 415.922C229.883 415.922 242.231 412.919 250.37 408.276C254.783 405.766 259.609 403.294 264.722 400.675C294.08 385.64 334.279 365.054 340.695 307.704C341.452 300.895 343.773 280.175 347.251 270.147C347.673 268.933 348.86 266.276 349.916 263.932C354.431 253.866 357.915 245.524 358.309 237.47C358.562 232.258 358.195 225.098 357.813 217.51C357.405 209.539 356.896 199.619 357.391 194.963C357.644 192.549 358.478 189.183 359.362 185.619C363.438 169.127 370.261 141.522 343.745 111.246C340.458 107.491 336.42 104.399 332.509 101.41C330.347 99.7562 326.958 97.1564 325.311 95.4637C325.182 93.2216 325.28 90.8393 325.381 88.1823C325.718 79.7577 326.169 68.2224 318.85 55.4672C307.793 36.2164 288.66 27.0763 271.778 19.0093C265.012 15.7776 258.628 12.7243 253.516 9.37748C244.416 3.41825 232.379 0.00109735 220.476 0.00109735L220.474 0ZM219.662 319.609C219.662 319.609 219.7 319.539 219.791 319.389C219.92 319.18 220.025 319 220.134 318.821C219.866 319.27 219.662 319.607 219.662 319.607V319.609ZM208.641 60.5431C208.654 60.5431 208.661 60.5493 208.673 60.5493H208.666C208.66 60.5493 208.653 60.5431 208.641 60.5431L208.635 60.5369L208.641 60.5431ZM220.474 19.1606C228.626 19.1606 237.058 21.4725 243.086 25.42C262.283 38.0028 290.394 44.2622 302.323 65.0397C309.33 77.2456 304.937 87.2032 306.571 99.9137C307.811 109.526 323.402 117.025 329.424 123.897C354.795 152.87 340.253 175.621 338.422 192.93C337.271 203.769 339.732 226.68 339.248 236.535C338.886 243.957 331.421 257.524 329.233 263.834C325.571 274.398 323.301 291.522 321.73 305.562C315.499 361.334 271.7 374.083 240.949 391.61C236.479 394.164 227.539 396.758 218.904 396.758C208.883 396.758 199.255 393.264 197.488 382.157C194.594 364.03 194.366 342.997 194.474 324.646V324.577V324.412C194.474 323.754 194.48 322.815 194.486 321.787C194.493 321.014 194.499 320.324 194.499 319.698C194.499 320.401 194.493 321.11 194.486 321.787C194.486 322.559 194.48 323.422 194.474 324.412V324.567C194.911 250.859 194.652 52.3963 194.344 41.8C193.888 25.6596 206.795 19.1639 220.472 19.1639" fill="#5CD9A6"/>
<path fill-rule="evenodd" clip-rule="evenodd" d="M281.218 120.866C277.797 120.866 274.484 119.008 272.774 115.756C265.48 101.903 241.457 66.1088 217.593 67.7502C212.481 68.0695 207.807 64.0646 207.483 58.7827C207.16 53.5005 211.152 48.9528 216.417 48.6271C257.379 45.97 288.346 104.342 289.65 106.827C292.104 111.509 290.317 117.289 285.656 119.761C284.244 120.508 282.718 120.866 281.218 120.866Z" fill="#5CD9A6"/>
<path fill-rule="evenodd" clip-rule="evenodd" d="M346.722 231.849C345.794 231.849 344.859 231.714 343.937 231.43C319.335 223.874 276.452 195.393 290.187 141.639C291.497 136.516 296.679 133.419 301.804 134.747C306.904 136.057 309.982 141.281 308.672 146.41C296.056 195.751 347.345 212.428 349.533 213.111C354.55 214.683 357.373 220.042 355.828 225.087C354.556 229.201 350.798 231.851 346.722 231.851" fill="#5CD9A6"/>
<path fill-rule="evenodd" clip-rule="evenodd" d="M244.299 165.368C239.816 165.368 235.817 162.174 234.939 157.582C224.689 103.674 184.553 102.908 182.378 102.908C182.329 102.901 182.324 102.908 182.304 102.908C177.058 102.908 172.791 98.6409 172.766 93.3652C172.741 88.0766 176.994 83.7652 182.259 83.7461H182.266C183.073 83.7461 240.454 84.4424 253.686 153.986C254.672 159.185 251.283 164.199 246.101 165.195C245.496 165.31 244.898 165.37 244.301 165.37" fill="#5CD9A6"/>
<path fill-rule="evenodd" clip-rule="evenodd" d="M329.639 294.72C326.517 294.72 323.452 293.18 321.627 290.351C306.207 266.476 258.765 204.501 224.835 204.437C219.563 204.424 215.303 200.126 215.316 194.837C215.322 189.555 219.589 185.275 224.854 185.275H224.867C275.183 185.365 331.387 270.25 337.638 279.927C340.499 284.366 339.24 290.3 334.821 293.174C333.213 294.221 331.419 294.72 329.639 294.72Z" fill="#5CD9A6"/>
<path fill-rule="evenodd" clip-rule="evenodd" d="M253.85 315.029C254.842 315.189 255.955 315.204 257.169 314.959C256.063 315.184 254.931 315.194 253.85 315.029ZM273.963 340.693C270.904 340.693 267.89 339.211 266.046 336.464C259.884 327.286 252.241 316.351 249.704 313.324C249.292 313.029 248.903 312.698 248.54 312.34C244.807 308.604 245.672 304.235 246.244 301.335C250.753 278.494 244.127 265.062 225.394 259.071C220.377 257.468 217.605 252.084 219.201 247.038C220.797 241.992 226.157 239.194 231.187 240.817C247.16 245.926 272.493 260.687 265.448 302.351C269.072 306.815 274.051 314.103 281.866 325.76C284.81 330.147 283.653 336.1 279.284 339.058C277.65 340.162 275.8 340.693 273.962 340.693" fill="#5CD9A6"/>
<path fill-rule="evenodd" clip-rule="evenodd" d="M219.349 332.646C218.319 332.646 217.263 332.471 216.234 332.115C211.255 330.385 208.616 324.93 210.333 319.929C218.154 297.222 243.074 294.252 256.579 296.066C261.806 296.769 265.469 301.591 264.769 306.835C264.07 312.072 259.275 315.777 254.087 315.062C253.729 315.024 233.027 312.628 228.366 326.194C226.999 330.154 223.304 332.645 219.349 332.645" fill="#5CD9A6"/>
<path fill-rule="evenodd" clip-rule="evenodd" d="M249.493 384.236C234.753 384.236 221.476 380.985 212.854 374.86C208.556 371.807 207.532 365.828 210.578 361.504C213.611 357.187 219.588 356.164 223.874 359.218C230.735 364.097 247.35 367.4 267.609 363.165C287.149 359.071 302.874 349.222 310.746 336.141C313.474 331.606 319.33 330.175 323.839 332.896C328.347 335.636 329.79 341.525 327.062 346.054C312.552 370.172 286.023 378.878 271.506 381.918C264.067 383.476 256.608 384.237 249.493 384.237" fill="#5CD9A6"/>
</g>
<defs>
<clipPath id="clip0">
<rect width="363" height="416" fill="white"/>
</clipPath>
</defs>
</svg>
