<svg width="325" height="375" viewBox="0 0 325 375" fill="none" xmlns="http://www.w3.org/2000/svg">
<path d="M237.539 302.769C239.179 305.233 241.86 306.561 244.58 306.561C246.215 306.561 247.86 306.086 249.313 305.095C253.199 302.443 254.228 297.104 251.61 293.169C244.659 282.715 240.231 276.18 237.007 272.176C243.273 234.812 220.742 221.574 206.535 216.992C202.061 215.537 197.294 218.046 195.874 222.571C194.455 227.096 196.92 231.925 201.383 233.363C216.613 238.274 222.845 248.761 220.741 266.171C208.721 266.712 193.541 271.704 188.002 287.918C186.475 292.403 188.822 297.295 193.25 298.847C194.166 299.166 195.105 299.323 196.021 299.323C199.539 299.323 202.825 297.088 204.041 293.537C207.206 284.249 218.687 283.304 224.083 283.392C226.982 287.219 232.761 295.593 237.539 302.769Z" fill="url(#paint0_linear_17714_44992)" fill-opacity="0.8"/>
<path d="M243.579 104.811C245.1 107.726 248.047 109.393 251.09 109.393C252.424 109.393 253.781 109.072 255.037 108.402C259.183 106.185 260.772 101.001 258.589 96.8028C257.43 94.5746 229.887 42.226 193.454 44.6089C188.771 44.901 185.221 48.9794 185.508 53.7165C185.796 58.4534 189.953 62.0449 194.5 61.7586C215.725 60.2865 237.092 92.3865 243.579 104.811Z" fill="url(#paint1_linear_17714_44992)" fill-opacity="0.8"/>
<path d="M74.0152 109.397C72.6805 109.397 71.329 109.075 70.0733 108.406C65.9222 106.195 64.333 101 66.5162 96.8013C67.6756 94.5732 95.2181 42.2475 131.646 44.6074C136.328 44.8982 139.88 48.9778 139.592 53.715C139.304 58.4521 135.209 62.0379 130.599 61.7572C109.391 60.2909 87.9846 92.3793 81.526 104.803C80.0107 107.725 77.0635 109.397 74.0152 109.397Z" fill="url(#paint2_linear_17714_44992)" fill-opacity="0.8"/>
<path d="M80.4091 306.561C78.7745 306.561 77.1288 306.086 75.6754 305.095C71.7901 302.443 70.7607 297.104 73.3792 293.169C80.3242 282.721 84.7582 276.186 87.9762 272.182C81.7042 234.812 104.242 221.574 118.454 216.992C122.922 215.537 127.684 218.046 129.109 222.571C130.529 227.091 128.063 231.925 123.601 233.363C108.371 238.274 102.139 248.76 104.242 266.169C116.263 266.697 131.493 271.685 137.039 287.92C138.566 292.405 136.219 297.297 131.791 298.849C130.874 299.171 129.936 299.324 129.02 299.324C125.502 299.324 122.216 297.09 121 293.539C117.778 284.096 106.269 283.233 100.923 283.368C98.032 287.18 92.2363 295.575 87.4498 302.769C85.8099 305.232 83.1294 306.561 80.4091 306.561Z" fill="url(#paint3_linear_17714_44992)" fill-opacity="0.8"/>
<path fill-rule="evenodd" clip-rule="evenodd" d="M196.988 1C184.546 1 173.67 5.19276 166.369 12.8055C164.92 14.3149 163.629 15.9324 162.501 17.6474C161.373 15.933 160.084 14.3162 158.635 12.8074C151.33 5.19302 140.455 1.00008 128.012 1.00008C117.425 1.00008 106.719 4.06469 98.6313 9.40886C94.0842 12.4104 88.4004 15.1484 82.3829 18.0468L82.3747 18.0507C67.3612 25.2843 50.348 33.4812 40.5148 50.7424C34.0053 62.1813 34.4068 72.5261 34.7065 80.0814L34.7182 80.3958C34.8023 82.6528 34.8781 84.6897 34.7684 86.6114C33.3038 88.1292 30.2892 90.4606 28.3663 91.9442C24.8882 94.625 21.2968 97.3973 18.3729 100.765C-5.21067 127.916 0.857574 152.673 4.48283 167.463C5.26899 170.659 6.0097 173.678 6.23628 175.843C6.67436 179.985 6.23225 188.77 5.87404 195.889L5.85152 196.338C5.51646 203.041 5.20097 209.352 5.42362 213.969C5.77253 221.186 8.87344 228.667 12.8889 237.694C13.8279 239.797 14.8853 242.179 15.2585 243.262C18.3519 252.255 20.4163 270.842 21.0893 276.949C26.7956 328.379 62.5476 346.841 88.659 360.324L88.6688 360.329C93.2133 362.677 97.5035 364.892 101.426 367.142C108.666 371.306 119.649 373.999 129.41 373.999C145.098 373.999 157.073 367.087 162.502 355.45C167.93 367.088 179.906 374 195.594 374C205.355 374 216.339 371.308 223.578 367.144C227.501 364.893 231.792 362.677 236.337 360.33L236.345 360.326C262.456 346.842 298.209 328.38 303.915 276.95C304.588 270.844 306.652 252.262 309.746 243.269C310.121 242.181 311.176 239.798 312.116 237.695C316.131 228.668 319.23 221.187 319.581 213.964C319.803 209.349 319.488 203.031 319.152 196.322L319.134 195.969C318.773 188.836 318.326 180.001 318.764 175.844C318.989 173.679 319.731 170.66 320.517 167.464C324.142 152.674 330.211 127.917 306.627 100.766C303.703 97.3983 300.112 94.6258 296.634 91.945C294.711 90.4617 291.697 88.1303 290.232 86.6122C290.121 84.6664 290.198 82.6029 290.285 80.3123L290.294 80.0823C290.594 72.527 290.995 62.1821 284.485 50.7432C274.653 33.4821 257.64 25.2851 242.626 18.0515L242.618 18.0477C236.601 15.1495 230.922 12.4113 226.375 9.40976C218.282 4.0655 207.575 1 196.988 1ZM209.905 142.312C203.806 109.972 185.812 98.9583 173.988 95.2105C174.102 153.866 174.118 242.771 173.885 287.967C173.884 288.26 173.882 288.552 173.88 288.842L173.882 288.53L173.876 289.254L173.88 288.842L173.871 290.375C173.873 290.098 173.873 289.833 173.873 289.58L173.873 289.699C173.867 290.574 173.862 291.369 173.862 291.934L173.867 291.207L173.862 292.073V292.144C173.766 308.601 173.969 327.463 176.543 343.719C178.115 353.681 186.678 356.814 195.591 356.814C203.271 356.814 211.223 354.488 215.199 352.197C219.203 349.895 223.457 347.686 227.818 345.434C226.151 345.525 224.498 345.57 222.866 345.57C209.756 345.57 197.948 342.654 190.279 337.161C186.456 334.423 185.545 329.061 188.254 325.184C190.952 321.311 196.268 320.395 200.08 323.133C206.182 327.509 220.96 330.471 238.979 326.673C256.358 323.001 270.344 314.169 277.346 302.438C278.201 301.005 279.401 299.917 280.773 299.217C283.828 292.306 286.016 284.335 287.047 275.029C287.467 271.238 287.944 267.198 288.494 263.142C287.941 262.642 287.444 262.06 287.022 261.4C273.307 239.988 231.111 184.409 200.933 184.352C196.244 184.34 192.455 180.486 192.466 175.743C192.472 171.005 196.267 167.168 200.95 167.168H200.961C236.761 167.232 275.913 215.96 292.99 239.895C293.226 239.1 293.47 238.337 293.72 237.607C294.338 235.81 295.43 233.356 296.642 230.63C299.246 224.775 302.408 217.668 302.628 213.126C302.708 211.473 302.697 209.412 302.632 207.088C280.456 198.552 247.555 173.273 259.021 128.023C260.186 123.429 264.796 120.651 269.354 121.842C273.89 123.016 276.627 127.702 275.462 132.302C267.451 163.892 288.41 180.552 301.765 187.722C301.572 182.451 301.523 177.53 301.892 174.02C302.243 170.68 303.117 167.113 304.048 163.314C307.444 149.457 311.599 132.503 293.89 112.112C292.078 110.026 289.291 107.877 286.355 105.611C280.611 101.181 274.293 96.3069 273.564 90.603C273.058 86.6344 273.201 82.9651 273.341 79.4058C273.602 72.7417 273.848 66.4632 269.786 59.3279C262.596 46.7005 248.796 40.0524 235.332 33.5667C228.929 30.482 222.602 27.4339 217.099 23.7968C211.737 20.2567 204.238 18.1833 196.987 18.1833C184.822 18.1833 173.341 24.0116 173.747 38.4864C173.821 41.059 173.892 55.9796 173.948 77.6854C189.784 81.5177 218.18 94.5813 226.579 139.088C227.455 143.75 224.44 148.247 219.832 149.14C219.294 149.243 218.762 149.297 218.231 149.297C214.244 149.297 210.685 146.431 209.905 142.312ZM151.051 77.6937C135.211 81.5365 106.852 94.6134 98.4581 139.088C97.5815 143.75 100.596 148.246 105.205 149.14C105.743 149.248 106.275 149.297 106.806 149.297C110.793 149.297 114.35 146.431 115.131 142.312C121.16 110.349 139.152 99.2212 151.012 95.3478C150.898 154.018 150.88 242.844 151.113 287.996L151.115 288.427L151.113 288.134L151.119 289.093L151.136 292.071V292.142C151.233 308.599 151.025 327.461 148.455 343.717C146.882 353.678 138.326 356.812 129.407 356.812C121.727 356.812 113.775 354.486 109.799 352.195C105.796 349.895 101.545 347.686 97.186 345.435C98.8623 345.527 100.524 345.573 102.165 345.573C115.274 345.573 127.083 342.657 134.752 337.163C138.575 334.425 139.485 329.064 136.777 325.186C134.073 321.314 128.763 320.397 124.951 323.136C118.848 327.512 104.07 330.473 86.0518 326.676C68.6723 323.004 54.6862 314.171 47.6846 302.44C46.8213 300.993 45.6058 299.898 44.2173 299.197C41.1665 292.29 38.9813 284.325 37.9509 275.026C37.5303 271.235 37.0532 267.193 36.5029 263.136C37.0538 262.638 37.5488 262.058 37.9697 261.4C51.6674 239.988 93.8409 184.41 124.064 184.352C128.753 184.34 132.542 180.485 132.531 175.743C132.525 171.006 128.73 167.168 124.047 167.168H124.036C88.2346 167.232 49.0863 215.951 32.0063 239.888C31.7705 239.095 31.5276 238.333 31.2774 237.605C30.6594 235.808 29.5679 233.354 28.3556 230.628C25.7513 224.773 22.5899 217.665 22.3699 213.124C22.2901 211.478 22.301 209.426 22.365 207.114C44.5419 198.605 77.5234 173.32 66.045 128.023C64.8799 123.429 60.2594 120.651 55.7123 121.842C51.1766 123.017 48.4392 127.702 49.6043 132.302C57.6302 163.947 36.5838 180.611 23.2309 187.761C23.4254 182.474 23.4757 177.537 23.1053 174.018C22.7547 170.678 21.8806 167.111 20.9495 163.312C17.5536 149.455 13.3983 132.501 31.1079 112.11C32.9201 110.024 35.7064 107.875 38.6431 105.61C44.3866 101.179 50.7049 96.3049 51.4346 90.6007C51.9407 86.6322 51.7968 82.9629 51.6572 79.4036C51.396 72.7395 51.1498 66.4609 55.2126 59.3256C62.4026 46.6982 76.2028 40.0502 89.6658 33.5645C96.0692 30.4798 102.396 27.4318 107.9 23.7946C113.267 20.2491 120.76 18.1811 128.011 18.1811C140.176 18.1811 151.658 24.0154 151.25 38.4844C151.178 41.0574 151.107 55.9823 151.051 77.6937ZM151.122 289.476L151.119 289.093L151.115 288.427L151.122 289.476ZM151.136 291.932C151.133 291.323 151.13 290.765 151.127 290.251L151.136 291.932Z" fill="url(#paint4_linear_17714_44992)" fill-opacity="0.8"/>
<path d="M173.88 288.842C173.882 288.552 173.884 288.26 173.885 287.967C174.118 242.771 174.102 153.866 173.988 95.2105C185.812 98.9583 203.806 109.972 209.905 142.312C210.685 146.431 214.244 149.297 218.231 149.297C218.762 149.297 219.294 149.243 219.832 149.14C224.44 148.247 227.455 143.75 226.579 139.088C218.18 94.5813 189.784 81.5177 173.948 77.6854C173.892 55.9796 173.821 41.059 173.747 38.4864C173.341 24.0116 184.822 18.1833 196.987 18.1833C204.238 18.1833 211.737 20.2567 217.099 23.7968C222.602 27.4339 228.929 30.482 235.332 33.5667C248.796 40.0524 262.596 46.7005 269.786 59.3279C273.848 66.4632 273.602 72.7417 273.341 79.4058C273.201 82.9651 273.058 86.6344 273.564 90.603C274.293 96.3069 280.611 101.181 286.355 105.611C289.291 107.877 292.078 110.026 293.89 112.112C311.599 132.503 307.444 149.457 304.048 163.314C303.117 167.113 302.243 170.68 301.892 174.02C301.523 177.53 301.572 182.451 301.765 187.722C288.41 180.552 267.451 163.892 275.462 132.302C276.627 127.702 273.89 123.016 269.354 121.842C264.796 120.651 260.186 123.429 259.021 128.023C247.555 173.273 280.456 198.552 302.632 207.088C302.697 209.412 302.708 211.473 302.628 213.126C302.408 217.668 299.246 224.775 296.642 230.63C295.43 233.356 294.338 235.81 293.72 237.607C293.47 238.337 293.226 239.1 292.99 239.895C275.913 215.96 236.761 167.232 200.961 167.168H200.95C196.267 167.168 192.472 171.005 192.466 175.743C192.455 180.486 196.244 184.34 200.933 184.352C231.111 184.409 273.307 239.988 287.022 261.4C287.444 262.06 287.941 262.642 288.494 263.142C287.944 267.197 287.467 271.238 287.047 275.029C286.016 284.335 283.828 292.306 280.773 299.217C279.401 299.917 278.201 301.005 277.346 302.438C270.344 314.169 256.358 323.001 238.979 326.673C220.96 330.471 206.182 327.509 200.08 323.133C196.268 320.395 190.952 321.311 188.254 325.184C185.545 329.061 186.456 334.423 190.279 337.161C197.948 342.654 209.756 345.57 222.866 345.57C224.498 345.57 226.151 345.525 227.818 345.433C223.457 347.686 219.203 349.895 215.199 352.197C211.223 354.488 203.271 356.814 195.591 356.814C186.678 356.814 178.115 353.681 176.543 343.719C173.969 327.463 173.766 308.601 173.862 292.144V292.073L173.867 291.207L173.862 291.934C173.862 291.369 173.867 290.574 173.873 289.699L173.873 289.58C173.873 289.833 173.873 290.098 173.871 290.375L173.88 288.842ZM173.88 288.842L173.882 288.53L173.876 289.254L173.88 288.842ZM151.115 288.427L151.113 287.996C150.88 242.844 150.898 154.018 151.012 95.3478C139.152 99.2212 121.16 110.349 115.131 142.312C114.35 146.431 110.793 149.297 106.806 149.297C106.275 149.297 105.743 149.248 105.205 149.14C100.596 148.246 97.5815 143.75 98.4581 139.088C106.852 94.6134 135.211 81.5365 151.051 77.6937C151.107 55.9823 151.178 41.0574 151.25 38.4844C151.658 24.0154 140.176 18.1811 128.011 18.1811C120.76 18.1811 113.267 20.2491 107.9 23.7946C102.396 27.4318 96.0692 30.4798 89.6658 33.5645C76.2028 40.0502 62.4026 46.6982 55.2126 59.3256C51.1498 66.4609 51.396 72.7395 51.6572 79.4036C51.7968 82.9629 51.9407 86.6322 51.4346 90.6007C50.7049 96.3049 44.3866 101.179 38.6431 105.61C35.7064 107.875 32.9201 110.024 31.1079 112.11C13.3983 132.501 17.5536 149.455 20.9495 163.312C21.8806 167.111 22.7547 170.678 23.1053 174.018C23.4757 177.537 23.4254 182.474 23.2309 187.761C36.5838 180.611 57.6302 163.947 49.6043 132.302C48.4392 127.702 51.1766 123.017 55.7123 121.842C60.2594 120.651 64.8799 123.429 66.045 128.023C77.5234 173.32 44.5419 198.605 22.365 207.114C22.301 209.426 22.2901 211.478 22.3699 213.124C22.5899 217.665 25.7513 224.773 28.3556 230.628C29.5679 233.354 30.6594 235.808 31.2774 237.605C31.5276 238.333 31.7705 239.095 32.0063 239.888C49.0863 215.951 88.2346 167.232 124.036 167.168H124.047C128.73 167.168 132.525 171.006 132.531 175.743C132.542 180.485 128.753 184.34 124.064 184.352C93.8409 184.41 51.6674 239.988 37.9696 261.4C37.5488 262.058 37.0538 262.638 36.5029 263.136C37.0532 267.193 37.5303 271.235 37.9509 275.026C38.9813 284.325 41.1665 292.29 44.2173 299.197C45.6058 299.898 46.8213 300.993 47.6846 302.44C54.6862 314.171 68.6723 323.004 86.0518 326.676C104.07 330.473 118.848 327.512 124.951 323.136C128.763 320.397 134.073 321.314 136.777 325.186C139.485 329.064 138.575 334.425 134.752 337.163C127.083 342.657 115.274 345.573 102.165 345.573C100.524 345.573 98.8623 345.527 97.186 345.435C101.545 347.686 105.796 349.895 109.799 352.195C113.775 354.486 121.727 356.812 129.407 356.812C138.326 356.812 146.882 353.678 148.455 343.717C151.025 327.461 151.233 308.599 151.136 292.142V292.071L151.119 289.093M151.115 288.427L151.113 288.134L151.119 289.093M151.115 288.427L151.119 289.093M151.115 288.427L151.122 289.476M151.119 289.093L151.122 289.476M151.122 289.476L151.127 290.251M151.127 290.251C151.13 290.765 151.133 291.323 151.136 291.932L151.127 290.251ZM166.369 12.8055C173.67 5.19276 184.546 1 196.988 1C207.575 1 218.282 4.0655 226.375 9.40976C230.922 12.4113 236.601 15.1495 242.618 18.0477L242.626 18.0515C257.64 25.2851 274.653 33.4821 284.485 50.7432C290.995 62.1821 290.594 72.527 290.294 80.0823L290.285 80.3123C290.198 82.6029 290.121 84.6664 290.232 86.6122C291.697 88.1303 294.711 90.4617 296.634 91.945C300.112 94.6258 303.703 97.3983 306.627 100.766C330.211 127.917 324.142 152.674 320.517 167.464C319.731 170.66 318.989 173.679 318.764 175.844C318.325 180.001 318.773 188.836 319.134 195.969L319.152 196.322C319.488 203.031 319.803 209.349 319.581 213.964C319.23 221.187 316.131 228.668 312.116 237.695C311.176 239.798 310.121 242.181 309.746 243.269C306.652 252.262 304.588 270.844 303.915 276.95C298.209 328.38 262.456 346.842 236.345 360.326L236.337 360.33C231.792 362.677 227.501 364.893 223.578 367.144C216.339 371.308 205.355 374 195.594 374C179.906 374 167.93 367.088 162.502 355.45C157.073 367.087 145.098 373.999 129.41 373.999C119.649 373.999 108.666 371.306 101.426 367.142C97.5035 364.892 93.2133 362.677 88.6688 360.329L88.659 360.324C62.5476 346.841 26.7956 328.379 21.0893 276.949C20.4163 270.842 18.3519 252.255 15.2585 243.262C14.8853 242.179 13.8279 239.797 12.8889 237.694C8.87344 228.667 5.77253 221.186 5.42362 213.969C5.20097 209.352 5.51646 203.041 5.85152 196.338L5.87404 195.889C6.23225 188.77 6.67436 179.985 6.23628 175.843C6.0097 173.678 5.26899 170.659 4.48283 167.463C0.857574 152.673 -5.21067 127.916 18.3729 100.765C21.2968 97.3973 24.8882 94.625 28.3663 91.9442C30.2892 90.4606 33.3038 88.1292 34.7684 86.6114C34.8781 84.6897 34.8023 82.6528 34.7182 80.3958L34.7065 80.0814C34.4068 72.5261 34.0053 62.1813 40.5148 50.7424C50.348 33.4812 67.3612 25.2843 82.3747 18.0507L82.3829 18.0468C88.4004 15.1484 94.0842 12.4104 98.6313 9.40886C106.719 4.06469 117.425 1.00008 128.012 1.00008C140.455 1.00008 151.33 5.19302 158.635 12.8074C160.084 14.3162 161.373 15.933 162.501 17.6474C163.629 15.9324 164.92 14.3149 166.369 12.8055ZM70.0733 108.406C71.329 109.075 72.6805 109.397 74.0152 109.397C77.0635 109.397 80.0107 107.725 81.526 104.803C87.9846 92.3793 109.391 60.2909 130.599 61.7572C135.209 62.0379 139.304 58.4521 139.592 53.715C139.88 48.9778 136.328 44.8982 131.646 44.6074C95.2181 42.2475 67.6756 94.5732 66.5162 96.8013C64.333 101 65.9222 106.195 70.0733 108.406ZM244.58 306.561C241.86 306.561 239.179 305.233 237.539 302.769C232.761 295.593 226.982 287.219 224.083 283.392C218.687 283.304 207.206 284.249 204.041 293.537C202.825 297.088 199.539 299.323 196.021 299.323C195.105 299.323 194.166 299.166 193.25 298.847C188.822 297.295 186.475 292.403 188.002 287.918C193.541 271.704 208.721 266.712 220.741 266.171C222.845 248.761 216.613 238.274 201.383 233.363C196.92 231.925 194.455 227.096 195.874 222.571C197.294 218.046 202.061 215.537 206.535 216.992C220.742 221.574 243.273 234.812 237.007 272.176C240.231 276.18 244.659 282.715 251.61 293.169C254.228 297.104 253.199 302.443 249.313 305.095C247.86 306.086 246.215 306.561 244.58 306.561ZM75.6754 305.095C77.1288 306.086 78.7745 306.561 80.4091 306.561C83.1294 306.561 85.8099 305.232 87.4498 302.769C92.2363 295.575 98.032 287.18 100.923 283.368C106.269 283.233 117.778 284.096 121 293.539C122.216 297.09 125.502 299.324 129.02 299.324C129.936 299.324 130.874 299.171 131.791 298.849C136.219 297.297 138.566 292.405 137.039 287.92C131.493 271.685 116.263 266.697 104.242 266.169C102.139 248.76 108.371 238.274 123.601 233.363C128.063 231.925 130.529 227.091 129.109 222.571C127.684 218.046 122.922 215.537 118.454 216.992C104.242 221.574 81.7042 234.812 87.9762 272.182C84.7582 276.186 80.3242 282.721 73.3792 293.169C70.7607 297.104 71.7901 302.443 75.6754 305.095ZM251.09 109.393C248.047 109.393 245.1 107.726 243.579 104.811C237.092 92.3865 215.725 60.2865 194.5 61.7586C189.953 62.0449 185.796 58.4534 185.508 53.7165C185.221 48.9794 188.771 44.901 193.454 44.6089C229.887 42.226 257.43 94.5746 258.589 96.8028C260.772 101.001 259.183 106.185 255.037 108.402C253.781 109.072 252.424 109.393 251.09 109.393Z" stroke="url(#paint5_linear_17714_44992)" stroke-linejoin="round"/>
<defs>
<linearGradient id="paint0_linear_17714_44992" x1="112.387" y1="-32.7839" x2="347.163" y2="300.495" gradientUnits="userSpaceOnUse">
<stop stop-color="#9BFABB" stop-opacity="0.85"/>
<stop offset="1" stop-color="#74E39A" stop-opacity="0.54"/>
</linearGradient>
<linearGradient id="paint1_linear_17714_44992" x1="112.387" y1="-32.7839" x2="347.163" y2="300.495" gradientUnits="userSpaceOnUse">
<stop stop-color="#9BFABB" stop-opacity="0.85"/>
<stop offset="1" stop-color="#74E39A" stop-opacity="0.54"/>
</linearGradient>
<linearGradient id="paint2_linear_17714_44992" x1="112.387" y1="-32.7839" x2="347.163" y2="300.495" gradientUnits="userSpaceOnUse">
<stop stop-color="#9BFABB" stop-opacity="0.85"/>
<stop offset="1" stop-color="#74E39A" stop-opacity="0.54"/>
</linearGradient>
<linearGradient id="paint3_linear_17714_44992" x1="112.387" y1="-32.7839" x2="347.163" y2="300.495" gradientUnits="userSpaceOnUse">
<stop stop-color="#9BFABB" stop-opacity="0.85"/>
<stop offset="1" stop-color="#74E39A" stop-opacity="0.54"/>
</linearGradient>
<linearGradient id="paint4_linear_17714_44992" x1="112.387" y1="-32.7839" x2="347.163" y2="300.495" gradientUnits="userSpaceOnUse">
<stop stop-color="#9BFABB" stop-opacity="0.85"/>
<stop offset="1" stop-color="#74E39A" stop-opacity="0.54"/>
</linearGradient>
<linearGradient id="paint5_linear_17714_44992" x1="102.834" y1="47.6313" x2="321.708" y2="305.202" gradientUnits="userSpaceOnUse">
<stop stop-color="#85EDAA"/>
<stop offset="1" stop-color="#63CE87"/>
</linearGradient>
</defs>
</svg>
