<svg width="496" height="477" viewBox="0 0 496 477" fill="none" xmlns="http://www.w3.org/2000/svg">
<g clip-path="url(#clip0_20308_49462)">
<rect width="496" height="477" fill="#12131B"/>
<rect x="-21.5" y="0.5" width="493" height="453" rx="15.5" fill="#12131B"/>
<rect width="167" height="24" rx="3" transform="matrix(1 -8.74228e-08 -8.74228e-08 -1 -6 190)" fill="#3E3F47"/>
<rect width="18" height="18" rx="4" transform="matrix(1 -8.74228e-08 -8.74228e-08 -1 120 39)" fill="#303139"/>
<rect width="121" height="9.99999" rx="3" transform="matrix(1 -8.74228e-08 -8.74228e-08 -1 151 35)" fill="#303139"/>
<rect width="101" height="9.99999" rx="3" transform="matrix(1 -8.74228e-08 -8.74228e-08 -1 -7 35)" fill="#303139"/>
<path d="M-1 453L362 453L362 339C362 333.477 357.523 329 352 329L8.99998 329C3.47714 329 -1.00001 333.477 -1.00001 339L-1 453Z" fill="#3E3F47"/>
<rect width="270" height="13" rx="3" transform="matrix(1 -8.74228e-08 -8.74228e-08 -1 -6 237)" fill="#3E3F47"/>
<rect width="327" height="13" rx="3" transform="matrix(1 -8.74228e-08 -8.74228e-08 -1 -6 266)" fill="#3E3F47"/>
<rect width="167" height="13" rx="3" transform="matrix(1 -8.74228e-08 -8.74228e-08 -1 -6 295)" fill="#3E3F47"/>
<rect width="121" height="13" rx="3" transform="matrix(1 -8.74228e-08 -8.74228e-08 -1 213 295)" fill="#3E3F47"/>
<rect width="32" height="13" rx="3" transform="matrix(1 -8.74228e-08 -8.74228e-08 -1 171 295)" fill="#3E3F47"/>
<rect width="88" height="13" rx="3" transform="matrix(1 -8.74228e-08 -8.74228e-08 -1 274 237)" fill="#3E3F47"/>
<path d="M-8 46H97.3965C102.919 46 107.396 41.5228 107.396 36V20C107.396 14.4772 111.874 10 117.396 10H276.668C282.191 10 286.668 14.4772 286.668 20V36C286.668 41.5228 291.145 46 296.668 46H472" stroke="#3E3F47"/>
<path d="M-8 94H472" stroke="#3E3F47"/>
<path d="M-26 86H317C325.837 86 333 78.8366 333 70V70C333 61.1634 325.837 54 317 54H-26" stroke="#3E3F47"/>
<path d="M307 70C307 65.0294 311.029 61 316 61C320.971 61 325 65.0294 325 70C325 74.9706 320.971 79 316 79C311.029 79 307 74.9706 307 70Z" stroke="#3E3F47"/>
<path d="M277 70C277 65.0294 281.029 61 286 61C290.971 61 295 65.0294 295 70C295 74.9706 290.971 79 286 79C281.029 79 277 74.9706 277 70Z" stroke="#3E3F47"/>
<path d="M349 70C349 62.8203 354.82 57 362 57C369.18 57 375 62.8203 375 70C375 77.1797 369.18 83 362 83C354.82 83 349 77.1797 349 70Z" stroke="#3E3F47"/>
<path d="M391 70C391 62.8203 396.82 57 404 57C411.18 57 417 62.8203 417 70C417 77.1797 411.18 83 404 83C396.82 83 391 77.1797 391 70Z" stroke="#3E3F47"/>
<path d="M441 61.5C441 60.1193 442.119 59 443.5 59C444.881 59 446 60.1193 446 61.5C446 62.8807 444.881 64 443.5 64C442.119 64 441 62.8807 441 61.5Z" stroke="#3E3F47"/>
<path d="M441 70C441 68.6193 442.119 67.5 443.5 67.5C444.881 67.5 446 68.6193 446 70C446 71.3807 444.881 72.5 443.5 72.5C442.119 72.5 441 71.3807 441 70Z" stroke="#3E3F47"/>
<path d="M441 78.5C441 77.1193 442.119 76 443.5 76C444.881 76 446 77.1193 446 78.5C446 79.8807 444.881 81 443.5 81C442.119 81 441 79.8807 441 78.5Z" stroke="#3E3F47"/>
<path d="M-26 9.47714e-06C-26 -11.598 -16.598 -21 -5 -21H354C365.598 -21 375 -11.598 375 2.57045e-07V454C375 465.046 366.046 474 355 474H-26V9.47714e-06Z" fill="url(#paint0_linear_20308_49462)"/>
<path d="M-26 9.47714e-06C-26 -11.598 -16.598 -21 -5 -21H354C365.598 -21 375 -11.598 375 2.57045e-07V454C375 465.046 366.046 474 355 474H-26V9.47714e-06Z" fill="url(#paint1_linear_20308_49462)"/>
<g filter="url(#filter0_d_20308_49462)">
<mask id="path-24-inside-1_20308_49462" fill="white">
<path d="M409 405C409 400.582 412.582 397 417 397H471V438C471 446.284 464.284 453 456 453H409V405Z"/>
</mask>
<path d="M409 405C409 400.582 412.582 397 417 397H471V438C471 446.284 464.284 453 456 453H409V405Z" fill="#12131B"/>
<path d="M408 405C408 400.029 412.029 396 417 396H471V398H417C413.134 398 410 401.134 410 405H408ZM471 453H409H471ZM408 453V405C408 400.029 412.029 396 417 396V398C413.134 398 410 401.134 410 405V453H408ZM471 397V453V397Z" fill="#6AE394" mask="url(#path-24-inside-1_20308_49462)"/>
</g>
<rect x="-21.5" y="0.5" width="493" height="453" rx="15.5" stroke="#3E3F47"/>
<g filter="url(#filter1_di_20308_49462)">
<circle cx="2.00446" cy="2.00446" r="2.00446" transform="matrix(1 -8.74228e-08 -8.74228e-08 -1 245 105.008)" fill="#C6F0D4"/>
</g>
<g filter="url(#filter2_di_20308_49462)">
<circle cx="4" cy="4" r="4" transform="matrix(1 -8.74228e-08 -8.74228e-08 -1 269 128)" fill="#C6F0D4"/>
</g>
<path d="M446.395 433.192C446.516 433.373 446.713 433.471 446.913 433.471C447.033 433.471 447.154 433.436 447.261 433.363C447.547 433.168 447.622 432.775 447.43 432.486C446.919 431.717 446.593 431.237 446.356 430.942C446.817 428.194 445.16 427.221 444.115 426.884C443.786 426.777 443.435 426.962 443.331 427.294C443.227 427.627 443.408 427.982 443.736 428.088C444.856 428.449 445.314 429.22 445.16 430.501C444.276 430.54 443.159 430.908 442.752 432.1C442.64 432.43 442.812 432.789 443.138 432.904C443.205 432.927 443.274 432.939 443.342 432.939C443.601 432.939 443.842 432.774 443.932 432.513C444.164 431.83 445.009 431.761 445.405 431.767C445.619 432.049 446.044 432.664 446.395 433.192Z" fill="url(#paint2_linear_20308_49462)" fill-opacity="0.8"/>
<path d="M446.839 418.634C446.951 418.849 447.168 418.971 447.392 418.971C447.49 418.971 447.589 418.948 447.682 418.898C447.987 418.735 448.104 418.354 447.943 418.045C447.858 417.881 445.832 414.032 443.153 414.207C442.809 414.228 442.548 414.528 442.569 414.877C442.59 415.225 442.896 415.489 443.23 415.468C444.791 415.36 446.362 417.721 446.839 418.634Z" fill="url(#paint3_linear_20308_49462)" fill-opacity="0.8"/>
<path d="M434.37 418.972C434.271 418.972 434.172 418.948 434.08 418.899C433.774 418.736 433.657 418.354 433.818 418.045C433.903 417.881 435.929 414.033 438.608 414.207C438.952 414.228 439.213 414.528 439.192 414.877C439.171 415.225 438.87 415.489 438.531 415.468C436.971 415.36 435.397 417.72 434.922 418.634C434.81 418.849 434.594 418.972 434.37 418.972Z" fill="url(#paint4_linear_20308_49462)" fill-opacity="0.8"/>
<path d="M434.84 433.471C434.72 433.471 434.598 433.436 434.492 433.363C434.206 433.168 434.13 432.775 434.323 432.486C434.833 431.718 435.16 431.237 435.396 430.943C434.935 428.194 436.592 427.221 437.638 426.884C437.966 426.777 438.316 426.962 438.421 427.294C438.525 427.627 438.344 427.982 438.016 428.088C436.896 428.449 436.438 429.22 436.592 430.5C437.476 430.539 438.596 430.906 439.004 432.1C439.117 432.43 438.944 432.79 438.618 432.904C438.551 432.927 438.482 432.939 438.415 432.939C438.156 432.939 437.914 432.774 437.825 432.513C437.588 431.819 436.741 431.755 436.348 431.765C436.136 432.046 435.709 432.663 435.358 433.192C435.237 433.373 435.04 433.471 434.84 433.471Z" fill="url(#paint5_linear_20308_49462)" fill-opacity="0.8"/>
<path fill-rule="evenodd" clip-rule="evenodd" d="M443.413 411C442.498 411 441.698 411.308 441.161 411.868C441.055 411.979 440.96 412.098 440.877 412.224C440.794 412.098 440.699 411.979 440.592 411.868C440.055 411.308 439.255 411 438.34 411C437.562 411 436.775 411.225 436.18 411.618C435.845 411.839 435.427 412.04 434.985 412.254L434.984 412.254C433.88 412.786 432.629 413.389 431.906 414.658C431.427 415.499 431.457 416.26 431.479 416.816L431.48 416.839C431.486 417.005 431.491 417.155 431.483 417.296C431.376 417.407 431.154 417.579 431.013 417.688C430.757 417.885 430.493 418.089 430.278 418.337C428.543 420.333 428.99 422.154 429.256 423.242C429.314 423.477 429.368 423.699 429.385 423.858C429.417 424.163 429.385 424.809 429.358 425.332L429.357 425.365C429.332 425.858 429.309 426.322 429.325 426.662C429.351 427.192 429.579 427.743 429.874 428.406C429.943 428.561 430.021 428.736 430.049 428.816C430.276 429.477 430.428 430.844 430.477 431.293C430.897 435.075 433.526 436.433 435.446 437.425L435.447 437.425C435.781 437.598 436.097 437.761 436.385 437.926C436.918 438.232 437.725 438.43 438.443 438.43C439.597 438.43 440.478 437.922 440.877 437.066C441.276 437.922 442.157 438.43 443.31 438.43C444.028 438.43 444.836 438.232 445.368 437.926C445.657 437.761 445.972 437.598 446.307 437.425L446.307 437.425C448.227 436.433 450.857 435.075 451.276 431.293C451.326 430.844 451.478 429.478 451.705 428.816C451.733 428.736 451.81 428.561 451.879 428.407C452.175 427.743 452.403 427.193 452.428 426.661C452.445 426.322 452.422 425.857 452.397 425.364L452.396 425.338C452.369 424.813 452.336 424.164 452.368 423.858C452.385 423.699 452.439 423.477 452.497 423.242C452.764 422.154 453.21 420.333 451.476 418.337C451.261 418.089 450.997 417.885 450.741 417.688C450.599 417.579 450.378 417.408 450.27 417.296C450.262 417.153 450.268 417.001 450.274 416.833L450.275 416.816C450.297 416.26 450.326 415.499 449.847 414.658C449.124 413.389 447.873 412.786 446.769 412.254L446.769 412.254C446.326 412.041 445.908 411.839 445.574 411.618C444.979 411.225 444.191 411 443.413 411ZM444.363 421.392C443.914 419.014 442.591 418.204 441.721 417.928C441.73 422.242 441.731 428.78 441.714 432.104C441.714 432.125 441.714 432.147 441.714 432.168L441.714 432.145L441.713 432.198L441.714 432.168L441.713 432.281C441.713 432.26 441.713 432.241 441.713 432.222L441.713 432.231C441.713 432.295 441.712 432.354 441.712 432.395L441.713 432.342L441.712 432.405V432.411C441.705 433.621 441.72 435.008 441.909 436.204C442.025 436.936 442.655 437.166 443.31 437.166C443.875 437.166 444.46 436.995 444.752 436.827C445.047 436.658 445.359 436.495 445.68 436.33C445.558 436.336 445.436 436.34 445.316 436.34C444.352 436.34 443.483 436.125 442.92 435.721C442.638 435.52 442.571 435.126 442.771 434.84C442.969 434.556 443.36 434.488 443.64 434.69C444.089 435.011 445.176 435.229 446.501 434.95C447.779 434.68 448.808 434.03 449.322 433.168C449.385 433.062 449.474 432.982 449.574 432.931C449.799 432.423 449.96 431.836 450.036 431.152C450.067 430.873 450.102 430.576 450.142 430.278C450.102 430.241 450.065 430.198 450.034 430.15C449.025 428.575 445.922 424.488 443.703 424.484C443.358 424.483 443.08 424.199 443.08 423.851C443.081 423.502 443.36 423.22 443.704 423.22H443.705C446.338 423.225 449.217 426.808 450.473 428.568C450.49 428.51 450.508 428.454 450.527 428.4C450.572 428.268 450.652 428.087 450.741 427.887C450.933 427.456 451.165 426.934 451.182 426.6C451.188 426.478 451.187 426.327 451.182 426.156C449.551 425.528 447.132 423.669 447.975 420.341C448.061 420.003 448.399 419.799 448.735 419.887C449.068 419.973 449.27 420.318 449.184 420.656C448.595 422.979 450.136 424.204 451.118 424.731C451.104 424.344 451.1 423.982 451.128 423.724C451.153 423.478 451.218 423.216 451.286 422.937C451.536 421.918 451.841 420.671 450.539 419.171C450.406 419.018 450.201 418.86 449.985 418.693C449.563 418.367 449.098 418.009 449.044 417.589C449.007 417.298 449.018 417.028 449.028 416.766C449.047 416.276 449.065 415.814 448.766 415.289C448.238 414.361 447.223 413.872 446.233 413.395C445.762 413.168 445.297 412.944 444.892 412.676C444.498 412.416 443.946 412.264 443.413 412.264C442.518 412.264 441.674 412.692 441.704 413.757C441.709 413.946 441.714 415.043 441.719 416.639C442.883 416.921 444.971 417.882 445.589 421.155C445.653 421.498 445.432 421.828 445.093 421.894C445.053 421.902 445.014 421.906 444.975 421.906C444.682 421.906 444.42 421.695 444.363 421.392ZM440.035 416.64C438.87 416.923 436.784 417.884 436.167 421.155C436.103 421.498 436.324 421.828 436.663 421.894C436.703 421.902 436.742 421.906 436.781 421.906C437.074 421.906 437.336 421.695 437.393 421.392C437.837 419.041 439.16 418.223 440.032 417.938C440.023 422.253 440.022 428.785 440.039 432.106L440.039 432.137L440.039 432.116L440.04 432.186L440.041 432.405V432.411C440.048 433.621 440.033 435.008 439.844 436.203C439.728 436.936 439.099 437.166 438.443 437.166C437.878 437.166 437.293 436.995 437.001 436.827C436.707 436.658 436.394 436.495 436.073 436.33C436.197 436.336 436.319 436.34 436.44 436.34C437.404 436.34 438.272 436.125 438.836 435.721C439.117 435.52 439.184 435.126 438.985 434.841C438.786 434.556 438.396 434.488 438.115 434.69C437.667 435.012 436.58 435.229 435.255 434.95C433.977 434.68 432.948 434.031 432.433 433.168C432.37 433.061 432.28 432.981 432.178 432.929C431.954 432.421 431.793 431.836 431.717 431.152C431.686 430.873 431.651 430.576 431.611 430.277C431.651 430.241 431.688 430.198 431.719 430.15C432.726 428.575 435.827 424.488 438.05 424.484C438.395 424.483 438.674 424.199 438.673 423.851C438.672 423.502 438.393 423.22 438.049 423.22H438.048C435.415 423.225 432.536 426.807 431.28 428.568C431.263 428.509 431.245 428.453 431.227 428.4C431.181 428.268 431.101 428.087 431.012 427.887C430.82 427.456 430.588 426.934 430.572 426.6C430.566 426.478 430.566 426.328 430.571 426.158C432.202 425.532 434.628 423.672 433.783 420.341C433.698 420.003 433.358 419.799 433.024 419.887C432.69 419.973 432.489 420.318 432.574 420.656C433.165 422.983 431.617 424.209 430.635 424.734C430.649 424.346 430.653 423.982 430.626 423.724C430.6 423.478 430.536 423.216 430.467 422.936C430.217 421.917 429.912 420.671 431.214 419.171C431.347 419.018 431.552 418.86 431.768 418.693C432.191 418.367 432.655 418.009 432.709 417.589C432.746 417.297 432.736 417.028 432.725 416.766C432.706 416.276 432.688 415.814 432.987 415.289C433.516 414.361 434.53 413.872 435.52 413.395C435.991 413.168 436.457 412.944 436.861 412.676C437.256 412.416 437.807 412.263 438.34 412.263C439.235 412.263 440.079 412.693 440.049 413.757C440.044 413.946 440.039 415.043 440.035 416.64ZM440.04 432.214L440.04 432.186L440.039 432.137L440.04 432.214ZM440.041 432.395C440.041 432.35 440.041 432.309 440.04 432.271L440.041 432.395Z" fill="url(#paint6_linear_20308_49462)" fill-opacity="0.8"/>
<path d="M441.714 432.168C441.714 432.147 441.714 432.125 441.714 432.104C441.731 428.78 441.73 422.242 441.721 417.928C442.591 418.204 443.914 419.014 444.363 421.392C444.42 421.695 444.682 421.906 444.975 421.906C445.014 421.906 445.053 421.902 445.093 421.894C445.432 421.828 445.653 421.498 445.589 421.155C444.971 417.882 442.883 416.921 441.719 416.639C441.714 415.043 441.709 413.946 441.704 413.757C441.674 412.692 442.518 412.264 443.413 412.264C443.946 412.264 444.498 412.416 444.892 412.676C445.297 412.944 445.762 413.168 446.233 413.395C447.223 413.872 448.238 414.361 448.766 415.289C449.065 415.814 449.047 416.276 449.028 416.766C449.018 417.028 449.007 417.298 449.044 417.589C449.098 418.009 449.563 418.367 449.985 418.693C450.201 418.86 450.406 419.018 450.539 419.171C451.841 420.671 451.536 421.918 451.286 422.937C451.218 423.216 451.153 423.478 451.128 423.724C451.1 423.982 451.104 424.344 451.118 424.731C450.136 424.204 448.595 422.979 449.184 420.656C449.27 420.318 449.068 419.973 448.735 419.887C448.399 419.799 448.061 420.003 447.975 420.341C447.132 423.669 449.551 425.528 451.182 426.156C451.187 426.327 451.188 426.478 451.182 426.6C451.165 426.934 450.933 427.456 450.741 427.887C450.652 428.087 450.572 428.268 450.527 428.4C450.508 428.454 450.49 428.51 450.473 428.568C449.217 426.808 446.338 423.225 443.705 423.22H443.704C443.36 423.22 443.081 423.502 443.08 423.851C443.08 424.199 443.358 424.483 443.703 424.484C445.922 424.488 449.025 428.575 450.034 430.15C450.065 430.198 450.102 430.241 450.142 430.278C450.102 430.576 450.067 430.873 450.036 431.152C449.96 431.836 449.799 432.423 449.574 432.931C449.474 432.982 449.385 433.062 449.322 433.168C448.808 434.03 447.779 434.68 446.501 434.95C445.176 435.229 444.089 435.011 443.64 434.69C443.36 434.488 442.969 434.556 442.771 434.84C442.571 435.126 442.638 435.52 442.92 435.721C443.483 436.125 444.352 436.34 445.316 436.34C445.436 436.34 445.558 436.336 445.68 436.33C445.359 436.495 445.047 436.658 444.752 436.827C444.46 436.995 443.875 437.166 443.31 437.166C442.655 437.166 442.025 436.936 441.909 436.204C441.72 435.008 441.705 433.621 441.712 432.411V432.405L441.713 432.342L441.712 432.395C441.712 432.354 441.713 432.295 441.713 432.231L441.713 432.222C441.713 432.241 441.713 432.26 441.713 432.281L441.714 432.168ZM441.714 432.168L441.714 432.145L441.713 432.198L441.714 432.168ZM440.039 432.137L440.039 432.106C440.022 428.785 440.023 422.253 440.032 417.938C439.16 418.223 437.837 419.041 437.393 421.392C437.336 421.695 437.074 421.906 436.781 421.906C436.742 421.906 436.703 421.902 436.663 421.894C436.324 421.828 436.103 421.498 436.167 421.155C436.784 417.884 438.87 416.923 440.035 416.64C440.039 415.043 440.044 413.946 440.049 413.757C440.079 412.693 439.235 412.263 438.34 412.263C437.807 412.263 437.256 412.416 436.861 412.676C436.457 412.944 435.991 413.168 435.52 413.395C434.53 413.872 433.516 414.361 432.987 415.289C432.688 415.814 432.706 416.276 432.725 416.766C432.736 417.028 432.746 417.297 432.709 417.589C432.655 418.009 432.191 418.367 431.768 418.693C431.552 418.86 431.347 419.018 431.214 419.171C429.912 420.671 430.217 421.917 430.467 422.936C430.536 423.216 430.6 423.478 430.626 423.724C430.653 423.982 430.649 424.346 430.635 424.734C431.617 424.209 433.165 422.983 432.574 420.656C432.489 420.318 432.69 419.973 433.024 419.887C433.358 419.799 433.698 420.003 433.783 420.341C434.628 423.672 432.202 425.532 430.571 426.158C430.566 426.328 430.566 426.478 430.572 426.6C430.588 426.934 430.82 427.456 431.012 427.887C431.101 428.087 431.181 428.268 431.227 428.4C431.245 428.453 431.263 428.509 431.28 428.568C432.536 426.807 435.415 423.225 438.048 423.22H438.049C438.393 423.22 438.672 423.502 438.673 423.851C438.674 424.199 438.395 424.483 438.05 424.484C435.827 424.488 432.726 428.575 431.719 430.15C431.688 430.198 431.651 430.241 431.611 430.277C431.651 430.576 431.686 430.873 431.717 431.152C431.793 431.836 431.954 432.421 432.178 432.929C432.28 432.981 432.37 433.061 432.433 433.168C432.948 434.031 433.977 434.68 435.255 434.95C436.58 435.229 437.667 435.012 438.115 434.69C438.396 434.488 438.786 434.556 438.985 434.841C439.184 435.126 439.117 435.52 438.836 435.721C438.272 436.125 437.404 436.34 436.44 436.34C436.319 436.34 436.197 436.336 436.073 436.33C436.394 436.495 436.707 436.658 437.001 436.827C437.293 436.995 437.878 437.166 438.443 437.166C439.099 437.166 439.728 436.936 439.844 436.203C440.033 435.008 440.048 433.621 440.041 432.411V432.405L440.04 432.186M440.039 432.137L440.039 432.116L440.04 432.186M440.039 432.137L440.04 432.186M440.039 432.137L440.04 432.214M440.04 432.186L440.04 432.214M440.04 432.214L440.04 432.271M440.04 432.271C440.041 432.309 440.041 432.35 440.041 432.395L440.04 432.271ZM441.161 411.868C441.698 411.308 442.498 411 443.413 411C444.191 411 444.979 411.225 445.574 411.618C445.908 411.839 446.326 412.041 446.769 412.254L446.769 412.254C447.873 412.786 449.124 413.389 449.847 414.658C450.326 415.499 450.297 416.26 450.275 416.816L450.274 416.833C450.268 417.001 450.262 417.153 450.27 417.296C450.378 417.408 450.599 417.579 450.741 417.688C450.997 417.885 451.261 418.089 451.476 418.337C453.21 420.333 452.764 422.154 452.497 423.242C452.439 423.477 452.385 423.699 452.368 423.858C452.336 424.164 452.369 424.813 452.396 425.338L452.397 425.364C452.422 425.857 452.445 426.322 452.428 426.661C452.403 427.193 452.175 427.743 451.879 428.407C451.81 428.561 451.733 428.736 451.705 428.816C451.478 429.478 451.326 430.844 451.276 431.293C450.857 435.075 448.227 436.433 446.307 437.425L446.307 437.425C445.972 437.598 445.657 437.761 445.368 437.926C444.836 438.232 444.028 438.43 443.31 438.43C442.157 438.43 441.276 437.922 440.877 437.066C440.478 437.922 439.597 438.43 438.443 438.43C437.725 438.43 436.918 438.232 436.385 437.926C436.097 437.761 435.781 437.598 435.447 437.425L435.446 437.425C433.526 436.433 430.897 435.075 430.477 431.293C430.428 430.844 430.276 429.477 430.049 428.816C430.021 428.736 429.943 428.561 429.874 428.406C429.579 427.743 429.351 427.192 429.325 426.662C429.309 426.322 429.332 425.858 429.357 425.365L429.358 425.332C429.385 424.809 429.417 424.163 429.385 423.858C429.368 423.699 429.314 423.477 429.256 423.242C428.99 422.154 428.543 420.333 430.278 418.337C430.493 418.089 430.757 417.885 431.013 417.688C431.154 417.579 431.376 417.407 431.483 417.296C431.491 417.155 431.486 417.005 431.48 416.839L431.479 416.816C431.457 416.26 431.427 415.499 431.906 414.658C432.629 413.389 433.88 412.786 434.984 412.254L434.985 412.254C435.427 412.04 435.845 411.839 436.18 411.618C436.775 411.225 437.562 411 438.34 411C439.255 411 440.055 411.308 440.592 411.868C440.699 411.979 440.794 412.098 440.877 412.224C440.96 412.098 441.055 411.979 441.161 411.868ZM434.08 418.899C434.172 418.948 434.271 418.972 434.37 418.972C434.594 418.972 434.81 418.849 434.922 418.634C435.397 417.72 436.971 415.36 438.531 415.468C438.87 415.489 439.171 415.225 439.192 414.877C439.213 414.528 438.952 414.228 438.608 414.207C435.929 414.033 433.903 417.881 433.818 418.045C433.657 418.354 433.774 418.736 434.08 418.899ZM446.913 433.471C446.713 433.471 446.516 433.373 446.395 433.192C446.044 432.664 445.619 432.049 445.405 431.767C445.009 431.761 444.164 431.83 443.932 432.513C443.842 432.774 443.601 432.939 443.342 432.939C443.274 432.939 443.205 432.927 443.138 432.904C442.812 432.789 442.64 432.43 442.752 432.1C443.159 430.908 444.276 430.54 445.16 430.501C445.314 429.22 444.856 428.449 443.736 428.088C443.408 427.982 443.227 427.627 443.331 427.294C443.435 426.962 443.786 426.777 444.115 426.884C445.16 427.221 446.817 428.194 446.356 430.942C446.593 431.237 446.919 431.717 447.43 432.486C447.622 432.775 447.547 433.168 447.261 433.363C447.154 433.436 447.033 433.471 446.913 433.471ZM434.492 433.363C434.598 433.436 434.72 433.471 434.84 433.471C435.04 433.471 435.237 433.373 435.358 433.192C435.709 432.663 436.136 432.046 436.348 431.765C436.741 431.755 437.588 431.819 437.825 432.513C437.914 432.774 438.156 432.939 438.415 432.939C438.482 432.939 438.551 432.927 438.618 432.904C438.944 432.79 439.117 432.43 439.004 432.1C438.596 430.906 437.476 430.539 436.592 430.5C436.438 429.22 436.896 428.449 438.016 428.088C438.344 427.982 438.525 427.627 438.421 427.294C438.316 426.962 437.966 426.777 437.638 426.884C436.592 427.221 434.935 428.194 435.396 430.943C435.16 431.237 434.833 431.718 434.323 432.486C434.13 432.775 434.206 433.168 434.492 433.363ZM447.392 418.971C447.168 418.971 446.951 418.849 446.839 418.634C446.362 417.721 444.791 415.36 443.23 415.468C442.896 415.489 442.59 415.225 442.569 414.877C442.548 414.528 442.809 414.228 443.153 414.207C445.832 414.032 447.858 417.881 447.943 418.045C448.104 418.354 447.987 418.735 447.682 418.898C447.589 418.948 447.49 418.971 447.392 418.971Z" stroke="url(#paint7_linear_20308_49462)" stroke-width="0.0735398" stroke-linejoin="round"/>
</g>
<defs>
<filter id="filter0_d_20308_49462" x="384.226" y="372.226" width="115.548" height="109.548" filterUnits="userSpaceOnUse" color-interpolation-filters="sRGB">
<feFlood flood-opacity="0" result="BackgroundImageFix"/>
<feColorMatrix in="SourceAlpha" type="matrix" values="0 0 0 0 0 0 0 0 0 0 0 0 0 0 0 0 0 0 127 0" result="hardAlpha"/>
<feOffset dx="2" dy="2"/>
<feGaussianBlur stdDeviation="13.3871"/>
<feColorMatrix type="matrix" values="0 0 0 0 0.415686 0 0 0 0 0.890196 0 0 0 0 0.580392 0 0 0 0.2 0"/>
<feBlend mode="normal" in2="BackgroundImageFix" result="effect1_dropShadow_20308_49462"/>
<feBlend mode="normal" in="SourceGraphic" in2="effect1_dropShadow_20308_49462" result="shape"/>
</filter>
<filter id="filter1_di_20308_49462" x="232.973" y="88.9732" width="28.0633" height="28.0613" filterUnits="userSpaceOnUse" color-interpolation-filters="sRGB">
<feFlood flood-opacity="0" result="BackgroundImageFix"/>
<feColorMatrix in="SourceAlpha" type="matrix" values="0 0 0 0 0 0 0 0 0 0 0 0 0 0 0 0 0 0 127 0" result="hardAlpha"/>
<feOffset/>
<feGaussianBlur stdDeviation="6.01338"/>
<feComposite in2="hardAlpha" operator="out"/>
<feColorMatrix type="matrix" values="0 0 0 0 0.415686 0 0 0 0 0.890196 0 0 0 0 0.580392 0 0 0 1 0"/>
<feBlend mode="normal" in2="BackgroundImageFix" result="effect1_dropShadow_20308_49462"/>
<feBlend mode="normal" in="SourceGraphic" in2="effect1_dropShadow_20308_49462" result="shape"/>
<feColorMatrix in="SourceAlpha" type="matrix" values="0 0 0 0 0 0 0 0 0 0 0 0 0 0 0 0 0 0 127 0" result="hardAlpha"/>
<feOffset/>
<feGaussianBlur stdDeviation="0.501115"/>
<feComposite in2="hardAlpha" operator="arithmetic" k2="-1" k3="1"/>
<feColorMatrix type="matrix" values="0 0 0 0 0.415686 0 0 0 0 0.890196 0 0 0 0 0.580392 0 0 0 1 0"/>
<feBlend mode="normal" in2="shape" result="effect2_innerShadow_20308_49462"/>
</filter>
<filter id="filter2_di_20308_49462" x="245" y="96" width="56" height="56" filterUnits="userSpaceOnUse" color-interpolation-filters="sRGB">
<feFlood flood-opacity="0" result="BackgroundImageFix"/>
<feColorMatrix in="SourceAlpha" type="matrix" values="0 0 0 0 0 0 0 0 0 0 0 0 0 0 0 0 0 0 127 0" result="hardAlpha"/>
<feOffset/>
<feGaussianBlur stdDeviation="12"/>
<feComposite in2="hardAlpha" operator="out"/>
<feColorMatrix type="matrix" values="0 0 0 0 0.415686 0 0 0 0 0.890196 0 0 0 0 0.580392 0 0 0 1 0"/>
<feBlend mode="normal" in2="BackgroundImageFix" result="effect1_dropShadow_20308_49462"/>
<feBlend mode="normal" in="SourceGraphic" in2="effect1_dropShadow_20308_49462" result="shape"/>
<feColorMatrix in="SourceAlpha" type="matrix" values="0 0 0 0 0 0 0 0 0 0 0 0 0 0 0 0 0 0 127 0" result="hardAlpha"/>
<feOffset/>
<feGaussianBlur stdDeviation="1"/>
<feComposite in2="hardAlpha" operator="arithmetic" k2="-1" k3="1"/>
<feColorMatrix type="matrix" values="0 0 0 0 0.415686 0 0 0 0 0.890196 0 0 0 0 0.580392 0 0 0 1 0"/>
<feBlend mode="normal" in2="shape" result="effect2_innerShadow_20308_49462"/>
</filter>
<linearGradient id="paint0_linear_20308_49462" x1="934" y1="85.5" x2="-76.5" y2="440.5" gradientUnits="userSpaceOnUse">
<stop offset="0.428818" stop-color="#12131B" stop-opacity="0"/>
<stop offset="1" stop-color="#12131B"/>
</linearGradient>
<linearGradient id="paint1_linear_20308_49462" x1="301.571" y1="-63.9243" x2="-26" y2="-63.9243" gradientUnits="userSpaceOnUse">
<stop offset="0.484506" stop-color="#12131B" stop-opacity="0"/>
<stop offset="0.975902" stop-color="#12131B"/>
</linearGradient>
<linearGradient id="paint2_linear_20308_49462" x1="437.191" y1="408.516" x2="454.457" y2="433.025" gradientUnits="userSpaceOnUse">
<stop stop-color="#9BFABB" stop-opacity="0.85"/>
<stop offset="1" stop-color="#74E39A" stop-opacity="0.54"/>
</linearGradient>
<linearGradient id="paint3_linear_20308_49462" x1="437.191" y1="408.516" x2="454.457" y2="433.025" gradientUnits="userSpaceOnUse">
<stop stop-color="#9BFABB" stop-opacity="0.85"/>
<stop offset="1" stop-color="#74E39A" stop-opacity="0.54"/>
</linearGradient>
<linearGradient id="paint4_linear_20308_49462" x1="437.191" y1="408.516" x2="454.457" y2="433.025" gradientUnits="userSpaceOnUse">
<stop stop-color="#9BFABB" stop-opacity="0.85"/>
<stop offset="1" stop-color="#74E39A" stop-opacity="0.54"/>
</linearGradient>
<linearGradient id="paint5_linear_20308_49462" x1="437.191" y1="408.516" x2="454.457" y2="433.025" gradientUnits="userSpaceOnUse">
<stop stop-color="#9BFABB" stop-opacity="0.85"/>
<stop offset="1" stop-color="#74E39A" stop-opacity="0.54"/>
</linearGradient>
<linearGradient id="paint6_linear_20308_49462" x1="437.191" y1="408.516" x2="454.457" y2="433.025" gradientUnits="userSpaceOnUse">
<stop stop-color="#9BFABB" stop-opacity="0.85"/>
<stop offset="1" stop-color="#74E39A" stop-opacity="0.54"/>
</linearGradient>
<linearGradient id="paint7_linear_20308_49462" x1="436.489" y1="414.429" x2="452.585" y2="433.371" gradientUnits="userSpaceOnUse">
<stop stop-color="#85EDAA"/>
<stop offset="1" stop-color="#63CE87"/>
</linearGradient>
<clipPath id="clip0_20308_49462">
<rect width="496" height="477" fill="white"/>
</clipPath>
</defs>
</svg>
