<svg width="129" height="33" viewBox="0 0 129 33" fill="none" xmlns="http://www.w3.org/2000/svg">
<path d="M21.1437 26.6987C21.2834 26.9085 21.5117 27.0216 21.7433 27.0216C21.8825 27.0216 22.0226 26.9811 22.1464 26.8967C22.4773 26.6709 22.5649 26.2163 22.3419 25.8811C21.75 24.9909 21.3729 24.4343 21.0984 24.0934C21.632 20.9114 19.7132 19.7841 18.5034 19.3939C18.1224 19.27 17.7164 19.4836 17.5955 19.869C17.4746 20.2544 17.6846 20.6656 18.0646 20.788C19.3616 21.2063 19.8923 22.0993 19.7131 23.582C18.6895 23.628 17.3968 24.0532 16.9251 25.434C16.7951 25.8159 16.995 26.2325 17.3721 26.3647C17.4501 26.3918 17.53 26.4052 17.608 26.4052C17.9076 26.4052 18.1875 26.2149 18.291 25.9125C18.5605 25.1215 19.5383 25.041 19.9978 25.0485C20.2446 25.3745 20.7368 26.0876 21.1437 26.6987Z" fill="#6AE394"/>
<path d="M21.658 9.84052C21.7876 10.0888 22.0385 10.2308 22.2977 10.2308C22.4113 10.2308 22.5269 10.2034 22.6338 10.1464C22.9869 9.95759 23.1222 9.51613 22.9363 9.15857C22.8376 8.96882 20.492 4.51081 17.3894 4.71374C16.9906 4.73861 16.6883 5.08593 16.7127 5.48934C16.7373 5.89273 17.0913 6.19859 17.4785 6.17421C19.286 6.04885 21.1056 8.78248 21.658 9.84052Z" fill="#6AE394"/>
<path d="M7.21798 10.2311C7.10431 10.2311 6.98922 10.2037 6.88229 10.1467C6.52878 9.95843 6.39344 9.51601 6.57936 9.15845C6.6781 8.9687 9.02362 4.51264 12.1258 4.71361C12.5246 4.73837 12.827 5.08579 12.8025 5.48921C12.778 5.89263 12.4292 6.19799 12.0367 6.17409C10.2306 6.04921 8.40762 8.78187 7.8576 9.83991C7.72855 10.0887 7.47757 10.2311 7.21798 10.2311Z" fill="#6AE394"/>
<path d="M7.76248 27.0216C7.62328 27.0216 7.48314 26.9811 7.35936 26.8968C7.02849 26.6709 6.94083 26.2163 7.16382 25.8812C7.75526 24.9914 8.13286 24.4348 8.4069 24.0939C7.87277 20.9114 9.79206 19.7841 11.0024 19.3939C11.3829 19.27 11.7884 19.4836 11.9098 19.869C12.0307 20.2539 11.8207 20.6656 11.4407 20.788C10.1438 21.2063 9.61299 22.0993 9.79209 23.5818C10.8158 23.6268 12.1128 24.0516 12.5851 25.4341C12.7151 25.8161 12.5153 26.2326 12.1382 26.3648C12.0601 26.3923 11.9802 26.4053 11.9022 26.4053C11.6026 26.4053 11.3228 26.2151 11.2192 25.9126C10.9448 25.1084 9.96475 25.035 9.50942 25.0465C9.26325 25.3711 8.76969 26.0861 8.36207 26.6987C8.22242 26.9085 7.99415 27.0216 7.76248 27.0216Z" fill="#6AE394"/>
<path fill-rule="evenodd" clip-rule="evenodd" d="M17.6903 1C16.6307 1 15.7046 1.35706 15.0828 2.00536C14.9594 2.1339 14.8495 2.27164 14.7534 2.4177C14.6574 2.2717 14.5476 2.13401 14.4242 2.00552C13.8021 1.35708 12.876 1.00001 11.8164 1.00001C10.9148 1.00001 10.003 1.26099 9.31429 1.7161C8.92706 1.97171 8.44303 2.20488 7.93057 2.4517L7.92987 2.45204C6.65132 3.06805 5.20248 3.76611 4.36508 5.23607C3.81073 6.2102 3.84493 7.09117 3.87045 7.73458L3.87144 7.76135C3.8786 7.95356 3.88506 8.12702 3.87572 8.29067C3.75099 8.41993 3.49427 8.61848 3.33051 8.74482C3.03432 8.97311 2.72848 9.2092 2.47948 9.49603C0.471099 11.8082 0.987871 13.9165 1.2966 15.176C1.36355 15.4481 1.42663 15.7052 1.44592 15.8896C1.48323 16.2424 1.44558 16.9905 1.41507 17.5967L1.41316 17.635C1.38462 18.2058 1.35776 18.7433 1.37672 19.1364C1.40643 19.7511 1.6705 20.3881 2.01246 21.1569C2.09243 21.3359 2.18247 21.5388 2.21425 21.631C2.47769 22.3969 2.6535 23.9798 2.71081 24.4998C3.19675 28.8796 6.2414 30.4518 8.46505 31.6001L8.46588 31.6005C8.85289 31.8004 9.21824 31.9891 9.55233 32.1807C10.1688 32.5353 11.1041 32.7646 11.9354 32.7646C13.2714 32.7646 14.2912 32.176 14.7535 31.185C15.2158 32.1761 16.2357 32.7647 17.5716 32.7647C18.4029 32.7647 19.3382 32.5354 19.9547 32.1808C20.2889 31.9892 20.6543 31.8005 21.0413 31.6006L21.042 31.6002C23.2657 30.4519 26.3103 28.8797 26.7962 24.4999C26.8536 23.9799 27.0294 22.3975 27.2928 21.6316C27.3248 21.539 27.4146 21.336 27.4946 21.157C27.8366 20.3882 28.1005 19.7512 28.1304 19.136C28.1493 18.743 28.1224 18.205 28.0939 17.6336L28.0924 17.6036C28.0616 16.9962 28.0235 16.2437 28.0608 15.8897C28.08 15.7053 28.1432 15.4482 28.2101 15.176C28.5188 13.9165 29.0356 11.8082 27.0272 9.4961C26.7782 9.20929 26.4724 8.97318 26.1762 8.74489C26.0124 8.61857 25.7557 8.42002 25.631 8.29074C25.6215 8.12504 25.6282 7.94931 25.6355 7.75424L25.6363 7.73465C25.6618 7.09124 25.696 6.21027 25.1416 5.23614C24.3043 3.76618 22.8555 3.06812 21.5769 2.45211L21.5762 2.45178C21.0638 2.20497 20.5802 1.97178 20.193 1.71618C19.5038 1.26106 18.5919 1 17.6903 1ZM18.7903 13.0342C18.271 10.2801 16.7386 9.34214 15.7317 9.02297C15.7414 14.0181 15.7428 21.5892 15.7229 25.4382C15.7228 25.4631 15.7227 25.488 15.7225 25.5126L15.7226 25.4861L15.7221 25.5478L15.7225 25.5126L15.7217 25.6432C15.7219 25.6196 15.7219 25.5971 15.7219 25.5755L15.7218 25.5856C15.7214 25.6602 15.7209 25.7279 15.7209 25.776L15.7214 25.7141L15.7209 25.7878V25.7939C15.7128 27.1953 15.7301 28.8016 15.9492 30.186C16.0831 31.0343 16.8123 31.3011 17.5714 31.3011C18.2254 31.3011 18.9026 31.1031 19.2412 30.908C19.5822 30.712 19.9445 30.5238 20.3158 30.332C20.1739 30.3398 20.0331 30.3436 19.8941 30.3436C18.7777 30.3436 17.7721 30.0953 17.119 29.6275C16.7934 29.3943 16.7159 28.9377 16.9466 28.6075C17.1763 28.2777 17.629 28.1997 17.9537 28.4329C18.4733 28.8055 19.7318 29.0577 21.2663 28.7343C22.7463 28.4217 23.9374 27.6695 24.5336 26.6705C24.6064 26.5484 24.7087 26.4558 24.8255 26.3962C25.0856 25.8076 25.2719 25.1288 25.3598 24.3363C25.3956 24.0135 25.4362 23.6694 25.483 23.324C25.4359 23.2815 25.3936 23.2319 25.3576 23.1757C24.1897 21.3523 20.5963 16.6191 18.0263 16.6143C17.627 16.6133 17.3043 16.285 17.3053 15.8811C17.3058 15.4777 17.6289 15.1509 18.0277 15.1509H18.0287C21.0774 15.1563 24.4116 19.306 25.8659 21.3443C25.886 21.2767 25.9067 21.2116 25.9281 21.1495C25.9807 20.9964 26.0737 20.7874 26.1769 20.5553C26.3987 20.0567 26.6679 19.4514 26.6866 19.0647C26.6935 18.9239 26.6925 18.7483 26.687 18.5504C24.7985 17.8236 21.9966 15.6707 22.9731 11.8173C23.0723 11.4261 23.4649 11.1895 23.853 11.2909C24.2393 11.3909 24.4724 11.79 24.3732 12.1817C23.691 14.8719 25.4759 16.2907 26.6132 16.9013C26.5967 16.4523 26.5925 16.0333 26.624 15.7344C26.6539 15.45 26.7283 15.1462 26.8076 14.8227C27.0968 13.6426 27.4507 12.1988 25.9425 10.4623C25.7882 10.2847 25.5509 10.1016 25.3008 9.90871C24.8117 9.53141 24.2737 9.11635 24.2115 8.6306C24.1685 8.29264 24.1807 7.98016 24.1926 7.67705C24.2148 7.10953 24.2358 6.57485 23.8898 5.96721C23.2775 4.89185 22.1023 4.3257 20.9558 3.77338C20.4105 3.51069 19.8716 3.25112 19.403 2.94138C18.9464 2.6399 18.3078 2.46333 17.6903 2.46333C16.6543 2.46333 15.6766 2.95967 15.7112 4.19235C15.7175 4.41143 15.7235 5.68207 15.7283 7.53054C17.0769 7.85689 19.4951 8.96939 20.2103 12.7595C20.2849 13.1566 20.0282 13.5395 19.6357 13.6156C19.5899 13.6244 19.5446 13.629 19.4994 13.629C19.1598 13.629 18.8568 13.3849 18.7903 13.0342ZM13.7784 7.53124C12.4294 7.85849 10.0143 8.97213 9.29954 12.7595C9.22489 13.1566 9.4816 13.5395 9.87413 13.6156C9.9199 13.6248 9.96519 13.629 10.0104 13.629C10.35 13.629 10.6529 13.3849 10.7194 13.0342C11.2328 10.3122 12.765 9.36453 13.775 9.03466C13.7653 14.031 13.7638 21.5955 13.7837 25.4406L13.7838 25.4773L13.7837 25.4524L13.7841 25.534L13.7856 25.7876V25.7937C13.7938 27.1951 13.7762 28.8015 13.5573 30.1858C13.4234 31.0341 12.6947 31.301 11.9351 31.301C11.2811 31.301 10.6039 31.1029 10.2653 30.9078C9.92445 30.7119 9.56241 30.5238 9.19121 30.3321C9.33396 30.3399 9.47545 30.3438 9.61519 30.3438C10.7316 30.3438 11.7372 30.0955 12.3903 29.6277C12.7159 29.3945 12.7934 28.938 12.5627 28.6077C12.3325 28.278 11.8803 28.1999 11.5557 28.4331C11.036 28.8058 9.77749 29.058 8.24302 28.7346C6.76298 28.4219 5.57192 27.6697 4.97566 26.6707C4.90215 26.5474 4.79863 26.4542 4.68039 26.3945C4.42059 25.8063 4.23449 25.128 4.14674 24.3361C4.11092 24.0133 4.07029 23.669 4.02343 23.3236C4.07034 23.2811 4.1125 23.2317 4.14834 23.1757C5.31484 21.3523 8.90634 16.6192 11.4802 16.6143C11.8794 16.6133 12.2021 16.285 12.2011 15.8811C12.2007 15.4777 11.8775 15.1509 11.4787 15.1509H11.4777C8.4289 15.1563 5.09503 19.3052 3.6405 21.3438C3.62042 21.2762 3.59973 21.2113 3.57842 21.1493C3.5258 20.9962 3.43284 20.7872 3.32961 20.5551C3.10783 20.0565 2.83859 19.4512 2.81986 19.0645C2.81307 18.9243 2.814 18.7496 2.81945 18.5527C4.70803 17.828 7.51674 15.6747 6.53924 11.8173C6.44002 11.4261 6.04653 11.1895 5.6593 11.2909C5.27304 11.3909 5.03992 11.79 5.13914 12.1817C5.82263 14.8766 4.03032 16.2957 2.89318 16.9046C2.90975 16.4543 2.91403 16.0339 2.88248 15.7342C2.85263 15.4498 2.7782 15.146 2.6989 14.8225C2.4097 13.6425 2.05584 12.1986 3.56399 10.4621C3.71832 10.2845 3.9556 10.1015 4.20569 9.90855C4.6948 9.53124 5.23287 9.11617 5.29502 8.63041C5.33811 8.29244 5.32586 7.97997 5.31397 7.67686C5.29172 7.10934 5.27076 6.57466 5.61675 5.96701C6.22905 4.89166 7.40427 4.32552 8.55079 3.7732C9.0961 3.5105 9.63492 3.25093 10.1036 2.94119C10.5607 2.63926 11.1988 2.46314 11.8163 2.46314C12.8522 2.46314 13.83 2.95999 13.7953 4.19217C13.7891 4.41129 13.7831 5.6823 13.7784 7.53124ZM13.7844 25.5666L13.7841 25.534L13.7838 25.4773L13.7844 25.5666ZM13.7856 25.7758C13.7854 25.7239 13.7851 25.6764 13.7848 25.6326L13.7856 25.7758Z" fill="#6AE394"/>
<path d="M15.7225 25.5126C15.7227 25.488 15.7228 25.4631 15.7229 25.4382C15.7428 21.5892 15.7414 14.0181 15.7317 9.02297C16.7386 9.34214 18.271 10.2801 18.7903 13.0342C18.8568 13.3849 19.1598 13.629 19.4994 13.629C19.5446 13.629 19.5899 13.6244 19.6357 13.6156C20.0282 13.5395 20.2849 13.1566 20.2103 12.7595C19.4951 8.96939 17.0769 7.85689 15.7283 7.53054C15.7235 5.68207 15.7175 4.41143 15.7112 4.19235C15.6766 2.95967 16.6543 2.46333 17.6903 2.46333C18.3078 2.46333 18.9464 2.6399 19.403 2.94138C19.8716 3.25112 20.4105 3.51069 20.9558 3.77338C22.1023 4.3257 23.2775 4.89185 23.8898 5.96721C24.2358 6.57485 24.2148 7.10953 24.1926 7.67705C24.1807 7.98016 24.1685 8.29264 24.2115 8.6306C24.2737 9.11635 24.8117 9.53141 25.3008 9.90871C25.5509 10.1016 25.7882 10.2847 25.9425 10.4623C27.4507 12.1988 27.0968 13.6426 26.8076 14.8227C26.7283 15.1462 26.6539 15.45 26.624 15.7344C26.5925 16.0333 26.5967 16.4523 26.6132 16.9013C25.4759 16.2907 23.691 14.8719 24.3732 12.1817C24.4724 11.79 24.2393 11.3909 23.853 11.2909C23.4649 11.1895 23.0723 11.4261 22.9731 11.8173C21.9966 15.6707 24.7985 17.8236 26.687 18.5504C26.6925 18.7483 26.6935 18.9239 26.6866 19.0647C26.6679 19.4514 26.3987 20.0567 26.1769 20.5553C26.0737 20.7874 25.9807 20.9964 25.9281 21.1495C25.9067 21.2116 25.886 21.2767 25.8659 21.3443C24.4116 19.306 21.0774 15.1563 18.0287 15.1509H18.0277C17.6289 15.1509 17.3058 15.4777 17.3053 15.8811C17.3043 16.285 17.627 16.6133 18.0263 16.6143C20.5963 16.6191 24.1897 21.3523 25.3576 23.1757C25.3936 23.2319 25.4359 23.2815 25.483 23.324C25.4362 23.6694 25.3956 24.0135 25.3598 24.3363C25.2719 25.1288 25.0856 25.8076 24.8255 26.3962C24.7087 26.4558 24.6064 26.5484 24.5336 26.6705C23.9374 27.6695 22.7463 28.4217 21.2663 28.7343C19.7318 29.0577 18.4733 28.8055 17.9537 28.4329C17.629 28.1997 17.1763 28.2777 16.9466 28.6075C16.7159 28.9377 16.7934 29.3943 17.119 29.6275C17.7721 30.0953 18.7777 30.3436 19.8941 30.3436C20.0331 30.3436 20.1739 30.3398 20.3158 30.332C19.9445 30.5238 19.5822 30.712 19.2412 30.908C18.9026 31.1031 18.2254 31.3011 17.5714 31.3011C16.8123 31.3011 16.0831 31.0343 15.9492 30.186C15.7301 28.8016 15.7128 27.1953 15.7209 25.7939V25.7878L15.7214 25.7141L15.7209 25.776C15.7209 25.7279 15.7214 25.6602 15.7218 25.5856L15.7219 25.5755C15.7219 25.5971 15.7219 25.6196 15.7217 25.6432L15.7225 25.5126ZM15.7225 25.5126L15.7226 25.4861L15.7221 25.5478L15.7225 25.5126ZM13.7838 25.4773L13.7837 25.4406C13.7638 21.5955 13.7653 14.031 13.775 9.03466C12.765 9.36453 11.2328 10.3122 10.7194 13.0342C10.6529 13.3849 10.35 13.629 10.0104 13.629C9.96519 13.629 9.9199 13.6248 9.87413 13.6156C9.4816 13.5395 9.22489 13.1566 9.29954 12.7595C10.0143 8.97213 12.4294 7.85849 13.7784 7.53124C13.7831 5.6823 13.7891 4.41129 13.7953 4.19217C13.83 2.95999 12.8522 2.46314 11.8163 2.46314C11.1988 2.46314 10.5607 2.63926 10.1036 2.94119C9.63492 3.25093 9.0961 3.5105 8.55079 3.7732C7.40427 4.32552 6.22905 4.89166 5.61675 5.96701C5.27076 6.57466 5.29172 7.10934 5.31397 7.67686C5.32586 7.97997 5.33811 8.29244 5.29502 8.63041C5.23287 9.11617 4.6948 9.53124 4.20569 9.90855C3.9556 10.1015 3.71832 10.2845 3.56399 10.4621C2.05584 12.1986 2.4097 13.6425 2.6989 14.8225C2.7782 15.146 2.85263 15.4498 2.88248 15.7342C2.91403 16.0339 2.90975 16.4543 2.89318 16.9046C4.03032 16.2957 5.82263 14.8766 5.13914 12.1817C5.03992 11.79 5.27304 11.3909 5.6593 11.2909C6.04653 11.1895 6.44002 11.4261 6.53924 11.8173C7.51674 15.6747 4.70803 17.828 2.81945 18.5527C2.814 18.7496 2.81307 18.9243 2.81986 19.0645C2.83859 19.4512 3.10783 20.0565 3.32961 20.5551C3.43284 20.7872 3.5258 20.9962 3.57842 21.1493C3.59973 21.2113 3.62042 21.2762 3.6405 21.3438C5.09503 19.3052 8.4289 15.1563 11.4777 15.1509H11.4787C11.8775 15.1509 12.2007 15.4777 12.2011 15.8811C12.2021 16.285 11.8794 16.6133 11.4802 16.6143C8.90634 16.6192 5.31484 21.3523 4.14834 23.1757C4.1125 23.2317 4.07034 23.2811 4.02343 23.3236C4.07029 23.669 4.11092 24.0133 4.14674 24.3361C4.23449 25.128 4.42059 25.8063 4.68039 26.3945C4.79863 26.4542 4.90215 26.5474 4.97566 26.6707C5.57192 27.6697 6.76298 28.4219 8.24302 28.7346C9.77749 29.058 11.036 28.8058 11.5557 28.4331C11.8803 28.1999 12.3325 28.278 12.5627 28.6077C12.7934 28.938 12.7159 29.3945 12.3903 29.6277C11.7372 30.0955 10.7316 30.3438 9.61519 30.3438C9.47545 30.3438 9.33396 30.3399 9.19121 30.3321C9.56241 30.5238 9.92445 30.7119 10.2653 30.9078C10.6039 31.1029 11.2811 31.301 11.9351 31.301C12.6947 31.301 13.4234 31.0341 13.5573 30.1858C13.7762 28.8015 13.7938 27.1951 13.7856 25.7937V25.7876L13.7841 25.534M13.7838 25.4773L13.7837 25.4524L13.7841 25.534M13.7838 25.4773L13.7841 25.534M13.7838 25.4773L13.7844 25.5666M13.7841 25.534L13.7844 25.5666M13.7844 25.5666L13.7848 25.6326M13.7848 25.6326C13.7851 25.6764 13.7854 25.7239 13.7856 25.7758L13.7848 25.6326ZM15.0828 2.00536C15.7046 1.35706 16.6307 1 17.6903 1C18.5919 1 19.5038 1.26106 20.193 1.71618C20.5802 1.97178 21.0638 2.20497 21.5762 2.45178L21.5769 2.45211C22.8555 3.06812 24.3043 3.76618 25.1416 5.23614C25.696 6.21027 25.6618 7.09124 25.6363 7.73465L25.6355 7.75424C25.6282 7.94931 25.6215 8.12504 25.631 8.29074C25.7557 8.42002 26.0124 8.61857 26.1762 8.74489C26.4724 8.97318 26.7782 9.20929 27.0272 9.4961C29.0356 11.8082 28.5188 13.9165 28.2101 15.176C28.1432 15.4482 28.08 15.7053 28.0608 15.8897C28.0235 16.2437 28.0616 16.9962 28.0924 17.6036L28.0939 17.6336C28.1224 18.205 28.1493 18.743 28.1304 19.136C28.1005 19.7512 27.8366 20.3882 27.4946 21.157C27.4146 21.336 27.3248 21.539 27.2928 21.6316C27.0294 22.3975 26.8536 23.9799 26.7962 24.4999C26.3103 28.8797 23.2657 30.4519 21.042 31.6002L21.0413 31.6006C20.6543 31.8005 20.2889 31.9892 19.9547 32.1808C19.3382 32.5354 18.4029 32.7647 17.5716 32.7647C16.2357 32.7647 15.2158 32.1761 14.7535 31.185C14.2912 32.176 13.2714 32.7646 11.9354 32.7646C11.1041 32.7646 10.1688 32.5353 9.55233 32.1807C9.21824 31.9891 8.85289 31.8004 8.46588 31.6005L8.46505 31.6001C6.2414 30.4518 3.19675 28.8796 2.71081 24.4998C2.6535 23.9798 2.47769 22.3969 2.21425 21.631C2.18247 21.5388 2.09243 21.3359 2.01246 21.1569C1.6705 20.3881 1.40643 19.7511 1.37672 19.1364C1.35776 18.7433 1.38462 18.2058 1.41316 17.635L1.41507 17.5967C1.44558 16.9905 1.48323 16.2424 1.44592 15.8896C1.42663 15.7052 1.36355 15.4481 1.2966 15.176C0.987871 13.9165 0.471099 11.8082 2.47948 9.49603C2.72848 9.2092 3.03432 8.97311 3.33051 8.74482C3.49427 8.61848 3.75099 8.41993 3.87572 8.29067C3.88506 8.12702 3.8786 7.95356 3.87144 7.76135L3.87045 7.73458C3.84493 7.09117 3.81073 6.2102 4.36508 5.23607C5.20248 3.76611 6.65132 3.06805 7.92987 2.45204L7.93057 2.4517C8.44303 2.20488 8.92706 1.97171 9.31429 1.7161C10.003 1.26099 10.9148 1.00001 11.8164 1.00001C12.876 1.00001 13.8021 1.35708 14.4242 2.00552C14.5476 2.13401 14.6574 2.2717 14.7534 2.4177C14.8495 2.27164 14.9594 2.1339 15.0828 2.00536ZM6.88229 10.1467C6.98922 10.2037 7.10431 10.2311 7.21798 10.2311C7.47757 10.2311 7.72855 10.0887 7.8576 9.83991C8.40762 8.78187 10.2306 6.04921 12.0367 6.17409C12.4292 6.19799 12.778 5.89263 12.8025 5.48921C12.827 5.08579 12.5246 4.73837 12.1258 4.71361C9.02362 4.51264 6.6781 8.9687 6.57936 9.15845C6.39344 9.51601 6.52878 9.95843 6.88229 10.1467ZM21.7433 27.0216C21.5117 27.0216 21.2834 26.9085 21.1437 26.6987C20.7368 26.0876 20.2446 25.3745 19.9978 25.0485C19.5383 25.041 18.5605 25.1215 18.291 25.9125C18.1875 26.2149 17.9076 26.4052 17.608 26.4052C17.53 26.4052 17.4501 26.3918 17.3721 26.3647C16.995 26.2325 16.7951 25.8159 16.9251 25.434C17.3968 24.0532 18.6895 23.628 19.7131 23.582C19.8923 22.0993 19.3616 21.2063 18.0646 20.788C17.6846 20.6656 17.4746 20.2544 17.5955 19.869C17.7164 19.4836 18.1224 19.27 18.5034 19.3939C19.7132 19.7841 21.632 20.9114 21.0984 24.0934C21.3729 24.4343 21.75 24.9909 22.3419 25.8811C22.5649 26.2163 22.4773 26.6709 22.1464 26.8967C22.0226 26.9811 21.8825 27.0216 21.7433 27.0216ZM7.35936 26.8968C7.48314 26.9811 7.62328 27.0216 7.76248 27.0216C7.99415 27.0216 8.22242 26.9085 8.36207 26.6987C8.76969 26.0861 9.26325 25.3711 9.50942 25.0465C9.96475 25.035 10.9448 25.1084 11.2192 25.9126C11.3228 26.2151 11.6026 26.4053 11.9022 26.4053C11.9802 26.4053 12.0601 26.3923 12.1382 26.3648C12.5153 26.2326 12.7151 25.8161 12.5851 25.4341C12.1128 24.0516 10.8158 23.6268 9.79209 23.5818C9.61299 22.0993 10.1438 21.2063 11.4407 20.788C11.8207 20.6656 12.0307 20.2539 11.9098 19.869C11.7884 19.4836 11.3829 19.27 11.0024 19.3939C9.79206 19.7841 7.87277 20.9114 8.4069 24.0939C8.13286 24.4348 7.75526 24.9914 7.16382 25.8812C6.94083 26.2163 7.02849 26.6709 7.35936 26.8968ZM22.2977 10.2308C22.0385 10.2308 21.7876 10.0888 21.658 9.84052C21.1056 8.78248 19.286 6.04885 17.4785 6.17421C17.0913 6.19859 16.7373 5.89273 16.7127 5.48934C16.6883 5.08593 16.9906 4.73861 17.3894 4.71374C20.492 4.51081 22.8376 8.96882 22.9363 9.15857C23.1222 9.51613 22.9869 9.95759 22.6338 10.1464C22.5269 10.2034 22.4113 10.2308 22.2977 10.2308Z" stroke="#6AE394" stroke-width="0.0851601" stroke-linejoin="round"/>
<path d="M50.5277 10.143C49.6328 9.42129 48.3915 8.98828 46.9481 8.98828C45.1583 8.98828 43.051 9.42129 41.3478 10.143C41.088 10.2584 40.9725 10.4317 40.9148 10.6626L38.5188 23.855C38.4611 24.2014 38.6343 24.4035 38.9518 24.4035H42.2716C42.5603 24.4035 42.7335 24.2591 42.7912 23.9416L44.7542 13.1163C45.1583 12.9142 45.7934 12.7699 46.4285 12.7699C47.7275 12.7699 48.3337 13.5782 48.0162 15.4257L46.544 23.855C46.4862 24.1725 46.6594 24.4035 47.0058 24.4035H50.2678C50.5565 24.4035 50.7586 24.2303 50.7875 23.9416L52.202 16.0319C52.3752 15.0504 52.3752 14.0978 52.2308 13.2895C52.7504 13.0009 53.4721 12.7699 54.165 12.7699C55.5506 12.7699 56.2145 13.5782 55.897 15.4257L54.4248 23.855C54.3959 24.1725 54.5402 24.4035 54.8866 24.4035H58.1487C58.4373 24.4035 58.6394 24.2303 58.6683 23.9416L60.1116 16.0319C60.8045 11.9328 58.7837 8.98828 54.8 8.98828C53.3567 8.98828 51.8844 9.42129 50.5277 10.143Z" fill="#303139"/>
<path d="M62.8773 14.5308L62.1267 18.7166C61.4628 22.4694 64.0897 24.7788 67.8713 24.7788C70.3828 24.7788 72.3458 24.0859 73.9046 23.0178C74.1644 22.8735 74.1933 22.6137 74.0778 22.325L72.8943 20.1022C72.7499 19.7847 72.519 19.7558 72.2303 19.9579C71.0756 20.6507 69.7477 21.1126 68.4775 21.1126C66.8898 21.1126 66.197 20.362 66.4857 18.8321L66.5723 18.4279H74.5974C74.8861 18.4279 75.0593 18.2836 75.117 17.9949L75.6078 15.1948C76.3872 10.9513 73.7603 8.98828 70.0653 8.98828C66.5723 8.98828 63.5701 10.7492 62.8773 14.5308ZM71.4509 14.8195L71.3066 15.5412H67.0919L67.2362 14.7618C67.4961 13.405 68.4487 12.6544 69.69 12.6544C71.1622 12.6544 71.653 13.6648 71.4509 14.8195Z" fill="#303139"/>
<path d="M88.5853 10.143C87.6904 9.42129 86.4491 8.98828 85.0057 8.98828C83.2159 8.98828 81.1086 9.42129 79.4054 10.143C79.1456 10.2584 79.0302 10.4317 78.9724 10.6626L76.5764 23.855C76.5187 24.2014 76.6919 24.4035 77.0094 24.4035H80.3292C80.6179 24.4035 80.7911 24.2591 80.8488 23.9416L82.8118 13.1163C83.2159 12.9142 83.851 12.7699 84.4861 12.7699C85.7851 12.7699 86.3914 13.5782 86.0738 15.4257L84.6016 23.855C84.5438 24.1725 84.717 24.4035 85.0635 24.4035H88.3255C88.6141 24.4035 88.8162 24.2303 88.8451 23.9416L90.2596 16.0319C90.4328 15.0504 90.4328 14.0978 90.2885 13.2895C90.8081 13.0009 91.5297 12.7699 92.2226 12.7699C93.6082 12.7699 94.2722 13.5782 93.9546 15.4257L92.4824 23.855C92.4535 24.1725 92.5978 24.4035 92.9443 24.4035H96.2063C96.4949 24.4035 96.697 24.2303 96.7259 23.9416L98.1693 16.0319C98.8621 11.9328 96.8414 8.98828 92.8576 8.98828C91.4143 8.98828 89.942 9.42129 88.5853 10.143Z" fill="#303139"/>
<path d="M100.935 14.5308L100.184 18.7166C99.5204 22.4694 102.147 24.7788 105.929 24.7788C108.44 24.7788 110.403 24.0859 111.962 23.0178C112.222 22.8735 112.251 22.6137 112.135 22.325L110.952 20.1022C110.808 19.7847 110.577 19.7558 110.288 19.9579C109.133 20.6507 107.805 21.1126 106.535 21.1126C104.947 21.1126 104.255 20.362 104.543 18.8321L104.63 18.4279H112.655C112.944 18.4279 113.117 18.2836 113.175 17.9949L113.665 15.1948C114.445 10.9513 111.818 8.98828 108.123 8.98828C104.63 8.98828 101.628 10.7492 100.935 14.5308ZM109.509 14.8195L109.364 15.5412H105.15L105.294 14.7618C105.554 13.405 106.506 12.6544 107.748 12.6544C109.22 12.6544 109.711 13.6648 109.509 14.8195Z" fill="#303139"/>
<path d="M128.525 9.39242H124.888C124.599 9.39242 124.426 9.47903 124.311 9.70997L121.626 14.0978L120.471 9.79657C120.385 9.50789 120.212 9.39242 119.923 9.39242H116.43C116.084 9.39242 115.939 9.5945 116.055 9.94091L118.508 16.6093L113.226 23.7973C112.995 24.1148 113.139 24.4035 113.572 24.4035H117.325C117.585 24.4035 117.787 24.288 117.931 24.0571L120.818 19.7847L122.117 23.9705C122.203 24.2591 122.377 24.4035 122.665 24.4035H126.216C126.591 24.4035 126.764 24.1725 126.62 23.8261L123.935 16.9268L128.843 9.96977C129.074 9.65223 128.93 9.39242 128.525 9.39242Z" fill="#303139"/>
</svg>
