<svg width="74" height="18" viewBox="0 0 74 18" fill="none" xmlns="http://www.w3.org/2000/svg">
<path d="M11.1827 13.9445C11.2533 14.0502 11.3687 14.1072 11.4858 14.1072C11.5562 14.1072 11.627 14.0868 11.6896 14.0443C11.8569 13.9305 11.9012 13.7015 11.7884 13.5327C11.4892 13.0843 11.2986 12.804 11.1598 12.6322C11.4296 11.0295 10.4596 10.4616 9.84803 10.2651C9.65545 10.2027 9.45021 10.3103 9.3891 10.5044C9.32799 10.6985 9.43414 10.9056 9.62623 10.9673C10.2819 11.178 10.5502 11.6278 10.4596 12.3746C9.94212 12.3978 9.28865 12.612 9.05022 13.3075C8.98448 13.4999 9.08552 13.7097 9.27615 13.7763C9.31558 13.79 9.35599 13.7967 9.39544 13.7967C9.54687 13.7967 9.68834 13.7008 9.74068 13.5485C9.87693 13.1501 10.3712 13.1095 10.6035 13.1133C10.7282 13.2775 10.977 13.6367 11.1827 13.9445Z" fill="url(#paint0_linear_4708_11147)" fill-opacity="0.8"/>
<path d="M11.4427 5.453C11.5082 5.57807 11.6351 5.64957 11.7661 5.64957C11.8235 5.64957 11.8819 5.6358 11.936 5.60706C12.1145 5.51197 12.1829 5.2896 12.0889 5.1095C12.039 5.01392 10.8533 2.76841 9.28491 2.87062C9.08333 2.88315 8.93048 3.0581 8.94284 3.2613C8.95526 3.46449 9.1342 3.61855 9.32995 3.60627C10.2437 3.54312 11.1635 4.92006 11.4427 5.453Z" fill="url(#paint1_linear_4708_11147)" fill-opacity="0.8"/>
<path d="M4.14322 5.64974C4.08576 5.64974 4.02758 5.63593 3.97352 5.60724C3.79482 5.5124 3.72641 5.28954 3.82039 5.10944C3.8703 5.01386 5.05598 2.76933 6.62413 2.87056C6.82572 2.88303 6.97862 3.05803 6.9662 3.26123C6.95384 3.46443 6.77752 3.61825 6.57909 3.60621C5.6661 3.54331 4.74458 4.91976 4.46655 5.45269C4.40131 5.57801 4.27444 5.64974 4.14322 5.64974Z" fill="url(#paint2_linear_4708_11147)" fill-opacity="0.8"/>
<path d="M4.41846 14.1072C4.3481 14.1072 4.27726 14.0868 4.21469 14.0443C4.04743 13.9305 4.00311 13.7015 4.11584 13.5327C4.41481 13.0846 4.60569 12.8042 4.74422 12.6325C4.47422 11.0295 5.44442 10.4616 6.05625 10.2651C6.24859 10.2027 6.45359 10.3103 6.51494 10.5044C6.57605 10.6983 6.4699 10.9056 6.27781 10.9673C5.62221 11.178 5.35391 11.6278 5.44444 12.3745C5.96192 12.3972 6.61758 12.6112 6.85633 13.3076C6.92205 13.4999 6.82102 13.7098 6.63039 13.7764C6.59094 13.7902 6.55054 13.7968 6.5111 13.7968C6.35966 13.7968 6.21821 13.7009 6.16586 13.5486C6.02717 13.1435 5.53172 13.1065 5.30155 13.1123C5.17711 13.2758 4.92761 13.6359 4.72156 13.9445C4.65097 14.0502 4.53557 14.1072 4.41846 14.1072Z" fill="url(#paint3_linear_4708_11147)" fill-opacity="0.8"/>
<path fill-rule="evenodd" clip-rule="evenodd" d="M9.43704 1C8.90141 1 8.43323 1.17985 8.11892 1.5064C8.05654 1.57115 8.00099 1.64053 7.95243 1.7141C7.90389 1.64056 7.84836 1.5712 7.786 1.50649C7.47154 1.17986 7.00336 1 6.46773 1C6.01197 1 5.55106 1.13146 5.20291 1.3607C5.00716 1.48945 4.76248 1.6069 4.50344 1.73123L4.50308 1.7314C3.85677 2.04168 3.12437 2.3933 2.70106 3.13372C2.42084 3.6244 2.43812 4.06814 2.45103 4.39223L2.45153 4.40572C2.45515 4.50253 2.45841 4.58991 2.45369 4.67234C2.39064 4.73744 2.26086 4.83745 2.17809 4.90109C2.02836 5.01609 1.87375 5.13501 1.74788 5.27948C0.732638 6.44413 0.993869 7.50607 1.14993 8.14048C1.18377 8.27758 1.21566 8.40708 1.22542 8.49996C1.24427 8.67763 1.22524 9.05449 1.20982 9.35984L1.20885 9.37912C1.19443 9.66663 1.18085 9.93735 1.19043 10.1354C1.20545 10.445 1.33894 10.7659 1.5118 11.1531C1.55223 11.2433 1.59774 11.3455 1.61381 11.3919C1.74698 11.7777 1.83585 12.575 1.86482 12.8369C2.11047 15.0431 3.64955 15.835 4.77362 16.4134L4.77404 16.4136C4.96967 16.5143 5.15436 16.6093 5.32324 16.7058C5.63487 16.8845 6.10768 16.9999 6.5279 16.9999C7.20323 16.9999 7.71876 16.7035 7.95246 16.2043C8.18614 16.7035 8.70169 17 9.37704 17C9.79726 17 10.2701 16.8845 10.5817 16.7059C10.7506 16.6094 10.9353 16.5143 11.131 16.4136L11.1313 16.4134C12.2554 15.835 13.7945 15.0431 14.0401 12.837C14.0691 12.5751 14.158 11.778 14.2911 11.3922C14.3073 11.3455 14.3527 11.2433 14.3932 11.1532C14.566 10.7659 14.6994 10.445 14.7145 10.1352C14.7241 9.93723 14.7105 9.6662 14.6961 9.37841L14.6953 9.36328C14.6798 9.05732 14.6605 8.67832 14.6794 8.5C14.689 8.40712 14.721 8.27763 14.7548 8.14053C14.9109 7.50611 15.1721 6.44415 14.1569 5.27952C14.031 5.13505 13.8764 5.01612 13.7267 4.90113C13.6439 4.8375 13.5141 4.73749 13.4511 4.67237C13.4463 4.58891 13.4496 4.50039 13.4534 4.40214L13.4537 4.39227C13.4667 4.06818 13.4839 3.62443 13.2037 3.13376C12.7804 2.39333 12.048 2.04172 11.4017 1.73143L11.4014 1.73127C11.1423 1.60695 10.8979 1.48949 10.7021 1.36074C10.3537 1.1315 9.8928 1 9.43704 1ZM9.99309 7.06166C9.73055 5.6744 8.95593 5.20197 8.44692 5.0412C8.45184 7.55724 8.45253 11.3709 8.44247 13.3096C8.44245 13.3221 8.44237 13.3347 8.44228 13.3471L8.44235 13.3337L8.44211 13.3648L8.44228 13.3471L8.44191 13.4129C8.44196 13.401 8.44199 13.3896 8.44199 13.3787L8.44196 13.3839C8.44172 13.4214 8.4415 13.4555 8.4415 13.4797L8.44171 13.4486L8.4415 13.4857V13.4888C8.43738 14.1947 8.44612 15.0038 8.55691 15.7011C8.62459 16.1284 8.9932 16.2628 9.3769 16.2628C9.70753 16.2628 10.0498 16.163 10.221 16.0647C10.3934 15.966 10.5765 15.8712 10.7642 15.7746C10.6925 15.7785 10.6213 15.7805 10.5511 15.7805C9.98671 15.7805 9.47836 15.6554 9.14822 15.4198C8.98364 15.3023 8.94444 15.0723 9.06106 14.906C9.1772 14.7399 9.40605 14.7006 9.57015 14.818C9.83285 15.0058 10.469 15.1328 11.2447 14.9699C11.9929 14.8124 12.595 14.4335 12.8964 13.9303C12.9332 13.8688 12.9848 13.8222 13.0439 13.7921C13.1754 13.4957 13.2696 13.1538 13.314 12.7546C13.3321 12.592 13.3526 12.4187 13.3763 12.2447C13.3525 12.2233 13.3311 12.1983 13.3129 12.17C12.7225 11.2515 10.906 8.86742 9.60687 8.86496C9.40503 8.86446 9.24191 8.69911 9.2424 8.49566C9.24264 8.29246 9.40601 8.12784 9.6076 8.12784H9.60809C11.1492 8.1306 12.8347 10.2208 13.5698 11.2475C13.58 11.2134 13.5905 11.1807 13.6013 11.1494C13.6279 11.0723 13.6748 10.967 13.727 10.8501C13.8391 10.5989 13.9752 10.2941 13.9847 10.0992C13.9882 10.0283 13.9877 9.9399 13.9849 9.84022C13.0302 9.47409 11.6139 8.38971 12.1075 6.4487C12.1577 6.25164 12.3561 6.13247 12.5523 6.18358C12.7476 6.23395 12.8654 6.43494 12.8153 6.63224C12.4704 7.98732 13.3727 8.70196 13.9476 9.00952C13.9393 8.7834 13.9371 8.57233 13.9531 8.42179C13.9681 8.27849 14.0058 8.1255 14.0459 7.96252C14.192 7.36815 14.3709 6.64087 13.6086 5.76619C13.5305 5.67674 13.4106 5.58453 13.2842 5.48735C13.0369 5.2973 12.765 5.08823 12.7335 4.84356C12.7118 4.67333 12.7179 4.51593 12.724 4.36325C12.7352 4.07739 12.7458 3.80807 12.5709 3.502C12.2614 2.96034 11.6673 2.67517 11.0877 2.39696C10.8121 2.26464 10.5397 2.1339 10.3028 1.97788C10.072 1.82602 9.74915 1.73709 9.43703 1.73709C8.91333 1.73709 8.41907 1.98709 8.43656 2.608C8.43975 2.71835 8.4428 3.35838 8.44522 4.28945C9.12694 4.45384 10.3493 5.01421 10.7109 6.92333C10.7486 7.12333 10.6188 7.31621 10.4204 7.35454C10.3973 7.35895 10.3744 7.36126 10.3515 7.36126C10.1799 7.36126 10.0267 7.23831 9.99309 7.06166ZM7.45952 4.28981C6.7776 4.45465 5.55678 5.01559 5.19546 6.92333C5.15772 7.12333 5.28749 7.3162 5.48591 7.35454C5.50905 7.35914 5.53194 7.36126 5.55481 7.36126C5.72645 7.36126 5.87959 7.23832 5.91318 7.06166C6.17272 5.69057 6.94727 5.21324 7.45782 5.04709C7.45291 7.56376 7.45216 11.374 7.46219 13.3108L7.46229 13.3293L7.46219 13.3167L7.46244 13.3579L7.46316 13.4856V13.4887C7.46734 14.1946 7.45841 15.0037 7.34775 15.701C7.28006 16.1283 6.9117 16.2627 6.52776 16.2627C6.19713 16.2627 5.85482 16.1629 5.68367 16.0647C5.51135 15.966 5.32833 15.8712 5.14069 15.7747C5.21286 15.7786 5.28438 15.7806 5.35502 15.7806C5.91937 15.7806 6.42772 15.6555 6.75786 15.4199C6.92244 15.3024 6.96162 15.0724 6.84502 14.9061C6.72864 14.74 6.50003 14.7007 6.33593 14.8181C6.07323 15.0059 5.43706 15.1329 4.66138 14.97C3.91321 14.8125 3.31113 14.4336 3.00972 13.9304C2.97255 13.8683 2.92023 13.8214 2.86045 13.7913C2.72912 13.495 2.63505 13.1534 2.59069 12.7545C2.57258 12.5919 2.55205 12.4185 2.52836 12.2445C2.55207 12.2231 2.57338 12.1982 2.5915 12.17C3.18117 11.2515 4.99669 8.86745 6.29776 8.86495C6.49959 8.86447 6.66272 8.6991 6.66223 8.49566C6.66199 8.29247 6.49862 8.12784 6.29703 8.12784H6.29654C4.75534 8.13059 3.07006 10.2204 2.33479 11.2472C2.32463 11.2132 2.31418 11.1805 2.3034 11.1493C2.2768 11.0722 2.22981 10.9669 2.17763 10.85C2.06552 10.5988 1.92942 10.294 1.91995 10.0991C1.91651 10.0285 1.91698 9.94054 1.91974 9.84136C2.87443 9.47634 4.29424 8.39172 3.80011 6.4487C3.74995 6.25165 3.55105 6.13247 3.3553 6.18359C3.16004 6.23395 3.0422 6.43494 3.09236 6.63225C3.43786 7.9897 2.53184 8.70448 1.95701 9.01118C1.96539 8.7844 1.96755 8.57262 1.9516 8.42169C1.93651 8.2784 1.89889 8.12541 1.8588 7.96243C1.71261 7.36806 1.53373 6.64077 2.29611 5.76609C2.37412 5.67665 2.49407 5.58445 2.62049 5.48727C2.86774 5.29722 3.13973 5.08814 3.17115 4.84346C3.19293 4.67323 3.18674 4.51584 3.18073 4.36316C3.16949 4.0773 3.15889 3.80798 3.33379 3.5019C3.64331 2.96025 4.23739 2.67507 4.81696 2.39687C5.09262 2.26455 5.36499 2.1338 5.60191 1.97778C5.83295 1.8257 6.15554 1.73699 6.46767 1.73699C6.99136 1.73699 7.48563 1.98726 7.4681 2.60791C7.46496 2.71828 7.46193 3.35849 7.45952 4.28981ZM7.46256 13.3743L7.46244 13.3579L7.46229 13.3293L7.46256 13.3743ZM7.46316 13.4797C7.46307 13.4535 7.46293 13.4296 7.46278 13.4075L7.46316 13.4797Z" fill="url(#paint4_linear_4708_11147)" fill-opacity="0.8"/>
<path d="M8.44228 13.3471C8.44237 13.3347 8.44245 13.3221 8.44247 13.3096C8.45253 11.3709 8.45184 7.55724 8.44692 5.0412C8.95593 5.20197 9.73055 5.6744 9.99309 7.06166C10.0267 7.23831 10.1799 7.36126 10.3515 7.36126C10.3744 7.36126 10.3973 7.35895 10.4204 7.35454C10.6188 7.31621 10.7486 7.12333 10.7109 6.92333C10.3493 5.01421 9.12694 4.45384 8.44522 4.28945C8.4428 3.35838 8.43975 2.71835 8.43656 2.608C8.41907 1.98709 8.91333 1.73709 9.43703 1.73709C9.74915 1.73709 10.072 1.82602 10.3028 1.97788C10.5397 2.1339 10.8121 2.26464 11.0877 2.39696C11.6673 2.67517 12.2614 2.96034 12.5709 3.502C12.7458 3.80807 12.7352 4.07739 12.724 4.36325C12.7179 4.51593 12.7118 4.67333 12.7335 4.84356C12.765 5.08823 13.0369 5.2973 13.2842 5.48735C13.4106 5.58453 13.5305 5.67674 13.6086 5.76619C14.3709 6.64087 14.192 7.36815 14.0459 7.96252C14.0058 8.1255 13.9681 8.27849 13.9531 8.42179C13.9371 8.57233 13.9393 8.7834 13.9476 9.00952C13.3727 8.70196 12.4704 7.98732 12.8153 6.63224C12.8654 6.43494 12.7476 6.23395 12.5523 6.18358C12.3561 6.13247 12.1577 6.25164 12.1075 6.4487C11.6139 8.38971 13.0302 9.47409 13.9849 9.84022C13.9877 9.9399 13.9882 10.0283 13.9847 10.0992C13.9752 10.2941 13.8391 10.5989 13.727 10.8501C13.6748 10.967 13.6279 11.0723 13.6013 11.1494C13.5905 11.1807 13.58 11.2134 13.5698 11.2475C12.8347 10.2208 11.1492 8.1306 9.60809 8.12784H9.6076C9.40601 8.12784 9.24264 8.29246 9.2424 8.49566C9.24191 8.69911 9.40503 8.86446 9.60687 8.86496C10.906 8.86742 12.7225 11.2515 13.3129 12.17C13.3311 12.1983 13.3525 12.2233 13.3763 12.2447C13.3526 12.4187 13.3321 12.592 13.314 12.7546C13.2696 13.1538 13.1754 13.4957 13.0439 13.7921C12.9848 13.8222 12.9332 13.8688 12.8964 13.9303C12.595 14.4335 11.9929 14.8124 11.2447 14.9699C10.469 15.1328 9.83285 15.0058 9.57015 14.818C9.40605 14.7006 9.1772 14.7399 9.06106 14.906C8.94444 15.0723 8.98364 15.3023 9.14822 15.4198C9.47836 15.6554 9.98671 15.7805 10.5511 15.7805C10.6213 15.7805 10.6925 15.7785 10.7642 15.7746C10.5765 15.8712 10.3934 15.966 10.221 16.0647C10.0498 16.163 9.70753 16.2628 9.3769 16.2628C8.9932 16.2628 8.62459 16.1284 8.55691 15.7011C8.44612 15.0038 8.43738 14.1947 8.4415 13.4888V13.4857L8.44171 13.4486L8.4415 13.4797C8.4415 13.4555 8.44172 13.4214 8.44196 13.3839L8.44199 13.3787C8.44199 13.3896 8.44196 13.401 8.44191 13.4129L8.44228 13.3471ZM8.44228 13.3471L8.44235 13.3337L8.44211 13.3648L8.44228 13.3471ZM7.46229 13.3293L7.46219 13.3108C7.45216 11.374 7.45291 7.56376 7.45782 5.04709C6.94727 5.21324 6.17272 5.69057 5.91318 7.06166C5.87959 7.23832 5.72645 7.36126 5.55481 7.36126C5.53194 7.36126 5.50905 7.35914 5.48591 7.35454C5.28749 7.3162 5.15772 7.12333 5.19546 6.92333C5.55678 5.01559 6.7776 4.45465 7.45952 4.28981C7.46193 3.35849 7.46496 2.71828 7.4681 2.60791C7.48563 1.98726 6.99136 1.73699 6.46767 1.73699C6.15554 1.73699 5.83295 1.8257 5.60191 1.97778C5.36499 2.1338 5.09262 2.26455 4.81696 2.39687C4.23739 2.67507 3.64331 2.96025 3.33379 3.5019C3.15889 3.80798 3.16949 4.0773 3.18073 4.36316C3.18674 4.51584 3.19293 4.67323 3.17115 4.84346C3.13973 5.08814 2.86774 5.29722 2.62049 5.48727C2.49407 5.58445 2.37412 5.67665 2.29611 5.76609C1.53373 6.64077 1.71261 7.36806 1.8588 7.96243C1.89889 8.12541 1.93651 8.2784 1.9516 8.42169C1.96755 8.57262 1.96539 8.7844 1.95701 9.01118C2.53184 8.70448 3.43786 7.9897 3.09236 6.63225C3.0422 6.43494 3.16004 6.23395 3.3553 6.18359C3.55105 6.13247 3.74995 6.25165 3.80011 6.4487C4.29424 8.39172 2.87443 9.47634 1.91974 9.84136C1.91698 9.94054 1.91651 10.0285 1.91995 10.0991C1.92942 10.294 2.06552 10.5988 2.17763 10.85C2.22981 10.9669 2.2768 11.0722 2.3034 11.1493C2.31418 11.1805 2.32463 11.2132 2.33479 11.2472C3.07006 10.2204 4.75534 8.13059 6.29654 8.12784H6.29703C6.49862 8.12784 6.66199 8.29247 6.66223 8.49566C6.66272 8.6991 6.49959 8.86447 6.29776 8.86495C4.99669 8.86745 3.18117 11.2515 2.5915 12.17C2.57338 12.1982 2.55207 12.2231 2.52836 12.2445C2.55205 12.4185 2.57258 12.5919 2.59069 12.7545C2.63505 13.1534 2.72912 13.495 2.86045 13.7913C2.92023 13.8214 2.97255 13.8683 3.00972 13.9304C3.31113 14.4336 3.91321 14.8125 4.66138 14.97C5.43706 15.1329 6.07323 15.0059 6.33593 14.8181C6.50003 14.7007 6.72864 14.74 6.84502 14.9061C6.96162 15.0724 6.92244 15.3024 6.75786 15.4199C6.42772 15.6555 5.91937 15.7806 5.35502 15.7806C5.28438 15.7806 5.21286 15.7786 5.14069 15.7747C5.32833 15.8712 5.51135 15.966 5.68367 16.0647C5.85482 16.1629 6.19713 16.2627 6.52776 16.2627C6.9117 16.2627 7.28006 16.1283 7.34775 15.701C7.45841 15.0037 7.46734 14.1946 7.46316 13.4887V13.4856L7.46244 13.3579M7.46229 13.3293L7.46219 13.3167L7.46244 13.3579M7.46229 13.3293L7.46244 13.3579M7.46229 13.3293L7.46256 13.3743M7.46244 13.3579L7.46256 13.3743M7.46256 13.3743L7.46278 13.4075M7.46278 13.4075C7.46293 13.4296 7.46307 13.4535 7.46316 13.4797L7.46278 13.4075ZM8.11892 1.5064C8.43323 1.17985 8.90141 1 9.43704 1C9.8928 1 10.3537 1.1315 10.7021 1.36074C10.8979 1.48949 11.1423 1.60695 11.4014 1.73127L11.4017 1.73143C12.048 2.04172 12.7804 2.39333 13.2037 3.13376C13.4839 3.62443 13.4667 4.06818 13.4537 4.39227L13.4534 4.40214C13.4496 4.50039 13.4463 4.58891 13.4511 4.67237C13.5141 4.73749 13.6439 4.8375 13.7267 4.90113C13.8764 5.01612 14.031 5.13505 14.1569 5.27952C15.1721 6.44415 14.9109 7.50611 14.7548 8.14053C14.721 8.27763 14.689 8.40712 14.6794 8.5C14.6605 8.67832 14.6798 9.05732 14.6953 9.36328L14.6961 9.37841C14.7105 9.6662 14.7241 9.93723 14.7145 10.1352C14.6994 10.445 14.566 10.7659 14.3932 11.1532C14.3527 11.2433 14.3073 11.3455 14.2911 11.3922C14.158 11.778 14.0691 12.5751 14.0401 12.837C13.7945 15.0431 12.2554 15.835 11.1313 16.4134L11.131 16.4136C10.9353 16.5143 10.7506 16.6094 10.5817 16.7059C10.2701 16.8845 9.79726 17 9.37704 17C8.70169 17 8.18614 16.7035 7.95246 16.2043C7.71876 16.7035 7.20323 16.9999 6.5279 16.9999C6.10768 16.9999 5.63487 16.8845 5.32324 16.7058C5.15436 16.6093 4.96967 16.5143 4.77404 16.4136L4.77362 16.4134C3.64955 15.835 2.11047 15.0431 1.86482 12.8369C1.83585 12.575 1.74698 11.7777 1.61381 11.3919C1.59774 11.3455 1.55223 11.2433 1.5118 11.1531C1.33894 10.7659 1.20545 10.445 1.19043 10.1354C1.18085 9.93735 1.19443 9.66663 1.20885 9.37912L1.20982 9.35984C1.22524 9.05449 1.24427 8.67763 1.22542 8.49996C1.21566 8.40708 1.18377 8.27758 1.14993 8.14048C0.993869 7.50607 0.732638 6.44413 1.74788 5.27948C1.87375 5.13501 2.02836 5.01609 2.17809 4.90109C2.26086 4.83745 2.39064 4.73744 2.45369 4.67234C2.45841 4.58991 2.45515 4.50253 2.45153 4.40572L2.45103 4.39223C2.43812 4.06814 2.42084 3.6244 2.70106 3.13372C3.12437 2.3933 3.85677 2.04168 4.50308 1.7314L4.50344 1.73123C4.76248 1.6069 5.00716 1.48945 5.20291 1.3607C5.55106 1.13146 6.01197 1 6.46773 1C7.00336 1 7.47154 1.17986 7.786 1.50649C7.84836 1.5712 7.90389 1.64056 7.95243 1.7141C8.00099 1.64053 8.05654 1.57115 8.11892 1.5064ZM3.97352 5.60724C4.02758 5.63593 4.08576 5.64974 4.14322 5.64974C4.27444 5.64974 4.40131 5.57801 4.46655 5.45269C4.74458 4.91976 5.6661 3.54331 6.57909 3.60621C6.77752 3.61825 6.95384 3.46443 6.9662 3.26123C6.97862 3.05803 6.82572 2.88303 6.62413 2.87056C5.05598 2.76933 3.8703 5.01386 3.82039 5.10944C3.72641 5.28954 3.79482 5.5124 3.97352 5.60724ZM11.4858 14.1072C11.3687 14.1072 11.2533 14.0502 11.1827 13.9445C10.977 13.6367 10.7282 13.2775 10.6035 13.1133C10.3712 13.1095 9.87693 13.1501 9.74068 13.5485C9.68834 13.7008 9.54687 13.7967 9.39544 13.7967C9.35599 13.7967 9.31558 13.79 9.27615 13.7763C9.08552 13.7097 8.98448 13.4999 9.05022 13.3075C9.28865 12.612 9.94212 12.3978 10.4596 12.3746C10.5502 11.6278 10.2819 11.178 9.62623 10.9673C9.43414 10.9056 9.32799 10.6985 9.3891 10.5044C9.45021 10.3103 9.65545 10.2027 9.84803 10.2651C10.4596 10.4616 11.4296 11.0295 11.1598 12.6322C11.2986 12.804 11.4892 13.0843 11.7884 13.5327C11.9012 13.7015 11.8569 13.9305 11.6896 14.0443C11.627 14.0868 11.5562 14.1072 11.4858 14.1072ZM4.21469 14.0443C4.27726 14.0868 4.3481 14.1072 4.41846 14.1072C4.53557 14.1072 4.65097 14.0502 4.72156 13.9445C4.92761 13.6359 5.17711 13.2758 5.30155 13.1123C5.53172 13.1065 6.02717 13.1435 6.16586 13.5486C6.21821 13.7009 6.35966 13.7968 6.5111 13.7968C6.55054 13.7968 6.59094 13.7902 6.63039 13.7764C6.82102 13.7098 6.92205 13.4999 6.85633 13.3076C6.61758 12.6112 5.96192 12.3972 5.44444 12.3745C5.35391 11.6278 5.62221 11.178 6.27781 10.9673C6.4699 10.9056 6.57605 10.6983 6.51494 10.5044C6.45359 10.3103 6.24859 10.2027 6.05625 10.2651C5.44442 10.4616 4.47422 11.0295 4.74422 12.6325C4.60569 12.8042 4.41481 13.0846 4.11584 13.5327C4.00311 13.7015 4.04743 13.9305 4.21469 14.0443ZM11.7661 5.64957C11.6351 5.64957 11.5082 5.57807 11.4427 5.453C11.1635 4.92006 10.2437 3.54312 9.32995 3.60627C9.1342 3.61855 8.95526 3.46449 8.94284 3.2613C8.93048 3.0581 9.08333 2.88315 9.28491 2.87062C10.8533 2.76841 12.039 5.01392 12.0889 5.1095C12.1829 5.2896 12.1145 5.51197 11.936 5.60706C11.8819 5.6358 11.8235 5.64957 11.7661 5.64957Z" stroke="url(#paint5_linear_4708_11147)" stroke-width="0.107043" stroke-linejoin="round"/>
<path d="M26.1142 4.95782C25.5776 4.52505 24.8332 4.26538 23.9676 4.26538C22.8944 4.26538 21.6307 4.52505 20.6093 4.95782C20.4535 5.02706 20.3843 5.13093 20.3497 5.26942L18.9128 13.1805C18.8782 13.3883 18.9821 13.5094 19.1725 13.5094H21.1633C21.3364 13.5094 21.4402 13.4229 21.4749 13.2325L22.652 6.74085C22.8944 6.61967 23.2752 6.53312 23.656 6.53312C24.435 6.53312 24.7986 7.01782 24.6082 8.12572L23.7253 13.1805C23.6907 13.3709 23.7945 13.5094 24.0023 13.5094H25.9584C26.1315 13.5094 26.2527 13.4056 26.27 13.2325L27.1182 8.48925C27.2221 7.90068 27.2221 7.32942 27.1356 6.84471C27.4471 6.6716 27.8799 6.53312 28.2954 6.53312C29.1263 6.53312 29.5245 7.01782 29.334 8.12572L28.4512 13.1805C28.4339 13.3709 28.5204 13.5094 28.7282 13.5094H30.6843C30.8574 13.5094 30.9786 13.4056 30.9959 13.2325L31.8614 8.48925C32.2769 6.0311 31.0651 4.26538 28.6762 4.26538C27.8107 4.26538 26.9278 4.52505 26.1142 4.95782Z" fill="#74757A"/>
<path d="M33.5199 7.58908L33.0698 10.0992C32.6717 12.3496 34.247 13.7345 36.5147 13.7345C38.0208 13.7345 39.1979 13.319 40.1327 12.6785C40.2885 12.592 40.3058 12.4362 40.2366 12.263L39.5268 10.9301C39.4403 10.7397 39.3018 10.7224 39.1287 10.8435C38.4362 11.259 37.6399 11.536 36.8782 11.536C35.9261 11.536 35.5107 11.0859 35.6838 10.1684L35.7357 9.92606H40.5482C40.7213 9.92606 40.8251 9.83951 40.8598 9.6664L41.154 7.98724C41.6214 5.44253 40.0461 4.26538 37.8303 4.26538C35.7357 4.26538 33.9354 5.32135 33.5199 7.58908ZM38.6613 7.76219L38.5747 8.19497H36.0473L36.1339 7.72757C36.2897 6.91396 36.8609 6.46387 37.6053 6.46387C38.4882 6.46387 38.7824 7.06976 38.6613 7.76219Z" fill="#74757A"/>
<path d="M48.9363 4.95782C48.3996 4.52505 47.6553 4.26538 46.7897 4.26538C45.7164 4.26538 44.4527 4.52505 43.4314 4.95782C43.2756 5.02706 43.2063 5.13093 43.1717 5.26942L41.7349 13.1805C41.7003 13.3883 41.8042 13.5094 41.9946 13.5094H43.9853C44.1584 13.5094 44.2623 13.4229 44.2969 13.2325L45.4741 6.74085C45.7164 6.61967 46.0973 6.53312 46.4781 6.53312C47.2571 6.53312 47.6206 7.01782 47.4302 8.12572L46.5474 13.1805C46.5127 13.3709 46.6166 13.5094 46.8243 13.5094H48.7805C48.9536 13.5094 49.0748 13.4056 49.0921 13.2325L49.9403 8.48925C50.0442 7.90068 50.0442 7.32942 49.9576 6.84471C50.2692 6.6716 50.702 6.53312 51.1174 6.53312C51.9484 6.53312 52.3465 7.01782 52.1561 8.12572L51.2732 13.1805C51.2559 13.3709 51.3425 13.5094 51.5502 13.5094H53.5064C53.6795 13.5094 53.8006 13.4056 53.818 13.2325L54.6835 8.48925C55.099 6.0311 53.8872 4.26538 51.4983 4.26538C50.6327 4.26538 49.7499 4.52505 48.9363 4.95782Z" fill="#74757A"/>
<path d="M56.342 7.58908L55.8919 10.0992C55.4937 12.3496 57.069 13.7345 59.3368 13.7345C60.8428 13.7345 62.02 13.319 62.9548 12.6785C63.1106 12.592 63.1279 12.4362 63.0586 12.263L62.3489 10.9301C62.2623 10.7397 62.1238 10.7224 61.9507 10.8435C61.2583 11.259 60.462 11.536 59.7003 11.536C58.7482 11.536 58.3327 11.0859 58.5058 10.1684L58.5578 9.92606H63.3702C63.5433 9.92606 63.6472 9.83951 63.6818 9.6664L63.9761 7.98724C64.4435 5.44253 62.8682 4.26538 60.6524 4.26538C58.5578 4.26538 56.7574 5.32135 56.342 7.58908ZM61.4833 7.76219L61.3968 8.19497H58.8694L58.9559 7.72757C59.1117 6.91396 59.683 6.46387 60.4274 6.46387C61.3102 6.46387 61.6045 7.06976 61.4833 7.76219Z" fill="#74757A"/>
<path d="M72.8872 4.50773H70.706C70.5329 4.50773 70.429 4.55967 70.3598 4.69816L68.7499 7.32942L68.0574 4.75009C68.0055 4.57698 67.9016 4.50773 67.7285 4.50773H65.6339C65.4262 4.50773 65.3396 4.62891 65.4089 4.83664L66.8803 8.83547L63.7124 13.1459C63.5739 13.3363 63.6605 13.5094 63.9201 13.5094H66.1705C66.3263 13.5094 66.4475 13.4402 66.5341 13.3017L68.2652 10.7397L69.0442 13.2498C69.0961 13.4229 69.2 13.5094 69.3731 13.5094H71.5023C71.7274 13.5094 71.8312 13.3709 71.7447 13.1632L70.1347 9.02589L73.0776 4.85395C73.2161 4.66353 73.1295 4.50773 72.8872 4.50773Z" fill="#74757A"/>
<defs>
<linearGradient id="paint0_linear_4708_11147" x1="5.7951" y1="-0.449176" x2="15.8537" y2="13.8808" gradientUnits="userSpaceOnUse">
<stop stop-color="#9BFABB" stop-opacity="0.85"/>
<stop offset="1" stop-color="#74E39A" stop-opacity="0.54"/>
</linearGradient>
<linearGradient id="paint1_linear_4708_11147" x1="5.7951" y1="-0.449176" x2="15.8537" y2="13.8808" gradientUnits="userSpaceOnUse">
<stop stop-color="#9BFABB" stop-opacity="0.85"/>
<stop offset="1" stop-color="#74E39A" stop-opacity="0.54"/>
</linearGradient>
<linearGradient id="paint2_linear_4708_11147" x1="5.7951" y1="-0.449176" x2="15.8537" y2="13.8808" gradientUnits="userSpaceOnUse">
<stop stop-color="#9BFABB" stop-opacity="0.85"/>
<stop offset="1" stop-color="#74E39A" stop-opacity="0.54"/>
</linearGradient>
<linearGradient id="paint3_linear_4708_11147" x1="5.7951" y1="-0.449176" x2="15.8537" y2="13.8808" gradientUnits="userSpaceOnUse">
<stop stop-color="#9BFABB" stop-opacity="0.85"/>
<stop offset="1" stop-color="#74E39A" stop-opacity="0.54"/>
</linearGradient>
<linearGradient id="paint4_linear_4708_11147" x1="5.7951" y1="-0.449176" x2="15.8537" y2="13.8808" gradientUnits="userSpaceOnUse">
<stop stop-color="#9BFABB" stop-opacity="0.85"/>
<stop offset="1" stop-color="#74E39A" stop-opacity="0.54"/>
</linearGradient>
<linearGradient id="paint5_linear_4708_11147" x1="5.38383" y1="3.00027" x2="14.767" y2="14.0819" gradientUnits="userSpaceOnUse">
<stop stop-color="#85EDAA"/>
<stop offset="1" stop-color="#63CE87"/>
</linearGradient>
</defs>
</svg>
