<svg width="64" height="58" viewBox="0 0 64 58" fill="none" xmlns="http://www.w3.org/2000/svg">
<g clip-path="url(#clip0_20903_49742)">
<g filter="url(#filter0_d_20903_49742)">
<path d="M1 10C1 5.02944 5.02944 1 10 1H64V3H10C6.13401 3 3 6.13401 3 10H1ZM64 58H2H64ZM1 58V10C1 5.02944 5.02944 1 10 1V3C6.13401 3 3 6.13401 3 10V58H1ZM64 2V58V2Z" fill="#6AE394" mask="url(#path-1-inside-1_20903_49742)"/>
</g>
<path d="M39.395 38.1921C39.5156 38.3732 39.7128 38.4709 39.9128 38.4709C40.033 38.4709 40.1541 38.4359 40.2609 38.3631C40.5466 38.168 40.6223 37.7754 40.4298 37.4861C39.9186 36.7173 39.593 36.2367 39.3559 35.9422C39.8167 33.1945 38.1597 32.221 37.115 31.884C36.786 31.777 36.4354 31.9615 36.331 32.2943C36.2266 32.6271 36.4079 32.9822 36.7361 33.0879C37.8561 33.4491 38.3144 34.2203 38.1597 35.5006C37.2757 35.5404 36.1594 35.9075 35.7521 37.0999C35.6398 37.4297 35.8124 37.7895 36.1381 37.9036C36.2054 37.9271 36.2744 37.9386 36.3418 37.9386C36.6005 37.9386 36.8422 37.7743 36.9316 37.5131C37.1644 36.83 38.0087 36.7606 38.4055 36.767C38.6186 37.0485 39.0437 37.6643 39.395 38.1921Z" fill="url(#paint0_linear_20903_49742)" fill-opacity="0.8"/>
<path d="M39.8392 23.6342C39.9511 23.8486 40.1678 23.9712 40.3915 23.9712C40.4897 23.9712 40.5895 23.9476 40.6818 23.8983C40.9867 23.7353 41.1036 23.3541 40.943 23.0453C40.8578 22.8815 38.8323 19.0318 36.153 19.207C35.8087 19.2285 35.5476 19.5284 35.5687 19.8768C35.5899 20.2251 35.8956 20.4892 36.23 20.4682C37.7909 20.3599 39.3622 22.7205 39.8392 23.6342Z" fill="url(#paint1_linear_20903_49742)" fill-opacity="0.8"/>
<path d="M27.3695 23.9715C27.2714 23.9715 27.172 23.9478 27.0796 23.8986C26.7744 23.736 26.6575 23.354 26.818 23.0452C26.9033 22.8814 28.9288 19.0333 31.6076 19.2069C31.952 19.2283 32.2132 19.5283 32.192 19.8766C32.1709 20.225 31.8697 20.4887 31.5307 20.4681C29.971 20.3602 28.3968 22.72 27.9219 23.6337C27.8104 23.8485 27.5937 23.9715 27.3695 23.9715Z" fill="url(#paint2_linear_20903_49742)" fill-opacity="0.8"/>
<path d="M27.8397 38.4709C27.7195 38.4709 27.5985 38.4359 27.4916 38.3631C27.2059 38.168 27.1302 37.7755 27.3227 37.4861C27.8335 36.7177 28.1596 36.2371 28.3962 35.9426C27.935 33.1945 29.5924 32.221 30.6375 31.884C30.9661 31.777 31.3163 31.9615 31.4211 32.2943C31.5255 32.6266 31.3442 32.9822 31.016 33.0879C29.8961 33.4491 29.4377 34.2202 29.5924 35.5005C30.4764 35.5393 31.5964 35.9061 32.0043 37.1C32.1166 37.4299 31.944 37.7896 31.6183 37.9037C31.5509 37.9274 31.4819 37.9387 31.4146 37.9387C31.1559 37.9387 30.9142 37.7744 30.8248 37.5133C30.5879 36.8188 29.7415 36.7553 29.3483 36.7653C29.1357 37.0456 28.7095 37.663 28.3575 38.1921C28.2369 38.3732 28.0398 38.4709 27.8397 38.4709Z" fill="url(#paint3_linear_20903_49742)" fill-opacity="0.8"/>
<path fill-rule="evenodd" clip-rule="evenodd" d="M36.4129 16C35.4979 16 34.6981 16.3083 34.1612 16.8682C34.0546 16.9792 33.9597 17.0981 33.8768 17.2242C33.7938 17.0982 33.699 16.9793 33.5925 16.8683C33.0553 16.3084 32.2555 16 31.3405 16C30.5619 16 29.7745 16.2254 29.1798 16.6184C28.8454 16.8391 28.4274 17.0405 27.9849 17.2536L27.9843 17.2539C26.8802 17.7859 25.629 18.3887 24.9059 19.658C24.4272 20.4993 24.4567 21.26 24.4788 21.8156L24.4796 21.8387C24.4858 22.0047 24.4914 22.1545 24.4833 22.2958C24.3756 22.4075 24.1539 22.5789 24.0125 22.688C23.7567 22.8852 23.4926 23.089 23.2776 23.3367C21.5433 25.3334 21.9895 27.154 22.2561 28.2416C22.3139 28.4767 22.3684 28.6987 22.3851 28.8579C22.4173 29.1625 22.3848 29.8086 22.3584 30.3321L22.3568 30.3651C22.3321 30.858 22.3089 31.3222 22.3253 31.6617C22.351 32.1924 22.579 32.7426 22.8743 33.4064C22.9434 33.5611 23.0211 33.7363 23.0486 33.8159C23.2761 34.4772 23.4279 35.8442 23.4774 36.2932C23.897 40.0754 26.5262 41.4331 28.4464 42.4246L28.4471 42.425C28.7813 42.5976 29.0968 42.7606 29.3853 42.926C29.9177 43.2323 30.7254 43.4302 31.4433 43.4302C32.5969 43.4302 33.4776 42.922 33.8768 42.0662C34.276 42.922 35.1567 43.4303 36.3104 43.4303C37.0283 43.4303 37.836 43.2323 38.3683 42.9261C38.6569 42.7606 38.9724 42.5977 39.3066 42.425L39.3072 42.4247C41.2275 41.4331 43.8567 40.0755 44.2763 36.2933C44.3258 35.8442 44.4776 34.4777 44.7051 33.8164C44.7327 33.7364 44.8103 33.5611 44.8794 33.4065C45.1747 32.7427 45.4026 32.1925 45.4284 31.6613C45.4447 31.322 45.4215 30.8573 45.3968 30.3639L45.3955 30.338C45.369 29.8134 45.336 29.1637 45.3683 28.858C45.3849 28.6987 45.4394 28.4767 45.4972 28.2417C45.7638 27.154 46.2101 25.3334 44.4758 23.3368C44.2607 23.0891 43.9966 22.8852 43.7408 22.6881C43.5994 22.579 43.3778 22.4075 43.27 22.2959C43.2619 22.1528 43.2676 22.0011 43.274 21.8326L43.2746 21.8157C43.2967 21.2601 43.3262 20.4993 42.8474 19.6581C42.1244 18.3887 40.8732 17.7859 39.7691 17.254L39.7685 17.2537C39.326 17.0405 38.9084 16.8392 38.5741 16.6185C37.9789 16.2254 37.1915 16 36.4129 16ZM37.3628 26.3921C36.9143 24.0138 35.591 23.2038 34.7215 22.9282C34.7299 27.2417 34.7311 33.7798 34.7139 37.1035C34.7138 37.125 34.7137 37.1465 34.7136 37.1678L34.7137 37.1449L34.7133 37.1982L34.7136 37.1678L34.7129 37.2806C34.713 37.2602 34.7131 37.2407 34.7131 37.2221L34.713 37.2309C34.7126 37.2952 34.7122 37.3537 34.7122 37.3952L34.7126 37.3418L34.7122 37.4054V37.4107C34.7052 38.6209 34.7201 40.008 34.9094 41.2035C35.025 41.9361 35.6547 42.1665 36.3102 42.1665C36.875 42.1665 37.4597 41.9954 37.7521 41.8269C38.0466 41.6577 38.3594 41.4952 38.6802 41.3296C38.5575 41.3363 38.436 41.3396 38.316 41.3396C37.3519 41.3396 36.4835 41.1252 35.9195 40.7212C35.6384 40.5198 35.5714 40.1256 35.7706 39.8404C35.969 39.5556 36.36 39.4882 36.6403 39.6896C37.0891 40.0114 38.1758 40.2292 39.5009 39.9499C40.779 39.6799 41.8075 39.0304 42.3224 38.1677C42.3853 38.0623 42.4736 37.9823 42.5744 37.9308C42.7991 37.4226 42.96 36.8364 43.0358 36.152C43.0667 35.8733 43.1018 35.5761 43.1423 35.2778C43.1016 35.2411 43.065 35.1983 43.034 35.1497C42.0254 33.5751 38.9223 29.4879 36.703 29.4837C36.3582 29.4828 36.0796 29.1993 36.0804 28.8505C36.0808 28.5022 36.3599 28.2199 36.7043 28.2199H36.7051C39.3378 28.2247 42.217 31.8081 43.4729 33.5683C43.4902 33.5099 43.5081 33.4537 43.5266 33.4001C43.572 33.2679 43.6523 33.0874 43.7415 32.887C43.933 32.4564 44.1655 31.9337 44.1816 31.5997C44.1876 31.4782 44.1867 31.3265 44.182 31.1556C42.5511 30.5279 40.1316 28.6689 40.9748 25.3412C41.0605 25.0034 41.3995 24.7991 41.7347 24.8867C42.0683 24.9731 42.2696 25.3176 42.1839 25.6559C41.5948 27.979 43.1361 29.2042 44.1182 29.7315C44.104 29.3438 44.1004 28.982 44.1276 28.7239C44.1533 28.4782 44.2176 28.2159 44.2861 27.9365C44.5358 26.9175 44.8414 25.6707 43.5391 24.1711C43.4058 24.0178 43.2009 23.8597 42.9849 23.6931C42.5626 23.3673 42.0979 23.0089 42.0443 22.5894C42.0071 22.2975 42.0176 22.0277 42.0279 21.7659C42.0471 21.2759 42.0652 20.8141 41.7664 20.2894C41.2377 19.3608 40.2228 18.8719 39.2328 18.3949C38.7619 18.1681 38.2966 17.9439 37.8918 17.6765C37.4976 17.4161 36.9461 17.2637 36.4129 17.2637C35.5183 17.2637 34.6739 17.6923 34.7038 18.7567C34.7092 18.9459 34.7145 20.0432 34.7186 21.6394C35.8832 21.9213 37.9714 22.882 38.589 26.1549C38.6535 26.4978 38.4318 26.8285 38.0928 26.8942C38.0533 26.9018 38.0142 26.9057 37.9751 26.9057C37.6819 26.9057 37.4202 26.6949 37.3628 26.3921ZM33.0347 21.64C31.8698 21.9226 29.7843 22.8843 29.167 26.1549C29.1026 26.4978 29.3243 26.8285 29.6632 26.8942C29.7028 26.9021 29.7419 26.9057 29.7809 26.9057C30.0741 26.9057 30.3357 26.695 30.3931 26.3921C30.8365 24.0415 32.1597 23.2232 33.0318 22.9383C33.0234 27.2529 33.0221 33.7852 33.0393 37.1056L33.0395 37.1373L33.0393 37.1158L33.0397 37.1863L33.0409 37.4053V37.4105C33.0481 38.6207 33.0328 40.0079 32.8438 41.2034C32.7282 41.9359 32.0989 42.1663 31.443 42.1663C30.8782 42.1663 30.2934 41.9953 30.0011 41.8268C29.7067 41.6576 29.394 41.4952 29.0735 41.3297C29.1968 41.3364 29.319 41.3398 29.4396 41.3398C30.4037 41.3398 31.2721 41.1254 31.8361 40.7214C32.1172 40.52 32.1842 40.1258 31.985 39.8406C31.7862 39.5558 31.3956 39.4884 31.1153 39.6898C30.6665 40.0116 29.5798 40.2294 28.2547 39.9501C26.9766 39.6801 25.9481 39.0306 25.4332 38.1679C25.3697 38.0614 25.2803 37.9809 25.1782 37.9294C24.9538 37.4214 24.7931 36.8357 24.7174 36.1519C24.6864 35.873 24.6513 35.5758 24.6109 35.2775C24.6514 35.2408 24.6878 35.1981 24.7187 35.1497C25.7261 33.5751 28.8275 29.4879 31.0501 29.4836C31.3949 29.4828 31.6736 29.1993 31.6727 28.8505C31.6723 28.5022 31.3932 28.2199 31.0489 28.2199H31.048C28.4152 28.2247 25.5363 31.8074 24.2802 33.5678C24.2629 33.5095 24.245 33.4534 24.2266 33.3999C24.1811 33.2677 24.1009 33.0872 24.0117 32.8868C23.8202 32.4562 23.5877 31.9335 23.5715 31.5995C23.5657 31.4785 23.5665 31.3276 23.5712 31.1576C25.2021 30.5318 27.6275 28.6723 26.7834 25.3412C26.6977 25.0034 26.3579 24.7991 26.0235 24.8867C25.69 24.9731 25.4887 25.3176 25.5743 25.6559C26.1646 27.9831 24.6168 29.2085 23.6349 29.7343C23.6492 29.3455 23.6529 28.9825 23.6256 28.7237C23.5998 28.4781 23.5356 28.2158 23.4671 27.9364C23.2173 26.9174 22.9118 25.6705 24.2141 24.171C24.3474 24.0176 24.5523 23.8596 24.7683 23.693C25.1906 23.3671 25.6553 23.0087 25.709 22.5892C25.7462 22.2974 25.7356 22.0275 25.7253 21.7658C25.7061 21.2757 25.688 20.814 25.9868 20.2893C26.5155 19.3606 27.5304 18.8717 28.5205 18.3948C28.9914 18.1679 29.4567 17.9438 29.8614 17.6763C30.2561 17.4156 30.8072 17.2635 31.3404 17.2635C32.235 17.2635 33.0793 17.6925 33.0494 18.7566C33.044 18.9458 33.0389 20.0434 33.0347 21.64ZM33.0399 37.2145L33.0397 37.1863L33.0395 37.1373L33.0399 37.2145ZM33.0409 37.3951C33.0408 37.3503 33.0406 37.3093 33.0403 37.2714L33.0409 37.3951Z" fill="url(#paint4_linear_20903_49742)" fill-opacity="0.8"/>
<path d="M34.7136 37.1678C34.7137 37.1465 34.7138 37.125 34.7139 37.1035C34.7311 33.7798 34.7299 27.2417 34.7215 22.9282C35.591 23.2038 36.9143 24.0138 37.3628 26.3921C37.4202 26.6949 37.6819 26.9057 37.9751 26.9057C38.0142 26.9057 38.0533 26.9018 38.0928 26.8942C38.4318 26.8285 38.6535 26.4978 38.589 26.1549C37.9714 22.882 35.8832 21.9213 34.7186 21.6394C34.7145 20.0432 34.7092 18.9459 34.7038 18.7567C34.6739 17.6923 35.5183 17.2637 36.4129 17.2637C36.9461 17.2637 37.4976 17.4161 37.8918 17.6765C38.2966 17.9439 38.7619 18.1681 39.2328 18.3949C40.2228 18.8719 41.2377 19.3608 41.7664 20.2894C42.0652 20.8141 42.0471 21.2759 42.0279 21.7659C42.0176 22.0277 42.0071 22.2975 42.0443 22.5894C42.0979 23.0089 42.5626 23.3673 42.9849 23.6931C43.2009 23.8597 43.4058 24.0178 43.5391 24.1711C44.8414 25.6707 44.5358 26.9175 44.2861 27.9365C44.2176 28.2159 44.1533 28.4782 44.1276 28.7239C44.1004 28.982 44.104 29.3438 44.1182 29.7315C43.1361 29.2042 41.5948 27.979 42.1839 25.6559C42.2696 25.3176 42.0683 24.9731 41.7347 24.8867C41.3995 24.7991 41.0605 25.0034 40.9748 25.3412C40.1316 28.6689 42.5511 30.5279 44.182 31.1556C44.1867 31.3265 44.1876 31.4782 44.1816 31.5997C44.1655 31.9337 43.933 32.4564 43.7415 32.887C43.6523 33.0874 43.572 33.2679 43.5266 33.4001C43.5081 33.4537 43.4902 33.5099 43.4729 33.5683C42.217 31.8081 39.3378 28.2247 36.7051 28.2199H36.7043C36.3599 28.2199 36.0808 28.5022 36.0804 28.8505C36.0796 29.1993 36.3582 29.4828 36.703 29.4837C38.9223 29.4879 42.0254 33.5751 43.034 35.1497C43.065 35.1983 43.1016 35.2411 43.1423 35.2778C43.1018 35.5761 43.0667 35.8733 43.0358 36.152C42.96 36.8364 42.7991 37.4226 42.5744 37.9308C42.4736 37.9823 42.3853 38.0623 42.3224 38.1677C41.8075 39.0304 40.779 39.6799 39.5009 39.9499C38.1758 40.2292 37.0891 40.0114 36.6403 39.6896C36.36 39.4882 35.969 39.5556 35.7706 39.8404C35.5714 40.1256 35.6384 40.5198 35.9195 40.7212C36.4835 41.1252 37.3519 41.3396 38.316 41.3396C38.436 41.3396 38.5575 41.3363 38.6802 41.3296C38.3594 41.4952 38.0466 41.6577 37.7521 41.8269C37.4597 41.9954 36.875 42.1665 36.3102 42.1665C35.6547 42.1665 35.025 41.9361 34.9094 41.2035C34.7201 40.008 34.7052 38.6209 34.7122 37.4107V37.4054L34.7126 37.3418L34.7122 37.3952C34.7122 37.3537 34.7126 37.2952 34.713 37.2309L34.7131 37.2221C34.7131 37.2407 34.713 37.2602 34.7129 37.2806L34.7136 37.1678ZM34.7136 37.1678L34.7137 37.1449L34.7133 37.1982L34.7136 37.1678ZM33.0395 37.1373L33.0393 37.1056C33.0221 33.7852 33.0234 27.2529 33.0318 22.9383C32.1597 23.2232 30.8365 24.0415 30.3931 26.3921C30.3357 26.695 30.0741 26.9057 29.7809 26.9057C29.7419 26.9057 29.7028 26.9021 29.6632 26.8942C29.3243 26.8285 29.1026 26.4978 29.167 26.1549C29.7843 22.8843 31.8698 21.9226 33.0347 21.64C33.0389 20.0434 33.044 18.9458 33.0494 18.7566C33.0793 17.6925 32.235 17.2635 31.3404 17.2635C30.8072 17.2635 30.2561 17.4156 29.8614 17.6763C29.4567 17.9438 28.9914 18.1679 28.5205 18.3948C27.5304 18.8717 26.5155 19.3606 25.9868 20.2893C25.688 20.814 25.7061 21.2757 25.7253 21.7658C25.7356 22.0275 25.7462 22.2974 25.709 22.5892C25.6553 23.0087 25.1906 23.3671 24.7683 23.693C24.5523 23.8596 24.3474 24.0176 24.2141 24.171C22.9118 25.6705 23.2173 26.9174 23.4671 27.9364C23.5356 28.2158 23.5998 28.4781 23.6256 28.7237C23.6529 28.9825 23.6492 29.3455 23.6349 29.7343C24.6168 29.2085 26.1646 27.9831 25.5743 25.6559C25.4887 25.3176 25.69 24.9731 26.0235 24.8867C26.3579 24.7991 26.6977 25.0034 26.7834 25.3412C27.6275 28.6723 25.2021 30.5318 23.5712 31.1576C23.5665 31.3276 23.5657 31.4785 23.5715 31.5995C23.5877 31.9335 23.8202 32.4562 24.0117 32.8868C24.1009 33.0872 24.1811 33.2677 24.2266 33.3999C24.245 33.4534 24.2629 33.5095 24.2802 33.5678C25.5363 31.8074 28.4152 28.2247 31.048 28.2199H31.0489C31.3932 28.2199 31.6723 28.5022 31.6727 28.8505C31.6736 29.1993 31.3949 29.4828 31.0501 29.4836C28.8275 29.4879 25.7261 33.5751 24.7187 35.1497C24.6878 35.1981 24.6514 35.2408 24.6109 35.2775C24.6513 35.5758 24.6864 35.873 24.7174 36.1519C24.7931 36.8357 24.9538 37.4214 25.1782 37.9294C25.2803 37.9809 25.3697 38.0614 25.4332 38.1679C25.9481 39.0306 26.9766 39.6801 28.2547 39.9501C29.5798 40.2294 30.6665 40.0116 31.1153 39.6898C31.3956 39.4884 31.7862 39.5558 31.985 39.8406C32.1842 40.1258 32.1172 40.52 31.8361 40.7214C31.2721 41.1254 30.4037 41.3398 29.4396 41.3398C29.319 41.3398 29.1968 41.3364 29.0735 41.3297C29.394 41.4952 29.7067 41.6576 30.0011 41.8268C30.2934 41.9953 30.8782 42.1663 31.443 42.1663C32.0989 42.1663 32.7282 41.9359 32.8438 41.2034C33.0328 40.0079 33.0481 38.6207 33.0409 37.4105V37.4053L33.0397 37.1863M33.0395 37.1373L33.0393 37.1158L33.0397 37.1863M33.0395 37.1373L33.0397 37.1863M33.0395 37.1373L33.0399 37.2145M33.0397 37.1863L33.0399 37.2145M33.0399 37.2145L33.0403 37.2714M33.0403 37.2714C33.0406 37.3093 33.0408 37.3503 33.0409 37.3951L33.0403 37.2714ZM34.1612 16.8682C34.6981 16.3083 35.4979 16 36.4129 16C37.1915 16 37.9789 16.2254 38.5741 16.6185C38.9084 16.8392 39.326 17.0405 39.7685 17.2537L39.7691 17.254C40.8732 17.7859 42.1244 18.3887 42.8474 19.6581C43.3262 20.4993 43.2967 21.2601 43.2746 21.8157L43.274 21.8326C43.2676 22.0011 43.2619 22.1528 43.27 22.2959C43.3778 22.4075 43.5994 22.579 43.7408 22.6881C43.9966 22.8852 44.2607 23.0891 44.4758 23.3368C46.2101 25.3334 45.7638 27.154 45.4972 28.2417C45.4394 28.4767 45.3849 28.6987 45.3683 28.858C45.336 29.1637 45.369 29.8134 45.3955 30.338L45.3968 30.3639C45.4215 30.8573 45.4447 31.322 45.4284 31.6613C45.4026 32.1925 45.1747 32.7427 44.8794 33.4065C44.8103 33.5611 44.7327 33.7364 44.7051 33.8164C44.4776 34.4777 44.3258 35.8442 44.2763 36.2933C43.8567 40.0755 41.2275 41.4331 39.3072 42.4247L39.3066 42.425C38.9724 42.5977 38.6569 42.7606 38.3683 42.9261C37.836 43.2323 37.0283 43.4303 36.3104 43.4303C35.1567 43.4303 34.276 42.922 33.8768 42.0662C33.4776 42.922 32.5969 43.4302 31.4433 43.4302C30.7254 43.4302 29.9177 43.2323 29.3853 42.926C29.0968 42.7606 28.7813 42.5976 28.4471 42.425L28.4464 42.4246C26.5262 41.4331 23.897 40.0754 23.4774 36.2932C23.4279 35.8442 23.2761 34.4772 23.0486 33.8159C23.0211 33.7363 22.9434 33.5611 22.8743 33.4064C22.579 32.7426 22.351 32.1924 22.3253 31.6617C22.3089 31.3222 22.3321 30.858 22.3568 30.3651L22.3584 30.3321C22.3848 29.8086 22.4173 29.1625 22.3851 28.8579C22.3684 28.6987 22.3139 28.4767 22.2561 28.2416C21.9895 27.154 21.5433 25.3334 23.2776 23.3367C23.4926 23.089 23.7567 22.8852 24.0125 22.688C24.1539 22.5789 24.3756 22.4075 24.4833 22.2958C24.4914 22.1545 24.4858 22.0047 24.4796 21.8387L24.4788 21.8156C24.4567 21.26 24.4272 20.4993 24.9059 19.658C25.629 18.3887 26.8802 17.7859 27.9843 17.2539L27.9849 17.2536C28.4274 17.0405 28.8454 16.8391 29.1798 16.6184C29.7745 16.2254 30.5619 16 31.3405 16C32.2555 16 33.0553 16.3084 33.5925 16.8683C33.699 16.9793 33.7938 17.0982 33.8768 17.2242C33.9597 17.0981 34.0546 16.9792 34.1612 16.8682ZM27.0796 23.8986C27.172 23.9478 27.2714 23.9715 27.3695 23.9715C27.5937 23.9715 27.8104 23.8485 27.9219 23.6337C28.3968 22.72 29.971 20.3602 31.5307 20.4681C31.8697 20.4887 32.1709 20.225 32.192 19.8766C32.2132 19.5283 31.952 19.2283 31.6076 19.2069C28.9288 19.0333 26.9033 22.8814 26.818 23.0452C26.6575 23.354 26.7744 23.736 27.0796 23.8986ZM39.9128 38.4709C39.7128 38.4709 39.5156 38.3732 39.395 38.1921C39.0437 37.6643 38.6186 37.0485 38.4055 36.767C38.0087 36.7606 37.1644 36.83 36.9316 37.5131C36.8422 37.7743 36.6005 37.9386 36.3418 37.9386C36.2744 37.9386 36.2054 37.9271 36.1381 37.9036C35.8124 37.7895 35.6398 37.4297 35.7521 37.0999C36.1594 35.9075 37.2757 35.5404 38.1597 35.5006C38.3144 34.2203 37.8561 33.4491 36.7361 33.0879C36.4079 32.9822 36.2266 32.6271 36.331 32.2943C36.4354 31.9615 36.786 31.777 37.115 31.884C38.1597 32.221 39.8167 33.1945 39.3559 35.9422C39.593 36.2367 39.9186 36.7173 40.4298 37.4861C40.6223 37.7754 40.5466 38.168 40.2609 38.3631C40.1541 38.4359 40.033 38.4709 39.9128 38.4709ZM27.4916 38.3631C27.5985 38.4359 27.7195 38.4709 27.8397 38.4709C28.0398 38.4709 28.2369 38.3732 28.3575 38.1921C28.7095 37.663 29.1357 37.0456 29.3483 36.7653C29.7415 36.7553 30.5879 36.8188 30.8248 37.5133C30.9142 37.7744 31.1559 37.9387 31.4146 37.9387C31.4819 37.9387 31.5509 37.9274 31.6183 37.9037C31.944 37.7896 32.1166 37.4299 32.0043 37.1C31.5964 35.9061 30.4764 35.5393 29.5924 35.5005C29.4377 34.2202 29.8961 33.4491 31.016 33.0879C31.3442 32.9822 31.5255 32.6266 31.4211 32.2943C31.3163 31.9615 30.9661 31.777 30.6375 31.884C29.5924 32.221 27.935 33.1945 28.3962 35.9426C28.1596 36.2371 27.8335 36.7177 27.3227 37.4861C27.1302 37.7755 27.2059 38.168 27.4916 38.3631ZM40.3915 23.9712C40.1678 23.9712 39.9511 23.8486 39.8392 23.6342C39.3622 22.7205 37.7909 20.3599 36.23 20.4682C35.8956 20.4892 35.5899 20.2251 35.5687 19.8768C35.5476 19.5284 35.8087 19.2285 36.153 19.207C38.8323 19.0318 40.8578 22.8815 40.943 23.0453C41.1036 23.3541 40.9867 23.7353 40.6818 23.8983C40.5895 23.9476 40.4897 23.9712 40.3915 23.9712Z" stroke="url(#paint5_linear_20903_49742)" stroke-width="0.0735398" stroke-linejoin="round"/>
</g>
<defs>
<filter id="filter0_d_20903_49742" x="-22.7741" y="-22.7741" width="115.548" height="109.548" filterUnits="userSpaceOnUse" color-interpolation-filters="sRGB">
<feFlood flood-opacity="0" result="BackgroundImageFix"/>
<feColorMatrix in="SourceAlpha" type="matrix" values="0 0 0 0 0 0 0 0 0 0 0 0 0 0 0 0 0 0 127 0" result="hardAlpha"/>
<feOffset dx="2" dy="2"/>
<feGaussianBlur stdDeviation="13.3871"/>
<feColorMatrix type="matrix" values="0 0 0 0 0.415686 0 0 0 0 0.890196 0 0 0 0 0.580392 0 0 0 0.2 0"/>
<feBlend mode="normal" in2="BackgroundImageFix" result="effect1_dropShadow_20903_49742"/>
<feBlend mode="normal" in="SourceGraphic" in2="effect1_dropShadow_20903_49742" result="shape"/>
</filter>
<linearGradient id="paint0_linear_20903_49742" x1="30.1914" y1="13.5155" x2="47.4567" y2="38.0248" gradientUnits="userSpaceOnUse">
<stop stop-color="#9BFABB" stop-opacity="0.85"/>
<stop offset="1" stop-color="#74E39A" stop-opacity="0.54"/>
</linearGradient>
<linearGradient id="paint1_linear_20903_49742" x1="30.1914" y1="13.5155" x2="47.4567" y2="38.0248" gradientUnits="userSpaceOnUse">
<stop stop-color="#9BFABB" stop-opacity="0.85"/>
<stop offset="1" stop-color="#74E39A" stop-opacity="0.54"/>
</linearGradient>
<linearGradient id="paint2_linear_20903_49742" x1="30.1914" y1="13.5155" x2="47.4567" y2="38.0248" gradientUnits="userSpaceOnUse">
<stop stop-color="#9BFABB" stop-opacity="0.85"/>
<stop offset="1" stop-color="#74E39A" stop-opacity="0.54"/>
</linearGradient>
<linearGradient id="paint3_linear_20903_49742" x1="30.1914" y1="13.5155" x2="47.4567" y2="38.0248" gradientUnits="userSpaceOnUse">
<stop stop-color="#9BFABB" stop-opacity="0.85"/>
<stop offset="1" stop-color="#74E39A" stop-opacity="0.54"/>
</linearGradient>
<linearGradient id="paint4_linear_20903_49742" x1="30.1914" y1="13.5155" x2="47.4567" y2="38.0248" gradientUnits="userSpaceOnUse">
<stop stop-color="#9BFABB" stop-opacity="0.85"/>
<stop offset="1" stop-color="#74E39A" stop-opacity="0.54"/>
</linearGradient>
<linearGradient id="paint5_linear_20903_49742" x1="29.4889" y1="19.4293" x2="45.5848" y2="38.371" gradientUnits="userSpaceOnUse">
<stop stop-color="#85EDAA"/>
<stop offset="1" stop-color="#63CE87"/>
</linearGradient>
<clipPath id="clip0_20903_49742">
<rect width="64" height="58" fill="white"/>
</clipPath>
</defs>
</svg>
