<svg width="302" height="347" viewBox="0 0 302 347" fill="none" xmlns="http://www.w3.org/2000/svg">
<path d="M221.117 280.501C222.642 282.782 225.134 284.013 227.662 284.013C229.181 284.013 230.711 283.572 232.062 282.655C235.673 280.198 236.63 275.254 234.196 271.609C227.735 261.927 223.619 255.873 220.623 252.165C226.447 217.558 205.504 205.297 192.298 201.053C188.14 199.705 183.708 202.029 182.389 206.22C181.069 210.412 183.361 214.884 187.509 216.216C201.666 220.765 207.459 230.478 205.503 246.603C194.33 247.104 180.22 251.728 175.072 266.745C173.652 270.899 175.834 275.43 179.95 276.868C180.802 277.163 181.674 277.308 182.526 277.308C185.796 277.308 188.85 275.239 189.98 271.95C192.922 263.347 203.594 262.471 208.61 262.553C211.304 266.098 216.676 273.854 221.117 280.501Z" fill="url(#paint0_linear_16751_44211)" fill-opacity="0.8"/>
<path d="M226.731 97.15C228.146 99.8506 230.884 101.394 233.713 101.394C234.953 101.394 236.215 101.097 237.382 100.476C241.236 98.4233 242.713 93.6219 240.683 89.7331C239.606 87.6694 214.004 39.1838 180.139 41.3908C175.787 41.6614 172.486 45.4388 172.753 49.8263C173.021 54.2137 176.885 57.5402 181.112 57.275C200.841 55.9115 220.702 85.6427 226.731 97.15Z" fill="url(#paint1_linear_16751_44211)" fill-opacity="0.8"/>
<path d="M69.1189 101.398C67.8782 101.398 66.622 101.1 65.4549 100.48C61.5963 98.4325 60.1191 93.6206 62.1484 89.7318C63.2261 87.6681 88.8273 39.2037 122.687 41.3895C127.04 41.6588 130.341 45.4373 130.073 49.8249C129.806 54.2125 125.999 57.5336 121.715 57.2737C102.001 55.9155 82.1037 85.6361 76.1003 97.1434C74.6918 99.8492 71.9523 101.398 69.1189 101.398Z" fill="url(#paint2_linear_16751_44211)" fill-opacity="0.8"/>
<path d="M75.0621 284.013C73.5427 284.013 72.0131 283.572 70.6621 282.655C67.0506 280.198 66.0938 275.254 68.5277 271.609C74.9832 261.932 79.1047 255.879 82.0958 252.17C76.2659 217.558 97.2148 205.297 110.425 201.053C114.578 199.705 119.005 202.029 120.33 206.221C121.649 210.406 119.357 214.884 115.209 216.216C101.054 220.764 95.2603 230.477 97.2152 246.601C108.389 247.09 122.546 251.71 127.701 266.747C129.12 270.901 126.938 275.432 122.822 276.87C121.971 277.168 121.098 277.31 120.247 277.31C116.977 277.31 113.922 275.241 112.792 271.951C109.797 263.205 99.0998 262.406 94.1298 262.531C91.4429 266.061 86.0557 273.837 81.6066 280.501C80.0823 282.782 77.5907 284.013 75.0621 284.013Z" fill="url(#paint3_linear_16751_44211)" fill-opacity="0.8"/>
<path fill-rule="evenodd" clip-rule="evenodd" d="M183.424 1C171.859 1 161.75 4.88336 154.963 11.9343C153.616 13.3323 152.417 14.8304 151.368 16.419C150.32 14.8311 149.121 13.3335 147.775 11.9361C140.985 4.8836 130.876 1.00008 119.31 1.00008C109.469 1.00008 99.5174 3.83854 92 8.78834C87.7734 11.5684 82.4902 14.1043 76.8968 16.7888L76.8892 16.7925C62.9339 23.4922 47.1198 31.0843 37.9797 47.0717C31.929 57.6665 32.3022 67.2479 32.5808 74.2457L32.5917 74.5368C32.6698 76.6273 32.7403 78.5139 32.6383 80.2938C31.2769 81.6996 28.4748 83.859 26.6874 85.2331C23.4545 87.7161 20.1162 90.2838 17.3984 93.4033C-4.52292 118.551 1.11761 141.48 4.48735 155.179C5.2181 158.139 5.90661 160.935 6.11721 162.941C6.52441 166.777 6.11347 174.914 5.7805 181.507L5.75957 181.923C5.44813 188.131 5.15488 193.977 5.36183 198.253C5.68615 204.938 8.5685 211.866 12.301 220.228C13.1738 222.175 14.1566 224.382 14.5035 225.384C17.3789 233.714 19.2978 250.93 19.9234 256.585C25.2274 304.22 58.4596 321.32 82.7306 333.808L82.7396 333.813C86.9639 335.987 90.9517 338.039 94.5981 340.123C101.327 343.98 111.536 346.474 120.609 346.474C135.191 346.474 146.323 340.072 151.369 329.294C156.414 340.073 167.546 346.475 182.128 346.475C191.202 346.475 201.411 343.981 208.14 340.124C211.787 338.04 215.775 335.988 220 333.813L220.007 333.81C244.278 321.321 277.51 304.221 282.815 256.586C283.44 250.931 285.359 233.72 288.234 225.391C288.583 224.383 289.564 222.176 290.437 220.229C294.17 211.868 297.051 204.939 297.376 198.249C297.583 193.974 297.29 188.122 296.978 181.908L296.962 181.581C296.626 174.975 296.21 166.792 296.617 162.941C296.826 160.936 297.516 158.14 298.247 155.18C301.616 141.481 307.257 118.551 285.336 93.4041C282.618 90.2847 279.28 87.7167 276.047 85.2338C274.259 83.86 271.457 81.7006 270.096 80.2945C269.993 78.4923 270.065 76.5811 270.145 74.4595L270.153 74.2465C270.433 67.2487 270.805 57.6672 264.754 47.0725C255.615 31.0851 239.801 23.493 225.846 16.7932L225.838 16.7896C220.245 14.1053 214.967 11.5692 210.74 8.78917C203.218 3.83929 193.265 1 183.424 1ZM195.43 131.884C189.762 101.931 173.036 91.7296 162.045 88.2583C162.151 142.585 162.166 224.929 161.949 266.791C161.949 267.062 161.947 267.333 161.945 267.601L161.947 267.312L161.941 267.983L161.945 267.601L161.937 269.021C161.938 268.764 161.939 268.519 161.939 268.284L161.938 268.395C161.933 269.206 161.928 269.942 161.928 270.465L161.933 269.792L161.928 270.593V270.659C161.839 285.902 162.028 303.372 164.42 318.429C165.882 327.655 173.841 330.557 182.125 330.557C189.264 330.557 196.656 328.403 200.351 326.281C204.074 324.149 208.028 322.103 212.081 320.016C210.532 320.101 208.995 320.143 207.478 320.143C195.293 320.143 184.316 317.442 177.188 312.354C173.634 309.818 172.788 304.852 175.306 301.261C177.813 297.674 182.755 296.825 186.298 299.362C191.97 303.415 205.707 306.158 222.455 302.64C238.61 299.24 251.61 291.059 258.118 280.193C258.913 278.866 260.029 277.859 261.304 277.21C264.143 270.809 266.177 263.427 267.135 254.807C267.526 251.297 267.97 247.554 268.481 243.797C267.967 243.334 267.505 242.795 267.112 242.184C254.364 222.352 215.142 170.875 187.091 170.822C182.733 170.811 179.211 167.241 179.221 162.848C179.227 158.46 182.754 154.906 187.107 154.906H187.117C220.394 154.965 256.786 200.097 272.66 222.266C272.879 221.53 273.105 220.823 273.339 220.147C273.913 218.482 274.928 216.209 276.054 213.685C278.475 208.262 281.414 201.679 281.618 197.472C281.693 195.942 281.683 194.032 281.622 191.88C261.009 183.974 230.427 160.56 241.085 118.649C242.168 114.394 246.453 111.821 250.69 112.925C254.906 114.012 257.45 118.352 256.367 122.612C248.921 151.871 268.403 167.302 280.817 173.943C280.637 169.061 280.591 164.503 280.935 161.253C281.261 158.159 282.073 154.855 282.939 151.336C286.095 138.502 289.957 122.799 273.496 103.912C271.812 101.981 269.222 99.99 266.492 97.8917C261.154 93.7881 255.281 89.2739 254.603 83.9908C254.132 80.3151 254.266 76.9166 254.396 73.62C254.638 67.4476 254.867 61.6324 251.091 55.0236C244.408 43.328 231.58 37.1706 219.066 31.1635C213.114 28.3064 207.233 25.4833 202.117 22.1145C197.134 18.8356 190.163 16.9153 183.424 16.9153C172.116 16.9153 161.444 22.3135 161.821 35.7202C161.89 38.1029 161.956 51.9225 162.009 72.0265C176.728 75.5759 203.122 87.6756 210.929 128.898C211.744 133.216 208.942 137.381 204.658 138.208C204.158 138.304 203.664 138.353 203.17 138.353C199.464 138.353 196.156 135.699 195.43 131.884ZM140.725 72.0341C126.001 75.5933 99.6408 87.7053 91.839 128.897C91.0242 133.216 93.8262 137.381 98.1106 138.208C98.6102 138.308 99.1045 138.353 99.5984 138.353C103.304 138.353 106.611 135.699 107.336 131.884C112.94 102.28 129.664 91.9731 140.688 88.3855C140.582 142.726 140.566 224.998 140.783 266.817L140.785 267.217L140.783 266.945L140.788 267.833L140.804 270.591V270.658C140.894 285.9 140.701 303.37 138.312 318.427C136.85 327.653 128.897 330.555 120.606 330.555C113.467 330.555 106.076 328.401 102.381 326.279C98.6599 324.148 94.7082 322.103 90.6565 320.017C92.2147 320.103 93.759 320.145 95.2843 320.145C107.47 320.145 118.446 317.444 125.575 312.357C129.128 309.821 129.974 304.855 127.457 301.263C124.944 297.677 120.008 296.828 116.464 299.364C110.792 303.417 97.0558 306.16 80.3071 302.643C64.1526 299.242 51.1522 291.061 44.6441 280.196C43.8417 278.856 42.7118 277.841 41.4213 277.192C38.5855 270.795 36.5543 263.417 35.5965 254.805C35.2055 251.294 34.7621 247.55 34.2506 243.792C34.7626 243.331 35.2227 242.793 35.6139 242.184C48.3462 222.352 87.5472 170.875 115.64 170.822C119.998 170.811 123.521 167.24 123.51 162.848C123.505 158.46 119.977 154.906 115.624 154.906H115.614C82.336 154.965 45.947 200.089 30.0709 222.26C29.8517 221.525 29.6259 220.819 29.3933 220.145C28.8189 218.48 27.8043 216.207 26.6775 213.683C24.2568 208.26 21.3181 201.677 21.1137 197.47C21.0395 195.946 21.0497 194.046 21.1091 191.904C41.7229 184.023 72.3799 160.603 61.7104 118.649C60.6275 114.394 56.3326 111.821 52.106 112.925C47.89 114.012 45.3455 118.352 46.4285 122.612C53.8888 151.923 34.3257 167.357 21.914 173.979C22.0948 169.082 22.1415 164.509 21.7972 161.251C21.4714 158.156 20.6589 154.853 19.7934 151.334C16.6368 138.5 12.7744 122.797 29.2358 103.91C30.9203 101.979 33.5102 99.9882 36.2399 97.89C41.5786 93.7863 47.4515 89.2719 48.1298 83.9887C48.6002 80.3131 48.4665 76.9145 48.3368 73.6179C48.0939 67.4456 47.8651 61.6303 51.6415 55.0215C58.3248 43.326 71.1523 37.1685 83.6664 31.1615C89.6185 28.3043 95.4997 25.4813 100.615 22.1125C105.604 18.8286 112.569 16.9132 119.309 16.9132C130.616 16.9132 141.289 22.317 140.91 35.7183C140.843 38.1014 140.777 51.9249 140.725 72.0341ZM140.791 268.188L140.788 267.833L140.785 267.217L140.791 268.188ZM140.804 270.463C140.802 269.898 140.799 269.382 140.796 268.906L140.804 270.463Z" fill="url(#paint4_linear_16751_44211)" fill-opacity="0.8"/>
<path d="M161.945 267.601C161.947 267.333 161.949 267.062 161.949 266.791C162.166 224.929 162.151 142.585 162.045 88.2583C173.036 91.7296 189.762 101.931 195.43 131.884C196.156 135.699 199.464 138.353 203.17 138.353C203.664 138.353 204.158 138.304 204.658 138.208C208.942 137.381 211.744 133.216 210.929 128.898C203.122 87.6756 176.728 75.5759 162.009 72.0265C161.956 51.9225 161.89 38.1029 161.821 35.7202C161.444 22.3135 172.116 16.9153 183.424 16.9153C190.163 16.9153 197.134 18.8356 202.117 22.1145C207.233 25.4833 213.114 28.3064 219.066 31.1635C231.58 37.1706 244.408 43.328 251.091 55.0236C254.867 61.6324 254.638 67.4476 254.396 73.62C254.266 76.9166 254.132 80.3151 254.603 83.9908C255.281 89.2739 261.154 93.7881 266.492 97.8917C269.222 99.99 271.812 101.981 273.496 103.912C289.957 122.799 286.095 138.502 282.939 151.336C282.073 154.855 281.261 158.159 280.935 161.253C280.591 164.503 280.637 169.061 280.817 173.943C268.403 167.302 248.921 151.871 256.367 122.612C257.45 118.352 254.906 114.012 250.69 112.925C246.453 111.821 242.168 114.394 241.085 118.649C230.427 160.56 261.009 183.974 281.622 191.88C281.683 194.032 281.693 195.942 281.618 197.472C281.414 201.679 278.475 208.262 276.054 213.685C274.928 216.209 273.913 218.482 273.339 220.147C273.105 220.823 272.879 221.53 272.66 222.266C256.786 200.097 220.394 154.965 187.117 154.906H187.107C182.754 154.906 179.226 158.46 179.221 162.848C179.211 167.241 182.733 170.811 187.091 170.822C215.142 170.875 254.364 222.352 267.112 242.184C267.505 242.795 267.967 243.334 268.481 243.797C267.97 247.554 267.526 251.297 267.135 254.807C266.177 263.427 264.143 270.809 261.304 277.21C260.029 277.859 258.913 278.866 258.118 280.193C251.61 291.059 238.61 299.24 222.455 302.64C205.707 306.158 191.97 303.415 186.298 299.362C182.755 296.825 177.813 297.674 175.306 301.261C172.788 304.852 173.634 309.818 177.188 312.354C184.316 317.442 195.293 320.143 207.478 320.143C208.995 320.143 210.532 320.101 212.081 320.016C208.028 322.103 204.074 324.149 200.351 326.281C196.656 328.403 189.264 330.557 182.125 330.557C173.841 330.557 165.882 327.655 164.42 318.429C162.028 303.372 161.839 285.902 161.928 270.659V270.593L161.933 269.792L161.928 270.465C161.928 269.942 161.933 269.206 161.938 268.395L161.939 268.284C161.939 268.519 161.938 268.764 161.937 269.021L161.945 267.601ZM161.945 267.601L161.947 267.312L161.941 267.983L161.945 267.601ZM140.785 267.217L140.783 266.817C140.566 224.998 140.582 142.726 140.688 88.3855C129.664 91.9731 112.94 102.28 107.336 131.884C106.611 135.699 103.304 138.353 99.5984 138.353C99.1045 138.353 98.6102 138.308 98.1106 138.208C93.8262 137.381 91.0242 133.216 91.839 128.897C99.6408 87.7053 126.001 75.5933 140.725 72.0341C140.777 51.9249 140.843 38.1014 140.91 35.7183C141.289 22.317 130.616 16.9132 119.309 16.9132C112.569 16.9132 105.604 18.8286 100.615 22.1125C95.4997 25.4813 89.6185 28.3043 83.6664 31.1615C71.1523 37.1685 58.3248 43.326 51.6415 55.0215C47.8651 61.6303 48.0939 67.4456 48.3368 73.6179C48.4665 76.9145 48.6002 80.3131 48.1298 83.9887C47.4515 89.2719 41.5786 93.7863 36.2399 97.89C33.5102 99.9882 30.9203 101.979 29.2358 103.91C12.7744 122.797 16.6368 138.5 19.7934 151.334C20.6589 154.853 21.4714 158.156 21.7972 161.251C22.1415 164.509 22.0948 169.082 21.914 173.979C34.3257 167.357 53.8888 151.923 46.4285 122.612C45.3455 118.352 47.89 114.012 52.106 112.925C56.3326 111.821 60.6275 114.394 61.7104 118.649C72.3798 160.603 41.7229 184.023 21.1091 191.904C21.0497 194.046 21.0395 195.946 21.1137 197.47C21.3181 201.677 24.2568 208.26 26.6775 213.683C27.8043 216.207 28.8189 218.48 29.3933 220.145C29.6259 220.819 29.8517 221.525 30.0709 222.26C45.947 200.089 82.336 154.965 115.614 154.906H115.624C119.977 154.906 123.505 158.46 123.51 162.848C123.521 167.24 119.998 170.811 115.64 170.822C87.5472 170.875 48.3462 222.352 35.6139 242.184C35.2227 242.793 34.7626 243.331 34.2506 243.792C34.7621 247.55 35.2055 251.294 35.5965 254.805C36.5543 263.417 38.5855 270.795 41.4213 277.192C42.7118 277.841 43.8417 278.856 44.6441 280.196C51.1522 291.061 64.1526 299.242 80.3071 302.643C97.0558 306.16 110.792 303.417 116.464 299.364C120.008 296.828 124.944 297.677 127.457 301.263C129.974 304.855 129.128 309.821 125.575 312.357C118.446 317.444 107.47 320.145 95.2843 320.145C93.759 320.145 92.2147 320.103 90.6565 320.017C94.7082 322.103 98.6599 324.148 102.381 326.279C106.076 328.401 113.467 330.555 120.606 330.555C128.897 330.555 136.85 327.653 138.312 318.427C140.701 303.37 140.894 285.9 140.804 270.658V270.591L140.788 267.833M140.785 267.217L140.783 266.945L140.788 267.833M140.785 267.217L140.788 267.833M140.785 267.217L140.791 268.188M140.788 267.833L140.791 268.188M140.791 268.188L140.796 268.906M140.796 268.906C140.799 269.382 140.802 269.899 140.804 270.463L140.796 268.906ZM154.963 11.9343C161.75 4.88336 171.859 1 183.424 1C193.265 1 203.218 3.83929 210.74 8.78917C214.967 11.5692 220.245 14.1053 225.838 16.7896L225.846 16.7932C239.801 23.493 255.615 31.0851 264.754 47.0725C270.805 57.6672 270.433 67.2487 270.153 74.2465L270.145 74.4595C270.065 76.5811 269.993 78.4923 270.096 80.2945C271.457 81.7006 274.259 83.86 276.047 85.2338C279.28 87.7167 282.618 90.2847 285.336 93.4041C307.257 118.551 301.616 141.481 298.247 155.18C297.516 158.14 296.826 160.936 296.617 162.941C296.21 166.792 296.626 174.975 296.962 181.581L296.978 181.908C297.29 188.122 297.583 193.974 297.377 198.249C297.051 204.939 294.17 211.868 290.437 220.229C289.564 222.176 288.583 224.383 288.234 225.391C285.359 233.72 283.44 250.931 282.815 256.586C277.51 304.221 244.278 321.321 220.007 333.81L220 333.813C215.775 335.988 211.787 338.04 208.14 340.124C201.411 343.981 191.202 346.475 182.128 346.475C167.546 346.475 156.414 340.073 151.369 329.294C146.323 340.072 135.191 346.474 120.609 346.474C111.536 346.474 101.327 343.98 94.5981 340.123C90.9517 338.039 86.9639 335.987 82.7396 333.813L82.7306 333.808C58.4596 321.32 25.2274 304.22 19.9234 256.585C19.2978 250.93 17.3789 233.714 14.5035 225.384C14.1566 224.382 13.1738 222.175 12.301 220.228C8.5685 211.866 5.68615 204.938 5.36183 198.253C5.15488 193.977 5.44813 188.131 5.75957 181.923L5.7805 181.507C6.11347 174.914 6.52441 166.777 6.11721 162.941C5.90661 160.935 5.2181 158.139 4.48735 155.179C1.11761 141.48 -4.52292 118.551 17.3984 93.4033C20.1162 90.2838 23.4545 87.7161 26.6874 85.2331C28.4748 83.859 31.2769 81.6996 32.6383 80.2938C32.7403 78.5139 32.6698 76.6273 32.5917 74.5368L32.5808 74.2457C32.3022 67.2479 31.929 57.6665 37.9797 47.0717C47.1198 31.0843 62.9339 23.4922 76.8892 16.7925L76.8968 16.7888C82.4902 14.1043 87.7734 11.5684 92 8.78834C99.5174 3.83854 109.469 1.00008 119.31 1.00008C130.876 1.00008 140.985 4.8836 147.775 11.9361C149.121 13.3335 150.32 14.8311 151.368 16.419C152.417 14.8304 153.616 13.3323 154.963 11.9343ZM65.4549 100.48C66.622 101.1 67.8782 101.398 69.1189 101.398C71.9523 101.398 74.6918 99.8492 76.1003 97.1434C82.1037 85.6361 102.001 55.9155 121.715 57.2737C125.999 57.5336 129.806 54.2125 130.073 49.8249C130.341 45.4373 127.04 41.6588 122.687 41.3895C88.8273 39.2037 63.2261 87.6681 62.1484 89.7318C60.1191 93.6206 61.5963 98.4325 65.4549 100.48ZM227.662 284.013C225.134 284.013 222.642 282.782 221.117 280.501C216.676 273.854 211.304 266.098 208.61 262.553C203.594 262.471 192.922 263.347 189.98 271.95C188.85 275.239 185.796 277.308 182.526 277.308C181.674 277.308 180.802 277.163 179.95 276.868C175.834 275.43 173.652 270.899 175.072 266.745C180.22 251.728 194.33 247.104 205.503 246.603C207.459 230.478 201.666 220.765 187.509 216.216C183.361 214.884 181.069 210.412 182.389 206.22C183.708 202.029 188.14 199.705 192.298 201.053C205.504 205.297 226.447 217.558 220.623 252.165C223.619 255.873 227.735 261.927 234.196 271.609C236.63 275.254 235.673 280.198 232.062 282.655C230.711 283.572 229.181 284.013 227.662 284.013ZM70.6621 282.655C72.0131 283.572 73.5427 284.013 75.0621 284.013C77.5907 284.013 80.0823 282.782 81.6066 280.501C86.0557 273.837 91.4429 266.061 94.1298 262.531C99.0998 262.406 109.797 263.205 112.792 271.951C113.922 275.241 116.977 277.31 120.247 277.31C121.098 277.31 121.971 277.168 122.822 276.87C126.938 275.432 129.12 270.901 127.701 266.747C122.546 251.71 108.389 247.09 97.2152 246.601C95.2603 230.477 101.054 220.764 115.209 216.216C119.357 214.884 121.649 210.406 120.33 206.221C119.005 202.029 114.578 199.705 110.425 201.053C97.2148 205.297 76.2659 217.558 82.0958 252.17C79.1047 255.879 74.9832 261.932 68.5277 271.609C66.0938 275.254 67.0506 280.198 70.6621 282.655ZM233.713 101.394C230.884 101.394 228.146 99.8506 226.731 97.15C220.702 85.6427 200.841 55.9115 181.112 57.275C176.885 57.5402 173.021 54.2137 172.753 49.8263C172.486 45.4388 175.787 41.6614 180.139 41.3908C214.004 39.1838 239.606 87.6694 240.683 89.7331C242.713 93.6219 241.236 98.4233 237.382 100.476C236.215 101.097 234.953 101.394 233.713 101.394Z" stroke="url(#paint5_linear_16751_44211)" stroke-linejoin="round"/>
<defs>
<linearGradient id="paint0_linear_16751_44211" x1="104.787" y1="-30.2909" x2="321.974" y2="279.124" gradientUnits="userSpaceOnUse">
<stop stop-color="#9BFABB" stop-opacity="0.85"/>
<stop offset="1" stop-color="#74E39A" stop-opacity="0.54"/>
</linearGradient>
<linearGradient id="paint1_linear_16751_44211" x1="104.787" y1="-30.2909" x2="321.974" y2="279.124" gradientUnits="userSpaceOnUse">
<stop stop-color="#9BFABB" stop-opacity="0.85"/>
<stop offset="1" stop-color="#74E39A" stop-opacity="0.54"/>
</linearGradient>
<linearGradient id="paint2_linear_16751_44211" x1="104.787" y1="-30.2909" x2="321.974" y2="279.124" gradientUnits="userSpaceOnUse">
<stop stop-color="#9BFABB" stop-opacity="0.85"/>
<stop offset="1" stop-color="#74E39A" stop-opacity="0.54"/>
</linearGradient>
<linearGradient id="paint3_linear_16751_44211" x1="104.787" y1="-30.2909" x2="321.974" y2="279.124" gradientUnits="userSpaceOnUse">
<stop stop-color="#9BFABB" stop-opacity="0.85"/>
<stop offset="1" stop-color="#74E39A" stop-opacity="0.54"/>
</linearGradient>
<linearGradient id="paint4_linear_16751_44211" x1="104.787" y1="-30.2909" x2="321.974" y2="279.124" gradientUnits="userSpaceOnUse">
<stop stop-color="#9BFABB" stop-opacity="0.85"/>
<stop offset="1" stop-color="#74E39A" stop-opacity="0.54"/>
</linearGradient>
<linearGradient id="paint5_linear_16751_44211" x1="95.9065" y1="44.1902" x2="298.511" y2="283.468" gradientUnits="userSpaceOnUse">
<stop stop-color="#85EDAA"/>
<stop offset="1" stop-color="#63CE87"/>
</linearGradient>
</defs>
</svg>
