<svg width="91" height="22" viewBox="0 0 91 22" fill="none" xmlns="http://www.w3.org/2000/svg">
<path d="M14.0349 16.9362C14.1253 17.0718 14.273 17.1449 14.4229 17.1449C14.513 17.1449 14.6037 17.1188 14.6838 17.0642C14.8979 16.9182 14.9546 16.6242 14.8103 16.4076C14.4273 15.832 14.1832 15.4721 14.0056 15.2516C14.3509 13.1943 13.1093 12.4654 12.3264 12.2131C12.0799 12.133 11.8171 12.2712 11.7389 12.5203C11.6607 12.7695 11.7966 13.0354 12.0425 13.1145C12.8817 13.3849 13.2252 13.9624 13.1092 14.921C12.4468 14.9508 11.6103 15.2257 11.3051 16.1184C11.2209 16.3654 11.3503 16.6347 11.5943 16.7202C11.6448 16.7377 11.6965 16.7464 11.747 16.7464C11.9409 16.7464 12.122 16.6234 12.189 16.4278C12.3634 15.9164 12.9961 15.8643 13.2934 15.8692C13.4531 16.0799 13.7716 16.541 14.0349 16.9362Z" fill="url(#paint0_linear_22363_48329)" fill-opacity="0.8"/>
<path d="M14.3678 6.03627C14.4516 6.19681 14.614 6.28859 14.7817 6.28859C14.8552 6.28859 14.93 6.27092 14.9992 6.23402C15.2276 6.11196 15.3152 5.82653 15.1949 5.59535C15.131 5.47266 13.6132 2.59027 11.6055 2.72148C11.3475 2.73756 11.1518 2.96212 11.1676 3.22296C11.1835 3.48377 11.4126 3.68153 11.6632 3.66577C12.8328 3.58471 14.0103 5.35218 14.3678 6.03627Z" fill="url(#paint1_linear_22363_48329)" fill-opacity="0.8"/>
<path d="M5.02364 6.28881C4.95008 6.28881 4.87561 6.27108 4.80641 6.23425C4.57766 6.11251 4.49008 5.82645 4.61039 5.59527C4.67428 5.47258 6.19206 2.59146 8.19946 2.7214C8.45752 2.73741 8.65324 2.96204 8.63734 3.22287C8.62152 3.48371 8.39581 3.68114 8.14181 3.66569C6.97308 3.58495 5.79345 5.35178 5.43753 6.03587C5.35403 6.19673 5.19162 6.28881 5.02364 6.28881Z" fill="url(#paint2_linear_22363_48329)" fill-opacity="0.8"/>
<path d="M5.37598 17.1449C5.28591 17.1449 5.19522 17.1188 5.11512 17.0642C4.90102 16.9182 4.84429 16.6242 4.98859 16.4076C5.37131 15.8323 5.61565 15.4724 5.79298 15.252C5.44735 13.1943 6.68932 12.4654 7.47252 12.2131C7.71873 12.133 7.98115 12.2712 8.05968 12.5203C8.13791 12.7692 8.00203 13.0354 7.75613 13.1145C6.9169 13.3849 6.57344 13.9623 6.68934 14.9209C7.35176 14.95 8.19107 15.2246 8.49669 16.1185C8.58083 16.3655 8.4515 16.6348 8.20747 16.7203C8.15697 16.738 8.10525 16.7465 8.05477 16.7465C7.86092 16.7465 7.67983 16.6235 7.61283 16.4279C7.43528 15.908 6.80107 15.8604 6.50642 15.8679C6.34713 16.0778 6.02774 16.54 5.76398 16.9362C5.67361 17.0718 5.52589 17.1449 5.37598 17.1449Z" fill="url(#paint3_linear_22363_48329)" fill-opacity="0.8"/>
<path fill-rule="evenodd" clip-rule="evenodd" d="M11.8003 0.320312C11.1146 0.320312 10.5153 0.551172 10.1129 0.970341C10.0331 1.05345 9.96198 1.14251 9.89982 1.23694C9.83768 1.14255 9.7666 1.05352 9.68678 0.970447C9.28423 0.551186 8.68491 0.320317 7.99925 0.320317C7.41583 0.320317 6.82582 0.489059 6.38015 0.783316C6.12958 0.948585 5.81636 1.09934 5.48475 1.25893L5.4843 1.25915C4.65696 1.65744 3.71941 2.10878 3.17753 3.0592C2.81882 3.68904 2.84094 4.25864 2.85746 4.67465L2.8581 4.69195C2.86274 4.81623 2.86692 4.92838 2.86087 5.0342C2.78016 5.11777 2.61403 5.24614 2.50807 5.32783C2.3164 5.47544 2.11849 5.62808 1.95736 5.81353C0.65775 7.30849 0.992151 8.67162 1.19193 9.48597C1.23525 9.66195 1.27607 9.82818 1.28855 9.9474C1.3127 10.1755 1.28833 10.6592 1.26859 11.0512L1.26735 11.0759C1.24889 11.445 1.2315 11.7925 1.24377 12.0467C1.263 12.4441 1.43388 12.856 1.65516 13.353C1.70691 13.4688 1.76517 13.6 1.78574 13.6596C1.95621 14.1548 2.06997 15.1782 2.10706 15.5144C2.42151 18.3462 4.39169 19.3628 5.83061 20.1052L5.83115 20.1055C6.08158 20.2347 6.318 20.3567 6.53419 20.4806C6.93311 20.7099 7.53835 20.8581 8.07628 20.8581C8.94076 20.8581 9.60069 20.4776 9.89985 19.8368C10.199 20.4776 10.8589 20.8582 11.7235 20.8582C12.2614 20.8582 12.8666 20.71 13.2656 20.4807C13.4818 20.3568 13.7182 20.2348 13.9687 20.1055L13.9691 20.1053C15.408 19.3629 17.3782 18.3463 17.6927 15.5145C17.7298 15.1783 17.8435 14.1551 18.014 13.66C18.0347 13.6 18.0928 13.4688 18.1446 13.3531C18.3659 12.856 18.5367 12.4441 18.556 12.0464C18.5682 11.7923 18.5508 11.4444 18.5324 11.075L18.5314 11.0556C18.5115 10.6628 18.4868 10.1764 18.511 9.94745C18.5234 9.82824 18.5643 9.66202 18.6076 9.48602C18.8074 8.67167 19.1418 7.30853 17.8422 5.81358C17.681 5.62814 17.4831 5.47548 17.2914 5.32787C17.1855 5.2462 17.0194 5.11783 16.9386 5.03424C16.9325 4.9271 16.9368 4.81348 16.9416 4.68736L16.9421 4.67469C16.9586 4.25869 16.9807 3.68908 16.622 3.05924C16.0801 2.10882 15.1426 1.65748 14.3153 1.25919L14.3148 1.25898C13.9832 1.0994 13.6703 0.948632 13.4197 0.783366C12.9737 0.489103 12.3837 0.320312 11.8003 0.320312ZM12.5121 8.10117C12.176 6.32046 11.1844 5.71403 10.5328 5.50767C10.5391 8.73731 10.54 13.6325 10.5271 16.1211C10.5271 16.1372 10.527 16.1533 10.5269 16.1693L10.527 16.1521L10.5267 16.192L10.5269 16.1693L10.5264 16.2537C10.5265 16.2385 10.5265 16.2239 10.5265 16.2099L10.5265 16.2165C10.5262 16.2647 10.5259 16.3085 10.5259 16.3395L10.5261 16.2995L10.5259 16.3472V16.3511C10.5206 17.2572 10.5318 18.2958 10.6736 19.1909C10.7603 19.7394 11.2321 19.9119 11.7233 19.9119C12.1465 19.9119 12.5847 19.7839 12.8038 19.6577C13.0245 19.531 13.2589 19.4093 13.4992 19.2853C13.4073 19.2903 13.3163 19.2928 13.2263 19.2928C12.5039 19.2928 11.8532 19.1323 11.4306 18.8298C11.2199 18.679 11.1697 18.3838 11.319 18.1703C11.4676 17.9571 11.7606 17.9066 11.9707 18.0574C12.3069 18.2984 13.1213 18.4614 14.1143 18.2523C15.072 18.0502 15.8427 17.5638 16.2286 16.9179C16.2757 16.839 16.3418 16.7791 16.4174 16.7405C16.5857 16.36 16.7063 15.9211 16.7631 15.4087C16.7863 15.2 16.8126 14.9775 16.8429 14.7542C16.8124 14.7267 16.785 14.6946 16.7617 14.6583C16.006 13.4793 13.6807 10.4191 12.0177 10.4159C11.7593 10.4153 11.5505 10.203 11.5511 9.94188C11.5514 9.68105 11.7605 9.46974 12.0186 9.46974H12.0192C13.9921 9.47328 16.1496 12.1563 17.0906 13.4742C17.1037 13.4305 17.1171 13.3884 17.1309 13.3482C17.1649 13.2493 17.2251 13.1141 17.2919 12.9641C17.4354 12.6417 17.6096 12.2503 17.6218 12.0003C17.6262 11.9093 17.6256 11.7957 17.622 11.6678C16.3999 11.1978 14.5869 9.80588 15.2187 7.31436C15.2829 7.06142 15.5369 6.90845 15.7881 6.97406C16.0381 7.03871 16.1889 7.2967 16.1247 7.54996C15.6833 9.28937 16.8383 10.2067 17.5742 10.6015C17.5636 10.3112 17.5609 10.0403 17.5812 9.84706C17.6005 9.66312 17.6487 9.46674 17.7 9.25753C17.8872 8.49459 18.1162 7.56103 17.1402 6.43828C17.0404 6.32346 16.8868 6.2051 16.725 6.08036C16.4085 5.83641 16.0603 5.56805 16.0201 5.25398C15.9922 5.03546 16.0002 4.83343 16.0079 4.63745C16.0222 4.27051 16.0358 3.92481 15.8119 3.53193C15.4157 2.83664 14.6552 2.47059 13.9133 2.11348C13.5605 1.94363 13.2118 1.7758 12.9085 1.57554C12.6131 1.38061 12.1998 1.26645 11.8003 1.26645C11.1299 1.26645 10.4972 1.58737 10.5196 2.38437C10.5236 2.52602 10.5275 3.34757 10.5306 4.54272C11.4033 4.75373 12.9681 5.47303 13.4309 7.92361C13.4792 8.18033 13.3131 8.42792 13.0591 8.47712C13.0295 8.48279 13.0002 8.48574 12.9709 8.48574C12.7512 8.48574 12.5551 8.32793 12.5121 8.10117ZM9.26884 4.54317C8.39592 4.75476 6.83314 5.4748 6.37061 7.9236C6.3223 8.18033 6.48842 8.42791 6.74242 8.47712C6.77204 8.48303 6.80135 8.48574 6.83063 8.48574C7.05034 8.48574 7.24637 8.32794 7.28937 8.10117C7.62161 6.34121 8.61311 5.72851 9.26667 5.51523C9.26039 8.74568 9.25942 13.6366 9.27227 16.1227L9.27239 16.1465L9.27227 16.1303L9.27258 16.1831L9.2735 16.3471V16.351C9.27886 17.2571 9.26742 18.2957 9.12577 19.1908C9.03912 19.7393 8.56758 19.9118 8.0761 19.9118C7.65286 19.9118 7.21467 19.7837 6.99557 19.6576C6.77499 19.5309 6.54071 19.4093 6.30051 19.2854C6.39288 19.2904 6.48444 19.293 6.57486 19.293C7.29729 19.293 7.94804 19.1324 8.37065 18.8299C8.58132 18.6792 8.63149 18.384 8.48222 18.1704C8.33324 17.9572 8.0406 17.9068 7.83054 18.0575C7.49426 18.2985 6.67989 18.4616 5.68694 18.2525C4.72921 18.0503 3.95848 17.564 3.57264 16.918C3.52507 16.8384 3.45808 16.778 3.38157 16.7395C3.21345 16.3592 3.09303 15.9206 3.03625 15.4086C3.01307 15.1998 2.98678 14.9773 2.95645 14.7539C2.98681 14.7265 3.01409 14.6945 3.03728 14.6583C3.79212 13.4793 6.11617 10.4191 7.78168 10.4159C8.04004 10.4153 8.24886 10.203 8.24823 9.94188C8.24792 9.68106 8.03879 9.46974 7.78074 9.46974H7.78011C5.80722 9.47327 3.64988 12.1558 2.70866 13.4738C2.69566 13.4302 2.68228 13.3882 2.66849 13.3481C2.63444 13.2491 2.57429 13.114 2.50748 12.964C2.36397 12.6416 2.18975 12.2502 2.17763 12.0001C2.17323 11.9095 2.17383 11.7966 2.17736 11.6693C3.39946 11.2007 5.21696 9.80847 4.58442 7.31437C4.52022 7.06142 4.2656 6.90844 4.01502 6.97406C3.76507 7.03871 3.61422 7.29671 3.67843 7.54997C4.12071 9.29242 2.96091 10.2099 2.22507 10.6036C2.2358 10.3125 2.23856 10.0407 2.21815 9.84694C2.19883 9.663 2.15067 9.46662 2.09935 9.25741C1.91221 8.49447 1.68323 7.56091 2.65915 6.43816C2.75901 6.32334 2.91256 6.20499 3.07439 6.08026C3.3909 5.8363 3.73908 5.56793 3.77929 5.25385C3.80718 5.03534 3.79925 4.8333 3.79156 4.63732C3.77716 4.27039 3.7636 3.92468 3.98748 3.5318C4.3837 2.83652 5.14419 2.47047 5.88609 2.11336C6.23897 1.94351 6.58763 1.77568 6.89091 1.57541C7.18667 1.38019 7.59962 1.26633 7.99917 1.26633C8.66955 1.26633 9.30227 1.58757 9.27983 2.38426C9.27581 2.52593 9.27193 3.34771 9.26884 4.54317ZM9.27273 16.2042L9.27258 16.1831L9.27239 16.1465L9.27273 16.2042ZM9.2735 16.3394C9.27338 16.3059 9.27321 16.2752 9.27302 16.2469L9.2735 16.3394Z" fill="url(#paint4_linear_22363_48329)" fill-opacity="0.8"/>
<path d="M10.5269 16.1693C10.527 16.1533 10.5271 16.1372 10.5271 16.1211C10.54 13.6325 10.5391 8.73731 10.5328 5.50767C11.1844 5.71403 12.176 6.32046 12.5121 8.10117C12.5551 8.32793 12.7512 8.48574 12.9709 8.48574C13.0002 8.48574 13.0295 8.48279 13.0591 8.47712C13.3131 8.42792 13.4792 8.18033 13.4309 7.92361C12.9681 5.47303 11.4033 4.75373 10.5306 4.54272C10.5275 3.34757 10.5236 2.52602 10.5196 2.38437C10.4972 1.58737 11.1299 1.26645 11.8003 1.26645C12.1998 1.26645 12.6131 1.38061 12.9085 1.57554C13.2118 1.7758 13.5605 1.94363 13.9133 2.11348C14.6552 2.47059 15.4157 2.83664 15.8119 3.53193C16.0358 3.92481 16.0222 4.27051 16.0079 4.63745C16.0002 4.83343 15.9922 5.03546 16.0201 5.25398C16.0603 5.56805 16.4085 5.83641 16.725 6.08036C16.8868 6.2051 17.0404 6.32346 17.1402 6.43828C18.1162 7.56103 17.8872 8.49459 17.7 9.25753C17.6487 9.46674 17.6005 9.66312 17.5812 9.84706C17.5609 10.0403 17.5636 10.3112 17.5742 10.6015C16.8383 10.2067 15.6833 9.28937 16.1247 7.54996C16.1889 7.2967 16.0381 7.03871 15.7881 6.97406C15.5369 6.90845 15.2829 7.06142 15.2187 7.31436C14.5869 9.80588 16.3999 11.1978 17.622 11.6678C17.6256 11.7957 17.6262 11.9093 17.6218 12.0003C17.6096 12.2503 17.4354 12.6417 17.2919 12.9641C17.2251 13.1141 17.1649 13.2493 17.1309 13.3482C17.1171 13.3884 17.1037 13.4305 17.0906 13.4742C16.1496 12.1563 13.9921 9.47328 12.0192 9.46974H12.0186C11.7605 9.46974 11.5514 9.68105 11.5511 9.94188C11.5505 10.203 11.7593 10.4153 12.0177 10.4159C13.6807 10.4191 16.006 13.4793 16.7617 14.6583C16.785 14.6946 16.8124 14.7267 16.8429 14.7542C16.8126 14.9775 16.7863 15.2 16.7631 15.4087C16.7063 15.9211 16.5857 16.36 16.4174 16.7405C16.3418 16.7791 16.2757 16.839 16.2286 16.9179C15.8427 17.5638 15.072 18.0502 14.1143 18.2523C13.1213 18.4614 12.3069 18.2984 11.9707 18.0574C11.7606 17.9066 11.4676 17.9571 11.319 18.1703C11.1697 18.3838 11.2199 18.679 11.4306 18.8298C11.8532 19.1323 12.5039 19.2928 13.2263 19.2928C13.3163 19.2928 13.4073 19.2903 13.4992 19.2853C13.2589 19.4093 13.0245 19.531 12.8038 19.6577C12.5847 19.7839 12.1465 19.9119 11.7233 19.9119C11.2321 19.9119 10.7603 19.7394 10.6736 19.1909C10.5318 18.2958 10.5206 17.2572 10.5259 16.3511V16.3472L10.5261 16.2995L10.5259 16.3395C10.5259 16.3085 10.5262 16.2647 10.5265 16.2165L10.5265 16.2099C10.5265 16.2239 10.5265 16.2385 10.5264 16.2537L10.5269 16.1693ZM10.5269 16.1693L10.527 16.1521L10.5267 16.192L10.5269 16.1693ZM9.27239 16.1465L9.27227 16.1227C9.25942 13.6366 9.26039 8.74568 9.26667 5.51523C8.61311 5.72851 7.62161 6.34121 7.28937 8.10117C7.24637 8.32794 7.05034 8.48574 6.83063 8.48574C6.80135 8.48574 6.77204 8.48303 6.74242 8.47712C6.48842 8.42791 6.3223 8.18033 6.37061 7.9236C6.83314 5.4748 8.39592 4.75476 9.26884 4.54317C9.27193 3.34771 9.27581 2.52593 9.27983 2.38426C9.30227 1.58757 8.66955 1.26633 7.99917 1.26633C7.59962 1.26633 7.18667 1.38019 6.89091 1.57541C6.58763 1.77568 6.23897 1.94351 5.88609 2.11336C5.14419 2.47047 4.3837 2.83652 3.98748 3.5318C3.7636 3.92468 3.77716 4.27039 3.79156 4.63732C3.79925 4.8333 3.80718 5.03534 3.77929 5.25385C3.73908 5.56793 3.3909 5.8363 3.07439 6.08026C2.91256 6.20499 2.75901 6.32334 2.65915 6.43816C1.68323 7.56091 1.91221 8.49447 2.09935 9.25741C2.15067 9.46662 2.19883 9.663 2.21815 9.84694C2.23856 10.0407 2.2358 10.3125 2.22507 10.6036C2.96091 10.2099 4.12071 9.29242 3.67843 7.54997C3.61422 7.29671 3.76507 7.03871 4.01502 6.97406C4.2656 6.90844 4.52022 7.06142 4.58442 7.31437C5.21696 9.80847 3.39946 11.2007 2.17736 11.6693C2.17383 11.7966 2.17323 11.9095 2.17763 12.0001C2.18975 12.2502 2.36397 12.6416 2.50748 12.964C2.57429 13.114 2.63444 13.2491 2.66849 13.3481C2.68228 13.3882 2.69566 13.4302 2.70866 13.4738C3.64988 12.1558 5.80722 9.47327 7.78011 9.46974H7.78074C8.03879 9.46974 8.24792 9.68106 8.24823 9.94188C8.24886 10.203 8.04004 10.4153 7.78168 10.4159C6.11617 10.4191 3.79212 13.4793 3.03728 14.6583C3.01409 14.6945 2.98681 14.7265 2.95645 14.7539C2.98678 14.9773 3.01307 15.1998 3.03625 15.4086C3.09303 15.9206 3.21345 16.3592 3.38157 16.7395C3.45808 16.778 3.52507 16.8384 3.57264 16.918C3.95848 17.564 4.72921 18.0503 5.68694 18.2525C6.67989 18.4616 7.49426 18.2985 7.83054 18.0575C8.0406 17.9068 8.33324 17.9572 8.48222 18.1704C8.63149 18.384 8.58132 18.6792 8.37065 18.8299C7.94804 19.1324 7.29729 19.293 6.57486 19.293C6.48444 19.293 6.39288 19.2904 6.30051 19.2854C6.54071 19.4093 6.77499 19.5309 6.99557 19.6576C7.21467 19.7837 7.65286 19.9118 8.0761 19.9118C8.56758 19.9118 9.03912 19.7393 9.12577 19.1908C9.26742 18.2957 9.27886 17.2571 9.2735 16.351V16.3471L9.27258 16.1831M9.27239 16.1465L9.27227 16.1303L9.27258 16.1831M9.27239 16.1465L9.27258 16.1831M9.27239 16.1465L9.27273 16.2042M9.27258 16.1831L9.27273 16.2042M9.27273 16.2042L9.27302 16.2469M9.27302 16.2469C9.27321 16.2752 9.27338 16.3059 9.2735 16.3394L9.27302 16.2469ZM10.1129 0.970341C10.5153 0.551172 11.1146 0.320312 11.8003 0.320312C12.3837 0.320312 12.9737 0.489103 13.4197 0.783366C13.6703 0.948632 13.9832 1.0994 14.3148 1.25898L14.3153 1.25919C15.1426 1.65748 16.0801 2.10882 16.622 3.05924C16.9807 3.68908 16.9586 4.25869 16.9421 4.67469L16.9416 4.68736C16.9368 4.81348 16.9325 4.9271 16.9386 5.03424C17.0194 5.11783 17.1855 5.2462 17.2914 5.32787C17.4831 5.47548 17.681 5.62814 17.8422 5.81358C19.1418 7.30853 18.8074 8.67167 18.6076 9.48602C18.5643 9.66202 18.5234 9.82824 18.511 9.94745C18.4868 10.1764 18.5115 10.6628 18.5314 11.0556L18.5324 11.075C18.5508 11.4444 18.5682 11.7923 18.556 12.0464C18.5367 12.4441 18.3659 12.856 18.1446 13.3531C18.0928 13.4688 18.0347 13.6 18.014 13.66C17.8435 14.1551 17.7298 15.1783 17.6927 15.5145C17.3782 18.3463 15.408 19.3629 13.9691 20.1053L13.9687 20.1055C13.7182 20.2348 13.4818 20.3568 13.2656 20.4807C12.8666 20.71 12.2614 20.8582 11.7235 20.8582C10.8589 20.8582 10.199 20.4776 9.89985 19.8368C9.60069 20.4776 8.94076 20.8581 8.07628 20.8581C7.53835 20.8581 6.93311 20.7099 6.53419 20.4806C6.318 20.3567 6.08158 20.2347 5.83115 20.1055L5.83061 20.1052C4.39169 19.3628 2.42151 18.3462 2.10706 15.5144C2.06997 15.1782 1.95621 14.1548 1.78574 13.6596C1.76517 13.6 1.70691 13.4688 1.65516 13.353C1.43388 12.856 1.263 12.4441 1.24377 12.0467C1.2315 11.7925 1.24889 11.445 1.26735 11.0759L1.26859 11.0512C1.28833 10.6592 1.3127 10.1755 1.28855 9.9474C1.27607 9.82818 1.23525 9.66195 1.19193 9.48597C0.992151 8.67162 0.65775 7.30849 1.95736 5.81353C2.11849 5.62808 2.3164 5.47544 2.50807 5.32783C2.61403 5.24614 2.78016 5.11777 2.86087 5.0342C2.86692 4.92838 2.86274 4.81623 2.8581 4.69195L2.85746 4.67465C2.84094 4.25864 2.81882 3.68904 3.17753 3.0592C3.71941 2.10878 4.65696 1.65744 5.4843 1.25915L5.48475 1.25893C5.81636 1.09934 6.12958 0.948585 6.38015 0.783316C6.82582 0.489059 7.41583 0.320317 7.99925 0.320317C8.68491 0.320317 9.28423 0.551186 9.68678 0.970447C9.7666 1.05352 9.83768 1.14255 9.89982 1.23694C9.96198 1.14251 10.0331 1.05345 10.1129 0.970341ZM4.80641 6.23425C4.87561 6.27108 4.95008 6.28881 5.02364 6.28881C5.19162 6.28881 5.35403 6.19673 5.43753 6.03587C5.79345 5.35178 6.97308 3.58495 8.14181 3.66569C8.39581 3.68114 8.62152 3.48371 8.63734 3.22287C8.65324 2.96204 8.45752 2.73741 8.19946 2.7214C6.19206 2.59146 4.67428 5.47258 4.61039 5.59527C4.49008 5.82645 4.57766 6.11251 4.80641 6.23425ZM14.4229 17.1449C14.273 17.1449 14.1253 17.0718 14.0349 16.9362C13.7716 16.541 13.4531 16.0799 13.2934 15.8692C12.9961 15.8643 12.3634 15.9164 12.189 16.4278C12.122 16.6234 11.9409 16.7464 11.747 16.7464C11.6965 16.7464 11.6448 16.7377 11.5943 16.7202C11.3503 16.6347 11.2209 16.3654 11.3051 16.1184C11.6103 15.2257 12.4468 14.9508 13.1092 14.921C13.2252 13.9624 12.8817 13.3849 12.0425 13.1145C11.7966 13.0354 11.6607 12.7695 11.7389 12.5203C11.8171 12.2712 12.0799 12.133 12.3264 12.2131C13.1093 12.4654 14.3509 13.1943 14.0056 15.2516C14.1832 15.4721 14.4273 15.832 14.8103 16.4076C14.9546 16.6242 14.8979 16.9182 14.6838 17.0642C14.6037 17.1188 14.513 17.1449 14.4229 17.1449ZM5.11512 17.0642C5.19522 17.1188 5.28591 17.1449 5.37598 17.1449C5.52589 17.1449 5.67361 17.0718 5.76398 16.9362C6.02774 16.54 6.34713 16.0778 6.50642 15.8679C6.80107 15.8604 7.43528 15.908 7.61283 16.4279C7.67983 16.6235 7.86092 16.7465 8.05477 16.7465C8.10525 16.7465 8.15697 16.738 8.20747 16.7203C8.4515 16.6348 8.58083 16.3655 8.49669 16.1185C8.19107 15.2246 7.35176 14.95 6.68934 14.9209C6.57344 13.9623 6.9169 13.3849 7.75613 13.1145C8.00203 13.0354 8.13791 12.7692 8.05968 12.5203C7.98115 12.2712 7.71873 12.133 7.47252 12.2131C6.68932 12.4654 5.44735 13.1943 5.79298 15.252C5.61565 15.4724 5.37131 15.8323 4.98859 16.4076C4.84429 16.6242 4.90102 16.9182 5.11512 17.0642ZM14.7817 6.28859C14.614 6.28859 14.4516 6.19681 14.3678 6.03627C14.0103 5.35218 12.8328 3.58471 11.6632 3.66577C11.4126 3.68153 11.1835 3.48377 11.1676 3.22296C11.1518 2.96212 11.3475 2.73756 11.6055 2.72148C13.6132 2.59027 15.131 5.47266 15.1949 5.59535C15.3152 5.82653 15.2276 6.11196 14.9992 6.23402C14.93 6.27092 14.8552 6.28859 14.7817 6.28859Z" stroke="url(#paint5_linear_22363_48329)" stroke-width="0.15" stroke-linejoin="round"/>
<path d="M33.1999 6.33152C34.215 5.79161 35.3164 5.46767 36.3962 5.46767C39.3764 5.46767 40.8882 7.67048 40.3699 10.7371L39.2901 16.6545C39.2685 16.8704 39.1173 17 38.9013 17H36.461C36.2018 17 36.0938 16.8272 36.1154 16.5897L37.2168 10.2836C37.4544 8.90145 36.9577 8.29676 35.9211 8.29676C35.4028 8.29676 34.8628 8.46953 34.4741 8.68549C34.5821 9.29019 34.5821 10.0029 34.4525 10.7371L33.3943 16.6545C33.3727 16.8704 33.2215 17 33.0056 17H30.5652C30.3061 17 30.1765 16.8272 30.2197 16.5897L31.3211 10.2836C31.5586 8.90145 31.1051 8.29676 30.1333 8.29676C29.6582 8.29676 29.1831 8.40474 28.8807 8.55592L27.4122 16.6545C27.369 16.892 27.2394 17 27.0235 17H24.5399C24.3023 17 24.1728 16.8488 24.216 16.5897L26.0084 6.72025C26.0516 6.54748 26.138 6.4179 26.3324 6.33152C27.6066 5.79161 29.1831 5.46767 30.522 5.46767C31.6018 5.46767 32.5305 5.79161 33.1999 6.33152ZM42.0069 9.61413C42.5253 6.78504 44.7712 5.46767 47.3844 5.46767C50.1487 5.46767 52.1139 6.93621 51.5308 10.1108L51.1637 12.2057C51.1205 12.4216 50.9909 12.5296 50.775 12.5296H44.7712L44.7065 12.8319C44.4905 13.9765 45.0088 14.538 46.1966 14.538C47.1468 14.538 48.1402 14.1925 49.0041 13.6742C49.22 13.523 49.3928 13.5446 49.5008 13.7822L50.3862 15.4451C50.4726 15.661 50.451 15.8554 50.2567 15.9634C49.0905 16.7624 47.6219 17.2807 45.7431 17.2807C42.914 17.2807 40.9487 15.5531 41.4454 12.7456L42.0069 9.61413ZM48.421 9.83009C48.5722 8.96624 48.205 8.21038 47.1036 8.21038C46.175 8.21038 45.4623 8.77188 45.268 9.7869L45.16 10.37H48.313L48.421 9.83009ZM60.8075 6.33152C61.8226 5.79161 62.924 5.46767 64.0038 5.46767C66.984 5.46767 68.4958 7.67048 67.9775 10.7371L66.8977 16.6545C66.8761 16.8704 66.7249 17 66.5089 17H64.0686C63.8094 17 63.7014 16.8272 63.723 16.5897L64.8244 10.2836C65.062 8.90145 64.5653 8.29676 63.5287 8.29676C63.0104 8.29676 62.4704 8.46953 62.0817 8.68549C62.1897 9.29019 62.1897 10.0029 62.0601 10.7371L61.0019 16.6545C60.9803 16.8704 60.8291 17 60.6132 17H58.1728C57.9137 17 57.7841 16.8272 57.8273 16.5897L58.9287 10.2836C59.1662 8.90145 58.7127 8.29676 57.7409 8.29676C57.2658 8.29676 56.7907 8.40474 56.4883 8.55592L55.0198 16.6545C54.9766 16.892 54.847 17 54.6311 17H52.1475C51.9099 17 51.7804 16.8488 51.8236 16.5897L53.616 6.72025C53.6592 6.54748 53.7456 6.4179 53.94 6.33152C55.2142 5.79161 56.7907 5.46767 58.1296 5.46767C59.2094 5.46767 60.1381 5.79161 60.8075 6.33152ZM69.6145 9.61413C70.1329 6.78504 72.3788 5.46767 74.992 5.46767C77.7563 5.46767 79.7215 6.93621 79.1384 10.1108L78.7713 12.2057C78.7281 12.4216 78.5985 12.5296 78.3826 12.5296H72.3788L72.3141 12.8319C72.0981 13.9765 72.6164 14.538 73.8042 14.538C74.7544 14.538 75.7478 14.1925 76.6117 13.6742C76.8276 13.523 77.0004 13.5446 77.1084 13.7822L77.9938 15.4451C78.0802 15.661 78.0586 15.8554 77.8643 15.9634C76.6981 16.7624 75.2295 17.2807 73.3507 17.2807C70.5216 17.2807 68.5563 15.5531 69.053 12.7456L69.6145 9.61413ZM76.0286 9.83009C76.1798 8.96624 75.8126 8.21038 74.7112 8.21038C73.7826 8.21038 73.0699 8.77188 72.8756 9.7869L72.7676 10.37H75.9206L76.0286 9.83009ZM89.8235 5.77002C90.1258 5.77002 90.2338 5.96438 90.061 6.20194L86.3897 11.4066L88.3981 16.5681C88.5061 16.8272 88.3765 17 88.0958 17H85.4394C85.2235 17 85.0939 16.892 85.0291 16.6761L84.0573 13.5446L81.8977 16.7408C81.7897 16.9136 81.6385 17 81.4442 17H78.6367C78.3127 17 78.2047 16.784 78.3775 16.5465L82.3296 11.169L80.4939 6.18034C80.4075 5.92119 80.5155 5.77002 80.7747 5.77002H83.3878C83.6038 5.77002 83.7333 5.8564 83.7981 6.07236L84.662 9.29019L86.6704 6.00758C86.7568 5.83481 86.8864 5.77002 87.1023 5.77002H89.8235Z" fill="url(#paint6_linear_22363_48329)"/>
<defs>
<linearGradient id="paint0_linear_22363_48329" x1="7.13821" y1="-1.53988" x2="20.0617" y2="16.8209" gradientUnits="userSpaceOnUse">
<stop stop-color="#9BFABB" stop-opacity="0.85"/>
<stop offset="1" stop-color="#74E39A" stop-opacity="0.54"/>
</linearGradient>
<linearGradient id="paint1_linear_22363_48329" x1="7.13821" y1="-1.53988" x2="20.0617" y2="16.8209" gradientUnits="userSpaceOnUse">
<stop stop-color="#9BFABB" stop-opacity="0.85"/>
<stop offset="1" stop-color="#74E39A" stop-opacity="0.54"/>
</linearGradient>
<linearGradient id="paint2_linear_22363_48329" x1="7.13821" y1="-1.53988" x2="20.0617" y2="16.8209" gradientUnits="userSpaceOnUse">
<stop stop-color="#9BFABB" stop-opacity="0.85"/>
<stop offset="1" stop-color="#74E39A" stop-opacity="0.54"/>
</linearGradient>
<linearGradient id="paint3_linear_22363_48329" x1="7.13821" y1="-1.53988" x2="20.0617" y2="16.8209" gradientUnits="userSpaceOnUse">
<stop stop-color="#9BFABB" stop-opacity="0.85"/>
<stop offset="1" stop-color="#74E39A" stop-opacity="0.54"/>
</linearGradient>
<linearGradient id="paint4_linear_22363_48329" x1="7.13821" y1="-1.53988" x2="20.0617" y2="16.8209" gradientUnits="userSpaceOnUse">
<stop stop-color="#9BFABB" stop-opacity="0.85"/>
<stop offset="1" stop-color="#74E39A" stop-opacity="0.54"/>
</linearGradient>
<linearGradient id="paint5_linear_22363_48329" x1="6.61175" y1="2.8879" x2="18.6616" y2="17.0799" gradientUnits="userSpaceOnUse">
<stop stop-color="#85EDAA"/>
<stop offset="1" stop-color="#63CE87"/>
</linearGradient>
<linearGradient id="paint6_linear_22363_48329" x1="115.282" y1="-4.28977" x2="56.1498" y2="55.8218" gradientUnits="userSpaceOnUse">
<stop stop-color="#6AE394"/>
<stop offset="1" stop-color="white"/>
</linearGradient>
</defs>
</svg>
