<svg width="394" height="451" viewBox="0 0 394 451" fill="none" xmlns="http://www.w3.org/2000/svg">
<path d="M287.604 364.091C289.585 367.047 292.822 368.641 296.106 368.641C298.08 368.641 300.067 368.07 301.821 366.881C306.512 363.699 307.755 357.293 304.594 352.572C296.201 340.028 290.854 332.186 286.962 327.382C294.528 282.549 267.323 266.666 250.169 261.167C244.768 259.421 239.011 262.432 237.297 267.862C235.583 273.291 238.56 279.085 243.948 280.81C262.337 286.703 269.862 299.287 267.322 320.177C252.808 320.826 234.48 326.816 227.792 346.271C225.948 351.652 228.782 357.522 234.129 359.385C235.235 359.767 236.368 359.955 237.475 359.955C241.722 359.955 245.69 357.275 247.158 353.013C250.98 341.868 264.842 340.734 271.357 340.84C274.857 345.433 281.835 355.48 287.604 364.091Z" fill="url(#paint0_linear_22597_48691)" fill-opacity="0.8"/>
<path d="M294.897 126.562C296.734 130.06 300.292 132.06 303.966 132.06C305.577 132.06 307.216 131.675 308.732 130.871C313.738 128.211 315.657 121.991 313.021 116.953C311.621 114.28 278.365 51.4668 234.375 54.326C228.721 54.6765 224.434 59.5701 224.78 65.2542C225.129 70.9379 230.148 75.2474 235.638 74.9039C261.266 73.1375 287.065 111.654 294.897 126.562Z" fill="url(#paint1_linear_22597_48691)" fill-opacity="0.8"/>
<path d="M90.1607 132.065C88.5492 132.065 86.9174 131.679 85.4013 130.876C80.389 128.223 78.4702 121.989 81.1063 116.951C82.5061 114.278 115.762 51.4926 159.745 54.3243C165.4 54.6732 169.688 59.5682 169.34 65.2524C168.993 70.9364 164.047 75.2389 158.482 74.9021C132.875 73.1427 107.028 111.645 99.2295 126.553C97.3999 130.058 93.8414 132.065 90.1607 132.065Z" fill="url(#paint2_linear_22597_48691)" fill-opacity="0.8"/>
<path d="M97.8809 368.641C95.9073 368.641 93.9203 368.07 92.1653 366.882C87.4741 363.699 86.2312 357.294 89.3928 352.572C97.7785 340.035 103.132 332.193 107.018 327.389C99.4447 282.549 126.657 266.666 143.817 261.167C149.212 259.421 154.962 262.432 156.683 267.862C158.397 273.285 155.419 279.085 150.032 280.811C131.644 286.703 124.118 299.286 126.658 320.174C141.172 320.808 159.561 326.793 166.258 346.273C168.101 351.655 165.268 357.524 159.921 359.387C158.814 359.773 157.681 359.958 156.575 359.958C152.328 359.958 148.36 357.277 146.892 353.016C143.002 341.685 129.106 340.649 122.65 340.811C119.159 345.385 112.161 355.459 106.382 364.091C104.402 367.046 101.166 368.641 97.8809 368.641Z" fill="url(#paint3_linear_22597_48691)" fill-opacity="0.8"/>
<path fill-rule="evenodd" clip-rule="evenodd" d="M238.642 2C223.618 2 210.487 7.03086 201.671 16.1654C199.921 17.9764 198.363 19.9172 197.001 21.9752C195.64 19.918 194.082 17.978 192.333 16.1677C183.513 7.03118 170.382 2.0001 155.359 2.0001C142.575 2.0001 129.648 5.67731 119.883 12.0897C114.393 15.6913 107.53 18.9765 100.264 22.4543L100.254 22.459C82.1265 31.1385 61.5843 40.974 49.7113 61.6856C41.8515 75.411 42.3364 87.8237 42.6983 96.8893L42.7124 97.2664C42.8139 99.9747 42.9055 102.419 42.7729 104.725C41.0046 106.546 37.3646 109.343 35.0429 111.123C30.8433 114.34 26.507 117.666 22.9766 121.708C-5.49895 154.286 1.82803 183.991 6.20528 201.737C7.15451 205.572 8.04887 209.195 8.32244 211.793C8.85139 216.763 8.31758 227.304 7.88506 235.846L7.85787 236.385C7.45332 244.427 7.07238 252 7.34121 257.54C7.7625 266.2 11.5066 275.176 16.3551 286.008C17.4888 288.531 18.7655 291.389 19.2161 292.688C22.9512 303.479 25.4439 325.782 26.2565 333.109C33.1464 394.82 76.3144 416.972 107.842 433.151L107.854 433.157C113.341 435.973 118.521 438.632 123.258 441.332C131.999 446.328 145.26 449.559 157.046 449.559C175.988 449.559 190.447 441.265 197.002 427.302C203.557 441.266 218.017 449.56 236.959 449.56C248.745 449.56 262.006 446.33 270.747 441.333C275.484 438.633 280.665 435.974 286.153 433.157L286.163 433.153C317.691 416.974 360.859 394.821 367.749 333.11C368.561 325.784 371.054 303.488 374.789 292.697C375.242 291.391 376.516 288.532 377.65 286.009C382.499 275.177 386.241 266.201 386.664 257.534C386.933 251.997 386.552 244.415 386.147 236.365L386.125 235.942C385.689 227.384 385.148 216.782 385.678 211.794C385.95 209.196 386.846 205.574 387.795 201.738C392.172 183.992 399.499 154.287 371.024 121.709C367.493 117.668 363.157 114.341 358.957 111.124C356.635 109.345 352.996 106.547 351.227 104.726C351.093 102.391 351.187 99.9148 351.291 97.1663L351.302 96.8903C351.665 87.8248 352.149 75.412 344.289 61.6865C332.417 40.975 311.875 31.1395 293.747 22.46L293.737 22.4554C286.471 18.9778 279.615 15.6923 274.125 12.0908C264.353 5.67828 251.425 2 238.642 2ZM254.238 171.56C246.874 132.755 225.148 119.54 210.871 115.043C211.009 185.423 211.028 292.099 210.746 346.33C210.745 346.681 210.743 347.032 210.741 347.379L210.743 347.006L210.736 347.875L210.741 347.379L210.73 349.219C210.732 348.887 210.733 348.569 210.733 348.265L210.732 348.408C210.725 349.458 210.719 350.412 210.719 351.09L210.725 350.218L210.719 351.256V351.342C210.603 371.088 210.848 393.721 213.956 413.227C215.854 425.179 226.193 428.938 236.955 428.938C246.228 428.938 255.829 426.148 260.63 423.399C265.465 420.637 270.601 417.986 275.867 415.283C273.854 415.393 271.859 415.447 269.888 415.447C254.059 415.447 239.8 411.948 230.541 405.357C225.925 402.072 224.825 395.639 228.096 390.986C231.354 386.34 237.773 385.24 242.375 388.525C249.743 393.776 267.587 397.33 289.343 392.773C310.327 388.367 327.215 377.769 335.669 363.693C336.701 361.974 338.15 360.669 339.806 359.828C343.495 351.536 346.136 341.972 347.382 330.805C347.889 326.257 348.465 321.409 349.129 316.542C348.461 315.943 347.861 315.244 347.351 314.452C330.792 288.76 279.843 222.071 243.405 222.003C237.744 221.989 233.169 217.364 233.182 211.672C233.189 205.988 237.771 201.383 243.425 201.383H243.439C286.665 201.461 333.938 259.929 354.557 288.649C354.843 287.695 355.137 286.778 355.439 285.904C356.185 283.747 357.504 280.802 358.967 277.532C362.112 270.506 365.929 261.978 366.195 256.528C366.292 254.546 366.278 252.072 366.2 249.283C339.424 239.042 299.698 208.709 313.543 154.414C314.95 148.902 320.515 145.568 326.019 146.998C331.495 148.407 334.801 154.029 333.394 159.548C323.722 197.453 349.028 217.443 365.153 226.046C364.92 219.721 364.86 213.817 365.307 209.606C365.73 205.598 366.785 201.318 367.91 196.759C372.01 180.133 377.027 159.789 355.644 135.322C353.456 132.82 350.092 130.241 346.546 127.522C339.611 122.206 331.983 116.358 331.102 109.514C330.491 104.752 330.664 100.349 330.833 96.0786C331.148 88.0824 331.445 80.5488 326.54 71.9872C317.859 56.8357 301.196 48.8587 284.94 41.0766C277.209 37.3752 269.569 33.7179 262.924 29.3537C256.45 25.106 247.396 22.6182 238.641 22.6182C223.953 22.6182 210.09 29.6115 210.58 46.9797C210.67 50.0666 210.755 67.9697 210.823 94.0143C229.944 98.6126 264.23 114.288 274.37 167.69C275.429 173.285 271.789 178.68 266.224 179.752C265.575 179.876 264.933 179.94 264.291 179.94C259.477 179.94 255.18 176.501 254.238 171.56ZM183.176 94.0242C164.05 98.6352 129.808 114.326 119.674 167.69C118.615 173.285 122.255 178.68 127.821 179.752C128.47 179.881 129.112 179.94 129.753 179.94C134.567 179.94 138.862 176.502 139.805 171.56C147.084 133.207 168.809 119.855 183.129 115.207C182.991 185.605 182.97 292.187 183.251 346.364L183.254 346.882L183.251 346.53L183.258 347.68L183.278 351.254V351.339C183.396 371.086 183.145 393.719 180.041 413.224C178.143 425.176 167.811 428.936 157.042 428.936C147.769 428.936 138.168 426.146 133.367 423.396C128.534 420.636 123.401 417.986 118.138 415.285C120.162 415.396 122.168 415.451 124.149 415.451C139.978 415.451 154.236 411.951 163.496 405.36C168.112 402.075 169.211 395.642 165.941 390.989C162.677 386.343 156.265 385.243 151.662 388.528C144.294 393.779 126.45 397.333 104.694 392.776C83.7096 388.37 66.8223 377.772 58.3684 363.696C57.3261 361.96 55.8584 360.646 54.1819 359.805C50.4983 351.517 47.8598 341.96 46.6157 330.803C46.1078 326.253 45.5317 321.403 44.8673 316.536C45.5324 315.938 46.1301 315.241 46.6383 314.452C63.1774 288.76 114.099 222.072 150.591 222.003C156.252 221.989 160.828 217.363 160.814 211.672C160.807 205.989 156.225 201.383 150.571 201.383H150.557C107.33 201.46 60.0609 259.918 39.438 288.641C39.1532 287.689 38.8599 286.774 38.5578 285.901C37.8117 283.744 36.4937 280.8 35.03 277.529C31.8855 270.504 28.0682 261.975 27.8027 256.526C27.7063 254.551 27.7195 252.089 27.7968 249.315C54.5738 239.104 94.3967 208.765 80.5373 154.414C79.1306 148.902 73.5516 145.568 68.0613 146.998C62.5848 148.407 59.2795 154.029 60.6863 159.548C70.377 197.52 44.9649 217.514 28.8422 226.093C29.0772 219.749 29.1378 213.825 28.6906 209.603C28.2673 205.595 27.2119 201.316 26.0876 196.757C21.9873 180.131 16.9701 159.787 38.3531 135.32C40.5413 132.818 43.9056 130.238 47.4514 127.52C54.3862 122.204 62.0152 116.356 62.8963 109.511C63.5073 104.75 63.3336 100.347 63.1651 96.076C62.8496 88.0798 62.5524 80.5461 67.4579 71.9845C76.1394 56.833 92.8021 48.8561 109.058 41.074C116.789 37.3726 124.429 33.7153 131.074 29.3511C137.554 25.0969 146.602 22.6155 155.357 22.6155C170.045 22.6155 183.909 29.616 183.417 46.9773C183.329 50.0646 183.244 67.9729 183.176 94.0242ZM183.261 348.14L183.258 347.68L183.254 346.882L183.261 348.14ZM183.278 351.087C183.276 350.356 183.272 349.687 183.268 349.07L183.278 351.087Z" fill="url(#paint4_linear_22597_48691)" fill-opacity="0.8"/>
<path d="M210.741 347.379C210.743 347.032 210.745 346.681 210.746 346.33C211.028 292.099 211.009 185.423 210.871 115.043C225.148 119.54 246.874 132.755 254.238 171.56C255.18 176.501 259.477 179.94 264.291 179.94C264.933 179.94 265.575 179.876 266.224 179.752C271.789 178.68 275.429 173.285 274.37 167.69C264.23 114.288 229.944 98.6126 210.823 94.0143C210.755 67.9697 210.67 50.0666 210.58 46.9797C210.09 29.6115 223.953 22.6182 238.641 22.6182C247.396 22.6182 256.45 25.106 262.924 29.3537C269.569 33.7179 277.209 37.3752 284.94 41.0766C301.196 48.8587 317.859 56.8357 326.54 71.9872C331.445 80.5488 331.148 88.0824 330.833 96.0786C330.664 100.349 330.491 104.752 331.102 109.514C331.983 116.358 339.611 122.206 346.546 127.522C350.092 130.241 353.456 132.82 355.644 135.322C377.027 159.789 372.01 180.133 367.91 196.759C366.785 201.318 365.73 205.598 365.307 209.606C364.86 213.817 364.92 219.721 365.153 226.046C349.028 217.443 323.722 197.453 333.394 159.548C334.801 154.029 331.495 148.407 326.019 146.998C320.515 145.568 314.95 148.902 313.543 154.414C299.698 208.709 339.424 239.042 366.2 249.283C366.278 252.072 366.292 254.546 366.195 256.528C365.929 261.978 362.112 270.506 358.967 277.532C357.504 280.802 356.185 283.747 355.439 285.904C355.137 286.778 354.843 287.695 354.557 288.649C333.938 259.929 286.665 201.461 243.439 201.383H243.425C237.771 201.383 233.189 205.988 233.182 211.672C233.169 217.364 237.744 221.989 243.405 222.003C279.843 222.071 330.792 288.76 347.351 314.452C347.861 315.244 348.461 315.943 349.129 316.542C348.465 321.409 347.889 326.257 347.382 330.805C346.136 341.972 343.495 351.536 339.806 359.828C338.15 360.669 336.701 361.974 335.669 363.693C327.215 377.769 310.327 388.367 289.343 392.773C267.587 397.33 249.743 393.776 242.375 388.525C237.773 385.24 231.354 386.34 228.096 390.986C224.825 395.639 225.925 402.072 230.541 405.357C239.8 411.948 254.059 415.447 269.888 415.447C271.859 415.447 273.854 415.393 275.867 415.283C270.601 417.986 265.465 420.637 260.63 423.399C255.829 426.148 246.228 428.938 236.955 428.938C226.193 428.938 215.854 425.179 213.956 413.227C210.848 393.721 210.603 371.088 210.719 351.342V351.256L210.725 350.218L210.719 351.09C210.719 350.412 210.725 349.458 210.732 348.408L210.733 348.265C210.733 348.569 210.732 348.887 210.73 349.219L210.741 347.379ZM210.741 347.379L210.743 347.006L210.736 347.875L210.741 347.379ZM183.254 346.882L183.251 346.364C182.97 292.187 182.991 185.605 183.129 115.207C168.809 119.855 147.084 133.207 139.805 171.56C138.862 176.502 134.567 179.94 129.753 179.94C129.112 179.94 128.47 179.881 127.821 179.752C122.255 178.68 118.615 173.285 119.674 167.69C129.808 114.326 164.05 98.6352 183.176 94.0242C183.244 67.9729 183.329 50.0646 183.417 46.9773C183.909 29.616 170.045 22.6155 155.357 22.6155C146.602 22.6155 137.554 25.0969 131.074 29.3511C124.429 33.7153 116.789 37.3726 109.058 41.074C92.8021 48.8561 76.1394 56.833 67.4579 71.9845C62.5524 80.5461 62.8496 88.0798 63.1651 96.076C63.3336 100.347 63.5073 104.75 62.8963 109.511C62.0152 116.356 54.3862 122.204 47.4514 127.52C43.9056 130.238 40.5413 132.818 38.3531 135.32C16.9701 159.787 21.9873 180.131 26.0876 196.757C27.2119 201.316 28.2673 205.595 28.6906 209.603C29.1378 213.825 29.0772 219.749 28.8422 226.093C44.9649 217.514 70.377 197.52 60.6863 159.548C59.2795 154.029 62.5848 148.407 68.0613 146.998C73.5516 145.568 79.1306 148.902 80.5373 154.414C94.3967 208.765 54.5738 239.104 27.7968 249.315C27.7195 252.089 27.7063 254.551 27.8027 256.526C28.0682 261.975 31.8855 270.504 35.03 277.529C36.4937 280.8 37.8117 283.744 38.5578 285.901C38.8599 286.774 39.1532 287.689 39.438 288.641C60.0609 259.918 107.33 201.46 150.557 201.383H150.571C156.225 201.383 160.807 205.989 160.814 211.672C160.828 217.363 156.252 221.989 150.591 222.003C114.099 222.072 63.1774 288.76 46.6383 314.452C46.1301 315.241 45.5324 315.938 44.8673 316.536C45.5317 321.403 46.1078 326.253 46.6157 330.803C47.8598 341.96 50.4983 351.517 54.1819 359.805C55.8584 360.646 57.3261 361.96 58.3684 363.696C66.8223 377.772 83.7096 388.37 104.694 392.776C126.45 397.333 144.294 393.779 151.662 388.528C156.265 385.243 162.677 386.343 165.941 390.989C169.211 395.642 168.112 402.075 163.496 405.36C154.236 411.951 139.978 415.451 124.149 415.451C122.168 415.451 120.162 415.396 118.138 415.285C123.401 417.986 128.534 420.636 133.367 423.396C138.168 426.146 147.769 428.936 157.042 428.936C167.811 428.936 178.143 425.176 180.041 413.224C183.145 393.719 183.396 371.086 183.278 351.339V351.254L183.258 347.68M183.254 346.882L183.251 346.53L183.258 347.68M183.254 346.882L183.258 347.68M183.254 346.882L183.261 348.14M183.258 347.68L183.261 348.14M183.261 348.14L183.268 349.07M183.268 349.07C183.272 349.687 183.276 350.356 183.278 351.087L183.268 349.07ZM201.671 16.1654C210.487 7.03086 223.618 2 238.642 2C251.425 2 264.353 5.67828 274.125 12.0908C279.615 15.6923 286.471 18.9778 293.737 22.4554L293.747 22.46C311.875 31.1395 332.417 40.975 344.289 61.6865C352.149 75.412 351.665 87.8248 351.302 96.8903L351.291 97.1663C351.187 99.9148 351.093 102.391 351.227 104.726C352.996 106.547 356.635 109.345 358.957 111.124C363.157 114.341 367.493 117.668 371.024 121.709C399.499 154.287 392.172 183.992 387.795 201.738C386.846 205.574 385.95 209.196 385.678 211.794C385.148 216.782 385.689 227.384 386.125 235.942L386.147 236.365C386.552 244.415 386.933 251.997 386.664 257.534C386.241 266.201 382.499 275.177 377.65 286.009C376.516 288.532 375.242 291.391 374.789 292.697C371.054 303.488 368.561 325.784 367.749 333.11C360.859 394.821 317.691 416.974 286.163 433.153L286.153 433.157C280.665 435.974 275.484 438.633 270.747 441.333C262.006 446.33 248.745 449.56 236.959 449.56C218.017 449.56 203.557 441.266 197.002 427.302C190.447 441.265 175.988 449.559 157.046 449.559C145.26 449.559 131.999 446.328 123.258 441.332C118.521 438.632 113.341 435.973 107.854 433.157L107.842 433.151C76.3144 416.972 33.1464 394.82 26.2565 333.109C25.4439 325.782 22.9512 303.479 19.2161 292.688C18.7655 291.389 17.4888 288.531 16.3551 286.008C11.5066 275.176 7.7625 266.2 7.34121 257.54C7.07238 252 7.45332 244.427 7.85787 236.385L7.88506 235.846C8.31758 227.304 8.85139 216.763 8.32244 211.793C8.04887 209.195 7.15451 205.572 6.20528 201.737C1.82803 183.991 -5.49895 154.286 22.9766 121.708C26.507 117.666 30.8433 114.34 35.0429 111.123C37.3646 109.343 41.0046 106.546 42.7729 104.725C42.9055 102.419 42.8139 99.9747 42.7124 97.2664L42.6983 96.8893C42.3364 87.8237 41.8515 75.411 49.7113 61.6856C61.5843 40.974 82.1265 31.1385 100.254 22.459L100.264 22.4543C107.53 18.9765 114.393 15.6913 119.883 12.0897C129.648 5.67731 142.575 2.0001 155.359 2.0001C170.382 2.0001 183.513 7.03118 192.333 16.1677C194.082 17.978 195.64 19.918 197.001 21.9752C198.363 19.9172 199.921 17.9764 201.671 16.1654ZM85.4013 130.876C86.9174 131.679 88.5492 132.065 90.1607 132.065C93.8414 132.065 97.3999 130.058 99.2295 126.553C107.028 111.645 132.875 73.1427 158.482 74.9021C164.047 75.2389 168.993 70.9364 169.34 65.2524C169.688 59.5682 165.4 54.6732 159.745 54.3243C115.762 51.4926 82.5061 114.278 81.1063 116.951C78.4702 121.989 80.389 128.223 85.4013 130.876ZM296.106 368.641C292.822 368.641 289.585 367.047 287.604 364.091C281.835 355.48 274.857 345.433 271.357 340.84C264.842 340.734 250.98 341.868 247.158 353.013C245.69 357.275 241.722 359.955 237.475 359.955C236.368 359.955 235.235 359.767 234.129 359.385C228.782 357.522 225.948 351.652 227.792 346.271C234.48 326.816 252.808 320.826 267.322 320.177C269.862 299.287 262.337 286.703 243.948 280.81C238.56 279.085 235.583 273.291 237.297 267.862C239.011 262.432 244.768 259.421 250.169 261.167C267.323 266.666 294.528 282.549 286.962 327.382C290.854 332.186 296.201 340.028 304.594 352.572C307.755 357.293 306.512 363.699 301.821 366.881C300.067 368.07 298.08 368.641 296.106 368.641ZM92.1653 366.882C93.9203 368.07 95.9073 368.641 97.8809 368.641C101.166 368.641 104.402 367.046 106.382 364.091C112.161 355.459 119.159 345.385 122.65 340.811C129.106 340.649 143.002 341.685 146.892 353.016C148.36 357.277 152.328 359.958 156.575 359.958C157.681 359.958 158.814 359.773 159.921 359.387C165.268 357.524 168.101 351.655 166.258 346.273C159.561 326.793 141.172 320.808 126.658 320.174C124.118 299.286 131.644 286.703 150.032 280.811C155.419 279.085 158.397 273.285 156.683 267.862C154.962 262.432 149.212 259.421 143.817 261.167C126.657 266.666 99.4447 282.549 107.018 327.389C103.132 332.193 97.7785 340.035 89.3928 352.572C86.2312 357.294 87.4741 363.699 92.1653 366.882ZM303.966 132.06C300.292 132.06 296.734 130.06 294.897 126.562C287.065 111.654 261.266 73.1375 235.638 74.9039C230.148 75.2474 225.129 70.9379 224.78 65.2542C224.434 59.5701 228.721 54.6765 234.375 54.326C278.365 51.4668 311.621 114.28 313.021 116.953C315.657 121.991 313.738 128.211 308.732 130.871C307.216 131.675 305.577 132.06 303.966 132.06Z" stroke="url(#paint5_linear_22597_48691)" stroke-width="2.59599" stroke-linejoin="round"/>
<defs>
<linearGradient id="paint0_linear_22597_48691" x1="136.493" y1="-38.5371" x2="417.599" y2="363.019" gradientUnits="userSpaceOnUse">
<stop stop-color="#9BFABB" stop-opacity="0.85"/>
<stop offset="1" stop-color="#74E39A" stop-opacity="0.54"/>
</linearGradient>
<linearGradient id="paint1_linear_22597_48691" x1="136.493" y1="-38.5371" x2="417.599" y2="363.019" gradientUnits="userSpaceOnUse">
<stop stop-color="#9BFABB" stop-opacity="0.85"/>
<stop offset="1" stop-color="#74E39A" stop-opacity="0.54"/>
</linearGradient>
<linearGradient id="paint2_linear_22597_48691" x1="136.493" y1="-38.5371" x2="417.599" y2="363.019" gradientUnits="userSpaceOnUse">
<stop stop-color="#9BFABB" stop-opacity="0.85"/>
<stop offset="1" stop-color="#74E39A" stop-opacity="0.54"/>
</linearGradient>
<linearGradient id="paint3_linear_22597_48691" x1="136.493" y1="-38.5371" x2="417.599" y2="363.019" gradientUnits="userSpaceOnUse">
<stop stop-color="#9BFABB" stop-opacity="0.85"/>
<stop offset="1" stop-color="#74E39A" stop-opacity="0.54"/>
</linearGradient>
<linearGradient id="paint4_linear_22597_48691" x1="136.493" y1="-38.5371" x2="417.599" y2="363.019" gradientUnits="userSpaceOnUse">
<stop stop-color="#9BFABB" stop-opacity="0.85"/>
<stop offset="1" stop-color="#74E39A" stop-opacity="0.54"/>
</linearGradient>
<linearGradient id="paint5_linear_22597_48691" x1="124.958" y1="57.9526" x2="387.312" y2="368.632" gradientUnits="userSpaceOnUse">
<stop stop-color="#85EDAA"/>
<stop offset="1" stop-color="#63CE87"/>
</linearGradient>
</defs>
</svg>
