<svg width="24" height="24" viewBox="0 0 24 24" fill="none" xmlns="http://www.w3.org/2000/svg">
<path d="M12.8942 22C15.938 22 18.7295 20.6014 20.5793 18.2979C21.6719 16.9373 20.4804 14.9493 18.7918 15.2744C15.6091 15.887 12.6748 13.428 12.6748 10.1653C12.6748 8.27375 13.6819 6.56016 15.281 5.64047C16.7785 4.77914 16.4018 2.48469 14.7004 2.16707C14.1046 2.05602 13.5 2.0001 12.8942 2C7.43073 2 3 6.47559 3 12C3 17.5219 7.42826 22 12.8942 22ZM12.8942 3.875C13.396 3.875 13.887 3.92191 14.3634 4.01086C12.247 5.22816 10.8196 7.52812 10.8196 10.1653C10.8196 14.6125 14.8252 17.9466 19.1389 17.1163C17.665 18.9517 15.4153 20.125 12.8942 20.125C8.45435 20.125 4.85516 16.4873 4.85516 12C4.85516 7.5127 8.45435 3.875 12.8942 3.875Z" fill="black"/>
</svg>
