<svg width="24" height="24" viewBox="0 0 24 24" fill="none" xmlns="http://www.w3.org/2000/svg">
<path fill-rule="evenodd" clip-rule="evenodd" d="M5.12787 10.0687C5.11223 10.5408 4.71689 10.9355 4.24486 10.9504C3.77283 10.9653 3.40286 10.5947 3.41851 10.1226L3.56587 5.67724C3.60204 4.58621 4.50814 3.67003 5.59949 3.62099L10.1133 3.41815C10.5855 3.39693 10.9607 3.7622 10.9514 4.23401C10.9421 4.70582 10.5517 5.1055 10.0796 5.12672L6.46883 5.28898L15.5415 14.3616C15.8645 14.6846 15.8469 15.2258 15.5024 15.5704C15.1578 15.9149 14.6166 15.9324 14.2936 15.6095L5.24419 6.56002L5.12787 10.0687Z" fill="#12131B"/>
<path fill-rule="evenodd" clip-rule="evenodd" d="M19.087 14.1423C19.1169 13.6845 19.5122 13.2897 19.97 13.2605C20.4277 13.2314 20.7746 13.5788 20.7446 14.0366L20.463 18.3477C20.3938 19.4058 19.4874 20.3216 18.4286 20.4032L14.0496 20.7408C13.5915 20.7761 13.2394 20.434 13.2631 19.9766C13.2869 19.5193 13.6775 19.1199 14.1356 19.0846L17.6386 18.8145L9.13299 10.3089C8.8302 10.0061 8.86406 9.48133 9.20864 9.13675C9.55323 8.79217 10.078 8.7583 10.3808 9.0611L18.8647 17.5449L19.087 14.1423Z" fill="#12131B"/>
<path fill-rule="evenodd" clip-rule="evenodd" d="M13.9352 5.12787C13.4631 5.11223 13.0684 4.71689 13.0535 4.24486C13.0386 3.77283 13.4092 3.40286 13.8813 3.41851L18.3267 3.56587C19.4177 3.60204 20.3339 4.50814 20.3829 5.59949L20.5858 10.1133C20.607 10.5855 20.2417 10.9607 19.7699 10.9514C19.2981 10.9421 18.8984 10.5517 18.8772 10.0796L18.7149 6.46883L9.64228 15.5415C9.3193 15.8645 8.77813 15.8469 8.43355 15.5024C8.08897 15.1578 8.07146 14.6166 8.39445 14.2936L17.4439 5.24419L13.9352 5.12787Z" fill="#12131B"/>
<path fill-rule="evenodd" clip-rule="evenodd" d="M9.85773 19.0831C10.3155 19.113 10.7103 19.5083 10.7395 19.9661C10.7686 20.4238 10.4212 20.7706 9.96338 20.7407L5.65231 20.4591C4.59425 20.3899 3.67838 19.4835 3.59677 18.4247L3.2592 14.0457C3.22389 13.5875 3.56603 13.2355 4.02338 13.2592C4.48074 13.283 4.88013 13.6736 4.91544 14.1317L5.18547 17.6347L13.6911 9.12909C13.9939 8.82629 14.5187 8.86016 14.8633 9.20474C15.2078 9.54932 15.2417 10.0741 14.9389 10.3769L6.45505 18.8608L9.85773 19.0831Z" fill="#12131B"/>
</svg>
