<svg width="18" height="18" viewBox="0 0 18 18" fill="none" xmlns="http://www.w3.org/2000/svg">
<path fill-rule="evenodd" clip-rule="evenodd" d="M9.41603 2.37596C9.1641 2.20801 8.8359 2.20801 8.58397 2.37596L2.58397 6.37596C2.37533 6.51506 2.25 6.74924 2.25 7C2.25 7.25076 2.37533 7.48494 2.58397 7.62404L8.58397 11.624C8.8359 11.792 9.1641 11.792 9.41603 11.624L15.416 7.62404C15.6247 7.48494 15.75 7.25076 15.75 7C15.75 6.74924 15.6247 6.51506 15.416 6.37596L9.41603 2.37596ZM9 10.0986L4.35208 7L9 3.90139L13.6479 7L9 10.0986ZM3.41615 10.376C3.0715 10.1462 2.60585 10.2393 2.37608 10.584C2.14632 10.9286 2.23945 11.3943 2.5841 11.624L8.5841 15.624C8.83602 15.792 9.16422 15.792 9.41615 15.624L15.4161 11.624C15.7608 11.3943 15.8539 10.9286 15.6242 10.584C15.3944 10.2393 14.9287 10.1462 14.5841 10.376L9.00012 14.0986L3.41615 10.376Z" fill="#12131B"/>
</svg>
