<svg width="18" height="18" viewBox="0 0 18 18" fill="none" xmlns="http://www.w3.org/2000/svg">
<path fill-rule="evenodd" clip-rule="evenodd" d="M4.75008 6.5C4.75008 5.5335 5.53358 4.75 6.50008 4.75C7.46657 4.75 8.25008 5.5335 8.25008 6.5C8.25008 7.4665 7.46657 8.25 6.50008 8.25C5.53358 8.25 4.75008 7.4665 4.75008 6.5ZM6.50008 3.25C4.70515 3.25 3.25008 4.70507 3.25008 6.5C3.25008 8.29493 4.70515 9.75 6.50008 9.75C8.295 9.75 9.75008 8.29493 9.75008 6.5C9.75008 4.70507 8.295 3.25 6.50008 3.25ZM12.2501 7.5C12.2501 7.08579 12.5859 6.75 13.0001 6.75C13.4143 6.75 13.7501 7.08579 13.7501 7.5C13.7501 7.91421 13.4143 8.25 13.0001 8.25C12.5859 8.25 12.2501 7.91421 12.2501 7.5ZM13.0001 5.25C11.7574 5.25 10.7501 6.25736 10.7501 7.5C10.7501 8.74264 11.7574 9.75 13.0001 9.75C14.2427 9.75 15.2501 8.74264 15.2501 7.5C15.2501 6.25736 14.2427 5.25 13.0001 5.25ZM2.6455 11.3809C3.4853 10.8067 4.75555 10.25 6.50008 10.25C8.12168 10.25 9.33348 10.731 10.1707 11.26C10.299 11.1418 10.4745 11.0005 10.7008 10.8613C11.2142 10.5453 11.9738 10.25 13.0001 10.25C14.0263 10.25 14.786 10.5453 15.2994 10.8613C15.5536 11.0177 15.7438 11.1769 15.8749 11.3027C15.9406 11.3657 15.9917 11.4206 16.0289 11.4632C16.0475 11.4844 16.0627 11.5027 16.0745 11.5173L16.0898 11.5365L16.0955 11.544L16.098 11.5472L16.0991 11.5486L16.0996 11.5493C16.0998 11.5497 16.1001 11.55 15.5001 12L16.1001 11.55C16.3486 11.8814 16.2814 12.3515 15.9501 12.6C15.6218 12.8462 15.1573 12.7826 14.907 12.4591L14.9 12.4509C14.8894 12.4387 14.8682 12.4156 14.8361 12.3848C14.7719 12.3231 14.6653 12.2323 14.5133 12.1387C14.2142 11.9547 13.7238 11.75 13.0001 11.75C12.2763 11.75 11.786 11.9547 11.4869 12.1387C11.4334 12.1717 11.3855 12.2043 11.3431 12.2354C11.4198 12.32 11.4803 12.3931 11.5251 12.45C11.5528 12.4852 11.5746 12.5143 11.5906 12.5363C11.5987 12.5473 11.6052 12.5566 11.6104 12.564L11.6171 12.5737L11.6197 12.5774L11.6208 12.579L11.6213 12.5797C11.6215 12.5801 11.6217 12.5804 11.0001 13L11.6217 12.5804C11.8535 12.9237 11.763 13.3899 11.4197 13.6216C11.0779 13.8523 10.6144 13.7637 10.3816 13.4242L10.3777 13.4188C10.3724 13.4115 10.3621 13.3976 10.3467 13.3781C10.3159 13.3389 10.2648 13.2773 10.1928 13.2005C10.0485 13.0466 9.82212 12.8339 9.508 12.6191C8.8853 12.1933 7.90555 11.75 6.50008 11.75C5.0946 11.75 4.11485 12.1933 3.49215 12.6191C3.17803 12.8339 2.95167 13.0466 2.80738 13.2005C2.73537 13.2773 2.6843 13.3389 2.65346 13.3781C2.63806 13.3976 2.62777 13.4115 2.62249 13.4188L2.61859 13.4242C2.3858 13.7637 1.92226 13.8523 1.58047 13.6216C1.23715 13.3899 1.1467 12.9237 1.37844 12.5804L2.00008 13C1.37844 12.5804 1.37867 12.5801 1.3789 12.5797L1.37939 12.579L1.38047 12.5774L1.38303 12.5737L1.38974 12.564C1.39491 12.5566 1.4015 12.5473 1.40952 12.5363C1.42556 12.5143 1.44734 12.4852 1.47501 12.45C1.5303 12.3798 1.60931 12.2852 1.71308 12.1745C1.92036 11.9534 2.22837 11.6661 2.6455 11.3809Z" fill="#74757A"/>
</svg>
