<?xml version="1.0" encoding="UTF-8"?>
<svg width="53px" height="48px" viewBox="0 0 53 48" version="1.1" xmlns="http://www.w3.org/2000/svg" xmlns:xlink="http://www.w3.org/1999/xlink">
    <!-- Generator: Sketch 51.3 (57544) - http://www.bohemiancoding.com/sketch -->
    <title>noun_Apps_1736449</title>
    <desc>Created with Sketch.</desc>
    <defs></defs>
    <g id="Searchable-Annotations" stroke="none" stroke-width="1" fill="none" fill-rule="evenodd">
        <g id="2-via-tooltip" transform="translate(-1711.000000, -196.000000)" fill="#173766" fill-rule="nonzero" stroke="#173766">
            <g id="noun_Apps_1736449" transform="translate(1711.000000, 197.000000)">
                <g id="Group">
                    <path d="M26.380525,0.231974933 C26.3291967,0.244250677 26.2796812,0.26364133 26.2333028,0.289628267 L0.911080129,13.7829616 C0.714035079,13.8877822 0.590023459,14.0987831 0.590023459,14.3292269 C0.590023459,14.5596708 0.714035079,14.7706717 0.911080129,14.8754923 L26.2333028,28.3688133 C26.4059486,28.4642336 26.6127992,28.4642336 26.785445,28.3688133 L52.1076673,14.8754923 C52.3047123,14.7706717 52.4287239,14.5596708 52.4287239,14.3292269 C52.4287239,14.0987831 52.3047123,13.8877822 52.1076673,13.7829616 L26.785445,0.289628267 C26.6614058,0.220688326 26.517779,0.200238447 26.380525,0.231974933 Z M26.5093739,1.53530827 L50.5249695,14.3386416 L26.5093739,27.1228267 L2.49377791,14.3386416 L26.5093739,1.53530827 Z M1.16877791,22.2928267 C0.891104553,22.2886257 0.648342318,22.4870145 0.586207307,22.7689117 C0.524072296,23.0508089 0.659449626,23.3396092 0.911080129,23.4619627 L26.2333028,36.955296 C26.4059486,37.0507163 26.6127992,37.0507163 26.785445,36.955296 L52.1076673,23.4619627 C52.296525,23.3600829 52.4184914,23.1606211 52.4272674,22.939294 C52.4360435,22.7179669 52.3302835,22.5087101 52.1501346,22.3909586 C51.9699857,22.2732071 51.7430697,22.2650155 51.555525,22.3694933 L26.5093739,35.7094933 L1.46322235,22.3694933 C1.37319072,22.3175849 1.27167153,22.2911516 1.16877791,22.2928267 Z M1.16877791,30.8794933 C0.891104553,30.8752924 0.648342318,31.0736812 0.586207307,31.3555784 C0.524072296,31.6374755 0.659449626,31.9262759 0.911080129,32.0486293 L26.2333028,45.5419627 C26.4059486,45.637383 26.6127992,45.637383 26.785445,45.5419627 L52.1076673,32.0486293 C52.296525,31.9467496 52.4184914,31.7472878 52.4272674,31.5259607 C52.4360435,31.3046336 52.3302835,31.0953768 52.1501346,30.9776253 C51.9699857,30.8598738 51.7430697,30.8516822 51.555525,30.95616 L26.5093739,44.29616 L1.46322235,30.95616 C1.37319072,30.9042516 1.27167153,30.8778183 1.16877791,30.8794933 Z" id="Shape"></path>
                </g>
            </g>
        </g>
    </g>
</svg>