<svg width="96" height="96" viewBox="0 0 96 96" fill="none" xmlns="http://www.w3.org/2000/svg">
<g filter="url(#filter0_d_204_4070)">
<path d="M34.2355 25.4116H61.059C70.6103 25.4116 78.3532 33.1545 78.3532 42.7057V45.1763C78.3532 53.3631 71.7164 59.9999 63.5296 59.9999C62.3389 62.0837 62.1525 64.293 62.3351 66.1514C62.4402 67.2217 60.7643 68.3787 59.9194 67.7133C57.1866 65.5616 53.3109 62.5608 49.7649 59.9999H34.2338C24.6825 59.9999 16.9414 52.257 16.9414 42.7057C16.9414 33.1545 24.6842 25.4116 34.2355 25.4116Z" fill="white"/>
</g>
<ellipse cx="37.8032" cy="42.7446" rx="3.2153" ry="3.21529" fill="#B8D4FE"/>
<ellipse cx="47.4223" cy="42.7446" rx="3.21529" ry="3.21529" fill="#B8D4FE"/>
<ellipse cx="57.0337" cy="42.7446" rx="3.21529" ry="3.21529" fill="#B8D4FE"/>
<defs>
<filter id="filter0_d_204_4070" x="12.9414" y="22.4116" width="69.4121" height="50.4976" filterUnits="userSpaceOnUse" color-interpolation-filters="sRGB">
<feFlood flood-opacity="0" result="BackgroundImageFix"/>
<feColorMatrix in="SourceAlpha" type="matrix" values="0 0 0 0 0 0 0 0 0 0 0 0 0 0 0 0 0 0 127 0" result="hardAlpha"/>
<feOffset dy="1"/>
<feGaussianBlur stdDeviation="2"/>
<feComposite in2="hardAlpha" operator="out"/>
<feColorMatrix type="matrix" values="0 0 0 0 0 0 0 0 0 0 0 0 0 0 0 0 0 0 0.1 0"/>
<feBlend mode="normal" in2="BackgroundImageFix" result="effect1_dropShadow_204_4070"/>
<feBlend mode="normal" in="SourceGraphic" in2="effect1_dropShadow_204_4070" result="shape"/>
</filter>
</defs>
</svg>
