<?xml version="1.0" encoding="UTF-8"?>
<svg width="55px" height="55px" viewBox="0 0 55 55" version="1.1" xmlns="http://www.w3.org/2000/svg" xmlns:xlink="http://www.w3.org/1999/xlink">
    <!-- Generator: Sketch 50.2 (55047) - http://www.bohemiancoding.com/sketch -->
    <title>noun_632304_3db995 (1)</title>
    <desc>Created with Sketch.</desc>
    <defs></defs>
    <g id="Lists" stroke="none" stroke-width="1" fill="none" fill-rule="evenodd">
        <g id="noun_632304_3db995-(1)" fill="#3DB995" fill-rule="nonzero">
            <g id="noun_notification_855125_3db995">
                <path d="M49.0162037,37.6772917 L46.4556481,37.6772917 L46.4556481,22.8532639 C46.4556481,16.9484028 41.6288889,11.8754167 34.7803704,9.73041667 L34.7803704,5.84222222 C34.7803704,2.83097222 31.5139815,0.381180556 27.5,0.381180556 C23.4860185,0.381180556 20.2196296,2.83097222 20.2196296,5.84222222 L20.2196296,9.73041667 C13.3711111,11.8754167 8.54435185,16.9484028 8.54435185,22.8532639 L8.54435185,37.6772917 L5.9837963,37.6772917 C2.73981481,37.6772917 0.101851852,39.6572917 0.101851852,42.0918056 C0.101851852,44.5255556 2.74083333,46.5047917 5.9837963,46.5047917 L19.2550926,46.5047917 L19.2550926,48.4336111 C19.2550926,51.8436111 22.9533333,54.6180556 27.5,54.6180556 C32.0466667,54.6180556 35.7459259,51.8436111 35.7459259,48.4336111 L35.7459259,46.5047917 L49.0162037,46.5047917 C52.2601852,46.5047917 54.8981481,44.5247917 54.8981481,42.0918056 C54.8981481,39.6580556 52.2601852,37.6772917 49.0162037,37.6772917 Z M23.2751852,5.84222222 C23.2751852,4.09444444 25.1706481,2.67284722 27.5,2.67284722 C29.8293519,2.67284722 31.7248148,4.09444444 31.7248148,5.84222222 L31.7248148,9.00472222 C30.3640741,8.77097222 28.9534259,8.63652778 27.5,8.63652778 C26.0465741,8.63652778 24.6349074,8.77173611 23.2751852,9.00472222 L23.2751852,5.84222222 Z M11.5999074,22.8532639 C11.5999074,16.2777083 18.7325926,10.9281944 27.5,10.9281944 C36.2674074,10.9281944 43.4000926,16.2777083 43.4000926,22.8532639 L43.4000926,37.6772917 L11.5999074,37.6772917 L11.5999074,22.8532639 Z M32.6903704,48.434375 C32.6903704,50.5809028 30.362037,52.3271528 27.5,52.3271528 C24.637963,52.3271528 22.3106481,50.5809028 22.3106481,48.434375 L22.3106481,46.5055556 L32.6893519,46.5055556 L32.6893519,48.434375 L32.6903704,48.434375 Z M49.0162037,44.213125 L5.9837963,44.213125 C4.42546296,44.213125 3.15740741,43.2613194 3.15740741,42.0918056 C3.15740741,40.9215278 4.42546296,39.9689583 5.9837963,39.9689583 L49.0162037,39.9689583 C50.574537,39.9689583 51.8425926,40.9215278 51.8425926,42.0918056 C51.8425926,43.2613194 50.574537,44.213125 49.0162037,44.213125 Z" id="Shape"></path>
            </g>
        </g>
    </g>
</svg>