<?xml version="1.0" encoding="UTF-8"?>
<svg width="40px" height="41px" viewBox="0 0 40 41" version="1.1" xmlns="http://www.w3.org/2000/svg" xmlns:xlink="http://www.w3.org/1999/xlink">
    <!-- Generator: Sketch 51 (57462) - http://www.bohemiancoding.com/sketch -->
    <title>noun_Right hand drawn arrow_1563372</title>
    <desc>Created with Sketch.</desc>
    <defs></defs>
    <g id="Page-2" stroke="none" stroke-width="1" fill="none" fill-rule="evenodd">
        <g id="Artboard" transform="translate(-1931.000000, -160.000000)" fill="#4A4A4A" fill-rule="nonzero">
            <g id="noun_Right-hand-drawn-arrow_1563372" transform="translate(1949.197353, 180.165325) scale(-1, 1) rotate(-75.000000) translate(-1949.197353, -180.165325) translate(1933.197353, 157.165325)">
                <path d="M30.3421329,1.4530048 C30.2880471,1.0059264 30.0717039,0.502963201 29.7471891,0.558848001 C24.4467809,1.2853504 19.0922868,1.7324288 13.683707,1.955968 C12.7642484,2.0118528 12.7642484,4.75020801 13.683707,4.69432321 C17.5778845,4.52666881 21.4179762,4.24724481 25.2580679,3.85605121 C20.0658312,5.81201921 15.3062809,8.94156801 11.4121035,13.0211584 C6.49029581,18.0507904 3.02880471,24.4775424 1.35214496,31.4072577 C0.32451479,35.4868481 -0.0540857984,39.7340929 0.162257395,43.9254529 C0.162257395,44.3166465 0.270428992,45.2666881 0.811286976,45.3225729 C1.35214496,45.3225729 1.51440236,44.3166465 1.46031656,43.9254529 C1.08171597,37.0516225 2.54203252,30.177792 5.78718043,24.0863488 C8.81598514,18.2743296 13.3591922,13.412352 18.767772,9.94749442 C20.931204,8.55037441 23.2028075,7.43267841 25.5825826,6.53852161 C24.0681803,8.32683521 22.7701211,10.2269184 21.7965768,12.4064256 C21.5261478,12.9652736 21.5261478,13.7476608 21.7965768,14.3623936 C22.0129199,14.8653568 22.4996921,14.8653568 22.7160353,14.3623936 C24.5549525,10.2269184 27.8001004,7.04148481 30.9370767,3.91193601 C31.3697631,3.52074241 31.3156773,2.5707008 31.1534199,2.0118528 C31.0993341,1.5647744 30.7207335,1.117696 30.3421329,1.4530048 Z" id="Shape"></path>
            </g>
        </g>
    </g>
</svg>