<svg fill="#3EB995" xmlns:dc="http://purl.org/dc/elements/1.1/" xmlns:cc="http://creativecommons.org/ns#" xmlns:rdf="http://www.w3.org/1999/02/22-rdf-syntax-ns#" xmlns:svg="http://www.w3.org/2000/svg" xmlns="http://www.w3.org/2000/svg" xmlns:sodipodi="http://sodipodi.sourceforge.net/DTD/sodipodi-0.dtd" xmlns:inkscape="http://www.inkscape.org/namespaces/inkscape" version="1.1" x="0px" y="0px" viewBox="0 0 100 100"><g transform="translate(0,-952.36218)"><path style="font-size:medium;font-style:normal;font-variant:normal;font-weight:normal;font-stretch:normal;text-indent:0;text-align:start;text-decoration:none;line-height:normal;letter-spacing:normal;word-spacing:normal;text-transform:none;direction:ltr;block-progression:tb;writing-mode:lr-tb;text-anchor:start;baseline-shift:baseline;opacity:1;color:#000000;fill:#3EB995;fill-opacity:1;stroke:none;stroke-width:6;marker:none;visibility:visible;display:inline;overflow:visible;enable-background:accumulate;font-family:Sans;-inkscape-font-specification:Sans" d="M 49.65625 4.96875 C 48.192884 5.13746 46.975112 6.52715 47 8 L 47 11.1875 C 41.425788 11.883128 36.651985 14.48968 33.0625 18.1875 C 28.844271 22.53304 26.181082 28.31655 25.0625 34.46875 L 21.0625 56.46875 C 20.232462 61.03395 18.540354 61.9708 16.125 63.5625 C 14.917323 64.3583 13.444536 65.20735 12.15625 66.71875 C 10.867964 68.23025 10 70.4378 10 73 C 10 77.3801 13.619892 81 18 81 L 35.03125 81 C 35.550604 88.794147 42.078826 95 50 95 C 57.921174 95 64.449396 88.794147 64.96875 81 L 82 81 C 86.380108 81 90 77.3801 90 73 C 90 70.4378 89.132037 68.23015 87.84375 66.71875 C 86.555463 65.20735 85.082676 64.3583 83.875 63.5625 C 81.459649 61.9708 79.767539 61.03405 78.9375 56.46875 L 74.9375 34.46875 C 73.818918 28.31655 71.155728 22.53304 66.9375 18.1875 C 63.348016 14.48968 58.574212 11.883128 53 11.1875 L 53 8 C 53.02879 6.2975 51.347769 4.77359 49.65625 4.96875 z M 50 17 C 55.264761 17 59.38896 19.01004 62.625 22.34375 C 65.86104 25.67746 68.129629 30.40046 69.0625 35.53125 L 73.0625 57.53125 C 74.198219 63.77775 78.000541 66.8536 80.59375 68.5625 C 81.890355 69.4169 82.814187 70.04585 83.28125 70.59375 C 83.748313 71.14175 84 71.569 84 73 C 84 74.1599 83.159892 75 82 75 L 18 75 C 16.840108 75 16 74.1599 16 73 C 16 71.569 16.251686 71.14175 16.71875 70.59375 C 17.185814 70.04585 18.109647 69.4169 19.40625 68.5625 C 21.999456 66.8536 25.80178 63.77775 26.9375 57.53125 L 30.9375 35.53125 C 31.870371 30.40046 34.13896 25.67746 37.375 22.34375 C 40.61104 19.01004 44.735239 17 50 17 z M 41.1875 81 L 58.8125 81 C 58.305268 85.5269 54.681708 89 50 89 C 45.318292 89 41.694732 85.5269 41.1875 81 z " transform="translate(0,952.36218)"></path></g></svg>