<svg width="18" height="18" viewBox="0 0 18 18" fill="none" xmlns="http://www.w3.org/2000/svg">
<path fill-rule="evenodd" clip-rule="evenodd" d="M3.53033 2.46967C3.67098 2.61032 3.75 2.80109 3.75 3V7C3.75 7.41421 3.41421 7.75 3 7.75C2.58579 7.75 2.25 7.41421 2.25 7V3.75H2C1.58579 3.75 1.25 3.41421 1.25 3C1.25 2.58579 1.58579 2.25 2 2.25H3C3.19891 2.25 3.38968 2.32902 3.53033 2.46967ZM6.25 4C6.25 3.58579 6.58579 3.25 7 3.25H16C16.4142 3.25 16.75 3.58579 16.75 4C16.75 4.41421 16.4142 4.75 16 4.75H7C6.58579 4.75 6.25 4.41421 6.25 4ZM4.75 11C4.75 10.8011 4.67098 10.6103 4.53033 10.4697C4.38968 10.329 4.19891 10.25 4 10.25H2C1.58579 10.25 1.25 10.5858 1.25 11C1.25 11.4142 1.58579 11.75 2 11.75H3.25V12.25H2C1.58579 12.25 1.25 12.5858 1.25 13V15C1.25 15.4142 1.58579 15.75 2 15.75H4C4.41421 15.75 4.75 15.4142 4.75 15C4.75 14.5858 4.41421 14.25 4 14.25H2.75V13.75H4C4.41421 13.75 4.75 13.4142 4.75 13V11ZM6.25 9C6.25 8.58579 6.58579 8.25 7 8.25H16C16.4142 8.25 16.75 8.58579 16.75 9C16.75 9.41421 16.4142 9.75 16 9.75H7C6.58579 9.75 6.25 9.41421 6.25 9ZM7 13.25C6.58579 13.25 6.25 13.5858 6.25 14C6.25 14.4142 6.58579 14.75 7 14.75H16C16.4142 14.75 16.75 14.4142 16.75 14C16.75 13.5858 16.4142 13.25 16 13.25H7Z" fill="#12131B"/>
</svg>
