<svg width="485" height="554" viewBox="0 0 485 554" fill="none" xmlns="http://www.w3.org/2000/svg">
<path fill-rule="evenodd" clip-rule="evenodd" d="M110.086 160.976C108.087 160.976 106.063 160.498 104.183 159.505C97.9674 156.221 95.5878 148.506 98.8569 142.271C100.593 138.962 141.834 61.2554 196.38 64.7601C203.392 65.1919 208.71 71.2502 208.278 78.2852C207.848 85.3201 201.715 90.6451 194.813 90.2283C163.056 88.0507 131.003 135.704 121.332 154.154C119.063 158.493 114.651 160.976 110.086 160.976" fill="#5CD9A6"/>
<path fill-rule="evenodd" clip-rule="evenodd" d="M22.8294 308.775C17.3925 308.775 12.3623 305.236 10.6856 299.741C8.63609 293.004 12.4136 285.884 19.1032 283.817C22.1685 282.856 90.2978 260.62 73.5133 194.984C71.7687 188.153 75.8677 181.195 82.6593 179.451C89.468 177.682 96.3867 181.808 98.1312 188.63C116.423 260.22 59.3116 298.15 26.5471 308.213C25.311 308.592 24.0657 308.778 22.8297 308.778" fill="#5CD9A6"/>
<path fill-rule="evenodd" clip-rule="evenodd" d="M159.252 220.235C158.456 220.235 157.66 220.162 156.855 220.002C149.953 218.675 145.44 211.998 146.752 205.073C164.375 112.464 240.778 111.528 241.862 111.528H241.87C248.882 111.554 254.548 117.296 254.514 124.339C254.48 131.365 248.806 137.039 241.828 137.048C239.372 137.073 185.292 138.485 171.717 209.863C170.549 215.979 165.222 220.232 159.252 220.232" fill="#5CD9A6"/>
<path fill-rule="evenodd" clip-rule="evenodd" d="M45.5882 392.506C43.2173 392.506 40.8285 391.842 38.6949 390.456C32.8011 386.62 31.1241 378.717 34.9352 372.805C43.2597 359.918 118.113 246.868 185.132 246.749H185.149C192.161 246.749 197.844 252.448 197.852 259.483C197.869 266.526 192.195 272.251 185.175 272.268C139.919 272.354 76.7697 354.891 56.2591 386.688C53.8287 390.456 49.7469 392.506 45.5888 392.506" fill="#5CD9A6"/>
<path fill-rule="evenodd" clip-rule="evenodd" d="M119.747 453.734C117.3 453.734 114.836 453.028 112.659 451.556C106.841 447.618 105.3 439.69 109.221 433.846C119.62 418.33 126.26 408.625 131.078 402.679C121.687 347.183 155.433 327.524 176.715 320.719C183.405 318.558 190.535 322.284 192.669 329.004C194.795 335.716 191.103 342.895 184.421 345.031C159.473 353.009 150.649 370.899 156.653 401.318C157.415 405.179 158.567 410.998 153.596 415.974C153.113 416.452 152.605 416.884 152.054 417.284C148.683 421.299 138.496 435.871 130.29 448.103C127.834 451.76 123.82 453.734 119.747 453.734" fill="#5CD9A6"/>
<path fill-rule="evenodd" clip-rule="evenodd" d="M192.473 443.017C187.205 443.017 182.285 439.7 180.464 434.426C174.147 416.06 146.548 419.548 146.26 419.599C139.316 420.467 132.914 415.627 131.982 408.643C131.05 401.659 135.928 395.237 142.89 394.301C160.834 391.876 194.065 395.841 204.481 426.081C206.767 432.742 203.253 440.006 196.622 442.311C195.25 442.79 193.845 443.017 192.473 443.017" fill="#5CD9A6"/>
<path fill-rule="evenodd" clip-rule="evenodd" d="M152.33 511.724C142.853 511.724 132.92 510.712 123.012 508.636C103.678 504.587 68.3477 492.993 49.0226 460.873C45.3898 454.841 47.3117 446.998 53.3159 443.349C59.3202 439.717 67.1196 441.631 70.7526 447.67C81.2366 465.092 102.179 478.209 128.203 483.661C155.183 489.301 177.312 484.903 186.449 478.404C192.157 474.338 200.109 475.699 204.157 481.449C208.213 487.208 206.85 495.17 201.125 499.236C189.642 507.394 171.96 511.723 152.33 511.723" fill="#5CD9A6"/>
<path fill-rule="evenodd" clip-rule="evenodd" d="M190.977 0C175.124 0 159.093 4.5511 146.983 12.4875C140.174 16.9449 131.663 21.0109 122.653 25.3152C100.169 36.0588 74.6872 48.2315 59.9605 73.8698C50.2133 90.8571 50.8145 106.22 51.2633 117.44C51.3956 120.978 51.5279 124.151 51.3559 127.137C49.1629 129.391 44.6489 132.853 41.7696 135.057C36.5616 139.038 31.184 143.155 26.8057 148.156C-8.50786 188.477 0.578804 225.242 6.00717 247.205C7.18434 251.952 8.2934 256.435 8.63266 259.65C9.294 265.851 8.61573 279.062 8.07714 289.678C7.56792 299.783 7.07787 309.319 7.41581 316.269C7.93826 326.987 12.5815 338.096 18.5942 351.503C20.0002 354.625 21.5834 358.163 22.1423 359.771C26.7743 373.126 29.8655 400.729 30.8733 409.797C39.418 486.176 92.9557 513.593 132.055 533.617C138.863 537.104 145.291 540.396 151.168 543.739C162.008 549.923 178.454 553.921 193.07 553.921C222.109 553.921 242.653 538.236 246.684 512.997C250.757 487.478 251.173 459.083 251.011 432.212V432.105C250.41 330.682 250.813 68.9984 251.177 56.4089C251.607 41.1228 246.655 27.6826 236.831 17.5345C225.893 6.22672 209.608 0 190.977 0H190.977ZM192.061 425.653C192.061 425.653 191.79 425.201 191.433 424.607C191.572 424.846 191.724 425.085 191.889 425.363C192.008 425.563 192.061 425.656 192.061 425.656V425.653ZM206.736 80.6351C206.719 80.6351 206.71 80.6434 206.702 80.6434H206.694C206.711 80.6434 206.721 80.6351 206.736 80.6351L206.744 80.6268L206.736 80.6351H206.736ZM190.976 25.5193C209.192 25.5193 226.383 34.1789 225.773 55.6661C225.37 69.7782 225.02 334.09 225.601 432.254V432.048C225.593 429.743 225.575 427.939 225.568 426.408V425.77V426.408C225.585 428.56 225.594 430.738 225.601 432.048V432.267V432.36C225.747 456.799 225.436 484.811 221.587 508.952C219.233 523.745 206.42 528.398 193.065 528.398C181.565 528.398 169.658 524.944 163.705 521.542C122.751 498.2 64.4206 481.221 56.1214 406.943C54.0296 388.246 51.0067 365.44 46.1286 351.37C43.2154 342.966 33.2734 324.898 32.7907 315.014C32.1492 301.888 35.4242 271.376 33.8919 256.941C31.4529 233.888 12.0855 203.588 45.8748 165.003C53.8954 155.85 74.6601 145.864 76.3116 133.061C78.488 116.134 72.6359 102.872 81.9686 86.6163C97.8555 58.9449 135.295 50.6087 160.861 33.851C168.898 28.5858 180.118 25.5146 190.975 25.5146" fill="#5CD9A6"/>
<path fill-rule="evenodd" clip-rule="evenodd" d="M294.353 0C275.722 0 259.437 6.22645 248.504 17.5318C238.681 27.6799 233.727 41.1201 234.159 56.3977C234.523 69.0042 234.921 330.696 234.324 432.101V432.367C234.159 459.085 234.582 487.48 238.652 512.999C242.683 538.238 263.228 553.923 292.266 553.923C306.883 553.923 323.328 549.925 334.168 543.741C340.045 540.399 346.473 537.106 353.281 533.619C392.38 513.594 445.918 486.178 454.463 409.799C455.471 400.731 458.562 373.136 463.194 359.781C463.756 358.165 465.336 354.626 466.743 351.505C472.755 338.098 477.396 326.989 477.921 316.262C478.258 309.321 477.769 299.785 477.26 289.68C476.717 279.063 476.038 265.853 476.698 259.651C477.035 256.436 478.146 251.953 479.323 247.207C484.751 225.243 493.838 188.478 458.524 148.158C454.146 143.156 448.769 139.039 443.561 135.058C440.681 132.855 436.168 129.393 433.974 127.138C433.802 124.152 433.933 120.98 434.067 117.441C434.517 106.221 435.117 90.8585 425.37 73.8711C410.644 48.2329 385.163 36.0602 362.679 25.3166C353.668 21.0126 345.166 16.9463 338.357 12.4889C326.239 4.55243 310.208 0.00146145 294.355 0.00146145L294.353 0ZM293.271 425.655C293.271 425.655 293.321 425.562 293.443 425.362C293.615 425.083 293.754 424.844 293.899 424.606C293.542 425.203 293.271 425.652 293.271 425.652V425.655ZM278.593 80.6312C278.611 80.6312 278.62 80.6395 278.635 80.6395H278.627C278.619 80.6395 278.61 80.6312 278.593 80.6312L278.585 80.6229L278.593 80.6312H278.593ZM294.353 25.5181C305.209 25.5181 316.438 28.5971 324.466 33.8544C350.033 50.612 387.472 58.9484 403.359 86.6198C412.691 102.876 406.84 116.137 409.016 133.065C410.667 145.867 431.432 155.854 439.452 165.006C473.241 203.592 453.874 233.892 451.435 256.944C449.902 271.379 453.179 301.892 452.536 315.017C452.053 324.902 442.111 342.969 439.198 351.374C434.32 365.443 431.297 388.249 429.205 406.946C420.906 481.224 362.575 498.203 321.621 521.545C315.668 524.947 303.761 528.401 292.261 528.401C278.915 528.401 266.094 523.748 263.739 508.955C259.886 484.814 259.581 456.802 259.725 432.363V432.27V432.051C259.725 431.175 259.733 429.925 259.742 428.555C259.75 427.526 259.759 426.607 259.759 425.774C259.759 426.71 259.751 427.654 259.742 428.555C259.742 429.584 259.734 430.733 259.725 432.051V432.257C260.307 334.093 259.963 69.7813 259.553 55.6692C258.945 34.1734 276.134 25.5224 294.35 25.5224" fill="#5CD9A6"/>
<path fill-rule="evenodd" clip-rule="evenodd" d="M375.248 160.968C370.692 160.968 366.28 158.493 364.002 154.163C354.289 135.712 322.295 88.0424 290.513 90.2285C283.704 90.6536 277.48 85.32 277.048 78.2855C276.618 71.2507 281.934 65.1941 288.946 64.7603C343.5 61.2216 384.742 138.962 386.478 142.271C389.747 148.506 387.367 156.204 381.159 159.496C379.279 160.491 377.247 160.968 375.248 160.968" fill="#5CD9A6"/>
<path fill-rule="evenodd" clip-rule="evenodd" d="M462.488 308.775C461.252 308.775 460.007 308.596 458.779 308.217C426.014 298.154 368.903 260.224 387.195 188.634C388.939 181.812 395.841 177.686 402.667 179.455C409.459 181.199 413.557 188.157 411.813 194.988C395.011 260.7 463.318 282.91 466.231 283.821C472.913 285.913 476.673 293.05 474.615 299.77C472.921 305.249 467.916 308.778 462.488 308.778" fill="#5CD9A6"/>
<path fill-rule="evenodd" clip-rule="evenodd" d="M326.084 220.235C320.113 220.235 314.787 215.982 313.618 209.866C299.967 138.072 246.514 137.051 243.617 137.051C243.551 137.043 243.545 137.051 243.518 137.051C236.532 137.051 230.849 131.369 230.816 124.342C230.782 117.299 236.447 111.557 243.459 111.532H243.467C244.543 111.532 320.962 112.459 338.585 205.077C339.898 212.001 335.384 218.679 328.482 220.006C327.678 220.158 326.881 220.238 326.086 220.238" fill="#5CD9A6"/>
<path fill-rule="evenodd" clip-rule="evenodd" d="M439.738 392.506C435.581 392.506 431.499 390.456 429.068 386.687C408.532 354.89 345.349 272.352 300.161 272.267C293.14 272.25 287.466 266.526 287.483 259.482C287.492 252.447 293.174 246.748 300.186 246.748H300.203C367.214 246.868 442.067 359.917 450.392 372.805C454.203 378.716 452.526 386.619 446.64 390.447C444.498 391.842 442.109 392.506 439.738 392.506" fill="#5CD9A6"/>
<path fill-rule="evenodd" clip-rule="evenodd" d="M338.802 419.554C340.123 419.766 341.606 419.786 343.222 419.461C341.749 419.76 340.241 419.773 338.802 419.554ZM365.588 453.733C361.515 453.733 357.501 451.76 355.045 448.101C346.839 435.878 336.66 421.315 333.281 417.283C332.732 416.891 332.213 416.449 331.73 415.973C326.759 410.996 327.911 405.178 328.673 401.316C334.677 370.897 325.853 353.008 300.905 345.029C294.223 342.894 290.531 335.723 292.657 329.003C294.782 322.283 301.921 318.557 308.62 320.718C329.893 327.523 363.631 347.181 354.248 402.668C359.075 408.615 365.706 418.32 376.114 433.844C380.035 439.688 378.493 447.616 372.675 451.555C370.5 453.026 368.035 453.732 365.587 453.732" fill="#5CD9A6"/>
<path fill-rule="evenodd" clip-rule="evenodd" d="M292.855 443.018C291.483 443.018 290.078 442.785 288.706 442.311C282.075 440.006 278.561 432.742 280.847 426.081C291.264 395.841 324.452 391.885 342.439 394.301C349.4 395.237 354.278 401.659 353.346 408.643C352.415 415.618 346.029 420.552 339.119 419.599C338.643 419.549 311.071 416.358 304.864 434.426C303.043 439.7 298.123 443.017 292.856 443.017" fill="#5CD9A6"/>
<path fill-rule="evenodd" clip-rule="evenodd" d="M332.997 511.724C313.367 511.724 295.685 507.395 284.201 499.237C278.477 495.171 277.113 487.209 281.17 481.45C285.209 475.7 293.17 474.339 298.877 478.405C308.015 484.904 330.143 489.302 357.124 483.662C383.147 478.21 404.09 465.093 414.574 447.672C418.207 441.632 426.006 439.727 432.01 443.35C438.015 446.999 439.937 454.842 436.304 460.873C416.979 492.994 381.648 504.588 362.315 508.637C352.407 510.712 342.473 511.725 332.997 511.725" fill="#5CD9A6"/>
</svg>
