<svg width="591" height="589" viewBox="0 0 591 589" fill="none" xmlns="http://www.w3.org/2000/svg">
<g clip-path="url(#clip0)">
<path d="M526.837 110.643C425.614 -16.7198 240.06 -37.6205 112.265 63.9457C-15.5303 165.512 -37.0599 350.994 64.1626 478.357C165.385 605.719 350.939 626.62 478.735 525.054C606.53 423.488 628.059 238.005 526.837 110.643ZM108.938 442.772C27.2946 340.045 44.654 190.489 147.73 108.569C250.805 26.6489 400.419 43.5013 482.062 146.228C563.705 248.955 546.345 398.51 443.27 480.431C340.194 562.351 190.58 545.498 108.938 442.772ZM190.877 407.987L161.323 370.801C156.446 364.665 157.494 355.642 163.65 350.749L271.856 264.751L222.353 202.464C214.448 192.517 222.565 178.026 235.196 179.364L400.69 198.005C408.547 198.89 414.162 205.956 413.251 213.81L394.049 379.24C392.575 391.939 376.552 396.483 368.646 386.536L319.143 324.249L210.937 410.246C204.78 415.139 195.753 414.123 190.877 407.987Z" fill="#3A2F45"/>
</g>
<defs>
<clipPath id="clip0">
<rect width="591" height="589" fill="white"/>
</clipPath>
</defs>
</svg>
