<svg width="18" height="18" viewBox="0 0 18 18" fill="none" xmlns="http://www.w3.org/2000/svg">
<path fill-rule="evenodd" clip-rule="evenodd" d="M10.7514 2.49994C10.7514 2.91415 11.0872 3.24994 11.5014 3.24994H13.6908L7.97109 8.96961C7.67819 9.2625 7.67819 9.73738 7.97109 10.0303C8.26398 10.3232 8.73885 10.3232 9.03175 10.0303L14.7514 4.3106V6.49994C14.7514 6.91415 15.0872 7.24994 15.5014 7.24994C15.9156 7.24994 16.2514 6.91415 16.2514 6.49994V2.49994C16.2514 2.08573 15.9156 1.74994 15.5014 1.74994H11.5014C11.0872 1.74994 10.7514 2.08573 10.7514 2.49994ZM4.25 5.12753C4.25 4.6439 4.64206 4.25184 5.1257 4.25184H8C8.41421 4.25184 8.75 3.91605 8.75 3.50184C8.75 3.08763 8.41421 2.75184 8 2.75184H5.1257C3.81364 2.75184 2.75 3.81547 2.75 5.12753V12.8761C2.75 14.1882 3.81364 15.2518 5.1257 15.2518H12.8743C14.1864 15.2518 15.25 14.1882 15.25 12.8761V10.0018C15.25 9.58763 14.9142 9.25184 14.5 9.25184C14.0858 9.25184 13.75 9.58763 13.75 10.0018V12.8761C13.75 13.3598 13.3579 13.7518 12.8743 13.7518H5.1257C4.64206 13.7518 4.25 13.3598 4.25 12.8761V5.12753Z" fill="#12131B"/>
</svg>
