<svg width="512" height="512" viewBox="0 0 512 512" fill="none" xmlns="http://www.w3.org/2000/svg">
<path d="M511.75 256C511.75 114.719 397.281 0.25 256 0.25C114.719 0.25 0.25 114.719 0.25 256C0.25 397.281 114.719 511.75 256 511.75C397.281 511.75 511.75 397.281 511.75 256ZM49.75 256C49.75 142.047 142.047 49.75 256 49.75C369.953 49.75 462.25 142.047 462.25 256C462.25 369.953 369.953 462.25 256 462.25C142.047 462.25 49.75 369.953 49.75 256ZM124 276.625V235.375C124 228.569 129.569 223 136.375 223H256V153.906C256 142.872 269.303 137.406 277.141 145.141L379.234 247.234C384.081 252.081 384.081 259.919 379.234 264.766L277.141 366.859C269.303 374.697 256 369.128 256 358.094V289H136.375C129.569 289 124 283.431 124 276.625Z" fill="#3A2F45"/>
</svg>
