<svg width="591" height="584" viewBox="0 0 591 584" fill="none" xmlns="http://www.w3.org/2000/svg">
<path d="M20 292C20 141.963 143.08 20 295.5 20C447.92 20 571 141.963 571 292C571 442.037 447.92 564 295.5 564C143.08 564 20 442.037 20 292ZM37.1935 292C37.1935 433.375 153.015 547.484 295.5 547.484C437.985 547.484 553.806 433.375 553.806 292C553.806 150.625 437.985 36.5161 295.5 36.5161C153.015 36.5161 37.1935 150.625 37.1935 292ZM334.565 198.968H369.869V385.032H334.565V198.968ZM220.177 198.968H256.435V385.032H220.177V198.968Z" stroke="#3A2F45" stroke-width="40"/>
</svg>
