<svg fill="#767676" xmlns="http://www.w3.org/2000/svg" viewBox="0 0 95 95" x="0px" y="0px"><title>2459-Brandfex-Icons-for-nounproject-vector</title><path d="M71.1,22.92a3.79,3.79,0,0,1,0,5.26l-3.7,3.64L38.51,60.66a1.76,1.76,0,0,1-.84.45l-10,3.53a1.1,1.1,0,0,1-.45.06,1.48,1.48,0,0,1-1.06-.39,1.54,1.54,0,0,1-.34-1.51L29.5,52.54l0.06-.11A1.2,1.2,0,0,1,29.83,52L62.42,19.5a3.72,3.72,0,0,1,5.26,0ZM31.46,55.68l-1.85,5.21L34.82,59ZM59.74,26.33L32.91,53l4.59,4.54L64.27,30.87Zm9.3-.22A0.81,0.81,0,0,0,69,25l-3.42-3.42a0.85,0.85,0,0,0-1.12,0l-2.69,2.69,4.54,4.54Z"></path></svg>