<svg width="24" height="24" viewBox="0 0 24 24" fill="none" xmlns="http://www.w3.org/2000/svg">
<path fill-rule="evenodd" clip-rule="evenodd" d="M8.48956 6.75C7.1832 6.75 6.12418 7.80902 6.12418 9.11538C6.12418 10.4217 7.1832 11.4808 8.48956 11.4808C9.79593 11.4808 10.8549 10.4217 10.8549 9.11538C10.8549 7.80902 9.79593 6.75 8.48956 6.75ZM4.62418 9.11538C4.62418 6.98059 6.35477 5.25 8.48956 5.25C10.6244 5.25 12.3549 6.98059 12.3549 9.11538C12.3549 11.2502 10.6244 12.9808 8.48956 12.9808C6.35477 12.9808 4.62418 11.2502 4.62418 9.11538ZM17.317 9.34763C16.5842 9.34763 15.9901 9.94171 15.9901 10.6745C15.9901 11.4074 16.5842 12.0015 17.317 12.0015C18.0498 12.0015 18.6439 11.4074 18.6439 10.6745C18.6439 9.94171 18.0498 9.34763 17.317 9.34763ZM14.4901 10.6745C14.4901 9.11328 15.7557 7.84763 17.317 7.84763C18.8783 7.84763 20.1439 9.11328 20.1439 10.6745C20.1439 12.2358 18.8783 13.5015 17.317 13.5015C15.7557 13.5015 14.4901 12.2358 14.4901 10.6745ZM3.08599 15.8864C4.25186 14.9311 6.03977 13.9811 8.497 14.0055C10.65 14.0268 12.2909 14.7611 13.4497 15.5774C14.2357 14.9192 15.5299 14.1771 17.317 14.1771C18.9339 14.1771 20.1203 14.6755 20.9093 15.1912C21.3013 15.4474 21.5924 15.7059 21.7893 15.9055C21.8879 16.0054 21.9633 16.091 22.0164 16.1548C22.0429 16.1867 22.0639 16.2133 22.0795 16.2336C22.0873 16.2437 22.0938 16.2523 22.0989 16.2592L22.1056 16.2683L22.1081 16.2718L22.1092 16.2734L22.1098 16.2741C22.11 16.2744 22.1102 16.2747 21.5001 16.7109L22.1102 16.2747C22.3511 16.6117 22.2733 17.0801 21.9363 17.321C21.601 17.5608 21.1353 17.4848 20.8934 17.1518M20.891 17.1485L20.8916 17.1494L20.8928 17.151L20.8939 17.1524C20.8939 17.1525 20.8938 17.1523 20.8934 17.1518M20.8907 17.1482C20.8861 17.1424 20.8769 17.1306 20.8629 17.1138C20.8349 17.0801 20.788 17.0263 20.7215 16.959C20.5884 16.8241 20.3789 16.6366 20.0886 16.4468C19.513 16.0706 18.6078 15.6771 17.317 15.6771C16.118 15.6771 15.2166 16.1195 14.6193 16.5637C14.853 16.7983 15.0451 17.0177 15.1969 17.2052C15.3404 17.3823 15.4488 17.5318 15.523 17.6401C15.5601 17.6942 15.5888 17.7381 15.6091 17.7701C15.6193 17.7861 15.6274 17.7991 15.6334 17.8089L15.6409 17.8212L15.6435 17.8255L15.6445 17.8272L15.645 17.828C15.6452 17.8283 15.6454 17.8286 15.0001 18.2109L15.6454 17.8286C15.8565 18.185 15.7388 18.645 15.3824 18.8562C15.0268 19.0669 14.5679 18.9501 14.3562 18.5954C14.3558 18.5949 14.3555 18.5944 14.3552 18.5938L14.3555 18.5943L14.356 18.5951L14.3563 18.5957C14.3563 18.5956 14.3562 18.5955 14.3562 18.5954C14.3559 18.595 14.3555 18.5944 14.3549 18.5934L14.3435 18.5752C14.3321 18.5571 14.3129 18.5277 14.286 18.4885C14.2322 18.41 14.1475 18.2927 14.0314 18.1494C13.8101 17.8761 13.4772 17.5118 13.0285 17.1414C13.0253 17.1389 13.0222 17.1363 13.0191 17.1337C12.999 17.1172 12.9787 17.1007 12.9581 17.0841C11.9933 16.3076 10.5238 15.5256 8.48213 15.5054C6.44992 15.4853 4.99312 16.263 4.03663 17.0466C3.55603 17.4404 3.20305 17.8351 2.97218 18.1285C2.85703 18.2749 2.77314 18.3949 2.71974 18.4754C2.69307 18.5155 2.67409 18.5457 2.6627 18.5643L2.65132 18.5831L2.65098 18.5836C2.44531 18.9428 1.98747 19.0675 1.62802 18.8621C1.26839 18.6566 1.14344 18.1985 1.34895 17.8388L2.00013 18.2109C1.34895 17.8388 1.34913 17.8385 1.34932 17.8382L1.34975 17.8374L1.35074 17.8357L1.35329 17.8313L1.36068 17.8187C1.36663 17.8087 1.37462 17.7954 1.38467 17.779C1.40477 17.7463 1.43315 17.7013 1.46993 17.6459C1.54344 17.5351 1.65088 17.3821 1.79337 17.201C2.07779 16.8395 2.50541 16.362 3.08599 15.8864" fill="#12131B"/>
</svg>
