<svg width="16" height="13" viewBox="0 0 16 13" fill="none" xmlns="http://www.w3.org/2000/svg">
<path d="M10.375 12.25V11C10.375 10.337 10.1116 9.70107 9.64277 9.23223C9.17393 8.76339 8.53804 8.5 7.875 8.5H3.5C2.83696 8.5 2.20107 8.76339 1.73223 9.23223C1.26339 9.70107 1 10.337 1 11V12.25M8.1875 3.5C8.1875 4.88071 7.06821 6 5.6875 6C4.30679 6 3.1875 4.88071 3.1875 3.5C3.1875 2.11929 4.30679 1 5.6875 1C7.06821 1 8.1875 2.11929 8.1875 3.5Z" stroke="#96A0B5" stroke-width="1.25" stroke-linecap="round" stroke-linejoin="round"/>
<g clip-path="url(#clip0_44_876)">
<path d="M15.2231 11.7998V10.7998C15.2231 10.2694 15.0124 9.76066 14.6374 9.38559C14.2623 9.01052 13.7536 8.7998 13.2231 8.7998H9.72314M13.4731 4.7998C13.4731 5.90437 12.5777 6.7998 11.4731 6.7998C10.3686 6.7998 9.47314 5.90437 9.47314 4.7998C9.47314 3.69524 10.3686 2.7998 11.4731 2.7998C12.5777 2.7998 13.4731 3.69524 13.4731 4.7998Z" stroke="#96A0B5" stroke-width="1.08333" stroke-linecap="round" stroke-linejoin="round"/>
</g>
<defs>
<clipPath id="clip0_44_876">
<rect width="10.6667" height="10.4" fill="white" transform="translate(5.3335 1.7334)"/>
</clipPath>
</defs>
</svg>
