<svg width="24" height="24" viewBox="0 0 24 24" fill="none" xmlns="http://www.w3.org/2000/svg">
<path d="M16 21V19C16 17.9391 15.5786 16.9217 14.8284 16.1716C14.0783 15.4214 13.0609 15 12 15H5C3.93913 15 2.92172 15.4214 2.17157 16.1716C1.42143 16.9217 1 17.9391 1 19V21M20 8V14M23 11H17M12.5 7C12.5 9.20914 10.7091 11 8.5 11C6.29086 11 4.5 9.20914 4.5 7C4.5 4.79086 6.29086 3 8.5 3C10.7091 3 12.5 4.79086 12.5 7Z" stroke="#101828" stroke-width="2" stroke-linecap="round" stroke-linejoin="round"/>
</svg>
