<svg width="15" height="13" viewBox="0 0 15 13" fill="none" xmlns="http://www.w3.org/2000/svg">
<g clip-path="url(#clip0_304_1075)">
<path d="M8.375 12.25V11C8.375 10.337 8.1116 9.70107 7.64277 9.23223C7.17393 8.76339 6.53804 8.5 5.875 8.5H3.5C2.83696 8.5 2.20107 8.76339 1.73223 9.23223C1.26339 9.70107 1 10.337 1 11V12.25M7.1875 3.5C7.1875 4.88071 6.06821 6 4.6875 6C3.30679 6 2.1875 4.88071 2.1875 3.5C2.1875 2.11929 3.30679 1 4.6875 1C6.06821 1 7.1875 2.11929 7.1875 3.5Z" stroke="#96A0B5" stroke-width="1.3" stroke-linecap="round" stroke-linejoin="round"/>
<path d="M14.375 14.25V13C14.375 12.337 14.1116 11.7011 13.6428 11.2322C13.1739 10.7634 12.538 10.5 11.875 10.5H9M13.1875 5.5C13.1875 6.88071 12.0682 8 10.6875 8C9.30679 8 8.1875 6.88071 8.1875 5.5C8.1875 4.11929 9.30679 3 10.6875 3C12.0682 3 13.1875 4.11929 13.1875 5.5Z" stroke="#96A0B5" stroke-width="1.3" stroke-linecap="round" stroke-linejoin="round"/>
</g>
<defs>
<clipPath id="clip0_304_1075">
<rect width="15" height="13" fill="white"/>
</clipPath>
</defs>
</svg>
