<svg width="18" height="18" viewBox="0 0 18 18" fill="none" xmlns="http://www.w3.org/2000/svg">
<path fill-rule="evenodd" clip-rule="evenodd" d="M6.83438 6.4151C6.83438 5.21849 7.80443 4.24844 9.00105 4.24844C10.1977 4.24844 11.1677 5.21849 11.1677 6.4151C11.1677 7.61172 10.1977 8.58177 9.00105 8.58177C7.80443 8.58177 6.83438 7.61172 6.83438 6.4151ZM9.00105 2.74844C6.976 2.74844 5.33438 4.39006 5.33438 6.4151C5.33438 8.44015 6.976 10.0818 9.00105 10.0818C11.0261 10.0818 12.6677 8.44015 12.6677 6.4151C12.6677 4.39006 11.0261 2.74844 9.00105 2.74844ZM9.00239 11.25C7.10116 11.25 5.71647 11.7953 4.79682 12.3613C4.33948 12.6427 4.0008 12.9269 3.77205 13.1465C3.65761 13.2563 3.57038 13.3503 3.50925 13.4202C3.47867 13.4551 3.45457 13.4841 3.43682 13.5061C3.42794 13.517 3.42064 13.5263 3.41491 13.5336L3.40749 13.5433L3.40465 13.547L3.40345 13.5486L3.4029 13.5493C3.40264 13.5497 3.40239 13.55 4.00239 14L3.40239 13.55C3.15386 13.8814 3.22102 14.3515 3.55239 14.6C3.88224 14.8474 4.34954 14.782 4.59894 14.4546L4.60336 14.449C4.60929 14.4417 4.62084 14.4277 4.63811 14.4079C4.67268 14.3684 4.72998 14.3062 4.81085 14.2285C4.97273 14.0731 5.2278 13.8573 5.58296 13.6387C6.28831 13.2047 7.40362 12.75 9.00239 12.75C10.6012 12.75 11.7165 13.2047 12.4218 13.6387C12.777 13.8573 13.0321 14.0731 13.1939 14.2285C13.2748 14.3062 13.3321 14.3684 13.3667 14.4079C13.3839 14.4277 13.3955 14.4417 13.4014 14.449L13.4058 14.4546C13.6553 14.782 14.1225 14.8474 14.4524 14.6C14.7838 14.3515 14.8509 13.8814 14.6024 13.55L14.0024 14C14.6024 13.55 14.6021 13.5497 14.6019 13.5493L14.6013 13.5486L14.6001 13.547L14.5973 13.5433L14.5899 13.5336C14.5841 13.5263 14.5768 13.517 14.568 13.5061C14.5502 13.4841 14.5261 13.4551 14.4955 13.4202C14.4344 13.3503 14.3472 13.2563 14.2327 13.1465C14.004 12.9269 13.6653 12.6427 13.208 12.3613C12.2883 11.7953 10.9036 11.25 9.00239 11.25Z" fill="#12131B"/>
</svg>
