<svg width="10" height="12" viewBox="0 0 10 12" fill="none" xmlns="http://www.w3.org/2000/svg">
<path d="M5 6C3.38802 6 2.08333 4.76987 2.08333 3.25C2.08333 1.73013 3.38802 0.5 5 0.5C6.61198 0.5 7.91667 1.73013 7.91667 3.25C7.91667 4.76987 6.61198 6 5 6ZM3 6.78571H3.21615C3.75781 7.03125 4.35938 7.17857 5 7.17857C5.64062 7.17857 6.23958 7.03125 6.78385 6.78571H7C8.65625 6.78571 10 8.05268 10 9.61429V10.3214C10 10.9721 9.4401 11.5 8.75 11.5H1.25C0.559896 11.5 0 10.9721 0 10.3214V9.61429C0 8.05268 1.34375 6.78571 3 6.78571Z" fill="#3A2F45"/>
</svg>
