<svg width="24" height="24" viewBox="0 0 24 24" fill="none" xmlns="http://www.w3.org/2000/svg">
<path fill-rule="evenodd" clip-rule="evenodd" d="M11.9871 4.75C10.2823 4.75 8.90281 6.12896 8.90281 7.82696C8.90281 9.52496 10.2823 10.9039 11.9871 10.9039C13.6919 10.9039 15.0714 9.52496 15.0714 7.82696C15.0714 6.12896 13.6919 4.75 11.9871 4.75ZM7.40281 7.82696C7.40281 5.29782 9.45664 3.25 11.9871 3.25C14.5176 3.25 16.5714 5.29782 16.5714 7.82696C16.5714 10.3561 14.5176 12.4039 11.9871 12.4039C9.45664 12.4039 7.40281 10.3561 7.40281 7.82696ZM5.4468 16.2765C6.85763 15.1228 9.01975 13.9758 11.9945 14.0053C14.9599 14.0346 17.1212 15.1774 18.5354 16.3134C19.2404 16.8798 19.761 17.4449 20.1074 17.8718C20.2809 18.0855 20.4115 18.2655 20.5006 18.3951C20.5451 18.4599 20.5793 18.5122 20.6033 18.5498C20.6153 18.5687 20.6248 18.5839 20.6317 18.5952L20.6403 18.6092L20.6431 18.6139L20.6442 18.6157L20.6447 18.6165C20.6449 18.6168 20.645 18.6171 20.0001 19L20.645 18.6171C20.8565 18.9733 20.7392 19.4335 20.383 19.6449C20.0274 19.856 19.5682 19.7394 19.3563 19.3847C19.3561 19.3843 19.3558 19.3839 19.3556 19.3835L19.3558 19.3839L19.3539 19.3808L19.3384 19.356C19.3233 19.3323 19.2986 19.2945 19.2643 19.2446C19.1957 19.1448 19.0889 18.997 18.9428 18.8171C18.6502 18.4566 18.2035 17.9708 17.596 17.4828C16.3851 16.5101 14.5398 15.5305 11.9797 15.5052C9.42905 15.48 7.59767 16.4554 6.39635 17.4377C5.79333 17.9308 5.35033 18.4252 5.06005 18.7934C4.91519 18.9771 4.80925 19.1283 4.74123 19.2306C4.70724 19.2817 4.68281 19.3205 4.6678 19.3449C4.66029 19.3571 4.65515 19.3657 4.65235 19.3704L4.651 19.3726C4.65089 19.3728 4.65078 19.373 4.65067 19.3732C4.44471 19.7322 3.98676 19.8566 3.62748 19.6509C3.26802 19.4451 3.14345 18.9868 3.34925 18.6274L4.00013 19C3.34925 18.6274 3.34944 18.627 3.34964 18.6267L3.35008 18.6259L3.35113 18.6241L3.35394 18.6192L3.36236 18.6049C3.36922 18.5934 3.37857 18.5778 3.39045 18.5585C3.41419 18.52 3.44804 18.4664 3.49215 18.4001C3.58033 18.2675 3.70986 18.0832 3.88211 17.8647C4.22604 17.4285 4.74376 16.8514 5.4468 16.2765Z" fill="#12131B"/>
</svg>
