<svg width="24" height="24" viewBox="0 0 24 24" fill="none" xmlns="http://www.w3.org/2000/svg">
<path fill-rule="evenodd" clip-rule="evenodd" d="M8.66667 2.58594C6.77969 2.58594 5.25 4.11563 5.25 6.00261V18.0026C5.25 19.8896 6.77969 21.4193 8.66667 21.4193H15.3333C17.2203 21.4193 18.75 19.8896 18.75 18.0026V6.0026C18.75 4.11563 17.2203 2.58594 15.3333 2.58594H8.66667ZM6.75 6.00261C6.75 4.94406 7.60812 4.08594 8.66667 4.08594H15.3333C16.3919 4.08594 17.25 4.94406 17.25 6.0026V18.0026C17.25 19.0611 16.3919 19.9193 15.3333 19.9193H8.66667C7.60812 19.9193 6.75 19.0611 6.75 18.0026V6.00261ZM12 18C11.4477 18 11 17.5523 11 17C11 16.4477 11.4477 16 12 16C12.5523 16 13 16.4477 13 17C13 17.5523 12.5523 18 12 18Z" fill="#12131B"/>
</svg>
