<svg width="24" height="24" viewBox="0 0 24 24" fill="none" xmlns="http://www.w3.org/2000/svg">
<path fill-rule="evenodd" clip-rule="evenodd" d="M6.16667 2.24902C5.75245 2.24902 5.41667 2.58481 5.41667 2.99902C5.41667 3.41324 5.75245 3.74902 6.16667 3.74902H7.75V10.6483C5.76049 11.0026 4.25 12.7411 4.25 14.8324V15.999C4.25 16.4132 4.58579 16.749 5 16.749H11.25V21.999C11.25 22.4132 11.5858 22.749 12 22.749C12.4142 22.749 12.75 22.4132 12.75 21.999V16.749H19C19.4142 16.749 19.75 16.4132 19.75 15.999V14.8324C19.75 12.7411 18.2395 11.0026 16.25 10.6483V3.74902H17.8333C18.2475 3.74902 18.5833 3.41324 18.5833 2.99902C18.5833 2.58481 18.2475 2.24902 17.8333 2.24902H15.5H8.5H6.16667ZM12.0012 15.249H18.25V14.8324C18.25 13.3136 17.0188 12.0824 15.5 12.0824C15.0858 12.0824 14.75 11.7466 14.75 11.3324V3.74902H9.25V11.3324C9.25 11.7466 8.91421 12.0824 8.5 12.0824C6.98122 12.0824 5.75 13.3136 5.75 14.8324V15.249H11.9988C11.9992 15.249 11.9996 15.249 12 15.249C12.0004 15.249 12.0008 15.249 12.0012 15.249Z" fill="#6AE394"/>
</svg>
