<svg width="24" height="24" viewBox="0 0 24 24" fill="none" xmlns="http://www.w3.org/2000/svg">
<path fill-rule="evenodd" clip-rule="evenodd" d="M6.16667 2.25C5.75245 2.25 5.41667 2.58579 5.41667 3C5.41667 3.41421 5.75245 3.75 6.16667 3.75H7.75V10.6493C5.76049 11.0035 4.25 12.742 4.25 14.8333V16C4.25 16.4142 4.58579 16.75 5 16.75H11.25V22C11.25 22.4142 11.5858 22.75 12 22.75C12.4142 22.75 12.75 22.4142 12.75 22V16.75H19C19.4142 16.75 19.75 16.4142 19.75 16V14.8333C19.75 12.742 18.2395 11.0035 16.25 10.6493V3.75H17.8333C18.2475 3.75 18.5833 3.41421 18.5833 3C18.5833 2.58579 18.2475 2.25 17.8333 2.25H15.5H8.5H6.16667ZM12.0012 15.25H18.25V14.8333C18.25 13.3146 17.0188 12.0833 15.5 12.0833C15.0858 12.0833 14.75 11.7475 14.75 11.3333V3.75H9.25V11.3333C9.25 11.7475 8.91421 12.0833 8.5 12.0833C6.98122 12.0833 5.75 13.3146 5.75 14.8333V15.25H11.9988C11.9992 15.25 11.9996 15.25 12 15.25C12.0004 15.25 12.0008 15.25 12.0012 15.25Z" fill="#12131B"/>
</svg>
