<svg fill="#3EB995" xmlns:x="http://ns.adobe.com/Extensibility/1.0/" xmlns:i="http://ns.adobe.com/AdobeIllustrator/10.0/" xmlns:graph="http://ns.adobe.com/Graphs/1.0/" xmlns="http://www.w3.org/2000/svg" xmlns:xlink="http://www.w3.org/1999/xlink" version="1.1" x="0px" y="0px" viewBox="0 0 100 100" enable-background="new 0 0 100 100" xml:space="preserve"><metadata><sfw xmlns="http://ns.adobe.com/SaveForWeb/1.0/"><slices></slices><sliceSourceBounds width="1447.7" height="1443.7" x="1.2" y="-1446.3" bottomLeftOrigin="true"></sliceSourceBounds></sfw></metadata><path d="M50,91.8c23.1,0,41.8-18.7,41.8-41.8C91.8,26.9,73.1,8.2,50,8.2C26.9,8.2,8.2,26.9,8.2,50C8.2,73.1,26.9,91.8,50,91.8z   M35.3,44.4h9.1v-9.1c0-3.1,2.5-5.6,5.6-5.6c3.1,0,5.6,2.5,5.6,5.6v9.1h9.1c3.1,0,5.6,2.5,5.6,5.6c0,3.1-2.5,5.6-5.6,5.6h-9.1v9.1  c0,3.1-2.5,5.6-5.6,5.6c-3.1,0-5.6-2.5-5.6-5.6v-9.1h-9.1c-3.1,0-5.6-2.5-5.6-5.6C29.7,46.9,32.2,44.4,35.3,44.4z"></path></svg>