<?xml version="1.0" encoding="UTF-8"?>
<svg width="837px" height="815px" viewBox="0 0 837 815" version="1.1" xmlns="http://www.w3.org/2000/svg" xmlns:xlink="http://www.w3.org/1999/xlink">
    <!-- Generator: Sketch 51.3 (57544) - http://www.bohemiancoding.com/sketch -->
    <title>Group 2</title>
    <desc>Created with Sketch.</desc>
    <defs></defs>
    <g id="Premium-Features-Neu" stroke="none" stroke-width="1" fill="none" fill-rule="evenodd">
        <g id="Group-2">
            <g id="shutterstock_695692327">
                <path d="M713.785,223.393 C708.645,220.665 702.848,220.207 697.221,221.484 C693.829,222.254 690.556,223.466 687.236,224.487 C680.912,226.432 680.362,228.086 677.785,222.582 C674.97,216.573 678.418,210.407 672.907,204.142 C668.939,199.629 663.126,197.002 657.117,197.002 C654.931,197.002 652.825,197.335 650.845,197.953 C646.676,188.143 641.858,178.761 633.915,171.124 C618.119,155.939 594.018,149.599 573.418,158.112 C564.171,161.934 556.081,168.232 549.574,175.783 C546.17,179.733 543.186,184.041 540.641,188.591 C538.334,192.719 537.314,198.096 534.538,201.835 C528.452,199.543 522.836,196.519 516.491,194.769 C504.061,191.341 490.545,190.672 479.665,198.762 C470.732,205.404 465.074,217.409 467.96,228.504 C469.597,234.795 472.582,239.448 478.958,239.538 C487.979,239.666 497.01,239.538 506.032,239.538 L602.959,239.538 L699.293,239.538 L729.556,239.538 C729.556,239.538 723.081,228.325 713.785,223.393" id="Fill-4" fill="#F9F9F9"></path>
                <path d="M831.643,329.717 C834.592,314.266 828.996,297.256 817.547,286.252 C803.253,272.515 781.446,266.781 762.807,274.484 C754.44,277.942 747.118,283.641 741.23,290.475 C738.15,294.049 735.449,297.948 733.146,302.065 C731.059,305.8 730.136,310.666 727.623,314.05 C722.116,311.976 717.034,309.24 711.292,307.656 C700.044,304.554 687.812,303.948 677.967,311.269 C669.764,317.368 664.635,328.451 667.487,338.596 C668.499,342.195 671.142,348.079 675.179,348.421 C676.35,348.52 677.574,348.421 678.749,348.421 L711.396,348.421 L759.057,348.421 L802.567,348.421 L814.339,348.421 C816.379,348.421 818.42,348.434 820.46,348.421 C822.852,348.406 823.156,347.973 824.579,346.041 C828.23,341.085 830.537,335.51 831.643,329.717" id="Fill-5" fill="#F9F9F9"></path>
                <path d="M1.367,352.302 C-1.582,336.851 4.014,319.841 15.464,308.837 C29.758,295.1 51.564,289.366 70.203,297.069 C78.57,300.527 85.892,306.226 91.78,313.06 C94.86,316.634 97.561,320.533 99.864,324.65 C101.952,328.385 102.874,333.251 105.387,336.635 C110.894,334.561 115.977,331.825 121.718,330.241 C132.966,327.139 145.198,326.533 155.044,333.854 C163.246,339.953 168.375,351.036 165.523,361.181 C164.512,364.781 161.869,370.664 157.832,371.006 C156.661,371.106 155.436,371.006 154.262,371.006 L121.614,371.006 L73.953,371.006 L30.444,371.006 L18.672,371.006 C16.631,371.006 14.591,371.019 12.55,371.006 C10.158,370.992 9.854,370.558 8.431,368.626 C4.781,363.67 2.473,358.096 1.367,352.302" id="Fill-6" fill="#F9F9F9"></path>
                <path d="M261.676,707.844 C213.43,659.576 190.214,600.477 189.524,532.382 C191.319,465.822 214.592,408.127 261.91,361.004 C310.253,312.862 369.178,288.758 437.288,289.314 C504.024,289.858 561.702,314.153 608.825,361.528 C656.394,409.353 680.451,467.673 680.29,535.071 C680.13,602.318 655.909,660.404 608.275,708.002 C560.584,755.657 502.319,778.808 435.617,780.022 C367.713,778.877 309.362,755.551 261.676,707.844 Z" id="Fill-7" fill="#7ED3BA"></path>
                <path d="M499.385,607.523 C498.524,604.282 495.221,601.586 493.107,598.662 C491.325,596.198 490.315,593.278 489.07,590.504 C486.923,585.714 484.038,581.311 480.946,577.085 C478.313,573.485 475.117,570.434 474.924,565.71 C474.887,564.795 475.428,563.785 476.329,563.62 C476.916,563.511 477.507,563.773 478.015,564.085 C481.727,566.362 482.958,571.137 485.824,574.415 C487.469,576.296 489.637,577.659 491.305,579.519 C493.652,582.137 494.147,585.225 495.671,588.223 C496.873,590.587 498.707,591.781 500.71,593.581 C503.066,595.699 504.326,598.705 506.89,600.798 C508.065,601.757 509.012,602.908 509.923,604.093 C510.841,605.287 511.029,606.748 511.248,608.184 C511.795,611.776 513.595,614.864 515.281,617.978 C516.122,619.532 517.528,619.926 519.404,619.499 C520.751,619.191 522.034,618.72 523.054,617.741 C524.583,616.273 526.428,615.346 528.303,614.4 C535.232,610.906 540.939,605.751 546.372,600.296 C551.133,595.514 556.763,591.389 560.681,585.826 C564.686,580.14 567.321,573.191 568.812,566.435 C569.035,565.427 569.23,564.373 568.972,563.374 C568.397,561.152 565.873,560.076 563.606,559.72 C561.339,559.365 558.878,559.355 557.014,558.017 C555.287,556.778 554.377,554.407 555.027,552.39 C564.695,553.949 573.946,550.641 581.949,545.178 C586.782,541.879 587.976,547.324 592.497,548.402 C593.809,548.714 595.587,551.101 597.087,551.783 C599.622,552.936 602.385,553.598 605.167,553.717 C606.252,553.764 607.43,553.759 608.289,554.422 C608.913,554.903 609.253,555.654 609.58,556.371 C612.493,562.75 616.131,568.761 619.943,574.637 C622.521,578.612 624.081,585.536 628.62,587.877 C631.547,589.386 633.082,587.38 633.678,584.874 C633.9,583.939 634.736,582.908 635.631,583.259 C636.11,583.446 636.368,583.968 636.497,584.466 C636.945,586.207 636.411,588.278 637.539,589.678 C638.166,590.456 639.254,590.828 640.226,590.598 C642.068,590.161 642.771,587.952 642.77,586.289 C642.767,580.326 637.263,573.989 635.793,568.092 C634.19,561.664 633.985,554.946 634.607,548.372 C635.842,535.341 640.211,522.579 646.112,510.95 C646.22,510.738 646.344,510.51 646.563,510.415 C646.873,510.28 647.22,510.468 647.506,510.649 C650.211,512.365 653.018,514.185 654.636,516.951 C655.823,518.981 656.263,521.348 657.075,523.554 C657.243,524.01 657.521,524.531 658.005,524.565 C658.537,524.601 658.883,524.027 659.074,523.53 C659.324,522.877 661.478,516.901 661.384,516.721 C664.681,523.031 665.675,530.429 667.489,537.245 C669.216,543.735 672.779,549.149 673.578,556.011 C671.07,554.571 667.372,556.859 667.543,559.746 C667.605,560.803 668.077,561.787 668.361,562.807 C668.681,563.954 668.764,565.151 668.964,566.325 C669.497,569.455 670.852,572.378 671.731,575.43 C676.094,590.577 668.545,606.281 663.193,620.133 C649.978,654.338 629.581,685.074 603.263,710.578 C597.15,716.501 590.657,721.987 583.933,727.212 C575.445,733.807 566.552,739.793 557.274,745.201 C549.062,749.988 540.6,754.294 531.848,758.032 C525.71,760.653 519.508,763.098 513.186,765.224 C504.687,768.082 496.063,770.506 487.29,772.389 C480.915,773.758 474.506,774.899 468.041,775.766 C463.178,776.419 458.308,776.923 453.418,777.295 C450.007,777.555 446.589,777.629 443.182,777.848 C439.539,778.082 435.904,778.055 432.271,778.007 C426.079,777.925 419.896,777.605 413.72,777.059 C408.919,776.634 404.134,776.11 399.369,775.427 C393.423,774.575 387.523,773.443 381.66,772.127 C372.948,770.171 364.363,767.755 355.92,764.861 C347.786,762.074 339.835,758.825 332.035,755.191 C320.528,749.831 309.542,743.564 299.028,736.47 C291.517,731.402 284.306,725.935 277.417,720.036 C271.725,715.161 266.172,710.138 260.96,704.758 C252.226,695.744 243.611,686.497 236.491,676.124 C232.962,670.983 229.791,665.563 227.339,659.822 C225.549,655.63 221.834,648.259 223.361,643.667 C223.895,642.061 224.931,640.677 225.67,639.155 C230.372,629.478 220.577,616.449 215.915,608.403 C209.985,598.168 203.823,587.847 201.3,576.149 C200.092,570.543 198.886,564.898 198.301,559.172 C198.085,557.056 198.421,554.855 197.719,552.814 C196.351,548.838 195.962,544.65 194.886,540.617 C194.547,539.346 194.019,538.127 193.615,536.872 C193.108,535.3 193.219,533.629 193.191,532.038 C193.096,526.605 192.901,521.164 193.307,515.728 C193.443,513.895 193.431,512.039 193.34,510.201 C193.061,504.563 194.06,499.05 194.986,493.544 C196.173,486.482 197.657,479.474 199.529,472.557 C200.276,469.797 200.932,466.998 201.918,464.324 C202.507,462.726 203.369,461.25 203.734,459.529 C205.288,452.21 208.43,445.446 211.229,438.566 C213.246,433.609 215.602,428.8 218.023,424.034 C221.355,417.474 224.974,411.064 228.937,404.858 C230.111,403.02 231.309,401.198 232.488,399.364 C232.887,398.744 233.304,398.41 234.164,398.599 C236.885,399.199 238.667,397.423 240.476,395.868 C242.386,394.226 244.186,392.463 246.618,391.553 C247.623,391.177 248.524,390.245 249.371,389.704 C249.949,390.951 250.366,392.358 250.827,393.693 C250.865,393.802 250.906,393.916 250.988,393.998 C251.389,394.396 254.337,389.981 254.846,389.621 C255.796,388.95 257.19,388.756 258.093,389.49 C259.25,390.431 259.489,392.648 260.98,392.662 C259.511,393.48 258.17,394.528 257.021,395.755 C256.791,396.002 256.552,396.309 256.617,396.64 C256.679,396.958 256.993,397.152 257.278,397.308 C258.314,397.873 259.35,398.438 260.386,399.004 C261.458,399.589 262.592,400.19 263.814,400.175 C265.422,400.154 266.934,398.916 267.27,397.343 C266.299,397.299 265.34,397.03 264.489,396.561 C266.175,394.296 266.067,390.954 268.068,388.963 C271.508,385.54 275.778,385.699 272.69,379.631 C272.325,378.914 275.38,379.403 275.762,379.718 C278.115,381.655 275.315,386.154 274.535,388.251 C275.641,387.446 276.564,386.39 277.214,385.186 C278.043,387.618 279.899,389.681 282.231,390.761 C282.031,390.669 272.206,396.553 271.651,397.274 C269.562,399.987 270.112,403.819 270.764,407.18 C270.857,407.664 270.969,408.182 271.328,408.521 C272.371,409.505 273.927,408.093 274.633,406.845 C276.557,403.442 278.464,400.014 280.82,396.894 C285.374,390.864 290.851,385.454 295.674,379.623 C300.996,373.188 306.886,367.379 312.936,361.643 C310.921,361.44 308.906,361.236 306.89,361.033 C309.332,357.849 312.91,355.785 316.097,353.347 C319.283,350.909 322.305,347.706 322.751,343.718 C322.861,342.739 307.962,349.1 306.94,349.515 C300.6,352.086 294.051,354.139 287.377,355.644 C300.599,349.219 308.282,334.233 321.836,328.539 C324.273,327.515 326.934,326.817 329.553,327.181 C332.172,327.546 334.732,329.146 335.676,331.616 C332.705,332.003 330.19,334.661 329.969,337.649 C335.697,334.672 342.408,333.628 348.769,334.724 C346.804,334.397 344.982,335.796 343.647,337.275 C342.14,338.946 340.648,341.146 338.186,341.334 C336.607,341.454 334.889,340.39 334.698,338.818 C328.399,343.64 323.121,349.789 319.308,356.745 C319.985,355.51 321.514,357.242 321.988,357.225 C323.339,357.176 324.069,356.872 325.626,355.945 C328.453,354.261 331.151,352.382 333.929,350.625 C333.189,351.936 331.763,353.412 330.646,354.702 C334.261,355.185 337.649,353.037 340.664,350.984 C345.754,347.518 350.844,344.053 355.934,340.587 C360.428,337.527 364.95,334.445 368.833,330.639 C369.973,329.521 371.056,327.588 369.872,326.515 C369.437,326.12 368.819,326.012 368.234,325.948 C364.693,325.557 361.046,326.178 357.833,327.719 C355.516,328.83 352.842,330.43 350.597,329.181 C357.548,324.284 366.742,322.719 374.922,325.041 C374.143,326.433 373.365,327.824 372.586,329.216 C372.28,329.763 371.978,330.461 372.336,330.976 C372.612,331.372 373.154,331.455 373.635,331.504 C377.516,331.894 381.397,332.284 385.28,332.675 C387.699,332.918 391.943,333.615 392.233,336.721 C387.805,335.19 382.592,333.745 378.714,336.372 C376.381,337.952 375.132,340.66 373.387,342.871 C368.711,348.797 360.818,350.86 354.105,354.311 C352.206,355.287 350.081,357.179 350.908,359.147 C346.857,358.125 342.656,359.989 339.105,362.19 C334.056,365.32 329.496,369.237 325.64,373.756 C322.337,377.627 319.416,382.63 320.668,387.563 C332.247,381.066 345.756,378.063 358.997,379.041 C363.116,379.346 367.295,380.022 371.34,379.188 C375.242,378.384 378.72,376.232 382.017,373.995 C387.113,370.539 392.009,366.786 396.67,362.762 C399.436,360.375 402.143,357.856 405.23,355.877 C408.634,353.698 412.771,354.52 411.508,349.477 C411.19,348.208 411.534,346.882 411.615,345.577 C411.878,341.363 404.857,336.77 400.998,337.042 C403.288,336.881 405.139,334.721 405.327,332.433 C405.516,330.145 404.27,327.893 402.466,326.474 C400.661,325.054 398.368,324.38 396.087,324.123 C393.708,323.856 388.902,323.936 388.64,320.544 C388.601,320.037 388.715,319.509 388.549,319.029 C388.054,317.591 385.85,317.974 384.693,318.96 C383.536,319.945 382.371,321.351 380.867,321.134 C379.582,320.949 378.807,319.651 377.742,318.908 C375.545,317.375 372.549,318.398 370.082,319.443 C367.615,320.488 364.585,321.46 362.435,319.86 C366.729,319.716 371.002,319.026 375.124,317.818 C378.852,316.725 380.677,315.099 383.766,313.184 C387.913,310.614 393.776,311.473 398.295,309.247 C398.668,309.063 399.093,308.774 399.057,308.36 C399.03,308.041 398.735,307.821 398.459,307.659 C394.167,305.129 392.456,307.596 388.612,308.071 C386.78,308.297 384.597,307.917 383.026,307.135 C382.09,306.67 387.585,303.938 387.738,303.894 C390.226,303.177 392.897,303.308 395.443,302.946 C399.234,302.406 402.701,300.743 406.457,299.991 C411.149,299.052 415.953,298.861 420.726,298.798 C429.072,298.688 437.552,298.827 445.808,297.414 C446.334,297.324 446.89,297.213 447.283,296.851 C447.695,296.473 447.847,295.895 448.132,295.414 C448.607,294.612 449.441,294.094 450.281,293.689 C453.212,292.275 456.619,291.87 459.8,292.558 C458.468,292.728 457.996,294.615 458.686,295.768 C459.375,296.92 460.716,297.481 461.968,297.968 C467.706,299.881 473.314,302.385 478.951,304.579 C482.737,306.053 489.493,307.176 490.711,311.83 C491.493,314.813 500.918,318.198 494.991,321.753 C493.786,322.475 492.167,322.437 490.998,321.658 C489.845,320.89 489.209,319.554 488.195,318.609 C487.515,317.975 486.481,317.521 485.667,317.971 C485.028,318.325 484.761,319.12 484.753,319.85 C484.732,321.639 485.964,323.285 487.549,324.115 C490.639,325.735 494.013,324.463 497.22,324.042 C500.744,323.579 505.526,325.343 506.345,329.214 C506.373,329.348 501.701,330.703 501.357,330.862 C500.239,331.381 499.433,332.558 500.724,333.504 C501.241,333.883 501.886,334.047 502.425,334.394 C504.068,335.45 504.054,338.276 502.401,339.316 C501.093,340.138 499.382,339.806 497.93,339.281 C494.773,338.141 492.599,338.439 489.371,339.369 C483.236,341.135 476.823,341.667 470.46,342.19 C470.772,344.197 472.815,345.563 474.832,345.801 C476.849,346.038 478.855,345.411 480.801,344.83 C482.747,344.248 484.793,343.7 486.786,344.091 C487.662,344.263 488.673,345.209 488.068,345.866 C487.82,346.134 487.409,346.171 487.111,346.38 C486.247,346.985 486.858,348.323 487.475,349.178 C490.699,353.642 492.519,359.104 492.615,364.609 C492.621,364.915 492.612,365.249 492.418,365.486 C492.25,365.693 491.977,365.78 491.718,365.84 C490.15,366.203 488.37,366.009 487.076,366.966 C485.545,368.099 485.398,370.37 485.907,372.205 C486.763,375.292 488.409,382.236 492.456,382.541 C489.388,382.31 486.314,382.978 483.24,382.863 C476.339,382.606 474.069,377.737 474.439,371.417 C474.531,369.852 476.688,360.066 472.707,362.086 C470.797,363.055 468.957,366.437 468.476,368.444 C467.623,372 468.362,375.838 469.329,379.297 C469.93,381.449 471.142,383.587 473.16,384.546 C476.191,385.986 479.886,383.995 482.777,385.52 C483.834,386.077 484.522,387.424 483.71,388.437 C482.996,389.327 481.361,389.159 480.388,389.55 C478.551,390.287 477.357,391.841 475.907,393.109 C473.25,395.432 470.244,394.755 467.007,394.676 C466.633,394.667 466.226,394.668 465.929,394.896 C464.499,395.995 468.023,401.962 468.202,401.866 C467.531,402.228 466.709,401.901 466.025,401.562 C455.137,396.165 443.286,385.109 430.411,391.457 C427.306,392.988 424.201,394.519 421.096,396.05 C419.121,397.024 414.583,399.523 416.402,402.156 C414.173,406.191 410.561,409.913 406.743,412.495 C403.073,414.977 398.79,416.907 396.344,420.792 C394.948,423.008 394.392,425.654 394.158,428.263 C394.011,429.894 393.989,431.593 394.616,433.106 C395.244,434.619 396.662,435.905 398.3,435.926 C399.57,435.942 400.717,435.232 401.857,434.672 C402.998,434.113 404.376,433.692 405.507,434.272 C406.637,434.853 406.886,436.849 405.687,437.27 C401.647,436.632 397.393,439.742 396.774,443.785 C396.369,446.427 396.952,449.904 394.555,451.086 C393.139,451.784 391.443,451.152 389.874,451.321 C385.123,451.832 383.099,459.179 378.323,459.052 C380.817,459.118 376.715,443.152 376.271,441.496 C375.845,439.908 375.399,438.155 376.126,436.68 C376.605,435.709 377.526,435.024 378.07,434.088 C378.614,433.152 378.56,431.666 377.544,431.291 C376.965,431.076 376.006,431.013 376.135,430.409 C376.169,430.253 376.286,430.13 376.397,430.015 C377.194,429.203 377.99,428.391 378.786,427.578 C379.476,426.874 380.173,425.695 379.446,425.027 C378.992,424.61 378.251,424.749 377.727,425.074 C377.203,425.398 376.777,425.875 376.218,426.137 C374.97,426.722 373.324,426.117 372.217,426.938 C371.922,427.157 371.556,427.48 371.25,427.277 C371.017,427.122 371.039,426.776 370.917,426.524 C370.605,425.879 369.629,426.122 369.023,426.505 C367.586,427.41 366.312,428.571 365.277,429.917 C364.916,430.387 364.589,431.081 364.983,431.524 C365.356,431.943 366.181,431.848 366.385,432.371 C365.667,432.538 365.017,432.981 364.599,433.588 C365.318,433.683 365.748,434.55 365.563,435.251 C365.379,435.952 364.745,436.458 364.066,436.712 C363.388,436.967 362.653,437.018 361.936,437.125 C359.821,437.438 357.814,438.239 355.83,439.034 C354.792,439.45 353.659,439.954 353.203,440.975 C352.781,441.922 353.068,443.071 352.646,444.019 C352.113,445.214 350.661,445.691 349.831,446.702 C348.919,447.813 348.994,449.688 350.149,450.545 C350.888,451.093 351.871,451.157 352.791,451.15 C354.333,451.139 355.875,450.99 357.39,450.704 C359.372,450.33 361.51,449.565 362.446,447.779 C362.929,446.856 363.021,445.776 363.428,444.818 C363.835,443.859 364.776,442.961 365.795,443.177 C365.437,443.744 366.006,444.558 366.676,444.593 C367.346,444.628 367.938,444.099 368.211,443.486 C368.797,444.404 368.358,445.803 367.353,446.221 C366.471,446.588 365.283,446.311 364.672,447.045 C364.045,447.799 364.55,449.054 363.98,449.852 C363.469,450.566 362.39,450.537 361.671,451.04 C360.962,451.535 360.73,452.549 361.133,453.31 C361.372,453.762 361.819,454.131 361.858,454.641 C361.913,455.371 361.131,455.848 360.462,456.147 C358.91,456.84 357.205,457.422 355.764,458.331 C355.543,458.47 355.314,458.635 355.231,458.882 C354.859,459.985 359.158,459.747 359.785,459.777 C361.849,459.878 363.914,459.978 365.978,460.078 C369.14,460.232 372.39,460.405 375.274,461.713 C374.071,462.53 372.837,463.361 371.429,463.727 C370.2,464.046 369.269,463.821 368.191,463.217 C366.745,462.406 364.452,462.118 363.248,463.633 C362.99,463.958 362.935,464.485 363.243,464.764 C361.334,464.585 358.97,463.717 357.339,465.197 C356.45,466.004 356.185,467.421 356.723,468.495 C357.239,469.524 358.351,470.16 358.85,471.198 C358.953,471.412 359.028,471.64 359.138,471.85 C359.344,472.241 359.665,472.557 359.934,472.908 C361.511,474.961 361.513,477.909 361.111,480.346 C360.766,482.433 359.867,486.132 357.467,486.726 C356.642,486.931 355.778,486.682 354.969,486.419 C351.338,485.241 347.808,483.748 344.433,481.963 C342.248,480.807 337.822,480.676 336.422,483.235 C335.99,484.024 335.993,484.967 335.935,485.865 C335.755,488.611 334.978,491.208 333.528,493.544 C332.188,495.703 330.435,497.737 329.96,500.308 C329.585,502.339 330.012,504.667 328.735,506.291 C328.438,506.668 328.034,507.093 328.18,507.55 C328.256,507.786 328.466,507.952 328.674,508.086 C329.799,508.815 331.151,509.081 332.41,509.54 C333.669,509.998 334.944,510.764 335.407,512.022 C335.743,512.938 335.587,513.963 335.289,514.895 C333.788,519.593 329.045,521.622 325.206,524.059 C320.41,527.103 318.613,531.956 314.346,535.531 C310.91,538.41 306.548,539.879 302.569,541.944 C290.252,548.337 283.727,564.026 282.09,577.281 C281.571,581.484 280.004,583.797 278.681,587.635 C274.591,599.502 286.532,615.378 292.948,624.502 C296.161,629.071 299.764,633.682 304.452,636.828 C310.07,640.599 316.258,639.857 322.446,641.865 C328.468,643.819 334.28,644.489 340.61,643.885 C343.198,643.638 345.799,643.237 348.386,643.5 C351.17,643.783 353.779,644.952 355.442,647.201 C357.086,649.425 357.675,652.266 360.188,653.781 C363.088,655.528 367.007,655.804 370.309,655.676 C367.527,655.784 372.142,658.623 372.282,658.713 C374.501,660.151 375.371,659.408 375.484,662.301 C375.592,665.091 373.352,668.709 371.712,670.803 C371.318,671.305 370.888,671.807 370.707,672.419 C370.228,674.04 371.615,675.557 372.836,676.726 C381.37,684.903 387.56,695.503 391.388,706.636 C391.903,708.133 392.372,709.784 391.813,711.264 C391.326,712.553 390.163,713.434 389.204,714.424 C382.206,721.644 387.294,729.442 391.797,736.353 C397.044,744.406 403.218,751.856 410.164,758.5 C417.931,765.929 424.945,767.361 435.431,765.802 C443.633,764.583 451.797,763.187 459.278,759.448 C463.458,757.359 466.877,754.106 470.293,750.984 C473.572,747.987 478.16,745.561 481.04,742.341 C482.424,740.792 483.185,738.502 482.368,736.589 C481.18,733.813 481.783,732.882 484.452,731.284 C490.487,727.672 501.326,724.246 504.697,717.605 C506.667,713.724 506.464,709.498 505.076,705.466 C503.911,702.083 502.234,698.828 501.782,695.279 C501.234,690.985 502.556,686.617 504.692,682.852 C510.318,672.934 520.121,666.732 527.418,658.209 C534.741,649.654 540.576,639.821 544.514,629.268 C546.26,624.589 547.617,620.122 545.969,615.156 C545.837,614.759 545.654,614.328 545.27,614.162 C544.704,613.917 544.103,614.383 543.643,614.794 C540.758,617.371 537.181,619.017 533.662,620.625 C530.678,621.989 527.694,623.353 524.711,624.717 C523.637,625.208 522.541,625.705 521.369,625.85 C517.9,626.276 516.264,622.729 514.568,620.357 C512.017,616.789 508.794,613.764 505.593,610.764 C504.703,609.929 503.76,609.065 502.579,608.756 C501.398,608.447 499.919,608.911 499.517,610.064 C499.663,609.175 499.6,608.332 499.385,607.523" id="Fill-8" fill="#FFFFFF"></path>
                <path d="M424.098,520.021 C424.024,520.567 423.686,520.927 423.76,521.642 C423.818,522.212 424.207,522.736 424.735,522.957 C425.068,523.097 425.444,523.123 425.759,523.299 C426.594,523.764 426.589,524.951 427.049,525.789 C427.906,527.346 430.211,527.455 431.338,528.83 C431.604,529.154 431.893,529.588 432.308,529.531 C432.661,529.483 432.852,529.096 432.946,528.75 C433.34,527.292 432.816,525.668 433.75,524.35 C434.21,523.702 435.052,523.276 435.816,523.496 C436.66,523.739 437.116,524.617 437.603,525.348 C438.402,526.548 439.513,527.536 440.812,528.166 C441.062,528.287 441.332,528.398 441.608,528.374 C442.309,528.313 442.648,527.477 442.692,526.775 C442.83,524.605 441.653,522.541 440.149,520.97 C438.811,519.571 437.213,518.462 435.734,517.222 C434.611,516.28 433.542,514.523 432.37,513.806 C433.141,514.278 434.126,513.832 434.914,513.389 C436.626,512.423 438.448,511.065 440.298,510.449 C440.301,511.203 439.54,511.493 439.163,512.165 C438.752,512.899 439.316,514.023 440.157,513.983 C441.5,513.918 442.258,512.93 442.162,514.975 C442.123,515.806 441.903,516.624 441.91,517.455 C441.926,519.33 443.163,520.393 444.28,521.603 C443.941,521.725 443.494,521.876 443.228,522.131 C442.905,522.44 442.808,523.028 443.15,523.315 C443.524,523.629 444.09,523.392 444.575,523.446 C445.442,523.543 445.878,524.51 446.208,525.317 C446.571,526.206 448.284,530.454 449.652,530.066 C449.927,529.987 450.126,529.749 450.268,529.501 C450.557,528.996 450.68,528.407 450.976,527.905 C451.271,527.404 451.846,526.98 452.405,527.142 C454.332,527.698 456.27,530.13 458.256,527.995 C458.803,527.407 459.093,526.561 459.79,526.164 C460.454,525.785 461.304,525.937 461.984,526.286 C462.664,526.634 463.239,527.156 463.892,527.553 C465.491,528.525 467.598,528.668 469.32,527.951 C471.382,527.092 473.963,524.053 475.991,526.925 C477.591,529.192 476.71,533.042 476.316,535.552 C475.783,538.937 474.908,542.268 473.703,545.476 C473.365,546.377 472.95,547.33 472.126,547.829 C470.703,548.689 468.75,547.894 467.231,547.705 C464.573,547.375 461.635,547.343 459.14,548.436 C456.846,549.44 455.446,550.193 452.838,550.15 C450.341,550.11 447.865,549.616 445.463,548.959 C441.969,548.003 438.443,547.077 435.116,545.618 C431.97,544.237 429.192,542.148 425.549,542.932 C423.07,543.466 420.841,545.409 420.364,547.9 C420.178,548.871 420.25,549.885 419.991,550.84 C419.389,553.063 417.488,552.976 415.747,552.178 C413.458,551.13 411.17,550.081 408.881,549.032 C408.089,548.669 407.284,548.297 406.642,547.708 C405.504,546.663 405.064,545.108 403.945,544.044 C402.713,542.873 400.977,542.287 399.376,541.832 C396.667,541.062 393.921,539.778 391.506,538.346 C390.503,537.751 388.69,536.651 388.778,535.263 C388.878,533.677 390.66,533.388 391.534,532.361 C392.725,530.962 391.657,529.462 391.209,527.971 C390.934,527.056 390.788,526.328 391.094,525.417 C391.403,524.498 392.485,523.907 392.348,522.819 C392.243,521.976 391.363,521.481 390.569,521.179 C386.102,519.483 381.186,519.637 376.415,519.371 C368.531,518.931 360.412,517.308 352.89,519.711 C351.484,520.161 350.084,520.753 348.609,520.756 C347.437,520.759 346.301,520.388 345.19,520.016 C344.089,519.647 342.99,519.272 341.894,518.891 C340.657,518.462 339.158,517.601 339.4,516.314 C339.581,515.349 340.688,514.868 341.665,514.767 C343.694,514.557 345.7,515.272 347.737,515.375 C351.252,515.553 354.802,513.752 356.734,510.809 C358.21,508.561 358.804,505.719 360.742,503.854 C362.32,502.336 364.526,501.72 366.565,500.92 C368.603,500.12 370.713,498.91 371.465,496.854 C371.811,495.907 371.853,494.816 372.486,494.032 C373.48,492.799 375.414,492.934 376.886,493.519 C378.357,494.104 379.763,495.035 381.346,495.045 C384.474,495.064 387.061,491.496 390.099,492.245 C391.917,492.693 393.071,494.898 392.403,496.648 C392.251,497.047 392.017,497.447 392.078,497.869 C392.138,498.287 392.471,498.604 392.786,498.884 C397.868,503.405 403.572,507.393 407.472,512.966 C408.244,514.07 408.948,515.553 408.232,516.696 C406.504,519.456 401.908,518.338 399.331,517.91 C397.959,517.683 395.64,517.432 395.931,519.545 C396.209,521.561 404.381,527.999 405.711,525.569 C406.038,524.973 405.997,524.248 406.182,523.593 C406.539,522.327 407.688,521.46 408.821,520.79 C410.429,519.838 411.975,518.883 412.853,517.162 C413.519,515.857 413.619,514.201 412.841,512.961 C412.645,512.649 412.392,512.349 412.351,511.983 C412.231,510.895 413.456,511.393 413.927,511.658 C414.758,512.125 415.4,512.823 416.075,513.482 C417.807,515.169 418.541,511.269 417.764,510.069 C417,508.891 415.693,508.209 414.557,507.384 C413.388,506.534 412.361,505.489 411.531,504.306 C411.185,503.812 410.854,503.276 410.334,502.972 C409.866,502.698 409.305,502.649 408.786,502.493 C407.269,502.038 406.182,500.696 405.452,499.291 C404.721,497.885 404.245,496.35 403.41,495.004 C402.808,494.035 402.024,493.173 401.549,492.135 C401.175,491.318 401.206,488.252 402.555,488.245 C403.076,488.242 403.526,488.636 403.78,489.091 C404.034,489.546 404.141,490.066 404.317,490.556 C404.946,492.317 406.318,493.257 407.481,494.609 C408.765,496.101 409.643,497.915 411.184,499.186 C412.751,500.479 414.782,501.044 416.554,502.04 C420.102,504.035 419.53,506.745 419.903,510.233 C420.149,512.526 421.309,514.606 422.445,516.613 C422.902,517.421 423.91,518.594 424.081,519.496 C424.119,519.695 424.119,519.866 424.098,520.021" id="Fill-9" fill="#FEFEFE"></path>
                <path d="M481.883,503.906 C479.436,503.405 476.812,503.921 474.554,502.42 C474.245,502.214 473.722,502.302 473.298,502.306 C472.824,502.31 472.509,502.154 472.085,501.867 C470.963,501.107 469.612,501.478 468.379,501.665 C465.736,502.065 463.277,503.022 460.94,504.331 C458.503,505.696 455.93,506.31 453.08,505.944 C449.38,505.469 448.594,501.939 449.398,499.529 C449.464,499.331 449.564,499.054 449.72,498.99 C451.134,498.418 450.998,497.187 451.101,496.003 C451.199,494.876 451.667,493.874 452.471,493.034 C453.487,491.974 454.216,490.813 454.501,489.28 C454.783,487.755 455.785,486.496 457.004,485.493 C457.279,485.268 457.757,484.9 458.014,485.304 C458.609,486.239 459.497,486.333 460.442,486.459 C461.001,486.534 461.211,486.992 461.115,487.52 C460.849,488.987 461.508,489.743 462.892,490.119 C463.699,490.338 464.133,491.017 464.183,491.864 C464.225,492.591 464.634,492.784 465.285,492.811 C466.615,492.866 467.658,492.223 468.693,491.518 C470.186,490.501 471.689,489.552 473.636,489.68 C474.562,489.741 475.423,489.981 476.221,490.359 C480.244,492.262 484.185,494.328 488.016,496.593 C491.85,498.86 490.578,500.989 487.631,502.889 C485.909,504 483.803,503.515 481.883,503.906" id="Fill-10" fill="#FEFEFE"></path>
                <path d="M663.639,473.638 C664.393,474.592 664.497,475.764 664.807,476.845 C665.314,478.607 665.684,480.414 666.461,482.086 C666.639,482.467 666.809,483.088 667.418,482.945 C668.019,482.805 667.894,482.213 667.909,481.759 C668.043,477.888 667.223,474.187 665.667,470.68 C664.555,468.173 664.065,465.565 663.805,462.882 C663.407,458.758 662.486,454.729 661.632,450.688 C661.137,448.352 660.614,446.02 659.741,443.783 C659.64,443.524 659.2,443.145 659.737,442.937 C660.132,442.783 660.634,442.827 660.871,443.28 C661.167,443.846 661.399,444.448 661.634,445.044 C665.525,454.907 668.772,464.978 671.349,475.263 C673.193,482.621 674.743,490.044 675.831,497.551 C676.618,502.988 677.3,508.44 677.719,513.928 C678.135,519.385 678.258,524.85 678.546,530.307 C678.808,535.283 678.335,540.222 678.378,545.18 C678.394,547.011 678.253,548.889 677.853,550.759 C677.624,549.419 677.408,548.078 677.163,546.741 C676.847,545.01 676.338,543.336 675.547,541.761 C675.183,541.037 674.794,540.3 674.019,539.917 C672.067,538.952 671.929,537.022 671.566,535.245 C671.3,533.939 670.998,532.727 670.154,531.604 C669.471,530.696 669.431,529.429 669.343,528.286 C669.18,526.172 668.64,524.065 669.173,521.922 C669.3,521.411 669.495,520.949 669.752,520.508 C669.979,520.119 670.354,519.827 670.806,519.923 C671.274,520.022 671.256,520.489 671.251,520.877 C671.239,521.724 671.786,522.176 672.489,522.288 C673.322,522.42 673.683,522.868 673.807,523.613 C673.921,524.307 674.293,524.745 675.012,524.646 C675.759,524.544 675.862,523.941 675.89,523.292 C676.094,518.51 675.758,513.752 675.415,508.986 C675.172,505.619 674.82,502.28 674.076,498.989 C673.19,495.071 671.255,491.812 668.137,489.214 C666.008,487.44 665.068,484.952 664.61,482.278 C664.164,479.676 663.745,477.07 663.321,474.465 C663.272,474.165 663.283,473.867 663.639,473.638" id="Fill-11" fill="#FEFEFE"></path>
                <path d="M517.966,503.608 C517.987,502.496 517.903,501.169 519.696,500.874 C520.105,500.807 520.296,500.314 520.282,499.831 C520.266,499.292 520.001,498.955 519.529,498.745 C515.729,497.057 512.617,494.394 509.522,491.704 C508.924,491.184 508.483,490.55 508.233,489.816 C507.494,487.637 506.917,485.407 505.958,483.296 C505.519,482.328 506.123,481.478 506.893,480.83 C507.618,480.221 508.411,480.334 509.174,480.709 C510.149,481.188 510.957,481.913 511.596,482.775 C512.301,483.726 513.12,484.449 514.222,484.934 C515.325,485.419 516.111,486.388 517.03,487.148 C518.137,488.063 519.291,488.801 520.768,488.947 C521.729,489.042 522.044,489.802 522.038,490.605 C522.026,492.088 522.645,493.234 523.652,494.242 C523.859,494.45 524.103,494.705 524.153,494.971 C524.696,497.879 526.453,500.29 527.404,503.023 C527.764,504.056 528.081,504.971 528.928,505.812 C529.91,506.787 530.336,508.249 530.537,509.656 C530.725,510.983 529.466,512.094 527.518,512.317 C525.827,512.511 524.128,512.645 522.633,511.473 C522.102,511.057 521.396,510.914 520.715,510.799 C518.902,510.492 518.421,510.045 518.242,508.267 C518.092,506.782 518.061,505.285 517.966,503.608" id="Fill-12" fill="#FEFEFE"></path>
                <path d="M579.42,338.685 C579.067,338.56 578.662,338.507 578.37,338.296 C577.419,337.608 576.452,337.284 575.268,337.676 C574.803,337.83 574.246,337.738 573.776,337.458 C573.306,337.179 572.834,336.929 573.459,336.323 C574.053,335.747 573.65,335.326 573.17,334.964 C572.2,334.235 571.079,333.783 569.952,333.393 C567.856,332.668 565.773,331.891 563.593,331.42 C563.125,331.319 562.667,331.257 562.199,331.265 C561.876,331.271 561.451,331.107 561.269,331.487 C561.053,331.94 561.443,332.218 561.753,332.416 C563,333.214 563.414,334.423 563.475,335.806 C563.517,336.745 563.798,337.304 564.895,336.959 C565.207,336.861 565.578,336.914 565.916,336.95 C566.43,337.005 566.597,337.438 566.728,337.843 C566.877,338.3 566.642,338.693 566.341,339.001 C565.974,339.377 565.621,339.018 565.294,338.871 C564.178,338.37 563.418,337.399 562.468,336.678 C557.794,333.131 552.678,330.263 547.742,327.118 C544.278,324.91 541.048,322.395 537.911,319.746 C536.618,318.654 535.132,317.86 534.179,316.316 C533.355,314.98 531.653,314.494 530.258,313.286 C531.647,313.445 532.663,313.962 533.732,314.271 C537.173,315.268 540.655,316.094 544.137,316.931 C546.727,317.554 548.927,319.184 551.252,320.444 C558.321,324.277 565.192,328.448 571.823,333.002 C574.422,334.787 576.986,336.622 579.566,338.434 C579.517,338.518 579.468,338.601 579.42,338.685" id="Fill-13" fill="#FEFEFE"></path>
                <path d="M434.767,432.278 C434.349,432.54 434.189,432.72 434.008,432.743 C431.419,433.079 430.451,434.97 429.729,437.129 C428.684,440.251 427.956,443.448 427.436,446.694 C427.2,448.165 426.469,449.12 425.185,450.024 C423.747,451.035 422.853,451.28 421.29,450.205 C419.821,449.194 418.053,449.842 416.591,450.803 C415.228,451.698 413.783,452.26 412.137,452.144 C411.25,452.082 410.421,451.865 410.211,450.803 C410.056,450.016 409.449,449.882 408.793,449.737 C408.394,449.648 407.892,449.491 407.92,448.947 C407.944,448.482 408.396,448.398 408.765,448.291 C410.03,447.924 411.177,447.878 412.055,449.154 C412.551,449.875 413.426,449.821 413.997,449.378 C414.717,448.817 414.108,448.267 413.663,447.782 C413.306,447.393 412.598,447.118 412.835,446.463 C413.089,445.761 413.807,445.757 414.466,445.71 C418.057,445.455 419.978,443.008 419.456,439.38 C419.228,437.795 420.113,436.087 421.631,435.54 C423.349,434.922 424.746,433.966 425.734,432.425 C425.98,432.039 426.328,431.837 426.804,431.831 C429.36,431.798 431.917,431.727 434.767,432.278" id="Fill-14" fill="#FEFEFE"></path>
                <path d="M526.28,545.567 C526.562,545.872 526.94,546.205 527.338,546.087 C528.216,545.826 527.572,544.069 528.435,543.759 C529.391,545.414 530.527,546.958 531.716,548.454 C532.91,549.956 534.299,551.501 536.175,551.908 C539.764,552.687 543.964,554.589 547.638,553.799 C549.705,553.355 551.659,552.239 553,550.593 C553.193,550.357 553.381,550.104 553.649,549.96 C554.937,549.265 553.611,551.448 553.431,551.702 C551.851,553.935 550.441,556.281 549.074,558.648 C547.978,560.548 547.108,563.286 545.078,560.758 C544.864,562.782 543.717,563.95 541.977,564.611 C541.312,564.863 540.63,564.993 540.012,564.576 C539.513,564.24 538.957,563.838 539.82,563.225 C540.279,562.898 540.344,562.407 540.173,561.843 C539.535,559.735 539.457,557.299 536.701,556.9 C536.441,556.862 536.161,556.856 535.931,556.984 C534.981,557.51 536.049,559.166 535.383,560.023 C535.131,560.348 534.638,560.456 534.273,560.267 C533.908,560.077 533.713,559.611 533.834,559.218 C533.901,559.001 534.05,558.812 534.091,558.589 C534.151,558.264 533.973,557.947 533.802,557.664 C532.57,555.63 531.16,553.449 528.908,552.686 C528.623,552.589 528.324,552.516 528.074,552.348 C527.873,552.213 527.716,552.024 527.561,551.838 C526.93,551.08 525.099,549.574 524.999,548.579 C524.882,547.417 526.34,546.793 526.28,545.567" id="Fill-15" fill="#FEFEFE"></path>
                <path d="M462.336,292.487 C467.011,293.071 471.561,293.692 476.092,294.461 C483.532,295.723 490.889,297.347 498.184,299.268 C504.959,301.053 511.62,303.201 518.211,305.57 C518.412,305.643 518.612,305.718 518.814,305.79 C519.092,305.888 519.505,305.968 519.372,306.337 C519.217,306.77 518.792,306.579 518.491,306.46 C518.054,306.288 517.648,306.04 517.215,305.857 C515.519,305.139 513.758,304.72 511.935,304.395 C509.408,303.944 507.078,302.8 504.716,301.795 C500.924,300.18 496.853,299.563 492.873,298.63 C489.14,297.755 485.37,297.034 481.678,295.989 C481.272,295.874 480.838,295.76 480.659,296.175 C480.21,297.223 479.328,297.056 478.486,297.085 C475.182,297.197 472.055,296.525 469.041,295.153 C467.49,294.447 465.835,294.013 464.092,293.953 C463.247,293.923 462.334,293.774 462.336,292.487" id="Fill-16" fill="#FDFDFD"></path>
                <path d="M425.271,427.984 C422.727,427.972 421.46,426.208 422.265,423.782 C423.206,420.946 425.427,419.191 427.658,417.454 C428.122,417.091 428.409,417.227 428.487,417.853 C428.723,419.75 429.007,421.642 428.843,423.563 C428.81,423.945 428.735,424.324 428.722,424.705 C428.647,426.987 427.592,427.995 425.271,427.984" id="Fill-17" fill="#FEFEFE"></path>
                <path d="M476.653,673.342 C478.277,673.359 478.917,674.209 478.399,675.535 C477.792,677.087 476.864,678.382 475.087,678.775 C474.569,678.89 474.083,679.12 473.847,679.604 C473.247,680.836 472.184,680.74 471.207,680.421 C470.079,680.052 470.276,678.961 470.43,678.112 C470.659,676.854 471.063,675.808 472.556,675.229 C473.583,674.83 474.395,673.787 475.615,673.522 C476.035,673.43 476.442,673.33 476.653,673.342" id="Fill-18" fill="#FEFEFE"></path>
                <path d="M436.338,410.618 C436.225,411.703 435.661,412.346 435.095,412.888 C433.895,414.036 432.566,415.045 431.131,415.903 C430.821,416.088 430.487,416.27 430.183,416.041 C429.856,415.795 430.07,415.434 430.131,415.098 C430.585,412.595 431.622,410.588 434.31,409.852 C434.912,409.688 435.405,409.788 435.885,410.106 C436.136,410.273 436.335,410.501 436.338,410.618" id="Fill-19" fill="#FEFEFE"></path>
                <path d="M282.449,349.041 C282.887,349.962 282.422,350.766 281.832,351.426 C280.352,353.085 278.719,354.595 276.951,355.947 C276.65,356.178 276.266,356.713 275.858,356.335 C275.411,355.921 275.916,355.469 276.123,355.086 C277.049,353.37 278.681,352.235 279.806,350.676 C280.428,349.814 281.112,348.996 281.782,348.17 C282.107,347.768 282.535,347.58 283.03,347.827 C283.438,348.03 283.754,348.394 283.622,348.858 C283.382,349.702 282.853,348.678 282.449,349.041" id="Fill-20" fill="#FDFDFD"></path>
                <path d="M473.184,486.364 C472.097,486.38 470.903,486.436 470.739,485.32 C470.595,484.335 471.675,483.806 472.511,483.398 C472.955,483.181 473.478,483.099 473.976,483.025 C474.883,482.89 475.579,483.145 475.761,484.171 C475.931,485.125 475.682,485.808 474.673,486.161 C474.126,486.353 473.593,486.345 473.184,486.364" id="Fill-21" fill="#FEFEFE"></path>
                <path d="M527.249,313.006 C526.718,312.873 525.97,312.708 525.235,312.5 C522.977,311.86 520.797,310.997 518.623,310.122 C518.341,310.009 517.869,309.893 518.033,309.437 C518.189,309.002 518.592,309.189 518.919,309.257 C521.927,309.887 524.858,310.774 527.706,311.93 C528.014,312.055 528.413,312.08 528.408,312.539 C528.405,312.832 528.047,312.996 527.249,313.006" id="Fill-22" fill="#FDFDFD"></path>
                <path d="M436.168,439.363 C436.168,439.922 436.156,440.293 435.981,440.659 C435.484,441.7 434.988,441.81 434.156,441.024 C433.783,440.671 433.441,440.297 433.211,439.825 C432.909,439.203 432.539,438.579 433.077,437.926 C433.439,437.487 433.923,437.153 434.525,437.271 C435.348,437.432 435.871,437.98 436.109,438.776 C436.18,439.016 436.161,439.282 436.168,439.363" id="Fill-23" fill="#FDFDFD"></path>
                <path d="M384.422,326.24 C384.003,324.624 385.408,323.349 387.384,323.594 C387.841,323.651 388.295,323.827 388.723,324.012 C389.535,324.364 389.529,324.915 389.017,325.542 C388.388,326.313 387.297,326.682 386.112,326.501 C386.212,325.899 386.988,325.841 387.1,325.278 C385.832,324.988 385.768,325.011 384.422,326.24" id="Fill-24" fill="#FDFDFD"></path>
                <path d="M364.149,316.187 C363.969,316.847 363.487,317.471 362.754,317.581 C361.515,317.766 360.637,318.419 359.859,319.302 C359.571,319.629 359.305,320.032 358.817,319.635 C358.332,319.24 358.486,318.831 358.848,318.424 C360.106,317.013 361.76,316.212 363.433,315.447 C364.061,315.16 364.171,315.572 364.149,316.187" id="Fill-25" fill="#FDFDFD"></path>
                <path d="M479.835,715.233 C479.082,712.978 479.311,711.111 479.838,709.251 C479.906,709.012 480.026,708.725 480.341,708.786 C480.56,708.829 480.645,709.075 480.649,709.297 C480.685,711.188 480.849,713.097 479.835,715.233" id="Fill-26" fill="#FDFDFD"></path>
                <path d="M541.86,707.695 C541.86,708.167 541.91,708.645 541.849,709.108 C541.744,709.92 541.338,710.811 540.546,710.82 C538.994,710.836 539.154,711.884 539.072,712.805 C538.994,713.677 539.027,714.546 537.933,714.848 C537.771,714.893 537.622,715.134 537.543,715.317 C535.192,720.774 531.615,725.489 528.384,730.41 C527.449,731.835 526.395,733.189 525.32,734.513 C522.777,737.644 519.138,738.712 515.422,739.416 C510.945,740.264 512.076,739.492 511.555,736.107 C511.149,733.469 512.022,731.251 514.121,729.498 C515.603,728.259 516.368,726.779 515.967,724.65 C515.597,722.687 515.798,720.638 516.715,718.753 C517.38,717.388 518.227,716.538 519.912,716.188 C522.772,715.593 525.308,714.056 527.683,712.348 C530.386,710.404 532.363,707.724 534.6,705.314 C535.738,704.089 536.888,702.88 538.099,701.734 C539.104,700.783 539.879,700.932 540.582,702.148 C541.571,703.858 541.86,705.749 541.86,707.695" id="Fill-27" fill="#E5E5E5"></path>
                <path d="M364.091,400.721 C363.327,400.724 362.563,400.723 361.798,400.722 C361.192,400.722 360.555,400.714 360.024,400.42 C359.469,400.112 356.428,396.97 356.584,396.523 C356.846,395.769 360.096,395.584 358.603,393.948 C358.262,393.575 357.623,393.292 357.737,392.8 C357.844,392.338 358.488,392.319 358.956,392.4 C359.423,392.481 360.074,392.433 360.15,391.965 C360.17,391.839 360.137,391.711 360.113,391.585 C359.636,389.034 364.015,387.122 364.562,389.948 C364.885,391.617 364.96,391.572 366.582,391.84 C368.352,392.132 370.637,392.255 372.155,393.265 C374.177,394.61 373.616,396.867 372.253,398.469 C370.201,400.879 366.958,400.714 364.091,400.721" id="Fill-28" fill="#E5E5E5"></path>
                <path d="M424.485,363.755 C424.4,362.947 424.491,362.166 424.876,361.456 C426.648,358.187 433.259,358.812 436.003,360.135 C437.931,361.065 436.459,362.776 434.595,362.904 C433.391,362.987 432.871,363.198 433.42,364.388 C433.851,365.325 434.958,366.317 435.018,367.387 C435.095,368.747 433.484,369.886 432.537,368.394 C432.129,367.75 432.29,366.9 432.037,366.181 C432.002,366.08 431.953,365.976 431.863,365.918 C431.622,365.764 431.338,366.031 431.179,366.268 C430.796,366.835 428.102,371.648 427.239,370.785 C427.029,370.613 426.917,370.352 426.812,370.102 C426.026,368.231 424.485,365.851 424.485,363.755" id="Fill-29" fill="#E5E5E5"></path>
                <path d="M393.404,316.636 C392.517,317.223 387.494,318.802 387.001,317.133 C385.757,312.916 392.892,312.027 395.535,311.723 C397.286,311.521 399.611,311.076 401.361,311.431 C404.581,312.084 401.796,314.439 399.859,314.73 C398.703,314.904 397.455,314.566 396.27,314.655 C395.751,314.694 392.354,315.722 392.182,315.588 C392.613,315.924 393.045,316.236 393.404,316.636" id="Fill-30" fill="#E5E5E5"></path>
                <path d="M458.807,355.427 C458.608,355.861 459.355,356.375 459.602,356.616 C458.326,357.074 456.757,356.459 456.132,355.256 C455.999,356.343 455.755,357.37 454.68,357.873 C453.294,358.521 451.467,358.626 450.02,358.132 C449.736,358.035 449.425,357.868 449.372,357.574 C449.347,357.442 449.381,357.306 449.424,357.179 C449.699,356.361 450.39,355.655 451.215,355.386 C452.103,355.097 452.754,355.875 452.889,356.695 C452.945,357.041 452.998,357.53 453.463,357.496 C454.247,357.44 454.492,356.272 454.529,355.662 C454.564,355.092 454.501,354.525 454.475,353.956 C454.458,353.593 454.323,352.727 454.651,352.452 C454.808,352.321 455.041,352.352 455.24,352.404 C456.607,352.757 458.114,353.62 459.365,352.48 C459.505,352.352 459.654,352.197 459.843,352.202 C460.222,352.213 460.636,352.901 460.496,353.245 C460.369,353.556 460.017,353.548 459.837,353.789 C459.59,354.12 459.892,354.567 459.647,354.891 C459.463,355.134 459.056,355.099 458.864,355.336 C458.84,355.366 458.822,355.396 458.807,355.427" id="Fill-31" fill="#E5E5E5"></path>
                <path d="M394.604,322 L394.1,322 C393.277,321.997 392.099,321.933 392.083,321.137 C392.067,320.356 393.272,320.583 393.987,320.443 C395.469,320.152 396.959,320.212 398.45,320.216 C398.727,320.217 399.142,320.086 399.231,320.455 C399.339,320.903 398.871,320.985 398.582,321.094 C397.18,321.623 395.722,321.906 394.604,322" id="Fill-32" fill="#E5E5E5"></path>
                <path d="M472.413,390.189 C473.285,390.261 473.879,390.766 473.945,391.779 C474.005,392.703 473.284,393.496 472.43,393.499 C471.604,393.501 470.681,392.615 470.64,391.78 C470.599,390.93 471.365,390.192 472.413,390.189" id="Fill-33" fill="#E5E5E5"></path>
                <path d="M387.182,503.327 C387.148,501.727 387.442,500.106 389.162,499.502 C390.567,499.008 389.256,504.757 389.233,505.332 C389.133,507.779 390.036,510.764 388.321,512.86 C387.781,513.521 385.835,514.574 385.122,513.611 C384.968,513.403 384.968,513.124 384.975,512.866 C385.03,510.839 385.12,508.814 385.247,506.791 C385.264,506.51 385.295,506.2 385.5,506.006 C385.795,505.727 386.278,505.835 386.659,505.692 C387.583,505.345 387.197,504.045 387.182,503.327" id="Fill-34" fill="#E5E5E5"></path>
                <path d="M466.581,534.458 C466.063,534.485 465.412,534.525 465.094,533.876 C464.753,533.181 465.18,532.619 465.624,532.156 C466.254,531.501 466.805,530.641 467.989,531.071 C468.243,531.163 468.649,530.945 468.947,530.794 C469.632,530.444 470.282,530.026 470.968,529.68 C471.288,529.519 471.678,529.127 472.009,529.48 C472.388,529.885 472.019,530.407 471.725,530.585 C470.868,531.104 471.182,532.123 470.679,532.741 C469.724,533.916 468.354,534.264 466.93,534.457 C466.846,534.468 466.758,534.458 466.581,534.458" id="Fill-35" fill="#E5E5E5"></path>
                <path d="M436.248,531.845 C438.335,532.21 440.639,532.369 442.831,533.131 C443.147,533.242 443.573,533.288 443.529,533.737 C443.486,534.174 443.078,534.166 442.735,534.205 C440.432,534.47 438.145,534.247 435.882,533.865 C435.213,533.752 434.108,533.703 434.201,532.659 C434.302,531.531 435.355,531.957 436.248,531.845" id="Fill-36" fill="#E5E5E5"></path>
                <path d="M369.911,506.83 C369.891,508.065 369.056,508.984 367.94,508.996 C366.837,509.008 366.544,508.249 366.475,507.368 C366.4,506.416 367.577,505.264 368.588,505.288 C369.562,505.312 369.934,505.918 369.911,506.83" id="Fill-37" fill="#E5E5E5"></path>
                <path d="M421.823,442.081 C421.579,440.15 422.095,438.771 423.622,437.859 C423.857,437.719 424.125,437.461 424.413,437.773 C424.637,438.016 424.452,438.255 424.344,438.474 C423.719,439.753 423.16,441.081 421.823,442.081" id="Fill-38" fill="#E5E5E5"></path>
                <path d="M525.849,308.21 C609.552,342.74 668.868,422.577 676.997,512.872 C684.762,599.137 645.373,684.906 574.616,734.941 C502.606,785.861 405.952,792.735 327.176,753.202 C252.071,715.511 200.378,639.945 192.823,556.218 C184.554,464.578 229.6,374.078 307.913,325.687 C317.633,319.681 327.797,314.397 338.267,309.825 C341.382,308.464 338.467,307.618 336.526,308.465 C251.365,345.656 192.418,428.521 187.357,521.63 C182.574,609.636 226.549,695.189 300.873,742.558 C374.412,789.428 469.898,793.389 547.508,753.901 C624.307,714.826 676.439,636.742 682.259,550.681 C688.554,457.586 640.106,366.999 559.162,320.563 C549.695,315.132 539.868,310.363 529.78,306.201 C528.625,305.725 524.236,307.545 525.849,308.21" id="Fill-39" fill="#E5E5E5"></path>
                <path d="M655.822,676.185 C671.196,696.363 686.088,716.994 699.308,738.662 C707.961,752.844 716.633,767.84 721.369,783.876 C723.269,790.312 726.353,802.112 719.581,806.963 C714.858,810.35 707.081,808.165 702.07,806.781 C691.683,803.913 681.817,799.007 672.366,793.919 C659.063,786.756 646.285,778.63 633.783,770.16 C598.748,746.425 565.65,719.802 533.456,692.38 C451.624,622.677 374.802,546.502 303.705,465.897 C274.006,432.226 245.221,397.615 218.85,361.257 C201.378,337.167 183.592,311.937 172.077,284.326 C168.673,276.163 158.502,250.364 174.845,248.878 C186.825,247.789 200.09,254.803 210.403,259.962 C230.014,269.772 248.458,281.961 266.359,294.569 C277.086,302.125 287.624,309.946 298.042,317.922 C299.385,318.95 303.836,317.038 302.529,316.038 C281.808,300.175 260.613,284.806 238.347,271.167 C223.66,262.171 208.178,253.198 191.544,248.33 C183.591,246.002 172.682,244.003 165.715,249.957 C161.02,253.969 160.673,260.462 161.42,266.176 C162.711,276.046 166.943,285.572 171.243,294.448 C177.53,307.422 185.018,319.817 192.848,331.908 C216.129,367.86 242.886,401.589 270.417,434.349 C342.789,520.467 422.535,601.012 507.01,675.259 C542.124,706.122 578.259,736.037 616.408,763.1 C640.047,779.869 665.187,797.576 692.727,807.357 C703.773,811.28 725.697,816.13 728.212,799.009 C729.979,786.984 723.49,773.717 718.443,763.259 C708.975,743.638 696.931,725.232 684.507,707.383 C676.7,696.168 668.589,685.169 660.308,674.301 C659.323,673.008 654.661,674.661 655.822,676.185" id="Fill-40" fill="#6A79A8"></path>
                <path d="M579.14,318.446 C599.329,303.091 619.974,288.217 641.669,275.044 C655.757,266.491 670.862,257.554 686.957,253.371 C693.736,251.61 703.578,250.373 707.314,257.955 C710.176,263.763 708.519,271.215 706.864,277.103 C699.922,301.8 684.354,324.615 670.136,345.595 C646.516,380.447 620.063,413.385 592.792,445.428 C522.883,527.569 446.45,604.671 365.57,676.013 C331.976,705.645 297.453,734.373 261.181,760.689 C237.04,778.203 211.673,796.248 183.907,807.614 C173.431,811.9 151.874,819.16 150.694,801.029 C149.891,788.683 156.561,775.556 161.897,764.871 C171.418,745.807 183.212,727.866 195.412,710.433 C203.24,699.248 211.36,688.273 219.654,677.43 C220.623,676.161 216,676.789 215.269,677.746 C199.378,698.521 183.973,719.761 170.338,742.101 C161.485,756.606 152.52,771.974 147.847,788.437 C145.805,795.629 143.422,806.705 150.379,812.13 C155.225,815.91 162.473,815.24 168.107,814.21 C178.1,812.38 187.666,808.229 196.737,803.787 C210.011,797.286 222.695,789.576 235.065,781.51 C270.391,758.475 303.598,732.147 335.868,705.053 C422.3,632.484 503.123,552.475 577.613,467.725 C608.011,433.14 637.469,397.565 664.243,360.078 C681.395,336.063 699.455,310.531 709.596,282.56 C713.893,270.708 718.268,250.742 699.872,249.978 C687.729,249.474 675.227,255.132 664.542,260.233 C644.87,269.625 626.428,281.648 608.555,294.057 C597.323,301.856 586.308,309.961 575.424,318.238 C573.477,319.719 578.251,319.123 579.14,318.446" id="Fill-41" fill="#6A79A8"></path>
                <path d="M693.295,501.512 C718.957,504.943 744.606,509.031 769.783,515.137 C785.795,519.021 802.482,523.388 817.016,531.382 C823.107,534.732 833.117,540.848 831.225,549.263 C829.919,555.071 823.799,559.048 819.025,561.821 C809.629,567.279 799.071,570.805 788.708,573.899 C774.208,578.228 759.398,581.503 744.543,584.347 C702.947,592.308 660.683,596.874 618.496,600.272 C509.357,609.063 399.184,609.608 289.909,602.996 C244.639,600.257 199.359,596.227 154.513,589.368 C124.321,584.75 93.27,579.49 64.654,568.423 C55.833,565.011 30.181,555.032 38.789,541.165 C44.93,531.273 59.931,526.557 70.218,523.019 C90.035,516.203 110.717,511.852 131.307,508.135 C144.984,505.667 158.729,503.595 172.501,501.734 C175.081,501.385 176.287,497.97 172.988,498.416 C146.892,501.944 120.795,506.155 95.213,512.472 C78.802,516.523 61.661,521.149 46.926,529.692 C40.351,533.504 31.245,539.847 32.306,548.633 C33.046,554.757 38.536,559.28 43.339,562.461 C52.102,568.266 62.315,571.979 72.253,575.197 C86.911,579.944 101.975,583.417 117.072,586.437 C159.638,594.95 202.949,599.762 246.18,603.323 C359.628,612.669 474.297,613.13 587.874,605.774 C634.323,602.766 680.813,598.414 726.748,590.755 C755.858,585.901 786.413,580.583 813.488,568.31 C824.279,563.417 844.39,551.93 832.813,537.886 C825.171,528.615 811.691,523.93 800.757,520.133 C780.023,512.933 758.327,508.463 736.757,504.619 C722.897,502.148 708.973,500.062 695.019,498.196 C692.769,497.895 690.048,501.078 693.295,501.512" id="Fill-42" fill="#6A79A8"></path>
                <path d="M144.467,507.397 C144.467,520.378 133.944,530.9 120.964,530.9 C107.984,530.9 97.461,520.378 97.461,507.397 C97.461,494.417 107.984,483.894 120.964,483.894 C133.944,483.894 144.467,494.417 144.467,507.397" id="Fill-43" fill="#9FCDED"></path>
                <path d="M143.467,509.283 C143.467,521.222 134.035,530.9 122.4,530.9 C110.765,530.9 101.333,521.222 101.333,509.283 C101.333,497.345 110.765,487.667 122.4,487.667 C134.035,487.667 143.467,497.345 143.467,509.283" id="Fill-44" fill="#BBDFF5"></path>
                <path d="M497.183,574.496 C484.27,573.181 474.867,561.647 476.182,548.733 C477.497,535.819 489.031,526.417 501.945,527.732 C514.858,529.047 524.261,540.581 522.946,553.495 C521.631,566.408 510.097,575.811 497.183,574.496" id="Fill-45" fill="#9FCDED"></path>
                <path d="M495.408,573.31 C483.531,572.101 474.858,561.737 476.036,550.162 C477.215,538.587 487.799,530.184 499.676,531.393 C511.553,532.602 520.226,542.966 519.048,554.541 C517.869,566.116 507.285,574.519 495.408,573.31" id="Fill-46" fill="#BBDFF5"></path>
                <path d="M667.902,374.697 C655.044,376.476 643.179,367.494 641.4,354.636 C639.622,341.778 648.603,329.913 661.461,328.135 C674.319,326.356 686.184,335.338 687.963,348.196 C689.741,361.054 680.76,372.919 667.902,374.697" id="Fill-47" fill="#9FCDED"></path>
                <path d="M665.896,373.965 C654.07,375.601 643.191,367.584 641.597,356.059 C640.003,344.534 648.297,333.865 660.124,332.229 C671.95,330.593 682.829,338.61 684.423,350.135 C686.017,361.66 677.722,372.329 665.896,373.965" id="Fill-48" fill="#BBDFF5"></path>
                <path d="M285.067,291.114 C285.067,304.094 274.544,314.617 261.564,314.617 C248.584,314.617 238.061,304.094 238.061,291.114 C238.061,278.133 248.584,267.611 261.564,267.611 C274.544,267.611 285.067,278.133 285.067,291.114" id="Fill-49" fill="#9FCDED"></path>
                <path d="M284.067,293 C284.067,304.939 274.635,314.617 263,314.617 C251.365,314.617 241.933,304.939 241.933,293 C241.933,281.061 251.365,271.383 263,271.383 C274.635,271.383 284.067,281.061 284.067,293" id="Fill-50" fill="#BBDFF5"></path>
                <path d="M603.515,779.38 C596.741,768.307 600.226,753.839 611.298,747.065 C622.371,740.291 636.838,743.776 643.612,754.848 C650.387,765.921 646.902,780.388 635.83,787.162 C624.757,793.936 610.29,790.452 603.515,779.38" id="Fill-51" fill="#9FCDED"></path>
                <path d="M603.384,777.249 C597.154,767.065 600.148,753.887 610.073,747.815 C619.998,741.743 633.094,745.076 639.325,755.26 C645.556,765.444 642.561,778.622 632.636,784.694 C622.711,790.766 609.615,787.433 603.384,777.249" id="Fill-52" fill="#BBDFF5"></path>
                <path d="M336.764,468.938 C336.764,486.638 322.415,500.987 304.715,500.987 C287.014,500.987 272.665,486.638 272.665,468.938 C272.665,451.237 287.014,436.888 304.715,436.888 C322.415,436.888 336.764,451.237 336.764,468.938" id="Fill-53" fill="#9FCDED"></path>
                <path d="M335.764,471.105 C335.764,487.609 322.385,500.987 305.882,500.987 C289.379,500.987 276,487.609 276,471.105 C276,454.602 289.379,441.223 305.882,441.223 C322.385,441.223 335.764,454.602 335.764,471.105" id="Fill-54" fill="#BBDFF5"></path>
                <path d="M244.778,731.248 C261.082,724.357 279.885,731.988 286.776,748.292 C293.667,764.596 286.036,783.399 269.733,790.29 C253.429,797.181 234.625,789.55 227.734,773.246 C220.843,756.942 228.474,738.139 244.778,731.248" id="Fill-55" fill="#9FCDED"></path>
                <path d="M247.164,731.325 C262.365,724.9 279.897,732.015 286.322,747.216 C292.747,762.418 285.632,779.95 270.431,786.375 C255.229,792.799 237.698,785.685 231.273,770.483 C224.848,755.282 231.962,737.75 247.164,731.325" id="Fill-56" fill="#BBDFF5"></path>
                <path d="M724.386,619.331 C706.772,617.584 693.908,601.89 695.655,584.276 C697.401,566.661 713.096,553.798 730.71,555.545 C748.324,557.291 761.188,572.986 759.441,590.6 C757.695,608.214 742,621.077 724.386,619.331" id="Fill-57" fill="#9FCDED"></path>
                <path d="M722.327,618.122 C705.905,616.494 693.911,601.86 695.54,585.437 C697.168,569.014 711.802,557.021 728.224,558.649 C744.647,560.278 756.641,574.911 755.012,591.334 C753.384,607.757 738.75,619.75 722.327,618.122" id="Fill-58" fill="#BBDFF5"></path>
                <path d="M359.383,275.558 C359.378,275.639 359.375,275.72 359.375,275.802 C359.379,278.674 362.644,279.48 364.927,279.729 C367.293,279.988 385.312,283.67 392.041,284.823 C414.979,288.781 439.082,289.928 462.102,285.945 C474.441,283.811 486.743,281.425 499.067,279.195 C503.086,278.47 507.174,277.9 511.009,276.434 C513.252,275.576 517.557,273.21 517.113,270.185 C516.836,268.297 513.972,268.791 512.621,269.139 C496.409,273.32 480.068,277.235 463.609,280.316 C440.51,284.639 416.65,283.928 393.661,279.27 C386.23,277.765 378.761,276.048 371.712,273.208 C370.162,272.583 368.623,271.9 366.991,271.547 C365.358,271.193 363.593,271.193 362.081,271.902 C360.642,272.576 359.491,273.985 359.383,275.558" id="Fill-59" fill="#DDDDDD"></path>
                <path d="M514.822,268.591 C512.007,247.761 507.396,220.138 500.29,193.981 C498.529,187.446 496.611,180.95 494.464,174.531 C493.578,171.885 491.638,168.44 492.787,165.677 C493.886,163.035 495.043,160.418 496.205,157.803 C496.809,156.444 497.438,155.095 497.994,153.715 C498.272,153.026 498.532,152.329 498.76,151.622 C498.939,151.068 499.398,150.237 498.729,149.858 C497.374,149.089 495.956,148.433 494.493,147.899 C493.068,147.378 491.558,147.136 490.153,146.545 C489.007,146.06 487.888,145.483 486.786,144.907 C484.492,143.709 482.227,142.353 480.321,140.586 C480.249,140.519 480.177,140.451 480.106,140.383 C477.041,137.443 474.963,133.857 472.6,130.393 C472.357,130.036 472.6,130.393 472.6,130.393 C460.77,115.362 446.104,108.694 428.008,117.407 C422.996,119.82 418.45,123.116 414.4,126.915 C409.389,131.615 406.065,137.519 401.448,142.536 C398.702,145.521 395.506,148.095 391.991,150.122 C390.311,151.091 388.563,151.939 386.891,152.923 C385.856,153.531 382.492,155.253 382.587,156.592 C382.639,157.325 383.814,158.619 384.168,159.306 C384.664,160.27 385.103,161.264 385.472,162.285 C386.184,164.258 387.607,168.572 387.607,168.572 C387.607,168.572 383.098,179.911 381.36,185.021 L376.204,201.422 C369.949,222.915 365.578,246.569 361.619,270.458 L363.167,271.277 C368.125,273.293 397.373,284.204 444.716,282.128 C462.549,281.346 514.822,268.591 514.822,268.591" id="Fill-60" fill="#FFFFFF"></path>
                <path d="M360.237,280.524 C382.428,283.058 404.387,287.395 426.636,289.484 C445.807,291.284 464.261,287.33 483.014,283.643 C493.426,281.596 503.826,279.217 514.335,277.711 C516.918,277.341 518.109,273.894 514.815,274.366 C495.246,277.17 476.035,282.18 456.492,285.193 C436.858,288.221 417.744,285.146 398.225,282.313 C386.145,280.559 374.085,278.569 361.954,277.184 C359.692,276.925 356.982,280.153 360.237,280.524" id="Fill-61" fill="#6A79A8"></path>
                <path d="M474.193,145.748 C469.864,151.115 464.859,155.671 458.718,158.888 C456.95,159.814 453.338,161.828 450.944,162.671 C448.718,159.065 446.492,155.46 444.266,151.855 C443.2,150.129 440.095,150.95 439.049,152.22 C436.508,155.309 433.966,158.397 431.424,161.485 C423.857,155.59 416.289,149.696 408.722,143.801 C406.569,142.124 401.407,145.143 404.139,147.271 C412.546,153.82 420.953,160.369 429.36,166.917 C430.709,167.969 433.131,167.357 434.144,166.126 C436.405,163.379 438.666,160.632 440.926,157.885 C442.074,159.744 443.222,161.603 444.369,163.462 C446.107,166.276 446.823,168.075 450.499,167.177 C461.714,164.437 472.097,156.416 479.18,147.636 C481.557,144.689 475.956,143.563 474.193,145.748" id="Fill-62" fill="#E5E5E5"></path>
                <path d="M431.823,162.078 C427.212,158.856 423.894,154.339 419.283,151.117 C414.918,148.066 409.848,144.234 406.119,140.452 C402.617,136.9 405.681,134.908 408.425,131.299 C410.849,128.111 413.484,125.065 416.423,122.339 C427.973,111.624 442.584,108.939 456.724,116.389 C465.002,120.75 471.704,127.905 476.927,135.565 C480.411,140.674 476.125,143.889 472.299,147.876 C468.862,151.459 465.001,154.634 460.817,157.305 C457.194,159.617 452.614,162.733 448.367,162.078 C448.367,162.078 443.818,157.817 441,153.25 C438.017,156.228 434.806,159.101 431.823,162.078" id="Fill-63" fill="#FFFFFF"></path>
                <path d="M472.455,143.802 C468.976,148.372 464.978,152.477 460.108,155.578 C457.108,157.488 452.73,158.49 449.945,160.62 C449.687,160.731 449.427,160.839 449.165,160.942 C448.164,161.27 448.708,161.447 450.798,161.474 C450.825,161.445 450.202,160.794 450.168,160.708 C449.76,159.671 448.349,158.495 447.645,157.64 C446.175,155.853 444.705,154.066 443.236,152.279 C442.331,151.179 439.853,151.942 439.045,152.784 C436.12,155.837 433.194,158.89 430.269,161.943 C431.665,161.775 433.062,161.606 434.459,161.438 C426.53,154.892 418.602,148.347 410.673,141.802 C409.289,140.659 404.778,142.568 406.202,143.744 C414.13,150.289 422.059,156.834 429.988,163.38 C431.097,164.296 433.225,163.869 434.178,162.874 C437.104,159.821 440.029,156.768 442.955,153.716 C441.558,153.884 440.161,154.052 438.764,154.221 C440.87,156.781 442.976,159.341 445.082,161.902 C446.886,164.096 448.004,164.273 450.758,163.264 C461.32,159.395 470.165,152.952 476.979,144.002 C478.345,142.207 473.476,142.461 472.455,143.802" id="Fill-64" fill="#6A79A8"></path>
                <path d="M435.953,178.119 C434.045,188.946 432.097,199.768 430.259,210.608 C428.085,223.433 423.67,234.988 416.519,244.297 C417.328,248.137 424.663,261.058 424.406,265.088 C427.159,263.112 437.926,254.389 440.717,252.262 C446.31,248.001 446.718,213.814 446.138,203.694 C445.847,198.605 445.185,175.56 440.515,175.01 L438.802,174.809 C437.466,174.651 436.208,176.016 435.991,177.858 C435.981,177.945 435.968,178.033 435.953,178.119" id="Fill-65" fill="#BBDFF5"></path>
                <path d="M433.526,178.378 C431.728,188.568 429.92,198.757 428.158,208.954 C426.636,217.762 424.456,226.356 420.384,234.37 C419.564,235.984 418.686,237.566 417.734,239.106 C416.916,240.429 414.545,242.707 414.248,244.162 C413.894,245.904 415.126,247.899 415.819,249.484 C417.885,254.21 421.902,260.046 421.98,265.346 C422.007,267.198 424.963,266.666 425.943,265.948 C429.541,263.313 432.988,260.465 436.476,257.687 C438.826,255.816 441.965,254.031 443.758,251.574 C448.109,245.61 447.856,235.072 448.286,228.12 C448.802,219.782 448.944,211.394 448.553,203.047 C448.19,195.282 448.084,187.142 446.082,179.588 C445.339,176.785 444.448,174.172 441.416,173.497 C437.752,172.682 434.098,174.484 433.526,178.378 C433.217,180.48 438.109,179.701 438.379,177.861 C438.736,175.434 439.549,176.525 440.396,178.232 C441.14,179.731 441.44,181.526 441.763,183.149 C442.656,187.64 443.018,192.248 443.317,196.811 C443.83,204.635 444.019,212.451 443.801,220.291 C443.548,229.384 443.581,239.547 440.635,248.262 C439.435,251.812 436.719,253.326 433.862,255.6 C430.221,258.499 426.625,261.477 422.87,264.227 C424.191,264.428 425.512,264.628 426.833,264.829 C426.758,259.775 423.589,254.682 421.553,250.197 C420.476,247.825 418.921,245.561 419.708,243.205 C420.275,241.508 422.148,239.631 423.071,238.053 C424.12,236.259 425.08,234.414 425.958,232.531 C433.809,215.691 435.185,195.967 438.379,177.861 C438.745,175.789 433.851,176.539 433.526,178.378" id="Fill-66" fill="#6A79A8"></path>
                <path d="M439.222,162.928 C440.177,162.174 441.212,162 442.256,163.444 C443.748,165.509 444.368,168.66 445.104,171.062 C445.715,173.053 445.9,174.383 443.297,174.36 C441,174.34 438.46,173.468 436.194,173.05 C432.57,172.381 435.755,167.055 436.88,165.629 C437.559,164.768 438.358,163.61 439.222,162.928" id="Fill-67" fill="#BBDFF5"></path>
                <path d="M440.693,163.542 C439.358,163.431 439.129,163.703 440.005,164.358 C440.176,164.64 440.348,164.923 440.519,165.206 C440.841,165.81 441.093,166.462 441.324,167.105 C441.791,168.411 442.124,169.762 442.507,171.094 C442.662,171.633 442.871,172.172 442.966,172.726 C442.993,172.876 443.02,173.026 443.046,173.177 C442.905,173.768 443.108,173.831 443.655,173.365 C444.596,173.062 444.457,172.943 443.237,173.007 C442.834,172.951 442.435,172.881 442.038,172.796 C441.232,172.637 440.436,172.436 439.637,172.248 C438.649,172.016 437.365,172.067 436.983,170.99 C436.707,170.212 437.185,169.13 437.478,168.417 C438.249,166.544 439.648,164.583 441.136,163.24 C441.909,162.544 441.649,161.962 440.724,161.7 C439.728,161.419 438.066,161.932 437.309,162.615 C435.083,164.622 432.046,168.3 432.1,171.531 C432.128,173.186 433.183,173.91 434.693,174.277 C437.362,174.927 440.199,175.77 442.973,175.6 C444.572,175.502 447.057,174.976 447.746,173.283 C448.39,171.702 447.22,169.33 446.785,167.831 C446.21,165.847 445.518,163.036 443.727,161.763 C441.96,160.506 439.418,161.199 437.752,162.314 C435.054,164.119 439.265,164.497 440.693,163.542" id="Fill-68" fill="#6A79A8"></path>
                <path d="M474.989,76.514 C475.199,43.68 460.914,16.971 443.081,16.857 C425.249,16.743 410.623,43.267 410.413,76.101 C410.408,76.862 410.384,80.644 410.376,81.986 C410.259,100.19 411.726,112.885 414.378,121.731 C419.829,139.914 441.572,147.628 441.572,147.628 C441.572,147.628 463.931,140.339 469.748,124.153 C472.932,115.293 474.826,102.076 474.952,82.399 C474.96,81.098 474.984,77.314 474.989,76.514" id="Fill-69" fill="#FFFFFF"></path>
                <path d="M466.286,29.934 C468.774,26.841 472.87,21.593 472.55,17.445 C474.6,21.893 475.512,27.103 477.44,31.748 C478.514,34.337 479.596,36.956 480.034,39.724 C480.708,43.997 479.794,48.402 478.131,52.396 C476.468,56.39 474.081,60.034 471.685,63.636 C472.187,63.999 472.595,63.064 472.523,62.448 C472.214,59.812 471.906,57.175 471.597,54.538 C471.143,55.101 469.469,56.101 469.014,56.663 C468.03,57.882 467.045,59.101 466.06,60.32 C466.816,58.517 466.667,56.361 465.672,54.678 C465.371,54.706 465.07,54.734 464.77,54.762 C463.544,56.736 461.514,57.702 459.605,59.025 C459.989,58.885 460.373,58.745 460.756,58.604 C460.591,57.28 460.174,55.988 459.532,54.818 C458.308,52.583 456.173,50.963 454.974,48.738 C453.138,45.334 454.908,45.511 456.258,42.363 C458.268,37.675 463.133,33.853 466.286,29.934" id="Fill-70" fill="#BBDFF5"></path>
                <path d="M400.644,38.555 C403.952,29.915 408.503,21.915 415.532,15.342 C422.361,8.956 431.485,3.188 440.71,1.285 C447.559,-0.125 454.344,2.137 460.074,5.854 C464.909,8.991 473.305,13.503 469.615,19.897 C463.878,29.835 455.926,38.461 446.583,45.11 C441.911,48.435 436.887,51.27 431.616,53.528 C429.29,54.524 426.514,55.034 424.78,56.849 C423.925,57.744 421.333,62.195 421.507,63.39 C421.423,62.813 418.843,56.524 418.146,57.205 C415.821,59.475 413.924,62.185 412.601,65.153 C412.299,65.829 411.87,66.616 411.709,67.336 C411.537,68.099 411.772,68.846 411.884,69.631 C412.019,70.573 412.117,71.521 412.179,72.47 C412.208,72.905 412.004,74.627 412.259,74.916 C411.162,73.667 409.495,73.017 408.434,71.737 C406.969,69.97 406.985,67.537 406.467,65.411 C405.915,63.142 405.244,60.896 404.44,58.695 C403.168,60.166 402.477,61.996 402.345,63.938 C402.242,65.438 402.36,66.95 402.179,68.443 C401.932,70.479 401.155,72.65 402.065,74.489 C398.988,72.406 397.817,67.941 397.127,64.499 C396.359,60.665 396.353,56.719 396.763,52.842 C397.025,50.36 397.445,48.198 398.179,45.788 C398.921,43.351 399.733,40.934 400.644,38.555" id="Fill-71" fill="#BBDFF5"></path>
                <path d="M418.01,133.636 C421.838,138.184 426.404,141.957 431.524,144.973 C434.023,146.446 437.679,148.942 440.703,149.152 C443.715,149.36 447.54,146.987 450.072,145.706 C455.538,142.94 460.547,139.5 464.931,135.213 C467.043,133.148 462.355,132.611 460.944,133.991 C457.123,137.726 452.762,140.716 448.007,143.135 C446.578,143.863 445.12,144.537 443.64,145.155 C443.107,145.377 442.49,145.755 441.926,145.84 C440.932,145.991 443.31,146.062 441.97,145.703 C434.647,143.738 427.138,137.152 422.452,131.585 C421.154,130.042 416.538,131.887 418.01,133.636" id="Fill-72" fill="#6A79A8"></path>
                <path d="M442.29,237.228 C442.464,237.01 442.631,236.847 442.829,236.657 C443.1,236.398 443.35,236.513 442.957,236.509 C442.802,236.573 442.64,236.594 442.472,236.571 C442.563,236.569 442.648,236.591 442.727,236.636 C442.964,236.852 443.274,236.984 443.515,237.236 C444.566,238.334 449.132,236.587 448.021,235.426 C445.278,232.561 439.953,234.63 437.834,237.28 C437.132,238.157 438.438,238.495 439.087,238.492 C440.149,238.488 441.591,238.102 442.29,237.228" id="Fill-73" fill="#6A79A8"></path>
                <path d="M471.989,126.242 C476.974,111.867 477.308,95.908 477.414,80.861 C477.522,65.579 476.086,50.261 469.472,36.26 C464.906,26.595 457.153,16.469 445.759,15.128 C434.812,13.84 425.673,21.475 420.04,30.102 C411.578,43.062 408.334,59.266 407.984,74.538 C407.652,89.055 407.605,104.121 410.901,118.346 C411.518,121.012 411.839,122.237 411.187,124.877 C410.951,125.836 410.834,127.323 410.367,128.203 C409.591,129.665 407.718,131.254 406.627,132.663 C403.673,136.478 400.933,140.519 397.363,143.806 C393.794,147.093 389.609,149.197 385.454,151.601 C383.748,152.589 380.967,153.848 380.372,155.92 C379.622,158.529 382.535,161.505 383.399,163.901 C383.922,165.35 384.491,166.83 384.893,168.318 C385.275,169.73 385.243,167.71 385.06,168.814 C384.656,171.25 383.046,173.94 382.164,176.24 C370.524,206.567 364.475,238.681 359.166,270.617 C359.038,271.387 359.662,271.845 360.244,272.154 C365.553,274.964 371.726,276.437 377.51,277.895 C390.722,281.226 404.288,283.08 417.884,283.836 C431.286,284.582 444.674,284.515 457.941,282.396 C469.523,280.546 481.016,278.135 492.467,275.61 C500.091,273.929 507.705,272.19 515.291,270.341 C516.404,270.07 517.401,269.149 517.236,267.944 C513.406,239.799 508.255,211.717 500.2,184.451 C499.156,180.917 498.112,177.358 496.878,173.884 C496.361,172.428 495.643,171.003 495.277,169.501 C494.657,166.954 495.479,165.207 496.452,162.842 C497.644,159.944 502.851,152.421 501.144,149.211 C500.284,147.593 497.446,146.771 495.869,146.203 C492.587,145.023 489.671,144.156 486.59,142.33 C481.168,139.116 478.18,134.251 474.712,129.17 C473.411,127.263 468.833,129.192 470.305,131.348 C470.335,131.393 470.365,131.437 470.396,131.482 C471.693,133.383 476.24,131.495 474.804,129.303 C473.826,127.811 472.848,126.319 471.87,124.827 C470.607,122.899 466.029,124.817 467.463,127.006 C468.44,128.498 469.418,129.99 470.396,131.482 C471.865,130.756 473.334,130.03 474.804,129.303 C474.773,129.259 474.743,129.214 474.712,129.17 C473.411,127.263 468.833,129.192 470.305,131.348 C473.124,135.48 475.701,139.867 479.657,143.041 C481.878,144.823 484.506,146.241 487.077,147.455 C488.759,148.249 495.084,149.265 495.978,150.822 C496.887,152.406 494.631,155.794 493.883,157.478 C492.699,160.143 491.067,163.012 490.334,165.836 C489.58,168.745 490.564,171.057 491.537,173.796 C492.836,177.448 493.997,181.145 495.106,184.86 C503.327,212.396 508.535,240.792 512.407,269.238 C513.055,268.438 513.704,267.639 514.353,266.84 C497.532,270.94 480.596,274.746 463.55,277.786 C437.346,282.458 409.931,281.184 383.982,275.374 C376.995,273.81 369.384,272.145 362.995,268.763 C363.354,269.275 363.714,269.787 364.073,270.3 C368.81,241.799 374.486,213.669 383.423,186.17 C384.856,181.761 386.581,177.444 388.265,173.126 C389.893,168.955 390.106,168.076 388.621,163.747 C387.753,161.218 384.901,157.319 386.62,155.248 C388.369,153.14 392.795,151.901 395.102,150.405 C402.441,145.647 406.896,138.737 412.361,132.124 C414.791,129.184 416.759,125.624 416.831,121.572 C416.868,119.492 415.67,116.907 415.255,114.851 C414.58,111.504 414.109,108.116 413.754,104.721 C412.184,89.717 411.81,73.485 414.383,58.569 C416.584,45.81 421.456,30.594 432.312,22.478 C442.45,14.898 453.359,20.543 460.012,29.73 C469.747,43.173 472.592,61.082 472.532,77.296 C472.473,93.217 472.63,110.355 467.345,125.592 C466.41,128.287 471.241,128.398 471.989,126.242" id="Fill-74" fill="#6A79A8"></path>
                <path d="M430.461,203.231 L429.684,246.232 C429.648,248.193 431.209,249.811 433.17,249.847 L454.68,250.235 C456.64,250.271 458.258,248.71 458.294,246.749 L459.071,203.748 C459.106,201.787 457.545,200.169 455.585,200.134 L434.075,199.745 C432.114,199.71 430.496,201.271 430.461,203.231" id="Fill-75" fill="#FFFFFF"></path>
                <path d="M428.024,203.453 C427.814,215.098 427.603,226.743 427.393,238.388 C427.335,241.624 426.086,247.96 429.035,250.298 C430.702,251.621 432.796,251.489 434.794,251.525 C438.357,251.59 441.919,251.654 445.482,251.719 C449.73,251.795 457.073,253.288 459.861,249.039 C461.909,245.917 460.851,239.834 460.913,236.391 C461.048,228.958 461.182,221.525 461.316,214.092 C461.381,210.496 462.443,205.49 461.325,201.976 C459.564,196.444 448.4,198.355 444.236,198.28 C438.977,198.184 429.323,196.229 428.024,203.453 C427.621,205.693 432.537,205.009 432.897,203.01 C433.346,200.51 435.264,201.416 437.534,201.457 C440.642,201.513 443.751,201.569 446.859,201.625 C450.286,201.687 455.909,200.379 456.621,204.694 C457.266,208.6 456.466,213.281 456.395,217.228 C456.285,223.328 456.174,229.427 456.064,235.527 C455.999,239.162 456.402,243.176 455.861,246.778 C455.503,249.159 455.109,248.594 453.055,248.557 C450.138,248.504 447.221,248.451 444.305,248.399 C441.228,248.343 433.181,249.859 432.122,245.891 C431.328,242.916 432.256,238.499 432.311,235.446 C432.506,224.634 432.702,213.822 432.897,203.01 C432.94,200.646 428.06,201.463 428.024,203.453" id="Fill-76" fill="#6A79A8"></path>
                <path d="M442.981,207.639 L446.416,207.701 C447.099,207.713 447.643,208.277 447.63,208.961 L447.579,211.834 C447.566,212.517 447.002,213.061 446.319,213.049 L442.884,212.987 C442.201,212.974 441.657,212.41 441.669,211.727 L441.721,208.854 C441.734,208.17 442.297,207.627 442.981,207.639" id="Fill-77" fill="#FFFFFF"></path>
                <path d="M442.782,209.464 C443.354,209.474 443.927,209.484 444.499,209.495 C444.892,209.502 445.284,209.509 445.677,209.516 C446.851,209.537 445.209,209.237 445.166,209.261 C445.128,209.284 445.189,209.157 445.179,209.185 C445.152,209.255 445.177,209.379 445.174,209.457 C445.157,209.864 445.159,210.272 445.152,210.679 C445.146,210.989 445.08,211.368 445.134,211.674 C445.146,211.741 445.141,211.903 445.128,211.979 C445.121,212.024 445.57,211.55 445.065,212.036 C445.381,211.794 445.697,211.552 446.013,211.31 C446.48,211.025 446.668,211.251 446.066,211.216 C445.724,211.196 445.377,211.203 445.034,211.197 C444.593,211.189 444.152,211.181 443.71,211.173 C443.385,211.167 442.602,211.033 443.619,211.294 C443.725,211.321 444.305,211.314 444.12,211.536 C444.143,211.508 444.125,211.247 444.126,211.23 C444.141,210.862 444.139,210.491 444.146,210.122 C444.152,209.777 444.226,209.355 444.166,209.014 C444.154,208.944 444.16,208.787 444.171,208.709 C444.178,208.665 443.731,209.137 444.234,208.651 C443.919,208.893 443.603,209.135 443.287,209.378 C443.119,209.406 442.95,209.435 442.782,209.464 C443.86,209.359 445.31,208.706 445.431,207.471 C445.55,206.269 444.17,205.718 443.18,205.814 C441.373,205.989 439.479,207.054 439.271,209.022 C439.195,209.74 439.244,210.494 439.231,211.217 C439.211,212.334 439.296,213.379 440.262,214.125 C441.205,214.852 442.384,214.806 443.507,214.827 C445.832,214.869 448.837,215.116 449.858,212.423 C450.163,211.617 450.048,210.627 450.063,209.783 C450.081,208.788 450.153,207.836 449.485,207.005 C448.173,205.37 445.07,205.848 443.18,205.814 C442.109,205.795 440.643,206.657 440.53,207.807 C440.403,209.095 441.801,209.446 442.782,209.464" id="Fill-78" fill="#6A79A8"></path>
                <path d="M381.486,160.268 C372.432,165.538 363.369,170.509 356.429,178.574 C349.125,187.062 349.138,197.442 353.585,207.342 C358.28,217.796 366.276,226.647 374.33,234.632 C378.955,239.218 383.798,243.577 388.68,247.885 C391.125,250.042 393.582,252.185 396.028,254.34 C398.96,256.923 403.308,259.557 400.472,263.802 C400.149,264.287 404.443,264.134 405.235,262.948 C408.64,257.851 402.757,254.611 399.244,251.525 C394.793,247.613 390.319,243.727 385.954,239.718 C376.8,231.308 367.65,222.307 361.28,211.534 C355.868,202.381 352.381,190.885 358.556,181.19 C364.732,171.492 375.571,165.994 385.181,160.399 C387.196,159.226 382.383,159.745 381.486,160.268" id="Fill-79" fill="#6A79A8"></path>
                <path d="M527.298,303.167 C526.76,291.537 524.299,279.524 516.866,270.229 C516.264,269.477 515.634,268.746 514.978,268.04 C497.195,248.901 468.131,263.916 451.323,275.814 C447.489,278.528 426.876,278.528 423.042,275.814 C406.234,263.916 377.17,248.901 359.387,268.04 C358.731,268.746 358.101,269.477 357.499,270.229 C350.066,279.524 347.606,291.537 347.068,303.167 C346.441,316.713 348.42,330.707 350.631,344.046 C351.633,350.09 352.826,356.102 354.208,362.071 C355.431,367.354 356.177,372.516 357.274,377.786 C358.878,385.491 360.482,393.195 362.086,400.9 C362.637,403.547 362.558,407.732 364.926,409.348 C367.66,411.216 370.428,409.887 372.412,407.634 C376.629,402.845 377.423,396.027 378.594,389.92 C379.802,383.624 387.482,296.226 390.095,296.241 C390.097,296.241 414.577,287.241 437.835,287.241 C460.658,287.241 484.268,295.241 484.27,295.241 C486.883,295.226 494.564,383.624 495.771,389.92 C496.942,396.027 497.737,402.845 501.953,407.634 C503.937,409.887 506.705,411.216 509.439,409.348 C511.807,407.732 511.728,403.547 512.279,400.9 C513.883,393.195 515.487,385.491 517.091,377.786 C518.188,372.516 518.934,367.354 520.157,362.071 C521.539,356.102 522.732,350.09 523.734,344.046 C525.945,330.707 527.924,316.713 527.298,303.167" id="Fill-80" fill="#E5E5E5"></path>
                <path d="M424.935,274.537 C405.355,260.801 374.109,246.679 355.522,269.682 C345.156,282.51 343.911,300.086 344.721,315.91 C345.702,335.058 350.251,353.548 353.69,372.32 C355.482,382.1 357.942,391.76 359.671,401.547 C360.578,406.679 361.349,412.409 368.021,411.678 C378.305,410.551 380.231,395.636 381.318,387.677 C383.583,371.087 385.031,354.363 386.917,337.727 C388.154,326.822 389.409,315.916 390.876,305.038 C391.4,301.155 391.932,297.268 392.61,293.408 C392.825,292.189 393.302,290.842 393.359,289.612 C393.455,287.55 394.883,288.445 392.165,289.103 C395.126,288.386 394.359,285.544 391.404,286.26 C388.178,287.041 388.105,291.826 387.661,294.424 C386.468,301.397 385.609,308.433 384.739,315.453 C382.466,333.78 380.502,352.144 378.481,370.5 C377.845,376.275 377.262,382.063 376.503,387.823 C376.113,390.785 375.566,393.733 374.922,396.649 C374.231,399.777 373.231,405.031 370.435,407.086 C364.906,411.152 364.858,402.118 364.3,399.29 C360.918,382.153 356.963,365.109 353.834,347.925 C350.732,330.883 347.933,313.084 350.099,295.763 C352.205,278.92 361.486,260.121 380.887,260.462 C395.501,260.718 409.514,268.927 421.149,277.09 C422.649,278.142 427.022,276.002 424.935,274.537" id="Fill-81" fill="#6A79A8"></path>
                <path d="M480.885,288.901 C479.669,288.607 480.488,288.07 480.523,289.314 C480.55,290.275 481.015,291.419 481.2,292.369 C481.793,295.417 482.241,298.496 482.686,301.569 C484.02,310.772 485.137,320.008 486.236,329.242 C488.427,347.644 490.352,366.078 492.552,384.479 C493.475,392.194 494.084,401.22 498.832,407.57 C501.97,411.767 507.943,413.995 512.04,409.573 C513.705,407.776 514.016,405.255 514.386,402.938 C515.124,398.319 516.181,393.751 517.135,389.171 C521.089,370.177 525.391,351.138 528.02,331.907 C530.331,315.003 531.874,296.108 525.264,279.916 C519.312,265.337 506.841,256.018 490.844,257.197 C475.83,258.304 461.791,266.197 449.711,274.672 C447.036,276.549 450.947,278.35 452.936,276.955 C463.449,269.579 475.528,262.621 488.483,261.007 C504.272,259.04 516.168,268.944 521.286,283.436 C526.857,299.213 525.265,316.935 522.994,333.18 C520.621,350.151 516.929,366.966 513.438,383.736 C512.57,387.91 511.701,392.083 510.832,396.256 C510.425,398.21 509.975,400.16 509.646,402.129 C509.555,402.676 509.581,403.358 509.4,403.882 C509.321,404.486 509.218,405.086 509.091,405.683 C507.448,405.974 505.804,406.266 504.161,406.558 C501.62,405.467 500.387,399.694 499.763,397.196 C499.089,394.495 498.575,391.714 498.132,388.964 C497.419,384.538 497.01,380.05 496.503,375.597 C494.487,357.889 492.558,340.171 490.409,322.479 C489.357,313.82 488.3,305.154 486.956,296.535 C486.644,294.529 486.462,286.258 483.655,285.581 C481.523,285.066 477.952,288.192 480.885,288.901" id="Fill-82" fill="#6A79A8"></path>
                <path d="M407.228,292.646 C416.666,291.06 426.507,288.973 436.101,288.932 C445.821,288.89 455.798,291.013 465.361,292.603 C466.98,292.872 471.049,290.337 468.291,289.878 C458.369,288.229 448.031,286.08 437.947,286.069 C427.93,286.059 417.701,288.18 407.851,289.835 C405.502,290.23 403.903,293.205 407.228,292.646" id="Fill-83" fill="#6A79A8"></path>
                <path d="M430.298,110.258 C437.325,119.979 453.395,115.497 456.378,104.498 C457.129,101.731 452.331,101.623 451.731,103.836 C449.669,111.439 439.802,115.125 434.704,108.073 C433.341,106.187 428.768,108.141 430.298,110.258" id="Fill-84" fill="#6A79A8"></path>
                <path d="M370.925,266.589 L370.925,188.516 C370.925,187.103 372.081,185.946 373.495,185.946 L502.063,185.946 C503.477,185.946 504.633,187.103 504.633,188.516 L504.633,266.589 L370.925,266.589" id="Fill-85" fill="#BBDFF5"></path>
                <path d="M363.578,273.996 L496.891,273.996 C501.167,273.996 504.633,270.53 504.633,266.254 C504.633,266.017 504.458,265.825 504.242,265.825 L357.29,265.825 C357.074,265.825 356.899,266.017 356.899,266.254 L356.899,266.682 C356.899,270.721 359.889,273.996 363.578,273.996" id="Fill-86" fill="#BBDFF5"></path>
                <path d="M435.034,219.214 L440.524,219.214 C444,219.214 446.817,222.032 446.817,225.507 L446.817,229.534 C446.817,233.01 444,235.827 440.524,235.827 L435.034,235.827 C431.558,235.827 428.741,233.01 428.741,229.534 L428.741,225.507 C428.741,222.032 431.558,219.214 435.034,219.214" id="Fill-87" fill="#F9F9F9"></path>
                <path d="M373.34,264.602 L373.34,215.424 L373.34,190.503 C373.34,189.963 373.242,186.616 372.749,187.088 C373.248,186.61 376.689,187.088 377.331,187.088 L490.785,187.088 C493.489,187.088 496.447,186.749 499.132,187.088 C499.608,187.148 500.416,186.889 500.854,187.088 C503.489,188.285 502.218,196.683 502.218,199.056 L502.218,235.978 L502.218,255.313 C502.218,260.688 504.465,271.982 496.613,273.113 C494.505,273.416 492.434,275.764 495.817,275.277 C498.854,274.84 501.884,273.897 504.158,271.718 C507.192,268.812 507.136,265.156 507.07,261.247 C506.87,249.186 507.048,237.108 507.048,225.046 C507.048,213.127 508.092,200.685 507.048,188.82 C506.746,185.383 504.76,184.874 501.859,184.805 C484.338,184.384 466.755,184.805 449.23,184.805 L383.926,184.805 C380.201,184.805 374.215,183.794 370.763,185.804 C368.285,187.247 368.51,189.38 368.51,191.797 L368.51,203.425 L368.51,265.896 C368.51,266.979 373.34,266.202 373.34,264.602" id="Fill-88" fill="#6A79A8"></path>
                <path d="M366.032,264.165 C362.746,264.165 355.205,262.563 354.472,267.113 C353.555,272.801 360.176,275.559 364.545,275.656 C372.069,275.824 379.615,275.656 387.14,275.656 L468.493,275.656 L490.1,275.656 C492.777,275.656 493.876,272.335 490.586,272.335 L372.373,272.335 C369.93,272.335 367.254,272.643 364.824,272.335 C364.194,272.255 364.51,272.343 363.433,271.997 C361.709,271.442 360.456,270.317 359.772,268.585 C359.485,267.833 359.34,267.057 359.337,266.254 C358.634,266.665 357.93,267.075 357.226,267.486 C357.436,268.004 364.576,267.486 365.546,267.486 C368.223,267.486 369.322,264.165 366.032,264.165" id="Fill-89" fill="#6A79A8"></path>
                <path d="M498.045,264.693 L393.423,264.693 L378.312,264.693 C376.799,264.693 373.092,266.958 376.307,266.958 L480.929,266.958 L496.039,266.958 C497.553,266.958 501.259,264.693 498.045,264.693" id="Fill-90" fill="#6A79A8"></path>
                <path d="M496.886,157.652 C507.556,162.297 516.949,173.023 518.954,184.667 C520.703,194.818 516.356,204.616 510.534,212.696 C504.4,221.209 496.408,228.384 488.161,234.798 C485.989,236.488 483.776,238.126 481.535,239.726 C479.111,241.456 477.623,240.84 474.907,241.011 C471.364,241.235 468.434,242.652 466.841,245.911 C466.482,246.646 470.996,246.32 471.607,245.07 C472.841,242.545 474.726,244.023 477.193,243.711 C478.904,243.494 480.563,242.869 482.063,242.039 C486.147,239.78 489.92,236.531 493.572,233.642 C501.964,227.003 509.974,219.574 516.091,210.737 C521.71,202.618 525.633,192.734 523.675,182.742 C521.432,171.296 511.964,160.581 501.434,155.997 C500.131,155.43 496.349,157.418 496.886,157.652" id="Fill-91" fill="#6A79A8"></path>
            </g>
        </g>
    </g>
</svg>