<svg width="24" height="24" viewBox="0 0 24 24" fill="none" xmlns="http://www.w3.org/2000/svg">
<path fill-rule="evenodd" clip-rule="evenodd" d="M5.54452 4.25C3.72501 4.25 2.25 5.72501 2.25 7.54452V16.4555C2.25 18.275 3.72501 19.75 5.54452 19.75H18.4555C20.275 19.75 21.75 18.275 21.75 16.4555V13.5V10.5V7.54452C21.75 5.72501 20.275 4.25 18.4555 4.25H5.54452ZM20.25 8.37803V7.54452C20.25 6.55343 19.4466 5.75 18.4555 5.75H5.54452C4.55343 5.75 3.75 6.55343 3.75 7.54452V16.4555C3.75 17.4466 4.55343 18.25 5.54452 18.25H18.4555C19.4466 18.25 20.25 17.4466 20.25 16.4555V15.622C20.0154 15.7049 19.763 15.75 19.5 15.75H18.5C17.2574 15.75 16.25 14.7426 16.25 13.5V12.75H9.81066L11.0303 13.9697C11.3232 14.2626 11.3232 14.7374 11.0303 15.0303C10.7374 15.3232 10.2626 15.3232 9.96967 15.0303L7.46967 12.5303C7.17678 12.2374 7.17678 11.7626 7.46967 11.4697L9.96967 8.96967C10.2626 8.67678 10.7374 8.67678 11.0303 8.96967C11.3232 9.26256 11.3232 9.73744 11.0303 10.0303L9.81066 11.25H16.25V10.5C16.25 9.25736 17.2574 8.25 18.5 8.25H19.5C19.763 8.25 20.0154 8.29512 20.25 8.37803ZM20.25 13.5V10.5C20.25 10.0858 19.9142 9.75 19.5 9.75H18.5C18.0858 9.75 17.75 10.0858 17.75 10.5V12V13.5C17.75 13.9142 18.0858 14.25 18.5 14.25H19.5C19.9142 14.25 20.25 13.9142 20.25 13.5Z" fill="#12131B"/>
</svg>
