<svg width="24" height="24" viewBox="0 0 24 24" fill="none" xmlns="http://www.w3.org/2000/svg">
<path fill-rule="evenodd" clip-rule="evenodd" d="M5.54452 4.24805C3.72501 4.24805 2.25 5.72305 2.25 7.54257V16.4535C2.25 18.273 3.72501 19.748 5.54452 19.748H18.4555C20.275 19.748 21.75 18.273 21.75 16.4535V13.498V10.498V7.54257C21.75 5.72305 20.275 4.24805 18.4555 4.24805H5.54452ZM20.25 8.37608V7.54257C20.25 6.55148 19.4466 5.74805 18.4555 5.74805H5.54452C4.55343 5.74805 3.75 6.55148 3.75 7.54257V16.4535C3.75 17.4446 4.55343 18.248 5.54452 18.248H18.4555C19.4466 18.248 20.25 17.4446 20.25 16.4535V15.62C20.0154 15.7029 19.763 15.748 19.5 15.748H18.5C17.2574 15.748 16.25 14.7407 16.25 13.498V12.748H9.81066L11.0303 13.9677C11.3232 14.2606 11.3232 14.7355 11.0303 15.0284C10.7374 15.3213 10.2626 15.3213 9.96967 15.0284L7.46967 12.5284C7.17678 12.2355 7.17678 11.7606 7.46967 11.4677L9.96967 8.96772C10.2626 8.67482 10.7374 8.67482 11.0303 8.96772C11.3232 9.26061 11.3232 9.73548 11.0303 10.0284L9.81066 11.248H16.25V10.498C16.25 9.25541 17.2574 8.24805 18.5 8.24805H19.5C19.763 8.24805 20.0154 8.29316 20.25 8.37608ZM20.25 13.498V10.498C20.25 10.0838 19.9142 9.74805 19.5 9.74805H18.5C18.0858 9.74805 17.75 10.0838 17.75 10.498V11.998V13.498C17.75 13.9123 18.0858 14.248 18.5 14.248H19.5C19.9142 14.248 20.25 13.9123 20.25 13.498Z" fill="#74757A"/>
</svg>
