<svg width="52" height="52" viewBox="0 0 52 52" fill="none" xmlns="http://www.w3.org/2000/svg">
<path d="M37.6715 37.217C38.7679 39.0409 39.6621 39.6472 41.4912 39.8645V41.6884H32.4675L24.0146 27.582H21.9027V36.828C21.9027 39.3037 22.5141 39.6472 25.1161 39.8645V41.6884H11.4946V39.8645C14.0966 39.6472 14.708 39.2986 14.708 36.828V16.1684C14.708 13.6523 14.1775 13.3491 11.4946 13.1319V11.308H25.5153C33.968 11.308 38.3839 13.0864 38.3839 19.3363C38.3839 24.0655 36.085 26.3239 31.4519 27.102L37.6715 37.217ZM23.1204 14.2637C22.3878 14.2637 21.9027 14.7841 21.9027 15.5671V24.6364H25.3991C29.0166 24.6364 31.1689 23.3328 31.1689 19.3414C31.1689 15.3045 29.0166 14.2637 25.5203 14.2637H23.1204Z" fill="#347AE2"/>
<path d="M32.5991 12.3945H19.4525V24.9448H32.5991V12.3945Z" fill="#347AE2"/>
<path d="M30.9473 14.5619C30.2298 15.8805 31.3362 22.0952 31.3362 22.0952C31.3514 22.4235 31.1292 22.7115 30.8058 22.7822C30.8058 22.7822 24.0304 22.8125 21.7921 24.6719" fill="#F4F9F9"/>
</svg>
