<svg width="81" height="63" viewBox="0 0 81 63" fill="none" xmlns="http://www.w3.org/2000/svg">
<path d="M80.7328 34.9275L74.3555 9.37496C73.5244 6.0422 71.3194 3.18053 68.3086 1.5268C65.2936 -0.1227 61.7034 -0.457382 58.4381 0.636662L56.2936 1.35103C55.1137 1.74336 54.4767 3.01881 54.8705 4.19723L55.582 6.33188C55.9744 7.5103 57.2484 8.14732 58.4269 7.75498L60.2803 7.13765C61.8089 6.62859 63.5147 6.63563 64.9434 7.38093C66.3905 8.13607 67.4142 9.42839 67.808 11.0118L73.2164 32.6424C70.0959 31.6847 66.2147 30.8902 61.7977 30.8902C56.9081 30.8902 51.3942 31.8774 45.6469 34.6505H35.3559C29.6086 31.8746 24.0947 30.8888 19.2037 30.8888C14.7853 30.8888 10.9041 31.6833 7.78359 32.641L13.192 11.009C13.5844 9.42698 14.6109 8.13326 16.058 7.37952C17.4867 6.63422 19.1911 6.62719 20.7197 7.13624L22.5717 7.75357C23.7502 8.14591 25.0242 7.50889 25.4166 6.33047L26.1281 4.19582C26.5219 3.0174 25.8848 1.74196 24.705 1.34962L22.5605 0.635256C19.2952 -0.458789 15.705 -0.125513 12.69 1.5254C9.67922 3.18053 7.47422 6.04079 6.64313 9.37214L0.267187 34.9275C0.0899014 35.64 0.000176524 36.3715 0 37.1057L0 46.9845C0 55.8296 7.25344 63 16.2 63H21.42C29.8969 63 36.9408 56.5398 37.575 48.1826L37.987 42.7503H43.0144L43.4264 48.1826C44.0592 56.5398 51.1031 63 59.58 63H64.8C73.7466 63 81 55.8296 81 46.9859V37.1071C81 36.3717 80.91 35.6405 80.7328 34.9275ZM28.6003 47.502C28.3233 51.1455 25.1691 54.0001 21.42 54.0001H16.2C12.2302 54.0001 9 50.853 9 46.9845V41.7055C11.5481 40.7929 15.1059 39.8887 19.2066 39.8887C22.5619 39.8887 25.8525 40.4976 29.0405 41.7055L28.6003 47.502V47.502ZM72 46.9859C72 50.8544 68.7698 54.0001 64.8 54.0001H59.58C55.8295 54.0001 52.6753 51.1455 52.3997 47.502L51.9595 41.7055C55.1475 40.4976 58.4395 39.8887 61.7963 39.8887C65.8913 39.8887 69.4505 40.7943 71.9986 41.7069V46.9859H72Z" fill="#3A2F45"/>
</svg>
