<svg width="24" height="24" viewBox="0 0 24 24" fill="none" xmlns="http://www.w3.org/2000/svg">
<path fill-rule="evenodd" clip-rule="evenodd" d="M2.25 7C2.25 4.37665 4.37665 2.25 7 2.25H17C19.6234 2.25 21.75 4.37665 21.75 7V17C21.75 19.6234 19.6234 21.75 17 21.75H7C4.37665 21.75 2.25 19.6234 2.25 17V7ZM7 3.75C5.20507 3.75 3.75 5.20507 3.75 7V17C3.75 18.7949 5.20507 20.25 7 20.25H17C18.7949 20.25 20.25 18.7949 20.25 17V7C20.25 5.20507 18.7949 3.75 17 3.75H7Z" fill="#FAFAFA"/>
<path d="M5.68035 10.682C5.37796 10.383 5.37521 9.89548 5.67423 9.59308L10.0056 5.21275C10.3046 4.91035 10.7921 4.90761 11.0945 5.20662C11.3969 5.50564 11.3997 5.99318 11.1006 6.29558L6.76931 10.6759C6.4703 10.9783 5.98275 10.9811 5.68035 10.682Z" fill="#FAFAFA"/>
<path d="M12.6022 18.6189C12.2696 18.29 12.2666 17.7538 12.5954 17.4213L17.3589 12.6039C17.6877 12.2714 18.2239 12.2684 18.5564 12.5972C18.889 12.9261 18.892 13.4622 18.5632 13.7948L13.7998 18.6121C13.4709 18.9447 12.9347 18.9477 12.6022 18.6189Z" fill="#FAFAFA"/>
<path d="M6.46827 17.8249C6.14062 17.5009 6.13764 16.9727 6.46163 16.645L16.7169 6.33668C17.0409 6.00902 17.5691 6.00605 17.8968 6.33004C18.2244 6.65403 18.2274 7.18229 17.9034 7.50994L7.64817 17.8183C7.32418 18.1459 6.79592 18.1489 6.46827 17.8249Z" fill="#FAFAFA"/>
</svg>
