<?xml version="1.0" encoding="utf-8"?>
<!-- Generator: Adobe Illustrator 22.1.0, SVG Export Plug-In . SVG Version: 6.00 Build 0)  -->
<svg version="1.1" id="Layer_1" xmlns="http://www.w3.org/2000/svg" xmlns:xlink="http://www.w3.org/1999/xlink" x="0px" y="0px"
	 viewBox="0 0 20 20" style="enable-background:new 0 0 20 20;" xml:space="preserve">
<style type="text/css">
	.st0{fill:#3EB995;}
</style>
<title>Untitled</title>
<desc>Created with Sketch.</desc>
<g id="Page-1">
	<g id="ad4ccc76a482d6963cf3da7677453378">
		<ellipse id="Oval" class="st0" cx="7" cy="11.6" rx="1.3" ry="1.6"/>
		<path id="Shape" class="st0" d="M20,10.3c0-2-1.3-3.6-2.9-3.6c-0.6,0-1.1,0.2-1.5,0.5c-1.4-1-3.1-1.6-5-1.6l1.1-3.8l2.3,0.7
			c0,0.1,0,0.2,0,0.3c0,1.5,1,2.7,2.3,2.7c1.3,0,2.3-1.2,2.3-2.7S17.4,0,16.1,0c-0.8,0-1.5,0.5-1.9,1.3l-3.3-0.9L9.4,5.6
			c-1.9,0.1-3.6,0.7-5,1.7c0,0,0.1,0,0.1-0.1c-0.5-0.4-1-0.6-1.6-0.6C1.3,6.7,0,8.3,0,10.3c0,1.3,0.6,2.5,1.5,3.1
			c0.4,3.7,4.1,6.6,8.6,6.6c4.5,0,8.3-3,8.6-6.7C19.5,12.6,20,11.5,20,10.3z M16.1,1.2c0.7,0,1.3,0.7,1.3,1.5c0,0.8-0.6,1.5-1.3,1.5
			c-0.7,0-1.3-0.7-1.3-1.5C14.9,1.9,15.4,1.2,16.1,1.2z M2.9,7.9c0.2,0,0.4,0.1,0.7,0.2c-1.1,1.1-1.8,2.4-2.1,3.8
			c-0.3-0.4-0.5-1-0.5-1.6C1,8.9,1.9,7.9,2.9,7.9z M10.1,18.8c-4.2,0-7.6-2.7-7.6-6s3.4-6,7.6-6s7.6,2.7,7.6,6
			C17.7,16.1,14.3,18.8,10.1,18.8z M18.6,11.7c-0.2-1.4-1-2.7-2.1-3.7c0.2-0.1,0.4-0.1,0.6-0.1c1.1,0,1.9,1.1,1.9,2.4
			C19,10.8,18.8,11.3,18.6,11.7z"/>
		<ellipse id="Oval_1_" class="st0" cx="12.8" cy="11.6" rx="1.3" ry="1.6"/>
		<path id="Shape_1_" class="st0" d="M12.6,15.1c-2.9,2.2-5.2,0.1-5.3,0C7.1,15,6.8,15,6.6,15.3c-0.2,0.3-0.1,0.6,0.1,0.8
			c0,0,1.3,1.3,3.2,1.3c1,0,2-0.3,3.2-1.2c0.2-0.2,0.3-0.6,0.1-0.8C13.1,15,12.8,14.9,12.6,15.1z"/>
	</g>
</g>
</svg>
