<svg width="14" height="14" viewBox="0 0 14 14" fill="none" xmlns="http://www.w3.org/2000/svg">
<path d="M0.583252 2.33332V5.83332M0.583252 5.83332H4.08325M0.583252 5.83332L3.28992 3.28999C4.09545 2.48582 5.14052 1.96522 6.26765 1.80664C7.39478 1.64806 8.54292 1.86009 9.53907 2.41077C10.5352 2.96145 11.3254 3.82097 11.7906 4.8598C12.2558 5.89863 12.3708 7.06051 12.1182 8.17037C11.8657 9.28023 11.2592 10.2779 10.3903 11.0132C9.52142 11.7484 8.43711 12.1814 7.30075 12.2468C6.1644 12.3122 5.03757 12.0065 4.09005 11.3758C3.14253 10.7451 2.42565 9.82354 2.04742 8.74999" stroke="#347AE2" stroke-width="2" stroke-linecap="round" stroke-linejoin="round"/>
</svg>
