<svg fill="#3EB995" xmlns="http://www.w3.org/2000/svg" xmlns:xlink="http://www.w3.org/1999/xlink" version="1.1" x="0px" y="0px" viewBox="0 0 100 100" style="enable-background:new 0 0 100 100;" xml:space="preserve"><g><path d="M34,29.1c4.6-3.5,10.1-5.4,15.9-5.4c14.5,0,26.3,11.8,26.3,26.3c0,0.6,0,1.2-0.1,1.7l-1.3-1.3c-1.5-1.6-4.1-1.6-5.7-0.1   c-1.6,1.5-1.6,4.1-0.1,5.7l10.5,10.7l11.6-10.5c1.6-1.5,1.8-4,0.3-5.7c-1.5-1.6-4-1.8-5.7-0.3l-1.6,1.5c0-0.6,0-1.1,0-1.7   c0-18.9-15.4-34.3-34.3-34.3c-7.6,0-14.7,2.4-20.8,7c-1.8,1.3-2.1,3.8-0.8,5.6C29.7,30.1,32.3,30.4,34,29.1z"></path><path d="M11.5,50.5c1,0,1.9-0.3,2.7-1l1.5-1.4c0,0.6-0.1,1.3-0.1,1.9c0,18.9,15.4,34.3,34.3,34.3c7.8,0,15.1-2.5,21.2-7.3   c1.7-1.4,2-3.9,0.7-5.6c-1.4-1.7-3.9-2-5.6-0.7c-4.7,3.7-10.3,5.6-16.2,5.6c-14.5,0-26.3-11.8-26.3-26.3c0-0.7,0-1.4,0.1-2.1   l1.4,1.4c1.5,1.6,4.1,1.6,5.7,0.1c1.6-1.5,1.6-4.1,0.1-5.7L20.4,33L8.8,43.5c-1.6,1.5-1.8,4-0.3,5.7C9.3,50.1,10.4,50.5,11.5,50.5z   "></path></g></svg>