<svg width="18" height="18" viewBox="0 0 18 18" fill="none" xmlns="http://www.w3.org/2000/svg">
<path fill-rule="evenodd" clip-rule="evenodd" d="M6.24004 3.37406C7.76868 1.87829 10.2405 1.87829 11.7691 3.37406L15.1291 6.6618C15.4252 6.9515 15.4303 7.42634 15.1406 7.7224C14.8509 8.01846 14.3761 8.02362 14.08 7.73393L10.72 4.44618C9.77444 3.52092 8.23471 3.52092 7.28911 4.44618L5.24344 6.44787H6.6281C7.04231 6.44787 7.3781 6.78365 7.3781 7.19787C7.3781 7.61208 7.04231 7.94787 6.6281 7.94787H3.40458C2.99036 7.94787 2.65458 7.61208 2.65458 7.19787V3.91012C2.65458 3.4959 2.99036 3.16012 3.40458 3.16012C3.81879 3.16012 4.15458 3.4959 4.15458 3.91012V5.41467L6.24004 3.37406ZM2.86851 10.2821C3.15821 9.986 3.63305 9.98084 3.92911 10.2705L7.28911 13.5583C8.23471 14.4835 9.77444 14.4835 10.72 13.5583L12.7657 11.5566H11.3799C10.9656 11.5566 10.6299 11.2208 10.6299 10.8066C10.6299 10.3924 10.9656 10.0566 11.3799 10.0566H14.6046C15.0188 10.0566 15.3546 10.3924 15.3546 10.8066V14.0389C15.3546 14.4531 15.0188 14.7889 14.6046 14.7889C14.1904 14.7889 13.8546 14.4531 13.8546 14.0389V12.5898L11.7691 14.6304C10.2405 16.1262 7.76868 16.1262 6.24004 14.6304L2.88004 11.3427C2.58398 11.053 2.57882 10.5781 2.86851 10.2821Z" fill="#12131B"/>
</svg>
