<svg width="24" height="24" viewBox="0 0 24 24" fill="none" xmlns="http://www.w3.org/2000/svg">
<path fill-rule="evenodd" clip-rule="evenodd" d="M9.23976 6.37182C10.7684 4.87606 13.2402 4.87606 14.7688 6.37182L18.1288 9.65957C18.4249 9.94926 18.4301 10.4241 18.1404 10.7202C17.8507 11.0162 17.3758 11.0214 17.0798 10.7317L13.7198 7.44395C12.7742 6.51868 11.2344 6.51868 10.2888 7.44395L8.24316 9.44563H9.62782C10.042 9.44563 10.3778 9.78142 10.3778 10.1956C10.3778 10.6098 10.042 10.9456 9.62782 10.9456H6.4043C5.99008 10.9456 5.6543 10.6098 5.6543 10.1956V6.90789C5.6543 6.49367 5.99008 6.15789 6.4043 6.15789C6.81851 6.15789 7.1543 6.49367 7.1543 6.90789V8.41244L9.23976 6.37182ZM5.86823 13.2798C6.15793 12.9838 6.63277 12.9786 6.92883 13.2683L10.2888 16.5561C11.2344 17.4813 12.7742 17.4813 13.7198 16.5561L15.7654 14.5544H14.3796C13.9654 14.5544 13.6296 14.2186 13.6296 13.8044C13.6296 13.3902 13.9654 13.0544 14.3796 13.0544H17.6043C18.0185 13.0544 18.3543 13.3902 18.3543 13.8044V17.0367C18.3543 17.4509 18.0185 17.7867 17.6043 17.7867C17.1901 17.7867 16.8543 17.4509 16.8543 17.0367V15.5876L14.7688 17.6282C13.2402 19.1239 10.7684 19.1239 9.23976 17.6282L5.87976 14.3404C5.5837 14.0507 5.57854 13.5759 5.86823 13.2798Z" fill="#74757A"/>
</svg>
