<svg width="24" height="24" viewBox="0 0 24 24" fill="none" xmlns="http://www.w3.org/2000/svg">
<path fill-rule="evenodd" clip-rule="evenodd" d="M9.00845 5.54034C10.6568 3.81989 13.3432 3.81989 14.9916 5.54034L18.6666 9.37604C18.9531 9.67513 18.943 10.1499 18.6439 10.4365C18.3448 10.723 17.87 10.7129 17.5834 10.4138L13.9084 6.57806C12.8506 5.47398 11.1494 5.47398 10.0916 6.57806L7.63226 9.14491H9.40073C9.81494 9.14491 10.1507 9.48069 10.1507 9.89491C10.1507 10.3091 9.81494 10.6449 9.40073 10.6449H5.875C5.46079 10.6449 5.125 10.3091 5.125 9.89491V6.0592C5.125 5.64499 5.46079 5.3092 5.875 5.3092C6.28921 5.3092 6.625 5.64499 6.625 6.0592V8.02801L9.00845 5.54034ZM5.35614 13.5635C5.65523 13.277 6.12999 13.2871 6.41655 13.5862L10.0916 17.4219C11.1494 18.526 12.8506 18.526 13.9084 17.4219L16.3677 14.8551H14.598C14.1838 14.8551 13.848 14.5193 13.848 14.1051C13.848 13.6909 14.1838 13.3551 14.598 13.3551H18.125C18.5392 13.3551 18.875 13.6909 18.875 14.1051V17.8761C18.875 18.2904 18.5392 18.6261 18.125 18.6261C17.7108 18.6261 17.375 18.2904 17.375 17.8761V15.972L14.9916 18.4597C13.3432 20.1801 10.6568 20.1801 9.00845 18.4597L5.33345 14.624C5.04689 14.3249 5.05705 13.8501 5.35614 13.5635Z" fill="#12131B"/>
</svg>
