<svg width="73" height="73" viewBox="0 0 73 73" fill="none" xmlns="http://www.w3.org/2000/svg">
<circle cx="36.8344" cy="36.1817" r="32.6624" stroke="#3A2F45" stroke-width="6.71563"/>
<path d="M53.3689 25.2304L42.4573 36.1573L53.3689 47.0842C54.0422 47.7587 54.0422 48.8495 53.3689 49.524L50.1309 52.7676C49.4575 53.4421 48.3686 53.4421 47.6952 52.7676L36.7836 41.8406L25.872 52.7676C25.1986 53.4421 24.1098 53.4421 23.4364 52.7676L20.1984 49.524C19.525 48.8495 19.525 47.7587 20.1984 47.0842L31.11 36.1573L20.1984 25.2304C19.525 24.5558 19.525 23.4651 20.1984 22.7905L23.4364 19.547C24.1098 18.8724 25.1986 18.8724 25.872 19.547L36.7836 30.4739L47.6952 19.547C48.3686 18.8724 49.4575 18.8724 50.1309 19.547L53.3689 22.7905C54.0422 23.4651 54.0422 24.5558 53.3689 25.2304Z" fill="#3A2F45"/>
</svg>
