<svg width="512" height="512" viewBox="0 0 512 512" fill="none" xmlns="http://www.w3.org/2000/svg">
<path d="M256 0.25C114.719 0.25 0.25 114.719 0.25 256C0.25 397.281 114.719 511.75 256 511.75C397.281 511.75 511.75 397.281 511.75 256C511.75 114.719 397.281 0.25 256 0.25ZM256 462.25C142.047 462.25 49.75 369.953 49.75 256C49.75 142.047 142.047 49.75 256 49.75C369.953 49.75 462.25 142.047 462.25 256C462.25 369.953 369.953 462.25 256 462.25ZM360.981 191.856L296.837 256L360.981 320.144C365.828 324.991 365.828 332.828 360.981 337.675L337.675 360.981C332.828 365.828 324.991 365.828 320.144 360.981L256 296.837L191.856 360.981C187.009 365.828 179.172 365.828 174.325 360.981L151.019 337.675C146.172 332.828 146.172 324.991 151.019 320.144L215.162 256L151.019 191.856C146.172 187.009 146.172 179.172 151.019 174.325L174.325 151.019C179.172 146.172 187.009 146.172 191.856 151.019L256 215.162L320.144 151.019C324.991 146.172 332.828 146.172 337.675 151.019L360.981 174.325C365.828 179.172 365.828 187.009 360.981 191.856Z" fill="#3A2F45"/>
</svg>
