<svg width="591" height="589" viewBox="0 0 591 589" fill="none" xmlns="http://www.w3.org/2000/svg">
<g clip-path="url(#clip0)">
<path d="M591 294.5C591 131.812 458.74 0 295.5 0C132.26 0 0 131.812 0 294.5C0 457.188 132.26 589 295.5 589C458.74 589 591 457.188 591 294.5ZM57.1935 294.5C57.1935 163.281 163.836 57 295.5 57C427.164 57 533.806 163.281 533.806 294.5C533.806 425.719 427.164 532 295.5 532C163.836 532 57.1935 425.719 57.1935 294.5Z" fill="#3A2F45"/>
<rect x="113" y="242" width="365" height="105" rx="15" fill="#3A2F45"/>
</g>
<defs>
<clipPath id="clip0">
<rect width="591" height="589" fill="white"/>
</clipPath>
</defs>
</svg>
