<svg width="18" height="18" viewBox="0 0 18 18" fill="none" xmlns="http://www.w3.org/2000/svg">
<path fill-rule="evenodd" clip-rule="evenodd" d="M3.27748 13.3828C2.90751 13.7527 2.90751 14.3526 3.27748 14.7226C3.64745 15.0925 4.24729 15.0925 4.61726 14.7226L9.00301 10.3368L13.3891 14.7229C13.7591 15.0929 14.3589 15.0929 14.7289 14.7229C15.0989 14.3529 15.0989 13.7531 14.7289 13.3831L10.3461 9.00037L14.7289 4.61762C15.0989 4.24764 15.0989 3.6478 14.7289 3.27783C14.3589 2.90786 13.7591 2.90786 13.3891 3.27783L9.00337 7.66358L4.61726 3.27748C4.24729 2.90751 3.64745 2.90751 3.27748 3.27748C2.90751 3.64745 2.90751 4.24729 3.27748 4.61726L7.66023 9.00002L3.27748 13.3828Z" fill="#12131B"/>
</svg>
