<svg width="10" height="10" viewBox="0 0 10 10" fill="none" xmlns="http://www.w3.org/2000/svg">
<path d="M9.86759 0.13241C9.60744 -0.127738 9.34609 0.0327178 9.08594 0.292875L5 4.37882L0.914058 0.292872C0.653901 0.0327156 0.39257 -0.127751 0.132404 0.132412C-0.127744 0.39256 0.032712 0.653906 0.292869 0.914061L4.37881 5L0.292867 9.08595C0.032712 9.34609 -0.127744 9.60745 0.132404 9.86759C0.39257 10.1278 0.653899 9.96729 0.914056 9.70712L5 5.62118L9.08594 9.70712C9.34609 9.96729 9.60744 10.1277 9.86759 9.86759C10.1278 9.60742 9.96728 9.34609 9.70712 9.08595L5.62118 5L9.70713 0.914061C9.96728 0.653906 10.1278 0.392576 9.86759 0.13241Z" fill="#3A2F45"/>
</svg>
