<?xml version="1.0" encoding="UTF-8"?>
<svg width="72px" height="72px" viewBox="0 0 72 72" version="1.1" xmlns="http://www.w3.org/2000/svg" xmlns:xlink="http://www.w3.org/1999/xlink">
    <!-- Generator: Sketch 51.3 (57544) - http://www.bohemiancoding.com/sketch -->
    <title>reply_empty</title>
    <desc>Created with Sketch.</desc>
    <defs></defs>
    <g id="Page-1" stroke="none" stroke-width="1" fill="none" fill-rule="evenodd">
        <g id="reply_empty" fill="#173766" fill-rule="nonzero">
            <path d="M27.6071707,0.0194600511 C27.3180436,0.0773777551 27.0443708,0.251434033 26.8144693,0.523619099 L0.631106214,31.5526226 C0.232876978,32.0229993 -8.72081184e-15,32.7457783 0,33.5113836 C8.72081184e-15,34.2769889 0.232876978,34.9997679 0.631106214,35.4701445 L26.8144693,66.4990115 C27.3059971,67.0719404 27.9687315,67.1744637 28.5263858,66.7638407 C29.0840402,66.3532177 29.4408977,65.4999282 29.4481884,64.5596995 L29.4481884,50.9457917 C33.7858716,50.8812514 54.3816234,51.6170109 69.2857665,71.3860776 C69.840196,72.1216492 70.650257,72.2047835 71.2649514,71.5891959 C71.8796458,70.9736082 72.1475068,69.8109856 71.9194038,68.7486133 C65.0840731,36.8036464 44.238843,22.7566484 29.4481884,16.7751277 L29.4481884,2.50177934 C29.4518376,1.78598991 29.2516265,1.10264662 28.8989272,0.627087782 C28.546228,0.151528947 28.0753701,-0.069957266 27.6071707,0.0194600511 Z" id="Shape"></path>
        </g>
    </g>
</svg>