<svg width="18" height="18" viewBox="0 0 18 18" fill="none" xmlns="http://www.w3.org/2000/svg">
<path fill-rule="evenodd" clip-rule="evenodd" d="M9 1.25C4.71979 1.25 1.25 4.71979 1.25 9C1.25 13.2802 4.71979 16.75 9 16.75C13.2802 16.75 16.75 13.2802 16.75 9C16.75 4.71979 13.2802 1.25 9 1.25ZM2.75 9C2.75 5.54822 5.54822 2.75 9 2.75C12.4518 2.75 15.25 5.54822 15.25 9C15.25 12.4518 12.4518 15.25 9 15.25C5.54822 15.25 2.75 12.4518 2.75 9ZM6.91575 12.1223C8.16395 11.291 9.83573 11.291 11.0837 12.1239C11.4282 12.3538 11.8939 12.2609 12.1238 11.9164C12.3538 11.5719 12.2609 11.1062 11.9163 10.8762C10.1643 9.70691 7.83605 9.70715 6.08425 10.8739C5.7395 11.1035 5.64617 11.5691 5.87578 11.9139C6.10539 12.2586 6.571 12.3519 6.91575 12.1223ZM6 7C6 7.55228 6.44772 8 7 8C7.55228 8 8 7.55228 8 7C8 6.44772 7.55228 6 7 6C6.44772 6 6 6.44772 6 7ZM11 8C10.4477 8 10 7.55228 10 7C10 6.44772 10.4477 6 11 6C11.5523 6 12 6.44772 12 7C12 7.55228 11.5523 8 11 8Z" fill="#74757A"/>
</svg>
