<svg width="24" height="24" viewBox="0 0 24 24" fill="none" xmlns="http://www.w3.org/2000/svg">
<path fill-rule="evenodd" clip-rule="evenodd" d="M11.9987 1.91536C6.42983 1.91536 1.91536 6.42983 1.91536 11.9987C1.91536 17.5676 6.42983 22.082 11.9987 22.082C17.5676 22.082 22.082 17.5676 22.082 11.9987C22.082 6.42983 17.5676 1.91536 11.9987 1.91536ZM3.41536 11.9987C3.41536 7.25825 7.25825 3.41536 11.9987 3.41536C16.7391 3.41536 20.582 7.25825 20.582 11.9987C20.582 16.7391 16.7391 20.582 11.9987 20.582C7.25825 20.582 3.41536 16.7391 3.41536 11.9987ZM9.08111 15.9551C10.8293 14.7908 13.1678 14.7908 14.9157 15.9573C15.2602 16.1872 15.7259 16.0943 15.9559 15.7498C16.1858 15.4053 16.0929 14.9396 15.7484 14.7096C13.4963 13.2066 10.5014 13.2069 8.24962 14.7067C7.90487 14.9363 7.81153 15.4019 8.04114 15.7466C8.27075 16.0914 8.73636 16.1847 9.08111 15.9551ZM7.9974 9.33464C7.9974 10.071 8.59435 10.668 9.33073 10.668C10.0671 10.668 10.6641 10.071 10.6641 9.33464C10.6641 8.59826 10.0671 8.0013 9.33073 8.0013C8.59435 8.0013 7.9974 8.59826 7.9974 9.33464ZM14.6654 10.6654C13.929 10.6654 13.332 10.0684 13.332 9.33203C13.332 8.59565 13.929 7.9987 14.6654 7.9987C15.4017 7.9987 15.9987 8.59565 15.9987 9.33203C15.9987 10.0684 15.4017 10.6654 14.6654 10.6654Z" fill="#12131B"/>
</svg>
