<svg width="73" height="72" viewBox="0 0 73 72" fill="none" xmlns="http://www.w3.org/2000/svg">
<path d="M2.44205 35.6539C2.44205 17.3341 17.4705 2.44205 36.0813 2.44205C54.692 2.44205 69.7205 17.3341 69.7205 35.6539C69.7205 53.9738 54.692 68.8658 36.0813 68.8658C17.4705 68.8658 2.44205 53.9738 2.44205 35.6539ZM4.54142 35.6539C4.54142 52.9161 18.6835 66.8491 36.0813 66.8491C53.479 66.8491 67.6211 52.9161 67.6211 35.6539C67.6211 18.3917 53.479 4.45871 36.0813 4.45871C18.6835 4.45871 4.54142 18.3917 4.54142 35.6539Z" stroke="#3A2F45" stroke-width="4.8841"/>
<path d="M29.9065 50.4304L17.5565 37.7915C16.8145 37.0322 16.8145 35.801 17.5565 35.0416L20.2434 32.2917C20.9854 31.5323 22.1885 31.5323 22.9304 32.2917L31.25 40.8059L49.0696 22.5695C49.8115 21.8102 51.0146 21.8102 51.7566 22.5695L54.4435 25.3194C55.1855 26.0787 55.1855 27.3099 54.4435 28.0693L32.5935 50.4305C31.8515 51.1898 30.6485 51.1898 29.9065 50.4304Z" fill="#3A2F45"/>
</svg>
