<svg width="18" height="18" viewBox="0 0 18 18" fill="none" xmlns="http://www.w3.org/2000/svg">
<path fill-rule="evenodd" clip-rule="evenodd" d="M7.66466 1.26562C4.13057 1.26562 1.26562 4.13057 1.26562 7.66466C1.26562 11.1987 4.13057 14.0637 7.66466 14.0637C9.16145 14.0637 10.5382 13.5498 11.6281 12.6888L15.3884 16.449C15.6812 16.7419 16.1561 16.7419 16.449 16.449C16.7419 16.1561 16.7419 15.6812 16.449 15.3884L12.6888 11.6281C13.5498 10.5382 14.0637 9.16145 14.0637 7.66466C14.0637 4.13057 11.1987 1.26562 7.66466 1.26562ZM2.76562 7.66466C2.76562 4.959 4.959 2.76562 7.66466 2.76562C10.3703 2.76562 12.5637 4.959 12.5637 7.66466C12.5637 10.3703 10.3703 12.5637 7.66466 12.5637C4.959 12.5637 2.76562 10.3703 2.76562 7.66466Z" fill="#12131B"/>
</svg>
