<svg width="591" height="596" viewBox="0 0 591 596" fill="none" xmlns="http://www.w3.org/2000/svg">
<path d="M445.087 400.336L429.788 420.78L447.525 439.15L558.338 553.907L558.509 554.084L558.682 554.258C560.63 556.21 561 557.912 561 558.981C561 560.051 560.63 561.753 558.682 563.704C558.398 563.989 557.448 564.728 555.828 565.378C555.133 565.656 554.516 565.835 554.062 565.936C553.609 565.835 552.992 565.656 552.297 565.378C550.677 564.728 549.727 563.989 549.443 563.704L438.63 452.649L419.412 433.388L398.372 450.64C363.773 479.01 315.338 495.665 262.256 495.665C134.831 495.665 30 390.698 30 262.832C30 134.966 134.831 30 262.256 30C389.131 30 490.819 134.408 490.819 262.832C490.819 315.364 474.581 360.925 445.087 400.336Z" stroke="#3A2F45" stroke-width="60"/>
</svg>
