<svg width="24" height="24" viewBox="0 0 24 24" fill="none" xmlns="http://www.w3.org/2000/svg">
<path fill-rule="evenodd" clip-rule="evenodd" d="M10.5 3.25C6.49594 3.25 3.25 6.49594 3.25 10.5C3.25 14.5041 6.49594 17.75 10.5 17.75C12.2319 17.75 13.8219 17.1427 15.0689 16.1295L19.4697 20.5303C19.7626 20.8232 20.2374 20.8232 20.5303 20.5303C20.8232 20.2374 20.8232 19.7626 20.5303 19.4697L16.1295 15.0689C17.1427 13.8219 17.75 12.2319 17.75 10.5C17.75 6.49594 14.5041 3.25 10.5 3.25ZM4.75 10.5C4.75 7.32436 7.32436 4.75 10.5 4.75C13.6756 4.75 16.25 7.32436 16.25 10.5C16.25 13.6756 13.6756 16.25 10.5 16.25C7.32436 16.25 4.75 13.6756 4.75 10.5Z" fill="#12131B"/>
</svg>
