<svg width="22" height="22" viewBox="0 0 22 22" fill="none" xmlns="http://www.w3.org/2000/svg">
<g clip-path="url(#clip0_5_2570)">
<path d="M10.9998 13.7498C12.5186 13.7498 13.7498 12.5186 13.7498 10.9998C13.7498 9.48105 12.5186 8.24984 10.9998 8.24984C9.48105 8.24984 8.24984 9.48105 8.24984 10.9998C8.24984 12.5186 9.48105 13.7498 10.9998 13.7498Z" stroke="#96A0B5" stroke-width="2" stroke-linecap="round" stroke-linejoin="round"/>
<path d="M17.7832 13.7498C17.6611 14.0263 17.6247 14.333 17.6787 14.6304C17.7326 14.9277 17.8743 15.2021 18.0857 15.4182L18.1407 15.4732C18.3111 15.6434 18.4464 15.8456 18.5386 16.0682C18.6309 16.2908 18.6784 16.5293 18.6784 16.7703C18.6784 17.0112 18.6309 17.2497 18.5386 17.4723C18.4464 17.6949 18.3111 17.8971 18.1407 18.0673C17.9704 18.2378 17.7682 18.373 17.5456 18.4653C17.3231 18.5575 17.0845 18.605 16.8436 18.605C16.6027 18.605 16.3641 18.5575 16.1415 18.4653C15.919 18.373 15.7168 18.2378 15.5465 18.0673L15.4915 18.0123C15.2755 17.801 15.0011 17.6592 14.7037 17.6053C14.4063 17.5514 14.0997 17.5878 13.8232 17.7098C13.552 17.826 13.3208 18.019 13.158 18.2649C12.9951 18.5108 12.9077 18.799 12.9065 19.094V19.2498C12.9065 19.7361 12.7133 20.2024 12.3695 20.5462C12.0257 20.89 11.5594 21.0832 11.0732 21.0832C10.5869 21.0832 10.1206 20.89 9.77681 20.5462C9.43299 20.2024 9.23984 19.7361 9.23984 19.2498V19.1673C9.23274 18.8639 9.13453 18.5697 8.95797 18.3228C8.78141 18.076 8.53468 17.8879 8.24984 17.7832C7.97336 17.6611 7.66666 17.6247 7.3693 17.6787C7.07194 17.7326 6.79754 17.8743 6.5815 18.0857L6.5265 18.1407C6.35624 18.3111 6.15404 18.4464 5.93148 18.5386C5.70891 18.6309 5.47035 18.6784 5.22942 18.6784C4.98849 18.6784 4.74993 18.6309 4.52736 18.5386C4.3048 18.4464 4.1026 18.3111 3.93234 18.1407C3.76188 17.9704 3.62666 17.7682 3.53439 17.5456C3.44213 17.3231 3.39464 17.0845 3.39464 16.8436C3.39464 16.6027 3.44213 16.3641 3.53439 16.1415C3.62666 15.919 3.76188 15.7168 3.93234 15.5465L3.98734 15.4915C4.19866 15.2755 4.34042 15.0011 4.39434 14.7037C4.44826 14.4063 4.41186 14.0997 4.28984 13.8232C4.17364 13.552 3.9807 13.3208 3.73476 13.158C3.48883 12.9951 3.20064 12.9077 2.90567 12.9065H2.74984C2.26361 12.9065 1.79729 12.7133 1.45347 12.3695C1.10966 12.0257 0.916504 11.5594 0.916504 11.0732C0.916504 10.5869 1.10966 10.1206 1.45347 9.77681C1.79729 9.43299 2.26361 9.23984 2.74984 9.23984H2.83234C3.13575 9.23274 3.43001 9.13453 3.67686 8.95797C3.92371 8.78141 4.11174 8.53468 4.2165 8.24984C4.33853 7.97336 4.37493 7.66666 4.32101 7.3693C4.26709 7.07194 4.12533 6.79754 3.914 6.5815L3.859 6.5265C3.68855 6.35624 3.55332 6.15404 3.46106 5.93148C3.3688 5.70891 3.32131 5.47035 3.32131 5.22942C3.32131 4.98849 3.3688 4.74993 3.46106 4.52736C3.55332 4.3048 3.68855 4.1026 3.859 3.93234C4.02927 3.76188 4.23147 3.62666 4.45403 3.53439C4.67659 3.44213 4.91516 3.39464 5.15609 3.39464C5.39702 3.39464 5.63558 3.44213 5.85814 3.53439C6.08071 3.62666 6.2829 3.76188 6.45317 3.93234L6.50817 3.98734C6.72421 4.19866 6.9986 4.34042 7.29596 4.39434C7.59333 4.44826 7.90002 4.41186 8.1765 4.28984H8.24984C8.52096 4.17364 8.75219 3.9807 8.91506 3.73476C9.07792 3.48883 9.16533 3.20064 9.1665 2.90567V2.74984C9.1665 2.26361 9.35966 1.79729 9.70347 1.45347C10.0473 1.10966 10.5136 0.916504 10.9998 0.916504C11.4861 0.916504 11.9524 1.10966 12.2962 1.45347C12.64 1.79729 12.8332 2.26361 12.8332 2.74984V2.83234C12.8343 3.12731 12.9217 3.4155 13.0846 3.66143C13.2475 3.90736 13.4787 4.1003 13.7498 4.2165C14.0263 4.33853 14.333 4.37493 14.6304 4.32101C14.9277 4.26709 15.2021 4.12533 15.4182 3.914L15.4732 3.859C15.6434 3.68855 15.8456 3.55332 16.0682 3.46106C16.2908 3.3688 16.5293 3.32131 16.7703 3.32131C17.0112 3.32131 17.2497 3.3688 17.4723 3.46106C17.6949 3.55332 17.8971 3.68855 18.0673 3.859C18.2378 4.02927 18.373 4.23147 18.4653 4.45403C18.5575 4.67659 18.605 4.91516 18.605 5.15609C18.605 5.39702 18.5575 5.63558 18.4653 5.85814C18.373 6.08071 18.2378 6.2829 18.0673 6.45317L18.0123 6.50817C17.801 6.72421 17.6592 6.9986 17.6053 7.29596C17.5514 7.59333 17.5878 7.90002 17.7098 8.1765V8.24984C17.826 8.52096 18.019 8.75219 18.2649 8.91506C18.5108 9.07792 18.799 9.16533 19.094 9.1665H19.2498C19.7361 9.1665 20.2024 9.35966 20.5462 9.70347C20.89 10.0473 21.0832 10.5136 21.0832 10.9998C21.0832 11.4861 20.89 11.9524 20.5462 12.2962C20.2024 12.64 19.7361 12.8332 19.2498 12.8332H19.1673C18.8724 12.8343 18.5842 12.9217 18.3382 13.0846C18.0923 13.2475 17.8994 13.4787 17.7832 13.7498Z" stroke="#96A0B5" stroke-width="2" stroke-linecap="round" stroke-linejoin="round"/>
</g>
<defs>
<clipPath id="clip0_5_2570">
<rect width="22" height="22" fill="white"/>
</clipPath>
</defs>
</svg>
