<svg width="24" height="24" viewBox="0 0 24 24" fill="none" xmlns="http://www.w3.org/2000/svg">
<path fill-rule="evenodd" clip-rule="evenodd" d="M12.3677 2.34632C12.1394 2.21789 11.8606 2.21789 11.6323 2.34632L3.63231 6.84632C3.39615 6.97916 3.25001 7.22904 3.25001 7.5V16.5C3.25001 16.771 3.39615 17.0208 3.63231 17.1537L11.6323 21.6537C11.8606 21.7821 12.1394 21.7821 12.3677 21.6537L20.3677 17.1537C20.6039 17.0208 20.75 16.771 20.75 16.5V7.5C20.75 7.22904 20.6039 6.97916 20.3677 6.84632L12.3677 2.34632ZM4.75001 16.0614V7.93864L12 3.86051L19.25 7.93864V16.0614L12 20.1395L4.75001 16.0614ZM12 8.75C10.2051 8.75 8.75001 10.2051 8.75001 12C8.75001 13.7949 10.2051 15.25 12 15.25C13.7949 15.25 15.25 13.7949 15.25 12C15.25 10.2051 13.7949 8.75 12 8.75ZM10.25 12C10.25 11.0335 11.0335 10.25 12 10.25C12.9665 10.25 13.75 11.0335 13.75 12C13.75 12.9665 12.9665 13.75 12 13.75C11.0335 13.75 10.25 12.9665 10.25 12Z" fill="#12131B"/>
</svg>
