<svg fill="#3EB995" xmlns="http://www.w3.org/2000/svg" xmlns:xlink="http://www.w3.org/1999/xlink" version="1.1" x="0px" y="0px" viewBox="0 0 100 100" enable-background="new 0 0 100 100" xml:space="preserve"><g><path d="M80.892,43.353c-0.227-1.053-0.505-2.086-0.833-3.09c1.236-0.886,2.118-2.163,2.509-3.653   c0.444-1.692,0.203-3.456-0.679-4.967c-1.602-2.743-3.56-5.271-5.818-7.513c-1.235-1.226-2.874-1.902-4.615-1.902   c-1.549,0-3.014,0.533-4.187,1.513c-0.895-0.576-1.822-1.107-2.771-1.589c0.251-1.503-0.027-3.032-0.804-4.365   c-0.881-1.512-2.298-2.589-3.989-3.035c-3.024-0.797-6.158-1.201-9.311-1.201h-0.097c-3.408,0-6.215,2.616-6.522,5.945   c-1.053,0.226-2.086,0.503-3.087,0.828c-1.222-1.697-3.21-2.73-5.325-2.73c-1.154,0-2.292,0.308-3.292,0.891   c-2.746,1.599-5.275,3.554-7.52,5.811c-1.234,1.24-1.911,2.887-1.906,4.636c0.003,1.54,0.535,2.997,1.508,4.165   c-0.577,0.895-1.11,1.821-1.593,2.77c-0.356-0.06-0.715-0.09-1.076-0.09c-2.966,0-5.568,2.005-6.329,4.874   c-0.805,3.038-1.212,6.184-1.212,9.414c0,3.386,2.608,6.178,5.931,6.489c0.226,1.064,0.503,2.108,0.831,3.12   c-2.711,1.941-3.555,5.673-1.848,8.614c1.596,2.748,3.549,5.28,5.803,7.527c1.237,1.233,2.879,1.911,4.625,1.911   c1.544,0,3.005-0.53,4.176-1.504c0.895,0.579,1.82,1.112,2.768,1.596c-0.255,1.501,0.021,3.03,0.794,4.365   c0.877,1.514,2.292,2.595,3.982,3.045c3.048,0.811,6.207,1.222,9.387,1.222h0.033c3.393,0,6.191-2.607,6.505-5.927   c1.058-0.224,2.097-0.5,3.105-0.826c1.221,1.705,3.211,2.742,5.333,2.742c1.148,0,2.282-0.305,3.279-0.883   c2.747-1.592,5.282-3.542,7.533-5.795c1.236-1.237,1.917-2.882,1.915-4.632c-0.001-1.54-0.529-2.999-1.499-4.169   c0.581-0.895,1.115-1.819,1.599-2.764c0.361,0.061,0.726,0.092,1.09,0.092c2.959,0,5.56-1.999,6.325-4.861   c0.817-3.062,1.232-6.233,1.232-9.426v-0.186C86.814,46.451,84.221,43.677,80.892,43.353z M84.208,50   c0,2.963-0.384,5.906-1.142,8.746c-0.457,1.711-2.011,2.906-3.779,2.906c-0.34,0-0.68-0.045-1.014-0.134   c-0.115-0.031-0.226-0.069-0.335-0.109l-1.133-0.412l-0.51,1.092c-0.694,1.484-1.526,2.922-2.472,4.274l-0.692,0.989l0.924,0.776   c0.088,0.074,0.175,0.149,0.26,0.234c0.739,0.739,1.148,1.722,1.148,2.767c0.001,1.046-0.406,2.029-1.145,2.769   c-2.089,2.091-4.44,3.9-6.99,5.377c-0.597,0.346-1.274,0.528-1.958,0.528c-1.395,0-2.695-0.748-3.393-1.954   c-0.059-0.102-0.11-0.205-0.159-0.31l-0.513-1.087l-1.13,0.412c-1.519,0.553-3.129,0.982-4.785,1.274l-1.191,0.21l0.107,1.205   c0.01,0.115,0.019,0.23,0.019,0.347c0,2.159-1.749,3.915-3.899,3.915h-0.033c-2.951,0-5.882-0.381-8.709-1.133   c-1.01-0.269-1.856-0.915-2.381-1.82c-0.524-0.905-0.665-1.959-0.395-2.972c0.031-0.115,0.069-0.226,0.108-0.335l0.407-1.132   l-1.09-0.508c-1.487-0.694-2.927-1.524-4.278-2.468l-0.992-0.693l-0.775,0.931c-0.073,0.087-0.148,0.174-0.23,0.256   c-0.739,0.742-1.724,1.151-2.772,1.151c-1.044,0-2.025-0.406-2.764-1.142c-2.092-2.085-3.904-4.435-5.385-6.984   c-1.084-1.866-0.448-4.267,1.419-5.351c0.101-0.059,0.205-0.109,0.309-0.159l1.088-0.513l-0.413-1.13   c-0.557-1.522-0.987-3.137-1.281-4.799l-0.21-1.19l-1.204,0.107c-0.116,0.01-0.232,0.019-0.351,0.019   c-2.159,0-3.916-1.742-3.916-3.948c0-2.938,0.378-5.857,1.124-8.675c0.455-1.716,2.01-2.914,3.782-2.914   c0.338,0,0.676,0.044,1.005,0.132c0.114,0.03,0.225,0.068,0.335,0.108l1.135,0.41l0.509-1.094c0.693-1.49,1.521-2.931,2.462-4.281   l0.69-0.99l-0.926-0.774c-0.088-0.074-0.176-0.149-0.26-0.233c-0.741-0.737-1.151-1.719-1.154-2.765   c-0.003-1.046,0.401-2.03,1.139-2.772c2.083-2.094,4.43-3.908,6.978-5.392c0.599-0.349,1.278-0.533,1.966-0.533   c1.39,0,2.689,0.745,3.387,1.944c0.058,0.099,0.108,0.201,0.156,0.303l0.511,1.097l1.136-0.416c1.51-0.553,3.115-0.984,4.768-1.281   l1.191-0.214l-0.112-1.205c-0.01-0.118-0.018-0.236-0.018-0.357c0-2.159,1.756-3.915,3.915-3.915h0.097   c2.927,0,5.834,0.375,8.64,1.115c1.011,0.266,1.858,0.91,2.384,1.814c0.527,0.903,0.67,1.958,0.402,2.97   c-0.015,0.057-0.038,0.109-0.059,0.163l-0.474,1.301l1.098,0.508c1.498,0.693,2.944,1.522,4.297,2.463l0.99,0.688l0.773-0.925   c0.075-0.09,0.151-0.178,0.234-0.262c0.74-0.746,1.727-1.157,2.778-1.157c1.04,0,2.02,0.404,2.758,1.136   c2.095,2.081,3.912,4.426,5.399,6.972c0.527,0.903,0.671,1.957,0.406,2.969c-0.266,1.012-0.909,1.859-1.815,2.387   c-0.071,0.042-0.146,0.075-0.219,0.109l-1.179,0.559l0.415,1.129c0.558,1.517,0.992,3.123,1.289,4.773l0.214,1.188l1.202-0.11   c0.111-0.01,0.22-0.019,0.366-0.021c2.139,0,3.895,1.742,3.914,3.87V50z"></path><path d="M50.393,32.601c-9.594,0-17.399,7.805-17.399,17.399s7.805,17.399,17.399,17.399c9.595,0,17.4-7.805,17.4-17.399   S59.988,32.601,50.393,32.601z M50.393,64.764c-8.141,0-14.764-6.623-14.764-14.764s6.623-14.764,14.764-14.764   c8.142,0,14.765,6.623,14.765,14.764S58.535,64.764,50.393,64.764z"></path></g></svg>