<?xml version="1.0" encoding="UTF-8"?>
<svg width="74px" height="74px" viewBox="0 0 74 74" version="1.1" xmlns="http://www.w3.org/2000/svg" xmlns:xlink="http://www.w3.org/1999/xlink">
    <!-- Generator: Sketch 51 (57462) - http://www.bohemiancoding.com/sketch -->
    <title>settings_grey</title>
    <desc>Created with Sketch.</desc>
    <defs></defs>
    <g id="Page-1" stroke="none" stroke-width="1" fill="none" fill-rule="evenodd">
        <g id="settings_grey" fill="#888888" fill-rule="nonzero">
            <path d="M67.892,30.353 C67.665,29.3 67.387,28.267 67.059,27.263 C68.295,26.377 69.177,25.1 69.568,23.61 C70.012,21.918 69.771,20.154 68.889,18.643 C67.287,15.9 65.329,13.372 63.071,11.13 C61.836,9.904 60.197,9.228 58.456,9.228 C56.907,9.228 55.442,9.761 54.269,10.741 C53.374,10.165 52.447,9.634 51.498,9.152 C51.749,7.649 51.471,6.12 50.694,4.787 C49.813,3.275 48.396,2.198 46.705,1.752 C43.681,0.955 40.547,0.551 37.394,0.551 L37.297,0.551 C33.889,0.551 31.082,3.167 30.775,6.496 C29.722,6.722 28.689,6.999 27.688,7.324 C26.466,5.627 24.478,4.594 22.363,4.594 C21.209,4.594 20.071,4.902 19.071,5.485 C16.325,7.084 13.796,9.039 11.551,11.296 C10.317,12.536 9.64,14.183 9.645,15.932 C9.648,17.472 10.18,18.929 11.153,20.097 C10.576,20.992 10.043,21.918 9.56,22.867 C9.204,22.807 8.845,22.777 8.484,22.777 C5.518,22.777 2.916,24.782 2.155,27.651 C1.35,30.689 0.943,33.835 0.943,37.065 C0.943,40.451 3.551,43.243 6.874,43.554 C7.1,44.618 7.377,45.662 7.705,46.674 C4.994,48.615 4.15,52.347 5.857,55.288 C7.453,58.036 9.406,60.568 11.66,62.815 C12.897,64.048 14.539,64.726 16.285,64.726 C17.829,64.726 19.29,64.196 20.461,63.222 C21.356,63.801 22.281,64.334 23.229,64.818 C22.974,66.319 23.25,67.848 24.023,69.183 C24.9,70.697 26.315,71.778 28.005,72.228 C31.053,73.039 34.212,73.45 37.392,73.45 L37.425,73.45 C40.818,73.45 43.616,70.843 43.93,67.523 C44.988,67.299 46.027,67.023 47.035,66.697 C48.256,68.402 50.246,69.439 52.368,69.439 C53.516,69.439 54.65,69.134 55.647,68.556 C58.394,66.964 60.929,65.014 63.18,62.761 C64.416,61.524 65.097,59.879 65.095,58.129 C65.094,56.589 64.566,55.13 63.596,53.96 C64.177,53.065 64.711,52.141 65.195,51.196 C65.556,51.257 65.921,51.288 66.285,51.288 C69.244,51.288 71.845,49.289 72.61,46.427 C73.427,43.365 73.842,40.194 73.842,37.001 L73.842,36.815 C73.814,33.451 71.221,30.677 67.892,30.353 Z M71.208,37 C71.208,39.963 70.824,42.906 70.066,45.746 C69.609,47.457 68.055,48.652 66.287,48.652 C65.947,48.652 65.607,48.607 65.273,48.518 C65.158,48.487 65.047,48.449 64.938,48.409 L63.805,47.997 L63.295,49.089 C62.601,50.573 61.769,52.011 60.823,53.363 L60.131,54.352 L61.055,55.128 C61.143,55.202 61.23,55.277 61.315,55.362 C62.054,56.101 62.463,57.084 62.463,58.129 C62.464,59.175 62.057,60.158 61.318,60.898 C59.229,62.989 56.878,64.798 54.328,66.275 C53.731,66.621 53.054,66.803 52.37,66.803 C50.975,66.803 49.675,66.055 48.977,64.849 C48.918,64.747 48.867,64.644 48.818,64.539 L48.305,63.452 L47.175,63.864 C45.656,64.417 44.046,64.846 42.39,65.138 L41.199,65.348 L41.306,66.553 C41.316,66.668 41.325,66.783 41.325,66.9 C41.325,69.059 39.576,70.815 37.426,70.815 L37.393,70.815 C34.442,70.815 31.511,70.434 28.684,69.682 C27.674,69.413 26.828,68.767 26.303,67.862 C25.779,66.957 25.638,65.903 25.908,64.89 C25.939,64.775 25.977,64.664 26.016,64.555 L26.423,63.423 L25.333,62.915 C23.846,62.221 22.406,61.391 21.055,60.447 L20.063,59.754 L19.288,60.685 C19.215,60.772 19.14,60.859 19.058,60.941 C18.319,61.683 17.334,62.092 16.286,62.092 C15.242,62.092 14.261,61.686 13.522,60.95 C11.43,58.865 9.618,56.515 8.137,53.966 C7.053,52.1 7.689,49.699 9.556,48.615 C9.657,48.556 9.761,48.506 9.865,48.456 L10.953,47.943 L10.54,46.813 C9.983,45.291 9.553,43.676 9.259,42.014 L9.049,40.824 L7.845,40.931 C7.729,40.941 7.613,40.95 7.494,40.95 C5.335,40.95 3.578,39.208 3.578,37.002 C3.578,34.064 3.956,31.145 4.702,28.327 C5.157,26.611 6.712,25.413 8.484,25.413 C8.822,25.413 9.16,25.457 9.489,25.545 C9.603,25.575 9.714,25.613 9.824,25.653 L10.959,26.063 L11.468,24.969 C12.161,23.479 12.989,22.038 13.93,20.688 L14.62,19.698 L13.694,18.924 C13.606,18.85 13.518,18.775 13.434,18.691 C12.693,17.954 12.283,16.972 12.28,15.926 C12.277,14.88 12.681,13.896 13.419,13.154 C15.502,11.06 17.849,9.246 20.397,7.762 C20.996,7.413 21.675,7.229 22.363,7.229 C23.753,7.229 25.052,7.974 25.75,9.173 C25.808,9.272 25.858,9.374 25.906,9.476 L26.417,10.573 L27.553,10.157 C29.063,9.604 30.668,9.173 32.321,8.876 L33.512,8.662 L33.4,7.457 C33.39,7.339 33.382,7.221 33.382,7.1 C33.382,4.941 35.138,3.185 37.297,3.185 L37.394,3.185 C40.321,3.185 43.228,3.56 46.034,4.3 C47.045,4.566 47.892,5.21 48.418,6.114 C48.945,7.017 49.088,8.072 48.82,9.084 C48.805,9.141 48.782,9.193 48.761,9.247 L48.287,10.548 L49.385,11.056 C50.883,11.749 52.329,12.578 53.682,13.519 L54.672,14.207 L55.445,13.282 C55.52,13.192 55.596,13.104 55.679,13.02 C56.419,12.274 57.406,11.863 58.457,11.863 C59.497,11.863 60.477,12.267 61.215,12.999 C63.31,15.08 65.127,17.425 66.614,19.971 C67.141,20.874 67.285,21.928 67.02,22.94 C66.754,23.952 66.111,24.799 65.205,25.327 C65.134,25.369 65.059,25.402 64.986,25.436 L63.807,25.995 L64.222,27.124 C64.78,28.641 65.214,30.247 65.511,31.897 L65.725,33.085 L66.927,32.975 C67.038,32.965 67.147,32.956 67.293,32.954 C69.432,32.954 71.188,34.696 71.207,36.824 L71.207,37 L71.208,37 Z" id="Shape"></path>
            <path d="M37.393,19.601 C27.799,19.601 19.994,27.406 19.994,37 C19.994,46.594 27.799,54.399 37.393,54.399 C46.988,54.399 54.793,46.594 54.793,37 C54.793,27.406 46.988,19.601 37.393,19.601 Z M37.393,51.764 C29.252,51.764 22.629,45.141 22.629,37 C22.629,28.859 29.252,22.236 37.393,22.236 C45.535,22.236 52.158,28.859 52.158,37 C52.158,45.141 45.535,51.764 37.393,51.764 Z" id="Shape"></path>
        </g>
    </g>
</svg>