<?xml version="1.0" encoding="UTF-8"?>
<svg width="100px" height="100px" viewBox="0 0 100 100" version="1.1" xmlns="http://www.w3.org/2000/svg" xmlns:xlink="http://www.w3.org/1999/xlink">
    <!-- Generator: Sketch 51.3 (57544) - http://www.bohemiancoding.com/sketch -->
    <title>noun_Settings_937618</title>
    <desc>Created with Sketch.</desc>
    <defs></defs>
    <g id="Page-1" stroke="none" stroke-width="1" fill="none" fill-rule="evenodd">
        <g id="noun_Settings_937618" transform="translate(0.000000, -1.000000)" fill="#3EB995" fill-rule="nonzero">
            <path d="M51.42,101 L48.42,101 L46.89,100.54 C43.2001131,99.533148 40.1659409,96.9072098 38.64,93.4 C38.1022703,92.201858 37.4313799,91.0680532 36.64,90.02 C35.39,88.36 34.39,88.02 33.64,88.02 C31.8009113,87.8286981 29.9436608,88.1181397 28.25,88.86 C23.6585377,90.9147666 18.2772288,89.9486114 14.6873091,86.4249672 C11.0973894,82.9013229 10.0311379,77.5389496 12,72.91 C12.6470208,71.4690954 12.987553,69.9094579 13,68.33 C13.0775994,67.4752029 12.8739442,66.6184466 12.42,65.89 C11.2324561,64.293746 9.61157626,63.0720121 7.75,62.37 C5.81820145,61.6009896 4.11936425,60.3432298 2.82,58.72 C0.296753368,55.73563 -0.600315443,51.7025581 0.42,47.93 C1.42498397,44.1707118 4.14032801,41.1034473 7.75,39.65 C9.01790082,39.1681988 10.182097,38.4486373 11.18,37.53 C12.0393776,36.9154212 12.6580946,36.0209331 12.93,35 C13.2051589,33.0434037 12.9172579,31.0489083 12.1,29.25 C10.8736349,26.4330671 10.7628316,23.255515 11.79,20.36 C12.826546,17.1512486 15.2003678,14.5477021 18.3,13.22 C21.4868548,11.8224852 25.1131452,11.8224852 28.3,13.22 C29.6803121,13.845208 31.1854012,14.1462258 32.7,14.1 C33.5130055,14.142367 34.3184391,13.9252501 35,13.48 C36.5953785,12.2938983 37.8142216,10.6722466 38.51,8.81 C39.2873747,6.84984228 40.562708,5.1264189 42.21,3.81 C45.2071433,1.27231181 49.265436,0.381284444 53.05,1.43 C56.7973475,2.47265498 59.8487025,5.19523199 61.31,8.8 C61.7975989,10.0702897 62.5202071,11.2373188 63.44,12.24 C64.1027245,13.1656588 65.0998197,13.7969134 66.22,14 C68.0749519,14.1903666 69.9473753,13.890365 71.65,13.13 C74.4981444,11.8715467 77.7220151,11.7605023 80.65,12.82 C83.8354302,13.8668464 86.4153626,16.2354284 87.73,19.32 C89.1262903,22.5071113 89.1262903,26.1328887 87.73,29.32 C87.1077464,30.7089439 86.800406,32.2183269 86.83,33.74 C86.7679083,34.5656659 86.9635732,35.3902537 87.39,36.1 C88.6285708,37.7635404 90.3291705,39.0259487 92.28,39.73 C94.6630033,40.6540424 96.652419,42.3749047 97.91,44.6 C98.4307621,45.5797761 98.8721748,46.5997069 99.23,47.65 C99.36,48.01 99.5,48.38 99.64,48.74 L99.77,49 L99.83,49.29 C100.057076,50.4085922 100.057076,51.5614078 99.83,52.68 L99.76,53 L99.63,53.4 C99.63,53.49 99.56,53.59 99.53,53.71 C98.597055,57.7666246 95.6894559,61.0836918 91.79,62.54 C90.4590243,63.0762034 89.2561598,63.8871999 88.26,64.92 C87.5203878,65.5157162 87.0343455,66.3698642 86.9,67.31 C86.7106119,69.1522947 86.9999438,71.0122855 87.74,72.71 C88.6397286,74.7646251 88.9546345,77.0277954 88.65,79.25 C88.2421332,83.0684998 86.0046352,86.4508509 82.65,88.32 C79.2676285,90.1990952 75.2057159,90.4058835 71.65,88.88 C70.2652109,88.2657358 68.7648429,87.9554324 67.25,87.97 C66.3718839,87.8965926 65.4954709,88.1298315 64.77,88.63 C63.1888748,89.8800387 61.9816004,91.5404734 61.28,93.43 C60.5944339,95.1234743 59.5185585,96.6310703 58.14,97.83 C56.3367709,99.3458517 54.1973258,100.408717 51.9,100.93 L51.42,101 Z M49.4030666,95.7254235 L50.5865472,95.7254235 C51.779264,95.4546263 52.8948064,94.9162099 53.8488369,94.1508798 C54.4772808,93.6101139 54.9706529,92.9299652 55.2895958,92.1646908 C56.4542768,89.1022198 58.4283049,86.4132735 61.0011758,84.3845927 C62.9238708,82.9572604 65.2771491,82.2309399 67.6698312,82.3263657 C70.2083323,82.2948819 72.7230802,82.8182024 75.0382839,83.8597449 C76.7643264,84.5540171 78.7113993,84.4330339 80.3382184,83.5304285 C81.9236083,82.6410096 82.9616929,81.0202083 83.1065337,79.2081519 C83.2650303,78.13198 83.1151591,77.0329246 82.674306,76.0384823 C81.4608869,73.2558084 80.9756945,70.2100753 81.2644205,67.1881062 C81.5387506,64.6568086 82.7193868,62.310157 84.5884571,60.5811976 C86.2776921,58.843538 88.3153249,57.482778 90.5676065,56.5882372 C92.5753544,55.8549885 94.0542925,54.1263089 94.4679467,52.0292644 C94.5502758,51.7411126 94.6326048,51.4941254 94.7046428,51.2780115 C94.712372,51.1752453 94.712372,51.0720437 94.7046428,50.9692775 C94.7046428,50.9692775 94.7046428,50.8766573 94.7046428,50.8354927 C94.5811492,50.5164676 94.4679467,50.2077335 94.3547442,49.8887083 C94.1040051,49.1430755 93.7978475,48.4172411 93.4388332,47.7172788 C92.9025765,46.7658749 92.0453204,46.0362952 91.0204165,45.6590518 C87.8106853,44.4647317 85.0252933,42.3488362 83.0139135,39.5769911 C81.7587255,37.7251289 81.1178725,35.5253469 81.1820914,33.2891076 C81.1423876,30.7398693 81.6659738,28.2133023 82.7154705,25.8897816 C83.3321164,24.3440605 83.2987201,22.614871 82.6228503,21.0941127 C82.0432178,19.6630894 80.8661981,18.5575182 79.4017251,18.068519 C77.9850726,17.5216293 76.4099923,17.5549057 75.0177016,18.1611392 C72.2113136,19.4062024 69.1301228,19.9025968 66.0747053,19.6018981 C63.2449061,19.2455541 60.6630818,17.8071091 58.8709108,15.5883555 C57.3572286,13.9320458 56.170083,12.00468 55.3719249,9.90764895 C54.6257262,8.22145088 53.1649818,6.9569822 51.3892557,6.46011874 C49.579136,5.96499075 47.6414418,6.42228659 46.2436882,7.67447266 C45.4494917,8.30308211 44.8353398,9.13023459 44.4633219,10.0723071 C43.272805,13.1569402 41.2271827,15.8380264 38.5665015,17.8009495 C36.720696,19.0812182 34.5137762,19.7375245 32.2683269,19.673936 C29.7173725,19.7080516 27.1893753,19.1884077 24.8587097,18.1508481 C23.3097395,17.5218674 21.5719244,17.5478603 20.0424586,18.222886 C18.6140693,18.8338556 17.5264842,20.0418654 17.0683206,21.5263403 C16.5337467,22.9310065 16.5669656,24.4886017 17.1609408,25.8691993 C18.4978421,28.8593028 18.9685072,32.1646554 18.5193706,35.4090814 C18.0600383,38.0433648 16.6638249,40.4227757 14.588157,42.1086103 C12.9349771,43.6289701 11.0069502,44.8200157 8.90745053,45.6178873 C7.21686376,46.3578113 5.95543137,47.8275884 5.48050258,49.6108477 C4.99553028,51.4262156 5.46439053,53.3636546 6.72572991,54.7564152 C7.34122162,55.5324847 8.15059042,56.1324116 9.07210869,56.495617 C12.1372676,57.6752092 14.8084891,59.6937824 16.7801688,62.3203994 C18.1058599,64.2194771 18.7744319,66.4998496 18.6840288,68.8141055 C18.6710231,71.35128 18.1386738,73.858925 17.1197762,76.1825582 C16.2077763,78.4042158 16.744766,80.9575053 18.4744085,82.6235915 C20.2040511,84.2896776 22.7756466,84.730747 24.9616211,83.7362512 C27.7486259,82.5263295 30.799401,82.0515283 33.8222883,82.3572392 C36.9790734,82.7333693 39.8174516,84.4604248 41.6023863,87.0911612 C42.724682,88.5771347 43.6741501,90.1860514 44.4324484,91.8868301 C45.2112007,93.7119062 46.8057437,95.0623086 48.7341429,95.5298919 L49.4030666,95.7254235 Z M49.94,71.46 C38.6574962,71.4379329 29.5244613,62.282524 29.53,51 C29.5464686,39.7408773 38.6609137,30.6130221 49.92,30.58 C61.1908038,30.5965221 70.3234779,39.7291962 70.34,51 C70.3291345,62.2419595 61.2418303,71.3650054 50,71.42 L49.9,71.42 L49.94,71.46 Z M49.94,37.16 C44.3218851,37.1660554 39.2623204,40.5606161 37.1264186,45.7568816 C34.9905169,50.9531471 36.2002012,56.9246546 40.19,60.88 C42.7717608,63.4550885 46.2735834,64.8946867 49.92,64.88 L50,64.88 C57.6321664,64.8305483 63.7946654,58.6323247 63.8,51 C63.789043,43.3505317 57.5994267,37.1475083 49.95,37.12 L49.94,37.16 Z" id="Shape"></path>
        </g>
    </g>
</svg>