<svg width="591" height="620" viewBox="0 0 591 620" fill="none" xmlns="http://www.w3.org/2000/svg">
<path d="M243.273 32.3226C276.918 26.0282 312.517 25.7582 347.592 32.3225V39.6253C347.592 78.3853 372.452 109.021 401.098 125.613C429.866 142.275 469.038 148.57 502.725 129.034L508.616 125.618C531.313 152.163 549.199 182.919 560.938 216.517L554.797 220.078C521.174 239.577 506.942 276.53 506.942 309.875C506.942 343.22 521.174 380.173 554.797 399.672L561.085 403.319C549.345 437.037 531.451 467.808 508.757 494.267L502.825 490.827C469.183 471.317 429.991 477.45 401.139 494.163C372.377 510.824 347.716 541.548 347.716 580.247V587.677C314.071 593.972 278.472 594.242 243.397 587.678V580.25C243.397 541.49 218.538 510.854 189.891 494.262C161.123 477.6 121.951 471.305 88.2639 490.841L82.3728 494.257C59.676 467.713 41.7902 436.956 30.0516 403.358L36.1918 399.797C69.8154 380.298 84.0472 343.345 84.0472 310C84.0472 276.655 69.8155 239.702 36.1918 220.203L30.0439 216.637C41.783 182.939 59.6684 152.187 82.3499 125.742L88.1416 129.108C121.781 148.663 161.001 142.545 189.869 125.827C218.622 109.174 243.273 78.461 243.273 39.7771V32.3226ZM233.427 34.3489L233.495 34.3336C233.45 34.344 233.405 34.3538 233.359 34.3638L233.427 34.3489ZM168.358 309.875C168.358 380.077 225.244 437.375 295.432 437.375C365.621 437.375 422.507 380.077 422.507 309.875C422.507 239.673 365.621 182.375 295.432 182.375C225.244 182.375 168.358 239.673 168.358 309.875Z" stroke="#3A2F45" stroke-width="55"/>
</svg>
