<svg width="18" height="20" viewBox="0 0 18 20" fill="none" xmlns="http://www.w3.org/2000/svg">
<path fill-rule="evenodd" clip-rule="evenodd" d="M9.3677 0.346318C9.13939 0.217894 8.86062 0.217894 8.63231 0.346318L0.632311 4.84632C0.396153 4.97916 0.250007 5.22904 0.250007 5.5V14.5C0.250007 14.771 0.396153 15.0208 0.632311 15.1537L8.63231 19.6537C8.86062 19.7821 9.13939 19.7821 9.3677 19.6537L17.3677 15.1537C17.6039 15.0208 17.75 14.771 17.75 14.5V5.5C17.75 5.22904 17.6039 4.97916 17.3677 4.84632L9.3677 0.346318ZM1.75001 14.0614V5.93864L9.00001 1.86051L16.25 5.93864V14.0614L9.00001 18.1395L1.75001 14.0614ZM9.00001 6.75C7.20508 6.75 5.75001 8.20507 5.75001 10C5.75001 11.7949 7.20508 13.25 9.00001 13.25C10.7949 13.25 12.25 11.7949 12.25 10C12.25 8.20507 10.7949 6.75 9.00001 6.75ZM7.25001 10C7.25001 9.0335 8.03351 8.25 9.00001 8.25C9.96651 8.25 10.75 9.0335 10.75 10C10.75 10.9665 9.96651 11.75 9.00001 11.75C8.03351 11.75 7.25001 10.9665 7.25001 10Z" fill="#12131B"/>
</svg>
