<svg width="57" height="57" viewBox="0 0 57 57" fill="none" xmlns="http://www.w3.org/2000/svg">
<path d="M35.0256 40.497L36.8225 41.6172L38.4799 40.2993C39.7987 39.2506 41.4645 38.625 43.2857 38.625C47.5532 38.625 51 42.0739 51 46.3125C51 50.5511 47.5532 54 43.2857 54C39.0182 54 35.5714 50.5511 35.5714 46.3125V46.3116C35.5713 45.7502 35.6325 45.1904 35.7542 44.6422L36.2141 42.5697L34.4126 41.4465L22.9744 34.3155L21.1775 33.1953L19.5201 34.5132C18.2013 35.5619 16.5355 36.1875 14.7143 36.1875C10.4468 36.1875 7 32.7386 7 28.5C7 24.2614 10.4468 20.8125 14.7143 20.8125C16.5355 20.8125 18.2013 21.4381 19.5201 22.4868L21.1775 23.8047L22.9744 22.6845L34.4126 15.5535L36.2143 14.4302L35.7542 12.3576C35.635 11.8206 35.5714 11.2623 35.5714 10.6875C35.5714 6.44892 39.0182 3 43.2857 3C47.5532 3 51 6.44892 51 10.6875C51 14.9261 47.5532 18.375 43.2857 18.375C41.4645 18.375 39.7988 17.7494 38.48 16.7006L36.8226 15.3826L35.0256 16.5029L23.5874 23.6339L21.7864 24.7567L22.2456 26.8288C22.4896 27.9296 22.4896 29.0702 22.2456 30.1711L21.7864 32.2431L23.5874 33.366L35.0256 40.497Z" stroke="#3A2F45" stroke-width="6"/>
</svg>
