<svg width="209" height="200" viewBox="0 0 209 200" fill="none" xmlns="http://www.w3.org/2000/svg">
<path fill-rule="evenodd" clip-rule="evenodd" d="M9.15805 94.3254C12.0998 41.7359 55.6744 0 109 0C164.23 0 209 44.7702 209 100C209 148.554 174.399 189.023 128.51 198.098C130.693 195.395 132 191.963 132 188.228V171.959L136.931 164.56C139.806 160.25 143.191 156.302 147.012 152.802C148.008 151.887 148.681 150.677 148.931 149.351L150.665 140.145C150.843 139.206 151.234 138.319 151.806 137.552L159.363 127.48C160.173 126.399 160.613 125.081 160.613 123.73V119.157C160.613 115.706 157.815 112.907 154.363 112.907H151.052C148.964 112.907 147.012 111.863 145.855 110.125L140.516 102.117C138.23 98.6855 139.827 94.0242 143.738 92.7218L144.806 92.3669C145.71 92.0667 146.669 91.9763 147.613 92.1028C148.556 92.2292 149.458 92.5692 150.25 93.0968L157.593 97.9919C158.509 98.6039 159.571 98.9625 160.671 99.0312C161.771 99.0999 162.869 98.8763 163.855 98.3831L170.06 95.2782C172.177 94.2218 173.516 92.0564 173.516 89.6895V86.8952C173.516 83.4435 176.315 80.6452 179.766 80.6452H187.198C179.508 49.6048 153.851 25.6573 121.907 20.4798V29.2298C121.907 32.6815 119.109 35.4798 115.657 35.4798H105.895C103.806 35.4798 101.855 36.5242 100.697 38.2621L97.4393 43.1452C96.5764 44.4395 95.2619 45.3629 93.7538 45.7419L87.9272 47.1976C85.145 47.8952 83.1934 50.3952 83.1934 53.2621V55.0363C83.1934 58.4879 85.9917 61.2863 89.4433 61.2863H125.754C126.575 61.2862 127.388 61.4478 128.146 61.7619C128.904 62.076 129.593 62.5364 130.173 63.1169L132.964 65.9073C134.137 67.0806 135.726 67.7379 137.383 67.7379H141.452C144.903 67.7379 147.702 70.5363 147.702 73.9879C147.702 76.6774 145.98 79.0645 143.427 79.9153L124.351 86.2742C122.778 86.7984 121.065 86.6774 119.581 85.9355L113.645 82.9677C110.589 81.4355 107.213 80.6411 103.794 80.6411H103.435C102.732 80.6413 102.032 80.6751 101.337 80.7417C92.6087 65.9523 76.4486 56 57.9998 56C34.3367 56 14.4388 72.3731 9.15805 94.3254Z" fill="#3A2F45"/>
<path d="M101.786 127.437H95.6786V109.297C95.6786 88.1832 78.3241 71 57 71C35.6759 71 18.3214 88.1832 18.3214 109.297V127.437H12.2143C5.47098 127.437 0 132.854 0 139.531V187.906C0 194.583 5.47098 200 12.2143 200H101.786C108.529 200 114 194.583 114 187.906V139.531C114 132.854 108.529 127.437 101.786 127.437ZM75.3214 127.437H38.6786V109.297C38.6786 99.2943 46.8978 91.1562 57 91.1562C67.1022 91.1562 75.3214 99.2943 75.3214 109.297V127.437Z" fill="#3A2F45"/>
</svg>
