<svg fill="#3EB995" xmlns:x="http://ns.adobe.com/Extensibility/1.0/" xmlns:i="http://ns.adobe.com/AdobeIllustrator/10.0/" xmlns:graph="http://ns.adobe.com/Graphs/1.0/" xmlns="http://www.w3.org/2000/svg" xmlns:xlink="http://www.w3.org/1999/xlink" version="1.1" x="0px" y="0px" viewBox="0 0 100 100" enable-background="new 0 0 100 100" xml:space="preserve"><metadata><sfw xmlns="http://ns.adobe.com/SaveForWeb/1.0/"><slices></slices><sliceSourceBounds width="40.059" height="74.953" bottomLeftOrigin="true" y="-87.579" x="30"></sliceSourceBounds></sfw></metadata><path fill="#3EB995" d="M69.979,16.248c-0.093-0.566-0.485-1.04-1.022-1.237c-3.277-1.196-7.608-2.381-12.256-2.384  c-3.646-0.001-7.509,0.743-11.1,2.837l0,0c-1.808,1.051-3.233,2.38-4.318,3.876c-1.633,2.247-2.502,4.833-2.992,7.458  c-0.395,2.123-0.544,4.286-0.624,6.383c-0.936,0.022-1.997,0.029-2.963,0.029c-0.845,0-1.618-0.005-2.181-0.011  c-0.281-0.003-0.508-0.005-0.666-0.007c-0.158-0.003-0.242-0.004-0.244-0.004c-0.424-0.006-0.84,0.162-1.143,0.459  c-0.302,0.299-0.474,0.714-0.471,1.139l0.063,10.56C30.068,46.226,30.78,47,31.658,47c0.001,0,0.424,0,1.109,0  c1.555,0,4.457-0.067,6.688-0.023c0.33,7.254,0.408,18.125,0.408,26.56c0,3.556-0.015,6.655-0.027,8.887  c-0.008,1.113-0.014,1.998-0.02,2.612c-0.005,0.613-0.008,0.941-0.008,0.943c-0.004,0.424,0.162,0.833,0.463,1.135  c0.3,0.3,0.71,0.468,1.135,0.466l14.134-0.071c0.425-0.002,0.825-0.172,1.123-0.475c0.299-0.302,0.462-0.705,0.458-1.131  c0,0-0.074-8.691-0.161-18.066c-0.074-8.062-0.156-16.618-0.203-20.603c0.872-0.015,1.888-0.021,2.876-0.02  c1.155,0,2.279,0.007,3.113,0.014c0.416,0.003,0.761,0.007,1,0.01c0.241,0.003,0.375,0.004,0.375,0.004  c0.425,0.006,0.834-0.159,1.137-0.457c0.303-0.298,0.474-0.704,0.475-1.129l0.018-9.781c0.001-0.425-0.166-0.97-0.467-1.269  c-0.3-0.299-0.704-0.605-1.13-0.605c0,0-0.19,0-0.528,0s-0.819,0.144-1.396,0.144c-1.773,0-4.455,0.063-6.577,0.027  c0.038-1.085,0.136-2.008,0.296-2.826c0.154-0.796,0.366-1.441,0.616-1.972c0.188-0.398,0.397-0.712,0.621-0.975  c0.34-0.394,0.708-0.66,1.182-0.858c0.473-0.196,1.068-0.313,1.83-0.314c1.353-0.004,3.211,0.396,5.538,1.295  c0.017,0.007,0.036,0.009,0.054,0.016c0.019,0.006,0.034,0.017,0.053,0.022c0.034,0.011,0.068,0.012,0.102,0.02  c0.054,0.013,0.107,0.025,0.16,0.032c0.052,0.006,0.103,0.008,0.153,0.01c0.053,0.001,0.104,0.002,0.157-0.001  c0.052-0.004,0.102-0.011,0.151-0.02c0.051-0.008,0.102-0.018,0.151-0.031c0.048-0.013,0.096-0.03,0.142-0.048  c0.049-0.017,0.097-0.036,0.143-0.059c0.045-0.022,0.087-0.047,0.13-0.073c0.044-0.027,0.088-0.056,0.13-0.087  c0.04-0.029,0.076-0.062,0.112-0.096c0.04-0.036,0.078-0.072,0.112-0.111c0.034-0.038,0.064-0.078,0.095-0.119  c0.031-0.042,0.062-0.085,0.089-0.131c0.026-0.044,0.049-0.093,0.072-0.142c0.015-0.032,0.034-0.061,0.047-0.095  c0.008-0.018,0.01-0.037,0.017-0.057c0.005-0.017,0.016-0.032,0.021-0.05c0.321-1.058,0.872-2.831,1.345-4.702  c0.236-0.938,0.455-1.902,0.617-2.831c0.161-0.93,0.27-1.818,0.271-2.646C70.058,16.957,70.036,16.602,69.979,16.248z   M56.647,24.841c-0.787,0.407-1.473,0.981-2.022,1.672c-0.827,1.04-1.359,2.315-1.693,3.766c-0.334,1.454-0.477,3.102-0.477,4.96  c0,0.19,0.002,0.383,0.004,0.578c0.014,0.849,0.691,1.304,1.54,1.332C56.26,37.221,59.965,37,62.229,37c0.118,0,0.229,0,0.34,0  l-0.012,6.813c-0.813-0.006-1.852,0.104-2.924,0.104c-1.693,0-3.446,0.073-4.565,0.128c-0.857,0.043-1.523,0.783-1.511,1.641  c0.043,2.716,0.139,12.793,0.225,22.165c0.043,4.687,0.083,9.211,0.113,12.555c0.014,1.623,0.026,2.97,0.034,3.926L43.001,84.39  c0.017-2.107,0.04-6.104,0.04-10.893c0-9.053-0.086-20.906-0.484-28.23c-0.044-0.824-0.706-1.473-1.53-1.502  c-2.153-0.076-5.731-0.09-7.794-0.091l-0.044-7.29c0.45,0.003,0.968,0.006,1.516,0.006c1.554-0.001,3.336-0.017,4.595-0.09  c0.824-0.047,1.476-0.72,1.497-1.544c0.086-3.345,0.276-6.741,1.165-9.629c0.443-1.446,1.052-2.762,1.893-3.919  c0.843-1.156,1.914-2.162,3.348-2.998l0,0c3.013-1.754,6.275-2.403,9.5-2.404c3.671-0.003,7.262,0.858,10.167,1.842  c-0.023,0.497-0.097,1.11-0.213,1.775c-0.214,1.228-0.561,2.626-0.914,3.906c-0.162,0.586-0.324,1.144-0.477,1.658  c-1.875-0.607-3.545-0.934-5.068-0.937C58.902,24.049,57.698,24.294,56.647,24.841z"></path></svg>