<svg width="178" height="138" viewBox="0 0 178 138" fill="none" xmlns="http://www.w3.org/2000/svg">
<path d="M54.6 63.875C72.2028 63.875 86.45 49.5887 86.45 31.9375C86.45 14.2863 72.2028 0 54.6 0C36.9972 0 22.75 14.2863 22.75 31.9375C22.75 49.5887 36.9972 63.875 54.6 63.875ZM76.44 73H74.0797C68.1647 75.8516 61.5956 77.5625 54.6 77.5625C47.6044 77.5625 41.0638 75.8516 35.1203 73H32.76C14.6738 73 0 87.7141 0 105.85V114.062C0 121.619 6.11406 127.75 13.65 127.75H95.55C103.086 127.75 109.2 121.619 109.2 114.062V105.85C109.2 87.7141 94.5263 73 76.44 73Z" fill="#3A2F45"/>
<path d="M157.913 65.4121V56.1357C157.913 36.7369 142.064 21 122.629 21C103.195 21 87.3451 36.7369 87.3451 56.1357V65.4121C79.4269 65.5284 73 71.9617 73 79.9271V117.993C73 126.032 79.5454 132.51 87.5634 132.51H157.695C165.713 132.51 172.259 126.032 172.259 117.993V79.9271C172.259 71.9617 165.832 65.5284 157.913 65.4121ZM113.284 65.4105V56.1357C113.284 51.0493 117.458 46.8609 122.629 46.8609C127.801 46.8609 131.974 51.0493 131.974 56.1357V65.4105H113.284Z" fill="#3A2F45" stroke="white" stroke-width="10"/>
</svg>
