<svg width="170" height="128" viewBox="0 0 170 128" fill="none" xmlns="http://www.w3.org/2000/svg">
<path fill-rule="evenodd" clip-rule="evenodd" d="M86.2915 31.75C86.2915 49.2976 72.0708 63.5 54.5 63.5C36.9292 63.5 22.7085 49.2976 22.7085 31.75C22.7085 14.2025 36.9292 0 54.5 0C72.0708 0 86.2915 14.2025 86.2915 31.75ZM76.2144 72.5715H73.9438C68.04 75.4062 61.4829 77.1072 54.5 77.1072C47.5171 77.1072 40.9888 75.4062 35.0562 72.5715H32.7002C14.647 72.5715 0 87.1992 0 105.229V113.393C0 120.905 6.10303 127 13.625 127H79.0713C75.2466 127 72.8984 124.215 71.7983 122.188C70.5923 119.966 70 117.239 70 114.5V84.5C70 81.761 70.5923 79.0337 71.7983 76.8118C72.5923 75.3496 74.0352 73.4927 76.2144 72.5715ZM108 97.186C106.515 91.3352 103.448 86.1128 99.2798 82H87.8931V74.6851C86.9487 74.3271 85.9839 74.012 85 73.7412V82H80.4004C80.1904 82.561 80 83.4175 80 84.5V114.5C80 115.583 80.1904 116.439 80.4004 117H107.6C107.81 116.439 108 115.583 108 114.5V97.186Z" fill="#3A2F45"/>
<path d="M159.695 70.4105H154.913V56.1357C154.913 39.5214 141.325 26 124.629 26C107.933 26 94.3451 39.5214 94.3451 56.1357V70.4105H89.5634C84.2836 70.4105 80 74.6732 80 79.9271V117.993C80 123.247 84.2836 127.51 89.5634 127.51H159.695C164.975 127.51 169.259 123.247 169.259 117.993V79.9271C169.259 74.6732 164.975 70.4105 159.695 70.4105ZM138.974 70.4105H110.284V56.1357C110.284 48.2647 116.72 41.8609 124.629 41.8609C132.539 41.8609 138.974 48.2647 138.974 56.1357V70.4105Z" fill="#3A2F45"/>
</svg>
