<?xml version="1.0" encoding="utf-8"?>
<!-- Generator: Adobe Illustrator 22.1.0, SVG Export Plug-In . SVG Version: 6.00 Build 0)  -->
<svg version="1.1" id="Layer_1" xmlns="http://www.w3.org/2000/svg" xmlns:xlink="http://www.w3.org/1999/xlink" x="0px" y="0px"
	 viewBox="0 0 20 20" style="enable-background:new 0 0 20 20;" xml:space="preserve">
<style type="text/css">
	.st0{fill:#3EB995;}
</style>
<title>noun_49609_3EB995 (2)</title>
<desc>Created with Sketch.</desc>
<g id="Page-1">
	<g id="noun_x5F_49609_x5F_3EB995-_x28_2_x29_">
		<path id="Shape" class="st0" d="M14.2,1.1c1.2,0,2.2,0.5,2.9,1.4c0.6,0,0.7,0,1,0c0.2,0,0.4,0,0.9,0c-0.3,1.3-0.4,1.5-0.8,3
			c0,0.2,0,0.4,0,0.6c0,6-4,12.8-11.4,12.8c-3.5,0-5.5-2-5.2-2c1.9,0,3.6-0.7,5-1.9C4.8,15-1.6,10.4,2,1.9C4,4.6,7,6.4,10.3,6.6
			c-0.1-0.3-0.1-0.7-0.1-1C10.2,3.1,12,1.1,14.2,1.1z M19.1,2.5L19.1,2.5L19.1,2.5z M14.2,0c-2.7,0-4.9,2.4-5,5.4
			C6.7,5,4.4,3.5,2.7,1.2C2.6,1,2.3,0.8,2,0.8c0,0-0.1,0-0.1,0c-0.3,0-0.6,0.3-0.7,0.6c-2,4.8-1,8.3,0.1,10.4c0.8,1.5,2,2.7,3.1,3.4
			c-0.9,0.4-1.8,0.6-2.8,0.6c-0.5,0-1,0.5-1,1.1c0,1,1.5,1.8,1.9,2c0.9,0.4,2.3,1,4.2,1c4.7,0,7.6-2.5,9.2-4.5c2-2.6,3.2-6,3.2-9.4
			c0-0.1,0-0.3,0-0.4c0.1-0.2,0.1-0.5,0.2-0.6c0.2-0.8,0.3-1.2,0.6-2.2c0-0.1,0-0.2,0-0.3c0-0.6-0.4-1.1-0.9-1.1c0,0,0,0,0,0
			c0,0,0,0,0,0l-0.3,0c-0.3,0-0.5,0-0.6,0c-0.2,0-0.3,0-0.5,0l-0.1,0C16.6,0.5,15.4,0,14.2,0z"/>
	</g>
</g>
</svg>
