<svg width="171" height="128" viewBox="0 0 171 128" fill="none" xmlns="http://www.w3.org/2000/svg">
<path d="M54.6 64C72.2028 64 86.45 49.7137 86.45 32.0625C86.45 14.4113 72.2028 0.125 54.6 0.125C36.9972 0.125 22.75 14.4113 22.75 32.0625C22.75 49.7137 36.9972 64 54.6 64ZM76.44 73.125H74.0797C68.1647 75.9766 61.5956 77.6875 54.6 77.6875C47.6044 77.6875 41.0638 75.9766 35.1203 73.125H32.76C14.6738 73.125 0 87.8391 0 105.975V114.188C0 121.744 6.11406 127.875 13.65 127.875H95.55C103.086 127.875 109.2 121.744 109.2 114.188V105.975C109.2 87.8391 94.5263 73.125 76.44 73.125ZM125.5 65C140.572 65 152.8 52.7383 152.8 37.625C152.8 22.5117 140.572 10.25 125.5 10.25C110.428 10.25 98.2 22.5117 98.2 37.625C98.2 52.7383 110.428 65 125.5 65ZM139.15 74.125H138.069C134.117 75.4938 129.936 76.4062 125.5 76.4062C121.064 76.4062 116.883 75.4938 112.931 74.125H111.85C106.049 74.125 105.5 76.4062 105.01 78.5164C111.949 86.016 116.3 95.968 116.3 106.975V117.925C116.3 118.552 116.158 119.151 116.129 119.75H157.35C164.886 119.75 171 113.619 171 106.062C171 88.4113 156.753 74.125 139.15 74.125Z" fill="#3A2F45"/>
</svg>
