<?xml version="1.0" encoding="UTF-8"?>
<svg width="164px" height="307px" viewBox="0 0 164 307" version="1.1" xmlns="http://www.w3.org/2000/svg" xmlns:xlink="http://www.w3.org/1999/xlink">
    <!-- Generator: Sketch 49.1 (51147) - http://www.bohemiancoding.com/sketch -->
    <title>noun_26636_3EB995 (1)</title>
    <desc>Created with Sketch.</desc>
    <defs></defs>
    <g id="Page-1" stroke="none" stroke-width="1" fill="none" fill-rule="evenodd">
        <g id="noun_26636_3EB995-(1)" fill="#3EB995" fill-rule="nonzero">
            <path d="M163.668406,14.8312547 C163.287687,12.5129758 161.682936,10.5715196 159.48459,9.76462752 C146.069362,4.86593223 128.339317,0.0122918199 109.311553,4.12263953e-06 C94.3857289,-0.00409177644 78.5715608,3.04325714 63.8708935,11.6200698 C56.4693879,15.9248597 50.6357898,21.3683096 46.1940677,27.4957746 C39.508969,36.6992599 35.9514975,47.2912549 33.9455585,58.04299 C32.3285261,66.7385837 31.7185569,75.5980134 31.3910566,84.1871138 C27.5593037,84.2772235 23.2158317,84.3058948 19.2612662,84.3058948 C15.8020449,84.3058948 12.6375738,84.2854153 10.3327908,84.2608399 C9.18244617,84.2485523 8.25316422,84.2403605 7.60635123,84.2321687 C6.95953825,84.219881 6.61566299,84.2157851 6.60747548,84.2157851 C4.87172418,84.1912097 3.1687229,84.8793207 1.92831572,86.0958027 C0.692002288,87.3204766 -0.0121232411,89.0202747 0.000158018106,90.7610318 L0.258064462,134.013726 C0.28262698,137.618117 3.19737917,140.788343 6.79169437,140.788343 C6.79578812,140.788343 8.52744568,140.788343 11.3316665,140.788343 C17.6974526,140.788343 29.577524,140.513918 38.7106871,140.694137 C40.0616256,170.405789 40.3809384,214.932308 40.3809384,249.481217 C40.3809384,264.046234 40.3195321,276.739425 40.270407,285.881472 C40.237657,290.440208 40.2130945,294.065078 40.188532,296.57996 C40.1680632,299.090747 40.1557819,300.434201 40.1557819,300.442393 C40.1394069,302.179054 40.8189699,303.854277 42.0511896,305.091239 C43.2793155,306.320008 44.9577543,307.008119 46.6975994,306.999928 L104.558705,306.709119 C106.29855,306.700927 107.936052,306.004624 109.15599,304.763567 C110.380022,303.526605 111.047304,301.875958 111.030929,300.131105 C111.030929,300.131105 110.727991,264.533646 110.371835,226.134592 C110.068897,193.113454 109.733209,158.068941 109.540803,141.746784 C113.110556,141.685345 117.269809,141.66077 121.314437,141.664866 C126.042721,141.664866 130.6441,141.693537 134.05829,141.722208 C135.761291,141.734496 137.173636,141.750879 138.152043,141.763167 C139.138638,141.775455 139.6872,141.779551 139.6872,141.779551 C141.427046,141.804126 143.101391,141.128303 144.341798,139.907725 C145.582205,138.687147 146.282237,137.024212 146.28633,135.283455 L146.360018,95.2214659 C146.364112,93.4807088 145.680455,91.2484438 144.448235,90.0237699 C143.220109,88.7990961 141.566233,87.545751 139.822294,87.545751 C139.822294,87.545751 139.044481,87.545751 137.660793,87.545751 C136.277104,87.545751 134.308009,88.1355605 131.945913,88.1355605 C124.687689,88.1355605 113.708243,88.3936021 105.021299,88.2461498 C105.176862,83.8020993 105.57805,80.0215844 106.23305,76.671139 C106.863488,73.4108033 107.731364,70.7689484 108.754802,68.594026 C109.524428,66.9638581 110.380022,65.6777458 111.297023,64.6005244 C112.688899,62.9867401 114.1954,61.897231 116.135839,61.086243 C118.072184,60.2834467 120.507967,59.8042266 123.627407,59.8001307 C129.166255,59.7837471 136.772448,61.4221067 146.298612,65.10432 C146.368206,65.1329913 146.445987,65.1411831 146.519674,65.1698543 C146.597456,65.1944297 146.658862,65.2394846 146.736643,65.2599641 C146.875831,65.305019 147.015018,65.3091149 147.154206,65.3418821 C147.375269,65.3951288 147.592238,65.4442796 147.809207,65.4729509 C148.022082,65.4975263 148.230863,65.5057181 148.435551,65.5139099 C148.65252,65.5180058 148.861301,65.5221017 149.07827,65.509814 C149.291145,65.4934304 149.495833,65.4647591 149.696427,65.427896 C149.905208,65.3951288 150.11399,65.3541698 150.314583,65.3009231 C150.511084,65.2476764 150.707584,65.1780461 150.895896,65.10432 C151.09649,65.0346897 151.29299,64.9568676 151.481303,64.8626619 C151.665522,64.7725521 151.83746,64.6701547 152.013491,64.5636613 C152.193616,64.453072 152.373741,64.3342909 152.545679,64.2073181 C152.709429,64.088537 152.856804,63.9533723 153.004179,63.8141118 C153.167929,63.6666594 153.323492,63.519207 153.46268,63.359467 C153.601867,63.2038228 153.72468,63.0399868 153.851586,62.872055 C153.978492,62.7000272 154.105399,62.5239035 154.21593,62.3354922 C154.322368,62.1552726 154.416524,61.9545736 154.51068,61.7538745 C154.572087,61.6228057 154.649868,61.5040247 154.703087,61.3647641 C154.735837,61.2910379 154.744024,61.2132158 154.772681,61.1312979 C154.793149,61.0616676 154.838181,61.0002291 154.858649,60.9265029 C156.172744,56.5930417 158.428402,49.3310126 160.364747,41.6675854 C161.330873,37.8256321 162.227405,33.8771854 162.890593,30.0720952 C163.549687,26.262909 163.995906,22.6257506 164,19.2343462 C163.991812,17.7352471 163.90175,16.281203 163.668406,14.8312547 Z M109.09049,50.0273155 C105.868706,51.6943464 103.060392,54.0453925 100.812921,56.8756587 C97.4273875,61.1353938 95.2495108,66.3576651 93.8821973,72.3008146 C92.5148838,78.2562519 91.9294771,85.0062936 91.9294771,92.6164741 C91.9294771,93.3946949 91.9376646,94.1852034 91.9458521,94.9839037 C92.0031647,98.461322 94.7746355,100.324956 98.2502318,100.439641 C107.506208,100.734546 122.673563,99.8293523 131.94182,99.8293523 C132.424883,99.8293523 132.879289,99.8293523 133.333696,99.8293523 L133.284571,127.734713 C129.956349,127.710137 125.70294,128.160686 121.314437,128.160686 C114.383713,128.160686 107.207364,128.459687 102.626454,128.684961 C99.1181075,128.861085 96.3916679,131.89205 96.440793,135.406332 C96.6168244,146.530794 97.0098247,187.805169 97.3618874,226.191935 C97.5379188,245.389414 97.7016689,263.919261 97.8244815,277.615948 C97.8817941,284.263592 97.9309191,289.780768 97.9636691,293.696447 L53.2271355,293.93401 C53.2967293,285.30395 53.3908856,268.932642 53.3908856,249.317381 C53.3908856,212.237207 53.0388229,163.688515 51.4095091,133.69015 C51.229384,130.315129 48.5193195,127.656891 45.1460669,127.53811 C36.3322166,127.226821 21.6847681,127.169479 13.2393555,127.165383 L13.0592303,97.3062785 C14.9014192,97.3185662 17.0219833,97.3308539 19.26536,97.3308539 C25.6270523,97.326758 32.9221203,97.2612236 38.0761554,96.962223 C41.4494079,96.7697157 44.1185349,94.0131757 44.2045037,90.6381548 C44.5565665,76.9373724 45.3343796,63.0276991 48.9737261,51.1987426 C50.7872587,45.2760725 53.2803543,39.8858693 56.7232006,35.1469141 C60.1742345,30.4120548 64.558644,26.2915803 70.4290859,22.8674087 C82.763564,15.6832017 96.1173865,13.0249632 109.31974,13.0208673 C124.347908,13.0085796 139.048575,16.5351487 150.940928,20.5655134 C150.846771,22.6011752 150.543834,25.1119614 150.068958,27.8357343 C149.192895,32.8654983 147.772363,38.5915652 146.327268,43.8343161 C145.66408,46.2345129 145.000892,48.5200246 144.374548,50.6253167 C136.698761,48.139106 129.862193,46.799747 123.627407,46.7874593 C118.321903,46.7833634 113.393024,47.7868587 109.09049,50.0273155 Z" id="Shape"></path>
        </g>
    </g>
</svg>