<?xml version="1.0" encoding="UTF-8"?>
<svg width="55px" height="55px" viewBox="0 0 55 55" version="1.1" xmlns="http://www.w3.org/2000/svg" xmlns:xlink="http://www.w3.org/1999/xlink">
    <!-- Generator: Sketch 51.3 (57544) - http://www.bohemiancoding.com/sketch -->
    <title>Group 2</title>
    <desc>Created with Sketch.</desc>
    <defs></defs>
    <g id="Page-1" stroke="none" stroke-width="1" fill="none" fill-rule="evenodd">
        <g id="Group-2" transform="translate(2.000000, 2.000000)" stroke="#173766" stroke-width="3">
            <path d="M18,25 C18,29.971 13.971,34 9,34 C4.029,34 0,29.971 0,25 C0,20.029 4.029,16 9,16 C13.971,16 18,20.029 18,25 Z" id="Path" fill="#173766"></path>
            <path d="M51,9 C51,13.971 46.971,18 42,18 C37.029,18 33,13.971 33,9 C33,4.029 37.029,0 42,0 C46.971,0 51,4.029 51,9 Z" id="Path" fill="#173766"></path>
            <path d="M51,42 C51,46.971 46.971,51 42,51 C37.029,51 33,46.971 33,42 C33,37.029 37.029,33 42,33 C46.971,33 51,37.029 51,42 Z" id="Path" fill="#173766"></path>
            <path d="M18,30 L33,38 L18,30 Z" id="Path"></path>
            <path d="M33,13 L18,21 L33,13 Z" id="Path"></path>
        </g>
    </g>
</svg>