<svg width="57" height="57" viewBox="0 0 57 57" fill="none" xmlns="http://www.w3.org/2000/svg">
<path d="M43.2857 35.625C40.7625 35.625 38.4434 36.4955 36.6127 37.9512L25.1746 30.8202C25.5133 29.2918 25.5133 27.7081 25.1746 26.1797L36.6127 19.0487C38.4434 20.5045 40.7625 21.375 43.2857 21.375C49.203 21.375 54 16.59 54 10.6875C54 4.78499 49.203 0 43.2857 0C37.3684 0 32.5714 4.78499 32.5714 10.6875C32.5714 11.4844 32.6596 12.2606 32.8254 13.0077L21.3873 20.1387C19.5566 18.683 17.2375 17.8125 14.7143 17.8125C8.79699 17.8125 4 22.5975 4 28.5C4 34.4025 8.79699 39.1875 14.7143 39.1875C17.2375 39.1875 19.5566 38.317 21.3873 36.8613L32.8254 43.9923C32.6564 44.7542 32.5712 45.5322 32.5714 46.3125C32.5714 52.215 37.3684 57 43.2857 57C49.203 57 54 52.215 54 46.3125C54 40.41 49.203 35.625 43.2857 35.625Z" fill="white"/>
</svg>
