<svg fill="#3EB995" xmlns="http://www.w3.org/2000/svg" xmlns:xlink="http://www.w3.org/1999/xlink" version="1.1" x="0px" y="0px" viewBox="0 0 90 90" enable-background="new 0 0 90 90" xml:space="preserve"><g><path d="M60.879,19.71c3.676,0,6.99,1.549,9.321,4.032c1.932,0.05,2.136,0.068,3.07,0.068c0.562,0,1.388-0.007,3.011-0.018   c-1.03,3.618-1.305,4.361-2.626,8.515c0.024,0.548,0.037,1.097,0.037,1.652c0,16.872-12.844,36.329-36.33,36.329   c-11.246,0-17.558-5.559-16.528-5.559c5.982,0,11.49-2.039,15.86-5.465c-5.588-0.104-25.929-13.025-14.573-37.217   c6.299,7.724,15.708,12.807,26.321,13.339c-0.22-0.934-0.332-1.907-0.332-2.91C48.11,25.426,53.827,19.71,60.879,19.71    M76.281,23.793h0.005 M60.879,16.71c-8.546,0-15.525,6.833-15.762,15.321c-8.059-1.267-15.454-5.482-20.67-11.879   c-0.573-0.703-1.43-1.104-2.324-1.104c-0.122,0-0.245,0.007-0.367,0.022c-1.024,0.126-1.911,0.769-2.349,1.703   c-6.369,13.567-3.303,23.489,0.391,29.423c2.667,4.286,6.408,7.649,9.964,9.725c-2.789,1.193-5.803,1.81-8.926,1.81   c-1.714,0-3.109,1.382-3.109,3.08c0,2.953,4.644,5.043,6.169,5.73c2.785,1.254,7.382,2.748,13.468,2.748   c14.788,0,24.054-6.99,29.223-12.854c6.424-7.287,10.107-16.937,10.107-26.475c0-0.41-0.007-0.825-0.02-1.242   c0.22-0.688,0.408-1.276,0.576-1.801c0.743-2.32,1.089-3.397,1.881-6.175c0.1-0.298,0.154-0.618,0.154-0.95   c0-1.657-1.341-3-2.997-3c-0.002,0-0.004,0-0.006,0c-0.007,0-0.014,0-0.02,0L75.295,20.8c-1,0.007-1.592,0.011-2.024,0.011   c-0.602,0-0.884-0.008-1.576-0.028l-0.239-0.007C68.572,18.179,64.786,16.71,60.879,16.71L60.879,16.71z"></path></g></svg>