<svg fill="#3EB995" xmlns="http://www.w3.org/2000/svg" xmlns:xlink="http://www.w3.org/1999/xlink" viewBox="0 0 51 55" version="1.1" x="0px" y="0px"><title>share</title><desc>Created with Sketch.</desc><g stroke="none" stroke-width="1" fill="none" fill-rule="evenodd"><g transform="translate(-728.000000, -86.000000)" stroke="#3EB995" stroke-width="2.5"><g transform="translate(730.000000, 88.000000)"><path d="M13.7039373,32.6743676 L29.0129501,41.5130302 C29.0043532,41.6742636 29,41.8366234 29,42 C29,46.9705627 33.0294373,51 38,51 C42.9705627,51 47,46.9705627 47,42 C47,37.0294373 42.9705627,33 38,33 C35.366206,33 32.9966529,34.1313498 31.3508029,35.934587 L17.5080053,27.942444 C17.8268302,27.0204183 18,26.0304322 18,25 C18,24.9248122 17.999078,24.8498398 17.9972447,24.7750935 L32.7089982,16.2812586 C34.1940813,17.3622691 36.0225656,18 38,18 C42.9705627,18 47,13.9705627 47,9 C47,4.02943725 42.9705627,0 38,0 C33.0294373,0 29,4.02943725 29,9 C29,9.80222461 29.1049603,10.5799344 29.3018975,11.3201459 L15.8066114,19.111653 C14.1563533,17.2057185 11.718982,16 9,16 C4.02943725,16 0,20.0294373 0,25 C0,29.9705627 4.02943725,34 9,34 C10.7241877,34 12.3351338,33.5151557 13.703937,32.6743685 Z"></path></g></g></g></svg>