<svg width="18" height="18" viewBox="0 0 18 18" fill="none" xmlns="http://www.w3.org/2000/svg">
<path fill-rule="evenodd" clip-rule="evenodd" d="M4.24805 4C4.24805 3.30964 4.80769 2.75 5.49805 2.75H12.498C13.1884 2.75 13.748 3.30964 13.748 4V9C13.748 11.192 12.5505 12.7496 11.2731 13.795C10.6365 14.316 9.99624 14.6948 9.51402 14.9433C9.30658 15.0502 9.13016 15.1321 8.99821 15.19C8.86624 15.1321 8.6898 15.0502 8.48235 14.9433C8.0001 14.6948 7.3598 14.316 6.7231 13.795C5.44564 12.7496 4.24805 11.192 4.24805 9V4ZM8.74121 16.7054C8.74153 16.7055 8.74183 16.7056 8.99822 16.0008L8.74183 16.7056C8.90745 16.7658 9.089 16.7658 9.25462 16.7056L8.99822 16.0008C9.25462 16.7056 9.25492 16.7055 9.25524 16.7054L9.25598 16.7051L9.25784 16.7044L9.26308 16.7025L9.27946 16.6963C9.29296 16.6912 9.31158 16.6841 9.33497 16.6749C9.38174 16.6564 9.44769 16.6297 9.53007 16.5944C9.6947 16.5238 9.92573 16.4186 10.2011 16.2767C10.7501 15.9938 11.4848 15.56 12.2231 14.9558C13.6957 13.7508 15.248 11.808 15.248 9V4C15.248 2.48122 14.0168 1.25 12.498 1.25H5.49805C3.97926 1.25 2.74805 2.48122 2.74805 4V9C2.74805 11.808 4.30054 13.7508 5.77316 14.9558C6.51151 15.56 7.24625 15.9938 7.79528 16.2767C8.07068 16.4186 8.30173 16.5238 8.46637 16.5944C8.54875 16.6297 8.6147 16.6564 8.66148 16.6749C8.68487 16.6841 8.70349 16.6912 8.71699 16.6963L8.73337 16.7025L8.7386 16.7044L8.74047 16.7051L8.74121 16.7054ZM10.4219 6.02001C10.6871 5.7018 11.16 5.65881 11.4782 5.92398C11.7964 6.18916 11.8394 6.66208 11.5742 6.98029L9.07421 9.98029C8.93931 10.1422 8.74254 10.2398 8.53203 10.2494C8.32153 10.2589 8.11672 10.1795 7.96772 10.0305L6.46772 8.53048C6.17482 8.23759 6.17482 7.76271 6.46772 7.46982C6.76061 7.17693 7.23548 7.17693 7.52838 7.46982L8.44765 8.38909L10.4219 6.02001Z" fill="#74757A"/>
</svg>
