<svg width="24" height="24" viewBox="0 0 24 24" fill="none" xmlns="http://www.w3.org/2000/svg">
<path fill-rule="evenodd" clip-rule="evenodd" d="M5.7513 5.66797C5.7513 4.60942 6.60942 3.7513 7.66797 3.7513H16.3346C17.3932 3.7513 18.2513 4.60942 18.2513 5.66797V12.0008C18.2513 14.9101 16.6754 16.9681 15.0236 18.3336C14.1993 19.0149 13.3716 19.5095 12.7489 19.8337C12.4385 19.9953 12.1813 20.1133 12.0042 20.19L12.0015 20.1912L11.9988 20.19C11.8217 20.1133 11.5645 19.9953 11.254 19.8337C10.6313 19.5095 9.80352 19.0149 8.97925 18.3336C7.32731 16.9681 5.7513 14.9101 5.7513 12.0008V5.66797ZM11.7422 21.705C11.7425 21.7052 11.7428 21.7053 12.0015 21.0013L11.7428 21.7053C11.9098 21.7666 12.0932 21.7666 12.2602 21.7053L12.0015 21.0013C12.2602 21.7053 12.2605 21.7052 12.2609 21.705L12.2616 21.7047L12.2637 21.704L12.2698 21.7017L12.2894 21.6943C12.3058 21.688 12.3286 21.6792 12.3575 21.6677C12.4153 21.6447 12.4974 21.611 12.6003 21.5665C12.8061 21.4774 13.0958 21.3442 13.4415 21.1642C14.1313 20.8052 15.0535 20.2549 15.9793 19.4897C17.8273 17.962 19.7513 15.5197 19.7513 12.0008V5.66797C19.7513 3.781 18.2216 2.2513 16.3346 2.2513H7.66797C5.781 2.2513 4.2513 3.781 4.2513 5.66797V12.0008C4.2513 15.5197 6.1754 17.962 8.02357 19.4897C8.94935 20.255 9.87163 20.8052 10.5615 21.1642C10.9072 21.3442 11.1969 21.4774 11.4027 21.5665C11.5056 21.611 11.5877 21.6447 11.6455 21.6677C11.6744 21.6792 11.6973 21.688 11.7136 21.6943L11.7333 21.7017L11.7393 21.704L11.7414 21.7048L11.7422 21.705ZM14.4541 8.48835C14.7374 8.18616 15.2121 8.17085 15.5143 8.45415C15.8164 8.73745 15.8318 9.21207 15.5485 9.51426L11.7985 13.5143C11.5205 13.8108 11.0568 13.8319 10.753 13.5619L8.50303 11.5619C8.19344 11.2867 8.16556 10.8126 8.44074 10.503C8.71593 10.1934 9.18999 10.1656 9.49957 10.4407L11.2037 11.9555L14.4541 8.48835Z" fill="#12131B"/>
</svg>
