<svg width="24" height="24" viewBox="0 0 24 24" fill="none" xmlns="http://www.w3.org/2000/svg">
<path fill-rule="evenodd" clip-rule="evenodd" d="M2.25 7.54452C2.25 5.72501 3.72501 4.25 5.54452 4.25H16.5445H18.4555C20.275 4.25 21.75 5.72501 21.75 7.54452V16.4555C21.75 18.275 20.275 19.75 18.4555 19.75H16.5445H5.54452C3.72501 19.75 2.25 18.275 2.25 16.4555V7.54452ZM5.54452 5.75H13.7812C13.4452 6.2663 13.25 6.88261 13.25 7.54452V11.25H8.81066L10.0303 10.0303C10.3232 9.73744 10.3232 9.26256 10.0303 8.96967C9.73744 8.67678 9.26256 8.67678 8.96967 8.96967L6.46967 11.4697C6.17678 11.7626 6.17678 12.2374 6.46967 12.5303L8.96967 15.0303C9.26256 15.3232 9.73744 15.3232 10.0303 15.0303C10.3232 14.7374 10.3232 14.2626 10.0303 13.9697L8.81066 12.75H13.25V16.4555C13.25 17.1174 13.4452 17.7337 13.7812 18.25H5.54452C4.55343 18.25 3.75 17.4466 3.75 16.4555V7.54452C3.75 6.55343 4.55343 5.75 5.54452 5.75ZM14.75 12V16.4555C14.75 17.4466 15.5534 18.25 16.5445 18.25H18.4555C19.4466 18.25 20.25 17.4466 20.25 16.4555V7.54452C20.25 6.55343 19.4466 5.75 18.4555 5.75H16.5445C15.5534 5.75 14.75 6.55343 14.75 7.54452V12Z" fill="#12131B"/>
</svg>
