<svg width="24" height="24" viewBox="0 0 24 24" fill="none" xmlns="http://www.w3.org/2000/svg">
<path fill-rule="evenodd" clip-rule="evenodd" d="M5.54452 4.24854C3.72501 4.24854 2.25 5.72354 2.25 7.54305V16.454C2.25 18.2735 3.72501 19.7485 5.54452 19.7485H18.4555C20.275 19.7485 21.75 18.2735 21.75 16.454V7.54305C21.75 5.72354 20.275 4.24854 18.4555 4.24854H5.54452ZM3.75 7.54305C3.75 6.55197 4.55343 5.74854 5.54452 5.74854H12.742C12.2835 6.20874 12 6.84353 12 7.54452V16.4555C12 17.155 12.2823 17.7886 12.7391 18.2485H5.54452C4.55343 18.2485 3.75 17.4451 3.75 16.454V7.54305Z" fill="#12131B"/>
</svg>
