<svg width="18" height="18" viewBox="0 0 18 18" fill="none" xmlns="http://www.w3.org/2000/svg">
<path fill-rule="evenodd" clip-rule="evenodd" d="M5.50079 3.75C4.8912 3.74936 4.26752 3.98395 3.813 4.47398L3.81293 4.47391L3.80513 4.4826L2.44226 5.99859C2.16533 6.30662 2.19056 6.78083 2.49859 7.05775C2.80663 7.33467 3.28083 7.30945 3.55776 7.00141L4.75265 5.67228L4.75069 13.4983C4.75059 13.9125 5.08629 14.2483 5.50051 14.2484C5.91472 14.2485 6.25059 13.9128 6.25069 13.4986L6.25265 5.67583L7.44182 7.00093C7.71848 7.30921 8.19266 7.33484 8.50094 7.05819C8.80921 6.78153 8.83485 6.30735 8.55819 5.99907L7.1983 4.48375L7.19837 4.48368L7.19032 4.47499C6.73513 3.98362 6.10624 3.75063 5.50079 3.75ZM12.5004 14.2562C13.11 14.2568 13.7336 14.0222 14.1882 13.5322L14.1882 13.5323L14.196 13.5236L15.5589 12.0076C15.8358 11.6996 15.8106 11.2254 15.5026 10.9484C15.1945 10.6715 14.7203 10.6967 14.4434 11.0048L13.2485 12.3339L13.2508 4.5047C13.2509 4.09049 12.9152 3.7546 12.501 3.75449C12.0868 3.75437 11.7509 4.09006 11.7508 4.50427L11.7485 12.3304L10.5593 11.0053C10.2827 10.697 9.8085 10.6713 9.50022 10.948C9.19194 11.2247 9.16631 11.6988 9.44296 12.0071L10.8029 13.5224L10.8028 13.5225L10.8108 13.5312C11.266 14.0226 11.8949 14.2556 12.5004 14.2562Z" fill="#12131B"/>
</svg>
