<svg width="12" height="12" viewBox="0 0 12 12" fill="none" xmlns="http://www.w3.org/2000/svg">
<path d="M5.06094 8.57171H3.68066V0.428586C3.68066 0.314918 3.63218 0.205905 3.5459 0.12553C3.45961 0.0451544 3.34259 0 3.22056 0H2.30037C2.17835 0 2.06132 0.0451544 1.97504 0.12553C1.88875 0.205905 1.84028 0.314918 1.84028 0.428586V8.57171H0.45999C0.0519428 8.57171 -0.154237 9.03351 0.135335 9.30326L2.43581 11.8748C2.52209 11.9551 2.63907 12.0002 2.76104 12.0002C2.88301 12.0002 3 11.9551 3.08627 11.8748L5.38675 9.30326C5.67488 9.03405 5.46985 8.57171 5.06094 8.57171Z" fill="#3A2F45"/>
<path d="M6.93906 3.42853L8.31934 3.42853L8.31934 11.5717C8.31934 11.6853 8.36782 11.7943 8.4541 11.8747C8.54038 11.9551 8.65741 12.0002 8.77944 12.0002L9.69963 12.0002C9.82165 12.0002 9.93868 11.9551 10.025 11.8747C10.1112 11.7943 10.1597 11.6853 10.1597 11.5717L10.1597 3.42853L11.54 3.42853C11.9481 3.42853 12.1542 2.96673 11.8647 2.69699L9.56419 0.125475C9.47791 0.0451604 9.36093 4.441e-05 9.23896 4.44001e-05C9.11699 4.43901e-05 9 0.0451603 8.91373 0.125475L6.61325 2.69699C6.32512 2.96619 6.53015 3.42853 6.93906 3.42853Z" fill="#3A2F45"/>
</svg>
