<svg width="24" height="24" viewBox="0 0 24 24" fill="none" xmlns="http://www.w3.org/2000/svg">
<path fill-rule="evenodd" clip-rule="evenodd" d="M5.03011 9.53055C4.73709 9.82332 4.26222 9.82312 3.96945 9.53011C3.67668 9.23709 3.67688 8.76222 3.96989 8.46945L6.97242 5.46945C7.11313 5.32885 7.30393 5.24992 7.50285 5.25C7.70176 5.25008 7.89249 5.32918 8.03308 5.46989L11.0306 8.46989C11.3233 8.76291 11.3231 9.23778 11.0301 9.53055C10.7371 9.82332 10.2622 9.82312 9.96945 9.53011L8.25253 7.81174L8.25253 18C8.25253 18.4142 7.91674 18.75 7.50253 18.75C7.08832 18.75 6.75253 18.4142 6.75253 18L6.75253 7.80958L5.03011 9.53055ZM12.9696 15.5302C12.6767 15.2373 12.6768 14.7624 12.9698 14.4696C13.2627 14.1767 13.7376 14.1768 14.0304 14.4698L15.7491 16.1891V6C15.7491 5.58579 16.0849 5.25 16.4991 5.25C16.9133 5.25 17.2491 5.58579 17.2491 6V16.1898L18.9697 14.4696C19.2627 14.1767 19.7375 14.1768 20.0304 14.4697C20.3233 14.7627 20.3232 15.2375 20.0303 15.5304L17.0294 18.5306C16.8887 18.6712 16.6979 18.7502 16.499 18.7502C16.3001 18.7501 16.1093 18.6711 15.9687 18.5304L12.9696 15.5302Z" fill="#12131B"/>
</svg>
