<svg width="24" height="24" viewBox="0 0 24 24" fill="none" xmlns="http://www.w3.org/2000/svg">
<path fill-rule="evenodd" clip-rule="evenodd" d="M8.04414 2.01953C4.71684 2.01953 2.01953 4.71684 2.01953 8.04414V15.9561C2.01953 19.2834 4.71684 21.9807 8.04414 21.9807H15.9561C19.2834 21.9807 21.9807 19.2833 21.9807 15.9561V8.04414C21.9807 4.71684 19.2833 2.01953 15.9561 2.01953H8.04414ZM3.51953 8.04414C3.51953 5.54527 5.54527 3.51953 8.04414 3.51953H15.9561C18.4549 3.51953 20.4807 5.54527 20.4807 8.04414V15.9561C20.4807 18.4549 18.4549 20.4807 15.9561 20.4807H8.04414C5.54527 20.4807 3.51953 18.4549 3.51953 15.9561V8.04414ZM10.0981 7.75C8.80019 7.75 7.74805 8.80213 7.74805 10.1V13.9C7.74805 15.1979 8.80019 16.25 10.0981 16.25H13.8981C15.1959 16.25 16.2481 15.1979 16.2481 13.9V10.1C16.2481 8.80213 15.1959 7.75 13.8981 7.75H10.0981ZM9.24805 10.1C9.24805 9.63056 9.62861 9.25 10.0981 9.25H13.8981C14.3675 9.25 14.7481 9.63056 14.7481 10.1V13.9C14.7481 14.3694 14.3675 14.75 13.8981 14.75H10.0981C9.62861 14.75 9.24805 14.3694 9.24805 13.9V10.1Z" fill="#12131B"/>
</svg>
