<svg width="24" height="24" viewBox="0 0 24 24" fill="none" xmlns="http://www.w3.org/2000/svg">
<path fill-rule="evenodd" clip-rule="evenodd" d="M2 8.23774C2 4.79273 4.79273 2 8.23774 2H15.7623C19.2073 2 22 4.79273 22 8.23774V15.7623C22 19.2073 19.2073 22 15.7623 22H8.23774C4.79273 22 2 19.2073 2 15.7623V8.23774ZM10.0988 7.74849C8.80075 7.74849 7.74849 8.80075 7.74849 10.0988V13.8982C7.74849 15.1962 8.80075 16.2485 10.0988 16.2485H13.8982C15.1962 16.2485 16.2485 15.1962 16.2485 13.8982V10.0988C16.2485 8.80075 15.1962 7.74849 13.8982 7.74849H10.0988ZM9.24849 10.0988C9.24849 9.62918 9.62918 9.24849 10.0988 9.24849H13.8982C14.3678 9.24849 14.7485 9.62918 14.7485 10.0988V13.8982C14.7485 14.3678 14.3678 14.7485 13.8982 14.7485H10.0988C9.62918 14.7485 9.24849 14.3678 9.24849 13.8982V10.0988Z" fill="#12131B"/>
</svg>
