<svg width="24" height="24" viewBox="0 0 24 24" fill="none" xmlns="http://www.w3.org/2000/svg">
<path d="M5.68895 15.8714C5.68888 15.5672 5.93542 15.3205 6.23962 15.3204C6.54382 15.3204 6.79049 15.5669 6.79056 15.8711L6.7911 16.6644L12.861 10.5968C13.0761 10.3817 13.4249 10.3818 13.6399 10.597C13.855 10.8121 13.8549 11.1609 13.6398 11.3759L7.55471 17.4587L8.41272 17.4868C8.7169 17.4905 8.96051 17.74 8.95684 18.0442C8.95317 18.3484 8.70361 18.592 8.39943 18.5883L6.95934 18.5532C6.25576 18.5448 5.6898 17.9721 5.68963 17.2684L5.68895 15.8714Z" fill="#12131B"/>
<path d="M18.4634 8.52707C18.4635 8.83127 18.2169 9.07794 17.9127 9.07801C17.6085 9.07808 17.3619 8.83154 17.3618 8.52733L17.3612 7.73401L11.2914 13.8016C11.0762 14.0167 10.7275 14.0166 10.5124 13.8015C10.2974 13.5863 10.2974 13.2376 10.5126 13.0225L16.5976 6.93971L15.7396 6.91165C15.4354 6.90798 15.1918 6.65842 15.1955 6.35424C15.1992 6.05006 15.4487 5.80645 15.7529 5.81012L17.193 5.8452C17.8966 5.85369 18.4625 6.42638 18.4627 7.13002L18.4634 8.52707Z" fill="#12131B"/>
<path d="M13.7565 5.36699C13.9717 5.58204 13.9718 5.93079 13.7567 6.14595C13.5417 6.3611 13.1929 6.36118 12.9778 6.14613L12.4164 5.58555L12.4148 14.168C12.4148 14.4722 12.1681 14.7188 11.8639 14.7188C11.5597 14.7187 11.3132 14.472 11.3132 14.1678L11.3148 5.56385L10.6883 6.15071C10.4706 6.3632 10.1219 6.359 9.90938 6.14131C9.69688 5.92363 9.70109 5.57491 9.91877 5.36241L10.9619 4.36893C11.4654 3.87741 12.2705 3.88217 12.7682 4.3796L13.7565 5.36699Z" fill="#12131B"/>
<path d="M9.91923 19.2229C9.70408 19.0078 9.70399 18.6591 9.91905 18.4439C10.1341 18.2287 10.4829 18.2287 10.698 18.4437L11.2593 19.0043L11.2609 10.4218C11.261 10.1176 11.5076 9.87104 11.8119 9.87109C12.1161 9.87115 12.3626 10.1178 12.3626 10.422L12.361 19.026L12.9875 18.4391C13.2052 18.2266 13.5539 18.2308 13.7664 18.4485C13.9789 18.6662 13.9747 19.0149 13.757 19.2274L12.7139 20.2209C12.2104 20.7124 11.4052 20.7077 10.9076 20.2102L9.91923 19.2229Z" fill="#12131B"/>
<path d="M18.7658 14.2136C18.5508 14.4287 18.202 14.4288 17.9869 14.2138C17.7717 13.9987 17.7716 13.65 17.9867 13.4348L18.5473 12.8735L9.96477 12.8719C9.66056 12.8718 9.41401 12.6252 9.41406 12.321C9.41412 12.0168 9.66077 11.7702 9.96497 11.7703L18.569 11.7719L17.9821 11.1453C17.7696 10.9276 17.7738 10.5789 17.9915 10.3664C18.2092 10.1539 18.5579 10.1581 18.7704 10.3758L19.7639 11.4189C20.2554 11.9224 20.2506 12.7276 19.7532 13.2252L18.7658 14.2136Z" fill="#12131B"/>
<path d="M4.90996 10.3763C5.12501 10.1611 5.47376 10.161 5.68891 10.3761C5.90407 10.5911 5.90415 10.9399 5.6891 11.155L5.12852 11.7164L13.711 11.718C14.0152 11.718 14.2618 11.9647 14.2617 12.2689C14.2617 12.5731 14.015 12.8196 13.7108 12.8196L5.10682 12.818L5.69368 13.4445C5.90617 13.6622 5.90196 14.0109 5.68428 14.2234C5.4666 14.4359 5.11787 14.4317 4.90538 14.214L3.91189 13.1709C3.42038 12.6674 3.42514 11.8623 3.92257 11.3646L4.90996 10.3763Z" fill="#12131B"/>
<path d="M15.7464 18.5884C15.4422 18.5885 15.1955 18.3419 15.1954 18.0377C15.1954 17.7335 15.4419 17.4869 15.7461 17.4868L16.5394 17.4862L10.4718 11.4164C10.2567 11.2012 10.2568 10.8525 10.472 10.6374C10.6871 10.4224 11.0359 10.4224 11.2509 10.6376L17.3337 16.7226L17.3618 15.8646C17.3655 15.5604 17.615 15.3168 17.9192 15.3205C18.2234 15.3242 18.467 15.5737 18.4633 15.8779L18.4282 17.318C18.4198 18.0216 17.8471 18.5875 17.1434 18.5877L15.7464 18.5884Z" fill="#12131B"/>
<path d="M8.40988 5.81004C8.71409 5.80997 8.96075 6.05651 8.96082 6.36072C8.96089 6.66492 8.71435 6.91158 8.41015 6.91166L7.61682 6.91219L13.6844 12.9821C13.8995 13.1972 13.8994 13.546 13.6843 13.761C13.4692 13.9761 13.1204 13.976 12.9053 13.7609L6.82253 7.67581L6.79446 8.53381C6.79079 8.83799 6.54123 9.0816 6.23705 9.07793C5.93287 9.07427 5.68926 8.82471 5.69293 8.52053L5.72801 7.08044C5.7365 6.37685 6.30919 5.81089 7.01283 5.81072L8.40988 5.81004Z" fill="#12131B"/>
</svg>
