<?xml version="1.0" encoding="UTF-8"?>
<svg width="68px" height="65px" viewBox="0 0 68 65" version="1.1" xmlns="http://www.w3.org/2000/svg" xmlns:xlink="http://www.w3.org/1999/xlink">
    <!-- Generator: Sketch 40.3 (33839) - http://www.bohemiancoding.com/sketch -->
    <title>noun_537691_3EB995</title>
    <desc>Created with Sketch.</desc>
    <defs></defs>
    <g id="Icons" stroke="none" stroke-width="1" fill="none" fill-rule="evenodd">
        <g id="noun_537691_3EB995" fill="#3EB995">
            <g id="Group">
                <path d="M35.5,1.7 L44.5,19.9 C44.8,20.4 45.3,20.8 45.8,20.9 L65.8,23.8 C67.2,24 67.8,25.8 66.8,26.8 L52.3,40.9 C51.9,41.3 51.7,41.9 51.8,42.5 L55.2,62.5 C55.4,63.9 53.9,65 52.7,64.4 L34.8,55 C34.3,54.7 33.7,54.7 33.2,55 L15.3,64.4 C14,65.1 12.5,64 12.8,62.5 L16.2,42.5 C16.3,41.9 16.1,41.3 15.7,40.9 L1,26.7 C-1.24344979e-14,25.7 0.5,23.9 2,23.7 L22,20.8 C22.6,20.7 23.1,20.4 23.3,19.8 L32.3,1.6 C33,0.4 34.8,0.4 35.5,1.7 L35.5,1.7 Z" id="Shape"></path>
            </g>
        </g>
    </g>
</svg>