<svg width="14" height="14" viewBox="0 0 14 14" fill="none" xmlns="http://www.w3.org/2000/svg">
<path d="M12.1567 2.68925C11.8587 2.39117 11.505 2.15472 11.1156 1.99339C10.7263 1.83206 10.309 1.74902 9.8875 1.74902C9.46605 1.74902 9.04873 1.83206 8.65938 1.99339C8.27003 2.15472 7.91628 2.39117 7.61834 2.68925L7 3.30759L6.38167 2.68925C5.77985 2.08743 4.9636 1.74934 4.1125 1.74934C3.2614 1.74934 2.44516 2.08743 1.84334 2.68925C1.24151 3.29108 0.903416 4.10732 0.903416 4.95842C0.903416 5.80952 1.24151 6.62577 1.84334 7.22759L2.46167 7.84592L7 12.3843L11.5383 7.84592L12.1567 7.22759C12.4547 6.92965 12.6912 6.5759 12.8525 6.18654C13.0139 5.79719 13.0969 5.37987 13.0969 4.95842C13.0969 4.53697 13.0139 4.11965 12.8525 3.7303C12.6912 3.34095 12.4547 2.9872 12.1567 2.68925V2.68925Z" stroke="#96A0B5" stroke-width="1.27273" stroke-linecap="round" stroke-linejoin="round"/>
</svg>
