<svg width="18" height="18" viewBox="0 0 18 18" fill="none" xmlns="http://www.w3.org/2000/svg">
<path fill-rule="evenodd" clip-rule="evenodd" d="M9.00419 3.42347C10.8039 1.83145 13.6546 1.86836 15.4015 3.54599C17.2062 5.27917 17.1947 8.1794 15.3956 9.90728L15.3945 9.90825L9.79943 15.2616L9.52012 15.5355C9.22734 15.8226 8.75828 15.8213 8.46705 15.5327L8.19306 15.2611L8.19291 15.261L8.19264 15.2607L2.60637 9.89586C0.804771 8.16567 0.792989 5.27321 2.60042 3.53742C4.35165 1.8556 7.20525 1.82569 9.00419 3.42347ZM8.09475 4.62501C6.88313 3.46142 4.84953 3.45716 3.63942 4.6193C2.45044 5.76116 2.45465 7.67045 3.64537 8.81397L8.99694 13.9534L14.3566 8.8254C14.3567 8.82526 14.3568 8.82513 14.357 8.82499C15.5448 7.6838 15.5487 5.76705 14.3625 4.62787C13.1531 3.46638 11.1174 3.46845 9.90718 4.63073L9.52344 4.99926C9.23319 5.278 8.77468 5.278 8.48444 4.99926L8.09475 4.62501L8.61425 4.08407L8.09475 4.62501Z" fill="#12131B"/>
</svg>
