<svg width="590" height="512" viewBox="0 0 590 512" fill="none" xmlns="http://www.w3.org/2000/svg">
<path d="M528.234 36.9293C461.629 -18.5985 358.724 -10.2579 295 54.0675C231.275 -10.2579 128.371 -18.7127 61.7657 36.9293C-24.8905 109.252 -12.2147 227.163 49.5509 289.66L251.672 493.834C263.195 505.487 278.637 512 295 512C311.478 512 326.805 505.602 338.328 493.948L540.449 289.775C602.099 227.277 615.006 109.367 528.234 36.9293V36.9293ZM501.039 251.157L298.918 455.33C296.152 458.072 293.848 458.072 291.082 455.33L88.961 251.157C46.9005 208.654 38.3732 128.219 97.3731 78.975C142.199 41.6137 211.34 47.2122 254.668 90.9717L295 131.761L335.332 90.9717C378.89 46.9837 448.031 41.6137 492.627 78.8607C551.511 128.104 542.754 208.997 501.039 251.157V251.157Z" fill="#3A2F45"/>
</svg>
