<svg width="24" height="24" viewBox="0 0 24 24" fill="none" xmlns="http://www.w3.org/2000/svg">
<path fill-rule="evenodd" clip-rule="evenodd" d="M18.9744 3.99849C18.9741 3.58449 18.6384 3.24902 18.2244 3.24902C17.8104 3.24902 17.4747 3.58449 17.4744 3.99849C17.4736 5.05598 16.6147 5.91494 15.5572 5.91569C15.1432 5.91598 14.8077 6.25168 14.8077 6.66569C14.8077 7.0797 15.1432 7.4154 15.5572 7.41569C16.6147 7.41644 17.4736 8.2754 17.4744 9.33289C17.4747 9.74689 17.8104 10.0824 18.2244 10.0824C18.6384 10.0824 18.9741 9.74689 18.9744 9.33289C18.9751 8.2754 19.8341 7.41644 20.8916 7.41569C21.3056 7.4154 21.6411 7.0797 21.6411 6.66569C21.6411 6.25168 21.3056 5.91598 20.8916 5.91569C19.8341 5.91494 18.9751 5.05598 18.9744 3.99849ZM17.6919 6.66569C17.8883 6.50824 18.0669 6.32956 18.2244 6.13315C18.3818 6.32956 18.5605 6.50824 18.7569 6.66569C18.5605 6.82315 18.3818 7.00182 18.2244 7.19823C18.0669 7.00182 17.8883 6.82315 17.6919 6.66569ZM10.5296 6.66516C10.5293 6.25115 10.1936 5.91569 9.77961 5.91569C9.3656 5.91569 9.0299 6.25115 9.02961 6.66516C9.0273 9.93199 6.37958 12.5797 3.11275 12.582C2.69874 12.5823 2.36328 12.918 2.36328 13.332C2.36328 13.746 2.69874 14.0817 3.11275 14.082C6.37948 14.0843 9.0273 16.7326 9.02961 19.9996C9.0299 20.4136 9.3656 20.749 9.77961 20.749C10.1936 20.749 10.5293 20.4136 10.5296 19.9996C10.5319 16.7328 13.1802 14.085 16.4471 14.0827C16.8612 14.0824 17.1966 13.7467 17.1966 13.3327C17.1966 12.9187 16.8612 12.583 16.4471 12.5827C13.1803 12.5804 10.5319 9.93199 10.5296 6.66516ZM9.7797 16.749C9.05414 15.2644 7.84771 14.0578 6.36325 13.3321C7.84766 12.6065 9.05407 11.4001 9.77964 9.91572C10.5053 11.4003 11.7119 12.6069 13.1965 13.3326C11.712 14.0582 10.5054 15.2646 9.7797 16.749Z" fill="#A9A9B1"/>
</svg>
