<svg width="18" height="18" viewBox="0 0 18 18" fill="none" xmlns="http://www.w3.org/2000/svg">
<path fill-rule="evenodd" clip-rule="evenodd" d="M9 2.25C6.92893 2.25 5.25 3.92893 5.25 6C5.25 6.94344 5.62908 7.68439 6.17893 8.25H3C2.58579 8.25 2.25 8.58579 2.25 9C2.25 9.41421 2.58579 9.75 3 9.75H8.9827C8.99433 9.75027 9.00594 9.75027 9.01751 9.75H15C15.4142 9.75 15.75 9.41421 15.75 9C15.75 8.58579 15.4142 8.25 15 8.25H9.12388C8.45424 8.01813 7.8547 7.73085 7.42457 7.3635C6.9922 6.99424 6.75 6.56493 6.75 6C6.75 4.75736 7.75736 3.75 9 3.75C10.2426 3.75 11.25 4.75736 11.25 6C11.25 6.41421 11.5858 6.75 12 6.75C12.4142 6.75 12.75 6.41421 12.75 6C12.75 3.92893 11.0711 2.25 9 2.25ZM13.0291 10.9297C12.8644 10.5496 12.4229 10.3749 12.0428 10.5395C11.6627 10.7042 11.488 11.1457 11.6526 11.5258C11.7151 11.6701 11.75 11.8255 11.75 12C11.75 13.1469 10.6884 14.25 9 14.25C7.31155 14.25 6.25 13.1469 6.25 12C6.25 11.5858 5.91421 11.25 5.5 11.25C5.08579 11.25 4.75 11.5858 4.75 12C4.75 14.1668 6.68845 15.75 9 15.75C11.3116 15.75 13.25 14.1668 13.25 12C13.25 11.6148 13.1708 11.2569 13.0291 10.9297Z" fill="#12131B"/>
</svg>
