<svg width="24" height="24" viewBox="0 0 24 24" fill="none" xmlns="http://www.w3.org/2000/svg">
<g clip-path="url(#clip0_17931_46307)">
<path d="M11.9977 4.9375C8.06484 4.9375 4.86328 8.13906 4.86328 12.0719C4.86328 16.0047 8.06484 19.2062 11.9977 19.2062C15.9305 19.2062 19.132 16.0047 19.132 12.0719C19.132 8.13438 15.9305 4.9375 11.9977 4.9375ZM11.9977 17.2891C9.11953 17.2891 6.77578 14.9453 6.77578 12.0672C6.77578 9.18906 9.11953 6.84531 11.9977 6.84531C14.8758 6.84531 17.2195 9.18906 17.2195 12.0672C17.2195 14.9453 14.8758 17.2891 11.9977 17.2891Z" fill="black"/>
<path d="M11.9992 3.50234C12.5289 3.50234 12.9555 3.07578 12.9555 2.54609V1.46797C12.9555 0.938281 12.5289 0.511719 11.9992 0.511719C11.4695 0.511719 11.043 0.938281 11.043 1.46797V2.54609C11.043 3.07578 11.4695 3.50234 11.9992 3.50234Z" fill="black"/>
<path d="M11.9992 20.4883C11.4695 20.4883 11.043 20.9148 11.043 21.4445V22.518C11.043 23.0477 11.4695 23.4742 11.9992 23.4742C12.5289 23.4742 12.9555 23.0477 12.9555 22.518V21.4445C12.9555 20.9195 12.5289 20.4883 11.9992 20.4883Z" fill="black"/>
<path d="M22.5227 11.043H21.4445C20.9148 11.043 20.4883 11.4695 20.4883 11.9992C20.4883 12.5289 20.9148 12.9555 21.4445 12.9555H22.5227C23.0523 12.9555 23.4789 12.5289 23.4789 11.9992C23.4789 11.4695 23.0523 11.043 22.5227 11.043Z" fill="black"/>
<path d="M2.54609 11.043H1.46797C0.938281 11.043 0.511719 11.4695 0.511719 11.9992C0.511719 12.5289 0.938281 12.9555 1.46797 12.9555H2.54141C3.07109 12.9555 3.49766 12.5289 3.49766 11.9992C3.50234 11.4695 3.07109 11.043 2.54609 11.043Z" fill="black"/>
<path d="M18.7641 3.87891L18 4.63828C17.625 5.01328 17.625 5.61797 18 5.99297C18.375 6.36797 18.9797 6.36797 19.3547 5.99297L20.1141 5.23359C20.4891 4.85859 20.4891 4.25391 20.1141 3.87891C19.7391 3.50391 19.1344 3.50391 18.7641 3.87891Z" fill="black"/>
<path d="M4.63828 17.9982L3.87891 18.7576C3.50391 19.1326 3.50391 19.7373 3.87891 20.1123C4.25391 20.4873 4.85859 20.4873 5.23359 20.1123L5.99297 19.3529C6.36797 18.9779 6.36797 18.3732 5.99297 17.9982C5.61797 17.6232 5.01328 17.6279 4.63828 17.9982Z" fill="black"/>
<path d="M19.3547 18C18.9797 17.625 18.375 17.625 18 18C17.625 18.375 17.625 18.9797 18 19.3547L18.7594 20.1141C19.1344 20.4891 19.7391 20.4891 20.1141 20.1141C20.4891 19.7391 20.4891 19.1344 20.1141 18.7594L19.3547 18Z" fill="black"/>
<path d="M4.63828 5.99297C5.01328 6.36797 5.61797 6.36797 5.99297 5.99297C6.36797 5.61797 6.36797 5.01328 5.99297 4.63828L5.23359 3.87891C4.85859 3.50391 4.25391 3.50391 3.87891 3.87891C3.50391 4.25391 3.50391 4.85859 3.87891 5.23359L4.63828 5.99297Z" fill="black"/>
</g>
<defs>
<clipPath id="clip0_17931_46307">
<rect width="24" height="24" fill="white"/>
</clipPath>
</defs>
</svg>
