<svg width="103" height="103" viewBox="0 0 103 103" fill="none" xmlns="http://www.w3.org/2000/svg">
<path d="M75.0266 26.3328C68.6154 20.3298 60.2954 17.0391 51.4688 17.0469C35.5839 17.0608 21.8703 27.9525 18.084 43.061C17.8083 44.1609 16.8285 44.9375 15.6946 44.9375H3.943C2.40532 44.9375 1.2372 43.5415 1.52164 42.0303C5.95892 18.4668 26.6472 0.640625 51.5 0.640625C65.127 0.640625 77.5021 6.00055 86.633 14.7264L93.9573 7.40205C97.0579 4.30147 102.359 6.49745 102.359 10.8824V38.375C102.359 41.0933 100.156 43.2969 97.4375 43.2969H69.9449C65.56 43.2969 63.364 37.9954 66.4646 34.8946L75.0266 26.3328V26.3328ZM5.5625 59.7031H33.0551C37.44 59.7031 39.636 65.0046 36.5354 68.1054L27.9734 76.6674C34.3846 82.6706 42.7052 85.9613 51.532 85.9533C67.4087 85.939 81.1278 75.0547 84.916 59.9394C85.1917 58.8395 86.1715 58.0629 87.3054 58.0629H99.0572C100.595 58.0629 101.763 59.4589 101.479 60.9701C97.0411 84.5332 76.3528 102.359 51.5 102.359C37.873 102.359 25.4979 96.9995 16.367 88.2736L9.04268 95.5979C5.9421 98.6985 0.640625 96.5025 0.640625 92.1176V64.625C0.640625 61.9067 2.84419 59.7031 5.5625 59.7031Z" fill="#3A2F45"/>
</svg>
