<svg width="105" height="105" viewBox="0 0 105 105" fill="none" xmlns="http://www.w3.org/2000/svg">
<mask id="mask0" mask-type="alpha" maskUnits="userSpaceOnUse" x="8" y="5" width="92" height="92">
<path d="M75.4509 28.0756C69.6926 22.6839 62.22 19.7284 54.2923 19.7354C40.0252 19.7479 27.7082 29.5304 24.3075 43.1002C24.0599 44.088 23.1798 44.7855 22.1614 44.7855H11.6067C10.2256 44.7855 9.17644 43.5317 9.43192 42.1744C13.4173 21.0107 31.9986 5 54.3203 5C66.5595 5 77.6742 9.81405 85.8752 17.6512L92.4536 11.0728C95.2384 8.28802 100 10.2603 100 14.1987V38.8914C100 41.3329 98.0209 43.312 95.5794 43.312H70.8868C66.9484 43.312 64.976 38.5504 67.7608 35.7655L75.4509 28.0756V28.0756ZM13.0612 58.0474H37.7539C41.6923 58.0474 43.6646 62.8089 40.8798 65.5939L33.1898 73.284C38.948 78.6758 46.4212 81.6314 54.349 81.6242C68.6088 81.6113 80.9308 71.8355 84.3332 58.2596C84.5807 57.2717 85.4608 56.5742 86.4792 56.5742H97.0341C98.4152 56.5742 99.4644 57.828 99.2089 59.1853C95.2233 80.3486 76.642 96.3594 54.3203 96.3594C42.0811 96.3594 30.9664 91.5453 22.7654 83.7081L16.187 90.2866C13.4022 93.0714 8.64062 91.099 8.64062 87.1606V62.468C8.64062 60.0265 10.6198 58.0474 13.0612 58.0474Z" fill="#3A2F45"/>
</mask>
<g mask="url(#mask0)">
<path d="M78.0266 25.3328C71.6154 19.3298 63.2954 16.0391 54.4688 16.0469C38.5839 16.0608 24.8703 26.9525 21.084 42.061C20.8083 43.1609 19.8285 43.9375 18.6946 43.9375H6.943C5.40532 43.9375 4.2372 42.5415 4.52164 41.0303C8.95892 17.4668 29.6472 -0.359375 54.5 -0.359375C68.127 -0.359375 80.5021 5.00055 89.633 13.7264L96.9573 6.40205C100.058 3.30147 105.359 5.49745 105.359 9.88243V37.375C105.359 40.0933 103.156 42.2969 100.438 42.2969H72.9449C68.56 42.2969 66.364 36.9954 69.4646 33.8946L78.0266 25.3328V25.3328ZM8.5625 58.7031H36.0551C40.44 58.7031 42.636 64.0046 39.5354 67.1054L30.9734 75.6674C37.3846 81.6706 45.7052 84.9613 54.532 84.9533C70.4087 84.939 84.1278 74.0547 87.916 58.9394C88.1917 57.8395 89.1715 57.0629 90.3054 57.0629H102.057C103.595 57.0629 104.763 58.4589 104.479 59.9701C100.041 83.5332 79.3528 101.359 54.5 101.359C40.873 101.359 28.4979 95.9995 19.367 87.2736L12.0427 94.5979C8.9421 97.6985 3.64062 95.5025 3.64062 91.1176V63.625C3.64062 60.9067 5.84419 58.7031 8.5625 58.7031Z" fill="#3A2F45"/>
</g>
</svg>
