<?xml version="1.0" encoding="UTF-8"?>
<svg width="86px" height="86px" viewBox="0 0 86 86" version="1.1" xmlns="http://www.w3.org/2000/svg" xmlns:xlink="http://www.w3.org/1999/xlink">
    <!-- Generator: Sketch 40.3 (33839) - http://www.bohemiancoding.com/sketch -->
    <title>noun_204363_3EB995</title>
    <desc>Created with Sketch.</desc>
    <defs></defs>
    <g id="Page-1" stroke="none" stroke-width="1" fill="none" fill-rule="evenodd">
        <g id="noun_204363_3EB995" fill="#3EB995">
            <g id="Group">
                <path d="M51.7146667,85.9811404 C49.536,85.9811404 47.2426667,85.1701754 45.6373333,83.4323935 L3.89866667,41.262218 C2.17866667,39.5244361 1.26133333,37.0915414 1.376,34.5427945 L0.114666667,8.36021303 C0.344,3.84197995 3.89866667,0.25056391 8.256,0.0188596491 L34.5146667,1.29323308 C36.808,1.17738095 39.216,2.10419799 41.0506667,3.84197995 L82.7893333,46.0121554 C86.1146667,49.3718672 86.1146667,54.9327694 82.7893333,58.4083333 L57.9066667,83.4323935 C56.1866667,85.1701754 54.008,85.9811404 51.7146667,85.9811404 L51.7146667,85.9811404 Z M8.256,2.56760652 C5.27466667,2.79931078 2.752,5.23220551 2.63733333,8.36021303 L3.89866667,34.5427945 C3.784,36.3964286 4.472,38.1342105 5.73333333,39.408584 L47.472,81.5787594 C49.88,84.0116541 53.7786667,84.0116541 56.1866667,81.5787594 L81.0693333,56.4388471 C83.4773333,54.0059524 83.4773333,50.0669799 81.0693333,47.6340852 L39.216,5.5797619 C37.9546667,4.30538847 36.2346667,3.72612782 34.5146667,3.72612782 L8.256,2.56760652 L8.256,2.56760652 Z" id="Shape"></path>
                <path d="M23.5066667,33.2684211 C21.0986667,33.2684211 18.576,32.341604 16.7413333,30.4879699 C12.9573333,26.6648496 12.9573333,20.5246867 16.7413333,16.8174185 C18.576,14.9637845 20.984,14.0369674 23.5066667,14.0369674 C26.0293333,14.0369674 28.4373333,15.0796366 30.272,16.8174185 L30.272,16.8174185 L30.272,16.8174185 C32.1066667,18.6710526 33.024,21.1039474 33.024,23.6526942 C33.024,26.2014411 31.992,28.6343358 30.272,30.4879699 C28.4373333,32.341604 26.0293333,33.2684211 23.5066667,33.2684211 L23.5066667,33.2684211 Z M23.5066667,16.4698622 C21.672,16.4698622 19.8373333,17.1649749 18.4613333,18.5552005 C15.7093333,21.3356516 15.7093333,25.8538847 18.4613333,28.6343358 C21.2133333,31.414787 25.6853333,31.414787 28.4373333,28.6343358 C29.8133333,27.2441103 30.5013333,25.5063283 30.5013333,23.5368421 C30.5013333,21.683208 29.8133333,19.8295739 28.4373333,18.4393484 L28.4373333,18.4393484 C27.176,17.2808271 25.456,16.4698622 23.5066667,16.4698622 L23.5066667,16.4698622 Z" id="Shape"></path>
            </g>
        </g>
    </g>
</svg>