<svg width="23" height="22" viewBox="0 0 23 22" fill="none" xmlns="http://www.w3.org/2000/svg">
<path d="M1.00153 8.63152L1.00345 8.60063V8.56969V1.30675C1.00866 1.17298 1.01607 1.07455 1.02511 1.00083C1.0308 1.00022 1.03672 0.999615 1.04284 0.999023H8.5306C8.69608 0.999023 9.03216 1.02744 9.35927 1.09559C9.52027 1.12912 9.6535 1.16711 9.74934 1.20434C9.78591 1.21854 9.80916 1.22961 9.82197 1.23618L15.293 6.70619L15.2985 6.7117L15.3041 6.71712L20.9558 12.1946C21.159 12.4022 21.3047 12.681 21.3497 12.9241C21.3929 13.1581 21.3331 13.2523 21.2898 13.296L21.2897 13.296L21.2828 13.3032L13.8551 20.9485C13.84 20.9628 13.7464 21.0368 13.4563 20.9767C13.1613 20.9155 12.8482 20.7414 12.65 20.5415L12.65 20.5415L12.6436 20.5352L1.22211 9.21639C1.0672 9.05874 0.987827 8.85274 1.00153 8.63152Z" stroke="#444444" stroke-width="2"/>
<path fill-rule="evenodd" clip-rule="evenodd" d="M6.0045 7C5.75262 7 5.48876 6.90361 5.29685 6.71084C4.90105 6.31325 4.90105 5.6747 5.29685 5.28916C5.48876 5.09639 5.74063 5 6.0045 5C6.26837 5 6.52024 5.10843 6.71214 5.28916C6.90405 5.48193 7 5.73494 7 6C7 6.26506 6.89205 6.51807 6.71214 6.71084C6.52024 6.90361 6.26837 7 6.0045 7Z" fill="#444444" stroke="#444444" stroke-width="1.5"/>
</svg>
