<?xml version="1.0" encoding="UTF-8"?>
<svg width="86px" height="86px" viewBox="0 0 86 86" version="1.1" xmlns="http://www.w3.org/2000/svg" xmlns:xlink="http://www.w3.org/1999/xlink">
    <!-- Generator: Sketch 40.3 (33839) - http://www.bohemiancoding.com/sketch -->
    <title>Slice</title>
    <desc>Created with Sketch.</desc>
    <defs>
        <path d="M49.3093333,81.9820175 C47.232,81.9820175 45.0453333,81.2087719 43.5146667,79.551817 L3.71733333,39.3430451 C2.07733333,37.6860902 1.20266667,35.3663534 1.312,32.9361529 L0.109333333,7.97136591 C0.328,3.66328321 3.71733333,0.238909774 7.872,0.0179824561 L32.9093333,1.23308271 C35.096,1.12261905 37.392,2.00632832 39.1413333,3.66328321 L78.9386667,43.8720551 C82.1093333,47.0755013 82.1093333,52.3777569 78.9386667,55.6916667 L55.2133333,79.551817 C53.5733333,81.2087719 51.496,81.9820175 49.3093333,81.9820175 L49.3093333,81.9820175 Z M7.872,2.44818296 C5.02933333,2.66911028 2.624,4.98884712 2.51466667,7.97136591 L3.71733333,32.9361529 C3.608,34.7035714 4.264,36.3605263 5.46666667,37.5756266 L45.264,77.7843985 C47.56,80.1041353 51.2773333,80.1041353 53.5733333,77.7843985 L77.2986667,53.8137845 C79.5946667,51.4940476 79.5946667,47.7382832 77.2986667,45.4185464 L37.392,5.3202381 C36.1893333,4.10513784 34.5493333,3.55281955 32.9093333,3.55281955 L7.872,2.44818296 L7.872,2.44818296 Z" id="path-1"></path>
        <mask id="mask-2" maskContentUnits="userSpaceOnUse" maskUnits="objectBoundingBox" x="-2" y="-2" width="85.2073333" height="85.9640351">
            <rect x="-1.89066667" y="-1.98201754" width="85.2073333" height="85.9640351" fill="white"></rect>
            <use xlink:href="#path-1" fill="black"></use>
        </mask>
    </defs>
    <g id="Page-1" stroke="none" stroke-width="1" fill="none" fill-rule="evenodd">
        <g id="noun_204363_3EB995" transform="translate(2.000000, 2.000000)">
            <g id="Group">
                <g id="Shape">
                    <use fill="#3EB995" fill-rule="evenodd" xlink:href="#path-1"></use>
                    <use stroke="#3EB995" mask="url(#mask-2)" stroke-width="4" xlink:href="#path-1"></use>
                </g>
                <path d="M22.4133333,31.7210526 C20.1173333,31.7210526 17.712,30.8373434 15.9626667,29.0699248 C12.3546667,25.4246241 12.3546667,19.5700501 15.9626667,16.035213 C17.712,14.2677945 20.008,13.3840852 22.4133333,13.3840852 C24.8186667,13.3840852 27.1146667,14.3782581 28.864,16.035213 L28.864,16.035213 L28.864,16.035213 C30.6133333,17.8026316 31.488,20.1223684 31.488,22.5525689 C31.488,24.9827694 30.504,27.3025063 28.864,29.0699248 C27.1146667,30.8373434 24.8186667,31.7210526 22.4133333,31.7210526 L22.4133333,31.7210526 Z M22.4133333,15.7038221 C20.664,15.7038221 18.9146667,16.366604 17.6026667,17.6921679 C14.9786667,20.3432957 14.9786667,24.6513784 17.6026667,27.3025063 C20.2266667,29.9536341 24.4906667,29.9536341 27.1146667,27.3025063 C28.4266667,25.9769424 29.0826667,24.3199875 29.0826667,22.4421053 C29.0826667,20.6746867 28.4266667,18.9072682 27.1146667,17.5817043 L27.1146667,17.5817043 C25.912,16.4770677 24.272,15.7038221 22.4133333,15.7038221 L22.4133333,15.7038221 Z" id="Shape" stroke="#3EB995" stroke-width="3" fill="#3EB995"></path>
            </g>
        </g>
    </g>
</svg>