<svg width="73" height="64" viewBox="0 0 73 64" fill="none" xmlns="http://www.w3.org/2000/svg">
<path d="M21.47 7.54769C23.1517 5.51607 25.6518 4.34012 28.2891 4.34012H60.2754C65.1644 4.34012 69.1278 8.30348 69.1278 13.1925V51.4106C69.1278 56.2997 65.1644 60.263 60.2754 60.263H28.3177C25.6685 60.263 23.1585 59.0765 21.477 57.0293L5.70618 37.8284C3.01584 34.553 3.02488 29.8301 5.72774 26.5649L21.47 7.54769Z" fill="#3A2F45" stroke="#3A2F45" stroke-width="6.71563"/>
<path d="M26.5753 32.3625C26.5753 36.4086 23.2952 39.6887 19.2491 39.6887C15.203 39.6887 11.923 36.4086 11.923 32.3625C11.923 28.3164 15.203 25.0364 19.2491 25.0364C23.2952 25.0364 26.5753 28.3164 26.5753 32.3625Z" fill="white"/>
</svg>
