<svg width="73" height="64" viewBox="0 0 73 64" fill="none" xmlns="http://www.w3.org/2000/svg">
<path d="M21.348 7.46603C23.0298 5.43441 25.5298 4.25845 28.1672 4.25845H60.1534C65.0425 4.25845 69.0058 8.22181 69.0058 13.1109V51.3289C69.0058 56.218 65.0425 60.1814 60.1534 60.1814H28.1957C25.5465 60.1814 23.0365 58.9948 21.355 56.9476L5.58423 37.7468C2.89389 34.4713 2.90293 29.7484 5.60579 26.4832L21.348 7.46603Z" stroke="#3A2F45" stroke-width="6.71563"/>
<path d="M26.4531 32.2811C26.4531 36.3272 23.173 39.6072 19.1269 39.6072C15.0808 39.6072 11.8008 36.3272 11.8008 32.2811C11.8008 28.235 15.0808 24.955 19.1269 24.955C23.173 24.955 26.4531 28.235 26.4531 32.2811Z" fill="#3A2F45"/>
</svg>
