<svg width="591" height="513" viewBox="0 0 591 513" fill="none" xmlns="http://www.w3.org/2000/svg">
<path d="M229.038 27.5H491C531.041 27.5 563.5 59.9594 563.5 100V413C563.5 453.041 531.041 485.5 491 485.5H229.272C207.575 485.5 187.018 475.783 173.247 459.016L44.0867 301.764C22.0532 274.939 22.1272 236.259 44.2632 209.518L173.19 53.7696C186.963 37.1309 207.438 27.5 229.038 27.5Z" fill="#3A2F45" stroke="#3A2F45" stroke-width="55"/>
<path d="M215 257C215 290.137 188.137 317 155 317C121.863 317 95 290.137 95 257C95 223.863 121.863 197 155 197C188.137 197 215 223.863 215 257Z" fill="white"/>
</svg>
