<?xml version="1.0" encoding="UTF-8"?>
<svg width="17px" height="17px" viewBox="0 0 17 17" version="1.1" xmlns="http://www.w3.org/2000/svg" xmlns:xlink="http://www.w3.org/1999/xlink">
    <!-- Generator: Sketch 51.3 (57544) - http://www.bohemiancoding.com/sketch -->
    <title>noun_Tag_190224</title>
    <desc>Created with Sketch.</desc>
    <defs></defs>
    <g id="New-Overview" stroke="none" stroke-width="1" fill="none" fill-rule="evenodd">
        <g id="Annotation-search-overview" transform="translate(-1246.000000, -328.000000)" fill="#173766" fill-rule="nonzero">
            <g id="noun_Tag_190224" transform="translate(1246.000000, 328.000000)">
                <g id="Group">
                    <path d="M16.4609756,8.85243902 L8.39634146,0.767073171 C7.9195122,0.290243902 7.29756098,0.0414634146 6.63414634,0.0414634146 L5.18292683,0.0414634146 C4.5195122,0.0414634146 3.89756098,0.31097561 3.42073171,0.767073171 L0.767073171,3.42073171 C0.290243902,3.89756098 0.0414634146,4.5195122 0.0414634146,5.18292683 L0.0414634146,6.63414634 C0.0414634146,7.29756098 0.31097561,7.9195122 0.767073171,8.39634146 L8.83170732,16.4609756 C9.47439024,17.1036585 10.5317073,17.1036585 11.1743902,16.4609756 L16.4609756,11.195122 C17.1243902,10.5317073 17.1243902,9.49512195 16.4609756,8.85243902 Z M15.8804878,10.5939024 L10.5939024,15.8804878 C10.2621951,16.2121951 9.74390244,16.2121951 9.41219512,15.8804878 L1.36829268,7.81585366 C1.05731707,7.50487805 0.891463415,7.0902439 0.891463415,6.63414634 L0.891463415,5.18292683 C0.891463415,4.74756098 1.05731707,4.33292683 1.36829268,4.00121951 L4.02195122,1.34756098 C4.33292683,1.03658537 4.74756098,0.870731707 5.20365854,0.870731707 L6.65487805,0.870731707 C7.0902439,0.870731707 7.50487805,1.03658537 7.83658537,1.34756098 L15.9012195,9.41219512 C16.2121951,9.74390244 16.2121951,10.2829268 15.8804878,10.5939024 Z" id="Shape"></path>
                    <circle id="Oval" cx="4.14634146" cy="4.14634146" r="1.24390244"></circle>
                </g>
            </g>
        </g>
    </g>
</svg>