<svg width="18" height="18" viewBox="0 0 18 18" fill="none" xmlns="http://www.w3.org/2000/svg">
<path fill-rule="evenodd" clip-rule="evenodd" d="M9.76316 3.0014C9.86604 2.60017 10.2747 2.3583 10.6759 2.46118C11.8341 2.75815 12.8926 3.35741 13.7432 4.19768C14.5938 5.03795 15.2059 6.08906 15.517 7.24352C15.6247 7.64347 15.3879 8.05505 14.9879 8.16282C14.588 8.27058 14.1764 8.03372 14.0686 7.63377C13.8267 6.73586 13.3506 5.91833 12.689 5.26479C12.0274 4.61124 11.2042 4.14515 10.3034 3.91418C9.90214 3.8113 9.66028 3.40263 9.76316 3.0014ZM8.99952 5.24978C9.41373 5.24978 9.74952 5.58557 9.74952 5.99978V8.24978H11.9995C12.4137 8.24978 12.7495 8.58557 12.7495 8.99978C12.7495 9.41399 12.4137 9.74978 11.9995 9.74978H8.99952C8.58531 9.74978 8.24952 9.41399 8.24952 8.99978V5.99978C8.24952 5.58557 8.58531 5.24978 8.99952 5.24978ZM15.5291 10.7102C15.6341 10.3095 15.3944 9.89956 14.9937 9.7946C14.593 9.68963 14.1831 9.92937 14.0781 10.3301C13.8397 11.2402 13.3611 12.0695 12.6924 12.7313C12.0236 13.3931 11.1893 13.863 10.2768 14.0919C9.87503 14.1927 9.63103 14.6001 9.73181 15.0018C9.83258 15.4036 10.24 15.6476 10.6417 15.5468C11.815 15.2525 12.8877 14.6483 13.7475 13.7975C14.6073 12.9466 15.2226 11.8803 15.5291 10.7102ZM3.00578 9.79905C3.40639 9.69379 3.81649 9.93322 3.92175 10.3338C4.15818 11.2336 4.62946 12.0544 5.28735 12.7122C5.94525 13.37 6.76613 13.8412 7.66596 14.0775C8.06659 14.1827 8.30608 14.5928 8.20087 14.9934C8.09566 15.394 7.6856 15.6335 7.28497 15.5283C6.12805 15.2245 5.07264 14.6187 4.22677 13.773C3.38091 12.9272 2.77497 11.8719 2.471 10.715C2.36573 10.3144 2.60516 9.90431 3.00578 9.79905ZM7.66566 3.9219C8.06628 3.81667 8.30575 3.40659 8.20052 3.00597C8.09529 2.60534 7.68522 2.36588 7.28459 2.47111C6.12711 2.77513 5.07127 3.38142 4.22526 4.22785C3.37924 5.07428 2.77347 6.13042 2.47001 7.28805C2.36498 7.68872 2.60464 8.09868 3.00532 8.20371C3.40599 8.30875 3.81595 8.06908 3.92098 7.6684C4.15701 6.76803 4.62816 5.94659 5.28618 5.28825C5.94419 4.62992 6.7654 4.15836 7.66566 3.9219Z" fill="#12132B"/>
</svg>
