<svg width="24" height="24" viewBox="0 0 24 24" fill="none" xmlns="http://www.w3.org/2000/svg">
<path fill-rule="evenodd" clip-rule="evenodd" d="M6 19.75C3.92893 19.75 2.25 18.0711 2.25 16V10.2143C2.25 8.14322 3.92893 6.46429 6 6.46429H8.325L11.4828 3.4569C11.7724 3.18104 12.2276 3.18104 12.5172 3.4569L15.675 6.46429H18C20.0711 6.46429 21.75 8.14322 21.75 10.2143V16C21.75 18.0711 20.0711 19.75 18 19.75H6ZM3.75 16C3.75 17.2426 4.75736 18.25 6 18.25H18C19.2426 18.25 20.25 17.2426 20.25 16V10.2143C20.25 8.97165 19.2426 7.96429 18 7.96429H15.375C15.1824 7.96429 14.9972 7.89021 14.8578 7.75739L12 5.03572L9.14224 7.75739C9.00279 7.89021 8.81758 7.96429 8.625 7.96429H6C4.75736 7.96429 3.75 8.97165 3.75 10.2143V16ZM9 12.25C8.58579 12.25 8.25 12.5858 8.25 13C8.25 13.4142 8.58579 13.75 9 13.75H15C15.4142 13.75 15.75 13.4142 15.75 13C15.75 12.5858 15.4142 12.25 15 12.25H9Z" fill="#12131B"/>
</svg>
