<svg width="594" height="513" viewBox="0 0 594 513" fill="none" xmlns="http://www.w3.org/2000/svg">
<path d="M239.184 101.263L239.182 101.265C231.498 109.724 220.485 114.195 209.637 114.186M239.184 101.263L209.61 114.186C209.619 114.186 209.628 114.186 209.637 114.186M239.184 101.263L297.302 37.2806M239.184 101.263L297.302 37.2806M209.637 114.186H64.5068C39.8872 114.186 25 130.916 25 147.615V453.749C25 470.835 40.5074 488 64.5068 488H529.494C553.491 488 569 470.835 569 453.749V147.615C569 130.916 554.112 114.186 529.494 114.186H384.353H384.335L384.316 114.186C373.434 114.17 362.401 109.645 354.735 101.123C354.735 101.123 354.734 101.122 354.734 101.122L297.302 37.2806M209.637 114.186L297.302 37.2806" stroke="#3A2F45" stroke-width="50"/>
</svg>
