<svg width="73" height="64" viewBox="0 0 73 64" fill="none" xmlns="http://www.w3.org/2000/svg">
<path d="M29.3503 13.3606L29.3501 13.3608C28.4116 14.3939 27.0664 14.9398 25.7416 14.9385M29.3503 13.3606L25.7393 14.9385C25.7401 14.9385 25.7408 14.9385 25.7416 14.9385M29.3503 13.3606L36.4467 5.54815M29.3503 13.3606L36.4467 5.54815M25.7416 14.9385H8.02182C5.01571 14.9385 3.19795 16.9813 3.19795 19.0202V56.3999C3.19795 58.4861 5.09143 60.5821 8.02182 60.5821H64.7979C67.728 60.5821 69.6217 58.4861 69.6217 56.3999V19.0202C69.6217 16.9813 67.8038 14.9385 64.7979 14.9385H47.0758H47.0713C45.7425 14.9365 44.3954 14.384 43.4594 13.3434C43.4593 13.3434 43.4593 13.3434 43.4593 13.3433L36.4467 5.54815M25.7416 14.9385L36.4467 5.54815" stroke="#3A2F45" stroke-width="6.10512"/>
</svg>
