<svg width="24" height="24" viewBox="0 0 24 24" fill="none" xmlns="http://www.w3.org/2000/svg">
<path fill-rule="evenodd" clip-rule="evenodd" d="M11.2968 3.7968C11.6873 3.40628 12.3205 3.40628 12.711 3.7968L15.4181 6.50391H17.0039C17.078 6.50391 17.1502 6.51197 17.2197 6.52726L18.2443 5.34507C18.606 4.92771 19.2376 4.8826 19.6549 5.24431C20.0723 5.60602 20.1174 6.23758 19.7557 6.65493L6.75569 21.6549C6.39398 22.0723 5.76242 22.1174 5.34507 21.7557C4.92771 21.394 4.8826 20.7624 5.24431 20.3451L6.0686 19.394C4.31064 18.9728 3.00391 17.391 3.00391 15.5039V10.5039C3.00391 8.29477 4.79477 6.50391 7.00391 6.50391H8.58969L11.2968 3.7968ZM7.70905 17.5011L10.7412 14.0026L10.0057 14.0039C9.45345 14.0049 9.00492 13.558 9.00391 13.0057C9.0029 12.4534 9.4498 12.0049 10.0021 12.0039L12.4772 11.9994L15.5067 8.50391H15.0039C14.7387 8.50391 14.4843 8.39855 14.2968 8.21101L12.0039 5.91812L9.71101 8.21101C9.52348 8.39855 9.26912 8.50391 9.00391 8.50391H7.00391C5.89934 8.50391 5.00391 9.39934 5.00391 10.5039V15.5039C5.00391 16.6079 5.89838 17.5029 7.00213 17.5039L7.00391 17.5039L7.70905 17.5011ZM20.0039 9.50391C20.5562 9.50391 21.0039 9.95162 21.0039 10.5039V15.5039C21.0039 17.713 19.213 19.5039 17.0039 19.5039H12.5C11.9477 19.5039 11.5 19.0562 11.5 18.5039C11.5 17.9516 11.9477 17.5039 12.5 17.5039H17.0039C18.1085 17.5039 19.0039 16.6085 19.0039 15.5039V10.5039C19.0039 9.95162 19.4516 9.50391 20.0039 9.50391Z" fill="#12131B"/>
</svg>
