<svg width="24" height="24" viewBox="0 0 24 24" fill="none" xmlns="http://www.w3.org/2000/svg">
<path fill-rule="evenodd" clip-rule="evenodd" d="M6 19.75C3.92893 19.75 2.25 18.0711 2.25 16V10.5C2.25 8.42893 3.92893 6.75 6 6.75H8.30632L11.4601 3.4794C11.6015 3.33281 11.7964 3.25 12 3.25C12.2036 3.25 12.3985 3.33281 12.5399 3.4794L15.6937 6.75H18C20.0711 6.75 21.75 8.42893 21.75 10.5V16C21.75 18.0711 20.0711 19.75 18 19.75H6ZM3.75 16C3.75 17.2426 4.75736 18.25 6 18.25H18C19.2426 18.25 20.25 17.2426 20.25 16V10.5C20.25 9.25736 19.2426 8.25 18 8.25H15.375C15.1714 8.25 14.9765 8.16719 14.8351 8.0206L12 5.08048L9.16488 8.0206C9.02353 8.16719 8.82864 8.25 8.625 8.25H6C4.75736 8.25 3.75 9.25736 3.75 10.5V16ZM9 12.25C8.58579 12.25 8.25 12.5858 8.25 13C8.25 13.4142 8.58579 13.75 9 13.75H15C15.4142 13.75 15.75 13.4142 15.75 13C15.75 12.5858 15.4142 12.25 15 12.25H9Z" fill="#12131B"/>
</svg>
