<svg width="24" height="24" viewBox="0 0 24 24" fill="none" xmlns="http://www.w3.org/2000/svg">
<path fill-rule="evenodd" clip-rule="evenodd" d="M12 3.25C12.2036 3.25 12.3985 3.33281 12.5399 3.4794L15.6937 6.75H17.3575L18.4332 5.5088C18.7045 5.19579 19.1782 5.16195 19.4912 5.43323C19.8042 5.70451 19.838 6.17818 19.5668 6.4912L6.56677 21.4912C6.29549 21.8042 5.82182 21.838 5.5088 21.5668C5.19579 21.2955 5.16195 20.8218 5.43323 20.5088L6.09853 19.7411C3.97924 19.6051 2.25 17.9172 2.25 15.7857V10.7143C2.25 8.49081 4.13173 6.75 6.375 6.75H8.30632L11.4601 3.4794C11.6015 3.33281 11.7964 3.25 12 3.25ZM7.39417 18.2462L11.2916 13.7491L8.99986 13.7487C8.58565 13.7486 8.24992 13.4128 8.25 12.9986C8.25007 12.5843 8.58592 12.2486 9.00014 12.2487L12.5001 12.2493C12.5295 12.2494 12.5586 12.2511 12.5871 12.2544L16.0575 8.25H15.375C15.1714 8.25 14.9765 8.16719 14.8351 8.0206L12 5.08048L9.16488 8.0206C9.02353 8.16719 8.82864 8.25 8.625 8.25H6.375C4.89035 8.25 3.75 9.38736 3.75 10.7143V15.7857C3.75 17.1122 4.88962 18.2493 6.37357 18.25H6.375L7.39417 18.2462ZM21 9.67857C21.4142 9.67857 21.75 10.0144 21.75 10.4286V15.7857C21.75 18.0092 19.8683 19.75 17.625 19.75H12.5581C12.1439 19.75 11.8081 19.4142 11.8081 19C11.8081 18.5858 12.1439 18.25 12.5581 18.25H17.625C19.1097 18.25 20.25 17.1126 20.25 15.7857V10.4286C20.25 10.0144 20.5858 9.67857 21 9.67857Z" fill="#12131B"/>
</svg>
