<?xml version="1.0" encoding="UTF-8"?>
<svg width="20px" height="16px" viewBox="0 0 10 9" version="1.1" xmlns="http://www.w3.org/2000/svg" xmlns:xlink="http://www.w3.org/1999/xlink">
    <!-- Generator: Sketch 51 (57462) - http://www.bohemiancoding.com/sketch -->
    <title>noun_tooltip_384409</title>
    <desc>Created with Sketch.</desc>
    <defs></defs>
    <g id="Searchable-Annotations" stroke="none" stroke-width="1" fill="none" fill-rule="evenodd">
        <g id="1a-hover-to-the-side" transform="translate(-1768.000000, -655.000000)" fill="#7ED3BA" fill-rule="nonzero">
            <g id="noun_tooltip_384409" transform="translate(1768.000000, 655.000000)">
                <g id="Group">
                    <path d="M1.08597285,0 L8.91402715,0 C9.51611222,0 10,0.463156214 10,1.03950273 L10,6.41026699 C10,6.9865673 9.51941888,7.43533218 8.91402715,7.43533218 L6.47058824,7.43533218 C6.40002751,7.43522222 6.33008459,7.46648954 6.28487916,7.51834779 L4.99340115,9 L3.71512084,7.51925008 C3.67009882,7.46706242 3.6001197,7.43544121 3.52941176,7.43533218 L1.08597285,7.43533218 C0.480580971,7.43533218 0,6.9865673 0,6.41026699 L0,1.03950273 C0,0.463156214 0.483887735,0 1.08597285,0 Z" id="Shape" transform="translate(5.000000, 4.500000) rotate(180.000000) translate(-5.000000, -4.500000) "></path>
                </g>
            </g>
        </g>
    </g>
</svg>