<svg width="448" height="512" viewBox="0 0 448 512" fill="none" xmlns="http://www.w3.org/2000/svg">
<g clip-path="url(#clip0)">
<path d="M78.1513 465.44C78.5174 471.278 81.0945 476.758 85.3581 480.763C89.6214 484.768 95.2505 486.999 101.1 487L78.1513 465.44ZM78.1513 465.44C78.1512 465.439 78.1512 465.438 78.1511 465.438M78.1513 465.44L78.1511 465.438M78.1511 465.438L58.9445 158.312C58.7644 155.434 61.0505 153 63.9347 153H384.065C386.949 153 389.236 155.434 389.056 158.312L369.849 465.438C369.849 465.438 369.849 465.439 369.849 465.44C369.483 471.278 366.905 476.758 362.642 480.763C358.379 484.768 352.749 486.999 346.9 487C346.899 487 346.898 487 346.897 487H101.103L78.1511 465.438ZM167.5 25.0002H280.5L281.356 26.702C290.693 45.2773 309.707 57.0002 330.497 57.0002H423V71.0002H25V57.0002H117.503C138.293 57.0002 157.307 45.2773 166.644 26.702L167.5 25.0002Z" stroke="#3A2F45" stroke-width="50"/>
</g>
<defs>
<clipPath id="clip0">
<rect width="448" height="512" fill="white"/>
</clipPath>
</defs>
</svg>
