<?xml version="1.0" encoding="UTF-8"?>
<svg width="66px" height="78px" viewBox="0 0 66 78" version="1.1" xmlns="http://www.w3.org/2000/svg" xmlns:xlink="http://www.w3.org/1999/xlink">
    <!-- Generator: Sketch 40.3 (33839) - http://www.bohemiancoding.com/sketch -->
    <title>noun_621274_3EB995</title>
    <desc>Created with Sketch.</desc>
    <defs></defs>
    <g id="Icons" stroke="none" stroke-width="1" fill="none" fill-rule="evenodd">
        <g id="noun_621274_3EB995" fill="#777777">
            <path d="M42.835,61.094 L42.835,23.495 C42.835,21.838 41.492,20.495 39.835,20.495 C38.178,20.495 36.835,21.838 36.835,23.495 L36.835,61.094 C36.835,62.752 38.178,64.094 39.835,64.094 C41.492,64.094 42.835,62.752 42.835,61.094 L42.835,61.094 Z M29.164,61.094 L29.164,23.495 C29.164,21.838 27.821,20.495 26.164,20.495 C24.507,20.495 23.164,21.838 23.164,23.495 L23.164,61.094 C23.164,62.752 24.507,64.094 26.164,64.094 C27.821,64.094 29.164,62.752 29.164,61.094 L29.164,61.094 Z M56.27,20.495 C54.613,20.495 53.27,21.838 53.27,23.495 L53.27,68.907 C53.27,70.124 52.281,71.116 51.065,71.116 L14.938,71.116 C13.72,71.116 12.729,70.124 12.729,68.907 L12.729,23.495 C12.729,21.838 11.386,20.495 9.729,20.495 C8.072,20.495 6.729,21.838 6.729,23.495 L6.729,68.907 C6.729,73.432 10.412,77.116 14.938,77.116 L51.064,77.116 C55.588,77.116 59.269,73.432 59.269,68.907 L59.269,23.495 C59.27,21.837 57.927,20.495 56.27,20.495 L56.27,20.495 Z M62.93,11.148 L49.348,11.148 L49.348,3.885 C49.348,2.228 48.005,0.885 46.348,0.885 L19.652,0.885 C17.995,0.885 16.652,2.228 16.652,3.885 L16.652,11.148 L3.07,11.148 C1.413,11.148 0.07,12.491 0.07,14.148 C0.07,15.805 1.413,17.148 3.07,17.148 L62.93,17.148 C64.587,17.148 65.93,15.805 65.93,14.148 C65.93,12.491 64.587,11.148 62.93,11.148 L62.93,11.148 Z M43.348,11.148 L22.652,11.148 L22.652,6.885 L43.347,6.885 L43.347,11.148 L43.348,11.148 Z" id="Shape"></path>
        </g>
    </g>
</svg>
