<svg width="63" height="64" viewBox="0 0 63 64" fill="none" xmlns="http://www.w3.org/2000/svg">
<g clip-path="url(#clip0)">
<path d="M36.7043 51.3175H39.6348C40.0234 51.3175 40.3961 51.1632 40.6709 50.8884C40.9457 50.6136 41.1 50.2409 41.1 49.8523V23.4782C41.1 23.0896 40.9457 22.7169 40.6709 22.4421C40.3961 22.1673 40.0234 22.013 39.6348 22.013H36.7043C36.3157 22.013 35.943 22.1673 35.6683 22.4421C35.3935 22.7169 35.2391 23.0896 35.2391 23.4782V49.8523C35.2391 50.2409 35.3935 50.6136 35.6683 50.8884C35.943 51.1632 36.3157 51.3175 36.7043 51.3175ZM56.7291 10.2911H46.6667L42.5152 3.36794C41.9942 2.49981 41.2572 1.78145 40.376 1.28286C39.4948 0.784276 38.4995 0.522468 37.487 0.52295H25.1767C24.1646 0.52289 23.1698 0.784898 22.289 1.28346C21.4083 1.78203 20.6717 2.50016 20.1509 3.36794L15.997 10.2911H5.93453C5.4164 10.2911 4.91948 10.497 4.5531 10.8633C4.18673 11.2297 3.9809 11.7266 3.9809 12.2448L3.9809 14.1984C3.9809 14.7166 4.18673 15.2135 4.5531 15.5799C4.91948 15.9462 5.4164 16.1521 5.93453 16.1521H7.88817V57.1785C7.88817 58.7329 8.50566 60.2236 9.60479 61.3228C10.7039 62.4219 12.1947 63.0394 13.7491 63.0394H48.9146C50.469 63.0394 51.9597 62.4219 53.0589 61.3228C54.158 60.2236 54.7755 58.7329 54.7755 57.1785V16.1521H56.7291C57.2473 16.1521 57.7442 15.9462 58.1106 15.5799C58.4769 15.2135 58.6828 14.7166 58.6828 14.1984V12.2448C58.6828 11.7266 58.4769 11.2297 58.1106 10.8633C57.7442 10.497 57.2473 10.2911 56.7291 10.2911ZM24.963 6.73918C25.0283 6.6305 25.1206 6.54063 25.2311 6.47834C25.3415 6.41606 25.4662 6.38351 25.593 6.38386H37.0706C37.1972 6.38372 37.3217 6.41638 37.4319 6.47865C37.5421 6.54092 37.6343 6.63068 37.6995 6.73918L39.8314 10.2911H22.8323L24.963 6.73918ZM48.9146 57.1785H13.7491V16.1521H48.9146V57.1785ZM23.0289 51.3175H25.9593C26.3479 51.3175 26.7206 51.1632 26.9954 50.8884C27.2702 50.6136 27.4246 50.2409 27.4246 49.8523V23.4782C27.4246 23.0896 27.2702 22.7169 26.9954 22.4421C26.7206 22.1673 26.3479 22.013 25.9593 22.013H23.0289C22.6403 22.013 22.2676 22.1673 21.9928 22.4421C21.718 22.7169 21.5636 23.0896 21.5636 23.4782V49.8523C21.5636 50.2409 21.718 50.6136 21.9928 50.8884C22.2676 51.1632 22.6403 51.3175 23.0289 51.3175Z" fill="#3A2F45"/>
</g>
<defs>
<clipPath id="clip0">
<rect width="54.7019" height="62.5164" fill="white" transform="translate(3.9809 0.522949)"/>
</clipPath>
</defs>
</svg>
