<svg width="24" height="24" viewBox="0 0 24 24" fill="none" xmlns="http://www.w3.org/2000/svg">
<path fill-rule="evenodd" clip-rule="evenodd" d="M9.33203 2.58594C8.91782 2.58594 8.58203 2.92172 8.58203 3.33594V5.91797H6H4C3.58579 5.91797 3.25 6.25376 3.25 6.66797C3.25 7.08218 3.58579 7.41797 4 7.41797H5.25V18.0013C5.25 19.5201 6.48122 20.7513 8 20.7513H16C17.5188 20.7513 18.75 19.5201 18.75 18.0013V7.41797H20C20.4142 7.41797 20.75 7.08218 20.75 6.66797C20.75 6.25376 20.4142 5.91797 20 5.91797H18H15.4154V3.33594C15.4154 2.92172 15.0796 2.58594 14.6654 2.58594H9.33203ZM9.28747 7.41797C9.30221 7.41883 9.31707 7.41927 9.33203 7.41927H14.6654C14.6803 7.41927 14.6952 7.41883 14.7099 7.41797H17.25V18.0013C17.25 18.6917 16.6904 19.2513 16 19.2513H8C7.30964 19.2513 6.75 18.6917 6.75 18.0013V7.41797H9.28747ZM13.9154 5.91797V4.08594H10.082V5.91797H13.9154ZM10.75 11.3359C10.75 10.9217 10.4142 10.5859 10 10.5859C9.58579 10.5859 9.25 10.9217 9.25 11.3359V15.3359C9.25 15.7502 9.58579 16.0859 10 16.0859C10.4142 16.0859 10.75 15.7502 10.75 15.3359V11.3359ZM14.75 11.3359C14.75 10.9217 14.4142 10.5859 14 10.5859C13.5858 10.5859 13.25 10.9217 13.25 11.3359V15.3359C13.25 15.7502 13.5858 16.0859 14 16.0859C14.4142 16.0859 14.75 15.7502 14.75 15.3359V11.3359Z" fill="#F4F4F4"/>
</svg>
