<svg width="73" height="72" viewBox="0 0 73 72" fill="none" xmlns="http://www.w3.org/2000/svg">
<g clip-path="url(#clip0)">
<path d="M72.1623 35.959C72.1623 16.0945 56.013 -0.00012207 36.081 -0.00012207C16.149 -0.00012207 -0.000244141 16.0945 -0.000244141 35.959C-0.000244141 55.8236 16.149 71.9182 36.081 71.9182C56.013 71.9182 72.1623 55.8236 72.1623 35.959ZM6.98322 35.959C6.98322 19.9369 20.0045 6.95971 36.081 6.95971C52.1575 6.95971 65.1788 19.9369 65.1788 35.959C65.1788 51.9812 52.1575 64.9584 36.081 64.9584C20.0045 64.9584 6.98322 51.9812 6.98322 35.959Z" fill="#3A2F45"/>
<rect x="13.7976" y="29.5487" width="44.5674" height="12.8208" rx="1.83154" fill="#3A2F45"/>
</g>
<defs>
<clipPath id="clip0">
<rect width="72.1625" height="71.9183" fill="white"/>
</clipPath>
</defs>
</svg>
