<svg width="39" height="40" viewBox="0 0 39 40" fill="none" xmlns="http://www.w3.org/2000/svg">
<path d="M37.9836 5.81176H26.5331V3.88646C26.5331 3.42071 26.4414 2.95952 26.2632 2.52923C26.0849 2.09893 25.8237 1.70796 25.4943 1.37862C25.165 1.04929 24.774 0.788048 24.3437 0.609814C23.9134 0.43158 23.4523 0.339844 22.9865 0.339844H17.0079C16.0673 0.339844 15.1652 0.713504 14.5001 1.37862C13.835 2.04374 13.4613 2.94584 13.4613 3.88646V5.81176H2.01082C1.74207 5.81176 1.48433 5.91852 1.2943 6.10856C1.10426 6.29859 0.997503 6.55633 0.997503 6.82508C0.99019 6.96007 1.01139 7.09509 1.05973 7.22135C1.10807 7.3476 1.18245 7.46226 1.27805 7.55785C1.37364 7.65345 1.4883 7.72784 1.61455 7.77617C1.74081 7.82451 1.87583 7.84571 2.01082 7.8384H5.20277V32.0567C5.20277 34.0723 6.00347 36.0054 7.42873 37.4306C8.85398 38.8559 10.787 39.6566 12.8027 39.6566H27.2424C29.2581 39.6566 31.1911 38.8559 32.6164 37.4306C34.0416 36.0054 34.8423 34.0723 34.8423 32.0567V7.8384H37.9836C38.1186 7.84571 38.2536 7.82451 38.3799 7.77617C38.5061 7.72784 38.6208 7.65345 38.7164 7.55785C38.812 7.46226 38.8864 7.3476 38.9347 7.22135C38.983 7.09509 39.0042 6.96007 38.9969 6.82508C38.9969 6.55633 38.8902 6.29859 38.7001 6.10856C38.5101 5.91852 38.2524 5.81176 37.9836 5.81176ZM15.488 3.88646C15.488 3.48333 15.6481 3.09672 15.9331 2.81167C16.2182 2.52662 16.6048 2.36648 17.0079 2.36648H22.9865C23.3896 2.36648 23.7762 2.52662 24.0613 2.81167C24.3463 3.09672 24.5065 3.48333 24.5065 3.88646V5.81176H15.488V3.88646ZM32.8157 32.0567C32.8157 33.5348 32.2285 34.9524 31.1833 35.9976C30.1381 37.0428 28.7206 37.63 27.2424 37.63H12.8027C11.3245 37.63 9.90696 37.0428 8.86178 35.9976C7.81659 34.9524 7.22941 33.5348 7.22941 32.0567V7.8384H32.8157V32.0567Z" fill="#173766"/>
<path d="M13.0563 31.8038C13.325 31.8038 13.5828 31.6971 13.7728 31.507C13.9628 31.317 14.0696 31.0593 14.0696 30.7905V13.5641C14.0696 13.2954 13.9628 13.0376 13.7728 12.8476C13.5828 12.6575 13.325 12.5508 13.0563 12.5508C12.7875 12.5508 12.5298 12.6575 12.3398 12.8476C12.1497 13.0376 12.043 13.2954 12.043 13.5641V30.7905C12.043 31.0593 12.1497 31.317 12.3398 31.507C12.5298 31.6971 12.7875 31.8038 13.0563 31.8038Z" fill="#173766"/>
<path d="M19.9977 31.8038C20.2664 31.8038 20.5242 31.6971 20.7142 31.507C20.9043 31.317 21.011 31.0593 21.011 30.7905V13.5641C21.011 13.2954 20.9043 13.0376 20.7142 12.8476C20.5242 12.6575 20.2664 12.5508 19.9977 12.5508C19.7289 12.5508 19.4712 12.6575 19.2812 12.8476C19.0911 13.0376 18.9844 13.2954 18.9844 13.5641V30.7905C18.9844 31.0593 19.0911 31.317 19.2812 31.507C19.4712 31.6971 19.7289 31.8038 19.9977 31.8038Z" fill="#173766"/>
<path d="M26.9391 31.8038C27.2078 31.8038 27.4656 31.6971 27.6556 31.507C27.8457 31.317 27.9524 31.0593 27.9524 30.7905V13.5641C27.9524 13.2954 27.8457 13.0376 27.6556 12.8476C27.4656 12.6575 27.2078 12.5508 26.9391 12.5508C26.6704 12.5508 26.4126 12.6575 26.2226 12.8476C26.0325 13.0376 25.9258 13.2954 25.9258 13.5641V30.7905C25.9258 31.0593 26.0325 31.317 26.2226 31.507C26.4126 31.6971 26.6704 31.8038 26.9391 31.8038Z" fill="#173766"/>
<rect x="15" y="2" width="10" height="4" fill="#173766"/>
</svg>
