<svg width="590" height="590" viewBox="0 0 590 590" fill="none" xmlns="http://www.w3.org/2000/svg">
<circle cx="295" cy="295" r="267.5" stroke="#3A2F45" stroke-width="55"/>
<path d="M414.038 221.689L341.053 294.799L414.038 367.909C419.553 373.434 419.553 382.367 414.038 387.891L387.519 414.455C382.004 419.98 373.087 419.98 367.572 414.455L294.587 341.345L221.602 414.455C216.087 419.98 207.17 419.98 201.655 414.455L175.136 387.891C169.621 382.367 169.621 373.434 175.136 367.909L248.121 294.799L175.136 221.689C169.621 216.165 169.621 207.232 175.136 201.707L201.655 175.143C207.17 169.619 216.087 169.619 221.602 175.143L294.587 248.253L367.572 175.143C373.087 169.619 382.004 169.619 387.519 175.143L414.038 201.707C419.553 207.232 419.553 216.165 414.038 221.689Z" fill="#3A2F45"/>
</svg>
