<?xml version="1.0" encoding="UTF-8"?>
<svg width="24px" height="27px" viewBox="0 0 24 27" version="1.1" xmlns="http://www.w3.org/2000/svg" xmlns:xlink="http://www.w3.org/1999/xlink">
    <!-- Generator: Sketch 51.3 (57544) - http://www.bohemiancoding.com/sketch -->
    <title>trash</title>
    <desc>Created with Sketch.</desc>
    <defs></defs>
    <g id="Page-1" stroke="none" stroke-width="1" fill="none" fill-rule="evenodd">
        <g id="trash" transform="translate(0.000000, 1.000000)">
            <path d="M21,5 L21,22.2413794 C21,23.7648275 19.7600769,25 18.2307693,25 L5.76923078,25 C4.23992307,25 3,23.7648275 3,22.2413794 L3,5 L21,5 Z" id="Path" stroke="#173766"></path>
            <polygon id="Path" stroke="#173766" points="0 5 5.25 5 21 5 24 5"></polygon>
            <path d="M17,5 L7,5 L7,2 C7,0.895 7.74583333,0 8.66666667,0 L15.3333333,0 C16.2541667,0 17,0.895 17,2 L17,5 Z" id="Path" stroke="#173766"></path>
            <path d="M12,8 L12,22 L12,8 Z" id="Path" stroke="#3EB995"></path>
            <path d="M16,8 L16,22 L16,8 Z" id="Path" stroke="#3EB995"></path>
            <path d="M8,8 L8,22 L8,8 Z" id="Path" stroke="#3EB995"></path>
        </g>
    </g>
</svg>