<svg width="591" height="589" viewBox="0 0 591 589" fill="none" xmlns="http://www.w3.org/2000/svg">
<path d="M295 -1.4375C131.283 -1.4375 -1.4375 131.282 -1.4375 295C-1.4375 458.718 131.283 591.438 295 591.438C458.717 591.438 591.438 458.717 591.438 295C591.438 131.283 458.718 -1.4375 295 -1.4375ZM450.52 139.48C528.751 217.711 534.192 337.282 475.235 421.14L168.859 114.766C252.774 55.7702 372.332 61.2937 450.52 139.48ZM139.48 450.52C61.2495 372.289 55.8084 252.718 114.765 168.86L421.141 475.234C337.227 534.23 217.668 528.708 139.48 450.52V450.52Z" fill="#3A2F45"/>
</svg>
