<svg width="56" height="64" viewBox="0 0 56 64" fill="none" xmlns="http://www.w3.org/2000/svg">
<g clip-path="url(#clip0)">
<path d="M33.7043 51.3175H36.6348C37.0234 51.3175 37.3961 51.1632 37.6709 50.8884C37.9457 50.6136 38.1 50.2409 38.1 49.8523V23.4782C38.1 23.0896 37.9457 22.7169 37.6709 22.4421C37.3961 22.1673 37.0234 22.013 36.6348 22.013H33.7043C33.3157 22.013 32.943 22.1673 32.6683 22.4421C32.3935 22.7169 32.2391 23.0896 32.2391 23.4782V49.8523C32.2391 50.2409 32.3935 50.6136 32.6683 50.8884C32.943 51.1632 33.3157 51.3175 33.7043 51.3175ZM53.7291 10.2911H43.6667L39.5152 3.36794C38.9942 2.49981 38.2572 1.78145 37.376 1.28286C36.4948 0.784276 35.4995 0.522468 34.487 0.52295H22.1767C21.1646 0.52289 20.1698 0.784898 19.289 1.28346C18.4083 1.78203 17.6717 2.50016 17.1509 3.36794L12.997 10.2911H2.93453C2.4164 10.2911 1.91948 10.497 1.5531 10.8633C1.18673 11.2297 0.980896 11.7266 0.980896 12.2448L0.980896 14.1984C0.980896 14.7166 1.18673 15.2135 1.5531 15.5799C1.91948 15.9462 2.4164 16.1521 2.93453 16.1521H4.88817V57.1785C4.88817 58.7329 5.50566 60.2236 6.60479 61.3228C7.70393 62.4219 9.19468 63.0394 10.7491 63.0394H45.9146C47.469 63.0394 48.9597 62.4219 50.0589 61.3228C51.158 60.2236 51.7755 58.7329 51.7755 57.1785V16.1521H53.7291C54.2473 16.1521 54.7442 15.9462 55.1106 15.5799C55.4769 15.2135 55.6828 14.7166 55.6828 14.1984V12.2448C55.6828 11.7266 55.4769 11.2297 55.1106 10.8633C54.7442 10.497 54.2473 10.2911 53.7291 10.2911ZM21.963 6.73918C22.0283 6.6305 22.1206 6.54063 22.2311 6.47834C22.3415 6.41606 22.4662 6.38351 22.593 6.38386H34.0706C34.1972 6.38372 34.3217 6.41638 34.4319 6.47865C34.5421 6.54092 34.6343 6.63068 34.6995 6.73918L36.8314 10.2911H19.8323L21.963 6.73918ZM45.9146 57.1785H10.7491V16.1521H45.9146V57.1785ZM20.0289 51.3175H22.9593C23.3479 51.3175 23.7206 51.1632 23.9954 50.8884C24.2702 50.6136 24.4246 50.2409 24.4246 49.8523V23.4782C24.4246 23.0896 24.2702 22.7169 23.9954 22.4421C23.7206 22.1673 23.3479 22.013 22.9593 22.013H20.0289C19.6403 22.013 19.2676 22.1673 18.9928 22.4421C18.718 22.7169 18.5636 23.0896 18.5636 23.4782V49.8523C18.5636 50.2409 18.718 50.6136 18.9928 50.8884C19.2676 51.1632 19.6403 51.3175 20.0289 51.3175Z" fill="#3A2F45"/>
</g>
<defs>
<clipPath id="clip0">
<rect width="54.7019" height="62.5164" fill="white" transform="translate(0.980896 0.522949)"/>
</clipPath>
</defs>
</svg>
