<svg width="72" height="65" viewBox="0 0 72 65" fill="none" xmlns="http://www.w3.org/2000/svg">
<g clip-path="url(#clip0)">
<path d="M17.3571 36.5774C16.2964 36.5774 15.4286 35.7911 15.4286 34.8299V30.17C15.4286 29.2089 16.2964 28.4225 17.3571 28.4225H54.6429C55.7036 28.4225 56.5714 29.2089 56.5714 30.17V34.8299C56.5714 35.7911 55.7036 36.5774 54.6429 36.5774H17.3571ZM72 6.87038V58.1296C72 61.9886 68.5447 65.1195 64.2857 65.1195H7.71429C3.45536 65.1195 0 61.9886 0 58.1296V6.87038C0 3.01138 3.45536 -0.119507 7.71429 -0.119507H64.2857C68.5447 -0.119507 72 3.01138 72 6.87038ZM64.2857 57.2558V7.74412C64.2857 7.26356 63.8518 6.87038 63.3214 6.87038H8.67857C8.14821 6.87038 7.71429 7.26356 7.71429 7.74412V57.2558C7.71429 57.7364 8.14821 58.1296 8.67857 58.1296H63.3214C63.8518 58.1296 64.2857 57.7364 64.2857 57.2558Z" fill="#3A2F45"/>
</g>
<defs>
<clipPath id="clip0">
<rect width="72" height="65" fill="white"/>
</clipPath>
</defs>
</svg>
