<?xml version="1.0" encoding="UTF-8"?>
<svg width="49px" height="46px" viewBox="0 0 49 46" version="1.1" xmlns="http://www.w3.org/2000/svg" xmlns:xlink="http://www.w3.org/1999/xlink">
    <!-- Generator: Sketch 50.2 (55047) - http://www.bohemiancoding.com/sketch -->
    <title>noun_Delete_1803034_3db995</title>
    <desc>Created with Sketch.</desc>
    <defs></defs>
    <g id="Page-2" stroke="none" stroke-width="1" fill="none" fill-rule="evenodd">
        <g id="Annotations" transform="translate(-3764.000000, -2983.000000)" fill="#3DB995" fill-rule="nonzero">
            <g id="noun_Delete_1803034_3db995" transform="translate(3764.000000, 2978.000000)">
                <path d="M34.3607732,51 L15.0321764,51 C12.4541617,51 9.83042846,50.193395 7.98505673,48.6750365 C6.14312605,47.1593745 5,45.1346041 5,43.0078368 L5,20.2139184 C5,19.5434218 5.65988651,19 6.47478983,19 C7.2896932,19 7.94957976,19.5434218 7.94957976,20.2139184 L7.94957976,43.0079042 C7.94957976,44.4955896 8.77832978,45.8950981 10.071147,46.9586838 C11.3672416,48.0251682 13.2310483,48.5731744 15.0322584,48.5731744 L34.360855,48.5731744 C36.1576407,48.5731744 37.8103886,48.0409431 39.1254916,46.9586838 C40.4062647,45.9050751 41.0504202,44.5429814 41.0504202,43.0079042 L41.0504202,20.2139184 C41.0504202,19.5434218 41.7103068,19 42.5252101,19 C43.3401134,19 44,19.5434218 44,20.2139184 L44,43.0079042 C44,45.1915013 43.0494159,47.1627451 41.2115,48.6751039 C39.3388446,50.2157089 36.9457521,51 34.3607732,51 Z" id="Shape"></path>
                <path d="M18.4594594,46 C17.653027,46 16.9999999,45.4571783 17,44.7874224 L17,20.2125774 C17,19.5428215 17.653027,19 18.4594594,19 C19.2658918,19 19.9189188,19.5428215 19.9189188,20.2125774 L19.9189188,44.7874224 C19.9189188,45.4571783 19.2658919,46 18.4594594,46 Z M30.5,46 C29.6935676,46 28.9999999,45.4571783 29,44.7874224 L29,20.2125774 C29,19.5428215 29.6935676,19 30.5,19 C31.3064324,19 32,19.5428215 32,20.2125774 L32,44.7874224 C32,45.4571783 31.3064324,46 30.5,46 Z" id="Shape"></path>
                <path d="M2.50828937,17 C1.79050995,17 1.15422583,16.5270358 1.02368232,15.8537546 C0.877376375,15.0979535 1.4241162,14.3761176 2.24502252,14.2412607 L46.2250062,7.02174393 C47.0459125,6.88727299 47.8299279,7.3904198 47.9763177,8.14622078 C48.1226236,8.90202175 47.5758838,9.62385767 46.7549775,9.75871467 L2.77499376,16.9783087 C2.68536568,16.9929754 2.59615679,17 2.50828937,17 Z M16.4976613,9 C15.7849396,9 15.153139,8.53586897 15.0235155,7.87516203 C14.8782404,7.13347657 15.4211277,6.42512183 16.2362495,6.29278355 L30.2374303,4.0212913 C31.0525521,3.88948327 31.831043,4.38330896 31.9764845,5.12476715 C32.1217596,5.86645263 31.5788723,6.57480736 30.7637504,6.70714569 L16.7625696,8.97863798 C16.6734899,8.99310658 16.5849096,9 16.4976613,9 Z" id="Shape" transform="translate(24.500000, 10.500000) rotate(9.300000) translate(-24.500000, -10.500000) "></path>
            </g>
        </g>
    </g>
</svg>