<svg width="18" height="18" viewBox="0 0 18 18" fill="none" xmlns="http://www.w3.org/2000/svg">
<path fill-rule="evenodd" clip-rule="evenodd" d="M7 1.75C6.58579 1.75 6.25 2.08579 6.25 2.5V4.25H4.5H3C2.58579 4.25 2.25 4.58579 2.25 5C2.25 5.41421 2.58579 5.75 3 5.75H3.75V13C3.75 14.5188 4.98122 15.75 6.5 15.75H11.5C13.0188 15.75 14.25 14.5188 14.25 13V5.75H15C15.4142 5.75 15.75 5.41421 15.75 5C15.75 4.58579 15.4142 4.25 15 4.25H13.5H11.75V2.5C11.75 2.08579 11.4142 1.75 11 1.75H7ZM10.25 4.25V3.25H7.75V4.25H10.25ZM7 5.75H5.25V13C5.25 13.6904 5.80964 14.25 6.5 14.25H11.5C12.1904 14.25 12.75 13.6904 12.75 13V5.75H11H7ZM8.25 8.5C8.25 8.08579 7.91421 7.75 7.5 7.75C7.08579 7.75 6.75 8.08579 6.75 8.5V11.5C6.75 11.9142 7.08579 12.25 7.5 12.25C7.91421 12.25 8.25 11.9142 8.25 11.5V8.5ZM11.25 8.5C11.25 8.08579 10.9142 7.75 10.5 7.75C10.0858 7.75 9.75 8.08579 9.75 8.5V11.5C9.75 11.9142 10.0858 12.25 10.5 12.25C10.9142 12.25 11.25 11.9142 11.25 11.5V8.5Z" fill="#12131B"/>
</svg>
