<svg width="39" height="40" viewBox="0 0 39 40" fill="none" xmlns="http://www.w3.org/2000/svg">
<path d="M36.9875 5.47192H25.537V3.54661C25.537 3.08087 25.4453 2.61968 25.2671 2.18938C25.0888 1.75909 24.8276 1.36811 24.4982 1.03878C24.1689 0.709446 23.7779 0.448204 23.3476 0.26997C22.9173 0.091736 22.4562 0 21.9904 0H16.0118C15.0712 0 14.1691 0.37366 13.504 1.03878C12.8389 1.7039 12.4652 2.60599 12.4652 3.54661V5.47192H1.01473C0.745979 5.47192 0.488238 5.57868 0.298204 5.76871C0.10817 5.95875 0.00140963 6.21649 0.00140963 6.48524C-0.00590364 6.62023 0.0152986 6.75525 0.0636355 6.8815C0.111972 7.00776 0.18636 7.12242 0.281954 7.21801C0.377549 7.3136 0.492206 7.38799 0.618461 7.43633C0.744715 7.48467 0.879735 7.50587 1.01473 7.49855H4.20668V31.7169C4.20668 33.7325 5.00738 35.6655 6.43263 37.0908C7.85789 38.516 9.79095 39.3167 11.8066 39.3167H26.2464C28.262 39.3167 30.195 38.516 31.6203 37.0908C33.0455 35.6655 33.8462 33.7325 33.8462 31.7169V7.49855H36.9875C37.1225 7.50587 37.2575 7.48467 37.3838 7.43633C37.51 7.38799 37.6247 7.3136 37.7203 7.21801C37.8159 7.12242 37.8903 7.00776 37.9386 6.8815C37.987 6.75525 38.0082 6.62023 38.0008 6.48524C38.0008 6.21649 37.8941 5.95875 37.704 5.76871C37.514 5.57868 37.2563 5.47192 36.9875 5.47192ZM14.4919 3.54661C14.4919 3.14349 14.652 2.75688 14.9371 2.47183C15.2221 2.18678 15.6087 2.02664 16.0118 2.02664H21.9904C22.3935 2.02664 22.7801 2.18678 23.0652 2.47183C23.3503 2.75688 23.5104 3.14349 23.5104 3.54661V5.47192H14.4919V3.54661ZM31.8196 31.7169C31.8196 33.195 31.2324 34.6126 30.1872 35.6577C29.142 36.7029 27.7245 37.2901 26.2464 37.2901H11.8066C10.3284 37.2901 8.91087 36.7029 7.86568 35.6577C6.8205 34.6126 6.23332 33.195 6.23332 31.7169V7.49855H31.8196V31.7169Z" fill="#173766"/>
<path d="M12.0602 31.464C12.3289 31.464 12.5867 31.3572 12.7767 31.1672C12.9668 30.9772 13.0735 30.7194 13.0735 30.4507V13.2243C13.0735 12.9555 12.9668 12.6978 12.7767 12.5077C12.5867 12.3177 12.3289 12.2109 12.0602 12.2109C11.7914 12.2109 11.5337 12.3177 11.3437 12.5077C11.1536 12.6978 11.0469 12.9555 11.0469 13.2243V30.4507C11.0469 30.7194 11.1536 30.9772 11.3437 31.1672C11.5337 31.3572 11.7914 31.464 12.0602 31.464Z" fill="#173766"/>
<path d="M19.0016 31.464C19.2703 31.464 19.5281 31.3572 19.7181 31.1672C19.9082 30.9772 20.0149 30.7194 20.0149 30.4507V13.2243C20.0149 12.9555 19.9082 12.6978 19.7181 12.5077C19.5281 12.3177 19.2703 12.2109 19.0016 12.2109C18.7329 12.2109 18.4751 12.3177 18.2851 12.5077C18.095 12.6978 17.9883 12.9555 17.9883 13.2243V30.4507C17.9883 30.7194 18.095 30.9772 18.2851 31.1672C18.4751 31.3572 18.7329 31.464 19.0016 31.464Z" fill="#173766"/>
<path d="M25.943 31.464C26.2118 31.464 26.4695 31.3572 26.6595 31.1672C26.8496 30.9772 26.9563 30.7194 26.9563 30.4507V13.2243C26.9563 12.9555 26.8496 12.6978 26.6595 12.5077C26.4695 12.3177 26.2118 12.2109 25.943 12.2109C25.6743 12.2109 25.4165 12.3177 25.2265 12.5077C25.0364 12.6978 24.9297 12.9555 24.9297 13.2243V30.4507C24.9297 30.7194 25.0364 30.9772 25.2265 31.1672C25.4165 31.3572 25.6743 31.464 25.943 31.464Z" fill="#173766"/>
</svg>
