<?xml version="1.0" encoding="UTF-8"?>
<svg viewBox="0 0 46 49" version="1.1" xmlns="http://www.w3.org/2000/svg" xmlns:xlink="http://www.w3.org/1999/xlink">
    <!-- Generator: Sketch 50.2 (55047) - http://www.bohemiancoding.com/sketch -->
    <title>noun_Delete_1803034_3db995</title>
    <desc>Created with Sketch.</desc>
    <defs></defs>
    <g id="Page-2" stroke="none" stroke-width="1" fill="none" fill-rule="evenodd">
        <g id="Annotations" transform="translate(-3703.000000, -2980.000000)" fill="#3DB995" fill-rule="nonzero">
            <g id="noun_Delete_1803034_3db995" transform="translate(3703.000000, 2980.000000)">
                <path d="M33.3607732,49 L14.0321764,49 C11.4541617,49 8.83042846,48.193395 6.98505673,46.6750365 C5.14312605,45.1593745 4,43.1346041 4,41.0078368 L4,18.2139184 C4,17.5434218 4.65988651,17 5.47478983,17 C6.2896932,17 6.94957976,17.5434218 6.94957976,18.2139184 L6.94957976,41.0079042 C6.94957976,42.4955896 7.77832978,43.8950981 9.07114702,44.9586838 C10.3672416,46.0251682 12.2310483,46.5731744 14.0322584,46.5731744 L33.360855,46.5731744 C35.1576407,46.5731744 36.8103886,46.0409431 38.1254916,44.9586838 C39.4062647,43.9050751 40.0504202,42.5429814 40.0504202,41.0079042 L40.0504202,18.2139184 C40.0504202,17.5434218 40.7103068,17 41.5252101,17 C42.3401134,17 43,17.5434218 43,18.2139184 L43,41.0079042 C43,43.1915013 42.0494159,45.1627451 40.2115,46.6751039 C38.3388446,48.2157089 35.9457521,49 33.3607732,49 Z" id="Shape"></path>
                <path d="M17.4594594,44 C16.653027,44 15.9999999,43.4571783 16,42.7874224 L16,18.2125774 C16,17.5428215 16.653027,17 17.4594594,17 C18.2658918,17 18.9189188,17.5428215 18.9189188,18.2125774 L18.9189188,42.7874224 C18.9189188,43.4571783 18.2658919,44 17.4594594,44 Z M29.5,44 C28.6935676,44 27.9999999,43.4571783 28,42.7874224 L28,18.2125774 C28,17.5428215 28.6935676,17 29.5,17 C30.3064324,17 31,17.5428215 31,18.2125774 L31,42.7874224 C31,43.4571783 30.3064324,44 29.5,44 Z" id="Shape"></path>
                <path d="M1.47619811,13 C0.773690588,13 0.150944429,12.5078504 0.0231784412,11.8072582 C-0.120014612,11.0207987 0.415092447,10.2696822 1.21853268,10.129355 L44.2627721,2.61698493 C45.0662122,2.4770593 45.8335464,3.00061581 45.9768216,3.78707517 C46.1200146,4.57353454 45.5849075,5.32465108 44.7814673,5.46497843 L1.73722793,12.9774288 C1.64950684,12.9926905 1.56219601,13.0000001 1.47619811,13 Z M15.1606937,5.30183891 C14.4581862,5.30183891 13.83544,4.80968932 13.7076741,4.10909697 C13.564481,3.3226376 14.0995881,2.57152106 14.9030283,2.43119381 L28.7035553,0.0225766036 C29.5069955,-0.117188384 30.2743297,0.406448476 30.4176869,1.19266685 C30.56088,1.97912623 30.0257729,2.73024277 29.2223327,2.87057007 L15.4218056,5.27918731 C15.3340024,5.29452935 15.2466916,5.30183891 15.1606937,5.30183891 Z" id="Shape"></path>
            </g>
        </g>
    </g>
</svg>