<svg width="18" height="18" viewBox="0 0 18 18" fill="none" xmlns="http://www.w3.org/2000/svg">
<path fill-rule="evenodd" clip-rule="evenodd" d="M4.19058 2.27513C4.3985 2.33034 4.5727 2.47218 4.6689 2.66459C5.41616 4.1591 6.42405 5.28611 7.79539 5.86414C7.78438 5.37328 7.86357 4.89144 8.0425 4.44427C8.38436 3.5899 9.07094 2.91604 10.0519 2.58648C11.7967 1.9803 13.1229 2.92665 13.8835 3.61727L15.9859 3.58342C16.2795 3.57869 16.5489 3.74575 16.6751 4.01088C16.8014 4.27601 16.7613 4.59043 16.5725 4.81539C16.3537 5.07616 15.8879 5.63936 15.4746 6.14003C15.2684 6.38979 15.076 6.62311 14.9352 6.794L14.8851 6.85477C14.9481 10.2864 13.1785 12.8991 10.6367 14.275C8.04206 15.6794 4.67006 15.7852 1.65772 14.251C1.36927 14.1041 1.20762 13.7887 1.25679 13.4688C1.30595 13.1488 1.55485 12.8965 1.8741 12.843C2.98528 12.6568 3.759 12.1219 4.25963 11.6303C4.29149 11.599 4.32221 11.5679 4.3518 11.5372C3.17757 10.9676 2.51445 9.62874 2.85208 8.24106C2.05058 7.50374 1.79724 6.4108 1.88517 5.42702C1.98895 4.26592 2.57636 3.04643 3.58206 2.37597C3.76105 2.25664 3.98267 2.21991 4.19058 2.27513ZM5.62771 11.0741C6.29853 11.4095 6.29838 11.4098 6.29822 11.4101L6.29788 11.4108L6.29713 11.4123L6.29533 11.4158L6.29051 11.4252L6.27594 11.4528C6.26403 11.4749 6.24766 11.5045 6.2267 11.5406C6.1848 11.6128 6.12432 11.7113 6.04408 11.8285C5.88398 12.0625 5.64284 12.3743 5.31062 12.7005C5.00248 13.0031 4.61406 13.3197 4.1389 13.5972C6.18815 14.125 8.26411 13.8536 9.92264 12.9558C12.0525 11.803 13.5207 9.60766 13.377 6.63265C13.368 6.44647 13.4287 6.26362 13.5472 6.11973L14.1262 6.59648L13.5472 6.11971L13.5473 6.11965L13.5475 6.11941L13.5482 6.11845L13.5513 6.11471L13.5634 6.10005L13.6096 6.04399L13.7777 5.83998C13.9187 5.66889 14.1113 5.43525 14.3178 5.18511C14.3385 5.16006 14.3593 5.13482 14.3803 5.10947L13.6039 5.12197C13.4054 5.12516 13.2137 5.04954 13.0709 4.91166C12.3662 4.23139 11.5654 3.64718 10.5414 4.00436L10.5324 4.00751L10.5323 4.00746C9.96015 4.19889 9.61128 4.56134 9.43515 5.00152C9.25298 5.45679 9.23687 6.04835 9.45034 6.68874C9.53448 6.94116 9.47858 7.21926 9.30345 7.41957C9.12832 7.61988 8.86017 7.71241 8.59878 7.66272C6.42688 7.2499 4.89616 5.94142 3.83021 4.23514C3.58727 4.61006 3.42251 5.07617 3.37921 5.56056C3.30738 6.36418 3.57824 7.00675 4.11372 7.31713C4.44691 7.51026 4.57968 7.92434 4.42091 8.2752C3.93358 9.35221 4.63991 10.3241 5.62771 10.3241C5.88765 10.3241 6.12905 10.4587 6.2657 10.6798C6.40236 10.9009 6.41478 11.177 6.29853 11.4095L5.62771 11.0741Z" fill="#74757A"/>
</svg>
