<svg width="24" height="24" viewBox="0 0 24 24" fill="none" xmlns="http://www.w3.org/2000/svg">
<path fill-rule="evenodd" clip-rule="evenodd" d="M5.52328 3.27513C5.73119 3.33035 5.90539 3.47218 6.0016 3.66459C7.08165 5.82469 8.57854 7.44686 10.6662 8.19309C10.5942 7.43772 10.6851 6.69427 10.9554 6.01856C11.3837 4.94821 12.2432 4.1015 13.4833 3.68521C15.7291 2.90433 17.4295 4.16343 18.4158 5.0746L21.3185 5.02786C21.6122 5.02313 21.8815 5.19019 22.0078 5.45532C22.134 5.72045 22.0939 6.03487 21.9052 6.25983C21.6127 6.60845 20.9909 7.36025 20.44 8.02755C20.165 8.36063 19.9085 8.67177 19.7207 8.89966L19.5948 9.05236C19.7104 13.5761 17.3963 17.0093 14.0632 18.8134C10.678 20.6458 6.26894 20.7878 2.32375 18.7786C2.0353 18.6317 1.87365 18.3163 1.92281 17.9964C1.97198 17.6764 2.22087 17.4241 2.54012 17.3706C4.08341 17.1119 5.15959 16.368 5.85467 15.6854C5.99306 15.5495 6.11599 15.4164 6.22401 15.2904C4.5286 14.6624 3.54333 12.8108 4.0838 10.9023C2.99976 9.9857 2.64587 8.5639 2.76257 7.25828C2.89572 5.76857 3.64979 4.21927 4.91475 3.37597C5.09375 3.25664 5.31536 3.21992 5.52328 3.27513ZM7.50362 14.7654C8.17444 15.1008 8.17428 15.1011 8.17412 15.1015L8.17377 15.1022L8.17297 15.1037L8.17098 15.1077L8.16539 15.1185C8.16095 15.1271 8.15508 15.1383 8.14775 15.1519C8.1331 15.1792 8.11259 15.2162 8.08606 15.262C8.03302 15.3533 7.95567 15.4794 7.85247 15.6302C7.64646 15.9312 7.33511 16.334 6.90566 16.7557C6.39679 17.2554 5.71899 17.7843 4.85428 18.1995C7.83717 19.1392 10.9173 18.8106 13.3492 17.4943C16.2697 15.9134 18.2821 12.8984 18.0858 8.83148C18.0768 8.6453 18.1374 8.46244 18.2559 8.31855L18.8349 8.7953L18.2559 8.31853L18.256 8.31844L18.2563 8.31813L18.2573 8.31686L18.2614 8.31187L18.2775 8.29233L18.3391 8.21761L18.5632 7.94564C18.7511 7.71755 19.008 7.40609 19.2832 7.07263C19.4233 6.90293 19.5684 6.7273 19.7117 6.55393L18.1345 6.57932C17.936 6.58252 17.7444 6.50689 17.6015 6.36901C16.6619 5.46193 15.4905 4.57372 13.9729 5.1031L13.9638 5.10625L13.9638 5.10619C13.1324 5.38437 12.6106 5.91966 12.3481 6.57581C12.0795 7.24706 12.0634 8.09773 12.3633 8.99738C12.4474 9.2498 12.3915 9.5279 12.2164 9.72821C12.0413 9.92852 11.7731 10.021 11.5117 9.97136C8.56919 9.41206 6.52735 7.58409 5.12617 5.19606C4.65052 5.77784 4.3299 6.57188 4.25661 7.39182C4.15541 8.52406 4.53419 9.49404 5.35959 9.97247C5.69278 10.1656 5.82555 10.5797 5.66679 10.9305C4.94528 12.525 5.99729 14.0154 7.50362 14.0154C7.76355 14.0154 8.00495 14.15 8.14161 14.3711C8.27826 14.5922 8.29068 14.8683 8.17444 15.1008L7.50362 14.7654Z" fill="#12131B"/>
</svg>
