<svg width="559" height="708" viewBox="0 0 559 708" fill="none" xmlns="http://www.w3.org/2000/svg">
<g clip-path="url(#clip0_17060_45385)">
<path fill-rule="evenodd" clip-rule="evenodd" d="M-253.405 1.22977H451.405C464.309 1.22977 474.77 11.6909 474.77 24.5953V69.5412H210.51C202.485 69.5412 195.979 63.0352 195.979 55.0096V30.7753C195.979 22.0706 188.922 15.014 180.217 15.014H-61.0223C-69.727 15.014 -76.7836 22.0706 -76.7836 30.7753V55.0096C-76.7836 63.0352 -83.2896 69.5412 -91.3152 69.5412H-250.953V70.7709H-91.3152C-82.6104 70.7709 -75.5538 63.7143 -75.5538 55.0096V30.7753C-75.5538 22.7498 -69.0479 16.2438 -61.0223 16.2438H180.217C188.243 16.2438 194.749 22.7498 194.749 30.7753V55.0096C194.749 63.7143 201.805 70.7709 210.51 70.7709H474.77V142.518L-250.023 142.518V143.748L214.213 143.748V706.77H-253.405C-266.309 706.77 -276.77 696.309 -276.77 683.405V617.82L140.731 617.82C142.769 617.82 144.421 616.169 144.421 614.131V601.833C144.421 599.796 142.769 598.144 140.731 598.144L-276.77 598.144V575.766H-103.724C-101.687 575.766 -100.035 574.114 -100.035 572.076V559.765C-100.035 557.727 -101.687 556.075 -103.724 556.075L-276.77 556.075V531.84L162.907 531.84C164.945 531.84 166.597 530.188 166.597 528.151V515.839C166.597 513.801 164.945 512.149 162.907 512.149L-276.77 512.15V472.766L171.529 472.766C179.679 472.766 186.286 466.159 186.286 458.008V351.205C186.286 343.055 179.679 336.448 171.529 336.448L-276.77 336.448V284.957L-146.997 284.957C-146.326 284.957 -145.69 284.812 -145.117 284.551H96.1508C98.5279 284.551 100.455 282.624 100.455 280.247V271.638C100.455 269.261 98.5279 267.334 96.1507 267.334H-143.187C-143.997 266.089 -145.401 265.267 -146.997 265.267H-276.77V200.934L16.216 200.934C18.5931 200.934 20.5202 199.007 20.5202 196.629V188.021C20.5202 185.644 18.5931 183.717 16.216 183.717L-276.77 183.717V131.349H241.311C255.035 131.349 266.161 120.224 266.161 106.5C266.161 92.7761 255.035 81.6507 241.311 81.6507H-276.77V24.5954C-276.77 11.6909 -266.309 1.22977 -253.405 1.22977ZM-278 81.6507H-278.211V82.8805H-278V130.119H-278.211V131.349H-278V183.717L-390.836 183.717C-393.214 183.717 -395.141 185.644 -395.141 188.021L-395.141 196.629C-395.141 199.007 -393.214 200.934 -390.836 200.934L-278 200.934V265.267H-390.855C-393.364 265.267 -395.398 267.301 -395.398 269.811L-395.398 280.413C-395.398 282.923 -393.364 284.957 -390.855 284.957H-278V336.448H-394.212C-402.362 336.448 -408.969 343.055 -408.969 351.205L-408.969 458.008C-408.969 466.159 -402.362 472.766 -394.212 472.766H-278V512.15H-325.002C-327.04 512.15 -328.691 513.801 -328.691 515.839V528.151C-328.691 530.188 -327.04 531.84 -325.002 531.84H-278V556.075H-349.291C-351.329 556.075 -352.98 557.727 -352.98 559.765V572.076C-352.98 574.114 -351.329 575.766 -349.291 575.766H-278V598.144H-325.35C-327.387 598.144 -329.039 599.796 -329.039 601.833V614.131C-329.039 616.169 -327.387 617.82 -325.35 617.82H-278V683.405C-278 696.988 -266.988 708 -253.405 708H214.213V761.703H215.443V708H451.405C464.988 708 476 696.988 476 683.405V24.5953C476 11.0117 464.988 0 451.405 0H-253.405C-266.988 0 -278 11.0117 -278 24.5954V81.6507ZM215.443 706.77H451.405C464.309 706.77 474.77 696.309 474.77 683.405V143.748L215.443 143.748L215.443 706.77ZM-276.77 130.119V82.8805H241.311C254.356 82.8805 264.931 93.4553 264.931 106.5C264.931 119.545 254.356 130.119 241.311 130.119H-276.77ZM-35.8731 58.321H-51.0196C-53.6864 58.321 -55.8484 56.1591 -55.8484 53.4922V38.3458C-55.8484 35.6789 -53.6864 33.517 -51.0196 33.517H-35.8731C-33.2063 33.517 -31.0443 35.6789 -31.0443 38.3458V53.4922C-31.0443 56.1591 -33.2063 58.321 -35.8731 58.321ZM-51.0196 59.5508C-54.3656 59.5508 -57.0781 56.8383 -57.0781 53.4922V38.3458C-57.0781 34.9997 -54.3656 32.2872 -51.0196 32.2872H-35.8731C-32.5271 32.2872 -29.8145 34.9997 -29.8145 38.3458V53.4922C-29.8145 56.8383 -32.5271 59.5508 -35.8731 59.5508H-51.0196ZM-5.58109 52.2585L168.603 52.2585C170.433 52.2585 171.917 50.7747 171.917 48.9443V42.8858C171.917 41.0554 170.433 39.5716 168.603 39.5716L-5.58109 39.5716C-7.41144 39.5716 -8.89523 41.0554 -8.89523 42.8858V48.9444C-8.89523 50.7747 -7.41144 52.2585 -5.58109 52.2585ZM-10.125 48.9444C-10.125 51.4539 -8.09061 53.4883 -5.58109 53.4883L168.603 53.4883C171.112 53.4883 173.147 51.4539 173.147 48.9443V42.8858C173.147 40.3762 171.112 38.3419 168.603 38.3419L-5.58109 38.3419C-8.09061 38.3419 -10.125 40.3763 -10.125 42.8858V48.9444ZM-249.434 48.9444C-249.434 51.4539 -247.399 53.4883 -244.89 53.4883L-100.999 53.4883C-98.4891 53.4883 -96.4547 51.4539 -96.4547 48.9443V42.8858C-96.4547 40.3762 -98.4891 38.3419 -100.999 38.3419L-244.89 38.3419C-247.399 38.3419 -249.434 40.3763 -249.434 42.8858V48.9444ZM3.01172 572.076C3.01172 574.114 4.66348 575.766 6.70102 575.766H182.594C184.632 575.766 186.283 574.114 186.283 572.076V559.765C186.283 557.727 184.632 556.075 182.594 556.075H6.70102C4.66348 556.075 3.01172 557.727 3.01172 559.765V572.076ZM-13.2935 242.734C-15.6706 242.734 -17.5977 240.807 -17.5977 238.43V229.822C-17.5977 227.445 -15.6706 225.518 -13.2935 225.518L115.832 225.518C118.209 225.518 120.136 227.445 120.136 229.822V238.43C120.136 240.807 118.209 242.734 115.832 242.734L-13.2935 242.734ZM-127.047 238.43C-127.047 240.807 -125.12 242.734 -122.743 242.734L-35.4294 242.734C-33.0522 242.734 -31.1252 240.807 -31.1252 238.43V229.822C-31.1252 227.445 -33.0522 225.518 -35.4294 225.518H-122.743C-125.12 225.518 -127.047 227.445 -127.047 229.822V238.43ZM-81.2091 575.766C-83.2467 575.766 -84.8984 574.114 -84.8984 572.076V559.765C-84.8984 557.727 -83.2467 556.075 -81.2091 556.075H-40.1192C-38.0816 556.075 -36.4299 557.727 -36.4299 559.765V572.076C-36.4299 574.114 -38.0816 575.766 -40.1192 575.766H-81.2091ZM57.726 200.934C55.3489 200.934 53.4219 199.007 53.4219 196.629V188.021C53.4219 185.644 55.3489 183.717 57.7261 183.717L181.932 183.717C184.31 183.717 186.237 185.644 186.237 188.021V196.629C186.237 199.007 184.31 200.934 181.932 200.934L57.726 200.934ZM225.545 106.507C225.545 98.6386 231.924 92.2601 239.792 92.2601C247.66 92.2601 254.039 98.6386 254.039 106.507C254.039 114.375 247.66 120.753 239.792 120.753C231.924 120.753 225.545 114.375 225.545 106.507ZM239.792 93.4899C232.603 93.4899 226.775 99.3177 226.775 106.507C226.775 113.696 232.603 119.524 239.792 119.524C246.981 119.524 252.809 113.696 252.809 106.507C252.809 99.3177 246.981 93.4899 239.792 93.4899ZM194.351 92.2601C186.482 92.2601 180.104 98.6386 180.104 106.507C180.104 114.375 186.482 120.753 194.351 120.753C202.219 120.753 208.597 114.375 208.597 106.507C208.597 98.6386 202.219 92.2601 194.351 92.2601ZM181.334 106.507C181.334 99.3177 187.161 93.4899 194.351 93.4899C201.54 93.4899 207.367 99.3177 207.367 106.507C207.367 113.696 201.54 119.524 194.351 119.524C187.161 119.524 181.334 113.696 181.334 106.507ZM289.159 106.499C289.159 95.2847 298.25 86.1937 309.464 86.1937C320.678 86.1937 329.769 95.2847 329.769 106.499C329.769 117.713 320.678 126.804 309.464 126.804C298.25 126.804 289.159 117.713 289.159 106.499ZM309.464 87.4235C298.929 87.4235 290.388 95.9639 290.388 106.499C290.388 117.034 298.929 125.574 309.464 125.574C319.999 125.574 328.539 117.034 328.539 106.499C328.539 95.9639 319.999 87.4235 309.464 87.4235ZM373.077 86.1937C361.863 86.1937 352.772 95.2847 352.772 106.499C352.772 117.713 361.863 126.804 373.077 126.804C384.291 126.804 393.382 117.713 393.382 106.499C393.382 95.2847 384.291 86.1937 373.077 86.1937ZM354.002 106.499C354.002 95.9639 362.542 87.4235 373.077 87.4235C383.612 87.4235 392.153 95.9639 392.153 106.499C392.153 117.034 383.612 125.574 373.077 125.574C362.542 125.574 354.002 117.034 354.002 106.499ZM428.51 93.6343C428.51 91.2034 430.481 89.2328 432.912 89.2328C435.342 89.2328 437.313 91.2034 437.313 93.6343C437.313 96.0651 435.342 98.0358 432.912 98.0358C430.481 98.0358 428.51 96.0651 428.51 93.6343ZM432.912 90.4625C431.16 90.4625 429.74 91.8826 429.74 93.6343C429.74 95.386 431.16 96.806 432.912 96.806C434.663 96.806 436.083 95.386 436.083 93.6343C436.083 91.8826 434.663 90.4625 432.912 90.4625ZM432.912 102.104C430.481 102.104 428.51 104.074 428.51 106.505C428.51 108.936 430.481 110.907 432.912 110.907C435.342 110.907 437.313 108.936 437.313 106.505C437.313 104.074 435.342 102.104 432.912 102.104ZM429.74 106.505C429.74 104.754 431.16 103.334 432.912 103.334C434.663 103.334 436.083 104.754 436.083 106.505C436.083 108.257 434.663 109.677 432.912 109.677C431.16 109.677 429.74 108.257 429.74 106.505ZM428.51 119.38C428.51 116.949 430.481 114.979 432.912 114.979C435.342 114.979 437.313 116.949 437.313 119.38C437.313 121.811 435.342 123.782 432.912 123.782C430.481 123.782 428.51 121.811 428.51 119.38ZM432.912 116.209C431.16 116.209 429.74 117.629 429.74 119.38C429.74 121.132 431.16 122.552 432.912 122.552C434.663 122.552 436.083 121.132 436.083 119.38C436.083 117.629 434.663 116.209 432.912 116.209Z" fill="url(#paint0_linear_17060_45385)"/>
<rect opacity="0.6" width="495.596" height="17.2167" rx="4.30418" transform="matrix(1 -8.74228e-08 -8.74228e-08 -1 -370.84 284.555)" fill="#6AE394"/>
<rect width="141.423" height="17.2167" rx="4.30418" transform="matrix(1 -8.74228e-08 -8.74228e-08 -1 3.01172 242.738)" fill="#6AE394"/>
<path d="M447.257 555.1H244.346C238.912 555.1 234.508 550.696 234.508 545.262V460.408C234.508 454.975 238.912 450.57 244.346 450.57H447.257C452.691 450.57 457.095 454.975 457.095 460.408V545.262C457.095 550.696 452.691 555.1 447.257 555.1Z" fill="url(#paint1_linear_17060_45385)"/>
<rect width="130.355" height="6.14882" rx="1.22977" transform="matrix(1 -6.94066e-08 -1.10115e-07 -1 249.262 475.164)" fill="#3E3F47"/>
<rect width="70.0966" height="6.14882" rx="1.22977" transform="matrix(1 -6.94066e-08 -1.10115e-07 -1 249.262 516.977)" fill="#3E3F47"/>
<rect width="182.005" height="6.14881" rx="1.22977" transform="matrix(1 -8.32879e-08 -9.17629e-08 -1 249.262 496.066)" fill="#3E3F47"/>
<rect width="54.1097" height="6.14882" rx="1.22977" transform="matrix(1 -7.28523e-08 -1.04907e-07 -1 385.77 475.164)" fill="#3E3F47"/>
<rect width="110.679" height="6.14882" rx="1.22977" transform="matrix(1 -7.28523e-08 -1.04907e-07 -1 325.512 516.977)" fill="#3E3F47"/>
<rect width="44.2716" height="3.68929" rx="1.84465" transform="matrix(1 -8.74228e-08 -8.74228e-08 -1 249.262 540.344)" fill="#3E3F47"/>
<rect width="25.8251" height="3.68929" rx="1.84465" transform="matrix(1 -8.74228e-08 -8.74228e-08 -1 298.457 540.344)" fill="#3E3F47"/>
<rect width="8.60836" height="8.60836" rx="4.30418" transform="matrix(1 -8.74228e-08 -8.74228e-08 -1 437.414 542.805)" fill="#6AE394"/>
<path d="M447.257 642.421H244.346C238.912 642.421 234.508 638.016 234.508 632.582V574.783C234.508 569.35 238.912 564.945 244.346 564.945H447.257C452.691 564.945 457.095 569.35 457.095 574.783V632.582C457.095 638.016 452.691 642.421 447.257 642.421Z" fill="url(#paint2_linear_17060_45385)"/>
<rect width="130.355" height="6.14882" rx="1.22977" transform="matrix(1 -6.94066e-08 -1.10115e-07 -1 309.523 589.539)" fill="#3E3F47"/>
<rect width="158.64" height="6.14881" rx="1.22977" transform="matrix(1 -8.32879e-08 -9.17629e-08 -1 249.262 610.441)" fill="#3E3F47"/>
<rect width="54.1097" height="6.14882" rx="1.22977" transform="matrix(1 -7.28523e-08 -1.04907e-07 -1 249.262 589.539)" fill="#3E3F47"/>
<rect width="44.2716" height="3.68929" rx="1.84465" transform="matrix(1 -8.74228e-08 -8.74228e-08 -1 249.262 630.121)" fill="#3E3F47"/>
<rect width="25.8251" height="3.68929" rx="1.84465" transform="matrix(1 -8.74228e-08 -8.74228e-08 -1 298.457 630.121)" fill="#3E3F47"/>
<rect width="8.60836" height="8.60836" rx="4.30418" transform="matrix(1 -8.74228e-08 -8.74228e-08 -1 437.414 632.582)" fill="#6AE394"/>
<path d="M-28 -146.5C-28 -159.203 -17.7025 -169.5 -5 -169.5H452C464.703 -169.5 475 -159.203 475 -146.5V683.5C475 696.203 464.703 706.5 452 706.5H-5C-17.7026 706.5 -28 696.203 -28 683.5V-146.5Z" fill="url(#paint3_linear_17060_45385)"/>
<path d="M-28 -146.5C-28 -159.203 -17.7025 -169.5 -5 -169.5H452C464.703 -169.5 475 -159.203 475 -146.5V683.5C475 696.203 464.703 706.5 452 706.5H-5C-17.7026 706.5 -28 696.203 -28 683.5V-146.5Z" fill="url(#paint4_linear_17060_45385)"/>
<g filter="url(#filter0_d_17060_45385)">
<path d="M497.677 269.794H243.115C237.682 269.794 233.277 265.39 233.277 259.956V172.643C233.277 167.209 237.682 162.805 243.115 162.805H497.677C503.11 162.805 507.515 167.209 507.515 172.643V259.956C507.515 265.39 503.11 269.794 497.677 269.794Z" fill="url(#paint5_linear_17060_45385)"/>
<path d="M497.677 269.794H243.115C237.682 269.794 233.277 265.39 233.277 259.956V172.643C233.277 167.209 237.682 162.805 243.115 162.805H497.677C503.11 162.805 507.515 167.209 507.515 172.643V259.956C507.515 265.39 503.11 269.794 497.677 269.794Z" stroke="#6AE394" stroke-width="1.51464"/>
</g>
<rect width="144" height="6.99999" rx="1.22977" transform="matrix(1 -6.26307e-08 -1.22029e-07 -1 253 189)" fill="#A9A9B1"/>
<rect width="78" height="6" rx="1.22977" transform="matrix(1 -6.26307e-08 -1.22029e-07 -1 253 230)" fill="#A9A9B1"/>
<rect width="202" height="6.99998" rx="1.22977" transform="matrix(1 -7.51569e-08 -1.01691e-07 -1 253 210)" fill="#A9A9B1"/>
<rect width="75" height="7" rx="1.22977" transform="matrix(1 -6.574e-08 -1.16257e-07 -1 404 189)" fill="#A9A9B1"/>
<rect width="131" height="5.99999" rx="1.22977" transform="matrix(1 -6.574e-08 -1.16257e-07 -1 337 230)" fill="#A9A9B1"/>
<rect width="44.2716" height="3.68929" rx="1.84465" transform="matrix(1 -8.74228e-08 -8.74228e-08 -1 250.496 253.809)" fill="#616069"/>
<rect width="25.8251" height="3.68929" rx="1.84465" transform="matrix(1 -8.74228e-08 -8.74228e-08 -1 299.684 253.809)" fill="#616069"/>
<rect width="8.60836" height="8.60836" rx="4.30418" transform="matrix(1 -8.74228e-08 -8.74228e-08 -1 484.148 256.266)" fill="#6AE394"/>
<g filter="url(#filter1_d_17060_45385)">
<path d="M497.4 393.99H242.838C237.405 393.99 233 389.585 233 384.151V296.838C233 291.405 237.405 287 242.838 287H497.4C502.833 287 507.238 291.405 507.238 296.838V384.151C507.238 389.585 502.833 393.99 497.4 393.99Z" fill="url(#paint6_linear_17060_45385)"/>
<path d="M497.4 393.99H242.838C237.405 393.99 233 389.585 233 384.151V296.838C233 291.405 237.405 287 242.838 287H497.4C502.833 287 507.238 291.405 507.238 296.838V384.151C507.238 389.585 502.833 393.99 497.4 393.99Z" stroke="#6AE394" stroke-width="1.51464"/>
</g>
<rect width="144" height="6.99999" rx="1.22977" transform="matrix(1 -6.26307e-08 -1.22029e-07 -1 252.723 313.195)" fill="#A9A9B1"/>
<rect width="78" height="6" rx="1.22977" transform="matrix(1 -6.26307e-08 -1.22029e-07 -1 252.723 354.195)" fill="#A9A9B1"/>
<rect width="202" height="6.99998" rx="1.22977" transform="matrix(1 -7.51569e-08 -1.01691e-07 -1 252.723 334.195)" fill="#A9A9B1"/>
<rect width="75" height="7" rx="1.22977" transform="matrix(1 -6.574e-08 -1.16257e-07 -1 403.723 313.195)" fill="#A9A9B1"/>
<rect width="131" height="5.99999" rx="1.22977" transform="matrix(1 -6.574e-08 -1.16257e-07 -1 336.723 354.195)" fill="#A9A9B1"/>
<rect width="44.2716" height="3.68929" rx="1.84465" transform="matrix(1 -8.74228e-08 -8.74228e-08 -1 250.219 378.004)" fill="#616069"/>
<rect width="25.8251" height="3.68929" rx="1.84465" transform="matrix(1 -8.74228e-08 -8.74228e-08 -1 299.406 378.004)" fill="#616069"/>
<rect width="8.60836" height="8.60836" rx="4.30418" transform="matrix(1 -8.74228e-08 -8.74228e-08 -1 483.871 380.461)" fill="#6AE394"/>
<g filter="url(#filter2_di_17060_45385)">
<ellipse cx="4.30418" cy="4.30418" rx="4.30418" ry="4.30418" transform="matrix(1 -8.74228e-08 -8.74228e-08 -1 447.254 112.387)" fill="#C6F0D4"/>
</g>
<g filter="url(#filter3_di_17060_45385)">
<ellipse cx="2.45953" cy="2.45953" rx="2.45953" ry="2.45953" transform="matrix(1 -8.74228e-08 -8.74228e-08 -1 495.215 70.5781)" fill="#C6F0D4"/>
</g>
<g filter="url(#filter4_di_17060_45385)">
<ellipse cx="6.76371" cy="6.76371" rx="6.76371" ry="6.76371" transform="matrix(1 -8.74228e-08 -8.74228e-08 -1 469.395 149.277)" fill="#C6F0D4"/>
</g>
</g>
<defs>
<filter id="filter0_d_17060_45385" x="185.483" y="115.01" width="369.828" height="202.578" filterUnits="userSpaceOnUse" color-interpolation-filters="sRGB">
<feFlood flood-opacity="0" result="BackgroundImageFix"/>
<feColorMatrix in="SourceAlpha" type="matrix" values="0 0 0 0 0 0 0 0 0 0 0 0 0 0 0 0 0 0 127 0" result="hardAlpha"/>
<feOffset/>
<feGaussianBlur stdDeviation="23.5185"/>
<feColorMatrix type="matrix" values="0 0 0 0 0.415686 0 0 0 0 0.890196 0 0 0 0 0.580392 0 0 0 0.2 0"/>
<feBlend mode="normal" in2="BackgroundImageFix" result="effect1_dropShadow_17060_45385"/>
<feBlend mode="normal" in="SourceGraphic" in2="effect1_dropShadow_17060_45385" result="shape"/>
</filter>
<filter id="filter1_d_17060_45385" x="185.205" y="239.205" width="369.828" height="202.578" filterUnits="userSpaceOnUse" color-interpolation-filters="sRGB">
<feFlood flood-opacity="0" result="BackgroundImageFix"/>
<feColorMatrix in="SourceAlpha" type="matrix" values="0 0 0 0 0 0 0 0 0 0 0 0 0 0 0 0 0 0 127 0" result="hardAlpha"/>
<feOffset/>
<feGaussianBlur stdDeviation="23.5185"/>
<feColorMatrix type="matrix" values="0 0 0 0 0.415686 0 0 0 0 0.890196 0 0 0 0 0.580392 0 0 0 0.2 0"/>
<feBlend mode="normal" in2="BackgroundImageFix" result="effect1_dropShadow_17060_45385"/>
<feBlend mode="normal" in="SourceGraphic" in2="effect1_dropShadow_17060_45385" result="shape"/>
</filter>
<filter id="filter2_di_17060_45385" x="432.497" y="89.0202" width="38.1237" height="38.1237" filterUnits="userSpaceOnUse" color-interpolation-filters="sRGB">
<feFlood flood-opacity="0" result="BackgroundImageFix"/>
<feColorMatrix in="SourceAlpha" type="matrix" values="0 0 0 0 0 0 0 0 0 0 0 0 0 0 0 0 0 0 127 0" result="hardAlpha"/>
<feOffset/>
<feGaussianBlur stdDeviation="7.37859"/>
<feComposite in2="hardAlpha" operator="out"/>
<feColorMatrix type="matrix" values="0 0 0 0 0.415686 0 0 0 0 0.890196 0 0 0 0 0.580392 0 0 0 1 0"/>
<feBlend mode="normal" in2="BackgroundImageFix" result="effect1_dropShadow_17060_45385"/>
<feBlend mode="normal" in="SourceGraphic" in2="effect1_dropShadow_17060_45385" result="shape"/>
<feColorMatrix in="SourceAlpha" type="matrix" values="0 0 0 0 0 0 0 0 0 0 0 0 0 0 0 0 0 0 127 0" result="hardAlpha"/>
<feMorphology radius="1.22977" operator="erode" in="SourceAlpha" result="effect2_innerShadow_17060_45385"/>
<feOffset/>
<feGaussianBlur stdDeviation="0.614883"/>
<feComposite in2="hardAlpha" operator="arithmetic" k2="-1" k3="1"/>
<feColorMatrix type="matrix" values="0 0 0 0 0.415686 0 0 0 0 0.890196 0 0 0 0 0.580392 0 0 0 1 0"/>
<feBlend mode="normal" in2="shape" result="effect2_innerShadow_17060_45385"/>
</filter>
<filter id="filter3_di_17060_45385" x="480.458" y="50.903" width="34.4323" height="34.4323" filterUnits="userSpaceOnUse" color-interpolation-filters="sRGB">
<feFlood flood-opacity="0" result="BackgroundImageFix"/>
<feColorMatrix in="SourceAlpha" type="matrix" values="0 0 0 0 0 0 0 0 0 0 0 0 0 0 0 0 0 0 127 0" result="hardAlpha"/>
<feOffset/>
<feGaussianBlur stdDeviation="7.37859"/>
<feComposite in2="hardAlpha" operator="out"/>
<feColorMatrix type="matrix" values="0 0 0 0 0.415686 0 0 0 0 0.890196 0 0 0 0 0.580392 0 0 0 1 0"/>
<feBlend mode="normal" in2="BackgroundImageFix" result="effect1_dropShadow_17060_45385"/>
<feBlend mode="normal" in="SourceGraphic" in2="effect1_dropShadow_17060_45385" result="shape"/>
<feColorMatrix in="SourceAlpha" type="matrix" values="0 0 0 0 0 0 0 0 0 0 0 0 0 0 0 0 0 0 127 0" result="hardAlpha"/>
<feMorphology radius="1.22977" operator="erode" in="SourceAlpha" result="effect2_innerShadow_17060_45385"/>
<feOffset/>
<feGaussianBlur stdDeviation="0.614883"/>
<feComposite in2="hardAlpha" operator="arithmetic" k2="-1" k3="1"/>
<feColorMatrix type="matrix" values="0 0 0 0 0.415686 0 0 0 0 0.890196 0 0 0 0 0.580392 0 0 0 1 0"/>
<feBlend mode="normal" in2="shape" result="effect2_innerShadow_17060_45385"/>
</filter>
<filter id="filter4_di_17060_45385" x="449.718" y="116.074" width="52.8798" height="52.8798" filterUnits="userSpaceOnUse" color-interpolation-filters="sRGB">
<feFlood flood-opacity="0" result="BackgroundImageFix"/>
<feColorMatrix in="SourceAlpha" type="matrix" values="0 0 0 0 0 0 0 0 0 0 0 0 0 0 0 0 0 0 127 0" result="hardAlpha"/>
<feOffset/>
<feGaussianBlur stdDeviation="9.83812"/>
<feComposite in2="hardAlpha" operator="out"/>
<feColorMatrix type="matrix" values="0 0 0 0 0.415686 0 0 0 0 0.890196 0 0 0 0 0.580392 0 0 0 1 0"/>
<feBlend mode="normal" in2="BackgroundImageFix" result="effect1_dropShadow_17060_45385"/>
<feBlend mode="normal" in="SourceGraphic" in2="effect1_dropShadow_17060_45385" result="shape"/>
<feColorMatrix in="SourceAlpha" type="matrix" values="0 0 0 0 0 0 0 0 0 0 0 0 0 0 0 0 0 0 127 0" result="hardAlpha"/>
<feMorphology radius="1.22977" operator="erode" in="SourceAlpha" result="effect2_innerShadow_17060_45385"/>
<feOffset/>
<feGaussianBlur stdDeviation="1.84465"/>
<feComposite in2="hardAlpha" operator="arithmetic" k2="-1" k3="1"/>
<feColorMatrix type="matrix" values="0 0 0 0 0.415686 0 0 0 0 0.890196 0 0 0 0 0.580392 0 0 0 1 0"/>
<feBlend mode="normal" in2="shape" result="effect2_innerShadow_17060_45385"/>
</filter>
<linearGradient id="paint0_linear_17060_45385" x1="551.454" y1="-46.3006" x2="163.23" y2="721.918" gradientUnits="userSpaceOnUse">
<stop stop-color="#A8AABA"/>
<stop offset="0.236568" stop-color="#474852"/>
<stop offset="0.468097" stop-color="#303139"/>
<stop offset="1" stop-color="#303139"/>
</linearGradient>
<linearGradient id="paint1_linear_17060_45385" x1="416.404" y1="395.039" x2="198.868" y2="448.39" gradientUnits="userSpaceOnUse">
<stop stop-color="#2B2C35"/>
<stop offset="1" stop-color="#262730"/>
</linearGradient>
<linearGradient id="paint2_linear_17060_45385" x1="416.404" y1="523.787" x2="208.543" y2="592.567" gradientUnits="userSpaceOnUse">
<stop stop-color="#2B2C35"/>
<stop offset="1" stop-color="#262730"/>
</linearGradient>
<linearGradient id="paint3_linear_17060_45385" x1="383.894" y1="-243.963" x2="-12.8533" y2="-243.963" gradientUnits="userSpaceOnUse">
<stop offset="0.429861" stop-color="#12131B" stop-opacity="0"/>
<stop offset="1" stop-color="#12131B"/>
</linearGradient>
<linearGradient id="paint4_linear_17060_45385" x1="383.894" y1="-243.963" x2="383.894" y2="708" gradientUnits="userSpaceOnUse">
<stop offset="0.555558" stop-color="#1E1F26" stop-opacity="0"/>
<stop offset="0.920156" stop-color="#12131B"/>
</linearGradient>
<linearGradient id="paint5_linear_17060_45385" x1="457.381" y1="105.966" x2="196.025" y2="183.123" gradientUnits="userSpaceOnUse">
<stop stop-color="#2F3036"/>
<stop offset="1" stop-color="#1E1F26"/>
</linearGradient>
<linearGradient id="paint6_linear_17060_45385" x1="457.104" y1="230.162" x2="195.747" y2="307.318" gradientUnits="userSpaceOnUse">
<stop stop-color="#2F3036"/>
<stop offset="1" stop-color="#1E1F26"/>
</linearGradient>
<clipPath id="clip0_17060_45385">
<rect width="583" height="708" fill="white" transform="translate(-24)"/>
</clipPath>
</defs>
</svg>
