<svg width="250" height="204" viewBox="0 0 250 204" fill="none" xmlns="http://www.w3.org/2000/svg">
<path d="M78.62 203.59C172.96 203.59 224.56 125.43 224.56 57.6501C224.56 55.4301 224.56 53.2202 224.41 51.0202C234.448 43.7593 243.114 34.7689 250 24.4702C240.639 28.6182 230.708 31.3384 220.54 32.5401C231.247 26.13 239.261 16.0479 243.09 4.17015C233.022 10.1447 222.006 14.3553 210.52 16.6202C202.787 8.397 192.559 2.95183 181.419 1.12728C170.279 -0.69727 158.848 1.20051 148.895 6.52695C138.943 11.8534 131.023 20.3115 126.362 30.5925C121.701 40.8735 120.558 52.4042 123.11 63.4001C102.718 62.3778 82.768 57.0785 64.5564 47.8461C46.3448 38.6136 30.2784 25.6546 17.4 9.81015C10.8409 21.1018 8.832 34.4688 11.7823 47.1895C14.7326 59.9103 22.4202 71.0284 33.28 78.2802C25.1174 78.0382 17.1328 75.8363 10 71.8602C10 72.0702 10 72.2901 10 72.5101C10.0032 84.3523 14.1026 95.8288 21.6028 104.993C29.103 114.157 39.5423 120.445 51.15 122.79C43.5987 124.85 35.6758 125.151 27.99 123.67C31.2676 133.862 37.6486 142.774 46.2407 149.161C54.8328 155.548 65.2061 159.089 75.91 159.29C57.7474 173.564 35.3106 181.313 12.21 181.29C8.12903 181.282 4.05204 181.035 0 180.55C23.4564 195.603 50.7491 203.587 78.62 203.55" fill="#1DA1F2"/>
</svg>
