<svg width="245" height="200" viewBox="0 0 245 200" fill="none" xmlns="http://www.w3.org/2000/svg">
<path d="M244.976 24.3546C235.963 28.352 226.276 31.0536 216.109 32.2687C226.487 26.0482 234.455 16.1986 238.208 4.46278C228.497 10.2218 217.741 14.4047 206.293 16.6592C197.124 6.89113 184.062 0.787109 169.607 0.787109C141.849 0.787109 119.346 23.2901 119.346 51.0458C119.346 54.9849 119.791 58.821 120.648 62.4993C78.8764 60.4034 41.8428 40.3942 17.054 9.98704C12.7278 17.4101 10.2492 26.0437 10.2492 35.2544C10.2492 52.691 19.123 68.0747 32.6088 77.0873C24.3695 76.8266 16.6203 74.5658 9.84331 70.8014C9.83972 71.0111 9.83972 71.2216 9.83972 71.4331C9.83972 95.7847 27.1643 116.099 50.1565 120.715C45.9387 121.864 41.4987 122.478 36.9144 122.478C33.676 122.478 30.5272 122.163 27.4591 121.576C33.8544 141.544 52.4155 156.075 74.4086 156.481C57.2077 169.96 35.5363 177.995 11.9894 177.995C7.93289 177.995 3.93195 177.758 0 177.294C22.2422 191.554 48.661 199.874 77.0439 199.874C169.49 199.874 220.042 123.289 220.042 56.8738C220.042 54.6946 219.994 52.527 219.897 50.3719C229.716 43.2858 238.238 34.4336 244.976 24.3546Z" fill="#3A2F45"/>
</svg>
