<svg fill="#3EB995" xmlns="http://www.w3.org/2000/svg" xmlns:xlink="http://www.w3.org/1999/xlink" xmlns:a="http://ns.adobe.com/AdobeSVGViewerExtensions/3.0/" version="1.1" x="0px" y="0px" viewBox="0 0 32 32" overflow="visible" enable-background="new 0 0 32 32" xml:space="preserve"><path d="M29.364,2.637L29.364,2.637C27.662,0.936,25.402,0,23,0c-2.403,0-4.663,0.936-6.363,2.637c0,0-5.678,5.675-6.003,5.998  c-1.694,1.697-2.63,3.961-2.634,6.38c0.004,2.4,0.94,4.655,2.636,6.351l0.732,0.732c0.195,0.195,0.451,0.293,0.707,0.293  s0.512-0.098,0.707-0.293l1.414-1.414c0.391-0.391,0.391-1.023,0-1.414l-0.732-0.732c-1.918-1.919-1.944-5.064-0.058-7.015  c0.059-0.06,6.059-6.058,6.059-6.058C20.409,4.52,21.665,4,23.001,4c1.334,0,2.589,0.52,3.533,1.463  c0.001,0,0.001,0.002,0.001,0.002c1.953,1.955,1.953,5.117,0.001,7.07l-0.31,0.309C26.712,14.143,26.999,15.535,27,17  c0,0.266-0.036,0.521-0.053,0.781l2.417-2.418C32.88,11.848,32.877,6.148,29.364,2.637z"></path><path d="M29.364,2.637L29.364,2.637C27.662,0.936,25.402,0,23,0c-2.403,0-4.663,0.936-6.363,2.637c0,0-5.678,5.675-6.003,5.998  c-1.694,1.697-2.63,3.961-2.634,6.38c0.004,2.4,0.94,4.655,2.636,6.351l0.732,0.732c0.195,0.195,0.451,0.293,0.707,0.293  s0.512-0.098,0.707-0.293l1.414-1.414c0.391-0.391,0.391-1.023,0-1.414l-0.732-0.732c-1.918-1.919-1.944-5.064-0.058-7.015  c0.059-0.06,6.059-6.058,6.059-6.058C20.409,4.52,21.665,4,23.001,4c1.334,0,2.589,0.52,3.533,1.463  c0.001,0,0.001,0.002,0.001,0.002c1.953,1.955,1.953,5.117,0.001,7.07l-0.31,0.309C26.712,14.143,26.999,15.535,27,17  c0,0.266-0.036,0.521-0.053,0.781l2.417-2.418C32.88,11.848,32.877,6.148,29.364,2.637z"></path><path d="M2.636,29.363L2.636,29.363C4.338,31.064,6.598,32,9,32c2.403,0,4.663-0.936,6.363-2.637c0,0,5.678-5.675,6.003-5.998  c1.694-1.697,2.63-3.961,2.634-6.38c-0.004-2.4-0.94-4.655-2.636-6.351l-0.732-0.732c-0.195-0.195-0.451-0.293-0.707-0.293  s-0.512,0.098-0.707,0.293l-1.414,1.414c-0.391,0.391-0.391,1.023,0,1.414l0.732,0.732c1.918,1.919,1.944,5.064,0.058,7.015  c-0.059,0.06-6.059,6.058-6.059,6.058C11.591,27.48,10.335,28,8.999,28c-1.334,0-2.589-0.52-3.533-1.463l-0.001-0.002  c-1.953-1.955-1.953-5.117-0.001-7.07l0.31-0.309C5.288,17.857,5.001,16.465,5,15c0-0.266,0.036-0.521,0.053-0.781l-2.417,2.418  C-0.88,20.152-0.877,25.852,2.636,29.363z"></path></svg>