<?xml version="1.0" encoding="UTF-8"?>
<svg width="109px" height="109px" viewBox="0 0 109 109" version="1.1" xmlns="http://www.w3.org/2000/svg" xmlns:xlink="http://www.w3.org/1999/xlink">
    <!-- Generator: Sketch 49.1 (51147) - http://www.bohemiancoding.com/sketch -->
    <title>noun_1205533_3EB995</title>
    <desc>Created with Sketch.</desc>
    <defs></defs>
    <g id="Page-1" stroke="none" stroke-width="1" fill="none" fill-rule="evenodd">
        <g id="noun_1205533_3EB995" fill="#3EB995" fill-rule="nonzero">
            <path d="M43.497185,65.7553091 C44.7726579,67.0356833 46.4711942,67.7420966 48.2765434,67.7420966 C50.0818927,67.7420966 51.780429,67.0356833 53.0538076,65.7553091 C54.3292805,64.4749349 55.0329898,62.7698717 55.0329898,60.9554827 C55.0329898,59.1452985 54.3292805,57.4402353 53.0538076,56.1598611 C47.5079087,50.5884463 47.5079087,41.5249108 53.0538076,35.953496 L71.1973582,17.7423281 C73.8802496,15.0491272 77.4553438,13.5669206 81.2629134,13.5669206 C85.070483,13.5669206 88.6434828,15.0491272 91.3284686,17.7423281 C94.0134544,20.435529 95.4878927,24.0243611 95.4878927,27.8444594 C95.4878927,31.6666602 94.01136,35.2554923 91.3284686,37.9507956 L81.4325576,47.8847333 C80.1570846,49.1651075 79.4533754,50.8701707 79.4533754,52.6845597 C79.4533754,54.4947439 80.1570846,56.1998071 81.4325576,57.4801813 C83.9897866,60.0430321 88.4340455,60.0430321 90.9891802,57.4801813 L100.885091,47.5462436 C111.704621,36.6851384 111.704621,19.0079853 100.887186,8.14688012 C95.6533482,2.89082843 88.6853702,0 81.2650078,0 C73.8425509,0 66.874573,2.89082843 61.6407356,8.14688012 L43.497185,26.358048 C32.6755612,37.2149484 32.6755612,54.8942039 43.497185,65.7553091 Z M46.4586279,29.326666 L64.6021786,11.1154981 C69.0443431,6.65626386 74.960946,4.20063651 81.2650078,4.20063651 C87.5669752,4.20063651 93.4835781,6.65626386 97.9257426,11.1154981 C107.109567,20.3388176 107.109567,35.3458964 97.9236482,44.5692159 L88.0277372,54.5031536 C87.0580426,55.4765744 85.3636951,55.4765744 84.3940006,54.5031536 C83.9102005,54.015392 83.6421208,53.3699489 83.6421208,52.6803549 C83.6421208,51.9865561 83.9102005,51.3411129 84.3940006,50.8533513 L94.2899116,40.9194136 C97.7644759,37.4336002 99.6766381,32.7893529 99.6766381,27.8402546 C99.6766381,22.8953612 97.7644759,18.2511139 94.2899116,14.7653004 C90.8174416,11.2794869 86.1909723,9.35787443 81.2629134,9.35787443 C76.3369488,9.35787443 71.7104795,11.2794869 68.2359152,14.7653004 L50.0923646,32.9764683 C42.912855,40.1877712 42.912855,51.9192786 50.0923646,59.1284791 C50.578259,59.6162407 50.8442444,60.2658887 50.8442444,60.9512778 C50.8442444,61.6408718 50.5761647,62.2905198 50.0923646,62.7782814 C49.1205756,63.755907 47.4304169,63.7474973 46.4586279,62.7782814 C37.2706149,53.5591667 37.2706149,38.5499855 46.4586279,29.326666 Z M67.8987212,41.2558009 C65.3456809,38.6929501 60.8888558,38.6929501 58.3420986,41.2558009 C55.7073778,43.9006462 55.7073778,48.2085061 58.3420986,50.8512489 C63.8900919,56.4226637 63.8900919,65.4861992 58.3420986,71.057614 L40.198548,89.2687819 C37.5156565,91.9619828 33.9426567,93.4441894 30.1329928,93.4441894 C26.3275176,93.4441894 22.7524234,91.9619828 20.069532,89.2687819 C17.3866406,86.5755811 15.9080134,82.9909538 15.9080134,79.1666506 C15.9080134,75.3423474 17.3866406,71.7556177 20.069532,69.0603144 L29.965443,59.1263767 C31.2409159,57.8460025 31.9446252,56.1409393 31.9446252,54.3307551 C31.9446252,52.5163661 31.2409159,50.8113029 29.965443,49.5309287 C27.414497,46.9722828 22.963955,46.9680779 20.406726,49.5309287 L10.5087206,59.4690713 C-0.310808715,70.3301765 -0.310808715,88.0031247 10.5087206,98.8642299 C15.742558,104.116077 22.7126303,107.01111 30.1329928,107.01111 C37.5533552,107.01111 44.5234276,104.116077 49.7572649,98.8642299 L67.8987212,80.653062 C73.1325586,75.3970103 76.0165098,68.4043591 76.0165098,60.9554827 C76.0165098,53.5045038 73.1325586,46.5118526 67.8987212,41.2558009 Z M64.9372782,77.6823416 L46.7958219,95.8935095 C42.3515631,100.352744 36.4349602,102.808371 30.1329928,102.808371 C23.8310253,102.808371 17.9144225,100.352744 13.4701636,95.8935095 C4.28424498,86.67019 4.28424498,71.667316 13.4701636,62.4439965 L23.368169,52.505854 C23.8519691,52.0222972 24.4991302,51.7552898 25.1860845,51.7552898 C25.8730387,51.7552898 26.5201999,52.0222972 27.004,52.505854 C28.0072045,53.5129135 28.0072045,55.1506992 27.004,56.1556563 L17.108089,66.089594 C13.6335247,69.5796123 11.719268,74.2238596 11.719268,79.168753 C11.719268,84.1136464 13.6335247,88.7578937 17.108089,92.2437072 C20.5805589,95.7337255 25.2049338,97.6511332 30.1329928,97.6511332 C35.0610517,97.6511332 39.687521,95.7337255 43.1599909,92.2437072 L61.3035416,74.0325393 C68.4851456,66.8212364 68.4851456,55.089729 61.3035416,47.8805285 C60.3003371,46.873469 60.3003371,45.2356833 61.3035416,44.2307262 C62.2732362,43.2531006 63.9654893,43.2573054 64.9372782,44.2307262 C69.3815371,48.6899605 71.8277644,54.6314013 71.8277644,60.9596875 C71.8277644,67.2816665 69.3815371,73.2231073 64.9372782,77.6823416 Z M81.5100494,81.407831 C80.6911496,80.5857846 79.3675061,80.5857846 78.5486064,81.407831 C77.7297067,82.2298775 77.7297067,83.5586074 78.5486064,84.3806539 L92.5641485,98.4521555 C92.9725511,98.8621275 93.5087105,99.0681647 94.04487,99.0681647 C94.5810294,99.0681647 95.1171888,98.8621275 95.5255914,98.4521555 C96.3444912,97.630109 96.3444912,96.3013791 95.5255914,95.4793326 L81.5100494,81.407831 Z M73.7441154,90.4461375 C73.3419959,89.3528788 72.1356372,88.7999421 71.0549409,89.1972996 C69.9679614,89.598862 69.4150471,90.8077539 69.8129779,91.8989102 L75.585069,107.625017 C75.8971305,108.474395 76.6971809,109 77.5495906,109 C77.7904435,109 78.0333907,108.957952 78.2742436,108.871752 C79.361223,108.47019 79.9141374,107.261298 79.5162066,106.170142 L73.7441154,90.4461375 Z M104.665434,78.439213 L88.9974318,72.6407368 C87.9146411,72.2454817 86.7103768,72.7963159 86.3082572,73.8895747 C85.9103264,74.9786286 86.4632408,76.1854181 87.5502202,76.5869804 L103.218222,82.3854566 C103.456981,82.4716559 103.699928,82.5137043 103.942875,82.5137043 C104.795285,82.5137043 105.595335,81.9880991 105.907397,81.1387212 C106.305328,80.0475649 105.752413,78.8407754 104.665434,78.439213 Z M24.5284515,30.1571222 C24.9368541,30.5670942 25.4730135,30.7731314 26.0091729,30.7731314 C26.5453324,30.7731314 27.0814918,30.5670942 27.4898944,30.1571222 C28.3087942,29.3350757 28.3087942,28.0063458 27.4898944,27.1842994 L13.4701636,13.1127978 C12.6512639,12.2907513 11.3276204,12.2907513 10.5087206,13.1127978 C9.6898209,13.9348442 9.6898209,15.2635741 10.5087206,16.0856206 L24.5284515,30.1571222 Z M17.765722,39.0503617 C18.6181317,39.0503617 19.4181821,38.5247565 19.7302436,37.6753785 C20.1281744,36.5863246 19.57526,35.3795352 18.4882806,34.9779728 L2.81818409,29.1794966 C1.73329904,28.7821391 0.531129108,29.3350757 0.129009551,30.4283345 C-0.268921261,31.5173884 0.28399313,32.7241778 1.37097256,33.1257402 L17.0410691,38.9242164 C17.2819219,39.0104157 17.5248692,39.0503617 17.765722,39.0503617 Z M32.292291,21.1188157 C32.6043526,21.9681937 33.4044029,22.4937988 34.2568126,22.4937988 C34.4976655,22.4937988 34.7406127,22.4517504 34.9814656,22.3655512 C36.068445,21.9639888 36.6213594,20.7550969 36.2234286,19.6639406 L30.4492431,3.93362909 C30.0471235,2.84457518 28.8449536,2.2874337 27.7600685,2.68899605 C26.6751835,3.0905584 26.1201747,4.29945028 26.5181055,5.38640177 L32.292291,21.1188157 Z" id="Shape"></path>
        </g>
    </g>
</svg>