<?xml version="1.0" encoding="UTF-8"?>
<svg width="90px" height="90px" viewBox="0 0 90 90" version="1.1" xmlns="http://www.w3.org/2000/svg" xmlns:xlink="http://www.w3.org/1999/xlink">
    <!-- Generator: Sketch 51.3 (57544) - http://www.bohemiancoding.com/sketch -->
    <title>vote</title>
    <desc>Created with Sketch.</desc>
    <defs></defs>
    <g id="Page-1" stroke="none" stroke-width="1" fill="none" fill-rule="evenodd">
        <g id="vote" fill="#FFFFFF" fill-rule="nonzero">
            <path d="M90,57.459 C90,54.409 88.884,51.563 86.888,49.409 C87.053,48.632 87.137,47.838 87.137,47.036 C87.137,40.898 82.448,35.905 76.683,35.905 L64.41,35.905 C64.465,35.714 64.524,35.568 64.569,35.485 C66.47,32.039 71.519,21.825 71.519,14.666 L71.519,14.566 C71.519,7.977 66.802,0.458 60.033,0.206 L59.753,0.197 C55.716,0.197 53.108,3.467 53.108,8.526 L53.108,9.712 C53.108,16.379 49.739,20.517 45.838,24.079 C44.562,25.243 43.243,26.448 42.046,27.797 C40.836,29.156 39.613,31.25 38.197,33.672 C35.62,38.084 32.267,43.801 28.269,46.012 C27.538,42.302 24.269,39.491 20.346,39.491 L8.084,39.491 C3.626,39.49 0,43.118 0,47.575 L0,81.72 C0,86.178 3.625,89.804 8.084,89.804 L20.346,89.804 C23.933,89.804 26.977,87.452 28.031,84.213 C32.099,86.138 39.208,88.488 49.712,88.488 L73.479,88.488 C78.991,88.488 83.474,83.725 83.474,77.87 C83.474,77.509 83.455,77.146 83.418,76.785 C85.773,74.683 87.137,71.663 87.137,68.397 C87.137,67.453 87.016,66.501 86.779,65.582 C88.822,63.409 90,60.493 90,57.459 Z M18.298,83.167 C16.173,83.167 14.449,81.443 14.449,79.316 C14.449,77.19 16.174,75.466 18.298,75.466 C20.424,75.466 22.147,77.19 22.147,79.316 C22.147,81.443 20.424,83.167 18.298,83.167 Z M82.035,62.619 L80.278,63.927 L81.2,65.914 C81.557,66.686 81.747,67.545 81.747,68.397 C81.747,70.413 80.711,72.312 79.039,73.356 L77.327,74.426 L77.875,76.371 C78.014,76.862 78.084,77.366 78.084,77.869 C78.084,80.751 76.018,83.097 73.479,83.097 L49.712,83.097 C37.649,83.097 30.696,79.701 28.254,78.231 L28.095,78.231 L28.255,51.854 C34.972,49.864 39.47,42.174 42.851,36.391 C44.069,34.307 45.218,32.337 46.074,31.376 C47.087,30.238 48.245,29.18 49.472,28.059 C53.702,24.196 58.498,18.757 58.498,9.712 L58.498,8.526 C58.498,7.843 58.586,5.631 59.717,5.588 L59.832,5.592 C63.379,5.723 66.13,10.524 66.13,14.565 L66.13,14.665 C66.13,20.436 61.402,30.065 59.824,32.927 C59.229,34.006 58.875,35.508 58.875,37.018 C58.875,39.375 60.764,41.294 63.087,41.294 L76.682,41.294 C79.474,41.294 81.746,43.87 81.746,47.036 C81.746,47.796 81.602,48.543 81.319,49.254 L80.571,51.139 L82.174,52.379 C83.722,53.579 84.61,55.431 84.61,57.459 C84.61,59.488 83.647,61.418 82.035,62.619 Z" id="Shape"></path>
        </g>
    </g>
</svg>