<svg fill="#3EB995" xmlns="http://www.w3.org/2000/svg" xmlns:xlink="http://www.w3.org/1999/xlink" version="1.1" x="0px" y="0px" viewBox="0 0 100 100" enable-background="new 0 0 100 100" xml:space="preserve"><path d="M95,62.459c0-3.05-1.116-5.896-3.112-8.05c0.165-0.777,0.249-1.571,0.249-2.373c0-6.138-4.689-11.131-10.454-11.131H69.41  c0.055-0.191,0.114-0.337,0.159-0.42c1.901-3.446,6.95-13.66,6.95-20.819v-0.1c0-6.589-4.717-14.108-11.486-14.36l-0.28-0.009  c-4.037,0-6.645,3.27-6.645,8.329v1.186c0,6.667-3.369,10.805-7.27,14.367c-1.276,1.164-2.595,2.369-3.792,3.718  c-1.21,1.359-2.433,3.453-3.849,5.875c-2.577,4.412-5.93,10.129-9.928,12.34c-0.731-3.71-4-6.521-7.923-6.521H13.084  C8.626,44.49,5,48.118,5,52.575V86.72c0,4.458,3.625,8.084,8.084,8.084h12.262c3.587,0,6.631-2.352,7.685-5.591  c4.068,1.925,11.177,4.275,21.681,4.275h23.767c5.512,0,9.995-4.763,9.995-10.618c0-0.361-0.019-0.724-0.056-1.085  c2.355-2.102,3.719-5.122,3.719-8.388c0-0.944-0.121-1.896-0.358-2.815C93.822,68.409,95,65.493,95,62.459z M23.298,88.167  c-2.125,0-3.849-1.724-3.849-3.851c0-2.126,1.725-3.85,3.849-3.85c2.126,0,3.849,1.724,3.849,3.85  C27.147,86.443,25.424,88.167,23.298,88.167z M87.035,67.619l-1.757,1.308l0.922,1.987c0.357,0.772,0.547,1.631,0.547,2.483  c0,2.016-1.036,3.915-2.708,4.959l-1.712,1.07l0.548,1.945c0.139,0.491,0.209,0.995,0.209,1.498c0,2.882-2.066,5.228-4.605,5.228  H54.712c-12.063,0-19.016-3.396-21.458-4.866h-0.159l0.16-26.377c6.717-1.99,11.215-9.68,14.596-15.463  c1.218-2.084,2.367-4.054,3.223-5.015c1.013-1.138,2.171-2.196,3.398-3.317c4.23-3.863,9.026-9.302,9.026-18.347v-1.186  c0-0.683,0.088-2.895,1.219-2.938l0.115,0.004c3.547,0.131,6.298,4.932,6.298,8.973v0.1c0,5.771-4.728,15.4-6.306,18.262  c-0.595,1.079-0.949,2.581-0.949,4.091c0,2.357,1.889,4.276,4.212,4.276h13.595c2.792,0,5.064,2.576,5.064,5.742  c0,0.76-0.144,1.507-0.427,2.218l-0.748,1.885l1.603,1.24c1.548,1.2,2.436,3.052,2.436,5.08  C89.61,64.488,88.647,66.418,87.035,67.619z"></path></svg>