<svg width="200" height="200" viewBox="0 0 200 200" fill="none" xmlns="http://www.w3.org/2000/svg">
<path d="M100 0C44.7702 0 0 44.7702 0 100C0 155.23 44.7702 200 100 200C155.23 200 200 155.23 200 100C200 44.7702 155.23 0 100 0ZM164.516 86.8952V89.6895C164.516 92.0564 163.177 94.2218 161.06 95.2782L154.855 98.3831C153.869 98.8763 152.771 99.0999 151.671 99.0312C150.571 98.9625 149.509 98.6039 148.593 97.9919L141.25 93.0968C140.458 92.5692 139.556 92.2292 138.613 92.1028C137.669 91.9763 136.71 92.0667 135.806 92.3669L134.738 92.7218C130.827 94.0242 129.23 98.6855 131.516 102.117L136.855 110.125C138.012 111.863 139.964 112.907 142.052 112.907H145.363C148.815 112.907 151.613 115.706 151.613 119.157V123.73C151.613 125.081 151.173 126.399 150.363 127.48L142.806 137.552C142.234 138.319 141.843 139.206 141.665 140.145L139.931 149.351C139.681 150.677 139.008 151.887 138.012 152.802C134.191 156.302 130.806 160.25 127.931 164.56L122.677 172.444C121.656 173.976 120.271 175.233 118.647 176.103C117.023 176.972 115.209 177.427 113.367 177.427C109.129 177.427 105.254 175.032 103.359 171.242C101.15 166.824 99.9998 161.952 100 157.012V144.96C100 141.508 97.2016 138.71 93.75 138.71H83.3145C77.4718 138.71 71.871 136.387 67.7379 132.258C63.6079 128.126 61.2874 122.523 61.2863 116.681V111.012C61.2863 104.081 64.5524 97.5524 70.0968 93.3911L81.2177 85.0484C85.0312 82.1888 89.6689 80.6424 94.4355 80.6411H94.7943C98.2137 80.6411 101.589 81.4355 104.645 82.9677L110.581 85.9355C112.065 86.6774 113.778 86.7984 115.351 86.2742L134.427 79.9153C136.98 79.0645 138.702 76.6774 138.702 73.9879C138.702 70.5363 135.903 67.7379 132.452 67.7379H128.383C126.726 67.7379 125.137 67.0806 123.964 65.9073L121.173 63.1169C120.593 62.5364 119.904 62.076 119.146 61.7619C118.388 61.4478 117.575 61.2862 116.754 61.2863H80.4435C76.9919 61.2863 74.1936 58.4879 74.1936 55.0363V53.2621C74.1936 50.3952 76.1452 47.8952 78.9274 47.1976L84.754 45.7419C86.2621 45.3629 87.5766 44.4395 88.4395 43.1452L91.6976 38.2621C92.8548 36.5242 94.8064 35.4798 96.8952 35.4798H106.657C110.109 35.4798 112.907 32.6815 112.907 29.2298V20.4798C144.851 25.6573 170.508 49.6048 178.198 80.6452H170.766C167.315 80.6452 164.516 83.4435 164.516 86.8952Z" fill="#3A2F45"/>
</svg>
