<svg width="1158" height="1080" viewBox="0 0 1158 1080" fill="none" xmlns="http://www.w3.org/2000/svg">
<g opacity="0.8" clip-path="url(#clip0_16618_44297)">
<g opacity="0.8" filter="url(#filter0_f_16618_44297)">
<ellipse cx="732.311" cy="232.837" rx="732.311" ry="232.837" transform="matrix(0.931901 0.362713 0.394098 -0.919068 779.583 439.094)" fill="#6AE394"/>
</g>
<g opacity="0.8" filter="url(#filter1_f_16618_44297)">
<ellipse cx="266.391" cy="84.6983" rx="266.391" ry="84.6983" transform="matrix(0.931901 0.362713 0.394098 -0.919068 1069.11 392.914)" fill="#E7FFD9"/>
</g>
<path fill-rule="evenodd" clip-rule="evenodd" d="M532.937 -229.325C644.332 -105.109 812.25 10.8331 999.018 90.1927C1185.79 169.552 1391.45 212.347 1578.33 190.217L1578.21 189.224C1391.55 211.328 1186.07 168.585 999.409 89.2723C812.752 9.95953 644.962 -105.905 533.682 -229.992L532.937 -229.325ZM612.478 -89.2699C593.072 -116.23 573.06 -142.771 550.132 -167.663L550.868 -168.341C573.837 -143.404 593.877 -116.824 613.29 -89.8542C618.795 -82.206 624.249 -74.5277 629.705 -66.8467L629.708 -66.8427C643.496 -47.4319 657.296 -28.0037 671.966 -9.00136C712.907 44.0301 760.577 93.6807 833.414 130.063C939.924 183.266 1035.66 195.802 1144.95 209.699L1148 210.087C1256.54 223.883 1378.57 239.396 1537.67 297.528L1537.33 298.467C1378.33 240.374 1256.39 224.873 1147.86 211.077L1144.83 210.691C1035.53 196.795 939.647 184.245 832.967 130.958C759.945 94.4827 712.166 44.7058 671.175 -8.39026C656.492 -27.4093 642.674 -46.8626 628.881 -66.2795L628.881 -66.2806L628.88 -66.2816L628.879 -66.2827L628.878 -66.2837L628.865 -66.3019L628.857 -66.3133L628.844 -66.3314C623.402 -73.993 617.964 -81.6488 612.478 -89.2699ZM207.635 -126.057C296.725 -0.383469 392.277 89.5761 452.985 134.784C483.251 157.323 501.465 182.306 510.14 208.168C515.256 223.422 517.058 238.995 516.048 254.573C374.282 183.388 246.807 93.342 156.415 -40.7816L155.585 -40.2227C246.186 94.2109 373.97 184.396 515.973 255.654C515.207 266.128 513.174 276.601 510.028 286.976C503.426 308.744 501.94 329.463 504.413 348.375C455.078 317.036 411.419 285.71 378.756 256.204L378.753 256.201C371.13 249.425 361.729 241.207 351.016 231.841L351.016 231.841C287.319 176.157 177.254 79.9379 118.946 5.43307L118.158 6.04936C176.533 80.6393 286.697 176.943 350.381 232.614L350.381 232.615C356.675 238.117 362.516 243.223 367.807 247.871C342.479 230.278 317.666 224.269 292.963 218.831C291.722 218.558 290.481 218.286 289.24 218.014C262.246 212.102 235.376 206.216 207.909 186.042C174.382 161.416 155.127 138.208 134.894 113.822C125.815 102.88 116.539 91.6999 105.688 80.0479C70.6788 42.4536 19.4246 0.148224 -94.2027 -54.5135L-94.6362 -53.6124C18.9061 1.00848 70.0503 43.246 104.956 80.7294C115.735 92.3037 124.979 103.444 134.044 114.369L134.044 114.369C154.315 138.799 173.69 162.147 207.317 186.848C234.958 207.15 262.014 213.075 288.99 218.983L288.99 218.983C290.243 219.258 291.496 219.532 292.748 219.808C320.969 226.02 349.153 232.945 378.094 256.953C410.963 286.645 454.931 318.162 504.589 349.672C510.033 388.303 532.031 419.255 560.592 435.987C579.438 447.028 597.945 455.446 617.412 464.302L617.414 464.303L619.402 465.207C639.605 474.4 660.894 484.176 684.75 497.931C702.256 508.024 713.254 517.466 720.574 526.996C727.89 536.523 731.555 546.168 734.351 556.715C735.492 561.018 736.487 565.472 737.527 570.127C741.589 588.3 746.333 609.531 763.065 636.743C768.012 644.789 777.469 653.478 790.36 662.958C803.262 672.446 819.653 682.762 838.519 694.049C850.579 701.265 863.651 708.879 877.475 716.93L877.484 716.936C906.925 734.083 939.778 753.218 973.534 774.727C1072.75 837.951 1179.61 921.594 1230.04 1035.2L1230.96 1034.8C1180.39 920.901 1073.32 837.124 974.071 773.884C940.302 752.366 907.419 733.213 877.971 716.062L877.966 716.059L877.964 716.058C864.142 708.007 851.077 700.398 839.032 693.191C820.171 681.907 803.814 671.611 790.952 662.153C778.079 652.686 768.757 644.091 763.917 636.219C747.281 609.163 742.576 588.116 738.515 569.956L738.515 569.955L738.515 569.954L738.514 569.95L738.513 569.943C737.469 565.275 736.468 560.798 735.318 556.459C732.503 545.842 728.794 536.057 721.367 526.387C713.943 516.722 702.829 507.201 685.25 497.065C661.348 483.284 640.021 473.49 619.816 464.297L617.843 463.399C598.363 454.538 579.899 446.139 561.098 435.124C533.021 418.675 511.304 388.323 505.701 350.377C544.999 375.271 587.823 400.153 631.505 424.12C730.901 478.656 834.772 528.472 911.722 562.936C934.123 572.969 957.02 581.769 980.037 590.44C983.263 591.655 986.492 592.868 989.722 594.081C1009.54 601.525 1029.41 608.989 1049.1 617.177C1094.9 636.221 1139.73 659.175 1180.67 694.875L1181.33 694.121C1140.27 658.321 1095.33 635.318 1049.48 616.254C1029.77 608.058 1009.89 600.587 990.069 593.143C986.84 591.93 983.614 590.718 980.39 589.504C957.374 580.833 934.501 572.043 912.131 562.023C839.817 529.636 811.52 481.559 801.273 435.22C796.584 414.015 795.672 393.163 796.065 374.322C808.74 379.15 821.413 383.958 834.071 388.76L834.072 388.76C864.595 400.339 895.027 411.884 925.178 423.605C1020.31 460.587 1112.66 499.327 1196.25 546.433L1196.75 545.562C1113.09 498.419 1020.69 459.659 925.541 422.672C895.38 410.948 864.944 399.402 834.424 387.824L834.406 387.817C821.644 382.976 808.867 378.129 796.089 373.261C796.122 371.861 796.162 370.473 796.208 369.096C796.526 359.572 797.13 350.631 797.68 342.493L797.777 341.057C798.351 332.545 798.842 324.939 798.842 318.531V318.084C807.847 320.034 817.4 321.886 827.4 323.727C835.974 325.306 844.879 326.878 854.055 328.497C884.138 333.807 917.122 339.628 950.839 347.896C1038.84 369.473 1131.69 407.685 1190.58 496.778L1191.42 496.226C1132.31 406.819 1039.16 368.523 951.077 346.924C917.324 338.648 884.295 332.819 854.207 327.509L854.192 327.506L854.164 327.501C845.01 325.886 836.128 324.318 827.581 322.744C817.499 320.887 807.886 319.022 798.842 317.06C798.844 287.729 798.817 250.806 785.548 213.359C813.709 225.926 843.863 238.996 875.097 252.117C994.515 302.278 1129.78 353.19 1229.87 379.485L1230.13 378.518C1130.1 352.241 994.89 301.351 875.485 251.195C843.929 237.939 813.48 224.737 785.081 212.056C784.682 210.955 784.271 209.854 783.849 208.753C768.634 169.088 737.998 129.199 676.381 97.3697C553.397 33.8394 462.377 -36.6725 407.216 -148.091L406.319 -147.647C461.616 -35.9554 552.851 34.6828 675.922 98.2581C737.333 129.982 767.793 169.688 782.915 209.112C783.219 209.904 783.517 210.695 783.808 211.487C708.427 177.795 647.638 147.838 619.143 130.42C618.042 129.725 616.925 129.029 615.791 128.334C561.084 94.7921 489.882 49.7325 428.216 6.28838C397.383 -15.434 368.94 -36.748 346.139 -56.0131C323.324 -75.2894 306.201 -92.4785 297.961 -105.951L297.108 -105.429C305.439 -91.8074 322.674 -74.5297 345.494 -55.2493C368.326 -35.9576 396.795 -14.6249 427.64 7.10587C489.33 50.5669 560.551 95.6381 615.265 129.184C616.326 129.858 617.443 130.552 618.614 131.268C644.023 147.313 660.623 163.293 672.073 178.792C684.018 194.961 690.375 210.629 695.274 225.356C696.605 229.358 697.829 233.294 699.029 237.153L699.03 237.155C706.653 261.67 713.315 283.097 740.438 298.745C754.538 306.879 774.284 312.723 797.842 317.867L797.842 318.531C797.842 324.899 797.353 332.47 796.779 340.99L796.682 342.429C796.132 350.565 795.527 359.522 795.208 369.063C795.166 370.326 795.129 371.6 795.098 372.883C742.36 352.787 689.61 332.325 637.82 310.412C596.781 293.049 556.352 274.777 517.018 255.059C518.096 239.223 516.295 223.376 511.088 207.85C502.337 181.761 483.981 156.62 453.582 133.982C392.961 88.8388 297.483 -1.04448 208.451 -126.635L207.635 -126.057ZM795.073 373.944C742.217 353.804 689.338 333.296 637.43 311.333C596.508 294.019 556.184 275.799 516.94 256.139C516.145 266.554 514.11 276.961 510.985 287.266C504.328 309.216 502.907 330.079 505.515 349.075C544.982 374.104 588.042 399.133 631.986 423.243C722.079 472.674 815.853 518.229 889.912 551.983C833.219 520.094 809.506 477.081 800.296 435.436C795.554 413.992 794.66 392.923 795.073 373.944ZM797.842 316.843C797.844 287.3 797.776 250.273 784.285 212.795C718.76 183.528 664.147 157.035 632.028 139.072C650.464 152.266 663.41 165.383 672.877 178.198C684.91 194.486 691.308 210.264 696.223 225.04C697.564 229.072 698.794 233.025 699.998 236.892L699.998 236.893L699.999 236.895C707.627 261.402 714.174 282.438 740.938 297.878C754.872 305.918 774.421 311.719 797.842 316.843Z" fill="url(#paint0_linear_16618_44297)" fill-opacity="0.2"/>
<g filter="url(#filter2_di_16618_44297)">
<circle cx="3.87222" cy="3.87222" r="3.87222" transform="matrix(1 0 0 -1 591 295.742)" fill="#C6F0D4"/>
</g>
<g filter="url(#filter3_di_16618_44297)">
<circle cx="3.87222" cy="3.87222" r="3.87222" transform="matrix(1 0 0 -1 901 268.75)" fill="#C6F0D4"/>
</g>
<g filter="url(#filter4_di_16618_44297)">
<circle cx="3.44197" cy="3.44197" r="3.44197" transform="matrix(1 0 0 -1 801.783 457.5)" fill="#C6F0D4"/>
</g>
<g filter="url(#filter5_di_16618_44297)">
<circle cx="10.3259" cy="10.3259" r="10.3259" transform="matrix(1 0 0 -1 678 220.648)" fill="#C6F0D4"/>
</g>
<g filter="url(#filter6_di_16618_44297)">
<circle cx="10.3259" cy="10.3259" r="10.3259" transform="matrix(1 0 0 -1 734.665 590.016)" fill="#C6F0D4"/>
</g>
<g filter="url(#filter7_di_16618_44297)">
<circle cx="6.88394" cy="6.88394" r="6.88394" transform="matrix(1 0 0 -1 358 252.766)" fill="#C6F0D4"/>
</g>
</g>
<defs>
<filter id="filter0_f_16618_44297" x="565.122" y="-150.391" width="1977.33" height="1282.22" filterUnits="userSpaceOnUse" color-interpolation-filters="sRGB">
<feFlood flood-opacity="0" result="BackgroundImageFix"/>
<feBlend mode="normal" in="SourceGraphic" in2="BackgroundImageFix" result="shape"/>
<feGaussianBlur stdDeviation="150" result="effect1_foregroundBlur_16618_44297"/>
</filter>
<filter id="filter1_f_16618_44297" x="950.229" y="137.609" width="801.025" height="548.172" filterUnits="userSpaceOnUse" color-interpolation-filters="sRGB">
<feFlood flood-opacity="0" result="BackgroundImageFix"/>
<feBlend mode="normal" in="SourceGraphic" in2="BackgroundImageFix" result="shape"/>
<feGaussianBlur stdDeviation="75" result="effect1_foregroundBlur_16618_44297"/>
</filter>
<filter id="filter2_di_16618_44297" x="581.903" y="278.903" width="25.9372" height="25.9352" filterUnits="userSpaceOnUse" color-interpolation-filters="sRGB">
<feFlood flood-opacity="0" result="BackgroundImageFix"/>
<feColorMatrix in="SourceAlpha" type="matrix" values="0 0 0 0 0 0 0 0 0 0 0 0 0 0 0 0 0 0 127 0" result="hardAlpha"/>
<feOffset/>
<feGaussianBlur stdDeviation="4.54826"/>
<feComposite in2="hardAlpha" operator="out"/>
<feColorMatrix type="matrix" values="0 0 0 0 0.415686 0 0 0 0 0.890196 0 0 0 0 0.580392 0 0 0 1 0"/>
<feBlend mode="normal" in2="BackgroundImageFix" result="effect1_dropShadow_16618_44297"/>
<feBlend mode="normal" in="SourceGraphic" in2="effect1_dropShadow_16618_44297" result="shape"/>
<feColorMatrix in="SourceAlpha" type="matrix" values="0 0 0 0 0 0 0 0 0 0 0 0 0 0 0 0 0 0 127 0" result="hardAlpha"/>
<feOffset/>
<feGaussianBlur stdDeviation="0.379022"/>
<feComposite in2="hardAlpha" operator="arithmetic" k2="-1" k3="1"/>
<feColorMatrix type="matrix" values="0 0 0 0 0.415686 0 0 0 0 0.890196 0 0 0 0 0.580392 0 0 0 1 0"/>
<feBlend mode="normal" in2="shape" result="effect2_innerShadow_16618_44297"/>
</filter>
<filter id="filter3_di_16618_44297" x="891.903" y="251.911" width="25.9372" height="25.9352" filterUnits="userSpaceOnUse" color-interpolation-filters="sRGB">
<feFlood flood-opacity="0" result="BackgroundImageFix"/>
<feColorMatrix in="SourceAlpha" type="matrix" values="0 0 0 0 0 0 0 0 0 0 0 0 0 0 0 0 0 0 127 0" result="hardAlpha"/>
<feOffset/>
<feGaussianBlur stdDeviation="4.54826"/>
<feComposite in2="hardAlpha" operator="out"/>
<feColorMatrix type="matrix" values="0 0 0 0 0.415686 0 0 0 0 0.890196 0 0 0 0 0.580392 0 0 0 1 0"/>
<feBlend mode="normal" in2="BackgroundImageFix" result="effect1_dropShadow_16618_44297"/>
<feBlend mode="normal" in="SourceGraphic" in2="effect1_dropShadow_16618_44297" result="shape"/>
<feColorMatrix in="SourceAlpha" type="matrix" values="0 0 0 0 0 0 0 0 0 0 0 0 0 0 0 0 0 0 127 0" result="hardAlpha"/>
<feOffset/>
<feGaussianBlur stdDeviation="0.379022"/>
<feComposite in2="hardAlpha" operator="arithmetic" k2="-1" k3="1"/>
<feColorMatrix type="matrix" values="0 0 0 0 0.415686 0 0 0 0 0.890196 0 0 0 0 0.580392 0 0 0 1 0"/>
<feBlend mode="normal" in2="shape" result="effect2_innerShadow_16618_44297"/>
</filter>
<filter id="filter4_di_16618_44297" x="792.687" y="441.521" width="25.0768" height="25.0759" filterUnits="userSpaceOnUse" color-interpolation-filters="sRGB">
<feFlood flood-opacity="0" result="BackgroundImageFix"/>
<feColorMatrix in="SourceAlpha" type="matrix" values="0 0 0 0 0 0 0 0 0 0 0 0 0 0 0 0 0 0 127 0" result="hardAlpha"/>
<feOffset/>
<feGaussianBlur stdDeviation="4.54826"/>
<feComposite in2="hardAlpha" operator="out"/>
<feColorMatrix type="matrix" values="0 0 0 0 0.415686 0 0 0 0 0.890196 0 0 0 0 0.580392 0 0 0 1 0"/>
<feBlend mode="normal" in2="BackgroundImageFix" result="effect1_dropShadow_16618_44297"/>
<feBlend mode="normal" in="SourceGraphic" in2="effect1_dropShadow_16618_44297" result="shape"/>
<feColorMatrix in="SourceAlpha" type="matrix" values="0 0 0 0 0 0 0 0 0 0 0 0 0 0 0 0 0 0 127 0" result="hardAlpha"/>
<feOffset/>
<feGaussianBlur stdDeviation="0.379022"/>
<feComposite in2="hardAlpha" operator="arithmetic" k2="-1" k3="1"/>
<feColorMatrix type="matrix" values="0 0 0 0 0.415686 0 0 0 0 0.890196 0 0 0 0 0.580392 0 0 0 1 0"/>
<feBlend mode="normal" in2="shape" result="effect2_innerShadow_16618_44297"/>
</filter>
<filter id="filter5_di_16618_44297" x="668.903" y="190.903" width="38.8444" height="38.8415" filterUnits="userSpaceOnUse" color-interpolation-filters="sRGB">
<feFlood flood-opacity="0" result="BackgroundImageFix"/>
<feColorMatrix in="SourceAlpha" type="matrix" values="0 0 0 0 0 0 0 0 0 0 0 0 0 0 0 0 0 0 127 0" result="hardAlpha"/>
<feOffset/>
<feGaussianBlur stdDeviation="4.54826"/>
<feComposite in2="hardAlpha" operator="out"/>
<feColorMatrix type="matrix" values="0 0 0 0 0.415686 0 0 0 0 0.890196 0 0 0 0 0.580392 0 0 0 1 0"/>
<feBlend mode="normal" in2="BackgroundImageFix" result="effect1_dropShadow_16618_44297"/>
<feBlend mode="normal" in="SourceGraphic" in2="effect1_dropShadow_16618_44297" result="shape"/>
<feColorMatrix in="SourceAlpha" type="matrix" values="0 0 0 0 0 0 0 0 0 0 0 0 0 0 0 0 0 0 127 0" result="hardAlpha"/>
<feOffset/>
<feGaussianBlur stdDeviation="0.379022"/>
<feComposite in2="hardAlpha" operator="arithmetic" k2="-1" k3="1"/>
<feColorMatrix type="matrix" values="0 0 0 0 0.415686 0 0 0 0 0.890196 0 0 0 0 0.580392 0 0 0 1 0"/>
<feBlend mode="normal" in2="shape" result="effect2_innerShadow_16618_44297"/>
</filter>
<filter id="filter6_di_16618_44297" x="725.569" y="560.271" width="38.8444" height="38.8415" filterUnits="userSpaceOnUse" color-interpolation-filters="sRGB">
<feFlood flood-opacity="0" result="BackgroundImageFix"/>
<feColorMatrix in="SourceAlpha" type="matrix" values="0 0 0 0 0 0 0 0 0 0 0 0 0 0 0 0 0 0 127 0" result="hardAlpha"/>
<feOffset/>
<feGaussianBlur stdDeviation="4.54826"/>
<feComposite in2="hardAlpha" operator="out"/>
<feColorMatrix type="matrix" values="0 0 0 0 0.415686 0 0 0 0 0.890196 0 0 0 0 0.580392 0 0 0 1 0"/>
<feBlend mode="normal" in2="BackgroundImageFix" result="effect1_dropShadow_16618_44297"/>
<feBlend mode="normal" in="SourceGraphic" in2="effect1_dropShadow_16618_44297" result="shape"/>
<feColorMatrix in="SourceAlpha" type="matrix" values="0 0 0 0 0 0 0 0 0 0 0 0 0 0 0 0 0 0 127 0" result="hardAlpha"/>
<feOffset/>
<feGaussianBlur stdDeviation="0.379022"/>
<feComposite in2="hardAlpha" operator="arithmetic" k2="-1" k3="1"/>
<feColorMatrix type="matrix" values="0 0 0 0 0.415686 0 0 0 0 0.890196 0 0 0 0 0.580392 0 0 0 1 0"/>
<feBlend mode="normal" in2="shape" result="effect2_innerShadow_16618_44297"/>
</filter>
<filter id="filter7_di_16618_44297" x="348.903" y="229.903" width="31.9606" height="31.9587" filterUnits="userSpaceOnUse" color-interpolation-filters="sRGB">
<feFlood flood-opacity="0" result="BackgroundImageFix"/>
<feColorMatrix in="SourceAlpha" type="matrix" values="0 0 0 0 0 0 0 0 0 0 0 0 0 0 0 0 0 0 127 0" result="hardAlpha"/>
<feOffset/>
<feGaussianBlur stdDeviation="4.54826"/>
<feComposite in2="hardAlpha" operator="out"/>
<feColorMatrix type="matrix" values="0 0 0 0 0.415686 0 0 0 0 0.890196 0 0 0 0 0.580392 0 0 0 1 0"/>
<feBlend mode="normal" in2="BackgroundImageFix" result="effect1_dropShadow_16618_44297"/>
<feBlend mode="normal" in="SourceGraphic" in2="effect1_dropShadow_16618_44297" result="shape"/>
<feColorMatrix in="SourceAlpha" type="matrix" values="0 0 0 0 0 0 0 0 0 0 0 0 0 0 0 0 0 0 127 0" result="hardAlpha"/>
<feOffset/>
<feGaussianBlur stdDeviation="0.379022"/>
<feComposite in2="hardAlpha" operator="arithmetic" k2="-1" k3="1"/>
<feColorMatrix type="matrix" values="0 0 0 0 0.415686 0 0 0 0 0.890196 0 0 0 0 0.580392 0 0 0 1 0"/>
<feBlend mode="normal" in2="shape" result="effect2_innerShadow_16618_44297"/>
</filter>
<linearGradient id="paint0_linear_16618_44297" x1="741.846" y1="-217.025" x2="741.846" y2="1035.2" gradientUnits="userSpaceOnUse">
<stop stop-color="#F1F1F3" stop-opacity="0"/>
<stop offset="1" stop-color="#F1F1F3"/>
</linearGradient>
<clipPath id="clip0_16618_44297">
<rect width="1158" height="1080" fill="white"/>
</clipPath>
</defs>
</svg>
